<svg width="149" height="25" viewBox="0 0 149 25" fill="none" xmlns="http://www.w3.org/2000/svg">
<g clip-path="url(#clip0_4683_18461)">
<path d="M30.8457 8.88744V7.79296L34.0679 2.70068H34.98V4.25887H34.423L32.2535 7.69689V7.75677H36.7526V8.88744H30.8444H30.8457ZM34.469 10.2967V8.55325L34.4843 8.06312V2.70068H35.7821V10.2953H34.469V10.2967Z" fill="#121212"/>
<path d="M38.0107 10.2982V2.70361H40.8584C41.4418 2.70361 41.932 2.81223 42.3288 3.02945C42.7257 3.24668 43.0264 3.54606 43.2298 3.92481C43.433 4.30497 43.5361 4.73524 43.5361 5.21704C43.5361 5.69881 43.433 6.13606 43.2284 6.51484C43.0236 6.89356 42.7201 7.19015 42.3191 7.40738C41.918 7.62326 41.4251 7.73188 40.8389 7.73188H38.9507V6.60116H40.6523C40.9934 6.60116 41.2733 6.54128 41.4906 6.42292C41.7078 6.30456 41.8693 6.14166 41.9751 5.93278C42.0796 5.72531 42.1325 5.48718 42.1325 5.21704C42.1325 4.9469 42.0796 4.71017 41.9751 4.50548C41.8707 4.30078 41.7078 4.14065 41.4892 4.02508C41.2705 3.9095 40.9892 3.85241 40.6453 3.85241H39.3837V10.2982H38.0079H38.0107Z" fill="#121212"/>
<path d="M53.8252 5.26474H52.4383C52.3993 5.03777 52.3255 4.83447 52.2197 4.65762C52.1138 4.48078 51.9815 4.33039 51.8228 4.20645C51.664 4.08253 51.4844 3.98923 51.2825 3.92657C51.0806 3.86391 50.8634 3.83188 50.6322 3.83188C50.2186 3.83188 49.8538 3.93492 49.535 4.14101C49.2161 4.3471 48.9668 4.64926 48.7858 5.04612C48.6048 5.44297 48.5157 5.92758 48.5157 6.49849C48.5157 7.06939 48.6062 7.56793 48.7886 7.96474C48.971 8.3616 49.2203 8.66101 49.5377 8.86288C49.8552 9.06482 50.22 9.16508 50.6294 9.16508C50.8564 9.16508 51.0708 9.13444 51.2686 9.07456C51.4677 9.01468 51.6473 8.92416 51.8061 8.8058C51.9662 8.68744 52.0999 8.54124 52.2099 8.36855C52.3199 8.19591 52.3965 7.99818 52.4383 7.77541L53.8252 7.78235C53.7736 8.14298 53.6609 8.48136 53.4896 8.79886C53.3183 9.11495 53.0927 9.39486 52.817 9.63572C52.5399 9.87664 52.2169 10.0646 51.8451 10.1997C51.4747 10.3347 51.0625 10.4016 50.61 10.4016C49.9429 10.4016 49.347 10.247 48.822 9.93792C48.2984 9.62878 47.8849 9.18318 47.5827 8.59972C47.2805 8.01627 47.1301 7.31586 47.1301 6.49989C47.1301 5.68386 47.2819 4.98068 47.5869 4.39862C47.8904 3.81656 48.3054 3.37097 48.829 3.06184C49.3525 2.75271 49.9471 2.59814 50.6085 2.59814C51.0319 2.59814 51.4245 2.65802 51.788 2.77638C52.1514 2.89474 52.4759 3.0688 52.7599 3.29717C53.044 3.52554 53.2779 3.80543 53.4631 4.13544C53.6483 4.46546 53.7681 4.84143 53.8252 5.26474Z" fill="#121212"/>
<path d="M55.9677 10.2982H54.4987L57.1723 2.70361H58.8712L61.5487 10.2982H60.0794L58.0511 4.26041H57.9912L55.9663 10.2982H55.9677ZM56.0167 7.31966H60.0212V8.42529H56.0167V7.31966Z" fill="#121212"/>
<path d="M62.5492 10.2982V2.70361H65.3981C65.9818 2.70361 66.4719 2.81223 66.8685 3.02945C67.2657 3.24668 67.5665 3.54606 67.7698 3.92481C67.9732 4.30497 68.0762 4.73524 68.0762 5.21704C68.0762 5.69881 67.9732 6.13606 67.7681 6.51484C67.5637 6.89356 67.2601 7.19015 66.859 7.40738C66.4579 7.62326 65.965 7.73188 65.3785 7.73188H63.4908V6.60116H65.192C65.5331 6.60116 65.8132 6.54128 66.0305 6.42292C66.2479 6.30456 66.4092 6.14166 66.5151 5.93278C66.6193 5.72531 66.6725 5.48718 66.6725 5.21704C66.6725 4.9469 66.6193 4.71017 66.5151 4.50548C66.4103 4.30078 66.2479 4.14065 66.0289 4.02508C65.8104 3.9095 65.5292 3.85241 65.1853 3.85241H63.9238V10.2982H62.5481H62.5492Z" fill="#121212"/>
<path d="M70.645 2.70215V10.2967H69.2693V2.70215H70.645Z" fill="#121212"/>
<path d="M71.8074 3.85512V2.70215H77.8671V3.85512H75.5195V10.2967H74.155V3.85512H71.8074Z" fill="#121212"/>
<path d="M79.0871 10.2982H77.6178L80.2914 2.70361H81.9903L84.6678 10.2982H83.1991L81.1703 4.26041H81.1103L79.0854 10.2982H79.0871ZM79.1358 7.31966H83.1403V8.42529H79.1358V7.31966Z" fill="#121212"/>
<path d="M85.6705 10.2982V2.70361H87.0463V9.14519H90.3909V10.2982H85.6705Z" fill="#121212"/>
<path d="M94.1731 10.2982V2.70361H97.0226C97.6057 2.70361 98.0958 2.81223 98.493 3.02945C98.8896 3.24668 99.1904 3.54606 99.3937 3.92481C99.597 4.30497 99.7001 4.73524 99.7001 5.21704C99.7001 5.69881 99.597 6.13606 99.3926 6.51484C99.1876 6.89356 98.884 7.19015 98.4829 7.40738C98.0818 7.62326 97.5889 7.73188 97.003 7.73188H95.1147V6.60116H96.8165C97.1576 6.60116 97.4371 6.54128 97.6544 6.42292C97.8718 6.30456 98.0331 6.14166 98.139 5.93278C98.2437 5.72531 98.2964 5.48718 98.2964 5.21704C98.2964 4.9469 98.2437 4.71017 98.139 4.50548C98.0348 4.30078 97.8718 4.14065 97.6533 4.02508C97.4343 3.9095 97.1531 3.85241 96.8092 3.85241H95.5477V10.2982H94.172H94.1731Z" fill="#121212"/>
<path d="M101.027 10.2982H99.5577L102.231 2.70361H103.93L106.608 10.2982H105.139L103.11 4.26041H103.05L101.025 10.2982H101.027ZM101.076 7.31966H105.08V8.42529H101.076V7.31966Z" fill="#121212"/>
<path d="M107.61 10.2982V2.70361H110.457C111.041 2.70361 111.531 2.80526 111.928 3.00718C112.325 3.21048 112.625 3.49315 112.829 3.85798C113.032 4.2228 113.135 4.64751 113.135 5.13209C113.135 5.61669 113.032 6.0414 112.826 6.39788C112.62 6.7557 112.316 7.03146 111.915 7.225C111.514 7.41853 111.023 7.51599 110.439 7.51599H108.41V6.37418H110.254C110.595 6.37418 110.875 6.32685 111.092 6.23079C111.31 6.13466 111.471 5.99541 111.577 5.81162C111.681 5.62784 111.734 5.40084 111.734 5.13071C111.734 4.86056 111.681 4.63081 111.575 4.43864C111.47 4.24648 111.307 4.10166 111.09 4.0014C110.872 3.90114 110.591 3.85101 110.247 3.85101H108.987V10.2968H107.611L107.61 10.2982ZM111.534 6.85737L113.414 10.2982H111.878L110.031 6.85737H111.534Z" fill="#121212"/>
<path d="M114.07 3.85512V2.70215H120.13V3.85512H117.783V10.2967H116.418V3.85512H114.07Z" fill="#121212"/>
<path d="M127.537 2.70215V10.2967H126.313L122.734 5.12367H122.672V10.2967H121.296V2.70215H122.527L126.103 7.87938H126.17V2.70215H127.538H127.537Z" fill="#121212"/>
<path d="M129.031 10.2982V2.70361H133.971V3.85659H130.406V5.91884H133.715V7.07179H130.406V9.14519H134V10.2982H129.031Z" fill="#121212"/>
<path d="M135.377 10.2982V2.70361H138.226C138.809 2.70361 139.299 2.80526 139.696 3.00718C140.093 3.21048 140.394 3.49315 140.597 3.85798C140.801 4.2228 140.904 4.64751 140.904 5.13209C140.904 5.61669 140.801 6.0414 140.594 6.39788C140.388 6.7557 140.085 7.03146 139.684 7.225C139.283 7.41853 138.791 7.51599 138.208 7.51599H136.179V6.37418H138.022C138.363 6.37418 138.643 6.32685 138.861 6.23079C139.078 6.13466 139.239 5.99541 139.345 5.81162C139.449 5.62784 139.503 5.40084 139.503 5.13071C139.503 4.86056 139.449 4.63081 139.342 4.43864C139.237 4.24648 139.074 4.10166 138.856 4.0014C138.639 3.90114 138.358 3.85101 138.015 3.85101H136.754V10.2968H135.378L135.377 10.2982ZM139.3 6.85737L141.18 10.2982H139.644L137.798 6.85737H139.3Z" fill="#121212"/>
<path d="M146.298 4.78991C146.264 4.46546 146.119 4.21342 145.863 4.03379C145.607 3.85416 145.275 3.76365 144.867 3.76365C144.58 3.76365 144.333 3.80681 144.129 3.89315C143.924 3.97948 143.767 4.09645 143.658 4.24545C143.55 4.39305 143.494 4.56293 143.491 4.7537C143.491 4.91244 143.527 5.04891 143.601 5.16587C143.675 5.28284 143.774 5.38032 143.899 5.46108C144.026 5.54185 144.165 5.60869 144.318 5.66297C144.472 5.7173 144.626 5.76324 144.782 5.79948L145.493 5.97766C145.78 6.04454 146.056 6.13506 146.322 6.24782C146.588 6.36204 146.826 6.50543 147.038 6.67813C147.25 6.85077 147.416 7.05965 147.541 7.30471C147.665 7.54978 147.726 7.83663 147.726 8.16527C147.726 8.61087 147.611 9.00214 147.385 9.33912C147.158 9.67611 146.829 9.93927 146.4 10.1287C145.971 10.318 145.453 10.4127 144.845 10.4127C144.236 10.4127 143.742 10.3208 143.307 10.1384C142.873 9.95602 142.535 9.68866 142.291 9.33772C142.047 8.98685 141.915 8.55934 141.896 8.05386H143.249C143.269 8.31842 143.35 8.53844 143.494 8.71388C143.638 8.88938 143.825 9.02023 144.057 9.1066C144.287 9.19292 144.547 9.23611 144.834 9.23611C145.12 9.23611 145.395 9.19152 145.622 9.101C145.847 9.01048 146.026 8.88518 146.154 8.72229C146.282 8.56074 146.347 8.36995 146.35 8.15272C146.347 7.95499 146.289 7.7907 146.176 7.66119C146.063 7.53169 145.903 7.42307 145.7 7.33535C145.496 7.24763 145.258 7.16966 144.985 7.10003L144.121 6.87721C143.495 6.71711 143.001 6.47199 142.639 6.14481C142.277 5.81757 142.096 5.38171 142.096 4.83725C142.096 4.39026 142.218 3.99759 142.461 3.662C142.704 3.32502 143.036 3.06463 143.456 2.87803C143.877 2.69144 144.353 2.59814 144.883 2.59814C145.414 2.59814 145.896 2.69144 146.303 2.87803C146.709 3.06463 147.029 3.32362 147.261 3.65364C147.493 3.98366 147.613 4.36242 147.62 4.78991H146.296H146.298Z" fill="#121212"/>
<path d="M32.5703 22.3902V17.3271H34.3749C34.769 17.3271 35.0949 17.3996 35.3539 17.5416C35.6128 17.685 35.8064 17.8814 35.9345 18.1292C36.0626 18.3771 36.1281 18.657 36.1281 18.9661C36.1281 19.2752 36.064 19.5579 35.9345 19.8058C35.805 20.0536 35.6101 20.25 35.3511 20.3934C35.0921 20.5382 34.7648 20.6092 34.3735 20.6092H33.1329V19.9617H34.3053C34.5546 19.9617 34.7565 19.9186 34.9111 19.8323C35.0656 19.7459 35.1798 19.6275 35.2522 19.4771C35.3246 19.3268 35.3608 19.1569 35.3608 18.9647C35.3608 18.7726 35.3246 18.6041 35.2522 18.4551C35.1798 18.3061 35.0656 18.1905 34.9097 18.1069C34.7537 18.0234 34.549 17.9802 34.2956 17.9802H33.3361V22.3888H32.5717L32.5703 22.3902Z" fill="#121212"/>
<path d="M39.0331 22.3902H38.2227L40.0454 17.3271H40.9282L42.751 22.3902H41.9405L40.5091 18.2462H40.4701L39.0358 22.3902H39.0331ZM39.1695 20.4073H41.7999V21.0506H39.1695V20.4073Z" fill="#121212"/>
<path d="M45.6023 22.3902V17.3271H47.4069C47.7996 17.3271 48.1255 17.3954 48.3845 17.5305C48.6435 17.6655 48.8384 17.8521 48.9665 18.0902C49.0946 18.3284 49.1601 18.6027 49.1601 18.9146C49.1601 19.2265 49.096 19.4967 48.9665 19.732C48.837 19.9673 48.6421 20.1497 48.3831 20.2792C48.1241 20.4101 47.7969 20.4742 47.4055 20.4742H46.0382V19.8169H47.3359C47.5838 19.8169 47.7843 19.7821 47.9403 19.7111C48.0962 19.6401 48.2104 19.537 48.2828 19.4019C48.3552 19.2669 48.3915 19.1039 48.3915 18.9146C48.3915 18.7252 48.3552 18.5581 48.2814 18.4175C48.2076 18.2768 48.0935 18.1696 47.9374 18.0944C47.7815 18.0192 47.5782 17.9816 47.3262 17.9816H46.3667V22.3902H45.6023ZM48.1018 20.1052L49.3522 22.3902H48.4819L47.2552 20.1052H48.1004H48.1018Z" fill="#121212"/>
<path d="M51.9665 17.9844V17.3271H55.8849V17.9844H54.3044V22.3902H53.5428V17.9844H51.9651H51.9665Z" fill="#121212"/>
<path d="M62.9576 17.3271V22.3902H62.2557L59.6824 18.6765H59.6353V22.3902H58.8707V17.3271H59.5782L62.1543 21.0465H62.2014V17.3271H62.9576Z" fill="#121212"/>
<path d="M66.193 22.3902V17.3271H69.3679V17.9844H66.9576V19.5273H69.2021V20.1831H66.9576V21.733H69.3987V22.3902H66.1947H66.193Z" fill="#121212"/>
<path d="M72.516 22.3902V17.3271H74.3202C74.7129 17.3271 75.0389 17.3954 75.2977 17.5305C75.557 17.6655 75.752 17.8521 75.8797 18.0902C76.008 18.3284 76.0735 18.6027 76.0735 18.9146C76.0735 19.2265 76.0097 19.4967 75.8797 19.732C75.7503 19.9673 75.5554 20.1497 75.2966 20.2792C75.0372 20.4101 74.7101 20.4742 74.3191 20.4742H72.9518V19.8169H74.2491C74.4972 19.8169 74.6978 19.7821 74.8535 19.7111C75.0098 19.6401 75.1241 19.537 75.1963 19.4019C75.2686 19.2669 75.305 19.1039 75.305 18.9146C75.305 18.7252 75.2686 18.5581 75.1946 18.4175C75.1213 18.2768 75.007 18.1696 74.8507 18.0944C74.695 18.0192 74.4916 17.9816 74.2396 17.9816H73.28V22.3902H72.516ZM75.0154 20.1052L76.2656 22.3902H75.3952L74.1684 20.1052H75.0137H75.0154Z" fill="#121212"/>
<path d="M81.8901 18.6566C81.8637 18.4227 81.7551 18.2403 81.5646 18.1108C81.3736 17.9812 81.1328 17.9172 80.8432 17.9172C80.6353 17.9172 80.4561 17.9493 80.3043 18.0147C80.1525 18.0801 80.0354 18.1692 79.952 18.282C79.8685 18.3949 79.8265 18.523 79.8265 18.6664C79.8265 18.7875 79.8545 18.8905 79.9116 18.9783C79.9688 19.066 80.0438 19.1384 80.1368 19.1969C80.2304 19.2554 80.3306 19.3042 80.4376 19.3431C80.5452 19.3821 80.6482 19.4141 80.7468 19.4378L81.2414 19.5659C81.4028 19.6049 81.5686 19.6592 81.7383 19.7261C81.9086 19.7943 82.0654 19.882 82.2105 19.9934C82.3556 20.1034 82.4738 20.2413 82.5628 20.4042C82.653 20.5671 82.6978 20.7635 82.6978 20.9904C82.6978 21.2773 82.6239 21.5321 82.4766 21.7549C82.3287 21.9777 82.1158 22.1531 81.8357 22.2812C81.5562 22.4093 81.219 22.4734 80.8236 22.4734C80.4281 22.4734 80.1161 22.4135 79.8388 22.2938C79.5621 22.1726 79.3459 22.0027 79.189 21.78C79.0328 21.5585 78.9454 21.2954 78.9297 20.9904H79.6954C79.7111 21.1728 79.771 21.326 79.8752 21.4472C79.98 21.5683 80.115 21.6588 80.278 21.7173C80.4404 21.7758 80.6219 21.805 80.818 21.805C81.0336 21.805 81.2257 21.7702 81.396 21.702C81.5646 21.6338 81.6979 21.5376 81.7954 21.4151C81.8929 21.2926 81.9416 21.1492 81.9416 20.9835C81.9416 20.8331 81.8985 20.7105 81.8133 20.6145C81.7288 20.5184 81.6145 20.4404 81.4694 20.3763C81.3249 20.3137 81.1619 20.258 80.981 20.2106L80.3822 20.0477C79.9772 19.9377 79.6551 19.7748 79.4187 19.5604C79.1818 19.3459 79.0636 19.0632 79.0636 18.7096C79.0636 18.4171 79.1431 18.1637 79.3016 17.9451C79.4602 17.7278 79.6736 17.5579 79.9447 17.4368C80.2152 17.3157 80.52 17.2544 80.86 17.2544C81.1994 17.2544 81.5058 17.3143 81.7691 17.4354C82.0324 17.5565 82.2396 17.7209 82.3914 17.9312C82.5432 18.1414 82.6228 18.3823 82.6284 18.6538H81.8918L81.8901 18.6566Z" fill="#121212"/>
<path d="M85.7327 22.3902V17.3271H86.4973V19.5273H89.0219V17.3271H89.7876V22.3902H89.0219V20.1817H86.4973V22.3902H85.7327Z" fill="#121212"/>
<path d="M93.7882 17.3271V22.3902H93.0236V17.3271H93.7882Z" fill="#121212"/>
<path d="M97.0242 22.3902V17.3271H98.829C99.2228 17.3271 99.5488 17.3996 99.8076 17.5416C100.067 17.685 100.26 17.8814 100.388 18.1292C100.517 18.3771 100.582 18.657 100.582 18.9661C100.582 19.2752 100.518 19.5579 100.388 19.8058C100.259 20.0536 100.064 20.25 99.8048 20.3934C99.546 20.5382 99.2188 20.6092 98.8273 20.6092H97.5866V19.9617H98.759C99.0082 19.9617 99.2104 19.9186 99.365 19.8323C99.5196 19.7459 99.6339 19.6275 99.7062 19.4771C99.7784 19.3268 99.8148 19.1569 99.8148 18.9647C99.8148 18.7726 99.7784 18.6041 99.7062 18.4551C99.6339 18.3061 99.5196 18.1905 99.3634 18.1069C99.2076 18.0234 99.0026 17.9802 98.7494 17.9802H97.7899V22.3888H97.0253L97.0242 22.3902Z" fill="#121212"/>
<path d="M111.77 18.9744H110.999C110.97 18.81 110.914 18.6638 110.833 18.5399C110.752 18.4159 110.654 18.3087 110.537 18.221C110.42 18.1333 110.289 18.0679 110.145 18.0233C110.001 17.9788 109.849 17.9565 109.687 17.9565C109.395 17.9565 109.134 18.0302 108.904 18.1765C108.675 18.3227 108.494 18.5385 108.36 18.8212C108.228 19.1053 108.161 19.4506 108.161 19.86C108.161 20.2694 108.228 20.6203 108.36 20.9029C108.492 21.187 108.675 21.4014 108.906 21.5462C109.137 21.6911 109.396 21.7635 109.684 21.7635C109.844 21.7635 109.996 21.7412 110.141 21.698C110.286 21.6548 110.415 21.5894 110.532 21.5045C110.649 21.4181 110.748 21.3137 110.83 21.1898C110.913 21.0659 110.968 20.9225 111 20.7609L111.772 20.7637C111.73 21.0129 111.65 21.2413 111.534 21.4502C111.415 21.659 111.265 21.8387 111.081 21.9891C110.897 22.1394 110.687 22.2564 110.452 22.3386C110.216 22.4207 109.959 22.4625 109.68 22.4625C109.242 22.4625 108.852 22.3581 108.508 22.1492C108.165 21.9403 107.895 21.6424 107.698 21.2524C107.501 20.8639 107.403 20.4002 107.403 19.86C107.403 19.3197 107.502 18.8546 107.7 18.4675C107.898 18.079 108.168 17.781 108.511 17.5721C108.853 17.3633 109.243 17.2588 109.68 17.2588C109.949 17.2588 110.199 17.2978 110.434 17.3744C110.666 17.451 110.876 17.5638 111.063 17.7114C111.25 17.859 111.403 18.0386 111.525 18.2503C111.647 18.4619 111.73 18.7042 111.773 18.9758L111.77 18.9744Z" fill="#121212"/>
<path d="M115.204 22.3902H114.393L116.217 17.3271H117.099L118.922 22.3902H118.112L116.68 18.2462H116.641L115.207 22.3902H115.204ZM115.341 20.4073H117.971V21.0506H115.341V20.4073Z" fill="#121212"/>
<path d="M121.774 22.3902V17.3271H123.579C123.973 17.3271 124.299 17.3996 124.557 17.5416C124.817 17.685 125.01 17.8814 125.138 18.1292C125.266 18.3771 125.331 18.657 125.331 18.9661C125.331 19.2752 125.268 19.5579 125.138 19.8058C125.009 20.0536 124.814 20.25 124.555 20.3934C124.296 20.5382 123.969 20.6092 123.577 20.6092H122.336V19.9617H123.509C123.758 19.9617 123.96 19.9186 124.115 19.8323C124.269 19.7459 124.384 19.6275 124.456 19.4771C124.528 19.3268 124.565 19.1569 124.565 18.9647C124.565 18.7726 124.528 18.6041 124.456 18.4551C124.384 18.3061 124.269 18.1905 124.113 18.1069C123.957 18.0234 123.752 17.9802 123.499 17.9802H122.54V22.3888H121.776L121.774 22.3902Z" fill="#121212"/>
<path d="M129.111 17.3271V22.3902H128.347V17.3271H129.111Z" fill="#121212"/>
<path d="M132.098 17.9844V17.3271H136.017V17.9844H134.436V22.3902H133.674V17.9844H132.097H132.098Z" fill="#121212"/>
<path d="M138.828 22.3902H138.017L139.84 17.3271H140.723L142.545 22.3902H141.735L140.304 18.2462H140.265L138.83 22.3902H138.828ZM138.964 20.4073H141.595V21.0506H138.964V20.4073Z" fill="#121212"/>
<path d="M145.396 22.3902V17.3271H146.16V21.733H148.455V22.3902H145.397H145.396Z" fill="#121212"/>
<path d="M147.688 13.9258H31.4164V14.065H147.688V13.9258Z" fill="#121212"/>
<path d="M6.36906 19.4961C4.96545 19.1132 3.71082 19.588 2.52722 20.2592L8.96328 24.6469H15.6876C13.7046 23.519 11.7231 22.3897 9.74027 21.2618C8.69032 20.6644 7.55266 19.8192 6.37046 19.4961H6.36906Z" fill="#121212"/>
<path d="M8.51501 10.1707C6.36224 9.8866 4.35985 8.86869 2.71254 7.47201C2.24467 7.07655 2.43405 6.32326 2.89775 6.0322C5.67712 4.2958 8.45653 2.55798 11.2359 0.820172L9.77658 0L0 6.11018V18.5353L0.859159 19.1215C1.94668 18.4406 3.07877 17.7847 4.33061 17.5967C7.28963 17.1525 10.0092 19.3053 12.4501 20.695C14.3495 21.777 16.2502 22.8576 18.1495 23.9395L26.0742 18.5367V14.2186C22.5052 12.2218 18.9363 10.2264 15.3674 8.22956C13.4138 9.7139 10.9867 10.4965 8.51641 10.1707H8.51501Z" fill="#121212" fill-opacity="0.5"/>
<path d="M14.6297 6.4806C14.9444 6.2063 15.3635 6.12692 15.7408 6.33715C19.1858 8.26435 22.6295 10.1901 26.0744 12.1173V6.11018L16.2979 0C16.2979 0 7.79259 5.13546 4.97839 6.89556C7.96248 8.84365 11.7946 8.95501 14.6311 6.482L14.6297 6.4806Z" fill="#121212"/>
</g>
<defs>
<clipPath id="clip0_4683_18461">
<rect width="149" height="24.6466" fill="white"/>
</clipPath>
</defs>
</svg>
