<svg width="16" height="18" viewBox="0 0 16 18" fill="none" xmlns="http://www.w3.org/2000/svg">
<path d="M8.00091 17.7015C7.82686 17.7015 7.65994 17.6324 7.53687 17.5093C7.4138 17.3862 7.34466 17.2193 7.34466 17.0453L7.34466 2.87946L1.90238 8.32174C1.77861 8.44128 1.61284 8.50743 1.44077 8.50593C1.2687 8.50443 1.10411 8.43542 0.982434 8.31374C0.860759 8.19207 0.791742 8.02747 0.790247 7.85541C0.788752 7.68334 0.854898 7.51757 0.97444 7.3938L7.53694 0.831301C7.66 0.708273 7.82689 0.63916 8.00091 0.63916C8.17492 0.63916 8.34181 0.708273 8.46488 0.831301L15.0274 7.3938C15.1469 7.51757 15.2131 7.68334 15.2116 7.85541C15.2101 8.02747 15.1411 8.19207 15.0194 8.31374C14.8977 8.43542 14.7331 8.50443 14.561 8.50593C14.389 8.50743 14.2232 8.44128 14.0994 8.32174L8.65716 2.87946L8.65716 17.0453C8.65716 17.2193 8.58802 17.3862 8.46495 17.5093C8.34188 17.6324 8.17496 17.7015 8.00091 17.7015Z" fill="black"/>
</svg>
