<svg width="1201" height="648" viewBox="0 0 1201 648" fill="none" xmlns="http://www.w3.org/2000/svg">
<g clip-path="url(#clip0_4544_9546)">
<rect width="1201" height="648" rx="16" fill="#FFF9F3"/>
<g clip-path="url(#clip1_4544_9546)">
<path d="M787.197 309.502C787.197 327.564 772.536 342.226 754.473 342.226C736.41 342.226 721.748 327.564 721.748 309.502C721.748 291.4 736.41 276.777 754.473 276.777C772.536 276.777 787.197 291.4 787.197 309.502Z" fill="#F06823"/>
<path fill-rule="evenodd" clip-rule="evenodd" d="M752.516 290.891C752.307 291.777 751.773 292.572 750.913 293.276C750.079 293.876 749.257 294.462 748.45 295.035C748.502 295.27 748.659 295.453 748.919 295.583C749.206 295.687 749.479 295.804 749.739 295.935C751.095 296.795 751.773 297.837 751.773 299.062C751.773 299.975 751.46 300.822 750.835 301.604C750.339 302.203 749.609 302.803 748.645 303.402C747.863 303.845 747.081 304.288 746.299 304.732C746.116 304.862 745.908 304.927 745.674 304.927C745.152 304.927 744.787 304.705 744.579 304.262C744.605 302.907 744.631 301.552 744.657 300.196C744.684 298.58 744.774 297.238 744.931 296.169C744.592 295.935 744.422 295.674 744.422 295.387C744.422 295.231 744.487 295.101 744.618 294.996C744.722 294.866 744.879 294.736 745.087 294.605C745.296 292.129 745.335 289.849 745.204 287.763C744.449 287.607 743.953 287.268 743.718 286.747C743.693 286.669 743.718 286.565 743.797 286.434C743.875 286.304 743.915 286.2 743.915 286.121C744.279 285.861 744.697 285.73 745.166 285.73C745.478 285.73 746.221 285.835 747.393 286.043C747.993 286.121 748.619 286.343 749.271 286.708C751.017 287.594 752.047 288.467 752.359 289.327C752.567 289.953 752.62 290.474 752.516 290.891ZM749.506 299.258C749.531 299.076 749.544 298.893 749.544 298.711C749.544 298.241 749.401 297.811 749.114 297.42C748.28 297.03 747.745 296.834 747.511 296.834C747.381 296.834 747.263 296.86 747.16 296.912C747.16 297.069 747.16 297.238 747.16 297.42C747.16 297.785 747.12 298.32 747.042 299.023C746.938 299.727 746.886 300.248 746.886 300.587C746.886 301.109 746.951 301.591 747.081 302.034C747.29 301.799 747.602 301.552 748.02 301.291C748.437 301.056 748.724 300.835 748.879 300.626C749.166 300.288 749.374 299.831 749.506 299.258ZM750.248 289.679C750.17 289.08 749.674 288.624 748.762 288.311C748.632 288.259 748.437 288.154 748.175 287.998C747.967 287.868 747.798 287.803 747.668 287.803C747.615 287.803 747.55 287.816 747.472 287.842C747.446 288.102 747.433 288.389 747.433 288.702C747.433 289.119 747.472 289.836 747.55 290.852C747.577 291.791 747.59 292.52 747.59 293.042C747.693 293.042 747.863 292.95 748.097 292.768C748.332 292.612 748.462 292.52 748.489 292.494C748.984 292.26 749.414 291.882 749.779 291.36C750.144 290.813 750.3 290.253 750.248 289.679Z" fill="#FEFEFE"/>
<path d="M762.485 289.328C761.885 289.562 761 289.849 759.826 290.188C758.68 290.501 757.794 290.774 757.168 291.009C757.038 291.452 756.933 292.403 756.855 293.863C757.116 293.967 757.416 294.019 757.755 294.019C758.015 294.019 758.407 293.967 758.927 293.863C759.449 293.785 759.827 293.746 760.061 293.746C760.505 293.746 760.895 293.85 761.235 294.058C761.469 294.371 761.587 294.58 761.587 294.684C761.587 294.788 761.521 294.879 761.39 294.958C761.365 294.958 761.26 295.075 761.078 295.309C760.948 295.44 760.778 295.505 760.57 295.505C760.231 295.583 759.606 295.622 758.694 295.622C757.937 295.648 757.325 295.753 756.855 295.935C756.543 297.134 756.386 298.085 756.386 298.789C756.386 299.258 756.451 299.623 756.581 299.884C757.363 300.431 758.694 300.666 760.57 300.588C760.7 300.588 760.843 300.522 761 300.392C761.13 300.262 761.247 300.197 761.352 300.197C761.795 300.118 762.094 300.47 762.251 301.252C762.303 301.513 762.264 301.747 762.134 301.956C761.977 302.165 761.769 302.282 761.508 302.308C759.553 302.386 757.845 302.23 756.386 301.839C755.943 301.734 755.539 301.487 755.174 301.096C754.784 300.705 754.562 300.262 754.51 299.767C754.379 298.359 754.379 297.095 754.51 295.974C754.067 295.661 753.871 295.362 753.923 295.075C753.95 294.918 754.08 294.788 754.314 294.684C754.549 294.554 754.679 294.423 754.705 294.293C754.731 294.163 754.797 293.394 754.9 291.986C753.988 291.804 753.545 291.465 753.571 290.97C753.571 290.501 753.845 290.123 754.392 289.836C754.914 289.627 755.435 289.419 755.956 289.21C756.581 288.898 757.35 288.624 758.263 288.389C759.045 288.155 759.826 287.946 760.608 287.764C760.687 287.738 760.791 287.725 760.921 287.725C761.365 287.725 761.873 287.894 762.447 288.233C762.472 288.311 762.512 288.441 762.564 288.624C762.642 288.806 762.681 288.937 762.681 289.015C762.681 289.145 762.616 289.249 762.485 289.328Z" fill="#FEFEFE"/>
<path d="M744.428 324.436C744.48 324.748 744.232 324.918 743.685 324.944C743.346 324.97 742.981 324.827 742.59 324.514C742.304 324.227 742.069 323.771 741.886 323.145C741.704 322.572 741.6 321.777 741.574 320.761C741.547 319.588 741.495 318.78 741.417 318.336C741.208 319.066 740.857 320.148 740.361 321.582C740.075 322.39 739.893 322.846 739.814 322.95C739.553 323.471 739.228 323.706 738.837 323.654C738.08 323.471 737.482 323.028 737.038 322.324C736.778 321.881 736.517 321.165 736.256 320.174C735.996 319.079 735.787 318.349 735.631 317.985C734.927 321.373 734.171 323.901 733.363 325.569C733.258 325.804 732.92 325.791 732.346 325.53C731.878 325.296 731.643 324.97 731.643 324.553C731.643 324.396 731.812 323.875 732.151 322.989C732.308 322.598 732.881 320.721 733.872 317.359C734.21 316.186 734.562 314.127 734.927 311.182C734.953 311.156 735.031 310.986 735.161 310.673C735.239 310.439 735.396 310.322 735.631 310.322C736.178 310.322 736.556 310.439 736.765 310.673C736.765 311.143 736.843 311.899 737 312.941C737.155 313.984 737.233 314.779 737.233 315.326C737.364 316.238 737.494 317.151 737.625 318.063C737.807 319.105 738.132 319.952 738.602 320.604C740.166 316.277 741.157 312.85 741.574 310.322C741.652 310.061 741.899 309.931 742.316 309.931C742.916 309.931 743.254 310.126 743.333 310.517C743.438 311.117 743.489 311.794 743.489 312.55C743.489 312.811 743.476 313.345 743.45 314.153C743.45 314.831 743.45 315.378 743.45 315.795C743.606 319.236 743.933 322.116 744.428 324.436Z" fill="#FEFEFE"/>
<path fill-rule="evenodd" clip-rule="evenodd" d="M754.511 318.729C753.547 320.892 752.178 322.183 750.406 322.6C750.198 322.652 749.989 322.678 749.781 322.678C748.869 322.678 747.943 322.17 747.005 321.153C746.354 320.475 746.027 319.589 746.027 318.494C746.027 317.295 746.392 316.005 747.123 314.624C747.435 314.05 747.8 313.542 748.217 313.099C748.738 312.604 749.22 312.356 749.664 312.356C749.924 312.356 750.172 312.46 750.406 312.669C750.641 312.851 751.253 313.112 752.244 313.451C753.026 313.712 753.574 314.142 753.886 314.741C754.459 315.836 754.746 316.774 754.746 317.556C754.746 317.999 754.668 318.39 754.511 318.729ZM752.557 317.243C752.427 316.044 752.1 315.341 751.58 315.132C751.501 315.08 751.436 315.054 751.383 315.054C751.175 315.054 750.928 315.223 750.641 315.562C750.328 315.927 750.081 316.149 749.898 316.227C749.767 316.279 749.599 316.227 749.39 316.07C749.182 315.914 749.051 315.836 748.999 315.836C748.947 315.836 748.907 315.862 748.882 315.914C748.308 316.383 748.021 317.139 748.021 318.182C748.021 318.859 748.178 319.446 748.49 319.941C748.96 320.619 749.351 320.958 749.664 320.958C750.367 320.958 751.045 320.501 751.696 319.589C752.348 318.755 752.635 317.973 752.557 317.243Z" fill="#FEFEFE"/>
<path fill-rule="evenodd" clip-rule="evenodd" d="M766.119 324.164C766.171 324.242 766.198 324.32 766.198 324.398C766.198 324.763 765.807 325.05 765.025 325.258C764.165 324.581 763.096 323.551 761.819 322.17C760.385 320.632 759.316 319.563 758.613 318.964C758.561 319.381 758.469 320.489 758.339 322.287C758.261 323.642 758.118 324.711 757.909 325.493C757.884 325.493 757.779 325.532 757.597 325.61C757.414 325.688 757.271 325.714 757.167 325.688C756.463 325.532 756.111 325.037 756.111 324.203C756.111 323.968 756.137 323.642 756.189 323.225C756.267 322.756 756.307 322.469 756.307 322.365C756.385 321.427 756.423 320.306 756.423 319.003V316.344C756.423 314.129 756.554 312.265 756.815 310.753C756.971 309.737 757.922 309.281 759.668 309.385C760.529 309.411 761.284 309.841 761.936 310.675C762.536 311.457 762.836 312.304 762.836 313.216C762.836 313.972 762.561 314.741 762.014 315.523C761.519 316.201 760.907 316.735 760.177 317.126C759.89 317.283 759.747 317.452 759.747 317.634C759.747 317.869 759.916 318.13 760.255 318.416C760.515 318.625 760.777 318.833 761.037 319.042C761.064 319.068 761.962 319.876 763.735 321.466C764.856 322.482 765.651 323.382 766.119 324.164ZM760.959 313.256C761.011 312.943 761.037 312.682 761.037 312.474C760.985 312.135 760.842 311.822 760.607 311.535C760.372 311.249 759.995 311.105 759.473 311.105C759.083 311.105 758.835 311.236 758.731 311.496C758.653 311.887 758.613 312.343 758.613 312.865C758.613 313.073 758.639 313.62 758.691 314.507C758.718 315.184 758.718 315.732 758.691 316.149C760.02 315.132 760.777 314.168 760.959 313.256Z" fill="#FEFEFE"/>
<path d="M773.821 311.808C773.222 312.069 772.349 312.355 771.202 312.668C770.029 313.007 769.143 313.294 768.544 313.528C768.387 313.945 768.27 314.884 768.192 316.343C768.452 316.448 768.752 316.5 769.091 316.5C769.351 316.5 769.743 316.461 770.264 316.382C770.785 316.304 771.163 316.265 771.398 316.265C771.867 316.265 772.257 316.356 772.571 316.539C772.805 316.878 772.922 317.099 772.922 317.203C772.922 317.308 772.857 317.386 772.727 317.438C772.701 317.464 772.597 317.581 772.414 317.79C772.284 317.946 772.114 318.011 771.905 317.985C771.567 318.064 770.941 318.116 770.029 318.142C769.274 318.168 768.661 318.259 768.192 318.415C767.905 319.64 767.762 320.592 767.762 321.27C767.762 321.739 767.827 322.117 767.957 322.403C768.712 322.951 770.029 323.172 771.905 323.068C772.037 323.068 772.179 323.016 772.336 322.912C772.466 322.781 772.584 322.716 772.687 322.716C773.157 322.612 773.456 322.951 773.587 323.733C773.639 323.993 773.6 324.241 773.469 324.475C773.313 324.684 773.118 324.801 772.884 324.827C770.903 324.879 769.196 324.723 767.762 324.358C767.293 324.228 766.875 323.98 766.511 323.615C766.119 323.224 765.911 322.781 765.884 322.286C765.729 320.879 765.729 319.614 765.884 318.494C765.416 318.181 765.207 317.881 765.259 317.594C765.286 317.438 765.416 317.295 765.651 317.164C765.884 317.06 766.016 316.943 766.041 316.812C766.068 316.682 766.133 315.9 766.236 314.467C765.324 314.31 764.882 313.971 764.907 313.45C764.907 312.981 765.181 312.616 765.729 312.355C766.25 312.121 766.771 311.899 767.293 311.691C767.918 311.404 768.687 311.13 769.599 310.87C770.381 310.661 771.163 310.466 771.945 310.283C772.049 310.257 772.154 310.244 772.257 310.244C772.701 310.244 773.209 310.414 773.783 310.752C773.808 310.831 773.848 310.948 773.9 311.104C773.978 311.287 774.018 311.417 774.018 311.495C774.018 311.626 773.951 311.73 773.821 311.808Z" fill="#FEFEFE"/>
<path d="M777.974 324.513C778.027 324.722 778.001 324.943 777.896 325.178C777.792 325.386 777.675 325.49 777.544 325.49C777.414 325.516 777.31 325.556 777.232 325.608C777.18 325.686 777.114 325.712 777.037 325.686C776.177 325.373 775.693 324.956 775.59 324.435C775.538 324.2 775.693 323.966 776.059 323.731C776.398 323.496 776.645 323.392 776.802 323.418C777.062 323.444 777.31 323.549 777.544 323.731C777.806 323.94 777.949 324.2 777.974 324.513ZM780.36 309.617C780.255 310.764 779.838 312.81 779.108 315.755C778.483 318.336 778.196 320.447 778.248 322.089C778.248 322.219 778.157 322.35 777.974 322.48C777.818 322.61 777.662 322.662 777.506 322.636C776.672 322.454 776.228 322.037 776.177 321.385C776.177 321.046 776.177 320.708 776.177 320.369C776.177 318.857 776.41 316.993 776.88 314.778C777.636 311.52 778.039 309.669 778.092 309.226C778.144 309.018 778.274 308.874 778.483 308.796C778.691 308.718 778.887 308.718 779.07 308.796C779.356 308.874 779.643 308.952 779.93 309.031C780.217 309.161 780.36 309.356 780.36 309.617Z" fill="#FEFEFE"/>
<path d="M668.96 348.588C669.495 349.22 669.495 350.192 668.96 350.824L659.53 361.809L652.141 370.413C651.071 371.58 649.127 370.851 649.127 369.295V349.706V330.116C649.127 328.561 651.071 327.832 652.141 328.998L659.53 337.602L668.96 348.588Z" fill="url(#paint0_linear_4544_9546)"/>
<path d="M554.345 365.646C555.172 366.521 555.124 367.882 554.249 368.709L553.665 369.243C549.582 372.889 544.478 375.028 536.943 375.028C534.659 375.028 532.471 374.736 530.43 374.25C525.18 372.889 520.757 369.973 517.597 366.035C514.826 362.584 513.028 358.404 512.444 353.786C512.315 352.716 512.25 351.631 512.25 350.529C512.25 349.427 512.315 348.341 512.444 347.272C513.028 342.654 514.826 338.425 517.597 335.023C520.757 331.037 525.18 328.12 530.43 326.808C532.471 326.273 534.659 325.981 536.943 325.981C544.478 325.981 549.582 328.169 553.665 331.814L554.249 332.349C555.124 333.175 555.172 334.537 554.345 335.412L551.137 338.863L549.096 341.099C549.063 341.131 549.031 341.164 548.998 341.196C548.221 341.925 547.005 341.974 546.179 341.293C546.114 341.261 546.066 341.245 546.033 341.245L545.644 340.856C543.214 338.766 540.589 337.502 536.846 337.502C532.325 337.502 528.728 340.224 526.833 344.113C525.909 345.96 525.423 348.098 525.423 350.383V350.529V350.675C525.423 352.911 525.909 355.05 526.833 356.945C528.728 360.834 532.325 363.507 536.846 363.507C540.589 363.507 543.214 362.244 545.644 360.202L546.033 359.813C546.066 359.781 546.114 359.748 546.179 359.716C547.005 359.035 548.221 359.084 548.998 359.862C549.031 359.894 549.063 359.91 549.096 359.91L551.137 362.195L554.345 365.646Z" fill="#221F55"/>
<path fill-rule="evenodd" clip-rule="evenodd" d="M458.484 350.676V350.53C458.484 337.211 469.227 326.371 483.664 326.371C498.052 326.371 508.697 337.017 508.697 350.335V350.53C508.697 363.849 497.955 374.688 483.518 374.688C469.13 374.688 458.484 364.043 458.484 350.676ZM495.719 350.676V350.53C495.719 343.676 490.761 337.697 483.518 337.697C475.984 337.697 471.463 343.53 471.463 350.335V350.53C471.463 357.335 476.421 363.314 483.664 363.314C491.198 363.314 495.719 357.529 495.719 350.676Z" fill="#221F55"/>
<path d="M601.786 328.363V331.474V356.022C601.786 361.709 598.432 368.466 591.918 372.063C588.564 373.91 584.627 375.028 580.349 375.028C576.072 375.028 572.133 373.91 568.781 372.014C562.267 368.466 558.961 361.709 558.961 356.022V331.474V328.363C558.961 327.051 559.983 325.981 561.295 325.981H569.753C571.016 325.981 572.086 327.051 572.086 328.363V331.474V351.89C572.086 356.411 573.641 359.522 576.412 360.931L576.607 361.028C577.724 361.515 578.989 361.806 580.349 361.806C581.711 361.806 582.974 361.515 584.092 361.028L584.286 360.931H584.335C587.057 359.522 588.612 356.411 588.612 351.89V331.474V328.363C588.612 327.051 589.682 325.981 590.946 325.981H599.404C600.717 325.981 601.786 327.051 601.786 328.363Z" fill="#221F55"/>
<path d="M717.963 328.102V331.213V355.76C717.963 361.447 714.658 368.204 708.144 371.801C704.79 373.648 700.853 374.766 696.575 374.766C692.298 374.766 688.361 373.648 685.006 371.752C678.493 368.204 675.139 361.447 675.139 355.76V331.213V328.102C675.139 326.789 676.208 325.72 677.521 325.72H685.979C687.242 325.72 688.311 326.789 688.311 328.102V331.213V351.628C688.311 356.149 689.868 359.26 692.638 360.67L692.832 360.767C693.95 361.253 695.214 361.545 696.575 361.545C697.936 361.545 699.201 361.253 700.318 360.767L700.513 360.67C703.283 359.26 704.838 356.149 704.838 351.628V331.213V328.102C704.838 326.789 705.86 325.72 707.172 325.72H715.63C716.942 325.72 717.963 326.789 717.963 328.102Z" fill="#221F55"/>
<path d="M643.01 359.522V359.668C643.01 362.876 642.28 365.55 640.968 367.737C638.003 372.695 631.975 375.028 624.831 375.028C618.9 375.028 612.338 373.279 606.505 369.341C606.246 369.179 605.986 369.001 605.727 368.807C604.658 367.98 605.046 366.959 605.29 366.473L609.177 360.543C609.761 359.814 610.782 359.571 611.609 360.008C611.642 360.008 611.673 360.025 611.706 360.057L612.143 360.3C616.713 363.168 621.282 364.675 625.171 364.675C629.06 364.675 630.857 363.216 630.857 361.126V360.932C630.857 360.867 630.841 360.802 630.809 360.737C630.712 359.182 629.205 358.161 627.018 357.335C625.316 356.654 623.226 356.12 620.99 355.439C620.796 355.374 620.585 355.31 620.357 355.245C615.011 353.641 609.324 351.162 607.428 345.377C607.039 344.113 606.797 342.752 606.797 341.148V340.954C606.797 331.28 614.623 325.885 624.198 325.885C629.497 325.885 635.232 327.489 640.045 330.211C640.271 330.341 640.499 330.47 640.725 330.6C641.308 331.086 641.503 331.864 641.26 332.593C641.227 332.69 641.179 332.787 641.115 332.884L639.073 336.53L638.393 337.794L637.76 338.912C637.76 338.944 637.744 338.977 637.711 339.009C637.176 339.787 636.156 340.127 635.281 339.738C635.217 339.738 635.167 339.722 635.136 339.69L633.726 339.058C633.693 339.026 633.645 339.009 633.579 339.009C630.032 337.259 626.58 336.239 623.906 336.239C620.649 336.239 618.948 337.697 618.948 339.544V339.738C618.948 340.759 619.677 341.586 620.844 342.315C622.643 343.433 625.511 344.308 628.622 345.377C633.969 347.176 639.948 349.557 642.135 354.904C642.67 356.217 643.01 357.772 643.01 359.522Z" fill="#221F55"/>
<path d="M462.618 299.735C461.645 301.485 460.673 303.186 459.896 304.985C459.021 306.881 457.903 307.221 456.153 306.152C454.354 305.082 452.361 304.304 450.271 304.45C447.209 304.596 444.827 306.783 444.195 310.089C443.806 312.228 443.709 314.367 443.709 316.554V326.324H455.958C457.319 326.324 458.437 327.442 458.437 328.852V334.685C458.437 336.046 457.319 337.164 455.958 337.164H443.855V372.697C443.855 373.961 442.785 375.031 441.521 375.031H433.063C431.751 375.031 430.682 373.961 430.682 372.697V337.164H426.21C424.848 337.164 423.73 336.046 423.73 334.685V328.852C423.73 327.442 424.848 326.324 426.21 326.324H430.682V321.075V316.554C430.682 313.297 430.876 310.089 431.654 306.929C434.23 296.187 444.973 290.256 455.91 293.513C457.951 294.145 459.944 294.972 461.743 296.235C463.055 297.11 463.444 298.228 462.618 299.735Z" fill="#221F55"/>
</g>
</g>
<defs>
<linearGradient id="paint0_linear_4544_9546" x1="649.127" y1="324.624" x2="669.251" y2="324.624" gradientUnits="userSpaceOnUse">
<stop stop-color="#EE3E23"/>
<stop offset="0.5" stop-color="#EF6624"/>
<stop offset="1" stop-color="#F79C1D"/>
</linearGradient>
<clipPath id="clip0_4544_9546">
<rect width="1201" height="648" fill="white"/>
</clipPath>
<clipPath id="clip1_4544_9546">
<rect width="373.167" height="110.115" fill="white" transform="translate(413.832 268.623)"/>
</clipPath>
</defs>
</svg>
