<svg width="17" height="17" viewBox="0 0 17 17" fill="none" xmlns="http://www.w3.org/2000/svg">
<path fill-rule="evenodd" clip-rule="evenodd" d="M8.5 17C13.1944 17 17 13.1944 17 8.5C17 3.80558 13.1944 0 8.5 0C3.80558 0 0 3.80558 0 8.5C0 13.1944 3.80558 17 8.5 17ZM10.3436 15.4327C9.75528 15.5887 9.13733 15.6719 8.5 15.6719C7.53551 15.6719 6.61541 15.4815 5.77536 15.1362C6.57251 12.1938 8.77685 10.0864 11.3021 9.14787C11.7401 11.2704 11.4139 13.5466 10.3436 15.4327ZM12.2312 14.6261C12.9161 12.7607 13.051 10.7058 12.6313 8.76834C13.6446 8.56375 14.6783 8.54497 15.6682 8.73171C15.5889 11.2291 14.2328 13.4043 12.2312 14.6261ZM15.575 7.3185C14.4792 7.15768 13.3507 7.20469 12.2488 7.44005C12.0353 6.84114 11.7659 6.26409 11.4447 5.71618C12.3505 5.1931 13.1763 4.53245 13.8833 3.76111C14.7499 4.74479 15.3512 5.9679 15.575 7.3185ZM12.8771 2.81826C12.2393 3.51645 11.4891 4.11019 10.6662 4.57297C10.1108 3.86699 9.46815 3.23137 8.75169 2.6856L8.73434 2.67243L8.71641 2.66045C8.71632 2.6604 8.7148 2.65936 8.71148 2.65705C8.70766 2.65435 8.70255 2.6507 8.69609 2.64595C8.68283 2.63634 8.66643 2.62421 8.6468 2.60949C8.62444 2.59279 8.60209 2.57589 8.57803 2.55774L8.5731 2.55405C8.55364 2.53934 8.53306 2.52379 8.51046 2.50682C8.46167 2.47011 8.40812 2.43018 8.3589 2.39493C8.32456 2.37029 8.27509 2.33545 8.22468 2.30472L8.19264 2.28258C8.12702 2.23712 8.02833 2.16878 7.93875 2.11377C7.8551 2.0551 7.74197 1.98826 7.66785 1.94486C7.5962 1.90288 7.51893 1.85881 7.47099 1.83144L7.43419 1.81038C7.42535 1.80523 7.4177 1.80095 7.41447 1.79918C7.40886 1.79605 7.40206 1.79229 7.39645 1.78922L7.38897 1.78507C7.37825 1.77918 7.36755 1.77328 7.35641 1.76708C7.34366 1.75999 7.33337 1.75414 7.32581 1.74977L7.32063 1.74614L7.30235 1.73496C7.23614 1.69449 7.16712 1.65753 7.12963 1.63747L7.11586 1.63006L7.0998 1.62144L7.08339 1.61367C7.04786 1.59689 6.99397 1.57122 6.9332 1.54227L6.93175 1.54159C6.91271 1.5325 6.89291 1.52305 6.87285 1.5135C7.3956 1.39223 7.94036 1.32812 8.5 1.32812C10.1479 1.32812 11.666 1.88391 12.8771 2.81826ZM4.984 2.24766C3.92025 2.84714 3.02486 3.71025 2.38646 4.74834C3.14587 5.13348 3.96153 5.40561 4.80179 5.5552L4.80359 5.55552L4.8054 5.55586C5.84375 5.74643 6.91416 5.74132 7.96221 5.55239C8.44297 5.46559 8.91514 5.33654 9.37321 5.16892C8.94268 4.65962 8.45903 4.19755 7.9299 3.79289C7.89361 3.76776 7.85349 3.73793 7.82068 3.71336C7.79577 3.69476 7.76654 3.67271 7.73772 3.65096L7.73696 3.65038C7.71792 3.63598 7.69896 3.62173 7.68171 3.60873C7.63436 3.57314 7.59135 3.54113 7.55574 3.51563C7.53262 3.49905 7.51927 3.4901 7.51383 3.48641C7.51179 3.48504 7.51086 3.4844 7.51086 3.48436L7.49054 3.47289L7.46657 3.45666C7.43138 3.43275 7.40002 3.41105 7.37129 3.39115C7.30839 3.34758 7.25756 3.31246 7.2063 3.28206L7.17273 3.26211L7.14247 3.23921C7.1434 3.23989 7.14289 3.23955 7.14068 3.23808C7.13532 3.23451 7.12087 3.22494 7.09478 3.20875C7.05976 3.18705 7.01683 3.16141 6.97102 3.13454C6.90591 3.09645 6.84666 3.06263 6.79976 3.03589L6.79421 3.03272C6.77464 3.02154 6.75737 3.01168 6.74292 3.00334L6.74149 3.00252L6.73015 2.99625L6.72478 2.9933C6.71412 2.98746 6.69991 2.97962 6.68544 2.97157C6.66849 2.96215 6.64794 2.95056 6.62793 2.93885C6.61699 2.93245 6.59659 2.92044 6.57375 2.90562C6.54566 2.88889 6.51555 2.87271 6.47969 2.85345L6.47809 2.85257C6.4352 2.83228 6.3818 2.80684 6.32515 2.77979C6.21852 2.72895 6.10021 2.67256 6.01811 2.63437L6.00926 2.63027L5.97216 2.61171C5.84213 2.55143 5.68647 2.4924 5.51214 2.42631C5.47418 2.41192 5.43475 2.39697 5.39509 2.38183C5.28757 2.34324 5.17591 2.3081 5.05895 2.27129C5.0343 2.26352 5.00914 2.25561 4.984 2.24766ZM1.78072 5.98703C2.65586 6.42865 3.59346 6.74028 4.55815 6.9122C5.76574 7.13363 7.00298 7.12623 8.20709 6.90914C8.89245 6.78543 9.56157 6.58835 10.2031 6.32573C10.4887 6.80043 10.7289 7.30065 10.9199 7.82C8.03905 8.8576 5.52507 11.2021 4.5308 14.4743C2.60024 13.1891 1.32812 10.9931 1.32812 8.5C1.32812 7.61583 1.48811 6.76907 1.78072 5.98703Z" fill="black"/>
</svg>
