<svg width="127" height="34" viewBox="0 0 127 34" fill="none" xmlns="http://www.w3.org/2000/svg">
<g clip-path="url(#clip0_4683_18459)">
<path d="M46.6443 23.8347L46.0452 28.7752H32.3462V28.4252C34.0695 28.203 34.5676 27.779 34.5676 26.5809V13.3075C34.5676 12.1094 34.0695 11.6854 32.3462 11.4633V11.1133H43.5006C44.5238 11.1133 45.022 11.0123 45.197 10.7363H45.547L46.3952 16.047H46.0452C45.271 13.0316 43.8237 11.8065 40.9829 11.8065H38.4384V19.3654H40.7339C42.2081 19.3654 42.9553 18.4701 42.8274 16.6932H43.1775L43.8776 22.7308H43.5275C43.2313 20.9337 42.2822 20.0586 40.882 20.0586H38.4384V26.6415C38.4384 27.6646 38.8153 28.0617 39.9126 28.0617H41.2859C44.1064 28.0617 45.574 26.8165 46.301 23.8212H46.651L46.6443 23.8347Z" fill="#121212"/>
<path d="M62.2884 33.3391V33.6891H54.8768V33.3391C56.6473 33.0901 57.0242 32.7872 57.0242 31.791V26.3995C56.6001 27.9207 55.3009 29.1457 53.5305 29.1457C50.0367 29.1457 48.1923 26.2245 48.1923 22.8119C48.1923 18.4974 50.8849 15.7041 54.6008 15.7041C55.8731 15.7041 57.0714 16.1753 57.8926 16.9291L60.3631 15.7041H60.7132V31.791C60.7132 32.7872 61.0902 33.0901 62.2817 33.3391H62.2884ZM55.173 27.1736C56.0212 27.1736 56.7415 26.5476 57.0175 25.6793V19.8167C57.0175 17.9926 56.2164 16.3974 54.823 16.3974C53.1535 16.3974 52.0293 18.7196 52.0293 21.6879C52.0293 24.6562 53.0054 27.1736 55.173 27.1736Z" fill="#121212"/>
<path d="M72.2181 26.7024V26.3255C70.9458 27.9476 69.6264 29.1188 67.9502 29.1188C65.4325 29.1188 64.2074 27.3957 64.2074 24.8312V19.0696C64.2074 17.8445 63.6554 17.5214 62.787 17.5753V17.2253L67.5799 15.7041H67.93V24.562C67.93 25.962 68.6503 26.7563 69.8014 26.7563C70.6967 26.7563 71.3699 26.4063 72.171 25.612V19.0763C72.171 17.8513 71.619 17.5282 70.7506 17.582V17.232L75.5435 15.7108H75.8936V26.3591C75.8936 27.0793 76.1696 27.5034 76.6408 27.5034C76.9908 27.5034 77.3611 27.2544 77.7111 26.5813L78.0343 26.7091C77.1591 28.9034 75.7388 29.1525 74.9915 29.1525C73.4971 29.1525 72.2248 28.0284 72.2248 26.7091L72.2181 26.7024Z" fill="#121212"/>
<path d="M85.4387 28.4258V28.7758H78.9022V28.4258C79.9726 28.2037 80.3226 27.7998 80.3226 26.8306V19.0698C80.3226 17.8448 79.7706 17.5217 78.9022 17.5756V17.2255L83.6683 15.7044H84.0183V26.8306C84.0183 27.8065 84.3414 28.2037 85.4387 28.4258ZM82.1671 9.96289C83.5134 9.96289 84.5097 10.9119 84.5097 12.1572C84.5097 13.4024 83.5134 14.4053 82.1671 14.4053C80.8208 14.4053 79.8245 13.4293 79.8245 12.1572C79.8245 10.885 80.8208 9.96289 82.1671 9.96289Z" fill="#121212"/>
<path d="M97.516 28.7682H86.6914V28.3913L96.9707 11.7996H91.8344C89.512 11.7996 88.3407 12.9237 87.6944 15.6901H87.3444L88.1185 10.7227H88.4686C88.5965 10.9986 88.9667 11.0996 89.7409 11.0996H99.8451V11.4765L89.5658 28.0682H95.4291C97.7516 28.0682 98.9229 26.9442 99.5691 24.1777H99.9192L99.1181 29.1452H98.7681C98.6402 28.8692 98.2968 28.7682 97.5227 28.7682H97.516Z" fill="#121212"/>
<path d="M101.38 22.7832C101.38 18.7177 103.797 15.8975 107.27 15.8975C110.387 15.8975 111.962 18.3408 111.713 21.2351H103.554V21.7601C103.554 25.0784 105.204 27.5756 108.246 27.5756C109.694 27.5756 110.966 26.5794 111.437 25.0784L111.76 25.1525C111.363 27.5217 109.512 29.117 107.216 29.117C103.474 29.117 101.38 26.2967 101.38 22.7832ZM109.64 20.6629C109.768 18.5158 108.644 16.5975 106.846 16.5975C104.928 16.5975 103.83 18.1658 103.602 20.6629H109.64Z" fill="#121212"/>
<path d="M127.001 28.4244V28.7744H121.487V28.4244C122.787 28.2494 123.211 27.8523 123.211 26.8292V20.2194C123.211 18.3953 122.362 17.379 120.841 17.379C119.569 17.379 118.498 18.1261 117.347 19.4521V26.8359C117.347 27.859 117.771 28.2561 119.071 28.4311V28.7811H113.557V28.4311C114.857 28.2561 115.281 27.859 115.281 26.8359V18.8059C115.281 17.4597 114.809 17.2107 113.557 17.4328V17.0828L116.997 15.9116H117.347V18.8328C118.694 16.9886 120.094 15.9116 121.662 15.9116C123.985 15.9116 125.277 17.5338 125.277 20.1252V26.8359C125.277 27.859 125.701 28.2561 127.001 28.4311V28.4244Z" fill="#121212"/>
<path d="M25.6615 0H19.7308V3.15007H25.6615V9.08H28.8119V3.15007V0H25.6615Z" fill="#121212" fill-opacity="0.47451"/>
<path d="M21.5345 11.349H23.857V7.27002L21.5345 11.349Z" fill="#121212"/>
<path d="M14.1901 17.8914L16.1288 14.499H11.7397L14.1901 17.8914Z" fill="#121212"/>
<path d="M17.0178 19.2712H23.8572V14.499H19.7374L17.0178 19.2712Z" fill="#121212"/>
<path d="M7.56628 19.2705H11.3158L9.19535 16.3291L7.56628 19.2705Z" fill="#121212"/>
<path d="M6.62398 14.499H0V19.2712H3.97843L6.62398 14.499Z" fill="#121212"/>
<path d="M0 26.446L2.23492 22.4209H0V26.446Z" fill="#121212"/>
<path d="M8.37422 11.3485H9.46475H13.9346H17.9265L21.5683 4.9541H0V11.3485H5.51998H8.37422Z" fill="#121212"/>
<path d="M18.4383 22.3804H10.0237L10.0506 22.4208H5.81638L2.27551 28.8084H23.8573V22.4208H18.4316L18.4383 22.3804Z" fill="#121212"/>
</g>
<defs>
<clipPath id="clip0_4683_18459">
<rect width="127" height="33.6882" fill="white"/>
</clipPath>
</defs>
</svg>
