<svg width="107" height="37" viewBox="0 0 107 37" fill="none" xmlns="http://www.w3.org/2000/svg">
<path d="M51.1981 4.08398C51.7797 4.31635 51.955 6.09147 51.1981 6.32467C50.9434 6.00668 50.8047 5.61156 50.8047 5.20432C50.8047 4.79708 50.9434 4.40198 51.1981 4.08398Z" fill="black"/>
<path d="M54.8982 4.08398C55.1872 4.29916 55.3927 4.60763 55.4798 4.95701C55.3925 5.39353 55.0718 5.59686 55.1881 6.20765H54.6066C54.5775 5.30557 54.4321 4.63669 54.8982 4.08398Z" fill="black"/>
<path d="M48.0832 5.36372C47.6171 5.88738 48.1995 6.9347 47.4136 7.02349C47.3264 6.44257 47.2682 5.8019 46.832 5.5687C47.0647 4.75375 47.6769 4.63757 48.084 5.36538" fill="black"/>
<path d="M59.2965 5.45031C59.0638 5.94824 58.9758 6.55572 58.7149 6.99224C57.6083 6.43954 58.6568 3.64697 59.2965 5.45031Z" fill="black"/>
<path d="M34.0712 6.61471C33.4597 6.99314 33.5727 6.14915 32.9911 6.23629C32.8748 7.45788 32.1753 8.94171 33.2827 9.55583C33.1955 10.5451 33.9814 11.3882 33.6616 11.9998C32.2924 11.6505 33.2246 9.58487 32 9.09026C32.1163 7.81057 32.1163 6.44292 32.6696 5.59893C32.8292 5.56593 32.9939 5.56666 33.1532 5.60106C33.3125 5.63546 33.4628 5.70277 33.5945 5.79868C33.7262 5.89458 33.8364 6.01695 33.9179 6.15791C33.9994 6.29888 34.0505 6.45534 34.0678 6.6172" fill="black"/>
<path d="M72.6076 12.0836C72.2869 11.5027 73.0737 10.716 72.9865 9.75994C73.2783 9.49719 73.5417 9.20458 73.7724 8.8869C73.7309 8.06135 73.604 7.24232 73.3936 6.4429C73.0729 6.47194 72.7821 6.55908 72.812 6.94082C72.6957 6.79559 72.3459 6.88273 72.2305 6.7375C72.3177 5.89351 73.6287 5.22463 74.0947 6.15659C73.7741 7.11676 74.4445 7.69851 74.4736 8.39727C74.5027 9.55911 73.3105 10.3467 73.3936 11.7998C72.9275 11.6546 72.9566 12.3525 72.6068 12.0911" fill="black"/>
<path d="M41.7603 9.72818C41.1488 9.58295 41.4396 8.47755 40.6803 8.47755C40.6512 8.62278 40.6221 9.00121 40.3886 9.14644C40.2435 9.18189 40.0911 9.17307 39.951 9.12115C39.8109 9.06923 39.6896 8.97659 39.6027 8.85515C39.5736 8.15722 40.1012 7.98211 40.5639 7.7763C40.5349 7.51489 40.2723 7.48501 40.2723 7.19538C41.4354 6.90409 42.2239 9.05764 41.7578 9.72652" fill="black"/>
<path d="M65.9084 7.19678C65.9201 7.30265 65.908 7.40982 65.8728 7.51036C65.8375 7.61091 65.7801 7.70227 65.7048 7.77769C65.9964 8.24326 66.7242 8.12707 66.666 8.73787C66.6079 9.34867 65.6176 9.4358 65.586 8.44658C65.0618 8.62086 65.149 9.4358 64.7993 9.81423C64.6234 9.73478 64.4563 9.63715 64.3008 9.52294C64.7378 8.6499 64.7378 7.34117 65.9025 7.19926" fill="black"/>
<path d="M22.684 11.8806C23.9069 12.9279 25.0102 14.0914 26.6718 14.7022C26.6525 14.9741 26.5835 15.2402 26.4682 15.4873C25.2209 14.877 24.0481 14.1251 22.9731 13.2466C22.5943 12.8681 22.0991 12.3154 22.6815 11.8789" fill="black"/>
<path d="M83.5289 12.0838C83.7572 12.2531 83.9306 12.4857 84.0274 12.7527C82.8771 14.0569 81.3992 15.0309 79.7464 15.5743C79.8336 15.1959 79.63 15.1088 79.6591 14.7884C81.1517 14.2156 82.4814 13.2868 83.5323 12.083" fill="black"/>
<path d="M21.2299 12.4622C23.0428 14.3738 25.2762 15.8379 27.7532 16.7386C27.7209 16.9429 27.652 17.1397 27.5497 17.3196C24.8995 16.7669 22.7444 14.8465 20.8203 13.2465C20.9027 12.9603 21.0414 12.6934 21.2282 12.4614" fill="black"/>
<path d="M85.0718 12.6655C86.4119 13.5676 84.2269 14.6149 83.2076 15.2838C81.8861 16.3369 80.3575 17.1003 78.7213 17.5245C78.6972 17.3021 78.5937 17.0959 78.4297 16.9436C80.9396 16.0404 83.2105 14.5779 85.0702 12.6672" fill="black"/>
<path d="M48.7794 13.5376C49.9151 13.4795 49.9733 14.4688 50.8182 14.6995C50.7891 15.1974 49.9733 14.8738 49.6551 14.7866C49.189 14.9318 49.1566 15.5136 48.4031 15.3675C49.4516 14.4074 47.7044 14.9891 47.6172 14.1169C48.4621 14.0007 48.8983 14.3202 49.4815 14.204C49.2488 13.9717 48.7828 13.9717 48.7828 13.5352" fill="black"/>
<path d="M57.6328 13.5381C57.6619 13.9456 57.1667 13.8584 57.1343 14.207C57.367 14.2941 58.0956 14.0036 58.678 14.1198C58.678 14.2941 58.7943 14.3232 58.7652 14.4983C58.4736 14.6725 57.9203 14.5854 57.6021 14.7016C57.2814 14.9929 58.1006 15.1091 57.8056 15.3705C57.2241 15.5738 57.0197 15.0211 56.6425 14.7895C56.2946 14.9211 55.9105 14.9211 55.5625 14.7895C56.2612 14.3821 56.611 13.6277 57.6303 13.5389" fill="black"/>
<path d="M21.6979 14.7896C22.8537 15.7247 24.1263 16.5058 25.4838 17.1132C25.3965 17.3166 25.2802 17.4917 25.1922 17.6941C23.8092 17.136 22.5296 16.3506 21.4062 15.3705C21.4644 15.1381 21.6979 15.0792 21.6979 14.7896Z" fill="black"/>
<path d="M84.6053 14.9057C84.8335 15.0749 85.0069 15.3076 85.1037 15.5745C83.8846 16.4167 82.6208 17.1924 81.3179 17.8982C81.2015 17.724 80.9972 17.6368 81.0262 17.3173C82.0747 16.3862 83.5311 15.8335 84.6086 14.9023" fill="black"/>
<path d="M21.6957 16.4473C22.7757 16.8257 23.3847 17.6979 24.5204 17.9892C24.5786 18.3096 24.2288 18.2216 24.3169 18.5702C23.3027 18.1506 22.352 17.592 21.4922 16.9104C21.5503 16.7361 21.7248 16.678 21.6957 16.4448" fill="black"/>
<path d="M56.8499 20.6373H57.8111V19.7642H56.8499V20.6373ZM58.5115 20.6373C59.0357 20.5792 59.7925 20.7535 60.173 20.5502C59.5616 20.0265 59.1246 19.3286 58.5115 18.8074V20.6373ZM54.6068 20.6373H56.1794C56.2266 19.9863 56.1973 19.3321 56.0922 18.6879C55.681 19.4447 54.9823 19.8804 54.6068 20.6373ZM56.8499 19.1825H57.8111V18.1036H56.8499V19.1825ZM56.1803 16.5352C56.6173 16.6513 56.5882 16.5352 57.0543 16.7385C57.316 17.0298 56.7045 17.0298 56.8507 17.5244C56.967 17.7567 57.4622 17.5534 57.7247 17.6115C57.9573 17.4953 57.7538 17.0007 57.8119 16.7385C58.1102 16.7719 58.4035 16.8402 58.6859 16.9418C59.1844 17.058 58.3071 17.2621 58.3943 17.6107C59.0995 18.6163 59.9207 19.5355 60.841 20.3493C60.5441 20.9548 60.2817 21.5765 60.0551 22.2116H54.9873C54.7837 21.5136 54.2886 21.0771 54.1133 20.3493C54.7247 18.9817 56.3265 18.6622 56.1811 16.5385" fill="black"/>
<path d="M84.6085 16.5352C84.7791 16.73 84.908 16.9576 84.9874 17.204C84.1027 17.792 83.1553 18.2799 82.1627 18.6588C82.0755 18.4555 81.8711 18.3675 81.8711 18.0779C82.8342 17.6566 83.7526 17.14 84.6127 16.536" fill="black"/>
<path d="M48.3767 20.521H49.3379V19.7351H48.3767C48.3029 19.9919 48.3029 20.2643 48.3767 20.521ZM50.0383 20.521H51.4947C51.055 19.9657 50.5677 19.4498 50.0383 18.9791V20.521ZM46.1336 20.521H47.59C47.6381 19.909 47.6088 19.2934 47.5027 18.6887C47.1538 19.3866 46.4551 19.765 46.1344 20.521H46.1336ZM48.2886 18.1974V19.0704H49.3687V18.1974C49.0096 18.1669 48.6487 18.1658 48.2895 18.194L48.2886 18.1974ZM47.59 16.6554C47.7415 16.6205 47.899 16.6207 48.0505 16.656C48.202 16.6912 48.3434 16.7606 48.4639 16.8588C48.9624 16.9459 48.0851 17.1202 48.2604 17.5276C48.4058 17.76 48.93 17.5567 49.2216 17.6148C49.4842 17.4696 49.1635 16.7998 49.4252 16.6546C49.804 16.6546 50.0067 16.8579 50.3864 16.8579C50.241 17.0612 49.8879 17.0903 49.8879 17.4389C50.354 18.7185 51.4315 19.3883 52.2141 20.3484C52.0687 21.0754 51.5154 21.3957 51.3401 22.0912H46.4842C46.3388 21.3352 45.5811 21.0123 45.6102 20.3484C45.6974 19.1268 48.0568 18.5741 47.5908 16.6538" fill="black"/>
<path d="M12.1717 20.3463C12.2008 19.9679 12.5506 19.9389 12.5506 19.5604C12.347 19.3281 12.2299 18.9795 11.881 18.8915C11.5902 19.4152 11.4456 20.1712 12.1717 20.3463ZM11.8801 17.9895C12.5498 18.2807 12.7541 18.9787 13.1321 19.5314C12.7426 20.1449 12.4204 20.7984 12.1709 21.4808C11.6467 21.0443 11.5013 20.2592 11.0078 19.821C11.1853 19.162 11.4814 18.5408 11.8818 17.9878" fill="black"/>
<path d="M94.417 20.6374C94.3298 20.1394 94.9155 20.3461 94.9155 19.9685C94.5948 19.7652 94.6829 19.1826 94.2459 19.0954C94.1281 19.1941 94.0366 19.3203 93.9794 19.4627C93.9223 19.6052 93.9012 19.7596 93.9181 19.9122C93.9351 20.0647 93.9895 20.2108 94.0765 20.3373C94.1635 20.4638 94.2805 20.5669 94.417 20.6374ZM94.3339 18.1934C94.8597 18.6694 95.2593 19.2682 95.497 19.9361C95.2353 20.6631 94.5067 20.8963 94.417 21.7693C93.8637 21.3038 93.7474 20.4307 93.2539 19.9361C93.3993 19.151 93.9817 18.7743 94.3339 18.1934Z" fill="black"/>
<path d="M13.0478 23.5464C13.6458 23.0622 14.1116 22.435 14.4021 21.7229C14.6926 21.0109 14.7983 20.237 14.7094 19.4733C14.0946 19.9431 13.6166 20.5683 13.3245 21.2843C13.0324 22.0003 12.9369 22.7812 13.0478 23.5464ZM15.0866 18.6011C15.8434 21.016 14.4751 23.7464 12.5526 24.4484C11.9412 21.6849 13.2223 19.4442 15.0866 18.6011Z" fill="black"/>
<path d="M93.4575 23.6335C93.3121 21.8908 92.7297 20.5787 91.5932 19.8517C91.7685 21.568 92.2636 22.9647 93.4575 23.6335ZM91.0108 18.7754C93.0786 19.5314 94.3597 21.597 93.8355 24.6228C91.8258 23.8078 90.6901 21.626 91.0108 18.7754Z" fill="black"/>
<path d="M11.3884 22.8775C11.2942 22.2404 11.0278 21.6409 10.618 21.1437C10.2081 20.6465 9.67019 20.2704 9.06222 20.0559C9.46598 21.3646 10.0774 22.4701 11.3884 22.8775ZM8.35938 19.27C10.6856 19.6775 11.8254 21.2485 11.9708 23.8344C9.99021 23.0784 8.44661 21.914 8.35938 19.27Z" fill="black"/>
<path d="M94.9142 23.4593C96.1953 22.7032 97.3899 21.8302 97.5353 19.968C96.835 20.276 96.2259 20.759 95.7668 21.3705C95.3077 21.9821 95.014 22.7014 94.9142 23.4593ZM97.9432 19.27C98.3802 22.1796 96.3415 23.3721 94.537 24.3323C94.4166 23.7757 94.4099 23.2005 94.5172 22.6411C94.6246 22.0818 94.8439 21.5499 95.1619 21.0772C95.4799 20.6046 95.8902 20.2009 96.3681 19.8904C96.846 19.5798 97.3818 19.3688 97.9432 19.27Z" fill="black"/>
<path d="M25.8902 19.7639C26.4718 19.7058 26.647 20.0842 27.3466 20.1423C27.4047 20.4336 27.1721 20.4336 27.2593 20.7232C26.7625 20.5924 26.2758 20.426 25.803 20.2253C25.7157 19.963 25.9193 19.9929 25.8902 19.7597" fill="black"/>
<path d="M80.118 19.7642C80.3797 19.8223 80.4968 20.0256 80.4968 20.3451C80.0539 20.5459 79.5962 20.7124 79.1277 20.843C79.1568 20.5517 78.8951 20.5517 78.9241 20.2621C79.3556 20.1917 79.7645 20.0212 80.118 19.7642Z" fill="black"/>
<path d="M25.3111 20.4331C25.9807 20.5493 26.4177 20.8987 27.0557 21.014C27.0118 21.0654 26.9809 21.1267 26.9657 21.1926C26.9505 21.2584 26.9515 21.327 26.9685 21.3925C26.2698 21.7128 25.7747 21.0431 25.1333 21.014C25.017 20.6647 25.3659 20.7518 25.3078 20.4331" fill="black"/>
<path d="M81.2857 21.0154C80.7649 21.3129 80.2058 21.5379 79.6241 21.6843C79.6822 21.364 79.3325 21.4519 79.4206 21.1034C80.1483 21.1615 80.906 20.1722 81.2849 21.0162" fill="black"/>
<path d="M8.561 22.7612C8.28996 22.5661 8.08666 22.2914 7.97945 21.9753C7.62969 22.0334 7.01823 21.8591 6.81635 22.0624C7.36716 22.6442 7.62886 23.2268 8.561 22.7612ZM8.35746 21.3936C8.73755 22.1731 9.3092 22.8438 10.019 23.343C9.29126 23.5463 8.15474 23.372 7.3979 23.5463C6.84417 23.0259 6.3552 22.4407 5.94153 21.8035C6.29129 21.2226 7.48513 21.4541 8.35912 21.396" fill="black"/>
<path d="M97.9438 23.1681C98.2644 23.2567 98.6071 23.2146 98.8965 23.0508C99.186 22.8871 99.3985 22.6152 99.4874 22.295C99.3286 22.2481 99.1621 22.2336 98.9976 22.2524C98.8331 22.2711 98.6741 22.3228 98.5301 22.4043C98.386 22.4857 98.2599 22.5954 98.1591 22.7266C98.0584 22.8578 97.9852 23.008 97.9438 23.1681ZM100.361 21.8884C100.038 22.6695 99.5398 23.3661 98.905 23.9249C98.031 23.8378 97.216 23.3722 96.3711 23.8378C96.8953 23.0519 97.7112 22.5872 98.1158 21.6851C98.8685 21.5574 99.6415 21.6275 100.359 21.8884" fill="black"/>
<path d="M52.575 26.6591H53.7382V25.7861H52.575V26.6591ZM54.3197 26.6591C54.8439 26.601 55.6307 26.7753 55.9813 26.572L54.3197 24.8292V26.6591ZM50.415 26.6591H51.9586C52.006 26.0371 51.9766 25.4117 51.8714 24.7969C51.3227 25.3656 50.8347 25.9897 50.415 26.6591ZM52.5701 25.2043H53.7332V24.1255H52.5701V25.2043ZM51.9885 22.6732C52.2211 22.7313 52.6872 22.557 52.7753 22.7603C53.2737 22.8475 52.4546 23.0217 52.5717 23.3412C52.7462 23.5736 53.3286 23.3703 53.6517 23.4284C53.8844 23.3703 53.6808 22.8757 53.739 22.6425C54.176 22.5553 54.3205 22.7587 54.7002 22.7296C53.5936 24.2716 56.0403 25.1446 56.5346 26.3371C56.4183 27.0931 55.953 27.499 55.7478 28.1994H50.7972C50.5116 27.6 50.1906 27.018 49.8359 26.4566C50.3602 25.0018 52.0791 24.7404 51.991 22.6748" fill="black"/>
<path d="M6.60836 25.2916C8.06474 26.1356 10.3943 25.4368 11.3846 24.6227C9.81188 24.2443 7.45245 24.3314 6.60836 25.2916ZM12.4638 24.5098C11.2408 25.9356 7.6294 26.9248 5.73438 25.3829C6.72467 23.4335 10.5978 23.2302 12.4638 24.5098Z" fill="black"/>
<path d="M95.1163 24.9146C95.8149 25.9329 98.7277 26.4855 99.7761 25.4125C98.3366 24.6812 96.6781 24.504 95.1163 24.9146ZM100.737 25.3801C99.3682 27.3876 95.029 26.4856 94.008 24.7992C95.8723 23.5776 99.4247 23.9843 100.737 25.3801Z" fill="black"/>
<path d="M13.3372 25.3794C13.3954 25.7579 13.8615 26.6301 13.1337 26.6301C13.1919 26.1936 12.9302 26.0492 12.8421 25.7571C12.3179 25.699 12.1725 25.9894 11.9681 26.255C12.6101 26.7155 13.0894 27.3675 13.3372 28.1172C13.6288 27.1861 14.3275 26.1097 14.0069 24.9172C13.6579 24.9139 13.3663 25.0591 13.3372 25.3794ZM14.5003 24.6234C14.821 26.66 13.8307 28.2019 13.044 29.4816C13.0604 28.851 12.8929 28.2292 12.5619 27.692C12.2309 27.1548 11.7507 26.7253 11.1797 26.4558C11.4713 25.8749 11.7911 25.3214 12.5488 25.2052C12.9567 24.7072 13.8008 23.9828 14.5003 24.6234Z" fill="black"/>
<path d="M93.1668 28.2012C93.3122 27.3281 93.9827 27.0086 94.4188 26.4584C94.1563 26.226 93.8074 25.9057 93.4576 26.08C93.3824 26.3779 93.2849 26.6697 93.166 26.953C93.0497 26.8659 92.8162 26.8659 92.7872 26.6617C92.7581 26.1638 93.0198 25.9928 93.0788 25.5829C93.0202 25.432 92.9064 25.3091 92.7605 25.2388C92.6146 25.1685 92.4475 25.1563 92.2928 25.2045C92.2856 26.2671 92.5893 27.3087 93.1668 28.2012ZM95.2928 26.8626C94.0408 27.1829 93.4285 28.1713 93.4585 29.7721C92.7598 29.2194 90.7168 25.0592 92.2953 24.5065C92.5841 24.5021 92.8678 24.5824 93.1112 24.7376C93.3546 24.8928 93.547 25.1161 93.6645 25.3796C94.0481 25.4496 94.4044 25.6258 94.6927 25.8881C94.981 26.1504 95.1898 26.4884 95.2953 26.8634" fill="black"/>
<path d="M0.669614 27.9098C0.902235 29.0152 2.15506 30.9646 3.7859 30.9356C5.06697 30.9065 5.97004 29.1323 4.74712 28.4045C4.01935 28.8119 3.17444 30.2958 2.21322 29.5663C2.82468 29.246 3.55328 29.0426 3.75682 28.3157C2.88283 28.1995 2.06783 28.6069 1.51369 28.519C1.52302 28.387 1.49265 28.2552 1.42646 28.1406C2.067 27.6426 3.55245 27.9953 4.45551 27.7621C3.99732 27.499 3.57629 27.1762 3.20352 26.8019C4.36662 26.4816 4.83435 27.675 5.65019 28.0526C5.99912 25.0882 1.10661 26.1646 0.669614 27.9098ZM0 27.8227C0.581551 26.8335 2.44667 25.1754 4.48625 25.582C5.70917 25.8434 7.07831 27.3853 5.85539 28.6078C5.97364 28.8809 6.03152 29.1764 6.02508 29.4739C6.01864 29.7715 5.94804 30.0642 5.81808 30.332C5.68813 30.5998 5.50188 30.8365 5.27204 31.0259C5.04221 31.2152 4.77418 31.3529 4.48625 31.4294C2.21488 31.8659 0.37967 29.4219 0 27.8219" fill="black"/>
<path d="M100.74 26.9498C100.711 27.2702 100.508 27.6768 100.74 27.91C101.614 27.7067 102.226 26.4262 103.274 27.037C102.771 27.2477 102.308 27.543 101.905 27.91C103.099 27.9681 104.352 27.9391 104.934 28.5789C104.759 28.5789 104.876 28.8992 104.642 28.8702C103.972 28.5513 103.218 28.4495 102.487 28.5789C102.943 29.1119 103.51 29.5387 104.149 29.8295C103.945 29.9167 103.77 30.0329 103.567 30.1208C102.844 29.6232 102.162 29.0682 101.529 28.4611C100.101 29.2171 101.237 30.7847 102.403 30.905C104.092 31.0503 105.285 29.5084 105.726 28.5814C105.137 26.8917 102.545 25.466 100.74 26.9498ZM106.306 28.8992C105.608 30.8486 102.491 32.7391 100.74 30.9358C100.488 30.6223 100.317 30.2519 100.242 29.8569C100.184 29.4494 100.474 29.0718 100.445 28.6063C100.416 28.1407 99.9467 27.7623 100.066 27.1515C100.212 26.4245 101.26 25.8129 102.105 25.6967C103.082 25.587 104.064 25.8587 104.846 26.455C105.627 27.0513 106.148 27.9261 106.299 28.8967" fill="black"/>
<path d="M9.63868 32.3902C11.444 32.245 13.1047 28.2881 11.095 27.7354C9.87213 27.386 9.63868 28.3752 9.55145 29.3952C9.98844 30.064 10.7453 30.4134 11.095 31.1379C10.9206 31.225 10.9206 31.4873 10.7162 31.5163C10.3824 31.0525 9.99169 30.6323 9.55311 30.2657C9.23242 30.9055 9.75665 31.5753 9.55311 31.9255H9.05464C8.9353 31.2144 8.90599 30.4911 8.9674 29.7727C8.4141 29.7437 8.4141 30.6748 7.8043 30.2707C8.15406 29.3686 9.08537 29.02 9.17344 27.8267C6.35125 27.7653 6.814 32.5935 9.63868 32.3902ZM10.4254 27.1536C11.2114 26.7171 12.2897 27.7346 12.4642 28.2325C13.2509 30.3852 11.3576 32.9744 9.63951 33.0906C5.96992 33.323 5.4457 26.1088 9.93112 27.4474C10.0866 27.3332 10.2537 27.2356 10.4296 27.1561" fill="black"/>
<path d="M96.6621 28.3175C96.5376 28.1693 96.3786 28.0538 96.1991 27.9812C96.0195 27.9087 95.8249 27.8812 95.6323 27.9013C95.4397 27.9214 95.2549 27.9884 95.0942 28.0964C94.9335 28.2044 94.8018 28.3501 94.7106 28.5208C93.8366 30.237 95.3802 32.7972 97.2445 32.7101C99.6621 32.5939 99.7493 27.7648 97.3317 28.1457C97.2736 29.3075 98.8172 29.8329 98.4118 30.6769C97.9457 30.5607 97.9457 29.9789 97.5378 29.8038C97.4215 30.6478 97.7122 31.8694 97.0393 32.1275C96.8067 31.8362 97.0102 31.1383 96.9521 30.6727C96.3406 30.876 96.1952 31.5167 95.7001 31.8345C95.7873 31.5142 95.3794 31.6893 95.4084 31.4561C96.0797 30.5283 97.4771 29.8594 96.6621 28.3175ZM96.7493 27.7366C100.072 25.5548 101.118 34.4279 96.2509 33.1765C94.6491 33.1474 92.6976 28.7258 94.7073 27.4453C95.0298 27.2558 95.4073 27.1815 95.7777 27.2344C96.1481 27.2873 96.4896 27.4644 96.746 27.7366" fill="black"/>
<path d="M59.0057 34.9213C59.4427 35.0665 59.7044 35.3868 60.1688 35.5022C60.227 35.1238 60.8675 34.4234 60.4604 34.2516C59.9345 34.4557 59.4684 34.6922 59.0057 34.9213ZM46.2498 35.5022C46.5995 35.0947 46.8313 35.2408 47.1238 34.8333C47.0365 34.8043 47.0075 34.7462 47.0365 34.63C46.4832 34.7171 46.0753 34.1063 45.6674 34.3387C45.7961 34.7553 45.9925 35.1478 46.249 35.5005L46.2498 35.5022ZM53.152 31.4291C52.4824 31.1669 51.8709 30.8482 51.2004 30.5561C49.9485 32.1851 49.4242 34.5711 47.589 35.6184C50.9122 34.8623 55.4815 35.3561 58.5978 35.5312C56.6463 34.6292 56.4718 31.9528 54.9863 30.586C54.414 30.9476 53.796 31.2314 53.1486 31.4299L53.152 31.4291ZM78.373 30.7312C71.5871 29.8001 61.8013 26.8307 55.9766 30.3528C56.7634 31.6324 57.3167 33.1744 58.3028 34.2532C63.1954 31.9553 71.4085 33.5262 75.3406 34.6316C77.4475 35.1913 79.6023 35.5525 81.7767 35.7105C86.2323 35.9719 91.271 36.0889 94.2386 33.8781C93.4208 32.6904 92.6718 31.4568 91.9954 30.1835C87.5441 31.6051 82.8842 31.3727 78.3697 30.732L78.373 30.7312ZM14.5046 29.8581C13.4561 30.9055 12.8737 32.3893 11.9707 33.5528C15.3885 35.3066 19.248 36.0149 23.0667 35.5893C25.97 35.3266 28.8572 34.9091 31.716 34.3387C36.6966 33.3495 42.6084 32.0698 48.1706 34.2516C48.8983 32.8258 49.8886 31.6914 50.4968 30.1785C39.7231 25.3793 26.0342 34.2233 14.5012 29.859L14.5046 29.8581ZM86.44 25.9892C87.1968 26.7452 88.3333 27.8515 87.52 29.3088C88.7196 29.2356 89.8997 28.9702 91.0151 28.5229C89.9085 26.5444 90.4335 22.9369 88.2735 22.0066C87.7185 23.3718 87.0198 24.6224 86.4375 25.9901L86.44 25.9892ZM32.9107 22.0058C32.3053 22.2267 31.6814 22.3934 31.0464 22.5037C30.8841 23.1716 30.7864 23.8536 30.7548 24.5402C30.4632 26.1112 29.2693 26.6349 29.3856 28.1477C30.4423 28.3663 31.5325 28.3663 32.5891 28.1477C33.4631 28.0025 34.5116 27.8863 34.8323 27.2747C33.9292 26.3726 34.7741 25.1801 35.1239 24.1618C34.3928 23.4008 33.6069 22.7319 32.9082 22.0041L32.9107 22.0058ZM17.9116 21.8896C15.931 22.9079 16.3971 26.3403 15.3777 28.3187C16.4799 28.7938 17.6729 29.0221 18.8729 28.9876C18.7347 28.7152 18.6552 28.4168 18.6396 28.1118C18.624 27.8068 18.6725 27.502 18.7821 27.2169C18.8917 26.9317 19.0599 26.6728 19.2759 26.4566C19.4918 26.2404 19.7508 26.0719 20.0359 25.9618C19.3364 24.6224 18.6951 23.1975 17.9091 21.8879L17.9116 21.8896ZM71.2665 24.4207C71.6155 25.1036 71.8797 25.8266 72.0532 26.5735C71.966 26.9809 71.4127 26.8938 71.5547 27.5336C73.2605 28.1894 75.0909 28.4578 76.9133 28.3195C77.2922 27.3303 76.36 26.6598 76.0393 25.8755C75.6314 24.8863 75.6896 23.7809 75.3697 22.556C74.8712 22.2946 74.2897 22.0581 73.8261 21.7701C73.0693 22.7884 71.8455 23.283 71.2631 24.4174L71.2665 24.4207ZM65.0356 16.9443C64.546 17.4084 63.9452 17.7391 63.2909 17.9045C63.6407 21.0174 63.9896 24.5958 67.7771 23.927C68.1269 23.4904 68.8256 23.112 68.8572 22.2672C68.8572 21.5112 68.3039 20.7253 67.4008 21.0165C66.673 21.2199 67.051 22.2962 66.2377 22.5585C64.6359 21.8896 65.3928 18.5435 65.0439 16.9435L65.0356 16.9443ZM39.8145 22.3842C39.989 20.2024 37.0729 20.668 37.5714 22.7626C37.7168 23.4025 38.3581 23.4315 38.5326 23.9245C42.3767 24.5643 42.6973 20.8116 43.1925 17.7833C42.3767 17.6671 41.9696 17.1144 41.241 16.9103C41.2119 18.8887 41.9397 22.0016 39.8137 22.3792L39.8145 22.3842ZM52.0753 16.9443C51.8426 16.8862 52.1625 16.2754 51.7837 16.3634C49.5123 16.131 46.833 16.3343 44.3897 16.2762C44.5641 16.7999 45.2055 16.887 45.5528 17.2364C45.3492 17.4978 45.2611 17.9344 45.0543 18.1966C44.53 18.2837 44.2675 18.0804 43.8023 18.1095C43.8604 18.7203 43.6278 19.0406 43.715 19.6514C46.2489 24.073 48.7247 28.5536 53.3522 30.6482C57.8384 28.3502 60.109 23.8431 62.7883 19.7676C62.701 19.2696 62.6429 18.7493 62.5847 18.2256C62.0314 18.1676 61.7107 18.3418 61.2156 18.3128C61.0993 17.9634 60.983 17.5858 60.8368 17.2339C61.2447 16.9426 61.7398 16.7684 61.9998 16.3609C59.7567 16.1576 57.1073 16.3318 54.6889 16.2738C54.4264 16.3609 54.4854 16.7974 54.3101 16.9426C53.7568 16.7393 53.5242 16.1567 53.147 15.7808C52.9338 16.2822 52.5517 16.6932 52.067 16.9426L52.0753 16.9443ZM38.6489 16.4464C38.4454 16.3883 38.0084 15.7484 37.9793 16.1551C38.241 17.1734 38.241 19.268 38.8533 20.2282C39.6691 20.2862 39.9333 20.897 40.3969 21.307C40.7467 19.1543 40.9502 15.7791 39.1449 15.1659C39.0869 15.628 38.9151 16.0686 38.6448 16.448L38.6489 16.4464ZM54.5194 15.7783C54.8692 15.7202 55.4807 15.8945 55.6825 15.6912C55.1292 15.6912 54.7504 15.0223 54.3134 15.1932C54.4887 15.2845 54.5469 15.4879 54.5194 15.7783ZM50.7045 15.7783H51.9565C51.8401 15.487 52.2481 15.2256 51.9565 15.1094C51.5265 15.3095 51.1077 15.5328 50.702 15.7783H50.7045ZM52.4807 16.1567C52.8162 15.7472 53.0818 15.2851 53.2666 14.7891C53.4992 15.3127 53.6455 15.9816 54.1406 16.2439C54.0534 15.1966 53.7908 14.3235 53.0606 13.9202C52.7981 14.531 52.1284 15.2588 52.479 16.1609L52.4807 16.1567ZM66.1106 13.3351C65.0503 15.1559 63.4947 16.6387 61.6243 17.6115C64.0129 17.2331 65.2648 15.7493 66.8666 14.5858C66.9166 14.1581 66.8461 13.725 66.6631 13.3351H66.1106ZM41.5592 16.1567C42.488 16.8484 43.5484 17.3434 44.6754 17.6115C43.4367 16.7693 42.2945 15.7935 41.2692 14.702C40.7159 14.0912 40.4825 13.131 39.6076 13.3343C38.9962 14.731 40.7142 15.6032 41.5592 16.1559V16.1567ZM59.7617 14.2945C59.7326 12.2579 55.0146 13.1019 54.8983 14.6729C55.6535 15.9244 59.7891 16.1028 59.76 14.2953L59.7617 14.2945ZM46.627 14.2073C46.1609 16.0107 50.6147 15.9816 51.4032 14.7053C50.8773 13.2189 47.0623 12.4621 46.627 14.2073ZM53.4394 13.5385C53.7892 13.9169 53.9927 14.4115 54.3134 14.7891C54.9539 14.0912 53.9927 13.4804 53.7319 12.8397C53.8473 13.277 53.4112 13.16 53.4394 13.5385ZM51.6948 14.2073C51.8402 14.4107 51.8983 14.731 52.1932 14.7883C52.3311 14.3051 52.604 13.8713 52.98 13.5376C52.8346 13.3343 52.8928 12.9268 52.6011 12.8687C52.3751 13.3619 52.0688 13.8142 51.6948 14.2073ZM54.811 13.5385C55.3926 13.131 56.2383 11.9965 55.7723 11.2148C55.415 11.4777 55.1365 11.8331 54.9667 12.2426C54.7968 12.6521 54.7422 13.1002 54.8086 13.5385H54.811ZM51.6075 13.6256C51.6831 13.1384 51.6028 12.6398 51.378 12.2009C51.1532 11.762 50.7953 11.4053 50.3555 11.1816C50.3821 12.375 50.7319 13.277 51.605 13.6256H51.6075ZM54.2287 12.8405C54.4031 12.2297 55.248 11.0978 54.5203 10.5168C54.168 10.9783 53.731 12.2023 54.2262 12.8405H54.2287ZM52.2771 12.7534C52.4807 11.9094 52.5098 10.6297 51.6956 10.3094C51.5722 10.7321 51.5608 11.1796 51.6626 11.608C51.7644 12.0365 51.9767 12.4311 52.2771 12.7534ZM53.2384 12.8405C53.6172 12.2878 53.7368 10.5426 53.1511 10.1019C52.9616 10.5362 52.8708 11.0071 52.8855 11.4807C52.9002 11.9543 53.0198 12.4187 53.2359 12.8405H53.2384ZM55.8886 12.8405C55.8886 12.9567 55.9467 13.0729 55.9758 12.9277C56.6745 12.375 58.5388 12.4297 59.382 12.8405C59.7027 13.3061 60.256 13.6256 60.256 14.2953C60.256 14.8762 59.5864 15.2845 59.7575 15.5459H62.2915C62.4078 13.131 62.2042 11.2115 62.5831 8.82388C56.3522 8.88197 49.8562 8.70769 43.7981 8.91102C44.2966 11.0347 43.769 14.0314 44.0017 15.5152H46.7433C44.8208 13.6239 48.4613 11.6148 50.3547 12.9841C50.0061 12.2621 49.9037 11.446 50.0631 10.6604C50.5292 10.7185 50.7618 10.9807 51.2262 11.0388C51.2553 10.4579 51.3134 9.90439 51.7247 9.67119C52.2231 9.75833 52.278 10.282 52.6859 10.4571C52.676 10.2574 52.7261 10.0593 52.8297 9.88819C52.9333 9.7171 53.0858 9.58085 53.2674 9.49691C53.5412 9.85282 53.7664 10.2435 53.9371 10.6588C54.4904 9.40812 55.0437 9.61144 55.1891 11.0372C55.597 10.921 55.8005 10.6297 56.2691 10.5392C56.3902 10.9252 56.419 11.3341 56.3532 11.7332C56.2874 12.1323 56.1288 12.5104 55.8902 12.8372L55.8886 12.8405ZM49.2481 8.09856C51.8983 8.04046 54.8401 8.21474 57.315 8.01142C55.1292 7.37075 51.3143 7.19647 49.2464 8.09856H49.2481ZM68.8173 4.40141C67.012 4.08108 66.2543 5.15745 65.4941 5.85621C65.1153 6.20559 64.6202 6.37986 64.4141 6.6421C64.1866 7.14276 63.9923 7.65785 63.8326 8.18403C63.4594 8.78347 63.1932 9.44306 63.0458 10.1334C62.8713 11.7625 63.2494 13.6538 62.9586 15.5733C63.5372 15.3133 64.0392 14.9092 64.4165 14.3997C64.7939 13.8902 65.0339 13.2925 65.1136 12.6638C66.2156 12.7939 67.3313 12.5916 68.3172 12.0828C68.3753 12.3152 68.6378 12.3451 68.696 12.5808C68.1144 12.6389 67.9392 13.1335 67.444 13.2497C67.5173 13.9373 67.644 14.6182 67.8228 15.2862C68.5797 15.141 68.6387 13.3077 69.4844 14.1244C68.7276 14.7642 69.1637 15.6372 69.1056 16.5684C69.0765 16.8887 68.7849 17.1792 68.7267 17.5285C68.4941 18.6074 68.6395 19.507 68.2283 20.2672C70.704 21.6058 68.7267 25.795 65.9021 24.6307C65.3205 25.5328 64.3003 26.0274 63.5759 26.7834C65.2067 27.0448 67.449 26.9867 69.3133 27.2814C69.2842 23.79 72.3423 23.034 73.7995 20.9684C74.3238 20.2124 74.3237 19.3394 74.9626 18.5244C75.8366 19.2223 74.4642 20.6481 74.1759 21.434C75.8374 22.6265 79.2437 22.8888 81.952 22.3942C82.389 20.9975 81.4278 20.2124 80.872 19.4846C82.0077 18.7286 82.8235 20.8813 82.8235 21.7253C82.8235 22.8307 81.9205 23.7328 81.3672 25.0448C81.1046 25.6556 81.1046 26.3834 80.8687 26.9071C80.5189 27.6921 79.4414 27.9859 79.7056 28.9436C81.3364 29.322 84.4236 29.6125 85.5593 29.0308C85.006 27.3146 85.4721 26.3253 86.1409 24.9577C87.073 23.0664 87.9462 21.0307 88.6748 19.1103C89.1118 19.4597 89.1408 20.1892 89.7548 20.3609C89.5222 18.0373 90.6288 16.6082 90.3363 14.8007C90.2782 14.3932 89.9575 14.0737 89.8379 13.6389C89.7506 13.2314 89.8379 12.7658 89.7506 12.3882C89.3718 11.0496 87.9163 10.4388 86.7216 9.47865C86.1974 9.04213 85.7604 8.22801 85.06 7.81888C82.5843 6.33504 78.9728 6.5392 75.7112 6.15911C76.09 9.53342 74.3129 12.8214 72.6821 13.9268C72.1575 14.3295 71.5079 14.5352 70.8469 14.5078C70.2936 14.4206 69.2161 13.3733 70.1773 12.848C70.5271 13.1683 70.4689 13.575 70.8469 13.721C71.6627 14.0704 72.3905 13.1102 72.7984 12.6422C73.031 12.3799 73.468 12.2347 73.6724 11.9733C74.5849 10.5829 75.117 8.97806 75.216 7.31846C75.2451 3.91593 71.6918 4.32174 70.8477 6.44542C70.935 6.12508 70.586 6.2421 70.5561 6.067C70.527 5.51429 71.0804 5.54334 71.0546 4.98814C70.2155 4.86947 69.2244 4.89935 68.8173 4.40141ZM43.2207 9.3492C42.9343 8.43497 42.544 7.5565 42.0576 6.73091C41.7369 6.26534 41.2418 6.12011 40.8056 5.77073C40.4849 5.50849 40.2814 5.01471 40.136 4.89769C38.4179 3.6761 37.2823 4.95578 35.3598 4.89769C35.1272 5.30517 36.2629 5.97654 35.3598 6.26534C34.7783 4.49104 31.6612 3.99644 31.166 6.1782C31.1951 6.70186 31.1079 7.22552 31.166 7.72013C31.4576 10.4588 33.2629 13.5385 35.8259 13.5675C36.1466 13.4804 35.7677 12.6654 36.3244 12.7816C36.9358 13.9434 35.8583 14.5849 34.868 14.3235C32.6249 13.7708 30.1209 9.40728 30.6742 6.06119C26.335 6.29355 22.8108 6.11929 20.5386 8.21392C20.1888 8.53425 20.0401 8.91185 19.6646 9.17409C18.8197 9.81393 17.6549 10.3085 17.0435 11.2106C16.7475 11.8202 16.5779 12.4833 16.545 13.16C16.4287 13.8289 16.108 14.4986 16.0465 15.0223C15.843 17.0879 16.9496 18.0771 16.6281 20.2589C17.1814 20.0265 17.0941 19.18 17.7081 19.0082C18.3777 20.0871 18.3777 21.4232 19.0772 22.7029C19.1935 22.9353 19.5433 23.1104 19.6588 23.3718C20.1572 24.5336 21.2315 26.3685 21.2024 27.1535C21.2024 27.7345 20.7039 28.2009 20.8235 28.8133C22.4544 29.1917 25.5997 29.337 26.8517 28.522C26.8227 27.8531 25.9487 27.5328 25.5997 26.8623C25.3372 26.3386 25.1013 25.3784 24.7257 24.5386C24.1442 23.2879 23.4447 22.502 23.5626 21.219C23.6208 20.5211 24.5239 18.4265 25.4269 19.3568C24.8454 20.0838 23.8252 21.0439 24.3469 22.2664C27.2007 22.4697 30.4947 22.4116 32.4138 21.3933C31.7528 20.5664 31.285 19.6024 31.0447 18.5717C31.2773 18.6007 31.3363 18.4265 31.5432 18.3684C32.5335 22.1502 36.5229 23.2265 37.2806 26.9212C38.7079 27.1535 41.1537 26.7179 42.93 26.6299C42.1141 26.3975 41.5608 24.7967 40.4833 24.5934C40.2216 24.5353 39.7846 24.7967 39.5221 24.7967C37.0463 24.7967 35.8525 21.5676 38.1529 20.3153C37.6869 19.5883 37.9203 18.5991 37.7741 17.697C37.6869 17.1991 37.308 16.824 37.2756 16.3294C37.2465 15.9219 37.5381 15.5144 37.4792 15.1675C37.3919 14.6439 36.7514 14.4405 36.8095 14.0057C37.6835 13.453 37.9162 14.9659 38.4711 15.3733C38.7269 14.6541 38.8551 13.8959 38.85 13.1326C38.5293 12.7833 37.8597 12.7542 37.6869 12.2596C38.5899 11.7069 39.871 12.9575 41.3855 12.7575C41.4461 12.8836 41.47 13.024 41.4546 13.163C41.4391 13.3019 41.385 13.4337 41.2983 13.5434C41.8798 14.0671 42.6674 15.4347 43.2498 15.2862C42.9848 13.0438 43.5381 11.0654 43.2207 9.3492ZM50.8224 3.50182C50.7352 3.88025 50.324 3.90929 50.1528 4.28689C49.7449 5.04292 50.1528 6.26534 49.4832 6.61057C48.9847 5.56326 48.522 4.05038 47.157 4.16657C45.905 4.71927 46.4583 7.33756 45.905 8.06702H47.3614C50.8457 6.57475 54.7478 6.36885 58.3701 7.48611C59.0688 7.68943 59.5931 8.27201 60.5252 8.06702C59.7684 7.48611 60.4961 4.63379 59.0688 4.16657C58.7305 4.24158 58.4062 4.36928 58.1076 4.54499C57.4089 5.09769 57.438 6.26119 56.564 6.58152C56.7966 3.90514 54.9332 2.50845 53.8224 4.54499C53.5017 5.15578 53.7933 6.23215 53.0357 6.28775C52.8903 4.74583 52.1907 3.78564 50.8224 3.49518V3.50182ZM59.9669 4.08274C60.3748 4.63544 60.433 5.47943 60.8409 6.03214C61.3039 5.42078 61.9007 4.92319 62.5856 4.57736C62.0323 4.28607 61.9159 3.55908 61.6243 3.03543C61.1861 3.54052 60.6084 3.90515 59.9636 4.08357L59.9669 4.08274ZM43.7159 4.58067C44.5317 4.78399 44.879 5.42467 45.4605 5.83131C45.7521 5.27861 45.9266 4.63876 46.2465 4.08855C45.6211 3.80493 45.0348 3.44236 44.5018 3.0097C44.3523 3.58224 44.0834 4.11675 43.7126 4.57818L43.7159 4.58067ZM56.0647 3.21303C56.3414 3.69803 56.6633 4.15593 57.0259 4.58067C57.2885 4.05702 57.9581 3.94083 58.2779 3.50182C57.8119 3.18148 57.6374 2.57069 57.3167 2.13417C57.2086 2.40062 57.0383 2.63735 56.8199 2.8246C56.6015 3.01185 56.3414 3.14418 56.0614 3.21053L56.0647 3.21303ZM47.9978 3.6205C48.4814 3.89989 48.9396 4.22118 49.3669 4.58067C49.4251 3.91179 49.9784 3.76573 50.1528 3.21303C49.6133 2.97348 49.1425 2.60253 48.7837 2.13417C48.664 2.77484 48.198 3.0653 47.9936 3.618L47.9978 3.6205ZM51.9855 3.12256C52.484 3.41385 52.6842 3.96656 53.2375 4.20141C53.4411 3.67776 53.9944 3.47444 54.3176 3.03958C53.8233 2.45947 53.4301 1.80049 53.1545 1.09018C52.8699 1.82337 52.4752 2.50897 51.9839 3.1234L51.9855 3.12256ZM68.4401 16.0688C67.974 16.0107 68.0904 16.5667 67.6534 16.5667C67.4949 16.1343 67.3004 15.7159 67.0718 15.3161C66.7729 15.6299 66.4517 15.9217 66.1106 16.1891C65.878 17.5858 65.4119 20.146 66.1978 21.4257C66.2953 21.1317 66.4769 20.8728 66.7203 20.681C66.9637 20.4893 67.2581 20.3731 67.567 20.3468C67.95 18.9416 68.242 17.5132 68.4409 16.0704L68.4401 16.0688ZM57.0525 28.9859C63.1397 26.688 70.4789 28.9278 76.041 29.7718C81.2251 30.5577 87.0207 31.0515 92.4075 29.2739C93.2524 30.9337 94.3009 32.3578 95.2322 33.9287C89.9318 38.4931 77.7026 36.1396 71.0887 34.4267C67.9799 33.8305 64.7992 33.7029 61.6526 34.0482C61.2939 34.9478 60.8757 35.8225 60.4006 36.6665C56.1777 35.8806 50.0324 35.474 45.9839 36.6665C45.6051 35.7644 45.0518 35.0068 44.7319 34.0482C37.1601 33.2922 31.102 35.9105 23.9955 36.2889C19.0448 36.5512 14.414 36.0856 11.1523 33.8449C12.1055 32.1442 13.1456 30.4935 14.2686 28.8996C24.7241 33.6125 37.917 25.3502 49.3046 28.8996C46.9755 26.4008 45.0054 23.5908 43.4509 20.5502C43.1697 21.9877 42.4589 23.3063 41.4121 24.3319C42.0236 25.3793 43.4218 25.6116 43.7383 26.9502C43.1568 27.8233 41.8159 27.3287 40.7093 27.4482C39.3401 27.5643 37.7674 28.0291 36.5154 27.7395C36.3701 26.634 36.3991 25.4158 35.6415 24.9178C35.3718 25.2848 35.2263 25.7282 35.2263 26.1834C35.2263 26.6387 35.3718 27.082 35.6415 27.449C34.6221 28.8457 31.6221 29.02 29.3217 28.9038C27.6908 27.9727 29.438 26.4888 29.8201 25.4125C30.1408 24.4813 30.0527 23.6091 30.3186 22.7942C28.5449 23.054 26.7483 23.1221 24.96 22.9975C25.3098 23.8415 25.4585 24.8597 26.0401 26.1104C26.5643 27.2722 28.3114 28.3212 27.1201 29.5129C25.2857 29.8042 21.7906 30.2109 20.3076 29.3096C19.8415 28.3204 20.8061 27.6224 20.3949 26.6913C19.6671 26.7494 19.6962 27.5643 19.2317 27.8531C19.3771 28.4341 20.1057 28.8714 19.7302 29.6855C18.0686 29.8017 12.4783 29.1619 15.3619 27.1544C15.5655 25.351 15.5655 23.9543 16.2359 22.7908C16.7344 21.9468 17.9249 21.4821 17.6923 20.3468C17.139 20.2307 17.0518 21.3651 16.4403 21.5087C15.887 20.8107 16.2077 19.9958 16.1487 19.268C16.0615 18.0754 15.5372 17.0273 15.4791 16.0679C15.5015 15.1739 15.6698 14.2895 15.9776 13.4497C16.152 12.5185 16.0066 11.9658 16.3564 11.2969C16.9379 10.2496 18.2788 9.52264 19.4727 8.55831C19.8515 8.23798 20.1132 7.77241 20.4339 7.47946C21.7638 6.46332 23.3413 5.82041 25.0032 5.61719C27.1583 5.44292 29.0807 5.99563 30.857 5.11927C31.2649 4.91595 31.5847 4.27527 32.1089 4.04042C32.5308 3.8962 32.9811 3.8553 33.4221 3.92116C33.863 3.98701 34.2817 4.15769 34.6429 4.41884C36.4482 4.12755 38.516 2.9931 40.2922 4.12755C41.1205 4.74368 41.8983 5.42469 42.6184 6.1641C43.0263 6.68776 43.1717 7.56079 43.4924 8.02635C47.0748 7.96826 44.5724 5.11677 42.8228 4.70681C43.6677 4.09601 43.6087 2.58314 44.3664 1.88521C45.0717 2.4976 45.8536 3.01591 46.6926 3.42713C47.8864 3.1068 47.8864 1.59391 48.7313 0.895981C49.6053 1.36155 49.8944 2.40886 50.8864 2.7292C51.843 2.17255 52.5434 1.26403 52.8379 0.198044C53.7119 -0.0641994 53.5657 0.518385 53.7991 0.983951C54.209 1.59985 54.6668 2.18257 55.1683 2.72671C56.4784 2.63958 56.7119 1.47608 57.4945 0.893499C58.4848 1.41716 58.3103 3.21717 59.446 3.42464C60.3781 3.59891 61.3685 2.37733 61.8927 1.96986C62.4169 1.96986 62.5623 2.34828 62.4742 2.93003C62.824 3.56987 63.1729 4.15163 63.5543 4.7923C62.4742 5.345 61.3701 5.87115 60.9331 7.03299C61.2247 7.78901 62.0131 8.02221 62.9719 8.11184C63.6706 6.36908 65.0397 5.31927 66.295 4.12839C68.0712 3.28439 70.1391 4.12838 71.6536 4.50681C72.7893 3.69186 75.236 3.89602 75.5583 5.29272C78.9953 5.99065 83.3345 5.29271 86.2755 7.73672C86.6252 8.02801 86.857 8.55168 87.2367 8.89857C88.3998 9.88779 89.8287 10.4115 90.353 11.6372C90.4551 12.1461 90.5231 12.6612 90.5565 13.1791C90.8872 14.1566 91.0829 15.1746 91.1381 16.2049C91.0799 16.9319 90.5565 17.7468 90.4684 18.736C90.3521 19.7543 90.8473 21.0049 89.97 21.5576C89.4457 21.3543 89.4715 20.6265 88.8899 20.4788C88.5402 21.7875 89.8802 22.0207 90.4336 23.0971C91.0151 24.1759 90.7542 25.512 91.1032 26.8789C91.2776 27.5477 92.1225 27.9577 91.9772 28.7112C90.435 29.572 88.6688 29.9479 86.9093 29.7901C86.8512 28.5685 87.608 27.2299 86.2397 26.6772C85.5701 27.839 87.2882 29.0009 85.9481 29.703C85.2785 30.0523 81.1719 29.9942 80.2107 29.7901C77.5314 29.2664 79.89 27.317 80.4143 26.2988C81.0257 25.1062 80.9958 24.0581 81.5774 23.0987C79.8565 23.3014 78.1134 23.2029 76.4265 22.8074C75.6406 25.4257 78.8731 26.8224 77.3877 28.9486C76.2811 29.2108 71.126 28.9486 70.8643 27.5809C70.7771 27.0573 71.3013 26.854 71.3628 26.4191C71.421 25.8664 70.984 25.6332 70.8643 24.8772C69.9322 25.3751 70.3659 27.2332 69.7013 27.9901C67.5753 27.5535 64.7797 27.7868 62.8888 27.117C62.8597 25.4299 64.665 25.5751 65.215 24.4988C64.1146 23.5143 63.3934 22.1765 63.1762 20.717C61.1956 23.5967 59.5648 26.7096 57.06 28.9793" fill="black"/>
<path d="M21.1758 32.0994L21.4965 32.0703L21.7 34.394L22.8066 34.3069L22.8357 34.5982L21.3793 34.7143L21.1758 32.096" fill="black"/>
<path d="M25.4559 33.1467L24.5238 33.2339L24.611 34.0779L25.6594 33.9907L25.6885 34.2231L24.3485 34.3683L24.0859 32.0114L25.367 31.8662L25.3961 32.1276L24.4349 32.2438L24.493 32.9708L25.4252 32.8837L25.4542 33.1451" fill="black"/>
<path d="M27.6705 31.7799L26.8845 31.8961L26.8555 31.6048L28.7779 31.3135L28.807 31.6048L28.0202 31.7209L28.3991 34.0189L28.0493 34.077L27.6705 31.7799Z" fill="black"/>
<path d="M32.9699 30.9937L32.1831 31.1099L32.125 30.8186L34.0474 30.5273L34.1056 30.8186L33.3188 30.9348L33.6686 33.2328L33.3479 33.2909L32.9691 30.9929" fill="black"/>
<path d="M35.7344 30.2667C35.9428 30.1983 36.1573 30.1496 36.3749 30.1215C36.5067 30.0831 36.6452 30.0737 36.781 30.0937C36.9168 30.1138 37.0466 30.1629 37.1617 30.2377C37.237 30.2912 37.2996 30.3607 37.345 30.4411C37.3904 30.5216 37.4174 30.6111 37.4242 30.7032C37.4488 30.8491 37.4252 30.999 37.3568 31.1302C37.2884 31.2614 37.1791 31.3667 37.0454 31.4302C37.2489 31.4592 37.3951 31.6335 37.5114 31.8958C37.5964 32.1239 37.6937 32.3472 37.803 32.5647L37.4533 32.6228C37.3451 32.4391 37.2571 32.2443 37.1908 32.0418C37.0744 31.6924 36.8991 31.5763 36.6092 31.6053L36.2885 31.6634L36.463 32.7979L36.1423 32.856L35.7344 30.2667ZM36.2329 31.4011L36.5826 31.3431C36.6554 31.34 36.727 31.3225 36.7929 31.2915C36.8589 31.2605 36.918 31.2166 36.9668 31.1626C37.0156 31.1085 37.0532 31.0452 37.0772 30.9764C37.1012 30.9077 37.1113 30.8348 37.1068 30.7621C37.0487 30.4418 36.7862 30.3256 36.4372 30.3547C36.3266 30.3678 36.2185 30.3971 36.1165 30.4418L36.2329 31.402" fill="black"/>
<path d="M39.0807 29.7723L39.2551 31.3142C39.3133 31.8951 39.6049 32.1001 39.9538 32.0702C40.3327 32.0412 40.5653 31.7499 40.5071 31.1681L40.3327 29.6262L40.6824 29.5972L40.8569 31.11C40.9441 31.8951 40.5653 32.2719 40.012 32.3316C39.4878 32.3897 39.0508 32.1283 38.9635 31.3134L38.7891 29.7714H39.0807" fill="black"/>
<path d="M42.7807 30.0346L41.9648 29.9474L41.9939 29.686L43.9454 29.8313L43.9164 30.1226L43.1005 30.0645L42.9261 32.3881L42.5763 32.3591L42.7798 30.0354" fill="black"/>
<path d="M45.6395 30.0337L45.4359 31.1125L46.6879 31.3449L46.8915 30.2661L47.2412 30.3241L46.7428 32.9134L46.393 32.8262L46.6256 31.6337L45.3736 31.4013L45.141 32.5939L44.8203 32.5358L45.3188 29.9756L45.6395 30.0337Z" fill="black"/>
<path d="M59.7656 30.1204C59.9735 30.0435 60.1879 29.9852 60.4062 29.9462C60.6604 29.8785 60.9308 29.9096 61.163 30.0333C61.2543 30.0824 61.3316 30.1538 61.3877 30.2409C61.4438 30.328 61.4768 30.4279 61.4837 30.5312C61.5042 30.6309 61.5044 30.7337 61.4844 30.8335C61.4645 30.9332 61.4246 31.028 61.3674 31.1122C61.2834 31.2317 61.1752 31.3324 61.0499 31.4076C60.9245 31.4827 60.7847 31.5308 60.6396 31.5487C60.554 31.5712 60.4655 31.581 60.3771 31.5777L60.5515 32.596L60.2309 32.6541L59.7656 30.1204ZM60.3189 31.2823C60.417 31.2857 60.5151 31.276 60.6105 31.2532C61.0185 31.1661 61.222 30.9329 61.1638 30.5844C61.1057 30.2358 60.8431 30.1188 60.4651 30.1769C60.3554 30.1943 60.2479 30.2235 60.1445 30.264L60.3189 31.2823Z" fill="black"/>
<path d="M63.4336 29.7427C63.6081 29.7137 63.8415 29.6846 64.0742 29.6556C64.3431 29.6255 64.6134 29.6982 64.831 29.8589C64.971 29.9879 65.0545 30.1668 65.0636 30.3568C65.0697 30.5038 65.0274 30.6488 64.9433 30.7696C64.8591 30.8904 64.7377 30.9803 64.5975 31.0257C64.8011 31.0838 64.9182 31.2581 65.0054 31.5494C65.0546 31.7905 65.1327 32.0248 65.2381 32.2473H64.8883C64.792 32.0543 64.7235 31.8486 64.6848 31.6365C64.5975 31.2871 64.4522 31.1386 64.1315 31.1386H63.8108L63.8399 32.273H63.4901L63.4336 29.7427ZM63.7834 30.9045H64.1331C64.2067 30.913 64.2812 30.9058 64.3518 30.8832C64.4224 30.8607 64.4873 30.8234 64.5423 30.7739C64.5973 30.7244 64.6412 30.6637 64.6709 30.5959C64.7006 30.5282 64.7155 30.4549 64.7147 30.3809C64.7147 30.0315 64.4521 29.9153 64.1032 29.9153C63.9959 29.9193 63.8888 29.929 63.7825 29.9444V30.9045" fill="black"/>
<path d="M68.4707 31.1395L67.4513 31.1686L67.4804 32.0997L68.6161 32.0707V32.3619L67.1306 32.391L67.1016 29.7727L68.4998 29.7437V30.035H67.4198L67.4488 30.8789L68.4682 30.8499V31.1412" fill="black"/>
<path d="M70.743 32.7977L70.2188 30.0923L70.5976 30.1504L70.8302 31.489C70.8884 31.8674 70.9465 32.1869 70.9756 32.5073C71.0919 32.216 71.2373 31.8965 71.3835 31.5761L71.995 30.3545L72.3447 30.4126L71.0927 32.8857L70.743 32.7977Z" fill="black"/>
<path d="M73.5624 32.5349L73.1545 33.2909L72.8047 33.2328L74.1448 30.8179L74.5527 30.876L74.9897 33.6146L74.6399 33.5565L74.4945 32.6835L73.5624 32.5349ZM74.4364 32.4187L74.32 31.6328C74.291 31.4585 74.291 31.2835 74.2619 31.1349C74.2061 31.2857 74.138 31.4317 74.0583 31.5714L73.6795 32.2693L74.4364 32.4146" fill="black"/>
<path d="M77.065 31.5466L76.7443 34.1359L76.3945 34.1068L76.7443 31.5176L77.065 31.5466Z" fill="black"/>
<path d="M78.8385 31.9247L79.1882 31.9538L78.8966 34.2774L80.0323 34.3936L79.9742 34.6849L78.5469 34.5106L78.8385 31.9214" fill="black"/>
</svg>
