<svg width="155" height="35" viewBox="0 0 155 35" fill="none" xmlns="http://www.w3.org/2000/svg">
<g clip-path="url(#clip0_3506_666)">
<path d="M154.354 17.7366C154.354 26.5421 147.207 33.6895 138.402 33.6895C129.596 33.6895 122.449 26.5421 122.449 17.7366C122.449 8.91197 129.596 1.78369 138.402 1.78369C147.207 1.78369 154.354 8.91197 154.354 17.7366Z" fill="#121212"/>
<path fill-rule="evenodd" clip-rule="evenodd" d="M137.449 8.6643C137.348 9.09627 137.087 9.48383 136.667 9.82693C136.261 10.1192 135.861 10.405 135.467 10.6846C135.492 10.799 135.569 10.8879 135.696 10.9514C135.836 11.0022 135.969 11.0595 136.095 11.123C136.757 11.5423 137.087 12.0505 137.087 12.6477C137.087 13.0924 136.934 13.5055 136.629 13.8866C136.389 14.1789 136.032 14.4711 135.563 14.7634C135.181 14.9794 134.8 15.1953 134.419 15.4114C134.329 15.4749 134.228 15.5067 134.114 15.5067C133.86 15.5067 133.681 15.3986 133.58 15.1827C133.593 14.5219 133.605 13.8612 133.618 13.2004C133.631 12.4127 133.675 11.7583 133.751 11.2373C133.586 11.123 133.504 10.9959 133.504 10.8562C133.504 10.7799 133.536 10.7164 133.599 10.6656C133.65 10.602 133.726 10.5385 133.828 10.4749C133.929 9.26785 133.949 8.15604 133.885 7.13949C133.517 7.06324 133.275 6.89807 133.16 6.64396C133.149 6.60584 133.16 6.55503 133.199 6.49148C133.237 6.42797 133.256 6.37711 133.256 6.33899C133.433 6.21194 133.637 6.14844 133.866 6.14844C134.018 6.14844 134.381 6.19925 134.951 6.30087C135.245 6.33899 135.55 6.44702 135.867 6.62493C136.719 7.0569 137.22 7.48259 137.373 7.90187C137.474 8.20685 137.5 8.461 137.449 8.6643ZM135.982 12.743C135.994 12.6541 136 12.5651 136 12.4762C136 12.2474 135.931 12.0378 135.79 11.8472C135.384 11.6567 135.123 11.5613 135.01 11.5613C134.947 11.5613 134.888 11.5741 134.838 11.5995C134.838 11.6757 134.838 11.7583 134.838 11.8472C134.838 12.0251 134.819 12.2856 134.781 12.6286C134.73 12.9717 134.705 13.2259 134.705 13.3911C134.705 13.6451 134.737 13.8802 134.8 14.0963C134.901 13.9819 135.054 13.8612 135.258 13.7341C135.46 13.6197 135.601 13.5118 135.676 13.4101C135.817 13.245 135.918 13.0226 135.982 12.743ZM136.343 8.07344C136.305 7.78117 136.064 7.55883 135.619 7.40634C135.556 7.38091 135.46 7.3301 135.333 7.25386C135.232 7.19036 135.149 7.15858 135.086 7.15858C135.06 7.15858 135.029 7.16493 134.991 7.17762C134.978 7.30472 134.972 7.44446 134.972 7.59695C134.972 7.80024 134.991 8.14968 135.029 8.64521C135.041 9.10267 135.048 9.4584 135.048 9.71257C135.098 9.71257 135.181 9.6681 135.295 9.57916C135.409 9.50292 135.473 9.45846 135.487 9.44571C135.727 9.33135 135.937 9.14714 136.115 8.89298C136.293 8.62618 136.368 8.35298 136.343 8.07344Z" fill="#FEFEFE"/>
<path d="M142.307 7.90207C142.015 8.01643 141.583 8.15617 141.011 8.32141C140.452 8.47384 140.021 8.6073 139.716 8.72166C139.651 8.93765 139.601 9.40145 139.563 10.113C139.69 10.1638 139.836 10.1892 140.002 10.1892C140.128 10.1892 140.318 10.1638 140.572 10.113C140.827 10.0749 141.012 10.0558 141.125 10.0558C141.342 10.0558 141.532 10.1066 141.697 10.2083C141.812 10.3608 141.869 10.4624 141.869 10.5132C141.869 10.5641 141.838 10.6085 141.773 10.6467C141.762 10.6467 141.71 10.7038 141.621 10.8182C141.558 10.8817 141.476 10.9135 141.373 10.9135C141.209 10.9516 140.904 10.9707 140.459 10.9707C140.09 10.9834 139.792 11.0342 139.563 11.1232C139.41 11.7076 139.334 12.1714 139.334 12.5145C139.334 12.7432 139.365 12.9211 139.43 13.0481C139.811 13.315 140.459 13.4294 141.373 13.3913C141.436 13.3913 141.507 13.3595 141.583 13.296C141.646 13.2325 141.703 13.2006 141.754 13.2006C141.971 13.1625 142.117 13.3341 142.193 13.7153C142.219 13.8423 142.199 13.9567 142.136 14.0583C142.059 14.16 141.958 14.2171 141.831 14.2299C140.877 14.268 140.046 14.1917 139.334 14.0012C139.117 13.9503 138.921 13.8296 138.743 13.639C138.552 13.4484 138.445 13.2325 138.419 12.991C138.356 12.3049 138.356 11.6886 138.419 11.1422C138.203 10.9897 138.108 10.8436 138.133 10.7038C138.146 10.6276 138.209 10.5641 138.324 10.5132C138.438 10.4497 138.501 10.3862 138.514 10.3227C138.527 10.2591 138.56 9.88428 138.61 9.19815C138.165 9.10916 137.949 8.94399 137.961 8.70257C137.961 8.47384 138.095 8.28963 138.362 8.14983C138.616 8.04821 138.871 7.94654 139.124 7.84491C139.43 7.69243 139.804 7.55898 140.249 7.44466C140.631 7.3303 141.011 7.22863 141.392 7.1397C141.43 7.127 141.482 7.12061 141.545 7.12061C141.762 7.12061 142.009 7.20325 142.288 7.36842C142.301 7.40654 142.32 7.47005 142.345 7.55898C142.384 7.64796 142.403 7.71146 142.403 7.74958C142.403 7.81313 142.371 7.86395 142.307 7.90207Z" fill="#FEFEFE"/>
<path d="M133.507 25.0169C133.532 25.1693 133.412 25.252 133.145 25.2647C132.979 25.2773 132.802 25.2075 132.611 25.0551C132.471 24.9153 132.357 24.6929 132.268 24.388C132.178 24.1084 132.128 23.7208 132.115 23.2253C132.102 22.6535 132.077 22.2596 132.039 22.0436C131.938 22.3994 131.766 22.9267 131.524 23.6256C131.385 24.0194 131.295 24.2418 131.257 24.2927C131.13 24.5467 130.971 24.6611 130.782 24.6357C130.412 24.5467 130.12 24.3308 129.905 23.9877C129.777 23.7717 129.65 23.4223 129.523 22.9394C129.396 22.4057 129.294 22.05 129.218 21.8721C128.875 23.5239 128.507 24.7564 128.112 25.5696C128.061 25.684 127.897 25.6776 127.617 25.5506C127.389 25.4362 127.273 25.2773 127.273 25.074C127.273 24.9979 127.357 24.7437 127.521 24.3117C127.599 24.1211 127.878 23.2062 128.36 21.5671C128.526 20.9954 128.697 19.9915 128.875 18.5557C128.888 18.5431 128.926 18.4604 128.989 18.3079C129.028 18.1935 129.104 18.1363 129.218 18.1363C129.485 18.1363 129.67 18.1935 129.771 18.3079C129.771 18.5366 129.809 18.9052 129.886 19.4133C129.962 19.9217 130 20.3092 130 20.576C130.063 21.0207 130.126 21.4655 130.191 21.9102C130.279 22.4184 130.437 22.8315 130.667 23.149C131.429 21.0398 131.913 19.3689 132.115 18.1363C132.153 18.0093 132.274 17.9458 132.477 17.9458C132.769 17.9458 132.935 18.0411 132.973 18.2317C133.024 18.524 133.049 18.8543 133.049 19.2228C133.049 19.3499 133.042 19.6103 133.03 20.0043C133.03 20.3346 133.03 20.6014 133.03 20.8047C133.107 22.4819 133.265 23.8861 133.507 25.0169Z" fill="#FEFEFE"/>
<path fill-rule="evenodd" clip-rule="evenodd" d="M138.417 22.2347C137.948 23.2893 137.281 23.9182 136.417 24.1215C136.314 24.1469 136.213 24.1597 136.112 24.1597C135.667 24.1597 135.215 23.9119 134.758 23.4163C134.441 23.086 134.281 22.6539 134.281 22.1203C134.281 21.5358 134.46 20.9068 134.815 20.2334C134.968 19.9539 135.145 19.706 135.349 19.4901C135.603 19.2486 135.838 19.1279 136.054 19.1279C136.181 19.1279 136.302 19.1787 136.417 19.2805C136.531 19.3694 136.829 19.4964 137.312 19.6616C137.693 19.7886 137.96 19.9983 138.112 20.2905C138.392 20.8242 138.532 21.2817 138.532 21.6628C138.532 21.8789 138.494 22.0695 138.417 22.2347ZM137.464 21.5104C137.401 20.9259 137.242 20.5828 136.989 20.4812C136.951 20.4558 136.918 20.443 136.892 20.443C136.791 20.443 136.671 20.5256 136.531 20.6908C136.377 20.8687 136.257 20.9767 136.169 21.0148C136.104 21.0403 136.022 21.0148 135.921 20.9385C135.82 20.8624 135.755 20.8242 135.73 20.8242C135.705 20.8242 135.685 20.837 135.673 20.8624C135.393 21.0911 135.254 21.4595 135.254 21.9678C135.254 22.2982 135.33 22.5841 135.482 22.8255C135.711 23.1558 135.902 23.321 136.054 23.321C136.398 23.321 136.728 23.0986 137.045 22.6539C137.363 22.2473 137.502 21.8661 137.464 21.5104Z" fill="#FEFEFE"/>
<path fill-rule="evenodd" clip-rule="evenodd" d="M144.083 24.8845C144.108 24.9227 144.121 24.9608 144.121 24.9989C144.121 25.1767 143.93 25.3165 143.549 25.4182C143.13 25.0878 142.609 24.5859 141.986 23.9125C141.287 23.1628 140.767 22.6418 140.423 22.3495C140.398 22.5529 140.353 23.0929 140.29 23.9697C140.252 24.6305 140.181 25.1513 140.08 25.5325C140.067 25.5325 140.017 25.5516 139.928 25.5897C139.838 25.6279 139.769 25.6405 139.718 25.6279C139.375 25.5516 139.203 25.3102 139.203 24.9036C139.203 24.7892 139.216 24.6305 139.241 24.4271C139.279 24.1984 139.298 24.0586 139.298 24.0078C139.337 23.5504 139.356 23.004 139.356 22.3687V21.0726C139.356 19.9926 139.419 19.0841 139.546 18.347C139.623 17.8515 140.086 17.6292 140.938 17.6799C141.356 17.6927 141.726 17.9024 142.043 18.309C142.336 18.6902 142.481 19.1031 142.481 19.5478C142.481 19.9163 142.348 20.2912 142.081 20.6723C141.84 21.0027 141.541 21.2632 141.186 21.4538C141.045 21.53 140.976 21.6126 140.976 21.7015C140.976 21.8159 141.059 21.9429 141.224 22.0827C141.35 22.1844 141.478 22.286 141.604 22.3877C141.617 22.4004 142.056 22.7944 142.92 23.5694C143.467 24.0649 143.854 24.5033 144.083 24.8845ZM141.566 19.5669C141.592 19.4144 141.604 19.2873 141.604 19.1857C141.579 19.0205 141.51 18.868 141.396 18.7283C141.28 18.5884 141.097 18.5186 140.843 18.5186C140.652 18.5186 140.531 18.5821 140.481 18.7092C140.442 18.8998 140.423 19.1222 140.423 19.3762C140.423 19.4779 140.436 19.7448 140.462 20.1768C140.475 20.5071 140.475 20.774 140.462 20.9773C141.109 20.4817 141.478 20.0116 141.566 19.5669Z" fill="#FEFEFE"/>
<path d="M147.839 18.8615C147.547 18.9886 147.121 19.1284 146.562 19.2809C145.99 19.446 145.558 19.5857 145.266 19.7001C145.19 19.9034 145.132 20.3609 145.094 21.0724C145.222 21.1233 145.367 21.1487 145.533 21.1487C145.659 21.1487 145.851 21.1296 146.105 21.0915C146.359 21.0533 146.543 21.0343 146.658 21.0343C146.886 21.0343 147.076 21.0788 147.228 21.1677C147.344 21.3329 147.4 21.4409 147.4 21.4918C147.4 21.5425 147.369 21.5806 147.306 21.6061C147.293 21.6188 147.242 21.676 147.152 21.7776C147.089 21.8539 147.007 21.8856 146.904 21.873C146.74 21.9111 146.435 21.9365 145.99 21.9492C145.622 21.9619 145.323 22.0063 145.094 22.0826C144.955 22.6798 144.885 23.1436 144.885 23.4739C144.885 23.7026 144.917 23.8869 144.98 24.0266C145.348 24.2934 145.99 24.4015 146.904 24.3506C146.969 24.3506 147.038 24.3253 147.114 24.2745C147.178 24.2109 147.236 24.1792 147.286 24.1792C147.514 24.1283 147.661 24.2934 147.724 24.6747C147.75 24.8018 147.73 24.9225 147.667 25.0368C147.591 25.1384 147.495 25.1956 147.382 25.2084C146.416 25.2338 145.584 25.1575 144.885 24.9797C144.656 24.9161 144.452 24.7954 144.276 24.6176C144.084 24.4269 143.982 24.2109 143.969 23.9694C143.894 23.2833 143.894 22.6671 143.969 22.1207C143.741 21.9682 143.639 21.8221 143.664 21.6823C143.677 21.6061 143.741 21.5362 143.856 21.4727C143.969 21.4218 144.034 21.3647 144.046 21.3011C144.059 21.2376 144.091 20.8564 144.141 20.1576C143.696 20.0813 143.481 19.9162 143.493 19.662C143.493 19.4333 143.626 19.2554 143.894 19.1283C144.148 19.014 144.402 18.906 144.656 18.8043C144.961 18.6646 145.336 18.5311 145.781 18.4041C146.162 18.3024 146.543 18.2071 146.925 18.1182C146.975 18.1054 147.026 18.0991 147.076 18.0991C147.293 18.0991 147.541 18.1817 147.82 18.3469C147.833 18.385 147.852 18.4422 147.877 18.5185C147.915 18.6074 147.934 18.671 147.934 18.709C147.934 18.7725 147.902 18.8234 147.839 18.8615Z" fill="#FEFEFE"/>
<path d="M149.858 25.0552C149.884 25.157 149.871 25.2649 149.82 25.3792C149.77 25.481 149.713 25.5318 149.648 25.5318C149.585 25.5445 149.535 25.5636 149.497 25.589C149.471 25.6271 149.438 25.6398 149.402 25.6271C148.982 25.4746 148.746 25.2713 148.696 25.0172C148.671 24.9028 148.746 24.7884 148.925 24.674C149.091 24.5597 149.211 24.5088 149.287 24.5216C149.413 24.5343 149.535 24.5851 149.648 24.674C149.776 24.7758 149.846 24.9028 149.858 25.0552ZM151.021 17.7935C150.97 18.3527 150.767 19.3501 150.411 20.7859C150.106 22.0439 149.966 23.073 149.991 23.8736C149.991 23.9371 149.947 24.0007 149.858 24.0641C149.782 24.1278 149.707 24.1531 149.63 24.1404C149.223 24.0515 149.007 23.8482 148.982 23.5305C148.982 23.3653 148.982 23.2002 148.982 23.0349C148.982 22.298 149.095 21.3895 149.325 20.3095C149.694 18.7211 149.89 17.819 149.916 17.603C149.941 17.5013 150.005 17.4314 150.106 17.3933C150.208 17.3552 150.302 17.3552 150.392 17.3933C150.532 17.4314 150.672 17.4695 150.811 17.5077C150.952 17.5712 151.021 17.6665 151.021 17.7935Z" fill="#FEFEFE"/>
<path d="M96.1551 21.9449C96.3649 22.1926 96.3649 22.5739 96.1551 22.8216L92.4576 27.1291L89.5605 30.5026C89.1411 30.9601 88.3787 30.6742 88.3787 30.0643V22.3832V14.7023C88.3787 14.0923 89.1411 13.8064 89.5605 14.2639L92.4576 17.6374L96.1551 21.9449Z" fill="#121212"/>
<path d="M51.2163 28.6332C51.5405 28.9762 51.5217 29.5099 51.1787 29.8339L50.9496 30.0436C49.3487 31.473 47.3474 32.3115 44.3932 32.3115C43.4975 32.3115 42.6397 32.1973 41.8393 32.0067C39.7808 31.473 38.0464 30.3295 36.8075 28.7856C35.7211 27.4323 35.0159 25.7932 34.7872 23.9826C34.7364 23.5633 34.7109 23.1376 34.7109 22.7056C34.7109 22.2736 34.7364 21.8479 34.7872 21.4286C35.0159 19.618 35.7211 17.9598 36.8075 16.6256C38.0464 15.0626 39.7808 13.9191 41.8393 13.4045C42.6397 13.1948 43.4975 13.0806 44.3932 13.0806C47.3474 13.0806 49.3487 13.9382 50.9496 15.3677L51.1787 15.5773C51.5217 15.9013 51.5405 16.4349 51.2163 16.778L49.9587 18.1313L49.1582 19.008C49.1454 19.0207 49.1327 19.0335 49.12 19.0461C48.8151 19.332 48.3385 19.3512 48.0145 19.0842C47.9891 19.0716 47.9701 19.0653 47.9573 19.0653L47.8049 18.9127C46.852 18.0931 45.8227 17.5976 44.3551 17.5976C42.5825 17.5976 41.1722 18.665 40.4288 20.1897C40.0667 20.914 39.8761 21.7526 39.8761 22.6483V22.7056V22.7627C39.8761 23.6395 40.0667 24.4781 40.4288 25.2215C41.1722 26.7462 42.5825 27.7945 44.3551 27.7945C45.8227 27.7945 46.852 27.299 47.8049 26.4984L47.9573 26.346C47.9701 26.3333 47.9891 26.3205 48.0145 26.3079C48.3385 26.041 48.8151 26.06 49.12 26.365C49.1327 26.3777 49.1454 26.384 49.1582 26.384L49.9587 27.2799L51.2163 28.6332Z" fill="#121212"/>
<path fill-rule="evenodd" clip-rule="evenodd" d="M13.625 22.7638V22.7066C13.625 17.4843 17.8372 13.2339 23.4979 13.2339C29.1396 13.2339 33.3136 17.408 33.3136 22.6303V22.7066C33.3136 27.9288 29.1014 32.1791 23.4407 32.1791C17.7991 32.1791 13.625 28.0051 13.625 22.7638ZM28.2247 22.7638V22.7066C28.2247 20.0191 26.2806 17.6748 23.4407 17.6748C20.4865 17.6748 18.7139 19.9619 18.7139 22.6303V22.7066C18.7139 25.3749 20.658 27.7192 23.4979 27.7192C26.4522 27.7192 28.2247 25.451 28.2247 22.7638Z" fill="#121212"/>
<path d="M69.8152 14.0145V15.2342V24.8593C69.8152 27.0893 68.5001 29.7385 65.9461 31.149C64.631 31.8733 63.0873 32.3115 61.4097 32.3115C59.7327 32.3115 58.1884 31.8733 56.8738 31.1299C54.3198 29.7385 53.0234 27.0893 53.0234 24.8593V15.2342V14.0145C53.0234 13.4998 53.4241 13.0806 53.9386 13.0806H57.255C57.7502 13.0806 58.1696 13.4998 58.1696 14.0145V15.2342V23.2393C58.1696 25.0119 58.7793 26.2316 59.866 26.7843L59.9424 26.8224C60.3806 27.0131 60.8763 27.1274 61.4097 27.1274C61.9437 27.1274 62.4388 27.0131 62.8776 26.8224L62.9533 26.7843H62.9728C64.04 26.2316 64.6498 25.0119 64.6498 23.2393V15.2342V14.0145C64.6498 13.4998 65.0691 13.0806 65.5648 13.0806H68.8813C69.3959 13.0806 69.8152 13.4998 69.8152 14.0145Z" fill="#121212"/>
<path d="M115.369 13.9114V15.1313V24.7564C115.369 26.9863 114.074 29.6356 111.52 31.0461C110.204 31.7704 108.661 32.2086 106.983 32.2086C105.306 32.2086 103.762 31.7704 102.447 31.027C99.8934 29.6356 98.5781 26.9863 98.5781 24.7564V15.1313V13.9114C98.5781 13.3969 98.9975 12.9775 99.512 12.9775H102.829C103.324 12.9775 103.743 13.3969 103.743 13.9114V15.1313V23.1364C103.743 24.9089 104.353 26.1287 105.44 26.6814L105.516 26.7195C105.954 26.9102 106.45 27.0245 106.983 27.0245C107.517 27.0245 108.013 26.9102 108.451 26.7195L108.527 26.6814C109.614 26.1287 110.223 24.9089 110.223 23.1364V15.1313V13.9114C110.223 13.3969 110.624 12.9775 111.138 12.9775H114.455C114.969 12.9775 115.369 13.3969 115.369 13.9114Z" fill="#121212"/>
<path d="M85.9795 26.2323V26.2894C85.9795 27.5474 85.6934 28.5957 85.1789 29.4533C84.0164 31.3974 81.6528 32.3122 78.8514 32.3122C76.5261 32.3122 73.9532 31.6261 71.6659 30.0823C71.5643 30.0188 71.4626 29.9489 71.3611 29.8727C70.9416 29.5486 71.0938 29.1484 71.1895 28.9577L72.7138 26.6326C72.9429 26.3466 73.3429 26.2512 73.6672 26.4228C73.68 26.4228 73.6924 26.4293 73.7053 26.4419L73.8769 26.5372C75.6684 27.6618 77.46 28.2526 78.9848 28.2526C80.5096 28.2526 81.2146 27.6807 81.2146 26.8612V26.785C81.2146 26.7596 81.2082 26.7342 81.1958 26.7087C81.1575 26.0988 80.5667 25.6987 79.7091 25.3745C79.0417 25.1077 78.2224 24.8981 77.3454 24.6313C77.2696 24.6058 77.1868 24.5804 77.0976 24.555C75.0011 23.9261 72.7714 22.954 72.0278 20.6859C71.8756 20.1904 71.7804 19.6566 71.7804 19.0277V18.9515C71.7804 15.1586 74.8489 13.043 78.6036 13.043C80.6812 13.043 82.9297 13.6719 84.8171 14.7393C84.9057 14.7902 84.995 14.8409 85.0838 14.8918C85.3122 15.0824 85.3886 15.3873 85.2934 15.6732C85.2805 15.7113 85.2617 15.7494 85.2364 15.7876L84.4359 17.2171L84.1692 17.7126L83.9213 18.151C83.9213 18.1637 83.9148 18.1764 83.9019 18.1891C83.6922 18.4941 83.2921 18.6274 82.9492 18.475C82.9239 18.475 82.9045 18.4687 82.8921 18.4559L82.3394 18.2082C82.3265 18.1954 82.3077 18.1891 82.2818 18.1891C80.891 17.503 79.5376 17.1027 78.4891 17.1027C77.2121 17.1027 76.5448 17.6746 76.5448 18.3987V18.475C76.5448 18.8753 76.8309 19.1993 77.2885 19.4852C77.9938 19.9236 79.1181 20.2665 80.3381 20.6859C82.4346 21.3911 84.7788 22.325 85.6365 24.4216C85.8462 24.9361 85.9795 25.5461 85.9795 26.2323Z" fill="#121212"/>
<path d="M15.2476 2.78936C14.8664 3.47549 14.4852 4.1426 14.1804 4.84775C13.8372 5.59111 13.3989 5.7245 12.7128 5.30522C12.0076 4.88588 11.2261 4.58096 10.4065 4.63812C9.20578 4.69533 8.27188 5.55299 8.02406 6.84906C7.87163 7.68769 7.83351 8.52631 7.83351 9.38396V13.2149H12.6365C13.1701 13.2149 13.6085 13.6533 13.6085 14.206V16.4932C13.6085 17.0269 13.1701 17.4653 12.6365 17.4653H7.89067V31.3979C7.89067 31.8933 7.47138 32.3127 6.9758 32.3127H3.65944C3.14483 32.3127 2.72554 31.8933 2.72554 31.3979V17.4653H0.972037C0.438371 17.4653 0 17.0269 0 16.4932V14.206C0 13.6533 0.438371 13.2149 0.972037 13.2149H2.72554V11.1565V9.38396C2.72554 8.10697 2.80179 6.84906 3.10671 5.6102C4.11689 1.398 8.32904 -0.927261 12.6174 0.349733C13.418 0.597496 14.1994 0.921503 14.9046 1.41703C15.4192 1.76013 15.5717 2.1985 15.2476 2.78936Z" fill="#121212"/>
</g>
<defs>
<clipPath id="clip0_3506_666">
<rect width="154.915" height="34.5579" fill="white"/>
</clipPath>
</defs>
</svg>
