<svg width="357" height="41" viewBox="0 0 357 41" fill="none" xmlns="http://www.w3.org/2000/svg">
<path d="M36.0455 0.639278L35.9852 41.6082H26.108L26.1332 24.5123H10.7258L10.7006 41.6114H0.867726L0.928075 0.639278H10.761L10.7376 16.5142H26.145L26.1683 0.639278H36.0455ZM77.9776 0.639278L63.8461 27.9869L63.826 41.589H53.9394L53.9594 27.9869L39.9116 0.639278H51.1808L58.9738 17.3335L66.8223 0.639278H77.9776ZM106.106 20.5117C108.405 20.995 110.467 22.2655 111.941 24.1075C113.367 25.8952 114.127 28.1303 114.089 30.4256C114.166 31.9729 113.892 33.5182 113.287 34.9435C112.682 36.3688 111.761 37.6365 110.597 38.6499C107.723 40.7964 104.187 41.8448 100.62 41.6082H81.7106L81.7709 0.639278H100.228C103.643 0.422087 107.028 1.38216 109.826 3.36161C110.962 4.29302 111.862 5.48261 112.453 6.83293C113.044 8.18325 113.308 9.65587 113.225 11.1301C113.303 13.3524 112.609 15.5335 111.264 17.2984C109.972 18.9314 108.161 20.0663 106.137 20.5117H106.106ZM91.557 17.3845H97.9984C101.409 17.3845 103.116 15.9171 103.121 12.9822C103.125 10.0474 101.39 8.57995 97.9164 8.57995H91.589L91.557 17.3845ZM98.5472 33.5496C102.188 33.5496 104.01 32.0439 104.014 29.0325C104.049 28.3863 103.938 27.7408 103.69 27.1442C103.442 26.5476 103.064 26.0152 102.583 25.5866C101.419 24.6872 99.9692 24.2444 98.5038 24.3402H91.5436L91.53 33.5527L98.5472 33.5496ZM140.116 41.6082L131.363 26.1412H129.113L129.091 41.6114H119.255L119.315 0.639278H136.105C138.918 0.553074 141.712 1.12825 144.265 2.31922C146.356 3.31663 148.099 4.92633 149.266 6.93826C150.399 8.9811 150.971 11.2916 150.924 13.6325C150.994 16.3661 150.128 19.0419 148.47 21.2098C146.649 23.4028 144.142 24.907 141.361 25.475L150.996 41.5763L140.116 41.6082ZM129.12 19.3609H135.207C136.757 19.4924 138.298 19.0264 139.521 18.0571C140.007 17.5486 140.381 16.9429 140.62 16.2795C140.859 15.6161 140.956 14.9098 140.906 14.2063C140.945 13.5047 140.84 12.8028 140.597 12.1445C140.354 11.4863 139.979 10.8859 139.495 10.381C138.308 9.36764 136.771 8.86811 135.219 8.99117H129.136L129.12 19.3609ZM165.703 8.52257L165.69 17.0976H179.433L179.422 24.5474H165.682L165.669 33.6452H181.136L181.125 41.5954H155.815L155.875 0.639278H181.185L181.173 8.51938L165.703 8.52257ZM196.581 8.52257L196.568 17.0976H210.311L210.3 24.5474H196.56L196.547 33.6452H212.014L212.003 41.5954H186.693L186.753 0.639278H212.063L212.051 8.51938L196.581 8.52257ZM254.177 21.0408C254.242 24.7648 253.355 28.4444 251.602 31.7262C249.904 34.8236 247.341 37.3519 244.232 38.9974C240.738 40.8042 236.851 41.6996 232.928 41.6018H217.583L217.644 0.639278H232.997C236.925 0.537049 240.815 1.41302 244.323 3.18947C247.414 4.80318 249.961 7.3032 251.643 10.3746C253.386 13.649 254.259 17.3234 254.177 21.0408ZM232.086 32.7399C235.352 32.9416 238.566 31.8374 241.032 29.6669C242.133 28.533 242.988 27.1799 243.54 25.6943C244.093 24.2088 244.331 22.6237 244.24 21.0408C244.337 19.4577 244.104 17.8722 243.556 16.386C243.009 14.8999 242.159 13.5461 241.06 12.4116C238.6 10.2434 235.389 9.14149 232.124 9.34501H227.47L227.436 32.7526L232.086 32.7399ZM268.199 31.6975L268.184 41.6114H258.006L258.021 31.6943L268.199 31.6975ZM291.929 0.237622C296.557 0.0584218 301.1 1.51282 304.774 4.34981C308.203 7.15447 310.531 11.0957 311.344 15.4719H300.936C300.235 13.6578 299.004 12.1016 297.405 11.009C295.727 9.8988 293.753 9.33059 291.745 9.38007C290.419 9.33677 289.102 9.60184 287.894 10.1547C286.686 10.7075 285.62 11.5333 284.78 12.5678C282.912 14.9958 281.968 18.0164 282.119 21.0823C281.956 24.1397 282.891 27.1524 284.755 29.5681C285.597 30.5953 286.661 31.4142 287.867 31.9618C289.073 32.5094 290.388 32.7712 291.71 32.7271C293.718 32.7766 295.694 32.2084 297.376 31.0982C298.966 30.0197 300.2 28.4864 300.919 26.6959H311.328C310.486 31.0573 308.15 34.984 304.728 37.7893C301.054 40.6446 296.504 42.1113 291.871 41.9333C288.229 42.0125 284.635 41.1019 281.466 39.2971C278.499 37.5616 276.096 34.9961 274.548 31.9111C272.88 28.551 272.047 24.8315 272.122 21.0727C272.058 17.3139 272.902 13.5945 274.58 10.2344C276.138 7.15172 278.548 4.58852 281.519 2.85476C284.695 1.05718 288.29 0.153174 291.929 0.237622ZM336.199 0.00172888C339.855 -0.0457061 343.456 0.883724 346.636 2.69537C349.727 4.45883 352.279 7.04175 354.015 10.1643C355.84 13.4616 356.766 17.1873 356.701 20.9643C356.754 24.757 355.806 28.4972 353.955 31.8027C352.203 34.9367 349.636 37.5311 346.531 39.3066C343.351 41.0734 339.779 42 336.15 42C332.521 42 328.952 41.0734 325.777 39.3066C322.677 37.5311 320.118 34.9367 318.375 31.8027C316.534 28.4972 315.597 24.757 315.661 20.9643C315.607 17.1837 316.555 13.4556 318.407 10.1643C320.17 7.04521 322.739 4.46507 325.84 2.69856C328.998 0.895134 332.572 -0.035278 336.199 0.00172888ZM336.186 9.21431C334.756 9.14768 333.328 9.39577 332.001 9.94132C330.675 10.4869 329.482 11.3168 328.506 12.3734C326.501 14.7727 325.478 17.8507 325.646 20.9803C325.479 24.0987 326.492 27.1631 328.481 29.5553C330.512 31.5983 333.265 32.7455 336.137 32.7455C339.009 32.7455 341.765 31.5983 343.803 29.5553C345.814 27.1707 346.847 24.1035 346.691 20.9803C346.858 17.8618 345.845 14.7975 343.856 12.4052C342.888 11.3407 341.699 10.5035 340.374 9.95277C339.048 9.40199 337.619 9.151 336.186 9.2175L336.186 9.21431Z" fill="white"/>
</svg>
