<svg width="101" height="55" viewBox="0 0 101 55" fill="none" xmlns="http://www.w3.org/2000/svg">
<g clip-path="url(#clip0_3506_672)">
<path d="M7.36575 12.6622H9.47025V16.6849C8.37752 17.5095 6.85983 17.9519 5.44336 17.9519C2.30685 17.9519 0 15.8099 0 12.8232C0 9.83635 2.30685 7.69434 5.48382 7.69434C7.23423 7.69434 8.69116 8.28764 9.65232 9.40393L8.17514 10.7716C7.44666 10.0073 6.6069 9.64529 5.59513 9.64529C3.65251 9.64529 2.32709 10.9426 2.32709 12.8232C2.32709 14.6735 3.65252 15.991 5.56478 15.991C6.19211 15.991 6.77893 15.8803 7.36575 15.5686V12.6622Z" fill="black"/>
<path fill-rule="evenodd" clip-rule="evenodd" d="M17.5962 17.78L15.6738 15.0145H13.549V17.78H11.2422V7.86426H15.5625C18.2234 7.86426 19.8929 9.24204 19.8929 11.4645C19.8929 12.9529 19.134 14.039 17.839 14.5921L20.075 17.78H17.5962ZM15.4309 9.73479H13.549V13.1942H15.4309C16.8474 13.1942 17.5557 12.5405 17.5557 11.4645C17.5557 10.3684 16.8474 9.73479 15.4309 9.73479Z" fill="black"/>
<path d="M29.4308 15.9396V17.78H21.7109V7.86426H29.2487V9.70462H24.0077V11.8567H28.6416V13.6468H24.0077V15.9396H29.4308Z" fill="black"/>
<path fill-rule="evenodd" clip-rule="evenodd" d="M38.1238 15.6581H33.4898L32.6095 17.78H30.242L34.6837 7.86426H36.9703L41.4323 17.78H39.004L38.1238 15.6581ZM37.3953 13.9183L35.8169 10.1169L34.2385 13.9183H37.3953Z" fill="black"/>
<path d="M43.4448 9.73479H40.2577V7.86426H48.9489V9.73479H45.7516V17.78H43.4448V9.73479Z" fill="black"/>
<path d="M9.12623 30.6032L9.11613 24.6497L6.18198 29.5573H5.13983L2.21579 24.7805V30.6032H0.0505981V20.6875H1.96285L5.69632 26.8521L9.36906 20.6875H11.2712L11.2914 30.6032H9.12623Z" fill="black"/>
<path fill-rule="evenodd" clip-rule="evenodd" d="M19.952 28.4813H15.3181L14.4378 30.6032H12.0703L16.512 20.6875H18.7986L23.2504 30.6032H20.8323L19.952 28.4813ZM19.2236 26.7415L17.6452 22.9402L16.0567 26.7415H19.2236Z" fill="black"/>
<path d="M33.1426 20.6875V30.6032H31.2505L26.2726 24.5794V30.6032H23.9961V20.6875H25.9083L30.866 26.7113V20.6875H33.1426Z" fill="black"/>
<path fill-rule="evenodd" clip-rule="evenodd" d="M41.7997 28.4813H37.1759L36.2855 30.6032H33.918L38.3698 20.6875H40.6463L45.1082 30.6032H42.69L41.7997 28.4813ZM41.0712 26.7415L39.4827 22.9402L37.9044 26.7415H41.0712Z" fill="black"/>
<path d="M51.993 25.4921H54.0974V29.5147C53.0049 30.3293 51.4872 30.7718 50.0606 30.7718C46.9342 30.7718 44.6172 28.6298 44.6172 25.643C44.6172 22.6562 46.9342 20.5142 50.1112 20.5142C51.8615 20.5142 53.3185 21.1075 54.2795 22.2338L52.8025 23.5914C52.074 22.8272 51.2342 22.4651 50.2224 22.4651C48.2798 22.4651 46.9544 23.7624 46.9544 25.643C46.9544 27.5034 48.2798 28.8108 50.1921 28.8108C50.8194 28.8108 51.4062 28.7001 51.993 28.3884V25.4921Z" fill="black"/>
<path d="M63.5906 28.7629V30.6032H55.8711V20.6875H63.4085V22.5278H58.1678V24.6799H62.7912V26.47H58.1678V28.7629H63.5906Z" fill="black"/>
<path fill-rule="evenodd" clip-rule="evenodd" d="M71.8461 30.6032L69.9238 27.8377H67.7991V30.6032H65.4922V20.6875H69.8126C72.4735 20.6875 74.1433 22.0652 74.1433 24.2877C74.1433 25.7761 73.3944 26.8622 72.0889 27.4153L74.3254 30.6032H71.8461ZM69.681 22.558H67.8093V26.0174H69.681C71.0977 26.0174 71.8058 25.3638 71.8058 24.2877C71.8058 23.1916 71.0977 22.558 69.681 22.558Z" fill="black"/>
<path d="M0.0505981 33.5112H2.35744V43.4269H0.0505981V33.5112Z" fill="black"/>
<path d="M13.4863 33.5112V43.4269H11.5943L6.62645 37.4031V43.4269H4.33984V33.5112H6.25211L11.2098 39.5351V33.5112H13.4863Z" fill="black"/>
<path d="M15.1367 42.4486L15.9259 40.7189C16.7657 41.3323 18.0203 41.7547 19.2142 41.7547C20.5801 41.7547 21.1365 41.3022 21.1365 40.6887C21.1365 38.8383 15.3391 40.1054 15.3391 36.4248C15.3391 34.7454 16.705 33.3374 19.5481 33.3374C20.8027 33.3374 22.0775 33.6391 23.0084 34.2123L22.29 35.9622C21.3693 35.4393 20.4081 35.1778 19.5279 35.1778C18.1619 35.1778 17.6358 35.6907 17.6358 36.3141C17.6358 38.1445 23.4333 36.8773 23.4333 40.5178C23.4333 42.1771 22.0472 43.5951 19.2041 43.5951C17.6156 43.5951 16.0271 43.1224 15.1367 42.4486Z" fill="black"/>
<path d="M27.1659 35.3818H23.9688V33.5112H32.6599V35.3818H29.4728V43.4269H27.1659V35.3818Z" fill="black"/>
<path d="M33.793 33.5112H36.11V43.4269H33.793V33.5112Z" fill="black"/>
<path d="M40.4121 35.3818H37.2148V33.5112H45.9162V35.3818H42.7189V43.4269H40.4121V35.3818Z" fill="black"/>
<path d="M47.0078 39.0624V33.5112H49.3146V38.982C49.3146 40.8625 50.1342 41.647 51.5406 41.647C52.9469 41.647 53.7565 40.8625 53.7565 38.982V33.5112H56.043V39.0624C56.043 41.9788 54.3534 43.5979 51.5203 43.5979C48.6874 43.5979 47.0078 41.9788 47.0078 39.0624Z" fill="black"/>
<path d="M60.3338 35.3818H57.1367V33.5112H65.8383V35.3818H62.6407V43.4269H60.3338V35.3818Z" fill="black"/>
<path d="M74.6883 41.5866V43.4269H66.9688V33.5112H74.5061V35.3516H69.2654V37.5036H73.8894V39.2937H69.2654V41.5866H74.6883Z" fill="black"/>
<path fill-rule="evenodd" clip-rule="evenodd" d="M0.0585938 51.0168C0.0585938 49.7295 1.05013 48.7642 2.41603 48.7642C3.75158 48.7642 4.75324 49.7195 4.75324 51.0168C4.75324 52.304 3.75158 53.2594 2.41603 53.2594C1.05013 53.2594 0.0585938 52.304 0.0585938 51.0168ZM4.12594 51.0168C4.12594 50.0413 3.38734 49.3273 2.41603 49.3273C1.41437 49.3273 0.685892 50.0413 0.685892 51.0168C0.685892 51.9822 1.41437 52.7063 2.41603 52.7063C3.38734 52.7063 4.12594 51.9822 4.12594 51.0168Z" fill="#898989"/>
<path d="M8.78173 49.8818V53.2106H8.20501V52.7077C7.96218 53.0597 7.53723 53.2508 7.07182 53.2508C6.20172 53.2508 5.625 52.7781 5.625 51.8027V49.8818H6.23207V51.7322C6.23207 52.3859 6.56597 52.7077 7.14263 52.7077C7.76996 52.7077 8.17466 52.3256 8.17466 51.6015V49.8818H8.78173Z" fill="#898989"/>
<path d="M11.7658 49.8472V50.4304C11.7152 50.4304 11.6647 50.4304 11.6241 50.4304C10.9766 50.4304 10.5719 50.8226 10.5719 51.5467V53.206H9.96484V49.8773H10.5416V50.4405C10.754 50.0483 11.179 49.8472 11.7658 49.8472Z" fill="#898989"/>
<path fill-rule="evenodd" clip-rule="evenodd" d="M17.7689 51.5467C17.7689 52.5624 17.0606 53.2463 16.0792 53.2463C15.6036 53.2463 15.1889 53.0653 14.9157 52.7032V54.4231H14.3086V49.8773H14.8853V50.4103C15.1585 50.0382 15.5834 49.8472 16.0792 49.8472C17.0606 49.8472 17.7689 50.531 17.7689 51.5467ZM17.1618 51.5467C17.1618 50.8428 16.6761 50.3801 16.0286 50.3801C15.3912 50.3801 14.9055 50.8428 14.9055 51.5467C14.9055 52.2507 15.3912 52.7133 16.0286 52.7133C16.6761 52.7133 17.1618 52.2507 17.1618 51.5467Z" fill="#898989"/>
<path fill-rule="evenodd" clip-rule="evenodd" d="M21.2577 51.1947V53.206H20.6809V52.7636C20.4786 53.0653 20.1043 53.2463 19.5883 53.2463C18.8294 53.2463 18.3438 52.844 18.3438 52.2607C18.3438 51.7277 18.6979 51.2953 19.6894 51.2953H20.6506V51.1746C20.6506 50.6618 20.3572 50.3701 19.7501 50.3701C19.3555 50.3701 18.9508 50.5109 18.6979 50.7321L18.4449 50.2796C18.789 49.998 19.2847 49.8472 19.8209 49.8472C20.7416 49.8472 21.2577 50.2896 21.2577 51.1947ZM20.6506 52.1903V51.7277H19.7198C19.1127 51.7277 18.9508 51.959 18.9508 52.2406C18.9508 52.5725 19.224 52.7836 19.6894 52.7836C20.1447 52.7836 20.4989 52.5725 20.6506 52.1903Z" fill="#898989"/>
<path d="M24.2934 53.0204C24.1112 53.1713 23.828 53.2517 23.5548 53.2517C22.887 53.2517 22.4924 52.8796 22.4924 52.2059V50.3856H21.9258V49.8828H22.4924V49.1587H23.0995V49.8828H24.0606V50.3856H23.0995V52.1857C23.0995 52.5377 23.2917 52.7388 23.6256 52.7388C23.8077 52.7388 23.9797 52.6886 24.1011 52.588L24.2934 53.0204Z" fill="#898989"/>
<path d="M28.2278 51.2972V53.2079H27.6207V51.3676C27.6207 50.7139 27.2868 50.3921 26.7101 50.3921C26.0727 50.3921 25.6579 50.7742 25.6579 51.4983V53.2079H25.0508V48.5518H25.6579V50.3519C25.9108 50.0301 26.3256 49.8491 26.8315 49.8491C27.651 49.8491 28.2278 50.3117 28.2278 51.2972Z" fill="#898989"/>
<path d="M34.3787 49.8818L33.1241 53.2106H32.5474L31.5761 50.6864L30.5947 53.2106H30.0179L28.7734 49.8818H29.3502L30.3215 52.5368L31.3333 49.8818H31.8392L32.8307 52.5468L33.8324 49.8818H34.3787Z" fill="#898989"/>
<path fill-rule="evenodd" clip-rule="evenodd" d="M37.5662 51.1947V53.206H36.9896V52.7636C36.7872 53.0653 36.4129 53.2463 35.8867 53.2463C35.1279 53.2463 34.6523 52.844 34.6523 52.2607C34.6523 51.7277 34.9963 51.2953 35.998 51.2953H36.9592V51.1746C36.9592 50.6618 36.6557 50.3701 36.0587 50.3701C35.6641 50.3701 35.2594 50.5109 34.9963 50.7321L34.7434 50.2796C35.0874 49.998 35.5933 49.8472 36.1295 49.8472C37.0401 49.8472 37.5662 50.2896 37.5662 51.1947ZM36.9592 52.1903V51.7277H36.0183C35.4213 51.7277 35.2493 51.959 35.2493 52.2406C35.2493 52.5725 35.5326 52.7836 35.9879 52.7836C36.4432 52.7836 36.8075 52.5725 36.9592 52.1903Z" fill="#898989"/>
<path d="M41.6165 49.8818L39.9875 53.5423C39.6941 54.2466 39.3096 54.4677 38.7936 54.4677C38.4699 54.4677 38.1461 54.3571 37.9336 54.1558L38.1967 53.7035C38.3585 53.8643 38.571 53.9545 38.7936 53.9545C39.087 53.9545 39.2692 53.8242 39.431 53.4419L39.5423 53.2005L38.0652 49.8818H38.6924L39.8661 52.5468L41.0195 49.8818H41.6165Z" fill="#898989"/>
<path d="M41.7344 52.8541L41.9873 52.3814C42.2706 52.5825 42.7259 52.7233 43.1609 52.7233C43.7276 52.7233 43.9603 52.5524 43.9603 52.2708C43.9603 51.5266 41.8456 52.1702 41.8456 50.8428C41.8456 50.2494 42.3819 49.8472 43.2419 49.8472C43.677 49.8472 44.1727 49.9578 44.4561 50.1489L44.2031 50.6316C43.8995 50.4304 43.5656 50.3601 43.2318 50.3601C42.7056 50.3601 42.4426 50.5612 42.4426 50.8226C42.4426 51.6071 44.5673 50.9635 44.5673 52.2607C44.5673 52.8641 44.0109 53.2463 43.1205 53.2463C42.564 53.2463 42.0177 53.0753 41.7344 52.8541Z" fill="#898989"/>
<path d="M45.0662 52.8172C45.0662 52.5658 45.2686 52.3848 45.5013 52.3848C45.7239 52.3848 45.9161 52.5658 45.9161 52.8172C45.9161 53.0686 45.7239 53.2497 45.5013 53.2497C45.2686 53.2497 45.0662 53.0686 45.0662 52.8172Z" fill="#898989"/>
<path d="M50.3152 51.6906V53.2092H49.6879V51.6805L47.9375 48.8145H48.6154L50.0218 51.1274L51.4484 48.8145H52.0757L50.3152 51.6906Z" fill="#898989"/>
<path fill-rule="evenodd" clip-rule="evenodd" d="M51.9648 51.5467C51.9648 50.5511 52.7034 49.8472 53.7051 49.8472C54.7068 49.8472 55.4353 50.5511 55.4353 51.5467C55.4353 52.5322 54.7068 53.2463 53.7051 53.2463C52.7034 53.2463 51.9648 52.5322 51.9648 51.5467ZM54.8282 51.5467C54.8282 50.8327 54.3426 50.3801 53.7051 50.3801C53.0575 50.3801 52.5719 50.8327 52.5719 51.5467C52.5719 52.2507 53.0575 52.7133 53.7051 52.7133C54.3426 52.7133 54.8282 52.2507 54.8282 51.5467Z" fill="#898989"/>
<path d="M59.42 49.8818V53.2106H58.8532V52.7077C58.6007 53.0597 58.1855 53.2508 57.71 53.2508C56.8504 53.2508 56.2734 52.7781 56.2734 51.8027V49.8818H56.8805V51.7322C56.8805 52.3859 57.2045 52.7077 57.7809 52.7077C58.4186 52.7077 58.8232 52.3256 58.8232 51.6015V49.8818H59.42Z" fill="#898989"/>
<path d="M62.4063 49.8472V50.4304C62.3558 50.4304 62.315 50.4304 62.2645 50.4304C61.6171 50.4304 61.2125 50.8226 61.2125 51.5467V53.206H60.6055V49.8773H61.1921V50.4405C61.4043 50.0483 61.8196 49.8472 62.4063 49.8472Z" fill="#898989"/>
<path fill-rule="evenodd" clip-rule="evenodd" d="M68.4153 51.5467C68.4153 52.5624 67.697 53.2463 66.7257 53.2463C66.2503 53.2463 65.8355 53.0653 65.5524 52.7032V54.4231H64.9453V49.8773H65.532V50.4103C65.8049 50.0382 66.2298 49.8472 66.7257 49.8472C67.697 49.8472 68.4153 50.531 68.4153 51.5467ZM67.7986 51.5467C67.7986 50.8428 67.3129 50.3801 66.6752 50.3801C66.038 50.3801 65.5524 50.8428 65.5524 51.5467C65.5524 52.2507 66.038 52.7133 66.6752 52.7133C67.3129 52.7133 67.7986 52.2507 67.7986 51.5467Z" fill="#898989"/>
<path fill-rule="evenodd" clip-rule="evenodd" d="M68.9727 51.5467C68.9727 50.5511 69.7114 49.8472 70.7128 49.8472C71.7249 49.8472 72.4534 50.5511 72.4534 51.5467C72.4534 52.5322 71.7249 53.2463 70.7128 53.2463C69.7114 53.2463 68.9727 52.5322 68.9727 51.5467ZM71.8361 51.5467C71.8361 50.8327 71.3607 50.3801 70.7128 50.3801C70.0756 50.3801 69.5899 50.8327 69.5899 51.5467C69.5899 52.2507 70.0756 52.7133 70.7128 52.7133C71.3607 52.7133 71.8361 52.2507 71.8361 51.5467Z" fill="#898989"/>
<path d="M75.2074 53.0204C75.0151 53.1713 74.7422 53.2517 74.4687 53.2517C73.7908 53.2517 73.4066 52.8796 73.4066 52.2059V50.3856H72.8398V49.8828H73.4066V49.1587H74.0137V49.8828H74.9748V50.3856H74.0137V52.1857C74.0137 52.5377 74.206 52.7388 74.5397 52.7388C74.7116 52.7388 74.8835 52.6886 75.0151 52.588L75.2074 53.0204Z" fill="#898989"/>
<path fill-rule="evenodd" clip-rule="evenodd" d="M78.8581 51.7478H76.1461C76.2171 52.3311 76.6925 52.7133 77.3506 52.7133C77.7449 52.7133 78.0791 52.5825 78.3214 52.321L78.6556 52.7032C78.352 53.0552 77.8964 53.2463 77.3404 53.2463C76.2579 53.2463 75.5391 52.5322 75.5391 51.5467C75.5391 50.5612 76.2477 49.8472 77.219 49.8472C78.1801 49.8472 78.8678 50.5411 78.8678 51.5668C78.8678 51.6171 78.8678 51.6875 78.8581 51.7478ZM76.1461 51.3154H78.2913C78.2306 50.7523 77.8057 50.3601 77.219 50.3601C76.6318 50.3601 76.2068 50.7422 76.1461 51.3154Z" fill="#898989"/>
<path d="M82.9155 51.2953V53.206H82.3084V51.3657C82.3084 50.712 81.9743 50.3902 81.408 50.3902C80.7606 50.3902 80.3454 50.7723 80.3454 51.4964V53.206H79.7383V49.8773H80.3153V50.3801C80.5683 50.0483 80.9933 49.8472 81.5294 49.8472C82.3385 49.8472 82.9155 50.3098 82.9155 51.2953Z" fill="#898989"/>
<path d="M85.953 53.0204C85.7709 53.1713 85.4878 53.2517 85.2148 53.2517C84.5368 53.2517 84.1522 52.8796 84.1522 52.2059V50.3856H83.5859V49.8828H84.1522V49.1587H84.7593V49.8828H85.7204V50.3856H84.7593V52.1857C84.7593 52.5377 84.9516 52.7388 85.2852 52.7388C85.4673 52.7388 85.6296 52.6886 85.7612 52.588L85.953 53.0204Z" fill="#898989"/>
<path d="M86.5977 48.8546C86.5977 48.6334 86.7701 48.4624 87.0129 48.4624C87.2456 48.4624 87.4175 48.6233 87.4175 48.8446C87.4175 49.0658 87.2456 49.2468 87.0129 49.2468C86.7701 49.2468 86.5977 49.0759 86.5977 48.8546ZM86.7094 49.8804H87.3165V53.2091H86.7094V49.8804Z" fill="#898989"/>
<path fill-rule="evenodd" clip-rule="evenodd" d="M91.142 51.1947V53.206H90.5758V52.7636C90.3732 53.0653 89.9988 53.2463 89.4728 53.2463C88.7137 53.2463 88.2383 52.844 88.2383 52.2607C88.2383 51.7277 88.5821 51.2953 89.5841 51.2953H90.5452V51.1746C90.5452 50.6618 90.2416 50.3701 89.6448 50.3701C89.2499 50.3701 88.8454 50.5109 88.5821 50.7321L88.3296 50.2796C88.6734 49.998 89.1795 49.8472 89.7157 49.8472C90.6263 49.8472 91.142 50.2896 91.142 51.1947ZM90.5452 52.1903V51.7277H89.6045C89.0071 51.7277 88.8352 51.959 88.8352 52.2406C88.8352 52.5725 89.1086 52.7836 89.5738 52.7836C90.0294 52.7836 90.3937 52.5725 90.5452 52.1903Z" fill="#898989"/>
<path d="M92.293 48.5518H92.9V53.2079H92.293V48.5518Z" fill="#898989"/>
<path d="M93.6719 52.8172C93.6719 52.5658 93.8744 52.3848 94.107 52.3848C94.33 52.3848 94.5218 52.5658 94.5218 52.8172C94.5218 53.0686 94.33 53.2497 94.107 53.2497C93.8744 53.2497 93.6719 53.0686 93.6719 52.8172Z" fill="#898989"/>
<path d="M92.9002 37.7627L84.3711 40.6288V43.6256L92.89 40.136L92.9002 37.7627Z" fill="#898989"/>
<path d="M89.8352 34.3311L81.5586 36.101V38.8565L89.8352 36.5636V34.3311Z" fill="#898989"/>
<path d="M88.0759 30.9351L80.0625 31.1262V33.4995L88.0963 32.886L88.0759 30.9351Z" fill="#898989"/>
<path d="M89.1164 27.225L81.2852 26.7725V29.0855L89.1363 29.1358L89.1164 27.225Z" fill="#898989"/>
<path d="M90.8474 24.3157L83.8359 23.3604V25.1504L90.8474 25.8142V24.3157Z" fill="#898989"/>
<path d="M89.3711 15.6396L97.2733 17.7615V20.2053L89.3711 17.6408V15.6396Z" fill="#898989"/>
<path d="M91.4219 11.8447L99.597 13.0515V15.6059L91.4219 13.9466V11.8447Z" fill="#898989"/>
<path d="M92.7109 8.44927L100.724 8.12744L100.714 10.3701L92.7109 10.2997V8.44927Z" fill="#898989"/>
<path d="M91.2617 4.80899L99.2649 3.88379L99.2552 6.07613L91.2617 6.6091V4.80899Z" fill="#898989"/>
<path d="M89.2891 1.84999L96.4015 0.401855V2.20197L89.2987 3.35847L89.2891 1.84999Z" fill="#898989"/>
<path d="M96.9582 28.3392C96.2501 26.6196 95.0763 25.3926 93.8218 24.0451C93.0627 23.2305 89.4208 19.6806 89.4208 19.6806C88.0041 18.1621 86.2839 16.5731 85.4544 14.4009C83.0057 7.99492 85.6972 0.43243 85.8084 0C85.6569 0.362034 83.421 4.04271 83.3194 8.74917C83.2791 10.9918 83.6332 13.6668 84.8774 16.2614C86.3145 19.2683 91.4139 23.5423 92.4761 24.568C94.0142 26.0665 95.7849 28.4599 96.2904 30.3002C96.847 32.3517 96.999 34.5743 96.6649 36.5856C96.3312 38.5969 95.8552 40.4674 95.0865 42.1669C94.9146 42.5289 94.7727 42.9211 94.6411 43.253C94.6411 43.243 94.6921 43.1927 94.7324 43.1323C95.036 42.5591 95.3599 42.006 95.6533 41.4127C96.5435 39.5824 97.4438 37.4303 97.6765 35.1475C97.9193 32.7943 97.8586 30.5215 96.9582 28.3392Z" fill="black"/>
</g>
<defs>
<clipPath id="clip0_3506_672">
<rect width="101" height="55" fill="white"/>
</clipPath>
</defs>
</svg>
