<svg width="792" height="513" viewBox="0 0 792 513" fill="none" xmlns="http://www.w3.org/2000/svg">
<path d="M99.2651 407.41C112.241 397.508 121.46 405.703 125.216 413.215C128.973 420.727 139.558 414.24 145.022 416.63C150.486 419.02 145.706 430.289 137.168 432.338C130.339 433.976 126.355 431.427 125.216 429.946C126.479 436.47 131.087 433.943 134.778 437.459C137.552 440.102 124.885 443.776 119.583 440.533C116.741 441.756 116.68 449.752 112.241 456.069C113.269 460.603 111.558 475.192 121.802 475.192C132.046 475.192 134.947 475.8 135.971 478.873C136.996 481.947 128.125 484.759 120.769 484.759C115.047 484.268 105.892 477.811 97.8838 472.424C96.2904 477.681 95.9414 488.737 99.6066 490.046C104.387 491.753 109.509 492.094 112.241 496.876C114.973 501.656 98.5822 502.338 94.8259 500.632C91.0696 498.924 86.2892 488.338 80.4842 485.265C76.9459 483.392 74.2957 480.06 72.6109 475.192C72.6109 475.192 65.3855 478.106 55.4114 476.558C55.7359 480.823 55.0893 483.14 52.313 485.265C49.5365 487.391 49.6158 495.103 53.6234 495.757C57.6309 496.411 64.9183 501.104 64.2644 504.046C63.6105 506.989 46.8345 505.528 45.142 504.046C41.0444 500.46 38.5317 491.956 38.2864 488.851C38.0902 486.366 39.2343 485.6 39.5857 484.637C31.6637 486.97 17.5956 480.834 14.0682 488.851C10.3121 497.387 3.82406 502.851 1.09231 498.754C-1.63946 494.656 1.09231 483.387 5.53142 480.313C9.08271 477.855 16.7431 472.196 19.361 471.058C24.5082 463.474 17.1949 454.624 22.8368 444.935C5.90972 445.591 3.45021 432.029 4.33633 425.166C5.36079 434.557 20.3854 440.533 29.4344 438.313C38.8249 432.338 53.508 430.971 65.9717 435.581C73.0792 438.21 81.4688 437.008 85.3815 429.946C80.4022 429.946 73.9152 429.599 69.3287 426.958C62.634 423.101 63.8388 409.046 71.8555 409.046C82.0996 409.046 87.9965 416.63 99.2651 407.41Z" fill="#FFE900"/>
<path d="M44.9227 451.673C42.8938 450.24 41.9001 447.693 44.1207 444.51C47.1515 440.164 52.964 436.785 57.8803 438.758C62.0931 440.449 61.811 445.95 58.1583 445.95C52.9713 445.95 47.9633 453.819 44.9227 451.673Z" fill="black"/>
<path d="M102.877 449.346C107.706 449.346 108.6 449.883 113.43 453.639C111.426 457.074 106.633 461.629 104.487 463.476L98.5843 469.379C95.186 464.192 98.5843 461.688 96.9746 457.395C96.0473 454.922 98.0477 449.346 102.877 449.346Z" fill="black"/>
<path d="M82.1289 433.876C87.2264 434.144 91.0719 431.729 98.584 426.9C94.4344 429.333 87.9716 429.94 85.259 429.94L82.1289 433.876Z" fill="black"/>
<path d="M43.7656 483.061C45.5542 481.363 51.6355 476.355 55.302 477.249L47.4322 474.566L43.7656 483.061Z" fill="black"/>
<path d="M119.596 412.316C118.673 412.31 117.918 413.329 117.909 414.593C117.901 415.857 118.643 416.887 119.566 416.893C120.49 416.899 121.245 415.879 121.253 414.615C121.262 413.351 120.52 412.322 119.596 412.316Z" fill="black"/>
<path d="M143.377 413.041C141.16 413.027 139.354 414.491 139.342 416.312C139.33 418.133 141.117 419.62 143.334 419.635C145.551 419.649 147.357 418.185 147.369 416.364C147.381 414.544 145.594 413.056 143.377 413.041Z" fill="black"/>
<path d="M71.8586 409.044C63.8418 409.044 62.6371 423.1 69.3318 426.956C73.9183 429.597 80.4053 429.946 85.3846 429.946C96.3837 429.946 103.444 423.463 105.599 417.221M29.4374 438.312C26.4031 440.146 24.3094 442.411 22.8398 444.935M50.0964 466.483C49.6261 468.459 48.7048 471.378 47.3617 474.337M47.3617 474.337C45.4543 478.537 44.574 482.305 41.0475 484.068C40.5901 484.297 40.1024 484.484 39.5888 484.635M47.3617 474.337C48.8436 474.682 53.3851 476.24 55.4144 476.556C65.3885 478.105 72.6139 475.19 72.6139 475.19C72.6139 475.19 71.2675 475.19 70.5846 463.921M119.586 440.531C116.744 441.755 116.683 449.75 112.244 456.067C107.805 462.385 101.278 465.649 99.6096 468.361C98.9722 469.397 98.3719 470.823 97.8869 472.423M123.458 428.46C123.713 429.551 124.921 431.756 128.153 433.154" stroke="black" stroke-width="2.53676" stroke-linecap="round" stroke-linejoin="round"/>
<path d="M114.665 434.906C113.401 430.744 118.969 431.784 125.212 430C126.257 431.031 128.306 432.225 129.661 432.434C130.842 433.164 131.672 434.853 129.661 435.771C126.243 437.332 115.928 439.069 114.665 434.906Z" fill="black"/>
<path d="M176.683 416.629C181.499 410.814 201.969 395.305 218.048 383.303C220.655 376.848 218.164 364.543 211.681 361.827C201.11 372.23 166.188 398.2 161.356 407.17C154.387 420.105 148.756 438.587 141.144 458.514C139.141 458.229 133.175 457.034 128.709 458.552C123.125 460.45 123.473 463.158 124.906 463.93C124.273 464.332 123.76 464.77 123.386 465.238C122.125 466.811 123.638 468.325 124.63 468.581C123.06 470.546 123.506 472.102 126.221 472.606C125.622 473.836 126.207 474.929 128.231 474.851C132.006 475.51 149.049 472.155 151.34 477.945C153.273 482.83 162.256 483.105 160.136 478.12C158.018 473.133 152.66 468.804 154.524 463.561C156.388 458.318 171.869 422.446 176.683 416.629Z" fill="white"/>
<path d="M139.354 469.311C138.364 469.18 135.44 469.166 131.667 470.162C129.449 470.749 126.752 471.513 126.221 472.606M126.221 472.606C125.622 473.836 126.207 474.929 128.231 474.851C132.006 475.51 149.049 472.155 151.34 477.945C153.273 482.83 162.256 483.105 160.136 478.12C158.018 473.133 152.66 468.804 154.524 463.561C156.388 458.318 171.869 422.446 176.683 416.629C181.499 410.814 201.969 395.305 218.048 383.303C220.655 376.848 218.164 364.543 211.681 361.827C201.11 372.23 166.188 398.2 161.356 407.17C154.387 420.105 148.756 438.587 141.144 458.514C139.141 458.229 133.175 457.034 128.709 458.552C123.125 460.45 123.473 463.158 124.906 463.93M126.221 472.606C123.506 472.102 123.06 470.546 124.63 468.581M124.906 463.93C124.273 464.332 123.76 464.77 123.386 465.238C122.125 466.811 123.638 468.325 124.63 468.581M124.906 463.93C126.938 462.638 131.426 462.152 135.21 461.829M124.63 468.581C124.962 468.165 125.386 467.729 125.9 467.282C128.24 465.236 134.653 465.472 136.617 465.448" stroke="black" stroke-width="2.80999" stroke-linecap="round" stroke-linejoin="round"/>
<path d="M258.961 436.781C257.163 429.448 251.997 414.604 242.762 396.792C244.359 386.722 245.436 377.869 247.038 370.813C248.641 363.755 252.273 359.577 252.627 367.819C257.603 381.792 276.441 424.772 276.879 434.952C277.511 449.631 274.52 468.72 272.679 489.971C274.607 490.587 279.196 491.971 282.554 495.284C286.751 499.427 285.257 501.712 283.631 501.782C284.025 502.42 284.296 503.038 284.428 503.622C284.877 505.587 282.856 506.289 281.852 506.089C282.408 508.54 281.328 509.747 278.665 509.016C278.666 510.385 277.664 511.113 275.877 510.161C272.193 509.107 259.617 498.8 255.031 503.01C251.161 506.564 242.956 502.896 247.038 499.333C251.12 495.769 257.829 494.21 258.438 488.679C259.047 483.148 260.757 444.114 258.961 436.781Z" fill="white"/>
<path d="M269.581 500.468C270.53 500.781 273.168 502.044 276.128 504.586C277.869 506.081 278.664 507.801 278.665 509.016M278.665 509.016C278.666 510.385 277.664 511.113 275.877 510.161C272.193 509.107 259.617 498.8 255.031 503.01C251.161 506.564 242.956 502.896 247.038 499.333C251.12 495.769 257.829 494.21 258.438 488.679C259.047 483.148 260.757 444.114 258.961 436.781C257.163 429.448 251.997 414.604 242.762 396.792C244.359 386.722 245.436 377.869 247.038 370.813C248.641 363.755 252.273 359.577 252.627 367.819C257.603 381.792 276.441 424.772 276.879 434.952C277.511 449.631 274.52 468.72 272.679 489.971C274.607 490.587 279.196 491.971 282.554 495.284C286.751 499.427 285.257 501.712 283.631 501.782M278.665 509.016C281.328 509.747 282.408 508.54 281.852 506.089M283.631 501.782C284.025 502.42 284.296 503.038 284.428 503.622C284.877 505.587 282.856 506.289 281.852 506.089M283.631 501.782C282.365 499.733 279.838 497.483 276.573 495.541M281.852 506.089C281.734 505.568 281.541 504.991 281.276 504.364C280.061 501.504 275.486 499.063 273.73 498.185" stroke="black" stroke-width="2.80999" stroke-linecap="round" stroke-linejoin="round"/>
<path d="M197.79 208.759C197.79 251.491 193.879 249.798 205.982 304.375C210.769 306.209 226.318 274.708 221.947 247.161C221.291 243.021 221.214 238.78 221.615 234.606C223.134 218.826 219.341 193.667 217.274 174.49H199.646C199.646 176.463 197.79 189.805 197.79 208.759Z" fill="white" stroke="black" stroke-width="2.80999" stroke-linecap="round" stroke-linejoin="round"/>
<path d="M287.738 259.105C283.084 274.336 280.969 277.72 269.968 292.528C270.376 291.975 246.482 285.246 262.615 253.397C263.446 251.758 263.737 249.865 263.299 248.08C259.815 233.881 254.256 217.434 254.781 200.76L269.968 193.104C284.776 241.335 291.461 246.919 287.738 259.105Z" fill="white" stroke="black" stroke-width="2.80999" stroke-linecap="round" stroke-linejoin="round"/>
<path d="M252.931 421.77C254.085 414.322 259.869 408.447 242.816 399.64C241.261 398.837 239.545 398.927 238.082 398.807L240.252 388.333C237.441 383.799 227.17 378.501 216.129 387.046C216.544 393.156 214.126 410.082 212.46 419.358C211.611 419.691 209.823 420.92 209.464 423.182C209.106 425.445 210.016 426.941 210.517 427.408L208.258 442.099C227.49 457.73 240.466 450.41 244.727 445.501C247.622 438.546 252.008 427.727 252.931 421.77Z" fill="white"/>
<path d="M218.204 425.335C216.066 427.067 214.031 426.18 214.54 423.524C214.947 421.401 217.134 421.725 218.178 422.154" stroke="black" stroke-width="2.80999" stroke-linecap="round"/>
<path d="M210.517 427.408L208.258 442.1C227.49 457.73 240.791 450.123 245.052 445.214C249.465 434.092 254.436 423.469 255.053 413.189C255.217 410.458 254.057 407.836 252.031 405.997C247.773 402.131 242.423 398.502 238.221 398.156M238.221 398.156L239.916 389.309C239.951 387.371 238.01 383.226 229.966 382.15C221.922 381.072 217.065 386.027 215.642 388.639C216.055 394.748 214.126 410.082 212.46 419.359M238.221 398.156C234.834 397.878 228.981 398.029 224.573 401.709" stroke="black" stroke-width="2.80999" stroke-linecap="round" stroke-linejoin="round"/>
<path d="M258.94 432.261C265.441 427.916 260.503 420.847 252.793 424.586L249.922 435.017C248.427 438.085 245.147 444.164 243.988 443.925C236.654 443.615 223.202 434.374 217.394 429.792C213.722 431.38 211.316 429.513 210.573 428.381C210.092 427.837 209.255 426.152 209.75 423.765C210.244 421.377 211.787 419.651 212.497 419.087L214.513 403.766C206.375 401.156 204.763 407.053 204.974 410.328C203.632 409.368 199.761 408.626 195.016 413.334C190.271 418.042 193.015 423.708 194.982 425.953C192.926 426.861 188.963 430.024 189.556 435.41C190.147 440.797 196.577 442.436 199.718 442.582C197.603 444.783 194.246 450.288 197.741 454.71C201.235 459.133 206.984 458.165 209.422 457.129C209.617 460.341 210.909 467.378 214.527 469.834C218.143 472.29 223.286 469.04 225.406 467.107C225.579 469.129 227.28 473.257 232.687 473.594C238.094 473.932 241.576 468.885 242.641 466.319C244.218 467.15 248.159 468.351 251.314 466.515C254.468 464.678 254.972 459.299 254.829 456.838C255.91 456.915 258.433 456.27 259.875 453.083C261.317 449.896 259.371 445.065 258.218 443.048C259.717 442.824 263.045 441.806 264.372 439.52C265.699 437.234 261.303 433.728 258.94 432.261Z" fill="black"/>
<path d="M240.574 456.11C241.141 463.251 233.255 460.107 232.864 457.27M219.021 446.401C209.509 449.055 209.924 444.25 211.319 441.517C209.15 441.541 205.657 440.433 209.036 435.798" stroke="white" stroke-width="2.80999" stroke-linecap="round"/>
<path d="M237.943 398.274L239.201 393.059C231.905 392.178 230.309 395.654 228.879 398.606C231.533 397.34 233.147 397.547 237.943 398.274Z" fill="black"/>
<path d="M248.46 439.515C246.145 442.533 237.432 444.504 221.094 428.247L217.172 430.014C226.649 445.224 242.311 449.889 246.73 447.871C250.265 446.255 249.356 441.627 248.46 439.515Z" fill="#FFE900"/>
<path d="M241.554 421.9C250.39 421.213 247.63 415.761 242.735 416.197M230.455 428.361C228.667 428.836 227.422 427.333 227.422 427.333M245.783 433.314C245.783 433.314 243.831 434.154 241.925 433.27" stroke="black" stroke-width="2.80999" stroke-linecap="round" stroke-linejoin="round"/>
<path d="M227.532 411.822C227.506 412.575 228.574 413.053 229.268 412.762C231.537 411.813 235.291 411.137 237.971 411.192C239.419 411.222 241.26 410.445 241.028 409.015C240.743 407.263 239.42 405.848 237.637 405.063C237.161 406.897 233.744 409.905 229.501 406.799C227.972 408.879 227.578 410.451 227.532 411.822Z" fill="black"/>
<path d="M237.637 405.063C236.664 404.636 235.446 404.489 233.992 404.74C232.62 404.976 230.3 405.711 229.501 406.799M237.637 405.063C239.42 405.848 240.743 407.263 241.028 409.015C241.26 410.445 239.419 411.222 237.971 411.192C235.291 411.137 231.537 411.813 229.268 412.762C228.574 413.053 227.506 412.575 227.532 411.821C227.578 410.451 227.972 408.879 229.501 406.799M237.637 405.063C237.161 406.897 233.744 409.905 229.501 406.799" stroke="black" stroke-width="2.80999" stroke-linecap="round" stroke-linejoin="round"/>
<path d="M222.31 426.987C219.705 429.894 216.622 430.436 214.285 430.058C212.134 429.711 210.401 427.966 210.013 425.822C209.501 422.988 210.843 420.233 213.679 418.899C215.456 418.063 217.819 417.785 220.68 418.393" stroke="black" stroke-width="2.80999" stroke-linecap="round" stroke-linejoin="round"/>
<path d="M244.629 413.081C245.866 413.179 248.549 413.816 248.265 418.774L241.906 415.73C242.402 414.814 243.639 413.003 244.629 413.081Z" fill="black"/>
<path d="M245.665 425.165C244.748 424.787 243.562 425.555 243.017 426.88C242.471 428.204 242.773 429.584 243.69 429.962C244.608 430.34 245.794 429.572 246.339 428.247C246.884 426.923 246.583 425.543 245.665 425.165Z" fill="black"/>
<path d="M233.329 420.573C232.405 420.211 231.254 420.942 230.758 422.206C230.261 423.47 230.607 424.789 231.531 425.151C232.454 425.514 233.606 424.783 234.102 423.519C234.599 422.255 234.252 420.936 233.329 420.573Z" fill="black"/>
<path d="M190.004 254.569C190.004 275.723 192.542 301.531 198.464 317.608C216.234 318.878 252.28 321.416 254.312 321.416C272.25 312.278 283.223 284.891 286.466 272.339L254.751 256.094C253.265 255.333 251.438 256.209 251.014 257.824C249.121 265.018 243.493 281.647 231.889 281.647C231.889 267.262 227.658 248.647 227.658 248.647C210.734 247.632 195.503 252.172 190.004 254.569Z" fill="black" stroke="black" stroke-width="2.80999" stroke-linecap="round" stroke-linejoin="round"/>
<path d="M191.898 252.602C192.04 269.454 194.902 304.852 204.379 317.544" stroke="white" stroke-width="2.80999" stroke-linecap="round" stroke-linejoin="round"/>
<path d="M282.312 267.369C282.17 284.222 267.141 304.852 257.664 317.545" stroke="white" stroke-width="2.80999" stroke-linecap="round" stroke-linejoin="round"/>
<path d="M259.883 319.469C247.191 308.258 208.268 307.2 193.672 319.469C194.658 331.174 198.537 353.401 201.076 363.046C203.614 372.693 211.511 386.175 215.46 388.854C216.8 386.315 221.552 381.492 229.845 382.509C238.137 383.524 241.762 392.521 242.537 396.893C256.711 383.989 253.538 367.065 257.134 351.623C259.893 339.777 259.601 325.322 259.883 319.469Z" fill="white"/>
<path d="M257.134 351.623C259.893 339.777 259.601 325.322 259.883 319.469C247.191 308.258 208.268 307.2 193.672 319.469C194.658 331.174 198.537 353.401 201.076 363.046C203.614 372.693 211.511 386.175 215.46 388.854C216.8 386.315 221.552 381.492 229.845 382.509C238.137 383.524 241.762 392.521 242.537 396.893C256.711 383.989 253.538 367.065 257.134 351.623ZM257.134 351.623C257.134 342.854 248.544 336.296 242.537 334.604M240.974 328.681C246.051 328.681 250.705 331.22 252.82 334.604" stroke="black" stroke-width="2.80999" stroke-linecap="round" stroke-linejoin="round"/>
<path d="M197.289 397.961C202.684 393.73 205.962 377.442 202.684 370.884L212.944 386.538L197.289 397.961Z" fill="black"/>
<path d="M252.817 405.365C250.49 403.038 246.683 393.519 252.288 384.846L242.875 396.163L244.144 399.97L252.817 405.365Z" fill="black"/>
<path d="M198.704 179.501C201.796 176.234 212.777 173.926 218.184 181.467C222.098 171.685 218.896 167.949 216.762 164.57C213.847 159.956 192.749 155.319 182.076 156.031C171.404 156.743 167.313 160.122 174.428 165.815C180.119 170.369 193.249 177.367 198.704 179.501Z" fill="black" stroke="black" stroke-width="2.49777" stroke-linejoin="round"/>
<path d="M195.788 171.739C194.894 172.535 192.964 174.831 192.404 177.632M191.471 168.763C190.129 170.008 187.48 173.092 187.619 175.473M186.862 166.546C185.83 167.226 183.617 169.439 183.01 172.847M182.251 164.212C180.968 164.757 178.692 166.955 178.109 169.813M209.932 159.515C204.586 165.954 215.338 172.545 219.954 168.763" stroke="white" stroke-width="2.49777" stroke-linecap="round" stroke-linejoin="round"/>
<path d="M273.016 196.547C268.088 196.34 256.285 198.426 254.291 207.49C246.836 200.043 248.305 195.348 248.932 191.401C249.791 186.011 267.35 173.428 277.437 169.871C287.526 166.315 292.618 167.807 288.325 175.844C284.891 182.274 277.186 192.433 273.016 196.547Z" fill="black" stroke="black" stroke-width="2.49777" stroke-linejoin="round"/>
<path d="M256.311 181.55C262.705 186.949 253.28 195.327 248.07 192.416" stroke="white" stroke-width="2.49777" stroke-linecap="round" stroke-linejoin="round"/>
<path d="M232.424 342.451C241.887 342.451 249.559 350.123 249.559 359.586C249.559 369.049 241.887 376.721 232.424 376.721C222.961 376.721 215.289 369.049 215.289 359.586C215.289 350.123 222.961 342.451 232.424 342.451Z" fill="#FEE900"/>
<path d="M485.301 481.262C481.598 476.761 475.807 466.33 472.355 462.761C469.593 459.906 463.55 451.639 462.747 448.026M462.747 448.026C462.101 453.691 460.533 466.594 459.422 472.884C458.311 479.173 457.728 485.82 457.576 488.358M462.747 448.026C460.55 449.557 453.86 455.233 451.376 455.899C448.27 456.731 432.98 470.482 426.739 472.654M462.747 448.026C454.199 446.766 435.925 443.829 431.217 442.161C426.51 440.493 423.531 439.56 422.629 439.302M462.747 448.026C457.443 442.513 446.056 430.828 442.954 428.197C439.852 425.567 436.069 420.722 434.566 418.628M462.747 448.026C462.016 443.228 460.088 432.261 458.217 426.771C456.346 421.28 455.644 413.646 455.526 410.515M462.747 448.026C466.384 440.061 475.089 427.742 475.707 425.58C476.326 423.416 480.512 416.802 481.959 414.75M462.747 448.026C465.987 446.658 474.003 444.81 478.481 442.146C484.08 438.815 493.715 434.402 498.055 435.07" stroke="black" stroke-width="2.80999" stroke-linecap="round" stroke-linejoin="round"/>
<path fill-rule="evenodd" clip-rule="evenodd" d="M430.008 479.954C432.586 482.829 435.491 486.069 438.753 487.952C443.953 490.954 449.503 492.795 455.106 493.557C461.655 494.448 470.336 493.513 476.548 491.579C482.322 489.783 487.743 486.822 492.428 482.798C496.163 479.59 499.263 475.086 501.864 470.579C505.599 464.11 507.705 457.717 508.002 450.738C508.243 445.092 507.881 440.603 506.055 435.306C504.289 430.184 501.123 424.231 497.575 419.997C494.301 416.089 490.298 412.678 485.628 409.982C480.581 407.068 469.716 404.285 463.93 403.97C459.191 403.712 454.459 404.212 449.917 405.423C444.418 406.887 439.197 409.394 434.574 412.855C430.327 416.035 428.018 420.075 425.312 424.811C425.017 425.328 424.717 425.852 424.41 426.385C422.075 430.428 420.443 434.683 419.474 439.009C418.453 443.568 418.17 448.206 418.578 452.759C418.912 456.487 419.711 460.158 420.951 463.681C421.15 464.248 421.34 464.798 421.527 465.336C423.216 470.218 424.523 473.996 428.321 478.093C428.867 478.682 429.429 479.309 430.008 479.954ZM437.102 474.146C439.193 476.477 441.548 479.103 444.192 480.63C448.409 483.063 452.908 484.557 457.45 485.174C462.698 485.888 469.776 483.684 474.803 482.12L474.982 482.064C479.664 480.607 484.059 478.206 487.856 474.944C490.885 472.344 493.25 470.198 495.36 466.545C498.388 461.301 500.095 456.118 500.336 450.459C500.498 446.659 499.501 443.911 498.312 440.629C498.068 439.959 497.817 439.266 497.566 438.537C496.134 434.383 494.263 429.828 491.387 426.395C488.732 423.227 485.487 420.462 481.7 418.275C479.351 416.919 476.322 415.902 473.839 415.118C473.075 414.877 472.284 414.597 471.479 414.313C469.201 413.508 466.809 412.662 464.605 412.542C460.762 412.332 456.927 412.738 453.244 413.719C448.786 414.908 442.819 418.685 439.071 421.492C435.627 424.069 433.756 427.345 431.562 431.184C431.322 431.603 431.079 432.028 430.83 432.46C428.938 435.738 427.614 439.188 426.829 442.695C426.001 446.392 425.771 450.152 426.102 453.843C426.276 455.783 427.049 457.392 427.847 459.051C428.292 459.977 428.745 460.919 429.105 461.943C430.733 466.571 432.318 468.95 435.735 472.636C436.178 473.114 436.634 473.623 437.102 474.146Z" fill="black"/>
<path d="M476.837 447.829C476.837 455.6 471.212 462.829 463.439 462.829C455.668 462.829 448.523 458.634 448.523 450.862C448.523 443.09 455.668 434.684 463.439 434.684C471.212 434.684 476.837 440.056 476.837 447.829Z" fill="black"/>
<path d="M758.083 455.634C758.083 463.405 752.458 470.633 744.687 470.633C736.914 470.633 729.77 466.438 729.77 458.667C729.77 450.895 736.914 442.488 744.687 442.488C752.458 442.488 758.083 447.861 758.083 455.634Z" fill="black"/>
<path d="M762.93 424.891C760.884 430.347 754.745 440.578 753.381 445.353C752.29 449.172 748.152 458.539 745.423 461.041M745.423 461.041C750.653 458.767 762.612 453.674 768.614 451.492C774.616 449.309 780.664 446.489 782.938 445.353M745.423 461.041C747.849 462.177 756.11 465.133 757.929 466.952C760.202 469.225 779.754 475.592 784.756 479.912M745.423 461.041C748.607 469.074 755.2 486.368 756.11 491.279C757.019 496.19 757.701 499.236 757.929 500.146M745.423 461.041C743.302 468.392 738.876 484.095 738.149 488.096C737.421 492.097 735.117 497.797 734.055 500.146M745.423 461.041C741.634 464.072 733.101 471.226 729.281 475.592C725.461 479.956 719.202 484.383 716.549 486.049M745.423 461.041C736.709 461.874 721.688 460.495 719.506 461.041C717.322 461.586 709.501 461.268 707 461.041M745.423 461.041C742.62 458.918 737.011 452.901 732.464 450.355C726.78 447.172 718.141 441.033 716.549 436.941" stroke="black" stroke-width="2.80999" stroke-linecap="round" stroke-linejoin="round"/>
<path d="M598.361 406.992C596.71 397.946 585.677 334.73 584.355 327.002C586.599 326.701 591.04 326.645 590.843 328.831C590.597 331.565 605.011 402.039 606.471 409.28C607.64 415.072 613.669 435.181 615.727 441.54L606.965 439.068C603.529 427.429 600.526 418.853 598.361 406.992Z" fill="white" stroke="black" stroke-width="2.80999" stroke-linecap="round" stroke-linejoin="round"/>
<path fill-rule="evenodd" clip-rule="evenodd" d="M789.447 473.426C790.647 469.755 792 465.619 792 461.853C792 455.85 790.82 450.122 788.677 444.889C786.174 438.772 781.025 431.721 776.245 427.308C771.801 423.207 766.526 419.991 760.7 417.947C756.053 416.316 750.602 415.884 745.398 415.884C737.929 415.884 731.34 417.256 725.147 420.489C720.138 423.104 716.432 425.662 712.757 429.891C709.203 433.982 705.631 439.699 703.738 444.889C701.992 449.679 701.039 454.85 701.039 460.244C701.039 466.07 704.061 476.872 706.681 482.04C708.827 486.274 711.627 490.122 714.946 493.449C718.964 497.479 723.745 500.747 729.054 503.02C733.931 505.108 738.584 505.088 744.038 505.063C744.633 505.061 745.238 505.059 745.854 505.059C750.521 505.059 755.023 504.345 759.254 503.02C763.712 501.625 767.872 499.552 771.61 496.922C774.671 494.769 777.451 492.24 779.883 489.405C780.273 488.951 780.655 488.511 781.028 488.081C784.41 484.176 787.03 481.154 788.677 475.817C788.915 475.05 789.177 474.25 789.447 473.426ZM780.413 470.521C781.386 467.546 782.483 464.192 782.483 461.139C782.483 456.272 781.526 451.628 779.789 447.386C777.784 442.485 772.336 437.455 768.468 433.885L768.33 433.757C764.727 430.431 760.45 427.825 755.727 426.168C751.96 424.846 748.92 423.87 744.701 423.87C738.644 423.87 733.303 424.983 728.282 427.603C724.91 429.363 723.029 431.601 720.781 434.272C720.322 434.817 719.849 435.382 719.342 435.964C716.461 439.28 713.451 443.178 711.917 447.386C710.501 451.269 709.729 455.461 709.729 459.834C709.729 462.547 710.361 465.678 710.925 468.221C711.098 469.002 711.251 469.827 711.407 470.668C711.85 473.042 712.312 475.538 713.311 477.505C715.051 480.939 717.321 484.057 720.01 486.755C723.269 490.023 729.524 493.301 733.829 495.144C737.783 496.838 741.555 496.82 745.978 496.801C746.459 496.799 746.949 496.796 747.448 496.796C751.233 496.796 754.882 496.218 758.312 495.144C761.927 494.013 765.298 492.332 768.33 490.2C769.923 489.079 770.93 487.605 771.969 486.085C772.548 485.235 773.137 484.372 773.843 483.55C777.037 479.826 778.306 477.263 779.789 472.46C779.982 471.838 780.194 471.189 780.413 470.521Z" fill="black"/>
<path d="M652.616 434.513L646.269 440.013C638.443 420.339 632.308 397.106 626.93 376.412C629.008 375.513 634.23 374.255 634.635 376.412C637.699 392.755 647.751 420.128 652.616 434.513Z" fill="white"/>
<path d="M696.429 390.568C704.35 382.479 708.733 380.289 712.777 376.412C716.013 373.312 722.557 367.627 724.691 365.83C723.57 358.777 722.643 354.465 721.878 352.649C720.529 349.447 719.012 340.683 712.777 337.144L731.821 333.942C725.754 342.537 730.473 353.492 731.821 359.896C733.169 366.301 736.505 382.05 737.449 387.873C738.947 397.106 741.09 408.096 741.933 414.163C742.776 420.231 745.809 437.589 748.338 445.679C750.865 453.769 752.214 463.374 745.809 464.386C739.405 465.397 736.709 455.117 736.54 448.712C736.372 442.308 735.36 436.915 733.507 428.152C732.327 422.573 731.283 415.49 730.027 405.905C714.393 414.996 700.379 426.814 685.643 437.251L683.789 432.196C685.7 430.848 689.957 427.815 691.71 426.465C704.104 416.928 717.64 408.024 728.899 397.106C728.496 393.927 728.069 390.521 727.608 386.861C726.942 381.574 726.322 376.92 725.746 372.874C721.047 379.257 712.683 385.697 706.541 390.568C701.655 394.444 698.115 398.152 693.396 401.186L696.429 390.568Z" fill="white"/>
<path d="M724.693 365.83C722.559 367.627 716.015 373.312 712.779 376.412C708.735 380.289 704.352 382.479 696.431 390.568L693.397 401.186C698.116 398.152 701.656 394.444 706.543 390.568C712.685 385.697 721.049 379.257 725.748 372.874M728.901 397.106C728.498 393.927 728.071 390.521 727.609 386.861C725.082 366.806 723.228 355.851 721.88 352.649C720.531 349.447 719.014 340.683 712.779 337.144L731.823 333.942C725.756 342.537 730.475 353.492 731.823 359.896C733.171 366.301 736.507 382.05 737.451 387.873C738.949 397.106 741.092 408.096 741.935 414.163C742.778 420.231 745.811 437.589 748.339 445.679C750.867 453.769 752.216 463.374 745.811 464.386C739.407 465.397 736.711 455.117 736.542 448.712C736.373 442.308 735.362 436.915 733.509 428.152C732.328 422.573 731.285 415.49 730.029 405.905M728.901 397.106C729.3 400.256 729.673 403.181 730.029 405.905M728.901 397.106C717.641 408.024 704.105 416.928 691.712 426.465C689.959 427.815 685.702 430.848 683.791 432.196L685.645 437.251C700.38 426.814 714.394 414.996 730.029 405.905M626.93 376.412C629.008 375.513 634.23 374.255 634.635 376.412C637.699 392.755 647.751 420.128 652.616 434.513L646.269 440.013C638.443 420.34 632.308 397.106 626.93 376.412Z" stroke="black" stroke-width="2.80999" stroke-linecap="round" stroke-linejoin="round"/>
<path d="M720.645 325.081C713.824 327.582 699.728 326.445 689.27 320.306V331.674C698.515 335.767 719.69 342.405 730.422 336.222C741.152 330.037 739.743 314.546 737.696 307.574L727.693 303.709V316.668C727.617 318.639 726.102 323.08 720.645 325.081Z" fill="black"/>
<path d="M686.149 432.527C684.464 427.134 680.925 425.619 675.364 424.438L664.914 439.607L672.33 446.348C674.183 446.573 678.801 446.651 682.442 445.169C686.992 443.314 687.835 437.921 686.149 432.527Z" fill="black"/>
<path d="M663.903 437.754C671.488 439.271 676.038 446.684 675.196 451.067C674.353 455.449 667.275 468.595 665.589 472.64C663.904 476.685 661.376 476.853 658.005 475.673C654.634 474.494 641.32 469.437 638.624 466.742C637.036 465.153 638.213 461.883 639.64 459.327C622.729 459.215 482.258 458.583 473.36 456.966C462.236 454.944 458.36 449.045 463.584 443.483C468.808 437.921 478.92 438.764 491.729 436.405C504.537 434.045 627.165 434.214 643.68 434.72L645.775 446.63C651.312 440.846 660.067 437.754 663.903 437.754Z" fill="white"/>
<path d="M639.64 459.327C638.213 461.883 637.036 465.153 638.624 466.74C641.32 469.437 654.634 474.494 658.005 475.673C661.376 476.853 663.904 476.685 665.589 472.64C667.275 468.595 674.353 455.449 675.196 451.067C676.038 446.684 671.488 439.271 663.903 437.754C660.067 437.754 651.312 440.846 645.775 446.63M639.64 459.327C640.151 458.412 640.694 457.588 641.153 456.966C642.837 454.901 643.14 449.384 645.775 446.63M639.64 459.327C622.729 459.215 482.258 458.583 473.36 456.966C462.236 454.944 458.36 449.045 463.584 443.483C468.808 437.921 478.92 438.764 491.729 436.405C504.537 434.045 627.165 434.214 643.68 434.72L645.775 446.63" stroke="black" stroke-width="2.80999" stroke-linecap="round" stroke-linejoin="round"/>
<path d="M542.66 451.07C543.502 446.687 538.952 439.274 531.367 437.757C527.531 437.757 520.847 443.637 515.311 449.421C512.676 452.173 510.301 454.905 508.615 456.97C508.156 457.592 507.615 458.415 507.103 459.331C505.676 461.886 504.5 465.156 506.088 466.744C508.784 469.442 522.098 474.497 525.469 475.677C528.84 476.856 531.367 476.688 533.053 472.643C534.739 468.599 541.817 455.452 542.66 451.07Z" fill="white" stroke="black" stroke-width="2.80999" stroke-linecap="round" stroke-linejoin="round"/>
<path d="M495.797 405.908C491.752 397.649 483.831 383.494 480.461 376.415C482.539 375.516 486.797 374.257 487.202 376.415C487.707 379.112 500.852 399.335 504.223 405.908C506.92 411.165 515.009 423.603 518.718 429.165L514.842 438.434C508.375 428.164 501.1 416.735 495.797 405.908Z" fill="white" stroke="black" stroke-width="2.80999" stroke-linecap="round" stroke-linejoin="round"/>
<path d="M502.703 452.584C503.715 447.865 505.063 444.495 511.636 440.45L521.243 444.326C524.5 446.124 533.175 451.608 541.803 459.157C552.589 468.595 551.578 472.135 546.185 472.64C540.791 473.145 530.005 468.259 517.872 463.876C505.737 459.495 501.693 457.304 502.703 452.584Z" fill="black"/>
<path d="M467.651 356.688C470.179 353.317 474.392 348.766 487.032 353.822L516.02 378.932C507.931 379.045 490.808 379.203 487.032 378.932C482.313 378.596 472.37 375.394 469.337 372.192C466.303 368.989 465.123 360.058 467.651 356.688Z" fill="black"/>
<path d="M537.089 391.241C533.157 397.42 524.821 410.824 522.932 415.003C520.573 420.228 519.658 421.509 516.456 428.419C513.253 435.33 508.55 442.764 510.404 445.291C512.257 447.819 515.012 446.687 521.248 448.204C527.483 449.72 526.656 445.17 530.026 441.799C533.397 438.428 544.042 426.189 549.099 419.617C554.154 413.044 562.369 403.542 565.403 399.666C568.436 395.79 569.953 391.578 571.976 387.701C572.378 386.929 572.734 386.157 573.014 385.377C574.007 382.627 573.685 378.361 571.591 375.061C571.297 374.599 571.345 375.542 570.964 375.061C570.869 374.941 570.761 374.812 570.641 374.673C560.461 375.555 544.965 384.989 537.089 391.241Z" fill="white"/>
<path fill-rule="evenodd" clip-rule="evenodd" d="M484.334 345.231C485.278 341.591 489.334 335.064 491.244 332.254C512.586 345.231 539.606 343.719 545.375 338.164C548.127 335.513 556.561 337.222 562.696 338.465C564.556 338.842 566.205 339.176 567.42 339.333C572.645 340.007 580.566 342.029 581.577 348.602C582.363 353.71 581.113 356.782 579.726 360.19C579.328 361.169 578.918 362.175 578.543 363.264C577.317 366.821 575.375 370.915 573.694 373.815L575.431 375.061C574.741 374.845 573.994 374.711 573.2 374.647C572.756 375.372 571.956 374.577 571.586 375.061C571.292 374.599 571.341 375.542 570.959 375.061C570.864 374.941 570.756 374.812 570.636 374.673C560.456 375.555 544.96 384.989 537.084 391.241C536.37 391.012 535.379 390.715 534.198 390.362H534.197C528.423 388.634 518.136 385.556 513.658 382.477C510.235 380.124 505.317 377.09 501.535 374.758C499.36 373.416 497.56 372.306 496.637 371.691C494.108 370.006 487.031 363.434 484.334 359.389C481.689 355.422 483.097 349.996 484.266 345.495L484.334 345.231Z" fill="black"/>
<path d="M571.59 375.061C573.684 378.361 574.006 382.627 573.013 385.377C575.87 381.939 579.505 376.84 575.434 375.061C574.745 374.845 573.998 374.711 573.203 374.647C572.76 375.372 571.959 374.577 571.59 375.061Z" fill="black"/>
<path d="M537.088 391.239C534.183 396.174 527.934 406.816 526.173 409.896C524.413 412.977 523.422 415.948 523.422 415.948C521.062 421.172 519.838 421.509 516.637 428.418C513.435 435.328 508.181 442.762 510.034 445.29C511.889 447.818 515.01 446.685 521.245 448.202C527.481 449.718 527.386 444.442 530.758 441.072C534.129 437.701 545.324 424.721 550.38 418.149C555.436 411.576 562.368 403.54 565.401 399.664C565.742 399.229 566.065 398.787 566.37 398.343C570.916 391.748 578.374 384.831 576.859 376.965C576.683 376.052 576.119 375.366 575.01 375.059" stroke="black" stroke-width="2.80999" stroke-linecap="round" stroke-linejoin="round"/>
<path d="M491.243 332.254C489.334 335.064 485.278 341.591 484.334 345.231C483.155 349.782 481.637 355.344 484.334 359.389C487.031 363.434 494.108 370.006 496.636 371.691C499.165 373.377 508.265 378.77 513.658 382.477C519.051 386.185 532.871 389.892 537.084 391.241C545.564 384.333 565.091 371.193 575.075 374.83M575.075 374.83L552.421 358.769C545.603 353.414 539.099 348.834 537.084 348.602M575.075 374.83C580.337 377.545 574.176 383.987 571.003 386.879" stroke="white" stroke-width="2.80999" stroke-linecap="round" stroke-linejoin="round"/>
<path fill-rule="evenodd" clip-rule="evenodd" d="M641.32 440.451C634.746 444.496 633.398 447.865 632.387 452.585C631.376 457.304 635.421 459.496 647.555 463.877C650.391 464.902 653.155 465.953 655.793 466.958C664.437 470.25 671.737 473.028 675.869 472.641C681.262 472.135 682.272 468.596 671.486 459.158C668.851 456.852 665.895 454.621 662.969 452.585L658.301 454.983L659.554 459.158C646.502 452.809 646.116 445.796 647.555 443.082L641.32 440.451Z" fill="black"/>
<path d="M646.82 446.63C648.992 454.314 656.495 458.324 659.975 459.367L658.305 454.983L663.942 451.642" stroke="white" stroke-width="2.49777" stroke-linecap="round" stroke-linejoin="round"/>
<path d="M656.23 447.093L668.494 457.72" stroke="black" stroke-width="2.49777" stroke-linecap="round" stroke-linejoin="round"/>
<path d="M607.658 361.305C610.187 357.935 614.4 353.383 627.039 358.44L656.027 383.55C647.938 383.662 630.815 383.82 627.039 383.55C622.32 383.214 612.377 380.012 609.344 376.809C606.31 373.607 605.131 364.676 607.658 361.305Z" fill="black"/>
<path d="M698.932 246.987C696.843 251.306 694.475 255.344 689.182 254.926L622.882 270.248C621.999 269.505 619.679 268.019 617.449 268.019C614.664 268.019 611.878 269.551 608.396 269.273C604.914 268.994 606.168 265.373 601.432 264.677C596.695 263.98 596.279 266.626 592.796 268.019C589.314 269.412 585.414 269.133 584.16 263.284C582.907 257.434 581.514 255.902 579.703 254.926C577.893 253.949 574.689 253.813 574.829 250.47C574.968 247.126 574.272 245.594 579.703 246.012C585.135 246.43 583.882 244.619 587.642 240.859C591.403 237.098 592.099 236.68 601.432 237.516C610.764 238.352 610.207 235.427 611.878 229.716C613.542 224.028 615.07 223.868 626.775 222.627L626.921 222.612C638.76 221.359 635.835 213.14 635.139 207.709C634.442 202.279 638.621 198.933 644.611 198.933C650.6 198.933 652.55 195.452 653.246 192.248C653.942 189.045 654.221 179.852 660.21 178.319C665.002 177.094 670.842 179.759 673.164 181.245C672.235 178.644 672.802 172.997 682.496 171.215C694.614 168.986 696.703 179.155 702.971 182.358C709.238 185.562 708.821 181.801 713.975 187.372C719.128 192.943 712.861 198.655 717.875 200.883C722.889 203.112 723.725 209.936 718.85 213.14C713.975 216.343 713 221.498 714.671 225.537C716.343 229.576 714.672 237.376 708.821 239.186C702.971 240.997 701.021 242.669 698.932 246.987Z" fill="#FEE900"/>
<path d="M679.21 237.811C678.512 238.758 679.101 242.626 677.546 248.244C674.318 248.842 662.751 246.402 657.371 245.108L659.735 237.357L660.868 232.286C661.361 230.08 662.096 227.936 663.059 225.891C664.231 223.4 665.064 220.763 665.535 218.049L666.338 213.426C664.595 212.28 661.467 209.062 662.901 205.356C664.335 201.65 667.684 202.217 669.178 202.965C669.178 202.417 669.775 199.886 672.166 194.148C675.155 186.975 688.904 183.238 698.618 191.009C708.332 198.779 702.353 218.057 695.779 228.967C690.518 237.695 682.16 238.765 679.21 237.811Z" fill="white"/>
<path d="M678.466 243.53C673.281 242.818 669.055 238.901 667.639 234.995C666.994 233.215 669.016 232.46 670.541 233.582C675.325 237.103 679.762 238.072 681.661 238.072C680.076 239.123 678.984 240.771 678.633 242.639L678.466 243.53Z" fill="black"/>
<path d="M679.015 209.939C677.204 210.219 674.279 210.078 672.051 205.064L668.847 202.696V186.817L686.816 182.221L706.177 187.653L707.151 209.939C706.408 208.639 704.282 205.566 701.72 203.671C698.515 201.304 694.476 202.696 692.805 198.936C691.133 195.174 694.894 191.553 691.69 189.742C689.128 188.293 685.144 194.06 683.473 197.124C683.101 196.521 681.941 195.313 680.269 195.313C678.18 195.313 677.065 198.518 679.015 201.164C680.966 203.811 680.827 209.66 679.015 209.939Z" fill="#FEE900"/>
<path fill-rule="evenodd" clip-rule="evenodd" d="M666.502 201.389C668.667 201.372 671.442 202.992 673.429 206.017C673.705 206.438 673.588 207.002 673.168 207.277C672.749 207.553 672.185 207.436 671.909 207.016C670.089 204.243 668.358 203.408 667.07 203.418C665.777 203.429 664.554 204.298 663.746 205.762C663.003 207.109 662.836 209.115 663.918 210.614C664.441 211.338 665.708 212.474 666.799 212.735C667.901 212.998 668.99 213.478 670.921 212.835C671.398 212.676 672.009 212.005 672.168 212.482C672.327 212.958 671.398 213.946 670.921 214.105C668.76 214.825 667.595 214.467 666.079 214.105C664.552 213.74 663.409 212.905 662.638 211.838C661.135 209.755 661.078 206.833 662.153 204.883C663.164 203.051 664.343 201.407 666.502 201.389Z" fill="black"/>
<path d="M669.429 207.418C668.462 206.225 666.597 206.33 665.996 207.418C665.395 208.506 666.101 211.104 668.803 210.204" stroke="black" stroke-width="2.80999" stroke-linecap="round" stroke-linejoin="round"/>
<path d="M679.375 221.632C681.138 223.299 686.446 227.327 690.856 228.054C689.891 229.988 685.741 234.137 681.136 231.238C677.078 228.682 678.238 224.019 679.375 221.632Z" fill="black"/>
<path d="M685.461 229.08C683.699 228.909 680.971 227.034 678.242 224.419L679.663 221.748L687.28 226.579C687.186 227.356 686.87 229.217 685.461 229.08Z" fill="white"/>
<path fill-rule="evenodd" clip-rule="evenodd" d="M687.053 203.122C686.235 203.348 685.411 203.938 684.907 204.433C684.549 204.786 683.973 204.781 683.622 204.422C683.269 204.064 683.273 203.488 683.632 203.137C684.266 202.513 685.119 201.332 686.338 200.995C686.958 200.824 687.656 200.764 688.355 200.958C689.069 201.156 689.94 201.972 690.459 202.677C690.757 203.082 690.669 203.651 690.264 203.949C689.86 204.246 689.291 204.16 688.993 203.755C688.693 203.347 688.385 203.164 688.1 203.085C687.8 203.001 687.449 203.013 687.053 203.122ZM702.319 206.313C701.612 206.248 700.577 206.672 700.091 206.923C699.643 207.153 699.096 206.979 698.866 206.532C698.634 206.086 698.81 205.537 699.256 205.307C699.944 204.952 700.981 204.605 702.134 204.709C703.327 204.817 704.559 205.403 705.575 206.765C705.874 207.169 705.792 207.738 705.389 208.039C704.987 208.338 704.417 208.255 704.117 207.852C703.404 206.896 702.986 206.373 702.319 206.313ZM691.331 213.333C691.772 213.09 692.325 213.25 692.568 213.689C694.366 216.938 695.262 220.245 694.338 222.95C693.821 224.464 692.648 225.238 691.425 225.385C690.263 225.523 689.017 225.094 688.284 224.197C687.662 223.438 687.576 222.514 687.648 221.786C687.72 221.052 687.964 220.382 688.179 219.966C688.408 219.52 688.957 219.344 689.403 219.573C689.85 219.803 690.026 220.351 689.796 220.798C689.599 221.181 689.66 222.81 689.945 223.159C690.234 223.511 690.582 223.653 691.21 223.579C691.778 223.51 692.338 223.177 692.617 222.362C693.285 220.405 693.553 218.136 691.827 215.019C691.584 214.58 690.892 213.577 691.331 213.333ZM679.214 220.738C679.501 220.685 679.795 220.772 680.006 220.971C680.84 221.76 682.558 223.147 684.61 224.424C686.674 225.709 688.983 226.823 691.01 227.157C691.296 227.205 691.542 227.384 691.673 227.641C691.805 227.899 691.806 228.203 691.676 228.462C691.111 229.594 689.698 231.254 687.793 232.262C685.834 233.298 683.291 233.666 680.659 232.007C678.336 230.545 677.491 228.442 677.406 226.41C677.322 224.426 677.955 222.512 678.56 221.242C678.685 220.978 678.929 220.792 679.214 220.738ZM679.741 223.159C679.413 224.112 679.176 225.23 679.222 226.334C679.287 227.869 679.892 229.375 681.628 230.468C683.599 231.71 685.433 231.453 686.942 230.655C687.959 230.117 688.801 229.343 689.373 228.648C687.4 228.088 685.385 227.049 683.649 225.968C682.106 225.008 680.735 223.985 679.741 223.159Z" fill="black"/>
<path fill-rule="evenodd" clip-rule="evenodd" d="M656.755 244.937C642.317 242.323 637.43 244.711 630.609 253.123C624.291 260.914 619.631 273.094 618.166 276.927C618.049 277.231 617.952 277.484 617.877 277.676C617.547 278.519 617.277 279.408 616.993 280.34C616.396 282.303 615.74 284.46 614.353 286.771C612.835 289.3 613.069 292.642 613.291 295.823C613.367 296.931 613.443 298.02 613.443 299.048C613.443 299.94 613.336 300.723 613.234 301.449C612.886 303.962 612.633 305.788 617.309 309.052C618.596 309.951 619.739 310.819 620.816 311.638C622.815 313.156 624.594 314.507 626.666 315.575C625.323 317.819 624.278 319.861 623.39 321.6C621.998 324.319 620.989 326.295 619.81 327.127C617.878 328.49 618.332 330.102 622.879 332.707C627.426 335.312 643.454 341.564 656.755 341.564C670.055 341.564 675.771 339.528 674.05 334.635C672.889 334.551 671.785 334.019 671.032 332.707C668.671 333.925 664.41 333.687 663.884 324.852C660.391 324.607 654.638 322.989 648.802 321.348C643.41 319.832 637.949 318.296 634.133 317.805C633.653 317.744 633.191 317.673 632.746 317.593C633.739 311.752 639.271 300.549 653.459 302.458C654.608 302.961 655.829 303.46 657.037 303.956H657.038C658.523 304.564 659.99 305.166 661.29 305.755C662.484 306.297 663.553 306.829 664.596 307.35C665.772 307.935 666.914 308.504 668.167 309.052C670.524 310.084 672.81 311.042 675.057 311.894C676.113 312.294 677.108 312.63 678.042 312.928C678.042 308.484 678.354 306.324 680.855 301.55C681.882 299.589 683.254 296.211 684.577 292.114C686.936 293.062 693.519 295.365 700.976 297.002C701.887 297.202 702.75 297.435 703.568 297.693C705.146 294.185 710.12 287.273 717.391 287.691C714.321 285.963 712.236 285.111 710.686 284.478C709.698 284.074 708.924 283.758 708.252 283.361C706.815 282.512 702.947 281.3 699.73 280.389C699.161 278.613 697.815 274.13 696.997 270.402C696.877 269.854 696.764 269.25 696.642 268.602C695.725 263.731 694.352 256.434 686.425 253.123C678.156 249.668 668.632 247.564 659.188 245.476C658.376 245.296 657.565 245.118 656.755 244.937Z" fill="white"/>
<path d="M632.742 317.592C633.187 317.672 633.649 317.743 634.129 317.805C637.945 318.296 643.406 319.831 648.798 321.348C654.634 322.989 660.387 324.607 663.88 324.851C664.406 333.687 668.667 333.924 671.028 332.706C671.781 334.019 672.885 334.551 674.047 334.635C675.47 334.736 676.98 334.162 678.038 333.52C679.981 336.749 683.369 336.26 685.262 335.311C686.844 337.334 689.045 336.991 690.513 335.311C692.901 332.584 690.4 321.216 688.127 317.805C686.217 314.941 682.944 314.482 678.038 312.928C677.104 312.63 676.109 312.294 675.053 311.894C672.806 311.041 670.52 310.084 668.163 309.051C666.91 308.504 665.768 307.935 664.592 307.349C663.549 306.829 662.481 306.296 661.286 305.755C659.986 305.166 658.519 304.564 657.035 303.956H657.033C655.825 303.46 654.604 302.961 653.455 302.458C639.267 300.548 633.735 311.752 632.742 317.592Z" fill="white"/>
<path d="M663.281 314.799C662.94 315.623 663.075 318.954 662.871 320.625C663.753 321.493 664.904 322.506 664.938 320.424C664.972 318.341 663.765 315.453 663.281 314.799Z" fill="black"/>
<path d="M669.442 323.596C669.105 324.407 668.957 327.569 669.068 329.27C669.934 330.122 671.067 331.051 671.1 329.004C671.134 326.957 669.916 324.239 669.442 323.596Z" fill="black"/>
<path d="M675.99 323.089C675.655 323.9 675.479 326.84 675.655 328.806C676.523 329.66 677.611 330.478 677.644 328.431C677.678 326.384 676.466 323.732 675.99 323.089Z" fill="black"/>
<path d="M637.646 246.899C646.962 254.67 671.6 268.838 695.63 263.337M627.335 257.36C641.233 267.323 674.709 284.588 697.424 273.949M620.311 271.407C629.676 279.179 655.55 294.242 684.123 292.33M614.035 287.099C616.524 290.687 624.195 296.756 634.956 292.33M620.311 311.308C623.051 306.278 631.34 297.082 642.578 297.56M652.74 302.044C659.067 303.687 673.244 306.587 679.341 305.032M630.474 325.207C636.103 328.545 651.515 334.771 668.133 332.978M692.94 292.33C694.037 289.391 697.842 283.214 704.298 282.018" stroke="#FEE900" stroke-width="7.49331" stroke-linecap="round" stroke-linejoin="round"/>
<path d="M725.87 317.012C731.894 317.596 727.461 305.757 731.213 305.757C734.214 305.757 736.555 307.955 737.351 309.055C737.275 306.402 734.873 299.505 725.87 293.139C722.4 290.686 719.631 288.955 717.389 287.693C710.118 287.276 705.145 294.188 703.566 297.696C711.116 300.077 715.379 304.63 718.969 305.757C719.901 310.563 722.024 316.64 725.87 317.012Z" fill="white"/>
<path d="M663.916 324.855C657.21 324.4 642.091 318.83 634.133 317.806C633.653 317.745 633.191 317.674 632.746 317.595M632.746 317.595C633.739 311.754 639.271 300.55 653.458 302.46M632.746 317.595C630.317 317.161 628.39 316.466 626.666 315.578M653.458 302.46C649.938 301.095 643.399 298.265 638.622 295.396M653.458 302.46C655.292 303.26 657.375 303.702 659.099 304.481M626.666 315.578C623.476 313.933 620.984 311.62 617.309 309.054C611.283 304.848 613.443 303.029 613.443 299.05C613.443 295.071 612.306 290.183 614.353 286.773C616.399 283.362 616.854 280.293 617.877 277.679C618.453 276.206 620.255 271.273 622.938 265.742C625.019 261.451 627.629 256.799 630.609 253.125C632.355 250.97 634.034 248.285 635.719 246.904C637.582 245.378 640.511 244.476 642.795 243.85C646.518 242.829 650.098 243.734 656.755 244.939C666.986 247.213 676.285 248.299 685.266 252.052C687.319 252.909 690.09 255.757 691.369 257.037C693.343 259.011 694.609 261.161 695.384 263.47C696.306 266.214 696.569 268.45 696.997 270.403C697.815 274.132 699.161 278.615 699.73 280.39M626.666 315.578C623.22 321.331 621.742 325.764 619.81 327.129C617.878 328.493 618.332 330.104 622.879 332.709C627.426 335.313 643.454 341.565 656.755 341.565C670.055 341.565 675.771 339.53 674.05 334.637M638.622 295.396C636.766 294.28 635.176 293.159 634.133 292.115M638.622 295.396C638.453 289.16 640.726 282.339 641.75 277.679C642.568 273.95 644.743 268.168 645.729 265.742M659.099 304.481C660.164 304.961 662.888 306.263 663.916 306.73M659.099 304.481L663.916 306.73M683.356 328.493C683.531 331.859 684.277 334.049 685.266 335.313M685.266 335.313C686.848 337.337 689.049 336.993 690.517 335.313C692.905 332.585 690.404 321.218 688.131 317.806C686.221 314.943 682.948 314.484 678.042 312.929M685.266 335.313C683.373 336.263 679.985 336.752 678.042 333.521M678.042 312.929C677.108 312.633 676.113 312.297 675.057 311.895C672.81 311.043 670.524 310.086 668.167 309.054C666.146 308.169 666.061 307.704 663.916 306.73M678.042 312.929C678.042 308.485 678.354 306.325 680.855 301.551C681.882 299.59 683.254 296.212 684.577 292.115M678.042 333.521C677.35 332.369 676.84 330.742 676.648 328.493M678.042 333.521C676.984 334.163 675.474 334.738 674.05 334.637M674.05 334.637C672.889 334.554 671.785 334.022 671.032 332.709M670.055 328.493C670.122 330.394 670.485 331.757 671.032 332.709M671.032 332.709C668.319 334.108 663.098 333.585 663.916 320.308M684.577 292.115C686.477 286.235 688.276 278.876 688.813 272.108M684.577 292.115C685.824 292.617 688.255 294.435 691.369 295.396C694.144 296.251 697.463 296.232 700.976 297.004C701.887 297.204 702.75 297.436 703.568 297.695M703.568 297.695C711.117 300.077 715.381 304.629 718.97 305.757M703.568 297.695C705.146 294.187 710.12 287.275 717.391 287.693M718.97 305.757C718.734 304.538 718.575 303.402 718.483 302.46M718.97 305.757C719.903 310.563 722.026 316.639 725.872 317.011C731.896 317.595 727.463 305.757 731.215 305.757C734.215 305.757 736.557 307.954 737.353 309.054C737.277 306.401 734.875 299.504 725.872 293.139C722.401 290.685 719.632 288.955 717.391 287.693M717.391 287.693C712.363 284.862 709.981 284.384 708.252 283.362C706.815 282.514 702.947 281.301 699.73 280.39M696.428 279.498C697.305 279.722 698.467 280.032 699.73 280.39" stroke="black" stroke-width="2.80999" stroke-linecap="round" stroke-linejoin="round"/>
<path d="M717.847 297.05C717.502 297.883 717.33 301.084 717.49 302.948C718.381 303.825 719.5 304.917 719.534 302.812C719.569 300.706 718.337 297.711 717.847 297.05Z" fill="black"/>
<path d="M663.348 253.232C660.506 252.095 657.437 249.822 658.233 244.251C647.774 248.004 640.079 239.229 644.023 236.862C647.434 234.817 655.315 241.371 658.233 244.251C654.708 240.575 648.641 232.763 653.913 231.064C659.184 229.367 658.421 241.107 658.233 244.251C664.144 248.118 674.375 246.639 678.58 246.524C682.787 246.411 681.65 248.458 680.514 250.958C679.377 253.459 683.015 253.914 681.65 256.414C680.286 258.915 677.103 256.642 675.284 257.211C673.465 257.779 672.556 259.37 670.624 257.211C668.69 255.051 666.19 254.369 663.348 253.232Z" fill="black"/>
<path d="M658.233 244.251C657.437 249.822 660.506 252.095 663.348 253.232C666.19 254.369 668.69 255.051 670.624 257.211C672.556 259.37 673.465 257.779 675.284 257.211C677.103 256.642 680.286 258.915 681.65 256.414C683.015 253.914 679.377 253.459 680.514 250.958C681.65 248.458 682.787 246.411 678.58 246.524C674.375 246.639 664.144 248.118 658.233 244.251ZM658.233 244.251C658.421 241.107 659.184 229.367 653.913 231.064C648.641 232.763 654.708 240.575 658.233 244.251ZM658.233 244.251C655.315 241.371 647.434 234.817 644.023 236.862C640.079 239.229 647.774 248.004 658.233 244.251Z" stroke="black" stroke-width="2.80999" stroke-linecap="round" stroke-linejoin="round"/>
<path d="M634.13 317.804C633.649 317.743 633.188 317.672 632.743 317.593C630.314 317.158 628.386 316.463 626.663 315.576C623.216 321.329 621.739 325.762 619.806 327.126C617.873 328.491 618.329 330.102 622.875 332.707C624.797 333.807 628.77 335.56 633.721 337.217C633.608 332.897 634.485 326.22 642.556 319.627C639.394 318.792 636.456 318.104 634.13 317.804Z" fill="black"/>
<path d="M644.589 281.655C643.737 290.806 646.466 298.992 651.523 301.663L638.621 295.467C638.716 293.535 639.041 289.102 639.588 286.827C640.951 278.279 644.287 269.321 645.783 265.911C645.669 268.108 645.271 274.335 644.589 281.655Z" fill="black"/>
<path d="M689.012 272.745C689.014 272.581 689.019 272.42 689.026 272.257C689.026 272.408 689.021 272.571 689.012 272.745C688.842 283.064 697.199 295.437 702.36 297.502L692.009 295.467L684.531 292.183C685.969 287.297 688.785 276.865 689.012 272.745Z" fill="black"/>
<path d="M554.264 304.482C552.903 309.055 551.814 313.288 551.814 313.288C550.904 316.673 548.296 328.886 547.105 334.57C547.105 340.127 544.448 343.876 531.148 343.876C517.848 343.876 500.425 339.077 495.879 336.472C491.331 333.867 489.471 330.857 489.356 328.495C489.079 322.722 489.356 316.164 492.332 310.728C495.209 305.551 500.965 294.121 500.965 289.831C500.965 285.539 502.915 276.229 503.888 272.11C499.278 275.288 489.095 282.208 485.256 284.466C480.456 287.29 479.046 286.726 476.223 287.008C473.399 287.29 457.307 268.166 454.485 263.472C451.661 258.777 442.909 243.552 440.651 239.165C438.392 234.779 450.532 223.769 457.59 224.333C464.647 224.899 467.826 240.23 469.73 243.005C474.811 250.417 481.304 255.389 481.304 260.752C488.819 255.276 499.186 251.705 506.075 246.06C506.598 245.631 507.206 245.251 507.86 244.914C512.105 234.088 527.35 232.224 534.379 239.165C540.377 245.089 535.965 252.053 542.104 253.126C547.014 253.984 551.349 251.678 552.903 250.417C554.384 250.903 555.852 251.443 557.314 252.053C560.905 253.554 567.883 259.775 569.125 263.472C570.046 266.215 570.309 268.452 570.737 270.405C571.557 274.134 572.901 278.617 573.471 280.392C582.883 283.057 593.86 285.223 601.225 292.117C604.73 295.397 602.584 297.005 602.584 297.005C607.795 302.108 609.34 306.936 609.401 309.055C608.606 307.956 606.264 305.758 603.263 305.758C599.511 305.758 603.945 317.597 597.919 317.013C594.075 316.641 591.951 310.565 591.019 305.758C583.668 306.732 576.903 302.464 567.432 299.544C564.316 298.583 557.873 295.157 556.625 294.656C555.301 298.752 555.65 299.824 554.264 304.482Z" fill="#FEE900"/>
<path d="M560.86 272.11C560.325 278.878 558.525 288.776 556.625 294.656M556.625 294.656C555.301 298.752 555.65 299.824 554.264 304.482C552.903 309.055 551.814 313.288 551.814 313.288C550.904 316.673 548.296 328.886 547.105 334.57C547.105 340.127 544.448 343.876 531.148 343.876C517.848 343.876 500.425 339.077 495.879 336.472C491.331 333.867 489.471 330.857 489.356 328.495C489.079 322.722 489.356 316.164 492.332 310.728C495.209 305.551 500.965 294.121 500.965 289.831C500.965 285.539 502.915 276.229 503.888 272.11C499.278 275.288 489.095 282.208 485.256 284.466C480.456 287.29 479.046 286.726 476.223 287.008C473.399 287.29 457.307 268.166 454.485 263.472C451.661 258.777 442.909 243.552 440.651 239.165C438.392 234.779 450.532 223.769 457.59 224.333C464.647 224.899 467.826 240.23 469.73 243.005C474.811 250.417 481.304 255.389 481.304 260.752C488.819 255.276 499.186 251.705 506.075 246.06C506.598 245.631 507.206 245.251 507.86 244.914M556.625 294.656C557.873 295.157 564.316 298.583 567.432 299.544C576.903 302.464 583.668 306.732 591.019 305.758M507.86 244.914C512.105 234.088 527.35 232.224 534.379 239.165C540.377 245.089 535.965 252.053 542.104 253.126C547.014 253.984 551.349 251.678 552.903 250.417C554.384 250.903 555.852 251.443 557.314 252.053C560.905 253.554 567.883 259.775 569.125 263.472C570.046 266.215 570.309 268.452 570.737 270.405C571.557 274.134 572.901 278.617 573.471 280.392M507.86 244.914C508.743 244.457 509.71 244.077 510.667 243.753C511.525 243.463 512.376 243.219 513.152 243.005C516.821 243.005 519.994 241.098 523.379 243.005M591.019 305.758C590.782 304.54 590.622 303.404 590.53 302.462C591.616 298.824 595.548 292.64 602.584 297.005M591.019 305.758C591.951 310.565 594.075 316.641 597.919 317.013C603.945 317.597 599.511 305.758 603.263 305.758C606.264 305.758 608.606 307.956 609.401 309.055C609.341 306.936 607.795 302.108 602.584 297.005M602.584 297.005C602.584 297.005 604.73 295.397 601.225 292.117C593.86 285.223 582.883 283.057 573.471 280.392M570.17 279.5C571.045 279.724 572.208 280.034 573.471 280.392" stroke="#FEE900" stroke-width="2.80999" stroke-linecap="round" stroke-linejoin="round"/>
<path d="M560.856 272.11C560.321 278.878 559.113 286.443 557.213 292.324C556.495 294.545 556.11 296.985 555.833 299.164M570.166 279.5C571.041 279.725 576.472 279.5 580.484 280.772M553.149 248.471C552.62 251.963 547.01 253.985 542.1 253.127C535.961 252.054 542.1 237.894 525.502 234.721M523.375 243.006C519.99 241.099 516.817 243.006 513.148 243.006C512.371 243.22 511.521 243.464 510.663 243.754C509.706 244.078 508.739 244.458 507.856 244.915C507.202 245.252 506.594 245.632 506.071 246.061C504.386 247.442 499.42 249.001 497.673 251.154C493.722 253.127 487.793 253.413 485.817 256.236C484.235 258.494 480.265 261.129 478.477 262.164M591.015 305.759C590.778 304.541 590.618 303.404 590.526 302.463C591.612 298.825 595.544 292.641 602.58 297.006C607.791 302.108 609.336 306.937 609.397 309.056C608.602 307.957 606.26 305.759 603.258 305.759C599.507 305.759 603.941 317.598 597.915 317.014C594.071 316.642 591.947 310.566 591.015 305.759Z" stroke="black" stroke-width="2.80999" stroke-linecap="round" stroke-linejoin="round"/>
<path d="M488.356 329.282C487.99 326.722 487.113 317.458 490.619 310.158C498.601 293.538 500.023 282.739 503.041 268.941C503.041 275.995 503.887 293.349 503.887 299.565C503.887 307.335 499.936 316.086 499.936 321.733C499.936 327.379 503.062 338.576 508.415 341.87C502.841 340.434 498.535 339.049 496.518 338.135C491.574 335.892 488.7 331.696 488.356 329.282Z" fill="black"/>
<path d="M561.75 272.685C561.752 272.541 561.757 272.397 561.763 272.255C561.763 272.385 561.758 272.529 561.75 272.685C561.547 283.171 569.977 301.29 575.149 303.358L564.169 299.565L556.559 295.841C558.004 290.926 561.507 276.993 561.75 272.685Z" fill="black"/>
<path d="M685.7 218.452C686.163 218.597 686.663 218.317 686.817 217.825C686.971 217.334 686.722 216.818 686.259 216.673C685.797 216.527 685.297 216.808 685.142 217.299C684.988 217.791 685.238 218.307 685.7 218.452Z" fill="black"/>
<path d="M688.118 216.515C688.581 216.66 689.081 216.379 689.235 215.888C689.389 215.397 689.14 214.88 688.677 214.735C688.215 214.59 687.715 214.871 687.56 215.362C687.406 215.853 687.656 216.369 688.118 216.515Z" fill="black"/>
<path d="M695.888 217.668C696.35 217.813 696.85 217.533 697.005 217.041C697.159 216.55 696.909 216.034 696.447 215.889C695.984 215.743 695.484 216.024 695.33 216.515C695.176 217.007 695.425 217.523 695.888 217.668Z" fill="black"/>
<path d="M698.63 219.346C699.092 219.491 699.592 219.211 699.747 218.719C699.901 218.228 699.651 217.712 699.189 217.567C698.726 217.421 698.226 217.702 698.072 218.193C697.918 218.685 698.167 219.201 698.63 219.346Z" fill="black"/>
<path d="M696.235 220.757C696.698 220.903 697.198 220.622 697.352 220.131C697.507 219.639 697.257 219.123 696.794 218.978C696.332 218.833 695.832 219.113 695.678 219.605C695.523 220.096 695.773 220.612 696.235 220.757Z" fill="black"/>
<path d="M689.352 218.82C689.815 218.965 690.315 218.684 690.469 218.193C690.624 217.702 690.374 217.185 689.911 217.04C689.449 216.895 688.949 217.175 688.795 217.667C688.64 218.158 688.89 218.674 689.352 218.82Z" fill="black"/>
<path d="M614.021 345.232C614.965 341.591 619.021 335.064 620.93 332.254C637.054 334.951 670.209 339.939 673.849 338.321C678.399 336.299 691.882 338.659 697.108 339.333C702.332 340.007 710.253 342.03 711.263 348.603C712.275 355.176 709.915 358.377 708.23 363.264C706.544 368.152 703.511 374.051 701.658 376.477C704.345 380.713 703.48 384.207 701.658 387.701C699.635 391.578 698.118 395.791 695.085 399.668C692.051 403.544 687.163 412.982 682.108 419.554C677.051 426.127 666.94 440.62 663.57 443.991C660.199 447.362 657.165 449.721 650.93 448.204C644.694 446.687 640.649 444.328 638.795 441.801C636.942 439.272 641.492 435.06 644.694 428.15C647.896 421.24 650.256 420.229 652.614 415.005C654.502 410.825 662.839 397.42 666.771 391.241C662.558 389.893 648.739 386.186 643.346 382.479C637.952 378.77 628.852 373.377 626.323 371.691C623.796 370.007 616.718 363.434 614.021 359.389C611.325 355.344 612.842 349.783 614.021 345.232Z" fill="black"/>
<path d="M620.93 332.254C619.021 335.064 614.965 341.591 614.021 345.232C612.842 349.783 611.325 355.344 614.021 359.389C616.718 363.434 623.796 370.007 626.323 371.691C628.852 373.377 637.952 378.77 643.346 382.479C648.739 386.186 662.558 389.893 666.771 391.241C662.839 397.42 654.502 410.825 652.614 415.005C650.256 420.229 647.896 421.24 644.694 428.15C641.492 435.06 636.942 439.272 638.795 441.801C640.649 444.328 644.694 446.687 650.93 448.204C657.165 449.721 660.199 447.361 663.57 443.991C666.94 440.62 677.051 426.127 682.108 419.554C687.163 412.982 692.051 403.544 695.085 399.668C698.118 395.791 699.635 391.578 701.658 387.701C703.68 383.825 704.522 379.949 700.646 375.061C696.77 370.174 671.153 349.108 666.771 348.603" stroke="white" stroke-width="2.80999" stroke-linecap="round" stroke-linejoin="round"/>
<path d="M686.315 212.69C687.163 212.947 688.137 212.217 688.489 211.059C688.841 209.9 688.439 208.752 687.591 208.494C686.742 208.236 685.769 208.966 685.417 210.125C685.065 211.283 685.467 212.432 686.315 212.69Z" fill="black"/>
<path d="M699.284 215.857C700.132 216.115 701.105 215.385 701.458 214.226C701.81 213.068 701.408 211.919 700.559 211.661C699.711 211.403 698.738 212.134 698.386 213.292C698.033 214.451 698.436 215.599 699.284 215.857Z" fill="black"/>
<path d="M555.534 240.366L552.825 249.68C550.675 251.584 545.114 254.109 538.984 251.639C533.044 249.245 531.365 244.875 531.12 243.153C532.711 237.799 536.24 223.955 535.676 221.292C533.188 221.799 530.053 221.429 528.288 218.019C525.184 212.02 529.611 206.117 533.47 206.276C534.521 206.32 535.425 206.901 536.183 207.74L539.27 196.631C540.801 194.805 546.404 191.432 556.571 192.553C569.281 193.952 572.865 200.624 572.238 205.849C571.531 212.645 569.389 227.881 566.488 234.457C563.586 241.032 558.005 240.599 555.534 240.366Z" fill="white"/>
<path d="M552.534 250.611L555.181 241.495M555.181 241.495C557.652 241.729 563.586 241.032 566.488 234.457C569.389 227.881 571.531 212.645 572.238 205.849C572.865 200.624 569.281 193.952 556.571 192.553C546.404 191.432 540.801 194.805 539.27 196.631L536.183 207.74M555.181 241.495C551.748 241.173 543.388 238.335 541.293 234.111M536.183 207.74C535.425 206.901 534.521 206.32 533.47 206.276C529.611 206.117 525.184 212.02 528.288 218.019C530.771 222.819 535.968 221.596 538.257 220.385M536.183 207.74C537.647 209.364 538.557 211.96 538.903 213.515M531.395 243.511C532.986 238.158 536.24 223.955 535.676 221.292" stroke="black" stroke-width="2.80999" stroke-linecap="round"/>
<path d="M553.443 246.313C548.628 246.531 539.107 238.437 540.288 234.041C543.189 239.069 551.937 240.578 554.939 240.604L553.443 246.313Z" fill="black"/>
<path d="M556.676 232.327C552.978 231.883 548.755 230.91 547.593 228.979C546.666 227.435 546.228 224.472 546.125 223.184M534.682 212.325C533.141 210.359 531.522 211.261 531.197 212.669C530.873 214.077 532.189 216.406 534.387 215.463M568.506 206.005C568.126 204.639 566.534 204.032 565.093 204.639M553.629 202.591C552.734 202.251 550.672 201.815 549.583 202.786M553.628 222.931C554.846 223.909 557.481 224.894 559.197 224.894C562.21 224.894 563.839 222.237 561.527 218.748C559.807 216.153 560.58 212.68 562.21 210.935" stroke="black" stroke-width="2.80999" stroke-linecap="round"/>
<path d="M601.646 306.605C597.895 306.605 602.598 312.76 597.917 317.014C594.054 317.014 590.257 311.412 589.324 306.605C588.904 304.444 589.093 302.192 590.061 300.214C591.96 296.331 595.693 291.634 601.646 292.77C609.384 294.246 616.243 306.605 610.319 311.81C609.523 310.711 604.647 306.605 601.646 306.605Z" fill="white" stroke="black" stroke-width="2.80999" stroke-linecap="round" stroke-linejoin="round"/>
<path fill-rule="evenodd" clip-rule="evenodd" d="M600.107 309.796C599.989 307.942 599.903 306.61 601.649 306.61C604.65 306.61 609.526 310.714 610.322 311.813C610.387 311.756 610.449 311.699 610.511 311.64C611.126 319.127 609.743 328.551 601.938 333.049C591.206 339.233 572.077 332.738 562.831 328.645C562.831 328.645 532.252 316.46 536.138 309.613C537.983 306.36 544.947 308.765 551.004 311.691C552.572 312.449 554.129 313.239 555.686 314.027C560.788 316.613 565.892 319.199 571.4 320.694C579.711 322.948 587.35 323.673 592.161 321.908C595.498 320.685 597.361 318.549 598.323 316.624C600.402 314.425 600.235 311.804 600.107 309.796Z" fill="black"/>
<path d="M547.704 253.125C550.032 255.664 549.608 260.529 549.608 266.029C549.608 270.43 551.16 273.363 551.936 274.28M537.974 250.798C535.435 251.01 534.377 259.683 532.686 262.857C531.332 265.394 528.454 267.298 525.07 266.029" stroke="black" stroke-width="2.80999" stroke-linecap="round" stroke-linejoin="round"/>
<path d="M542.238 200.989C541.157 206.617 539.912 218.881 538.133 210.843C538.133 206.575 534.848 205.413 533.206 205.366C533.205 197.577 528.049 184.942 533.206 180.938C535.304 179.309 538.142 183.329 540.379 182.558C542.616 181.787 543.238 177.229 546.323 176.381C549.409 175.532 550.87 180.708 554.187 180.245C557.503 179.783 557.728 176.157 560.82 176.774C563.552 177.32 561.822 181.092 564.676 182.558C567.53 184.025 569.381 179.32 572.39 179.783C575.398 180.245 575.787 183.409 575.787 185.986C575.787 188.948 574.995 196.202 571.663 200.989C568.326 197.577 543.999 191.817 542.238 200.989Z" fill="black" stroke="black" stroke-width="2.80999" stroke-linecap="round" stroke-linejoin="round"/>
<path d="M435.285 99.0181L443.324 253.443C444.049 267.37 447.575 266.862 449.247 264.866L443.324 99.0181H435.285Z" fill="white" stroke="black" stroke-width="2.80999" stroke-linecap="round" stroke-linejoin="round"/>
<path d="M443.584 210.909C449.281 209.971 457.065 218.026 459.234 225.119C460.165 229.64 453.74 235.762 451.328 235.867C448.505 237.958 443.175 237.453 441.404 237.453C436.962 237.453 435.482 234.482 437.067 231.742C433.896 230.535 433.683 226.813 436.116 225.119C433.151 223.54 433.681 219.556 436.116 218.099C432.938 215.223 434.42 209.962 442.249 211.411C442.57 211.177 443.009 211.003 443.584 210.909Z" fill="white"/>
<path d="M451.328 235.867C453.74 235.762 460.165 229.64 459.234 225.119C457.065 218.026 449.281 209.971 443.584 210.909C443.009 211.003 442.57 211.177 442.249 211.411M451.328 235.867C448.505 237.958 443.175 237.453 441.404 237.453C436.962 237.453 435.482 234.482 437.067 231.742M451.328 235.867C452.48 233.6 450.767 231.028 447.952 230.898M442.249 211.411C434.42 209.962 432.938 215.223 436.116 218.099M442.249 211.411C440.524 212.672 442.244 215.726 444.7 218.099M437.067 231.742C433.896 230.535 433.683 226.813 436.116 225.119M437.067 231.742C440.472 231.397 445.3 231.314 447.952 230.898M447.952 230.898C450.604 230.481 453.568 227.723 449.707 225.119M436.116 218.099C433.681 219.556 433.151 223.54 436.116 225.119M436.116 218.099H444.7M444.7 218.099C447.115 218.099 449.707 218.732 451.328 220.107C452.947 221.482 453.159 225.119 449.707 225.119M436.116 225.119C439.496 225.119 446.946 225.12 449.707 225.119" stroke="black" stroke-width="2.80999" stroke-linecap="round" stroke-linejoin="round"/>
<path d="M376.777 153.157C384.601 132.034 418.463 121.037 440.915 133.542C443.404 134.929 446.77 133.648 447.211 130.832C455.644 77.1137 447.719 31.4074 440.668 8.50131C439.688 5.31555 435.155 5.10801 433.041 7.68492C411.602 33.8155 348.818 26.5602 271.007 78.6932C210.767 119.054 209.048 189.213 217.55 229.416C218.342 233.162 223.67 233.104 224.965 229.501C233.617 205.402 253.564 174.031 287.929 176.848C339.546 181.079 368.316 176.004 376.777 153.157Z" fill="#FEE900"/>
<mask id="mask0_3512_835" style="mask-type:luminance" maskUnits="userSpaceOnUse" x="255" y="54" width="177" height="107">
<path d="M413.476 54.1548L255.07 103.359L272.801 160.441L431.207 111.237L413.476 54.1548Z" fill="white"/>
</mask>
<g mask="url(#mask0_3512_835)">
<path d="M415.445 94.1912C414.673 91.5533 416.463 89.5958 419.503 90.1186C422.543 90.6413 425.733 93.4598 426.494 96.0919C427.263 98.7213 425.324 100.198 422.286 99.6842C419.249 99.1699 416.208 96.8318 415.445 94.1912Z" fill="black"/>
<path d="M396.686 97.9567C403.161 97.1866 405.674 91.0454 403.833 81.6668C401.993 72.2883 396.853 63.7083 389.696 64.2201C383.129 64.6984 381.035 72.1864 382.963 81.848C384.854 91.2957 389.629 98.7943 396.686 97.9567ZM398.46 99.9449C388.648 102.175 379.655 96.5976 377.148 86.8617C374.191 77.4062 376.771 64.5762 387.902 62.2002C398.795 60.754 407.561 69.4768 410.456 79.2804C413.843 88.9124 408.555 98.3232 398.46 99.9449Z" fill="black"/>
<path d="M368.87 75.6924C368.413 85.0605 367.995 94.4352 367.626 103.814C361.297 96.1865 358.158 92.4402 351.884 84.9845C351.409 84.3043 351.075 83.8344 350.908 83.2656C350.403 81.5507 351.665 80.5284 354.73 78.2223C354.52 77.5162 354.417 77.1533 354.215 76.4446C348.528 79.7536 345.736 81.5711 340.141 85.1803C340.351 85.8863 340.455 86.2492 340.655 86.9579C343.177 86.0808 343.618 86.4138 344.634 87.5653C352.194 95.9763 359.731 104.404 367.227 112.882C367.151 114.579 367.117 115.436 367.043 117.134C366.958 119.859 366.45 121.859 365.615 123.408C365.164 124.197 364.328 124.109 363.836 123.585C362.778 122.512 361.218 122.273 359.667 123.243C357.604 124.533 356.347 127.453 357.109 130.057C357.87 132.661 360.36 133.984 363.384 132.029C366.716 129.951 368.779 125.387 369.081 119.218C369.807 103.719 370.56 88.2211 371.499 72.7408C371.615 71.0586 371.862 70.2768 374.198 68.6857C373.989 67.9798 373.888 67.6254 373.687 66.9167C369.295 68.582 367.143 69.5604 362.909 71.7033C363.119 72.4093 363.22 72.7636 363.424 73.4809C366.869 72.2507 368.257 71.8759 368.754 73.5934C368.921 74.1622 368.966 74.7881 368.886 75.6871L368.87 75.6924Z" fill="black"/>
<path d="M328.026 92.4426C335.811 87.5037 341.661 90.8314 343.965 98.7024C344.137 99.2883 344.222 99.5912 344.394 100.177C336.008 105.575 331.863 108.462 323.341 113.422C326.209 125.05 333.234 128.529 339.812 124.332C344.363 121.423 346.381 117.26 347.463 111.967C347.814 111.943 347.996 111.924 348.346 111.9C348.609 118.985 345.562 126.28 338.973 130.443C330.421 136.335 321.644 129.788 319.466 120.993C316.489 110.801 318.916 98.7238 328.036 92.4485L328.026 92.4426ZM328.174 95.011C323.293 98.0979 321.757 104.66 322.936 111.272C329.145 107.641 332.191 105.642 338.306 101.682C336.465 95.3606 333.116 91.877 328.18 94.9997L328.174 95.011Z" fill="black"/>
<path d="M274.459 142.347C273.874 130.772 273.226 119.209 272.54 107.646C272.281 103.391 270.791 103.469 265.525 102.565C265.496 101.831 265.474 101.461 265.441 100.719C273.789 101.221 277.727 100.731 285.344 98.9103C285.394 99.7039 285.422 100.099 285.472 100.893C280.282 102.778 279.23 103.085 279.518 107.162C279.941 113.577 280.139 116.76 280.534 123.09C288.684 122.683 297.804 120.311 305.255 117.018C304.711 110.209 304.441 106.795 303.88 99.9338C303.493 95.2669 302.157 95.8416 297.55 97.0564C297.493 96.2372 297.459 95.8245 297.402 95.0051C304.681 92.0671 308.18 90.1618 315.107 86.1199C315.172 86.965 315.211 87.3947 315.276 88.2397C310.58 91.7112 309.678 92.4994 310.067 96.9022C311.158 109.862 312.232 122.826 313.29 135.797C313.671 140.446 315.075 140.094 319.571 138.52C319.633 139.357 319.667 139.769 319.729 140.606C312.616 144.076 308.991 145.577 301.404 147.493C301.355 146.698 301.323 146.295 301.274 145.502C306.424 143.488 307.299 142.613 306.948 138.331C306.37 130.874 306.073 127.129 305.472 119.593C298 122.846 288.85 125.153 280.695 125.484C281.128 132.479 281.338 135.941 281.736 142.823C281.987 147.053 283.605 147.388 288.655 147.597C288.696 148.364 288.719 148.743 288.758 149.502C280.727 150.021 276.548 149.739 267.664 147.476C267.644 146.778 267.631 146.434 267.611 145.734C273.669 146.645 274.662 146.178 274.457 142.338L274.459 142.347Z" fill="black"/>
</g>
<path d="M560.55 205.39C553.543 203.871 544.557 203.85 538.514 204.343C536.582 204.501 536.28 206.593 538.121 207.199C539.547 207.669 540.599 209.047 541.019 210.488C541.866 213.386 544.305 216.934 549.096 217.477C557.324 218.41 558.804 211.715 561.156 212.065C563.509 212.414 563.176 214.981 564.44 217.477C565.704 219.973 568.666 222.048 573.335 221.683C578.006 221.32 578.159 212.882 576.933 210.776C575.711 208.677 571.845 207.839 560.649 205.411L560.55 205.39Z" fill="#FEE900"/>
<path d="M312.184 455.576C320.685 442.508 319.978 426.609 334.147 407.016C336.063 404.365 336.477 400.64 336.079 397.394C335.384 391.736 335.664 383.769 335.299 380.434C326.409 313.389 355.172 323.586 363.733 328.981C369.062 332.339 361.93 372.858 361.175 381.367C361.119 402.916 360.732 415.137 352.199 422.492C345.373 428.377 332.425 452.967 327.21 463.861L315.382 466.539L312.184 455.576Z" fill="white" stroke="black" stroke-width="2.80999" stroke-linecap="round" stroke-linejoin="round"/>
<path d="M327.459 463.668C316.1 463.704 312.309 455.487 312.309 455.487C309.059 460.762 307.967 468.384 303.783 470.608C298.553 473.389 294.931 484.194 295.386 488.202C295.751 491.411 300.347 492.805 302.6 493.102L305.136 489.066C305.497 489.522 305.827 490.122 306.42 490.543C312.742 495.044 310.779 500.2 327.446 504.343L333.2 502.188C327.092 495.273 319.542 479.26 321.08 475.502C322.618 471.745 326.207 466.029 327.459 463.668Z" fill="black"/>
<path d="M303.324 484.938C303.124 485.372 303.29 486.738 305.136 489.066M305.136 489.066C305.497 489.522 305.827 490.122 306.42 490.543C312.742 495.044 310.779 500.2 327.446 504.343L333.2 502.188C327.092 495.273 319.542 479.26 321.08 475.502C322.618 471.745 326.207 466.029 327.459 463.668C316.1 463.704 312.309 455.487 312.309 455.487C309.059 460.762 307.967 468.384 303.783 470.608C298.553 473.389 294.931 484.194 295.386 488.202C295.751 491.411 300.347 492.805 302.6 493.102L305.136 489.066Z" stroke="black" stroke-width="2.80999" stroke-linecap="round" stroke-linejoin="round"/>
<path d="M390.519 449.983C391.751 433.297 382.122 418.87 387.192 391.416C383.242 389.319 353.708 375.047 347.65 371.931C321.027 358.237 331.692 345.801 336.727 340.692C344.114 338.382 366.783 349.424 372.369 351.902C413.538 370.158 414.528 386.784 410.599 397.342C407.456 405.787 406.995 437.939 407.678 449.999L390.519 449.983Z" fill="white" stroke="black" stroke-width="2.80999" stroke-linecap="round" stroke-linejoin="round"/>
<path d="M407.693 446.125C397.877 451.841 390.482 446.625 390.482 446.625C390.309 452.817 393.178 459.962 390.668 463.982C387.533 469.008 389.803 480.174 392.204 483.417C394.125 486.012 398.803 484.919 400.902 484.048L401.078 479.286C401.617 479.5 402.204 479.853 402.927 479.921C410.654 480.653 411.534 486.1 428.039 481.346L431.941 476.6C423.191 473.67 408.641 463.586 408.092 459.563C407.543 455.54 407.791 448.796 407.693 446.125Z" fill="black"/>
<path d="M397.442 476.618C397.487 477.094 398.313 478.192 401.078 479.286M401.078 479.286C401.617 479.5 402.204 479.853 402.927 479.921C410.654 480.653 411.534 486.1 428.039 481.346L431.941 476.6C423.191 473.67 408.641 463.586 408.092 459.563C407.543 455.54 407.791 448.796 407.693 446.125C397.877 451.841 390.482 446.625 390.482 446.625C390.309 452.817 393.178 459.962 390.668 463.982C387.533 469.008 389.803 480.174 392.204 483.417C394.125 486.012 398.803 484.919 400.902 484.048L401.078 479.286Z" stroke="black" stroke-width="2.80999" stroke-linecap="round" stroke-linejoin="round"/>
<path d="M359.8 399.363C352.29 399.891 337.8 403.488 332.617 410.892C333.569 409.482 335.664 405.857 336.425 402.642C337.186 399.426 336.107 396.648 335.472 395.661L351.867 383.392L363.745 387.716L359.8 399.363Z" fill="black"/>
<path d="M398.288 389.887C394.949 391.321 387.965 395.949 386.75 402.98V392.671L392.248 385.764L398.288 389.887Z" fill="black"/>
<path d="M295.52 374.699C300.816 370.151 326.738 335.607 338.91 318.958L376.404 322.822L392.407 384.993C390.617 392.153 379.28 397.971 373.835 399.984L372.536 387.291C370.208 397.138 359.216 399.015 354.144 398.866V387.291C351.818 394.81 339.899 396.852 334.23 397.076L335.328 384.993C327.81 389.827 316.254 389.245 311.407 388.349L314.332 381.302C304.486 380.945 297.683 376.714 295.52 374.699Z" fill="#FFE900"/>
<path d="M394.741 390.432L384.233 363.548L370.836 327.25L407.657 372.958C409.074 382.974 399.519 388.726 394.741 390.432Z" fill="#FFE900"/>
<path d="M295.52 374.699C297.683 376.713 304.486 380.944 314.332 381.302M321.252 364.63L311.407 388.349C316.254 389.243 327.81 389.825 335.328 384.993M336.915 367.539L334.23 397.075C339.899 396.852 351.818 394.81 354.144 387.291M354.144 370V398.865C359.216 399.014 370.208 397.136 372.536 387.291M370.926 371.567L373.835 399.984C379.28 397.971 390.617 392.153 392.407 384.993" stroke="black" stroke-width="2.80999" stroke-linecap="round" stroke-linejoin="round"/>
<path d="M384.23 363.548L394.739 390.432C399.517 388.724 409.072 382.974 407.655 372.956" stroke="black" stroke-width="2.80999" stroke-linecap="round" stroke-linejoin="round"/>
<path d="M365.837 308.038C375.757 312.821 381.737 319.136 384.96 319.634C388.99 320.257 391.236 314.998 396.551 315.708C400.803 316.277 400.739 319.045 400.187 320.348C401.965 320.93 403.584 321.602 403.92 322.17C404.358 322.911 404.233 324.21 402.602 324.524C404.371 325.887 403.59 329.275 401.96 329.174C402.366 330.505 401.954 333.168 399.918 333.289C399.794 335.023 399.432 336.954 395.899 337.044C395.118 337.064 394.192 336.968 393.177 336.763C389.6 336.038 384.919 333.942 381.579 330.666C377.291 326.461 359.655 323.97 352.471 315.147C350.158 306.72 360.418 306.897 365.837 308.038Z" fill="white"/>
<path d="M400.187 320.348C400.739 319.045 400.803 316.277 396.551 315.708C391.236 314.998 388.99 320.257 384.96 319.634C381.737 319.136 375.757 312.821 365.837 308.038C360.418 306.897 350.158 306.72 352.471 315.147C359.655 323.97 377.291 326.461 381.579 330.666C385.867 334.871 392.366 337.133 395.899 337.044C399.432 336.954 399.794 335.023 399.918 333.289M399.918 333.289C401.954 333.168 402.366 330.505 401.96 329.174M399.918 333.289C398.737 333.36 396.721 333.718 393.708 332.619M395.863 323.498C399.128 324.986 401.388 324.758 402.602 324.524M395.863 323.498C392.444 322.13 392.018 326.544 394.928 327.679M395.863 323.498C392.059 322.376 393.766 318.646 396.113 319.204C398.461 319.763 403.309 321.138 403.92 322.17C404.358 322.911 404.233 324.21 402.602 324.524M402.602 324.524C404.371 325.887 403.59 329.275 401.96 329.174M394.928 327.679C396.523 328.522 400.655 329.094 401.96 329.174M394.928 327.679C390.656 327.061 391.616 331.476 393.708 332.619M393.708 332.619C391.805 331.735 388.667 334.335 393.177 336.763" stroke="black" stroke-width="2.80999" stroke-linecap="round" stroke-linejoin="round"/>
<path d="M389.525 243.265C396.609 238.86 394.728 228.833 392.517 208.95C385.886 203.062 370.556 195.215 357.297 216.317C354.762 216.509 351.694 218.686 351.993 223.118C352.582 225.759 354.28 226.693 355.056 226.83C357.287 238.538 353.202 247.615 352.98 249.634C356.128 259.565 371.25 258.631 372.618 256.189C373.452 253.61 372.459 251.283 374.429 246.237C379.149 249.035 385.897 245.52 389.525 243.265Z" fill="white"/>
<path d="M393.532 212.597C395.659 236.085 395.816 237.516 389.578 242.799C385.033 246.648 381.085 247.833 377.458 247.279C376.628 247.152 375.541 246.833 374.362 246.323M374.362 246.323C371.797 245.213 368.797 243.203 367.069 240.322M374.362 246.323C373.966 249.926 373.655 251.691 372.895 258.593C372.488 262.296 356.13 261.257 352.98 251.326C353.202 249.309 357.44 241.913 356.313 227.188M359.883 227.581C357.786 227.612 353.529 226.787 353.291 223.241C352.993 218.809 355.596 215.864 360.251 216.377M359.883 221.327C356.694 218.404 355.471 225.247 359.485 223.721" stroke="black" stroke-width="2.80999" stroke-linecap="round" stroke-linejoin="round"/>
<path d="M387.635 209.883C387.288 208.037 384.819 204.78 380.489 202.732C383.173 210.884 379.926 214.742 377.966 215.652C378.613 213.775 378.26 211.312 378.004 210.315C373.6 213.208 375.295 217.793 373.88 217.087C372.748 216.523 372.106 212.991 371.925 211.296C366.183 220.64 373.23 222.28 369.513 221.792C366.539 221.402 365.74 217.527 365.712 215.639C362.993 220.366 365.495 222.607 366.231 225.908C366.968 229.211 365.012 230.566 364.752 229.359C364.492 228.152 365.016 226.246 363.443 223.402C361.871 220.558 362.241 219.342 363.867 215.985C365.494 212.629 367.611 208.385 364.965 209.586C362.847 210.547 360.684 214.842 360.068 216.634C354.469 215.389 352.126 221.019 353.88 224.355C355.283 227.023 357.087 227.753 358.501 227.516C358.556 233.304 361.793 236.388 363.443 236.858C362.774 239.377 360.509 240.098 359.01 239.435C357.512 238.771 355.319 235.021 355.165 236.418C355.035 243.311 360.934 243.96 359.063 245.254C357.938 246.329 354.887 246.079 353.502 245.819C353.614 246.225 354.158 247.133 355.435 247.525C357.031 248.014 357.878 250.308 351.469 248.581C345.061 246.854 345.591 242.749 344.653 244.138C343.902 245.25 344.516 247.763 344.916 248.881C342.509 247.908 340.065 243.712 340.716 239.934C341.368 236.157 343.727 233.274 343.835 228.729C343.942 224.185 340.452 217.359 343.298 208.637C346.143 199.917 353.913 192.838 362.389 192.2C370.865 191.562 372.329 196.829 372.723 195.38C373.039 194.221 372.243 192.132 371.28 191.372C379.761 188.534 389.166 193.733 394.372 199.256C399.577 204.779 397.887 212.998 396.857 218.776C395.764 228.711 398.169 227.563 400.848 233.199C404.171 240.192 401.358 243.009 398.998 243.037C400.678 242.043 401.68 238.476 400.582 235.606C399.485 232.735 397.215 231.228 397.112 232.16C397.01 233.091 398.496 235.298 397.74 238.592C397.13 241.275 394.734 242.346 394.029 244.469C393.465 246.166 394.597 248.354 395.233 249.236C391.122 250.605 389.007 248.943 388.462 247.94C384.655 249.406 383.737 247.573 383.753 246.473C385.59 245.736 387.523 244.541 389.578 242.8C395.791 237.537 395.644 235.738 393.541 212.52C392.681 216.039 390.015 217.529 389.764 216.952C389.513 216.373 391.004 214.966 391.33 213.431C391.591 212.203 390.211 209.799 389.489 208.751C389.584 210.018 389.634 212.569 389.061 212.632C388.346 212.71 387.982 211.728 387.635 209.883Z" fill="black" stroke="black" stroke-width="2.80999" stroke-linecap="round" stroke-linejoin="round"/>
<path d="M360.154 227.44C359.13 229.606 359.92 234.563 362.835 235.905M360.154 227.44C359.569 228.947 358.476 232.833 358.783 236.323M360.154 227.44C359.805 228.946 358.112 232.29 354.133 233.612" stroke="#FFE900" stroke-width="2.80999" stroke-linecap="round" stroke-linejoin="round"/>
<path d="M387.163 224.841C387.002 227.023 389.935 228.918 390.394 230.46C390.852 232.003 387.344 233.188 386.066 231.241M383.088 236.193C381.106 237.074 377.449 236.043 376.642 231.241M394.173 217.956C393.572 217.235 391.974 215.813 390.394 215.889M380.427 215.575C379.555 215.402 377.475 215.423 376.117 216.908" stroke="black" stroke-width="2.80999" stroke-linecap="round" stroke-linejoin="round"/>
<path d="M390.637 224.564C389.794 224.565 389.107 223.633 389.105 222.48C389.102 221.327 389.784 220.392 390.628 220.39C391.472 220.388 392.158 221.321 392.161 222.473C392.163 223.626 391.481 224.562 390.637 224.564Z" fill="black"/>
<path d="M378.872 224.569C378.028 224.571 377.342 223.638 377.339 222.486C377.337 221.333 378.019 220.397 378.863 220.395C379.706 220.394 380.393 221.326 380.395 222.479C380.398 223.632 379.716 224.568 378.872 224.569Z" fill="black"/>
<path d="M350.553 236.883C350.069 238.104 349.522 241.167 351.209 243.652" stroke="white" stroke-width="2.80999" stroke-linecap="round" stroke-linejoin="round"/>
<path d="M353.139 249.369C352.611 253.388 347.428 255.186 341.557 259.047C341.557 259.047 346.423 307.911 335 323.142C348.543 331.029 369.667 333.321 378.628 331.392C378.623 328.816 377.135 326.636 378.628 319.122C380.12 311.609 380.459 307.676 382.596 298.605C387.649 277.149 371.991 274.232 373.129 256.084C373.129 256.084 366.943 257.486 361.917 256.084C355.095 254.181 353.139 249.369 353.139 249.369Z" fill="black" stroke="black" stroke-width="2.80999" stroke-linecap="round" stroke-linejoin="round"/>
<path d="M361.898 261.063C363.874 262.917 371.291 264.321 374.592 262.121" stroke="white" stroke-width="2.80999" stroke-linecap="round" stroke-linejoin="round"/>
<path d="M356.104 264.379C354.556 255.178 340.181 253.837 336.736 266.294C334.338 279.286 335.977 323.063 347.696 324.625C361.051 326.405 384.444 310.695 391.554 310.842C398.664 310.991 406.105 307.668 409.08 304.725C412.055 301.781 411.131 300.336 409.832 298.74C411.49 296.984 410.101 295.143 408.67 294.326C410.159 293.089 408.466 290.329 405.834 290.589C406.986 288.994 405.834 288.07 404.809 288.07C404.022 288.07 402.239 288.829 400.383 289.747C399.802 288.175 398.158 285.981 394.03 288.94C388.868 292.639 389.501 295.851 385.519 298.583C382.875 300.396 371.105 302.741 360.068 305.727C360.594 299.582 357.343 271.738 356.104 264.379Z" fill="white"/>
<path d="M360.068 305.727C360.594 299.582 357.343 271.738 356.104 264.379C354.556 255.178 340.181 253.837 336.736 266.294C334.338 279.286 335.977 323.063 347.696 324.625C361.051 326.405 384.444 310.695 391.554 310.842C398.664 310.991 406.105 307.668 409.08 304.725C412.055 301.781 411.131 300.336 409.832 298.74M409.832 298.74C411.49 296.984 410.101 295.143 408.67 294.326M409.832 298.74C408.871 299.759 407.345 301.37 403.853 302.868M353.456 307.647C365.893 303.724 382.334 300.768 385.519 298.583C389.501 295.851 388.868 292.639 394.03 288.94C398.158 285.981 399.802 288.175 400.383 289.747M396.25 291.963C398.727 290.539 403.388 288.07 404.809 288.07C405.834 288.07 406.986 288.994 405.834 290.589M405.834 290.589C404.977 291.775 403.212 293.805 399.19 295.172M405.834 290.589C408.466 290.329 410.159 293.089 408.67 294.326M408.67 294.326C407.481 295.315 403.452 298.174 401.394 298.74" stroke="black" stroke-width="2.80999" stroke-linecap="round" stroke-linejoin="round"/>
<path d="M358.197 278.334C354.865 281.973 342.258 287.818 335.474 282.441C334.236 274.938 334.519 259.486 345.554 257.706C356.589 255.926 358.581 270.716 358.197 278.334Z" fill="black" stroke="black" stroke-width="2.80999" stroke-linecap="round" stroke-linejoin="round"/>
</svg>
