<svg width="335" height="290" viewBox="0 0 335 290" fill="none" xmlns="http://www.w3.org/2000/svg">
<path d="M157.294 276.169C155.149 273.554 151.793 267.493 149.793 265.42C148.193 263.761 144.691 258.958 144.226 256.859M144.226 256.859C143.852 260.15 142.943 267.647 142.299 271.301C141.656 274.955 141.318 278.817 141.23 280.291M144.226 256.859C142.953 257.749 139.077 261.046 137.637 261.433C135.838 261.917 126.978 269.906 123.362 271.167M144.226 256.859C139.273 256.127 128.685 254.421 125.957 253.452C123.229 252.483 121.503 251.94 120.98 251.791M144.226 256.859C141.152 253.656 134.555 246.867 132.757 245.339C130.96 243.811 128.768 240.996 127.897 239.779M144.226 256.859C143.803 254.072 142.685 247.7 141.601 244.51C140.517 241.32 140.11 236.885 140.042 235.066M144.226 256.859C146.333 252.232 151.377 245.075 151.735 243.818C152.094 242.561 154.519 238.718 155.358 237.527M144.226 256.859C146.103 256.064 150.748 254.991 153.342 253.443C156.587 251.508 162.17 248.944 164.684 249.332" stroke="black" stroke-width="1.88091" stroke-linecap="round" stroke-linejoin="round"/>
<path fill-rule="evenodd" clip-rule="evenodd" d="M125.255 275.409C126.748 277.079 128.431 278.961 130.322 280.056C133.334 281.8 136.55 282.869 139.797 283.312C143.592 283.829 148.621 283.286 152.22 282.163C155.566 281.119 158.707 279.399 161.422 277.061C163.586 275.197 165.382 272.58 166.89 269.962C169.054 266.203 170.274 262.489 170.446 258.435C170.586 255.155 170.376 252.547 169.318 249.469C168.294 246.493 166.46 243.035 164.404 240.575C162.507 238.304 160.188 236.323 157.482 234.756C154.557 233.063 148.262 231.446 144.909 231.263C142.164 231.114 139.422 231.404 136.79 232.107C133.604 232.958 130.579 234.415 127.9 236.425C125.439 238.273 124.102 240.62 122.533 243.371C122.362 243.672 122.189 243.976 122.011 244.286C120.658 246.635 119.712 249.107 119.151 251.62C118.559 254.269 118.395 256.964 118.632 259.609C118.825 261.775 119.288 263.908 120.006 265.955C120.122 266.284 120.232 266.603 120.34 266.916C121.319 269.752 122.076 271.947 124.277 274.328C124.593 274.67 124.919 275.034 125.255 275.409ZM129.365 272.034C130.576 273.389 131.941 274.915 133.473 275.801C135.916 277.215 138.523 278.083 141.155 278.441C144.195 278.856 148.297 277.576 151.21 276.667L151.314 276.634C154.026 275.788 156.573 274.393 158.773 272.498C160.528 270.987 161.898 269.741 163.121 267.618C164.876 264.571 165.864 261.56 166.004 258.273C166.098 256.065 165.52 254.468 164.831 252.562C164.69 252.172 164.545 251.77 164.399 251.346C163.569 248.933 162.485 246.287 160.819 244.292C159.28 242.451 157.4 240.845 155.206 239.574C153.845 238.786 152.09 238.195 150.651 237.74C150.208 237.6 149.75 237.438 149.284 237.272C147.964 236.805 146.578 236.313 145.301 236.244C143.074 236.122 140.852 236.358 138.718 236.927C136.135 237.618 132.677 239.812 130.506 241.443C128.51 242.941 127.426 244.844 126.155 247.074C126.016 247.318 125.875 247.565 125.731 247.816C124.634 249.72 123.867 251.725 123.412 253.762C122.933 255.91 122.799 258.094 122.991 260.239C123.092 261.366 123.54 262.301 124.002 263.264C124.26 263.803 124.523 264.35 124.731 264.944C125.674 267.633 126.593 269.016 128.573 271.157C128.829 271.435 129.093 271.731 129.365 272.034Z" fill="black"/>
<path d="M152.386 256.745C152.386 261.26 149.127 265.459 144.623 265.459C140.12 265.459 135.98 263.022 135.98 258.507C135.98 253.991 140.12 249.107 144.623 249.107C149.127 249.107 152.386 252.229 152.386 256.745Z" fill="black"/>
<path d="M315.347 261.279C315.347 265.794 312.088 269.994 307.585 269.994C303.081 269.994 298.941 267.556 298.941 263.041C298.941 258.526 303.081 253.642 307.585 253.642C312.088 253.642 315.347 256.763 315.347 261.279Z" fill="black"/>
<path d="M318.157 243.418C316.972 246.588 313.415 252.532 312.625 255.306C311.993 257.525 309.595 262.967 308.014 264.42M308.014 264.42C311.044 263.1 317.973 260.141 321.451 258.873C324.929 257.605 328.433 255.966 329.75 255.306M308.014 264.42C309.419 265.081 314.206 266.798 315.26 267.855C316.577 269.175 327.906 272.874 330.804 275.384M308.014 264.42C309.858 269.088 313.678 279.135 314.206 281.989C314.732 284.841 315.128 286.611 315.26 287.14M308.014 264.42C306.785 268.691 304.22 277.814 303.799 280.139C303.377 282.464 302.042 285.775 301.427 287.14M308.014 264.42C305.818 266.181 300.874 270.338 298.66 272.874C296.447 275.41 292.82 277.982 291.283 278.95M308.014 264.42C302.964 264.904 294.261 264.104 292.996 264.42C291.731 264.737 287.199 264.553 285.75 264.42M308.014 264.42C306.389 263.187 303.139 259.691 300.505 258.212C297.211 256.363 292.206 252.796 291.283 250.419" stroke="black" stroke-width="1.88091" stroke-linecap="round" stroke-linejoin="round"/>
<path d="M222.803 233.019C221.846 227.763 215.453 191.036 214.688 186.546C215.988 186.371 218.56 186.339 218.446 187.609C218.304 189.197 226.656 230.141 227.502 234.348C228.179 237.713 231.672 249.397 232.865 253.091L227.788 251.655C225.797 244.893 224.057 239.91 222.803 233.019Z" fill="white" stroke="black" stroke-width="1.88091" stroke-linecap="round" stroke-linejoin="round"/>
<path fill-rule="evenodd" clip-rule="evenodd" d="M333.519 271.616C334.214 269.483 334.998 267.081 334.998 264.892C334.998 261.405 334.314 258.077 333.073 255.037C331.622 251.482 328.639 247.386 325.869 244.822C323.294 242.439 320.238 240.571 316.862 239.384C314.169 238.436 311.011 238.185 307.996 238.185C303.668 238.185 299.85 238.983 296.262 240.861C293.359 242.38 291.212 243.866 289.083 246.323C287.024 248.7 284.953 252.021 283.857 255.037C282.845 257.819 282.293 260.824 282.293 263.958C282.293 267.342 284.044 273.618 285.562 276.621C286.805 279.08 288.428 281.316 290.351 283.249C292.679 285.59 295.449 287.489 298.526 288.81C301.352 290.023 304.047 290.011 307.208 289.997C307.553 289.996 307.903 289.994 308.26 289.994C310.964 289.994 313.572 289.579 316.024 288.81C318.607 287.999 321.017 286.795 323.183 285.267C324.957 284.016 326.568 282.547 327.977 280.9C328.203 280.636 328.424 280.38 328.64 280.13C330.6 277.862 332.118 276.106 333.073 273.005C333.21 272.56 333.362 272.095 333.519 271.616ZM328.284 269.928C328.848 268.2 329.483 266.251 329.483 264.477C329.483 261.65 328.929 258.952 327.923 256.487C326.761 253.64 323.604 250.718 321.363 248.643L321.283 248.569C319.195 246.637 316.717 245.123 313.981 244.16C311.798 243.392 310.037 242.825 307.592 242.825C304.082 242.825 300.988 243.472 298.078 244.994C296.124 246.016 295.034 247.317 293.732 248.868C293.466 249.185 293.192 249.513 292.898 249.851C291.229 251.778 289.485 254.042 288.596 256.487C287.775 258.743 287.328 261.179 287.328 263.72C287.328 265.296 287.694 267.115 288.021 268.592C288.121 269.046 288.21 269.525 288.3 270.014C288.557 271.393 288.825 272.843 289.404 273.986C290.412 275.981 291.727 277.793 293.285 279.36C295.174 281.258 298.798 283.163 301.292 284.234C303.583 285.218 305.769 285.208 308.332 285.197C308.611 285.195 308.894 285.194 309.184 285.194C311.376 285.194 313.491 284.858 315.478 284.234C317.573 283.577 319.526 282.6 321.283 281.361C322.206 280.711 322.789 279.854 323.391 278.971C323.727 278.477 324.068 277.976 324.477 277.498C326.328 275.334 327.063 273.845 327.923 271.055C328.034 270.694 328.157 270.317 328.284 269.928Z" fill="black"/>
<path d="M254.239 249.008L250.561 252.204C246.026 240.774 242.472 227.275 239.355 215.253C240.56 214.73 243.585 213.999 243.82 215.253C245.595 224.748 251.42 240.651 254.239 249.008Z" fill="white"/>
<path d="M279.625 223.477C284.214 218.778 286.754 217.505 289.097 215.253C290.972 213.451 294.764 210.149 296 209.104C295.351 205.007 294.814 202.502 294.371 201.447C293.589 199.586 292.71 194.494 289.097 192.439L300.132 190.578C296.617 195.572 299.351 201.936 300.132 205.657C300.913 209.378 302.846 218.528 303.393 221.911C304.261 227.275 305.503 233.66 305.991 237.185C306.479 240.711 308.237 250.795 309.702 255.495C311.166 260.196 311.948 265.776 308.237 266.364C304.526 266.952 302.964 260.979 302.866 257.258C302.768 253.537 302.182 250.404 301.108 245.313C300.425 242.071 299.82 237.956 299.092 232.388C290.033 237.669 281.913 244.535 273.375 250.599L272.301 247.662C273.408 246.879 275.875 245.117 276.891 244.333C284.072 238.792 291.915 233.619 298.438 227.275C298.205 225.429 297.958 223.45 297.69 221.323C297.305 218.252 296.945 215.548 296.612 213.197C293.889 216.905 289.043 220.647 285.484 223.477C282.652 225.729 280.601 227.883 277.867 229.646L279.625 223.477Z" fill="white"/>
<path d="M296.002 209.104C294.765 210.149 290.974 213.451 289.098 215.253C286.755 217.505 284.216 218.778 279.626 223.477L277.869 229.646C280.603 227.883 282.654 225.729 285.485 223.477C289.044 220.647 293.891 216.905 296.613 213.197M298.44 227.275C298.207 225.429 297.959 223.45 297.692 221.323C296.227 209.671 295.153 203.307 294.372 201.447C293.59 199.586 292.711 194.494 289.098 192.439L300.133 190.578C296.618 195.572 299.352 201.936 300.133 205.657C300.914 209.378 302.847 218.528 303.394 221.911C304.262 227.275 305.504 233.66 305.992 237.185C306.481 240.711 308.238 250.795 309.703 255.495C311.167 260.196 311.949 265.776 308.238 266.364C304.527 266.952 302.965 260.979 302.868 257.258C302.77 253.537 302.184 250.404 301.11 245.313C300.426 242.071 299.821 237.956 299.094 232.388M298.44 227.275C298.671 229.106 298.887 230.805 299.094 232.388M298.44 227.275C291.916 233.619 284.073 238.792 276.892 244.333C275.876 245.117 273.409 246.879 272.302 247.662L273.377 250.599C281.915 244.535 290.035 237.669 299.094 232.388M239.355 215.253C240.56 214.73 243.585 213.999 243.82 215.253C245.595 224.748 251.42 240.651 254.239 249.008L250.561 252.204C246.026 240.774 242.472 227.275 239.355 215.253Z" stroke="black" stroke-width="1.88091" stroke-linecap="round" stroke-linejoin="round"/>
<path d="M293.652 185.43C289.7 186.883 281.533 186.223 275.473 182.656V189.26C280.83 191.639 293.099 195.495 299.317 191.903C305.535 188.309 304.718 179.31 303.532 175.259L297.736 173.014V180.543C297.692 181.688 296.814 184.268 293.652 185.43Z" fill="black"/>
<path d="M273.668 247.855C272.691 244.722 270.641 243.841 267.418 243.155L261.363 251.968L265.66 255.884C266.734 256.015 269.41 256.06 271.519 255.199C274.156 254.122 274.644 250.989 273.668 247.855Z" fill="black"/>
<path d="M260.779 250.891C265.173 251.772 267.81 256.08 267.322 258.626C266.833 261.172 262.732 268.809 261.755 271.159C260.779 273.509 259.314 273.607 257.361 272.922C255.408 272.237 247.693 269.299 246.131 267.733C245.211 266.81 245.893 264.91 246.72 263.425C236.921 263.36 155.529 262.993 150.373 262.053C143.928 260.878 141.682 257.451 144.709 254.22C147.736 250.989 153.595 251.478 161.017 250.107C168.438 248.737 239.491 248.835 249.061 249.129L250.274 256.048C253.483 252.688 258.556 250.891 260.779 250.891Z" fill="white"/>
<path d="M246.72 263.425C245.893 264.91 245.211 266.81 246.131 267.732C247.693 269.299 255.408 272.237 257.361 272.922C259.314 273.607 260.779 273.509 261.755 271.159C262.732 268.809 266.833 261.172 267.322 258.626C267.81 256.08 265.173 251.772 260.779 250.891C258.556 250.891 253.483 252.688 250.274 256.048M246.72 263.425C247.016 262.893 247.33 262.415 247.596 262.053C248.572 260.853 248.748 257.648 250.274 256.048M246.72 263.425C236.921 263.36 155.529 262.993 150.373 262.053C143.928 260.878 141.682 257.451 144.709 254.22C147.736 250.989 153.595 251.478 161.017 250.107C168.438 248.737 239.491 248.835 249.061 249.129L250.274 256.048" stroke="black" stroke-width="1.88091" stroke-linecap="round" stroke-linejoin="round"/>
<path d="M190.529 258.628C191.018 256.081 188.381 251.774 183.986 250.893C181.764 250.893 177.891 254.309 174.683 257.67C173.156 259.269 171.78 260.856 170.803 262.056C170.537 262.417 170.223 262.895 169.927 263.427C169.1 264.912 168.418 266.811 169.339 267.734C170.901 269.301 178.616 272.238 180.569 272.924C182.522 273.609 183.986 273.511 184.963 271.161C185.94 268.812 190.041 261.174 190.529 258.628Z" fill="white" stroke="black" stroke-width="1.88091" stroke-linecap="round" stroke-linejoin="round"/>
<path d="M163.37 232.389C161.027 227.591 156.437 219.367 154.484 215.254C155.689 214.732 158.156 214.001 158.39 215.254C158.683 216.821 166.3 228.57 168.253 232.389C169.816 235.444 174.502 242.67 176.651 245.901L174.405 251.286C170.658 245.32 166.443 238.68 163.37 232.389Z" fill="white" stroke="black" stroke-width="1.88091" stroke-linecap="round" stroke-linejoin="round"/>
<path d="M167.371 259.507C167.957 256.766 168.738 254.808 172.547 252.458L178.113 254.71C180.001 255.754 185.027 258.94 190.026 263.326C196.276 268.809 195.691 270.866 192.566 271.16C189.44 271.453 183.191 268.614 176.16 266.068C169.129 263.522 166.786 262.25 167.371 259.507Z" fill="black"/>
<path d="M147.064 203.793C148.529 201.835 150.97 199.191 158.294 202.128L175.09 216.717C170.403 216.782 160.481 216.874 158.294 216.717C155.559 216.522 149.798 214.661 148.04 212.801C146.283 210.94 145.599 205.751 147.064 203.793Z" fill="black"/>
<path d="M187.299 223.868C185.021 227.458 180.19 235.245 179.096 237.674C177.729 240.709 177.199 241.453 175.343 245.468C173.488 249.483 170.762 253.802 171.837 255.27C172.911 256.739 174.507 256.081 178.12 256.962C181.733 257.844 181.254 255.2 183.206 253.242C185.159 251.283 191.328 244.172 194.258 240.354C197.187 236.535 201.947 231.015 203.704 228.763C205.462 226.511 206.341 224.064 207.513 221.812C207.746 221.363 207.952 220.915 208.115 220.461C208.69 218.863 208.503 216.385 207.29 214.468C207.12 214.199 207.148 214.747 206.927 214.468C206.872 214.398 206.809 214.323 206.74 214.242C200.841 214.754 191.862 220.236 187.299 223.868Z" fill="white"/>
<path fill-rule="evenodd" clip-rule="evenodd" d="M156.732 197.137C157.279 195.022 159.629 191.23 160.736 189.598C173.102 197.137 188.758 196.258 192.1 193.031C193.695 191.491 198.582 192.484 202.137 193.206C203.215 193.425 204.17 193.619 204.874 193.71C207.901 194.102 212.491 195.276 213.077 199.095C213.532 202.063 212.808 203.848 212.004 205.828C211.774 206.397 211.536 206.981 211.319 207.614C210.608 209.681 209.483 212.059 208.509 213.744L209.515 214.468C209.116 214.342 208.683 214.264 208.223 214.227C207.966 214.648 207.502 214.187 207.288 214.468C207.118 214.199 207.146 214.747 206.925 214.468C206.869 214.398 206.807 214.323 206.737 214.242C200.839 214.755 191.86 220.236 187.297 223.868C186.883 223.735 186.308 223.562 185.624 223.357H185.624C182.278 222.353 176.318 220.565 173.723 218.776C171.74 217.409 168.89 215.647 166.699 214.292C165.438 213.512 164.395 212.867 163.86 212.51C162.395 211.531 158.295 207.713 156.732 205.362C155.199 203.058 156.015 199.905 156.692 197.291L156.732 197.137Z" fill="black"/>
<path d="M207.289 214.468C208.502 216.385 208.689 218.864 208.114 220.461C209.769 218.464 211.875 215.501 209.517 214.468C209.117 214.342 208.684 214.264 208.224 214.227C207.967 214.648 207.503 214.187 207.289 214.468Z" fill="black"/>
<path d="M187.297 223.867C185.614 226.734 181.993 232.917 180.973 234.706C179.953 236.496 179.379 238.222 179.379 238.222C178.012 241.257 177.303 241.453 175.448 245.467C173.592 249.482 170.548 253.801 171.622 255.269C172.696 256.738 174.505 256.08 178.118 256.961C181.731 257.842 181.676 254.777 183.629 252.819C185.583 250.861 192.07 243.32 194.999 239.501C197.929 235.682 201.945 231.014 203.703 228.762C203.901 228.509 204.087 228.252 204.264 227.994C206.898 224.162 211.22 220.144 210.342 215.574C210.24 215.043 209.913 214.645 209.271 214.467" stroke="black" stroke-width="1.88091" stroke-linecap="round" stroke-linejoin="round"/>
<path d="M160.735 189.598C159.629 191.23 157.279 195.022 156.732 197.137C156.049 199.781 155.169 203.012 156.732 205.362C158.295 207.713 162.395 211.531 163.86 212.51C165.325 213.489 170.598 216.623 173.723 218.776C176.848 220.93 184.856 223.084 187.296 223.868C192.21 219.854 203.524 212.221 209.309 214.333M209.309 214.333L196.183 205.002C192.233 201.891 188.464 199.231 187.296 199.095M209.309 214.333C212.358 215.911 208.788 219.654 206.95 221.334" stroke="white" stroke-width="1.88091" stroke-linecap="round" stroke-linejoin="round"/>
<path fill-rule="evenodd" clip-rule="evenodd" d="M247.692 252.458C243.883 254.808 243.102 256.766 242.516 259.508C241.93 262.25 244.274 263.523 251.305 266.068C252.948 266.664 254.549 267.275 256.078 267.858C261.087 269.771 265.316 271.385 267.71 271.16C270.835 270.866 271.421 268.81 265.171 263.327C263.644 261.987 261.931 260.691 260.236 259.508L257.531 260.901L258.257 263.327C250.695 259.638 250.471 255.563 251.305 253.987L247.692 252.458Z" fill="black"/>
<path d="M250.879 256.048C252.137 260.512 256.485 262.842 258.501 263.448L257.533 260.901L260.8 258.96" stroke="white" stroke-width="1.67192" stroke-linecap="round" stroke-linejoin="round"/>
<path d="M256.332 256.317L263.438 262.491" stroke="black" stroke-width="1.67192" stroke-linecap="round" stroke-linejoin="round"/>
<path d="M228.189 206.475C229.653 204.518 232.095 201.873 239.418 204.811L256.215 219.4C251.528 219.465 241.606 219.557 239.418 219.4C236.684 219.204 230.923 217.344 229.165 215.483C227.408 213.623 226.724 208.434 228.189 206.475Z" fill="black"/>
<path d="M281.071 140.059C279.861 142.568 278.489 144.914 275.422 144.671L237.006 153.573C236.495 153.141 235.15 152.278 233.858 152.278C232.244 152.278 230.63 153.168 228.612 153.006C226.595 152.845 227.321 150.741 224.577 150.336C221.833 149.931 221.591 151.469 219.573 152.278C217.556 153.087 215.296 152.925 214.57 149.527C213.843 146.128 213.036 145.238 211.987 144.671C210.938 144.103 209.082 144.024 209.163 142.082C209.243 140.14 208.84 139.25 211.987 139.492C215.135 139.735 214.408 138.683 216.587 136.498C218.766 134.314 219.17 134.071 224.577 134.556C229.984 135.042 229.662 133.342 230.63 130.025C231.594 126.72 232.479 126.627 239.262 125.906L239.346 125.897C246.206 125.169 244.511 120.394 244.108 117.239C243.704 114.084 246.125 112.14 249.596 112.14C253.066 112.14 254.196 110.117 254.6 108.256C255.003 106.395 255.165 101.055 258.635 100.164C261.411 99.452 264.795 101 266.141 101.864C265.602 100.352 265.931 97.0717 271.548 96.0363C278.569 94.7416 279.78 100.649 283.411 102.51C287.043 104.372 286.801 102.187 289.788 105.424C292.774 108.66 289.142 111.979 292.047 113.273C294.952 114.568 295.437 118.533 292.612 120.394C289.788 122.255 289.223 125.25 290.191 127.597C291.159 129.943 290.191 134.475 286.801 135.527C283.411 136.579 282.282 137.55 281.071 140.059Z" fill="#FEE900"/>
<path d="M269.646 134.728C269.242 135.278 269.583 137.525 268.682 140.789C266.812 141.136 260.109 139.719 256.992 138.967L258.362 134.464L259.019 131.518C259.304 130.236 259.73 128.99 260.288 127.803C260.967 126.355 261.45 124.823 261.723 123.246L262.188 120.56C261.178 119.894 259.365 118.025 260.196 115.872C261.027 113.719 262.968 114.048 263.833 114.482C263.833 114.164 264.179 112.694 265.565 109.36C267.297 105.193 275.263 103.022 280.891 107.537C286.52 112.051 283.056 123.251 279.247 129.59C276.198 134.66 271.356 135.282 269.646 134.728Z" fill="white"/>
<path d="M269.216 138.05C266.212 137.637 263.763 135.361 262.942 133.092C262.569 132.058 263.741 131.619 264.624 132.271C267.396 134.317 269.967 134.88 271.067 134.88C270.149 135.49 269.516 136.447 269.313 137.533L269.216 138.05Z" fill="black"/>
<path d="M269.536 118.534C268.487 118.697 266.792 118.615 265.501 115.702L263.645 114.327V105.101L274.056 102.431L285.274 105.587L285.839 118.534C285.408 117.779 284.176 115.994 282.691 114.893C280.835 113.517 278.494 114.327 277.526 112.142C276.557 109.956 278.736 107.852 276.88 106.801C275.396 105.958 273.087 109.309 272.119 111.089C271.903 110.739 271.231 110.037 270.263 110.037C269.052 110.037 268.406 111.899 269.536 113.437C270.666 114.974 270.586 118.373 269.536 118.534Z" fill="#FEE900"/>
<path fill-rule="evenodd" clip-rule="evenodd" d="M262.285 113.567C263.54 113.557 265.148 114.499 266.299 116.256C266.459 116.5 266.392 116.828 266.148 116.988C265.905 117.148 265.578 117.08 265.418 116.836C264.364 115.225 263.361 114.74 262.615 114.746C261.865 114.752 261.157 115.257 260.688 116.108C260.258 116.89 260.161 118.056 260.788 118.926C261.091 119.348 261.826 120.007 262.458 120.159C263.097 120.312 263.727 120.591 264.846 120.217C265.122 120.124 265.477 119.735 265.569 120.012C265.661 120.288 265.122 120.862 264.846 120.955C263.594 121.373 262.919 121.165 262.041 120.955C261.156 120.743 260.494 120.258 260.047 119.638C259.176 118.428 259.143 116.73 259.766 115.597C260.351 114.533 261.035 113.578 262.285 113.567Z" fill="black"/>
<path d="M263.979 117.07C263.419 116.377 262.339 116.438 261.991 117.07C261.642 117.702 262.051 119.211 263.617 118.688" stroke="black" stroke-width="1.88091" stroke-linecap="round" stroke-linejoin="round"/>
<path d="M269.744 125.328C270.765 126.296 273.84 128.637 276.396 129.059C275.837 130.183 273.432 132.593 270.764 130.909C268.413 129.424 269.084 126.715 269.744 125.328Z" fill="black"/>
<path d="M273.269 129.655C272.248 129.556 270.667 128.466 269.086 126.947L269.909 125.396L274.323 128.202C274.268 128.654 274.085 129.735 273.269 129.655Z" fill="white"/>
<path fill-rule="evenodd" clip-rule="evenodd" d="M274.192 114.574C273.718 114.705 273.24 115.048 272.948 115.335C272.741 115.54 272.407 115.538 272.204 115.329C271.999 115.121 272.002 114.787 272.21 114.582C272.577 114.22 273.071 113.534 273.777 113.338C274.137 113.239 274.541 113.204 274.946 113.316C275.36 113.432 275.864 113.906 276.165 114.316C276.338 114.551 276.287 114.881 276.053 115.054C275.818 115.227 275.488 115.177 275.316 114.942C275.142 114.704 274.964 114.598 274.798 114.552C274.625 114.504 274.421 114.51 274.192 114.574ZM283.037 116.428C282.628 116.39 282.028 116.636 281.746 116.782C281.487 116.916 281.17 116.815 281.036 116.555C280.902 116.296 281.004 115.977 281.263 115.843C281.661 115.637 282.262 115.435 282.93 115.496C283.621 115.559 284.335 115.899 284.924 116.69C285.097 116.925 285.049 117.255 284.816 117.43C284.583 117.604 284.253 117.556 284.079 117.322C283.666 116.766 283.424 116.463 283.037 116.428ZM276.671 120.507C276.926 120.365 277.247 120.458 277.388 120.713C278.429 122.601 278.948 124.522 278.413 126.093C278.113 126.973 277.433 127.423 276.725 127.508C276.052 127.588 275.33 127.339 274.905 126.818C274.545 126.377 274.495 125.84 274.536 125.417C274.578 124.991 274.72 124.602 274.844 124.36C274.977 124.101 275.295 123.998 275.553 124.131C275.812 124.265 275.914 124.583 275.781 124.843C275.667 125.066 275.702 126.012 275.867 126.215C276.035 126.42 276.237 126.502 276.6 126.459C276.929 126.419 277.254 126.226 277.416 125.752C277.803 124.615 277.958 123.297 276.958 121.486C276.817 121.231 276.416 120.648 276.671 120.507ZM269.65 124.808C269.816 124.777 269.986 124.828 270.109 124.944C270.592 125.402 271.587 126.208 272.776 126.95C273.972 127.697 275.31 128.344 276.485 128.538C276.65 128.566 276.793 128.67 276.868 128.819C276.945 128.969 276.946 129.146 276.871 129.296C276.543 129.953 275.724 130.918 274.62 131.504C273.485 132.105 272.012 132.319 270.487 131.356C269.141 130.506 268.651 129.284 268.602 128.104C268.553 126.951 268.92 125.839 269.271 125.101C269.343 124.948 269.484 124.84 269.65 124.808ZM269.955 126.215C269.765 126.769 269.628 127.418 269.655 128.059C269.692 128.952 270.042 129.827 271.048 130.462C272.191 131.183 273.253 131.034 274.127 130.57C274.717 130.257 275.205 129.808 275.536 129.404C274.393 129.078 273.225 128.475 272.219 127.847C271.325 127.289 270.531 126.695 269.955 126.215Z" fill="black"/>
<path fill-rule="evenodd" clip-rule="evenodd" d="M256.634 138.868C248.269 137.349 245.437 138.736 241.484 143.624C237.824 148.15 235.124 155.227 234.275 157.453C234.207 157.63 234.151 157.777 234.108 157.889C233.916 158.378 233.76 158.895 233.596 159.436C233.25 160.577 232.869 161.83 232.066 163.172C231.186 164.642 231.322 166.583 231.45 168.431C231.495 169.075 231.538 169.708 231.538 170.306C231.538 170.823 231.476 171.279 231.417 171.7C231.216 173.16 231.069 174.221 233.778 176.117C234.524 176.64 235.186 177.144 235.811 177.62C236.969 178.502 237.999 179.287 239.2 179.908C238.422 181.211 237.817 182.397 237.302 183.408C236.495 184.988 235.911 186.135 235.227 186.619C234.108 187.411 234.371 188.347 237.006 189.86C239.641 191.374 248.927 195.006 256.634 195.006C264.341 195.006 267.653 193.823 266.656 190.981C265.983 190.932 265.343 190.623 264.907 189.86C263.539 190.568 261.07 190.43 260.765 185.297C258.741 185.155 255.408 184.215 252.026 183.262C248.902 182.38 245.738 181.488 243.527 181.203C243.248 181.167 242.981 181.126 242.723 181.079C243.298 177.686 246.504 171.177 254.724 172.287C255.39 172.579 256.098 172.869 256.798 173.157H256.799C257.659 173.51 258.509 173.86 259.262 174.202C259.954 174.517 260.573 174.826 261.178 175.129C261.859 175.469 262.521 175.799 263.247 176.117C264.612 176.717 265.937 177.274 267.239 177.769C267.851 178.001 268.427 178.197 268.969 178.369C268.969 175.788 269.149 174.533 270.599 171.759C271.194 170.62 271.988 168.657 272.755 166.277C274.122 166.827 277.936 168.165 282.257 169.117C282.785 169.233 283.285 169.368 283.759 169.518C284.673 167.48 287.555 163.465 291.768 163.707C289.989 162.703 288.782 162.208 287.883 161.841C287.311 161.605 286.863 161.422 286.473 161.191C285.64 160.698 283.399 159.994 281.535 159.465C281.205 158.433 280.426 155.829 279.952 153.662C279.882 153.344 279.816 152.993 279.746 152.617C279.214 149.787 278.419 145.547 273.826 143.624C269.034 141.617 263.516 140.394 258.044 139.181C257.573 139.077 257.104 138.973 256.634 138.868Z" fill="white"/>
<path d="M242.723 181.079C242.98 181.126 243.248 181.167 243.526 181.203C245.737 181.488 248.902 182.38 252.026 183.261C255.407 184.215 258.741 185.155 260.765 185.297C261.069 190.43 263.538 190.568 264.907 189.86C265.343 190.623 265.982 190.932 266.655 190.981C267.48 191.04 268.355 190.706 268.968 190.333C270.094 192.209 272.057 191.925 273.154 191.374C274.07 192.549 275.346 192.35 276.197 191.374C277.58 189.789 276.131 183.185 274.814 181.203C273.707 179.539 271.811 179.272 268.968 178.369C268.427 178.196 267.85 178.001 267.239 177.768C265.937 177.273 264.612 176.717 263.246 176.117C262.52 175.799 261.858 175.468 261.177 175.128C260.573 174.826 259.954 174.517 259.262 174.202C258.509 173.86 257.659 173.51 256.798 173.157H256.798C256.097 172.869 255.39 172.579 254.724 172.287C246.503 171.177 243.298 177.686 242.723 181.079Z" fill="white"/>
<path d="M260.417 179.457C260.219 179.935 260.298 181.87 260.18 182.841C260.691 183.345 261.357 183.934 261.377 182.724C261.397 181.514 260.697 179.836 260.417 179.457Z" fill="black"/>
<path d="M263.984 184.567C263.789 185.038 263.703 186.875 263.767 187.864C264.269 188.359 264.926 188.898 264.945 187.709C264.965 186.52 264.259 184.941 263.984 184.567Z" fill="black"/>
<path d="M267.781 184.273C267.587 184.744 267.485 186.452 267.587 187.595C268.09 188.09 268.72 188.566 268.739 187.377C268.759 186.187 268.057 184.647 267.781 184.273Z" fill="black"/>
<path d="M245.564 140.008C250.961 144.523 265.237 152.754 279.161 149.558M239.589 146.086C247.642 151.874 267.039 161.904 280.2 155.723M235.519 154.247C240.945 158.762 255.937 167.513 272.493 166.402M231.883 163.363C233.325 165.448 237.77 168.974 244.005 166.402M235.519 177.428C237.107 174.506 241.91 169.163 248.421 169.441M254.31 172.046C257.975 173.001 266.19 174.685 269.723 173.782M241.408 185.503C244.669 187.442 253.6 191.06 263.228 190.018M277.602 166.402C278.238 164.695 280.443 161.106 284.184 160.412" stroke="#FEE900" stroke-width="5.01576" stroke-linecap="round" stroke-linejoin="round"/>
<path d="M296.681 180.742C300.172 181.081 297.603 174.203 299.777 174.203C301.516 174.203 302.872 175.48 303.333 176.119C303.29 174.578 301.898 170.571 296.681 166.873C294.67 165.447 293.066 164.442 291.767 163.709C287.554 163.466 284.672 167.482 283.758 169.52C288.132 170.903 290.602 173.548 292.682 174.203C293.222 176.996 294.453 180.526 296.681 180.742Z" fill="white"/>
<path d="M260.784 185.299C256.898 185.034 248.138 181.798 243.527 181.204C243.248 181.168 242.981 181.127 242.723 181.081M242.723 181.081C243.298 177.687 246.504 171.178 254.724 172.288M242.723 181.081C241.316 180.829 240.199 180.425 239.2 179.909M254.724 172.288C252.684 171.495 248.895 169.85 246.128 168.183M254.724 172.288C255.786 172.753 256.994 173.009 257.993 173.462M239.2 179.909C237.352 178.953 235.908 177.61 233.778 176.119C230.287 173.675 231.538 172.618 231.538 170.307C231.538 167.995 230.88 165.155 232.066 163.174C233.251 161.192 233.515 159.409 234.108 157.89C234.442 157.034 235.485 154.169 237.04 150.955C238.245 148.462 239.758 145.759 241.484 143.625C242.497 142.373 243.469 140.813 244.446 140.011C245.525 139.124 247.222 138.6 248.546 138.236C250.703 137.643 252.777 138.169 256.634 138.869C262.563 140.19 267.95 140.821 273.154 143.001C274.344 143.499 275.949 145.154 276.691 145.898C277.834 147.044 278.568 148.294 279.017 149.635C279.551 151.23 279.703 152.528 279.952 153.663C280.426 155.83 281.205 158.434 281.535 159.465M239.2 179.909C237.203 183.251 236.347 185.827 235.227 186.62C234.108 187.413 234.371 188.349 237.006 189.862C239.641 191.375 248.927 195.007 256.634 195.007C264.341 195.007 267.653 193.825 266.656 190.982M246.128 168.183C245.052 167.535 244.131 166.884 243.527 166.278M246.128 168.183C246.03 164.561 247.347 160.598 247.94 157.89C248.414 155.724 249.674 152.365 250.245 150.955M257.993 173.462C258.61 173.741 260.188 174.497 260.784 174.769M257.993 173.462L260.784 174.769M272.048 187.413C272.149 189.368 272.581 190.64 273.154 191.375M273.154 191.375C274.071 192.551 275.346 192.351 276.197 191.375C277.581 189.79 276.131 183.186 274.814 181.204C273.708 179.54 271.811 179.273 268.969 178.37M273.154 191.375C272.057 191.927 270.095 192.211 268.969 190.334M268.969 178.37C268.427 178.198 267.851 178.003 267.239 177.77C265.937 177.274 264.612 176.718 263.247 176.119C262.076 175.605 262.026 175.334 260.784 174.769M268.969 178.37C268.969 175.788 269.149 174.533 270.599 171.76C271.194 170.621 271.988 168.658 272.755 166.278M268.969 190.334C268.567 189.665 268.272 188.719 268.161 187.413M268.969 190.334C268.355 190.707 267.481 191.041 266.656 190.982M266.656 190.982C265.983 190.934 265.343 190.625 264.907 189.862M264.341 187.413C264.38 188.517 264.59 189.309 264.907 189.862M264.907 189.862C263.335 190.675 260.31 190.371 260.784 182.657M272.755 166.278C273.856 162.861 274.898 158.586 275.209 154.654M272.755 166.278C273.478 166.569 274.886 167.625 276.691 168.183C278.299 168.681 280.222 168.67 282.257 169.118C282.785 169.234 283.285 169.369 283.759 169.519M283.759 169.519C288.133 170.903 290.604 173.548 292.683 174.203M283.759 169.519C284.673 167.481 287.555 163.465 291.768 163.708M292.683 174.203C292.547 173.495 292.454 172.835 292.401 172.288M292.683 174.203C293.224 176.995 294.454 180.526 296.682 180.742C300.173 181.081 297.604 174.203 299.778 174.203C301.517 174.203 302.874 175.48 303.335 176.119C303.291 174.577 301.899 170.571 296.682 166.872C294.672 165.447 293.067 164.441 291.768 163.708M291.768 163.708C288.855 162.064 287.475 161.786 286.473 161.192C285.64 160.699 283.399 159.995 281.535 159.465M279.622 158.947C280.13 159.077 280.803 159.258 281.535 159.465" stroke="black" stroke-width="1.88091" stroke-linecap="round" stroke-linejoin="round"/>
<path d="M292.035 169.145C291.835 169.629 291.735 171.488 291.828 172.571C292.344 173.081 292.992 173.715 293.012 172.492C293.033 171.269 292.319 169.529 292.035 169.145Z" fill="black"/>
<path d="M260.455 143.687C258.808 143.027 257.03 141.706 257.491 138.469C251.43 140.65 246.972 135.551 249.257 134.176C251.233 132.988 255.8 136.796 257.491 138.469C255.448 136.334 251.933 131.795 254.987 130.808C258.042 129.822 257.6 136.642 257.491 138.469C260.916 140.716 266.844 139.856 269.28 139.79C271.718 139.724 271.059 140.913 270.401 142.366C269.742 143.819 271.85 144.083 271.059 145.536C270.269 146.989 268.424 145.668 267.37 145.999C266.316 146.329 265.79 147.253 264.67 145.999C263.55 144.744 262.101 144.347 260.455 143.687Z" fill="black"/>
<path d="M257.491 138.469C257.03 141.706 258.808 143.027 260.455 143.687C262.101 144.347 263.55 144.744 264.67 145.999C265.79 147.253 266.316 146.329 267.37 145.999C268.424 145.668 270.269 146.989 271.059 145.536C271.85 144.083 269.742 143.819 270.401 142.366C271.059 140.913 271.718 139.724 269.28 139.79C266.844 139.856 260.916 140.716 257.491 138.469ZM257.491 138.469C257.6 136.642 258.042 129.822 254.987 130.808C251.933 131.795 255.448 136.334 257.491 138.469ZM257.491 138.469C255.8 136.796 251.233 132.988 249.257 134.176C246.972 135.551 251.43 140.65 257.491 138.469Z" stroke="black" stroke-width="1.88091" stroke-linecap="round" stroke-linejoin="round"/>
<path d="M243.526 181.202C243.248 181.167 242.981 181.126 242.723 181.08C241.315 180.827 240.199 180.423 239.2 179.908C237.203 183.25 236.347 185.826 235.227 186.618C234.107 187.411 234.371 188.347 237.005 189.861C238.119 190.5 240.421 191.518 243.29 192.481C243.224 189.971 243.732 186.092 248.409 182.261C246.577 181.776 244.874 181.377 243.526 181.202Z" fill="black"/>
<path d="M249.587 160.2C249.093 165.517 250.674 170.273 253.605 171.825L246.129 168.225C246.184 167.103 246.372 164.527 246.689 163.205C247.479 158.239 249.412 153.034 250.279 151.053C250.213 152.33 249.982 155.947 249.587 160.2Z" fill="black"/>
<path d="M275.323 155.024C275.324 154.929 275.327 154.835 275.331 154.74C275.331 154.828 275.328 154.923 275.323 155.024C275.224 161.019 280.066 168.208 283.057 169.407L277.059 168.225L272.727 166.317C273.56 163.478 275.191 157.417 275.323 155.024Z" fill="black"/>
<path d="M197.248 173.463C196.459 176.119 195.829 178.578 195.829 178.578C195.301 180.545 193.79 187.641 193.1 190.943C193.1 194.172 191.56 196.35 183.854 196.35C176.148 196.35 166.052 193.561 163.418 192.048C160.783 190.535 159.705 188.786 159.639 187.414C159.478 184.06 159.639 180.25 161.363 177.091C163.03 174.083 166.365 167.443 166.365 164.951C166.365 162.457 167.495 157.048 168.059 154.655C165.388 156.501 159.488 160.522 157.263 161.834C154.482 163.474 153.665 163.146 152.029 163.31C150.393 163.474 141.068 152.364 139.433 149.636C137.797 146.908 132.726 138.063 131.418 135.515C130.109 132.966 137.143 126.57 141.233 126.898C145.322 127.226 147.163 136.133 148.267 137.745C151.211 142.052 154.973 144.94 154.973 148.056C159.327 144.874 165.334 142.8 169.326 139.52C169.629 139.271 169.981 139.05 170.36 138.854C172.82 132.565 181.653 131.482 185.726 135.515C189.201 138.956 186.645 143.002 190.202 143.626C193.047 144.124 195.559 142.784 196.459 142.052C197.317 142.334 198.168 142.648 199.015 143.002C201.096 143.874 205.139 147.489 205.859 149.636C206.392 151.23 206.545 152.53 206.793 153.664C207.268 155.831 208.047 158.435 208.377 159.467C213.83 161.015 220.191 162.273 224.458 166.279C226.489 168.185 225.246 169.119 225.246 169.119C228.265 172.083 229.16 174.888 229.196 176.119C228.735 175.481 227.378 174.204 225.639 174.204C223.465 174.204 226.034 181.082 222.543 180.743C220.315 180.527 219.085 176.996 218.545 174.204C214.285 174.77 210.366 172.29 204.878 170.594C203.072 170.035 199.339 168.045 198.616 167.754C197.849 170.133 198.051 170.756 197.248 173.463Z" fill="#FEE900"/>
<path d="M201.07 154.655C200.76 158.587 199.717 164.337 198.616 167.754M198.616 167.754C197.849 170.133 198.051 170.756 197.248 173.463C196.459 176.119 195.829 178.578 195.829 178.578C195.301 180.545 193.79 187.641 193.1 190.943C193.1 194.172 191.56 196.35 183.854 196.35C176.148 196.35 166.052 193.561 163.418 192.048C160.783 190.535 159.705 188.786 159.639 187.414C159.478 184.06 159.639 180.25 161.363 177.091C163.03 174.083 166.365 167.443 166.365 164.951C166.365 162.457 167.495 157.048 168.059 154.655C165.388 156.501 159.488 160.522 157.263 161.834C154.482 163.474 153.665 163.146 152.029 163.31C150.393 163.474 141.068 152.364 139.433 149.636C137.797 146.908 132.726 138.063 131.418 135.515C130.109 132.966 137.143 126.57 141.233 126.898C145.322 127.226 147.163 136.133 148.267 137.745C151.211 142.052 154.973 144.94 154.973 148.056C159.327 144.874 165.334 142.8 169.326 139.52C169.629 139.271 169.981 139.05 170.36 138.854M198.616 167.754C199.339 168.045 203.072 170.035 204.878 170.594C210.366 172.29 214.285 174.77 218.545 174.204M170.36 138.854C172.82 132.565 181.653 131.482 185.726 135.515C189.201 138.956 186.645 143.002 190.202 143.626C193.047 144.124 195.559 142.784 196.459 142.052C197.317 142.334 198.168 142.648 199.015 143.002C201.096 143.874 205.139 147.489 205.859 149.636C206.392 151.23 206.545 152.53 206.793 153.664C207.268 155.831 208.047 158.435 208.377 159.467M170.36 138.854C170.872 138.589 171.432 138.368 171.987 138.18C172.484 138.011 172.977 137.87 173.426 137.745C175.553 137.745 177.391 136.637 179.352 137.745M218.545 174.204C218.407 173.496 218.315 172.836 218.261 172.289C218.891 170.175 221.169 166.583 225.246 169.119M218.545 174.204C219.085 176.996 220.315 180.527 222.543 180.743C226.034 181.082 223.465 174.204 225.639 174.204C227.378 174.204 228.735 175.481 229.196 176.119C229.161 174.888 228.265 172.083 225.246 169.119M225.246 169.119C225.246 169.119 226.489 168.185 224.458 166.279C220.191 162.273 213.83 161.015 208.377 159.467M206.464 158.948C206.971 159.078 207.645 159.259 208.377 159.467" stroke="#FEE900" stroke-width="1.88091" stroke-linecap="round" stroke-linejoin="round"/>
<path d="M201.069 154.655C200.758 158.587 200.059 162.982 198.958 166.399C198.542 167.689 198.319 169.107 198.158 170.373M206.463 158.949C206.97 159.079 210.117 158.949 212.442 159.687M196.603 140.921C196.296 142.95 193.046 144.125 190.201 143.626C186.644 143.003 190.201 134.776 180.584 132.933M179.351 137.746C177.39 136.638 175.551 137.746 173.425 137.746C172.975 137.87 172.483 138.012 171.986 138.181C171.431 138.369 170.871 138.589 170.359 138.855C169.98 139.051 169.628 139.272 169.325 139.521C168.348 140.323 165.471 141.229 164.459 142.48C162.169 143.626 158.734 143.792 157.589 145.432C156.673 146.744 154.372 148.275 153.336 148.876M218.543 174.205C218.406 173.497 218.314 172.836 218.26 172.289C218.889 170.176 221.168 166.583 225.244 169.119C228.264 172.084 229.159 174.889 229.195 176.12C228.734 175.481 227.377 174.205 225.638 174.205C223.464 174.205 226.033 181.083 222.542 180.743C220.314 180.527 219.084 176.997 218.543 174.205Z" stroke="black" stroke-width="1.88091" stroke-linecap="round" stroke-linejoin="round"/>
<path d="M159.063 187.871C158.851 186.384 158.343 181.001 160.374 176.76C164.999 167.104 165.823 160.83 167.572 152.814C167.572 156.912 168.062 166.995 168.062 170.606C168.062 175.12 165.773 180.204 165.773 183.485C165.773 186.766 167.584 193.271 170.686 195.184C167.456 194.35 164.961 193.546 163.792 193.014C160.928 191.711 159.262 189.273 159.063 187.871Z" fill="black"/>
<path d="M201.586 154.989C201.587 154.905 201.59 154.822 201.594 154.739C201.594 154.815 201.591 154.898 201.586 154.989C201.468 161.081 206.353 171.608 209.35 172.809L202.988 170.605L198.578 168.442C199.416 165.586 201.445 157.492 201.586 154.989Z" fill="black"/>
<path d="M273.407 123.481C273.675 123.565 273.965 123.402 274.054 123.116C274.144 122.831 273.999 122.531 273.731 122.447C273.463 122.362 273.173 122.525 273.084 122.811C272.994 123.096 273.139 123.396 273.407 123.481Z" fill="black"/>
<path d="M274.806 122.355C275.074 122.439 275.364 122.276 275.453 121.991C275.542 121.705 275.398 121.405 275.13 121.321C274.862 121.237 274.572 121.4 274.483 121.685C274.393 121.971 274.538 122.27 274.806 122.355Z" fill="black"/>
<path d="M279.31 123.025C279.578 123.109 279.867 122.946 279.957 122.661C280.046 122.375 279.902 122.076 279.634 121.991C279.366 121.907 279.076 122.07 278.986 122.355C278.897 122.641 279.042 122.941 279.31 123.025Z" fill="black"/>
<path d="M280.9 124C281.167 124.084 281.457 123.921 281.547 123.636C281.636 123.35 281.491 123.05 281.223 122.966C280.955 122.882 280.666 123.045 280.576 123.33C280.487 123.616 280.632 123.915 280.9 124Z" fill="black"/>
<path d="M279.509 124.82C279.777 124.904 280.067 124.741 280.156 124.456C280.246 124.17 280.101 123.87 279.833 123.786C279.565 123.701 279.275 123.864 279.186 124.15C279.096 124.435 279.241 124.735 279.509 124.82Z" fill="black"/>
<path d="M275.525 123.694C275.793 123.778 276.082 123.615 276.172 123.33C276.261 123.044 276.116 122.745 275.848 122.66C275.581 122.576 275.291 122.739 275.201 123.024C275.112 123.31 275.257 123.61 275.525 123.694Z" fill="black"/>
<path d="M231.876 197.138C232.423 195.022 234.773 191.23 235.88 189.598C245.222 191.165 264.433 194.063 266.542 193.123C269.179 191.948 276.991 193.319 280.019 193.71C283.046 194.102 287.635 195.277 288.221 199.096C288.807 202.915 287.44 204.775 286.463 207.614C285.486 210.454 283.729 213.881 282.655 215.29C284.212 217.751 283.711 219.781 282.655 221.812C281.483 224.064 280.604 226.512 278.846 228.764C277.089 231.016 274.257 236.499 271.327 240.317C268.398 244.136 262.538 252.557 260.586 254.515C258.633 256.474 256.875 257.844 253.262 256.963C249.649 256.081 247.305 254.711 246.231 253.242C245.157 251.773 247.793 249.326 249.649 245.312C251.504 241.297 252.871 240.71 254.238 237.674C255.332 235.246 260.163 227.458 262.441 223.868C260 223.085 251.993 220.931 248.868 218.777C245.742 216.623 240.469 213.489 239.004 212.51C237.54 211.532 233.439 207.713 231.876 205.362C230.314 203.012 231.193 199.782 231.876 197.138Z" fill="black"/>
<path d="M235.88 189.598C234.773 191.23 232.423 195.022 231.876 197.138C231.193 199.782 230.314 203.012 231.876 205.362C233.439 207.713 237.54 211.532 239.004 212.51C240.469 213.489 245.742 216.623 248.868 218.777C251.993 220.931 260 223.085 262.441 223.868C260.163 227.458 255.332 235.246 254.238 237.674C252.871 240.71 251.504 241.297 249.649 245.312C247.793 249.326 245.157 251.773 246.231 253.242C247.305 254.711 249.649 256.081 253.262 256.963C256.875 257.844 258.633 256.473 260.586 254.515C262.538 252.557 268.398 244.136 271.327 240.317C274.257 236.499 277.089 231.016 278.846 228.764C280.604 226.512 281.483 224.064 282.655 221.812C283.827 219.56 284.315 217.308 282.069 214.468C279.823 211.628 264.98 199.39 262.441 199.096" stroke="white" stroke-width="1.88091" stroke-linecap="round" stroke-linejoin="round"/>
<path d="M273.764 120.133C274.256 120.282 274.82 119.858 275.024 119.185C275.228 118.512 274.995 117.845 274.503 117.695C274.012 117.545 273.448 117.969 273.244 118.642C273.04 119.316 273.273 119.983 273.764 120.133Z" fill="black"/>
<path d="M281.28 121.973C281.771 122.123 282.335 121.698 282.539 121.025C282.743 120.352 282.51 119.685 282.019 119.535C281.527 119.385 280.963 119.81 280.759 120.483C280.555 121.156 280.788 121.823 281.28 121.973Z" fill="black"/>
<path d="M197.986 136.212L196.417 141.624C195.171 142.73 191.949 144.197 188.397 142.761C184.955 141.371 183.983 138.832 183.84 137.831C184.762 134.721 186.807 126.678 186.48 125.131C185.038 125.425 183.222 125.21 182.2 123.229C180.401 119.743 182.966 116.314 185.202 116.406C185.811 116.432 186.335 116.769 186.774 117.257L188.563 110.803C189.45 109.742 192.696 107.782 198.587 108.433C205.952 109.247 208.029 113.122 207.665 116.158C207.255 120.107 206.015 128.958 204.334 132.779C202.652 136.599 199.418 136.347 197.986 136.212Z" fill="white"/>
<path d="M196.248 142.164L197.782 136.868M197.782 136.868C199.214 137.004 202.652 136.599 204.334 132.779C206.015 128.958 207.255 120.107 207.665 116.158C208.029 113.122 205.952 109.247 198.587 108.433C192.696 107.782 189.45 109.742 188.563 110.803L186.774 117.257M197.782 136.868C195.793 136.681 190.949 135.032 189.735 132.578M186.774 117.257C186.335 116.769 185.811 116.432 185.202 116.406C182.966 116.314 180.401 119.743 182.2 123.229C183.639 126.017 186.65 125.307 187.976 124.603M186.774 117.257C187.622 118.2 188.15 119.708 188.35 120.612M184 138.039C184.922 134.929 186.807 126.678 186.48 125.131" stroke="black" stroke-width="1.88091" stroke-linecap="round"/>
<path d="M196.774 139.667C193.985 139.794 188.467 135.091 189.152 132.537C190.833 135.459 195.902 136.335 197.641 136.35L196.774 139.667Z" fill="black"/>
<path d="M198.647 131.542C196.504 131.284 194.057 130.718 193.384 129.596C192.846 128.699 192.593 126.978 192.533 126.23M185.903 119.921C185.01 118.779 184.072 119.302 183.884 120.121C183.696 120.939 184.458 122.292 185.732 121.744M205.502 116.249C205.281 115.455 204.359 115.103 203.524 115.455M196.882 114.266C196.362 114.068 195.168 113.814 194.537 114.379M196.881 126.083C197.587 126.651 199.113 127.223 200.108 127.223C201.854 127.223 202.797 125.679 201.458 123.652C200.461 122.145 200.909 120.127 201.854 119.113" stroke="black" stroke-width="1.88091" stroke-linecap="round"/>
<path d="M224.703 174.696C222.529 174.696 225.255 178.272 222.542 180.743C220.304 180.743 218.104 177.489 217.564 174.696C217.32 173.441 217.43 172.132 217.99 170.983C219.091 168.727 221.254 165.998 224.703 166.658C229.187 167.516 233.161 174.696 229.728 177.72C229.267 177.081 226.442 174.696 224.703 174.696Z" fill="white" stroke="black" stroke-width="1.88091" stroke-linecap="round" stroke-linejoin="round"/>
<path fill-rule="evenodd" clip-rule="evenodd" d="M223.814 176.55C223.745 175.473 223.695 174.699 224.707 174.699C226.446 174.699 229.271 177.083 229.732 177.722C229.77 177.689 229.806 177.656 229.842 177.621C230.198 181.971 229.397 187.446 224.874 190.06C218.656 193.652 207.572 189.879 202.215 187.501C202.215 187.501 184.497 180.421 186.748 176.443C187.817 174.553 191.852 175.951 195.362 177.651C196.27 178.091 197.173 178.55 198.075 179.008C201.031 180.51 203.988 182.013 207.18 182.881C211.996 184.191 216.422 184.612 219.21 183.587C221.143 182.876 222.222 181.635 222.78 180.517C223.985 179.239 223.887 177.717 223.814 176.55Z" fill="black"/>
<path d="M193.45 143.625C194.799 145.1 194.554 147.927 194.554 151.122C194.554 153.679 195.453 155.383 195.902 155.916M187.812 142.273C186.341 142.396 185.728 147.435 184.748 149.279C183.964 150.753 182.296 151.859 180.336 151.122" stroke="black" stroke-width="1.88091" stroke-linecap="round" stroke-linejoin="round"/>
<path d="M190.28 113.335C189.654 116.605 188.932 123.73 187.902 119.06C187.902 116.58 185.998 115.905 185.047 115.878C185.046 111.353 182.059 104.012 185.047 101.686C186.262 100.739 187.907 103.075 189.203 102.626C190.499 102.179 190.859 99.531 192.647 99.0379C194.435 98.5448 195.282 101.552 197.203 101.283C199.125 101.014 199.255 98.9076 201.047 99.2662C202.63 99.5837 201.628 101.775 203.281 102.626C204.935 103.479 206.007 100.745 207.751 101.014C209.494 101.283 209.719 103.121 209.719 104.619C209.719 106.339 209.26 110.554 207.329 113.335C205.396 111.353 191.301 108.006 190.28 113.335Z" fill="black" stroke="black" stroke-width="1.88091" stroke-linecap="round" stroke-linejoin="round"/>
<path d="M128.309 54.0914L132.967 143.809C133.387 151.901 135.429 151.606 136.399 150.446L132.967 54.0914H128.309Z" fill="white" stroke="black" stroke-width="1.88091" stroke-linecap="round" stroke-linejoin="round"/>
<path d="M133.12 119.098C136.422 118.553 140.932 123.233 142.188 127.354C142.728 129.98 139.005 133.537 137.608 133.598C135.972 134.813 132.884 134.52 131.857 134.52C129.284 134.52 128.426 132.794 129.345 131.201C127.507 130.501 127.384 128.338 128.793 127.354C127.075 126.436 127.382 124.122 128.793 123.276C126.952 121.604 127.811 118.548 132.347 119.389C132.533 119.254 132.787 119.153 133.12 119.098Z" fill="white"/>
<path d="M137.608 133.598C139.005 133.537 142.728 129.98 142.188 127.354C140.932 123.233 136.422 118.553 133.12 119.098C132.787 119.153 132.533 119.254 132.347 119.389M137.608 133.598C135.972 134.813 132.884 134.52 131.857 134.52C129.284 134.52 128.426 132.794 129.345 131.201M137.608 133.598C138.275 132.281 137.283 130.787 135.652 130.711M132.347 119.389C127.811 118.548 126.952 121.604 128.793 123.276M132.347 119.389C131.348 120.122 132.344 121.897 133.767 123.276M129.345 131.201C127.507 130.501 127.384 128.338 128.793 127.354M129.345 131.201C131.318 131.001 134.115 130.953 135.652 130.711M135.652 130.711C137.188 130.469 138.906 128.866 136.669 127.354M128.793 123.276C127.382 124.122 127.075 126.436 128.793 127.354M128.793 123.276H133.767M133.767 123.276C135.167 123.276 136.669 123.643 137.608 124.442C138.546 125.241 138.668 127.354 136.669 127.354M128.793 127.354C130.752 127.354 135.069 127.354 136.669 127.354" stroke="black" stroke-width="1.88091" stroke-linecap="round" stroke-linejoin="round"/>
<path d="M94.4099 85.5452C98.9429 73.273 118.564 66.8839 131.573 74.1494C133.015 74.9552 134.965 74.2105 135.221 72.575C140.107 41.3653 135.515 14.8106 131.43 1.50258C130.862 -0.348296 128.235 -0.468871 127.011 1.02827C114.588 16.2097 78.2095 11.9945 33.124 42.2829C-1.78075 65.7318 -2.77653 106.493 2.14968 129.85C2.60858 132.027 5.69577 131.993 6.44602 129.9C11.4591 115.899 23.0172 97.6727 42.9292 99.309C72.8373 101.767 89.507 98.8186 94.4099 85.5452Z" fill="#FEE900"/>
<mask id="mask0_3537_422" style="mask-type:luminance" maskUnits="userSpaceOnUse" x="23" y="28" width="103" height="62">
<path d="M115.675 28.0264L23.8906 56.613L34.1643 89.7768L125.948 61.1902L115.675 28.0264Z" fill="white"/>
</mask>
<g mask="url(#mask0_3537_422)">
<path d="M116.811 51.2869C116.364 49.7544 117.401 48.6171 119.162 48.9208C120.924 49.2246 122.772 50.8621 123.213 52.3912C123.659 53.9189 122.535 54.777 120.775 54.4783C119.015 54.1795 117.253 52.8211 116.811 51.2869Z" fill="black"/>
<path d="M105.946 53.4746C109.698 53.0272 111.154 49.4593 110.087 44.0105C109.021 38.5617 106.043 33.5769 101.896 33.8742C98.0903 34.1521 96.877 38.5025 97.9945 44.1158C99.0901 49.6047 101.857 53.9613 105.946 53.4746ZM106.974 54.6298C101.288 55.9252 96.0775 52.685 94.6249 47.0286C92.9117 41.5351 94.4067 34.0811 100.856 32.7007C107.168 31.8605 112.247 36.9283 113.924 42.624C115.887 48.22 112.823 53.6875 106.974 54.6298Z" fill="black"/>
<path d="M89.8261 40.5395C89.5614 45.9822 89.3193 51.4287 89.1052 56.8775C85.4381 52.4462 83.6196 50.2697 79.9839 45.938C79.709 45.5428 79.5154 45.2699 79.4183 44.9394C79.1256 43.9431 79.8574 43.3491 81.6328 42.0093C81.5111 41.5991 81.4516 41.3882 81.3346 40.9765C78.0396 42.899 76.4214 43.9549 73.1797 46.0518C73.3014 46.462 73.3616 46.6728 73.4779 47.0846C74.9387 46.575 75.1945 46.7684 75.7833 47.4374C80.1638 52.3241 84.5306 57.2204 88.8741 62.146C88.8303 63.1321 88.8105 63.6301 88.7674 64.6162C88.7182 66.1994 88.4241 67.3618 87.9398 68.2615C87.6786 68.7196 87.1944 68.6688 86.9092 68.3644C86.2964 67.741 85.3923 67.6018 84.4936 68.1655C83.2981 68.915 82.5698 70.6116 83.0116 72.1243C83.4527 73.6371 84.8951 74.4058 86.6473 73.2702C88.5779 72.0626 89.7734 69.4115 89.9485 65.8271C90.3691 56.8227 90.8054 47.8184 91.3492 38.8247C91.4169 37.8474 91.5598 37.3931 92.9133 36.4687C92.7922 36.0586 92.7334 35.8527 92.6171 35.441C90.0723 36.4084 88.8255 36.9769 86.3723 38.2219C86.4941 38.6321 86.5522 38.8379 86.6705 39.2546C88.6669 38.5399 89.4711 38.3222 89.7591 39.32C89.8555 39.6505 89.8815 40.0141 89.8357 40.5364L89.8261 40.5395Z" fill="black"/>
<path d="M66.1614 50.2711C70.6724 47.4016 74.0619 49.335 75.3969 53.9079C75.4967 54.2483 75.546 54.4243 75.6458 54.7647C70.7867 57.901 68.3848 59.5778 63.4469 62.46C65.1088 69.2153 69.1795 71.2369 72.9909 68.7984C75.6274 67.108 76.7969 64.6896 77.424 61.6146C77.6271 61.6006 77.7325 61.5895 77.9356 61.5756C78.0881 65.6919 76.3222 69.9299 72.5047 72.3485C67.549 75.7718 62.4635 71.9679 61.2017 66.8584C59.4768 60.9371 60.8829 53.9203 66.1675 50.2745L66.1614 50.2711ZM66.2475 51.7633C63.4189 53.5567 62.5291 57.3691 63.2124 61.2107C66.8097 59.1013 68.5749 57.9395 72.1182 55.6393C71.0513 51.9664 69.1111 49.9425 66.251 51.7567L66.2475 51.7633Z" fill="black"/>
<path d="M35.1235 79.2644C34.7843 72.54 34.4088 65.8217 34.0115 59.1042C33.8617 56.632 32.9979 56.677 29.947 56.1519C29.9299 55.7257 29.9176 55.5108 29.8984 55.0797C34.7351 55.3709 37.0173 55.0863 41.4305 54.0287C41.4593 54.4898 41.4757 54.7195 41.5044 55.1806C38.4972 56.2755 37.8879 56.4544 38.0548 58.8229C38.2996 62.5498 38.4145 64.3991 38.6436 68.0764C43.366 67.8405 48.6499 66.4621 52.9674 64.5492C52.6522 60.5931 52.4955 58.6093 52.1707 54.6233C51.9464 51.912 51.1722 52.2458 48.5029 52.9516C48.47 52.4756 48.4502 52.2359 48.4174 51.7599C52.635 50.0529 54.6622 48.9459 58.676 46.5977C58.7136 47.0887 58.7362 47.3383 58.7738 47.8293C56.0526 49.8461 55.5301 50.3041 55.7557 52.862C56.3877 60.3913 57.01 67.9235 57.6228 75.4592C57.8437 78.1604 58.6576 77.956 61.2626 77.0412C61.2982 77.5274 61.318 77.7668 61.3542 78.2529C57.2323 80.2691 55.132 81.1413 50.7358 82.2543C50.7078 81.7928 50.6893 81.5583 50.6606 81.0974C53.6445 79.9276 54.152 79.4194 53.9482 76.9315C53.6137 72.5989 53.4414 70.423 53.0933 66.0452C48.7634 67.9351 43.4618 69.2751 38.7366 69.4678C38.9876 73.5316 39.1094 75.5429 39.3398 79.5415C39.4855 81.9985 40.4231 82.1933 43.3489 82.3146C43.3729 82.7604 43.3858 82.9805 43.4084 83.4215C38.7551 83.7232 36.334 83.5593 31.1862 82.2447C31.1746 81.8387 31.1671 81.6392 31.1555 81.2325C34.666 81.7619 35.2411 81.4904 35.1221 79.2596L35.1235 79.2644Z" fill="black"/>
</g>
<path d="M200.892 115.892C196.833 115.009 191.626 114.997 188.124 115.283C187.005 115.375 186.83 116.59 187.897 116.943C188.723 117.216 189.332 118.016 189.576 118.853C190.067 120.537 191.48 122.598 194.256 122.914C199.023 123.456 199.881 119.567 201.244 119.77C202.607 119.973 202.414 121.464 203.146 122.914C203.879 124.364 205.595 125.57 208.3 125.358C211.007 125.147 211.096 120.244 210.385 119.021C209.677 117.801 207.437 117.315 200.95 115.904L200.892 115.892Z" fill="#FEE900"/>
</svg>
