<svg width="110" height="35" viewBox="0 0 110 35" fill="none" xmlns="http://www.w3.org/2000/svg">
<g clip-path="url(#clip0_3716_290)">
<path d="M0 11.2449L110 0V23.5355L0 34.7795V11.2449Z" fill="black"/>
<path d="M13.2589 15.5136L14.3903 27.3309L11.5417 27.6078L11.0696 22.6766L6.62606 23.1087L7.09827 28.0408L4.26244 28.3165L3.13094 16.4984L5.96677 16.2226L6.40518 20.8017L10.8487 20.3696L10.4103 15.7906L13.2589 15.5136ZM25.3523 14.3378L22.0436 22.6212L22.4192 26.5447L19.5678 26.8219L19.1922 22.8985L14.3739 15.4052L17.624 15.0892L20.3396 19.6854L22.135 14.6506L25.3523 14.3378ZM34.0217 19.2803C34.6985 19.3552 35.3287 19.6638 35.8054 20.1537C36.2669 20.6293 36.5487 21.2526 36.6021 21.9157C36.6678 22.3598 36.632 22.8131 36.4975 23.2411C36.3629 23.6692 36.1331 24.0606 35.8256 24.3855C35.0569 25.0851 34.0666 25.4867 33.0313 25.5184L27.5777 26.0487L26.4463 14.2314L31.7694 13.7139C32.7482 13.5555 33.7513 13.7374 34.6138 14.2299C34.9675 14.4666 35.2604 14.7845 35.4687 15.1573C35.6769 15.5302 35.7946 15.9475 35.812 16.375C35.8966 17.0137 35.7578 17.6622 35.4193 18.209C35.0925 18.7161 34.6021 19.0942 34.0308 19.2794L34.0217 19.2803ZM29.7382 18.7864L31.5959 18.6058C32.5795 18.5101 33.0308 18.0391 32.9497 17.1925C32.8687 16.346 32.3272 15.9714 31.3254 16.0688L29.5005 16.2462L29.7382 18.7864ZM32.2075 23.2524C33.2574 23.1504 33.7407 22.665 33.6576 21.7964C33.6493 21.6091 33.5992 21.426 33.511 21.2609C33.4228 21.0958 33.2988 20.9529 33.1482 20.8427C32.7871 20.616 32.3566 20.5289 31.9367 20.5976L29.9293 20.7928L30.1838 23.4501L32.2075 23.2524ZM44.4221 24.4109L41.4639 20.1957L40.8151 20.2587L41.2423 24.721L38.4056 24.9968L37.2741 13.1787L42.1164 12.7078C42.9254 12.6041 43.7472 12.6916 44.5168 12.9635C45.1478 13.1926 45.6956 13.6079 46.0888 14.1554C46.4726 14.7128 46.7024 15.3631 46.7545 16.0396C46.8514 16.826 46.6766 17.622 46.2594 18.2937C45.7955 18.9773 45.1147 19.4814 44.3287 19.7232L47.559 24.0966L44.4221 24.4109ZM40.627 18.3031L42.3825 18.1324C42.833 18.1269 43.2646 17.9492 43.5901 17.6354C43.7159 17.4751 43.8069 17.2899 43.8571 17.0919C43.9073 16.8939 43.9157 16.6875 43.8816 16.486C43.8732 16.2825 43.8231 16.0831 43.7346 15.9C43.6461 15.717 43.521 15.5544 43.3672 15.4223C42.9965 15.1634 42.5394 15.0624 42.0952 15.1414L40.3406 15.312L40.627 18.3031ZM50.8735 14.1515L51.1103 16.6249L55.0739 16.2395L55.2797 18.3883L51.317 18.7736L51.5682 21.3978L56.0291 20.9641L56.2487 23.2573L48.9492 23.967L47.8182 12.1535L55.1176 11.4438L55.3352 13.7167L50.8735 14.1515ZM59.7788 13.2856L60.0157 15.759L63.9793 15.3736L64.185 17.5225L60.2223 17.9078L60.4736 20.532L64.9344 20.0983L65.154 22.3915L57.8545 23.1012L56.7235 11.2876L64.0229 10.5779L64.2405 12.8509L59.7788 13.2856ZM76.7408 15.2808C76.8639 16.353 76.7113 17.4391 76.2978 18.4347C75.8949 19.3757 75.2268 20.1767 74.3763 20.7384C73.4192 21.3575 72.3233 21.7247 71.189 21.8065L66.7637 22.2368L65.6325 10.4214L70.0605 9.99087C71.1903 9.85126 72.3368 9.9948 73.3983 10.4088C74.3351 10.7875 75.1397 11.4371 75.7108 12.2757C76.3056 13.1712 76.6604 14.2064 76.7408 15.2808V15.2808ZM70.6979 19.2743C71.6453 19.241 72.5413 18.8324 73.1915 18.1372C73.4775 17.7793 73.686 17.3651 73.8037 16.9212C73.9214 16.4773 73.9456 16.0134 73.8749 15.5595C73.8585 15.1002 73.7469 14.6494 73.5473 14.2362C73.3477 13.823 73.0645 13.4564 72.7159 13.16C71.9456 12.6036 70.9886 12.3759 70.0527 12.5261L68.7105 12.6566L69.357 19.4084L70.6979 19.2743ZM81.0836 17.9611L81.3574 20.8207L78.4221 21.1061L78.1482 18.2455L81.0836 17.9611ZM87.0452 8.22252C88.3751 8.04105 89.7261 8.33311 90.8651 9.0483C91.9327 9.76102 92.7147 10.8324 93.0719 12.0717L90.07 12.3636C89.817 11.86 89.4184 11.4457 88.9267 11.1755C88.4116 10.9023 87.8262 10.7938 87.2484 10.8644C86.865 10.8891 86.4924 11.0025 86.1596 11.1958C85.8267 11.3891 85.5425 11.6571 85.3291 11.9791C84.8585 12.7317 84.6709 13.6293 84.8006 14.5093C84.8392 15.3956 85.1935 16.2383 85.7986 16.8827C86.0703 17.1553 86.4003 17.3616 86.7634 17.4858C87.1265 17.6099 87.513 17.6485 87.8932 17.5987C88.4737 17.5567 89.0277 17.3374 89.4815 16.9701C89.91 16.6144 90.2229 16.1376 90.38 15.6011L93.3819 15.3092C93.2614 16.5906 92.6978 17.7886 91.7895 18.6936C90.81 19.6202 89.5388 20.1707 88.1976 20.2493C87.1496 20.3743 86.0875 20.2124 85.1229 19.7808C84.2186 19.3635 83.4537 18.6909 82.9207 17.8446C82.3453 16.9224 82.0008 15.873 81.917 14.7868C81.7932 13.7046 81.9322 12.6082 82.3221 11.5921C82.685 10.6594 83.3083 9.85254 84.1165 9.26921C84.9818 8.66174 85.9935 8.3002 87.0452 8.22252V8.22252ZM99.8064 6.9131C100.859 6.79692 101.924 6.96399 102.892 7.3973C103.833 7.81921 104.641 8.49257 105.229 9.34443C105.848 10.2442 106.22 11.2928 106.307 12.3839C106.429 13.4762 106.26 14.5815 105.819 15.5867C105.401 16.5397 104.734 17.3599 103.888 17.959C103.021 18.5578 102.017 18.9251 100.97 19.0269C99.9231 19.1287 98.8679 18.9615 97.9027 18.541C96.959 18.1159 96.1482 17.4394 95.5576 16.5844C94.9338 15.6827 94.5588 14.6303 94.4709 13.5347C94.3494 12.4459 94.5182 11.3441 94.9601 10.3429C95.3811 9.39393 96.0496 8.57777 96.8945 7.98135C97.7546 7.37268 98.7592 7.00414 99.8064 6.9131V6.9131ZM100.061 9.57042C99.6465 9.5913 99.2416 9.70289 98.8744 9.89742C98.5072 10.0919 98.1865 10.3648 97.9345 10.6968C97.4234 11.445 97.2148 12.3614 97.351 13.2593C97.3903 14.1634 97.7684 15.0187 98.409 15.6529C99.052 16.1851 99.8782 16.4388 100.707 16.3582C101.535 16.2777 102.298 15.8696 102.828 15.2232C103.341 14.4791 103.553 13.5655 103.42 12.6692C103.381 11.7651 103.003 10.9098 102.362 10.2756C102.053 9.99575 101.687 9.78764 101.289 9.66596C100.892 9.54428 100.472 9.51198 100.061 9.57134L100.061 9.57042Z" fill="white"/>
</g>
<defs>
<clipPath id="clip0_3716_290">
<rect width="110" height="34.7795" fill="white"/>
</clipPath>
</defs>
</svg>
