<svg width="104" height="14" viewBox="0 0 104 14" fill="none" xmlns="http://www.w3.org/2000/svg">
<path d="M10.5231 1.14618L10.5056 13.0175H7.6436L7.65089 8.0637H3.1864L3.1791 13.0184H0.329897L0.347383 1.14618H3.19659L3.18982 5.74616H7.65431L7.66108 1.14618H10.5231ZM22.6735 1.14618L18.5787 9.07052L18.5729 13.0119H15.7081L15.7139 9.07052L11.6434 1.14618H14.9088L17.1669 5.98355L19.4411 1.14618H22.6735ZM30.824 6.90447C31.4903 7.04452 32.0877 7.41266 32.5147 7.94639C32.928 8.46442 33.1483 9.11207 33.1372 9.77715C33.1597 10.2255 33.0802 10.6733 32.9048 11.0863C32.7294 11.4993 32.4628 11.8666 32.1253 12.1603C31.2926 12.7822 30.268 13.086 29.2345 13.0175H23.7552L23.7727 1.14618H29.1209C30.1104 1.08324 31.0912 1.36144 31.902 1.93501C32.2311 2.2049 32.4919 2.5496 32.6631 2.94087C32.8343 3.33214 32.911 3.75885 32.8869 4.18604C32.9094 4.82997 32.7085 5.46199 32.3187 5.97339C31.9443 6.44656 31.4196 6.77541 30.8331 6.90447H30.824ZM26.6083 5.99833H28.4748C29.463 5.99833 29.9578 5.57312 29.959 4.72271C29.9603 3.8723 29.4576 3.44709 28.451 3.44709H26.6176L26.6083 5.99833ZM28.6338 10.6824C29.6887 10.6824 30.2167 10.2461 30.218 9.37349C30.2279 9.18624 30.1957 8.99921 30.1239 8.82634C30.0521 8.65346 29.9425 8.49918 29.8033 8.37498C29.4658 8.11439 29.0459 7.98608 28.6212 8.01382H26.6044L26.6005 10.6833L28.6338 10.6824ZM40.679 13.0175L38.1426 8.53571H37.4908L37.4842 13.0184H34.6341L34.6516 1.14618H39.5167C40.3319 1.1212 41.1414 1.28786 41.8811 1.63296C42.4869 1.92198 42.992 2.38841 43.3303 2.97139C43.6585 3.56333 43.8242 4.23282 43.8106 4.91114C43.831 5.70322 43.5799 6.47859 43.0996 7.10675C42.5718 7.7422 41.8454 8.17806 41.0398 8.34265L43.8317 13.0082L40.679 13.0175ZM37.4928 6.57101H39.2566C39.7055 6.6091 40.1522 6.47408 40.5066 6.19322C40.6474 6.04586 40.7558 5.87037 40.825 5.67814C40.8941 5.48591 40.9224 5.28123 40.908 5.07741C40.9193 4.87411 40.8888 4.67071 40.8184 4.47997C40.748 4.28923 40.6392 4.11527 40.4989 3.96898C40.1551 3.67533 39.7098 3.53059 39.2601 3.56625H37.4972L37.4928 6.57101ZM48.093 3.43046L48.0893 5.91519H52.0716L52.0685 8.07386H48.0871L48.0832 10.7101H52.5651L52.5617 13.0138H45.2278L45.2453 1.14618H52.5792L52.5758 3.42954L48.093 3.43046ZM57.0403 3.43046L57.0367 5.91519H61.019L61.0158 8.07386H57.0344L57.0305 10.7101H61.5124L61.509 13.0138H54.1752L54.1926 1.14618H61.5265L61.5232 3.42954L57.0403 3.43046ZM73.7296 7.0578C73.7483 8.13686 73.4914 9.20306 72.9834 10.154C72.4914 11.0515 71.7489 11.7842 70.848 12.261C69.8355 12.7845 68.7092 13.044 67.5723 13.0156H63.1261L63.1436 1.14618H67.5925C68.7305 1.11655 69.8578 1.37038 70.8743 1.88513C71.77 2.35272 72.508 3.07713 72.9953 3.96713C73.5005 4.91593 73.7535 5.98062 73.7296 7.0578V7.0578ZM67.3286 10.4477C68.2747 10.5062 69.2061 10.1862 69.9206 9.55731C70.2398 9.22876 70.4874 8.83666 70.6475 8.40621C70.8076 7.97575 70.8766 7.51645 70.8502 7.0578C70.8782 6.59907 70.8108 6.13963 70.6521 5.70901C70.4935 5.27838 70.2471 4.8861 69.9289 4.55737C69.216 3.9291 68.2855 3.60981 67.3395 3.66878H65.991L65.981 10.4514L67.3286 10.4477ZM77.7926 10.1457L77.7884 13.0184H74.8393L74.8435 10.1448L77.7926 10.1457ZM84.6687 1.02979C86.0099 0.977866 87.3263 1.3993 88.3907 2.22135C89.3844 3.03404 90.059 4.17605 90.2946 5.44411H87.2786C87.0755 4.91846 86.7188 4.46753 86.2556 4.15094C85.7694 3.82925 85.1972 3.6646 84.6153 3.67894C84.2313 3.66639 83.8495 3.7432 83.4995 3.90339C83.1495 4.06359 82.8407 4.30286 82.5971 4.60263C82.0558 5.30616 81.7823 6.18144 81.8262 7.06981C81.7788 7.95574 82.05 8.8287 82.5899 9.52867C82.8339 9.82633 83.1424 10.0636 83.4918 10.2223C83.8412 10.381 84.2221 10.4568 84.6053 10.4441C85.1872 10.4584 85.7598 10.2937 86.247 9.97205C86.7079 9.65955 87.0655 9.21525 87.2738 8.69643H90.2898C90.0459 9.9602 89.369 11.098 88.3774 11.9109C87.3128 12.7383 85.9943 13.1632 84.6518 13.1117C83.5966 13.1346 82.5551 12.8707 81.6369 12.3478C80.7772 11.8449 80.0809 11.1015 79.6324 10.2076C79.1489 9.23396 78.9076 8.1562 78.9293 7.06704C78.9108 5.97788 79.1553 4.90011 79.6417 3.92649C80.0931 3.03324 80.7915 2.29052 81.6525 1.78814C82.5725 1.26727 83.6144 1.00532 84.6687 1.02979V1.02979ZM97.4967 0.961438C98.5558 0.947694 99.5993 1.21701 100.521 1.74196C101.416 2.25294 102.156 3.00138 102.659 3.90617C103.188 4.8616 103.456 5.9412 103.437 7.03563C103.453 8.1346 103.178 9.21838 102.642 10.1762C102.134 11.0843 101.39 11.8361 100.49 12.3505C99.5689 12.8625 98.534 13.131 97.4824 13.131C96.4308 13.131 95.3967 12.8625 94.4767 12.3505C93.5785 11.8361 92.837 11.0843 92.332 10.1762C91.7983 9.21838 91.5269 8.1346 91.5454 7.03563C91.5299 5.94015 91.8046 4.85987 92.3412 3.90617C92.8521 3.00238 93.5964 2.25475 94.495 1.74288C95.4101 1.22031 96.4456 0.950715 97.4967 0.961438V0.961438ZM97.4927 3.63091C97.0783 3.6116 96.6646 3.68349 96.2803 3.84157C95.896 3.99965 95.5503 4.24013 95.2674 4.54628C94.6864 5.24151 94.39 6.13342 94.4387 7.04025C94.3903 7.94386 94.6839 8.8318 95.26 9.52498C95.8486 10.117 96.6464 10.4494 97.4786 10.4494C98.3108 10.4494 99.1095 10.117 99.6998 9.52498C100.283 8.83401 100.582 7.94523 100.537 7.04025C100.585 6.13664 100.292 5.2487 99.7154 4.55552C99.4347 4.24706 99.0902 4.00448 98.7062 3.84488C98.3222 3.68529 97.9079 3.61256 97.4927 3.63183L97.4927 3.63091Z" fill="white"/>
</svg>
