<?xml version="1.0" encoding="UTF-8"?><svg id="Layer_2" xmlns="http://www.w3.org/2000/svg" xmlns:xlink="http://www.w3.org/1999/xlink" viewBox="0 0 472 502.05"><defs><style>.cls-1{fill:none;}.cls-2{clip-path:url(#clippath);}.cls-3{fill:#fff;}.cls-4{fill:#fcef6c;}.cls-5{fill:#231f20;}</style><clipPath id="clippath"><circle class="cls-1" cx="244.76" cy="168.99" r="23.82"/></clipPath></defs><g id="Layer_1-2"><g><path class="cls-3" d="M210.79,346.25c1.13-5.64,5.68-10.21,11.01-12.38,.97-.39,2.04-.72,3.04-.43s1.82,1.43,1.39,2.39c-.31,.69-1.1,1.01-1.79,1.32-3.12,1.43-5.59,4.24-6.6,7.52"/><path d="M211.39,346.42c.91-4.34,3.79-7.97,7.48-10.33,.94-.6,1.93-1.13,2.95-1.56s2.81-1.1,3.65,.08-.74,1.7-1.56,2.1c-.98,.47-1.88,1.08-2.71,1.78-1.86,1.58-3.23,3.69-3.97,6.02-.24,.77,.96,1.1,1.21,.33,.8-2.51,2.43-4.72,4.62-6.2,.98-.66,2.22-.99,3.11-1.75s1.02-1.95,.38-2.91c-1.57-2.37-4.79-.88-6.73,.12-2.2,1.14-4.22,2.69-5.85,4.56-1.85,2.13-3.21,4.66-3.79,7.43-.16,.78,1.04,1.12,1.21,.33h0Z"/></g><path d="M316.26,386.53c9.51-22.26,17.93-45,25.15-68.11,8.34-26.69,15.11-53.86,20.26-81.35,2.76-14.76,5.05-29.61,6.89-44.52l-.31,.54c11.86-6.62,25.18-10.92,38.86-10.7,4.77,.08,9.5,.71,14.13,1.86l-.46-.6c1.71,14.85,2.89,29.76,3.54,44.69,.55,12.6,.71,25.21,.51,37.82-.13,8.17-.42,16.33-.34,24.51,.11,11.75,.73,23.5,1.74,35.2,1.3,15.13,3.26,30.2,5.72,45.19,.34,2.1,.7,4.2,1.06,6.3l.29-.71c-3.69,2.23-7.54,4.22-11.55,5.83-5.67,2.29-11.9,4.07-18.07,3.54-6.5-.56-11.63-4.34-14.33-10.23-2.61-5.69-3.08-12.19-3.2-18.37-.31-16.57,.14-33.19,.57-49.76,.41-16,1-31.99,1.72-47.98,.51-11.41,1.09-22.82,1.73-34.22,.05-.95,.11-1.89,.16-2.84,.04-.69-1.1-.86-1.23-.17-3.88,20.96-7.75,41.93-11.63,62.89l-11.63,62.89-6.54,35.37,.6-.46c-14.73,.81-29.46,1.63-44.19,2.44-.8,.04-.81,1.29,0,1.25,14.73-.81,29.46-1.63,44.19-2.44,.26-.01,.55-.18,.6-.46,3.88-20.96,7.75-41.93,11.63-62.89l11.63-62.89,6.54-35.37-1.23-.17c-.63,11.03-1.2,22.06-1.71,33.1-.75,16.13-1.36,32.28-1.81,48.42-.48,17.29-.85,34.6-.68,51.89,.11,11.47,1.75,26.91,14.89,30.56,5.93,1.64,12.36,.48,18.09-1.37,4.97-1.6,9.74-3.84,14.27-6.44,.6-.34,1.2-.7,1.79-1.06,.26-.16,.34-.43,.29-.71-2.68-15.49-4.86-31.08-6.34-46.73-1.14-12.02-1.87-24.08-2.09-36.15-.15-8.3,.07-16.58,.24-24.87,.24-11.84,.17-23.68-.24-35.52-.54-15.44-1.64-30.86-3.31-46.22-.14-1.3-.29-2.59-.44-3.89-.03-.27-.17-.53-.46-.6-15.77-3.9-32.08-1.36-46.73,5.3-1.47,.67-2.93,1.38-4.36,2.12-.91,.47-2.84,1.08-3.17,2.08-.29,.9-.26,2.07-.38,3.01-.15,1.15-.3,2.31-.45,3.46-.28,2.13-.57,4.26-.87,6.39-1.24,8.76-2.64,17.5-4.21,26.21-3.32,18.47-7.37,36.8-12.14,54.95-4.43,16.84-9.47,33.53-15.12,50-5.09,14.86-10.68,29.55-16.74,44.05-.74,1.76-1.48,3.52-2.23,5.27-.31,.73,.76,1.37,1.08,.63Z"/><g><path d="M322.85,95.46c.73-2.92,1.14-5.93,1.21-8.94l-3.23,5.98c-5.48-3.3-9.96-8.22-12.75-13.97,4.17-1.27,7.26-2.79,9.2-3.86,4.11-2.26,5.65-3.92,15.13-10.77,3.98-2.88,5.06-3.56,6.78-4.24,1.95-.77,6.31-2.42,11.38-.97,1.5,.43,4.71,1.4,7.02,4.48,1.3,1.74,1.83,3.49,2.06,4.6,1.62,.21,6.62,1.07,10.04,5.27,.61,.75,1.8,2.29,2.41,4.61,.96,3.63-.23,7.56-2.33,10.68-2.1,3.12-5.02,5.57-7.9,7.98-.58-1.3-1.56-2.42-2.78-3.15,2.57-2.26,4.16-5.59,4.3-9,.04-.98-.07-2.04-.74-2.75-.96-1-3.11-.61-4.1,.46-.32,.34-.5,.75-.84,2.73-.25,1.48-.4,2.73-.48,3.63-1.28-2.4-2.64-5.44-3.71-9.07-.82-2.79-1.3-5.37-1.58-7.59-2.01,.69-4.97,1.62-8.63,2.5-8.48,2.03-12.7,1.82-14.16,4.72-.6,1.19-.4,2.77,0,5.93,.25,2,.87,4.85,.58,8.08-.04,.5-.14,1.38-.81,2.01-.66,.62-1.85,.97-2.92,.44-1.04-.52-1.61-1.71-1.36-2.89l-1.8,3.09Z"/><path d="M323.45,95.63c.73-2.99,1.14-6.03,1.24-9.1,.02-.61-.87-.86-1.16-.32l-3.23,5.98,.86-.22c-5.41-3.3-9.73-8.06-12.52-13.75l-.37,.92c3.82-1.18,7.55-2.76,10.97-4.86,2.25-1.38,4.34-3.03,6.45-4.62,3.7-2.79,7.38-5.71,11.31-8.16,3.04-1.89,6.83-2.94,10.4-2.72,5.48,.34,10.45,3.6,11.68,9.17,.07,.29,.34,.42,.6,.46,5.11,.68,10.17,3.87,11.73,9,2.37,7.8-4.64,14.04-9.95,18.48l.98,.13c-.68-1.42-1.69-2.53-3.01-3.38l.13,.98c2.03-1.85,3.5-4.26,4.14-6.94,.45-1.91,.92-5.13-1.27-6.18-1.47-.7-3.73-.08-4.58,1.33-.46,.76-.56,1.76-.7,2.61-.22,1.26-.38,2.53-.51,3.8l1.16-.32c-2.69-5.1-4.46-10.63-5.21-16.35-.05-.37-.36-.75-.79-.6-3.35,1.14-6.76,2.1-10.22,2.87-2.9,.64-5.87,1.03-8.73,1.83-1.6,.44-3.27,1.13-4.12,2.65-1.16,2.06-.37,5.02-.06,7.2s.62,4.2,.53,6.33c-.04,1.03-.06,2.22-1.08,2.79-1.5,.85-3.06-.55-2.84-2.11,.09-.66-.76-1.14-1.14-.48l-1.8,3.09c-.41,.7,.67,1.33,1.08,.63l1.8-3.09-1.14-.48c-.21,1.45,.29,2.88,1.64,3.6,1.24,.65,2.86,.34,3.8-.68,1.09-1.19,.98-3.16,.94-4.65-.05-1.93-.39-3.83-.65-5.74-.31-2.33-1.18-5.55,1.25-7.02,2.28-1.38,5.43-1.55,7.98-2.06,4.44-.88,8.81-2.01,13.1-3.47l-.79-.6c.77,5.95,2.58,11.67,5.38,16.98,.32,.6,1.11,.25,1.16-.32,.17-1.7,.33-3.49,.8-5.14,.37-1.3,2.2-2.2,3.4-1.35,1.52,1.09,.51,4.52,.02,5.92-.7,1.96-1.89,3.67-3.43,5.07-.31,.28-.2,.77,.13,.98,1.14,.74,1.97,1.71,2.56,2.93,.19,.39,.7,.36,.98,.13,5.76-4.81,13.05-11.72,10.14-20.1-1.91-5.49-7.24-8.78-12.8-9.51l.6,.46c-1-4.53-4.28-7.82-8.63-9.25s-8.77-.89-12.93,.84c-1.32,.55-2.52,1.3-3.7,2.11-2.29,1.57-4.53,3.23-6.77,4.89-2.72,2.01-5.37,4.14-8.16,6.04-3.72,2.53-7.87,4.37-12.15,5.69-.41,.13-.55,.55-.37,.92,2.89,5.87,7.4,10.79,12.97,14.2,.28,.17,.7,.07,.86-.22l3.23-5.98-1.16-.32c-.09,2.97-.49,5.89-1.19,8.77-.19,.78,1.02,1.11,1.21,.33Z"/></g><g><path class="cls-3" d="M327.83,77.58l11.62-6.72s8.23-5.21,13.19,.63c0,0,1.13,9.73,3.08,10.86,0,0-.06,6.03,1.07,6.28s.82,.13,.82,.13c0,0,.38-8.67,3.96-7.72s2.45,8.42-.88,11.49l-.94,.88,6.97,9.29-6.91,19.15-5.53,1.26-6.59-11.12s-17.52-4.33-18.27-17.27-1.57-17.14-1.57-17.14Z"/><path d="M328.15,78.12c3.86-2.23,7.72-4.46,11.57-6.69,1.98-1.15,4.22-2.01,6.53-2.08,.92-.03,1.84,.07,2.72,.36s2.62,1.17,3.02,1.87c-.05-.09,.02,.01,.05,.11,.06,.15,.05,.38,.07,.53,.08,.6,.17,1.19,.26,1.79,.29,1.83,.63,3.66,1.15,5.44,.35,1.19,.78,2.73,1.88,3.45l-.31-.54c-.01,1.41,.04,2.84,.24,4.24,.21,1.49,.54,2.81,2.3,2.82,.37,0,.58-.29,.62-.62h0c.03-.22-.14-.45-.31-.55-.01,0-.02-.01-.04-.02l.31,.54c.08-1.65,.54-7.73,3.17-7.12,2.33,.54,1.82,4.28,1.39,5.91-.6,2.25-1.82,3.86-3.49,5.42-.18,.17-.26,.54-.1,.76l3.86,5.14,2.39,3.18c.14,.18,.41,.73,.62,.83,.26,.12,.19-.4,0-.21-.35,.32-.53,1.48-.69,1.92l-1.2,3.33-3.1,8.59-1.87,5.17,.44-.44-5.53,1.26,.71,.29-5.32-8.96c-.42-.71-.89-2.06-1.67-2.45-.72-.35-1.64-.48-2.4-.75-3.9-1.39-7.74-3.42-10.72-6.33-1.77-1.72-3.23-3.79-4.01-6.14-1.08-3.26-.86-6.94-1.13-10.33-.27-3.46-.47-7-1.13-10.41-.15-.79-1.36-.46-1.21,.33,.54,2.79,.72,5.68,.96,8.51,.16,1.88,.29,3.76,.42,5.64,.11,1.67,.12,3.36,.46,5,.49,2.38,1.61,4.58,3.11,6.48,2.78,3.49,6.75,5.92,10.81,7.64,1.27,.54,2.56,1.02,3.89,1.41,.06,.02,.57,.22,.63,.18-.22,.17-.44-.58-.22-.03,.1,.24,.28,.47,.41,.69l6.03,10.17c.15,.25,.43,.35,.71,.29l4.02-.91c.8-.18,1.66-.15,2-.96,1.03-2.4,1.79-4.96,2.68-7.42l3.48-9.65c.21-.57,.61-1.28,.68-1.89,.08-.72-.81-1.49-1.2-2.02l-5.82-7.77-.1,.76c2.89-2.7,5.47-7.36,3.75-11.4-.62-1.45-2.28-2.6-3.86-1.9-1.47,.65-2.09,2.51-2.46,3.94-.36,1.39-.56,2.84-.63,4.27,0,.2,.12,.46,.31,.54,.01,0,.02,.01,.04,.02l-.31-.54h0l.62-.61c-.92,0-.92-.73-1.05-1.59-.15-.97-.2-1.96-.22-2.93-.01-.41,.12-1.06-.04-1.45-.21-.53-.79-.96-1.05-1.53-.81-1.82-1.16-3.89-1.51-5.84-.19-1.07-.14-2.47-.52-3.5-.32-.86-1.62-1.7-2.38-2.14-1.06-.61-2.25-.95-3.46-1.05-1.99-.18-4.02,.28-5.87,1.02s-3.64,1.89-5.41,2.91l-8.61,4.98c-.7,.4-.07,1.48,.63,1.08Z"/></g><path d="M335.26,78.6c.71,.61,1.47,1.24,1.92,2.08,.5,.94,.47,2.01,.47,3.04,0,2.28,0,4.56,0,6.83,0,2.68-.85,8.47,3.03,8.94,.8,.1,.79-1.15,0-1.25-2.06-.25-1.78-3.64-1.78-5.08v-6.23c0-1.79,.19-3.72-.15-5.49-.31-1.61-1.42-2.7-2.61-3.73-.61-.52-1.49,.36-.88,.88h0Z"/><path d="M349.8,77.78c.31,.77-2.38,0-3.53,.09-1.69,.14-2.92,.43-4.58,.12-.22-.04-.54-.28-.61-.49-.09-.26,.21-.43,.04-.65,.4-.29,1.03-.79,1.52-.86,.4-.06,.81-.03,1.21,0,2.02,.2,5.43,.48,5.96,1.79Z"/><path d="M330.62,79.9c-.05,.12-.27,.66-.09,.81,.27,.22,.96-.88,2.22-1.19,1.42-.34,2.93,.46,3.94,.1,.05-.02,.45-.19,.53-.42,.08-.22-.18-.37-.04-.56-.16-.21-.41-.5-.8-.73-1.86-1.11-5,.18-5.77,1.98Z"/><path d="M334.36,90.98c.03,.27,.09,.56,.31,.73,.25,.2,.63,.14,.91-.02,.27-.15,.51-.39,.58-.69,.1-.44-.17-.87-.44-1.22-.26-.34-.88-.94-1.3-.45-.27,.32-.09,1.29-.05,1.65Z"/><path d="M345.08,89.5c.03,.27,.09,.56,.31,.73,.25,.2,.63,.14,.91-.02,.27-.15,.51-.39,.58-.69,.1-.44-.17-.87-.44-1.22-.26-.34-.88-.94-1.3-.45-.27,.32-.09,1.29-.05,1.65Z"/><path d="M342.88,102.35c.44,.75,1.28,1.18,2.13,1.18s1.73-.43,2.4-.99c1.46-1.23,1.67-3.21,1.57-5.01-.02-.34-.27-.62-.62-.62-.32,0-.64,.29-.62,.62,.07,1.32,.05,2.89-.95,3.89-.69,.69-2.19,1.39-2.83,.3-.41-.69-1.49-.07-1.08,.63h0Z"/><path d="M350.09,98.49l.05,.05c.06,.06,.12,.1,.2,.13,.07,.04,.15,.06,.24,.05,.09,0,.17-.01,.24-.05,.08-.03,.14-.07,.2-.13l.1-.13c.06-.1,.08-.2,.09-.32l-.02-.17c-.03-.11-.08-.2-.16-.28l-.05-.05c-.06-.06-.12-.1-.2-.13-.07-.04-.15-.06-.24-.05-.09,0-.17,.01-.24,.05-.08,.03-.14,.07-.2,.13l-.1,.13c-.06,.1-.08,.2-.09,.32l.02,.17c.03,.11,.08,.2,.16,.28h0Z"/><path d="M360.83,84.39c-.2,.31-.31,.68-.38,1.04-.04,.17-.07,.34-.12,.51-.02,.08-.05,.16-.08,.24-.01,.04-.03,.07-.04,.11-.04,.11,.02-.03-.01,.03-.14,.3-.3,.59-.5,.85,.04-.05,.02-.03,0,0s-.06,.07-.09,.11c-.05,.06-.1,.11-.15,.17-.06,.06-.12,.12-.18,.18-.03,.03-.07,.06-.11,.09-.03,.03-.13,.08-.02,.01l.32-.09h-.04l.62,.62v-.02l-.19,.44h-.85c.24,.21,.65,.25,.88,0,.22-.24,.26-.65,0-.88h-.01c-.28-.26-.6-.23-.88,0-.13,.1-.22,.32-.2,.48,.04,.37,.26,.58,.62,.62,.29,.04,.53-.2,.73-.38,.13-.12,.26-.25,.37-.39,.26-.31,.49-.64,.67-1s.32-.73,.4-1.11c.04-.19,.08-.38,.13-.57,.02-.08,.05-.16,.08-.25,.02-.06-.04,.06,.02-.03,.03-.05,.06-.1,.09-.15,.18-.28,.07-.7-.22-.86-.31-.16-.67-.07-.86,.22h0Z"/><g><path class="cls-3" d="M346.9,114.71c-3.74-.3-6.73,2.94-8.87,6.01-4.67,6.69-5.68,10.74-10.72,20.94-4.03,8.16-6.56,13.07-12.17,17.08-2.26,1.62-7.01,4.93-13.74,4.85-5.15-.06-9.03-2.07-10.91-3.23,3.79,8.06,3.28,13.26,2.02,16.57-1.44,3.79-4.17,5.93-3.23,8.08,.72,1.65,3.07,2.14,9.3,2.83,7.77,.87,11.65,1.3,14.55,1.21,14.25-.42,22.2-.61,27.44-5.48,9.9-9.21,4.99-29.59,6.92-29.69,1.13-.06,3.36,6.84,5.36,13,.43,1.31,1.14,3.58,3.13,5.6,.76,.77,1.03,.82,3.75,2.75,4.86,3.45,5.24,4.15,5.29,4.8,.11,1.53-1.38,2.85-1.22,4.37,.11,1.13,1.09,1.96,2.03,2.6,.94,.64,1.98,1.3,2.38,2.36,.4,1.07-.38,2.58-1.5,2.38,3.08,1.27,18.72,7.44,33.53,4.1,7.88-1.78,13.67-5.62,13.67-5.62,4.48-2.13,6.52-4.83,7.51-6.58-4.32-15.45-8.64-30.9-12.96-46.35"/><path d="M346.9,114.08c-5.56-.28-9.15,5.59-11.64,9.75-2.56,4.28-4.42,8.93-6.54,13.44-2.51,5.35-4.98,11.04-8.59,15.76-2.79,3.65-6.71,6.69-10.98,8.43-6.06,2.48-12.82,1.74-18.37-1.64-.57-.35-1.1,.32-.86,.86,2.51,5.41,4.2,11.81,1.36,17.42-.97,1.93-3.38,4.39-2.75,6.75,.44,1.64,2.11,2.3,3.6,2.67,3.33,.82,6.86,1.01,10.26,1.38,2.78,.3,5.56,.63,8.35,.76,2.96,.13,5.94-.07,8.9-.18,3.17-.12,6.36-.28,9.51-.71,4.48-.61,8.98-1.87,12.25-5.16,3.65-3.68,5.2-8.86,5.85-13.88,.56-4.41,.32-8.8,.32-13.23,0-.57-.01-1.15,.07-1.71,.02-.11,.08-.37,.08-.36,.02,.03-.07-.05-.17,.06-.2,.24-.13-.2-.02,.19s.51,.84,.69,1.22c.34,.7,.63,1.43,.91,2.16,.66,1.71,1.25,3.45,1.83,5.19,.99,2.97,1.7,6.21,3.68,8.71,1.47,1.86,3.6,3,5.5,4.37,1.15,.83,2.32,1.66,3.36,2.62,.31,.28,.71,.66,.83,1,.31,.94-.93,2.5-1.15,3.6-.29,1.45,.52,2.62,1.6,3.49,.67,.54,1.48,.95,2.09,1.56s1.33,2.62-.21,2.52c-.76-.05-.77,.98-.17,1.23,11.93,4.88,25.84,7.1,38.27,2.85,2.8-.96,5.53-2.17,8.1-3.64,1.88-1.08,3.84-2.06,5.52-3.44,1.05-.87,1.99-1.87,2.78-2.98,.24-.34,.62-.77,.74-1.17,.25-.8-.32-1.85-.54-2.63-1.27-4.54-2.54-9.08-3.81-13.62-2.85-10.19-5.7-20.39-8.55-30.58-.22-.77-1.42-.44-1.21,.33,2.4,8.6,4.81,17.2,7.21,25.8,1.2,4.3,2.4,8.6,3.61,12.9l1.8,6.45c.11,.38,.29,.72,.2,1.05-.05,.18-.24,.39-.35,.55-.35,.53-.75,1.02-1.18,1.49-1.74,1.91-3.89,2.96-6.05,4.29-2.08,1.28-4.31,2.35-6.57,3.25-7.45,2.95-15.38,3.54-23.28,2.4-5.61-.81-11.14-2.34-16.38-4.49l-.17,1.23c1.17,.07,2.03-.87,2.19-1.99,.2-1.37-.73-2.43-1.75-3.21-.76-.58-1.68-1.04-2.26-1.82-.8-1.08-.3-2.05,.2-3.15,.36-.8,.76-1.76,.48-2.65-.46-1.44-2.32-2.52-3.44-3.35-2-1.5-4.49-2.73-6.15-4.64-2.39-2.75-3.11-6.73-4.25-10.09-.55-1.63-1.12-3.26-1.78-4.85-.39-.95-.79-2.05-1.49-2.82-.78-.86-1.7-.53-1.96,.53-.33,1.33-.14,2.87-.11,4.22,.22,9.43,.09,22.24-9.8,26.98-5.13,2.46-11.34,2.49-16.91,2.7-3.07,.12-6.17,.33-9.24,.16s-5.91-.51-8.85-.83c-3.29-.36-6.94-.41-10.08-1.54-.7-.25-1.45-.63-1.7-1.39-.42-1.26,.71-2.68,1.33-3.69,1.37-2.24,2.46-4.52,2.8-7.15,.36-2.77-.03-5.59-.79-8.27-.54-1.89-1.28-3.71-2.1-5.48l-.86,.86c4.63,2.82,10.15,3.98,15.5,2.92,4.56-.9,8.82-3.41,12.24-6.51,4.03-3.66,6.56-8.56,8.96-13.36,2.6-5.2,4.84-10.56,7.44-15.75,1.19-2.39,2.54-4.68,4.06-6.88,1.98-2.86,4.7-6.18,8.54-5.99,.8,.04,.8-1.21,0-1.25h0Z"/></g><g><path class="cls-3" d="M371.55,103.71c8.48,1.16,16.79,3.56,24.58,7.11,1.71,.78,8.49,8.41,9.61,11.56,1.58,4.44,3.17,8.97,3.26,13.67,.17,8.54-3.97,14.62-8.3,21.1-8.6,12.86-19.13,19.78-28.97,26.25-5.65,3.71-9.01,5.31-12.13,6.47-7.89,2.93-14.98,3.32-19.65,3.2-.17-4.39-1.28-7.54-5.21-9.74-2.34-1.31-6.61-6.34-3.5-8.86,1.19-.96,3.36-1.08,4.78-1.82,2.45-1.27,4.92-2.55,7.45-3.71,2.93-1.35,5.8-2.48,8.79-3.72,3.2-1.33,5.55-3.63,8.35-5.7,4.45-3.29,6.78-7.74,10.16-11.98,2.76-3.46,4.7-7.22,6.94-10.98-.14,.04-.22,.09-.27,.15-.16,.22-.25,.52-.15,.83"/><path d="M371.39,104.32c5.76,.8,11.42,2.15,16.92,4.05,2.53,.88,5.38,1.72,7.69,3.09,1.12,.66,2.06,1.78,2.95,2.72,2.26,2.4,4.91,5.19,6.16,8.3,2.14,5.31,3.8,11.23,3.1,16.99-.62,5.15-3.08,9.75-5.85,14.05-2.94,4.57-6.11,8.94-9.87,12.88-6.72,7.03-14.85,12.59-23.05,17.75-4.16,2.62-8.48,4.8-13.21,6.2-5.28,1.57-10.78,2.24-16.28,2.12l.62,.62c-.1-2.15-.39-4.35-1.42-6.27-1.05-1.96-2.68-3.04-4.47-4.23-1.66-1.11-3.31-3-3.8-4.96-.77-3.07,2.64-3.31,4.69-4.09,1.38-.53,2.69-1.34,4.01-2,1.53-.77,3.07-1.53,4.63-2.23,3.01-1.36,6.16-2.44,9.13-3.87,2.73-1.32,4.99-3.4,7.4-5.22,2.21-1.67,4.07-3.62,5.75-5.83,2.01-2.63,4-5.32,5.94-8.01,2.17-3.01,3.91-6.29,5.8-9.48,.32-.54-.32-1.17-.86-.86-.67,.39-.8,.96-.7,1.69,.11,.79,1.31,.46,1.21-.33l.13-.28-.86-.86c-1.73,2.92-3.34,5.92-5.26,8.71-1.71,2.48-3.61,4.86-5.38,7.3-1.86,2.56-3.87,4.93-6.4,6.85-2.4,1.82-4.67,3.9-7.4,5.22-2.97,1.44-6.12,2.51-9.13,3.87-1.64,.74-3.25,1.53-4.85,2.34-1.47,.75-2.9,1.63-4.49,2.09-1.86,.53-4.06,1.05-4.62,3.19-.48,1.84,.58,3.76,1.66,5.17,.67,.87,1.44,1.66,2.32,2.33,1,.76,2.11,1.27,3.02,2.17,2.04,2.02,2.57,4.81,2.69,7.58,.02,.34,.27,.62,.62,.62,9.43,.22,18.81-1.95,27.02-6.63,4.43-2.52,8.68-5.43,12.84-8.37,4.12-2.91,8.08-6.04,11.7-9.56,4.04-3.94,7.5-8.33,10.62-13.02,2.8-4.21,5.54-8.58,6.76-13.54,1.41-5.7,.49-11.32-1.32-16.81-.65-1.98-1.24-3.98-2.37-5.76-1.01-1.59-2.2-3.09-3.41-4.53-1.28-1.51-2.61-3.03-4.12-4.32-1.68-1.45-3.99-2.13-6.03-2.92-6.42-2.49-13.11-4.2-19.93-5.15-.79-.11-1.13,1.09-.33,1.21h0Z"/></g><path d="M136.01,208.7c-.2,5.39,.07,10.8,1.1,16.11,.85,4.39,2.22,8.65,3.68,12.87,1.62,4.67,3.25,9.33,4.53,14.1,1.8,6.69,2.98,13.52,3.74,20.4,1.28,11.52,2.48,23.05,3.76,34.57,1.41,12.71,2.9,25.42,4.63,38.09,1.45,10.57,2.96,21.19,5.33,31.6,.22,.97,.45,1.93,.69,2.9l.77-.77c-6.42-1.69-12.95-3-19.46-4.26-7.16-1.37-14.35-2.63-21.6-3.36-5.37-.55-10.75-.87-16.14-.98l.62,.62c.03-13.98,0-27.96-.27-41.94-.02-.79,.14-1.82-.09-2.59-.09-.31-.45-.55-.77-.44-.63,.23-.46,1.07-.46,1.6,.01,1.31,.04,2.61,.06,3.92,.11,5.78,.25,11.56,.39,17.33,.13,5.3,.28,10.61,.43,15.91l.46-.6c-5.83,1.86-11.87,3.03-17.99,3.41-5.04,.32-10.08,.02-15.1-.34-10.05-.73-20.11-1.74-30.07-3.25-3.49-.53-7.35-.89-10.63-2.27l.37,.92c3.62-6.98,6.83-14.17,9.56-21.54,1.92-5.18,3.45-10.48,5.43-15.63,3.67-9.52,8.34-18.6,12.7-27.82,4.97-10.5,9.41-21.22,12.71-32.38,2.04-6.91,3.67-13.95,4.94-21.04,1.15-6.43,1.85-12.9,2.75-19.37,2.08-14.87,5.58-29.55,10.45-43.75,.45-1.32,.92-2.65,1.4-3.96l-1.14,.15c6.87,13.82,19.02,24.61,33.57,29.79,3.28,1.17,6.65,2.04,10.08,2.62,.79,.13,1.13-1.07,.33-1.21-15.36-2.59-29.32-11.3-38.29-24.06-1.73-2.47-3.28-5.07-4.62-7.77-.26-.52-.97-.32-1.14,.15-5.08,14.01-8.84,28.5-11.18,43.22-.93,5.86-1.52,11.75-2.4,17.62-1.12,7.47-2.61,14.88-4.54,22.18-3.08,11.64-7.38,22.88-12.43,33.8-4.25,9.2-8.93,18.19-12.83,27.55-2.01,4.82-3.62,9.74-5.29,14.68-2.31,6.86-5.05,13.57-8.16,20.1-.97,2.03-1.97,4.04-3.01,6.03-.2,.39,0,.76,.37,.92,2.81,1.18,6.07,1.54,9.06,2.02,4.87,.78,9.76,1.38,14.66,1.93,5.25,.58,10.5,1.09,15.76,1.49,4.86,.37,9.74,.73,14.62,.56,6.91-.25,13.77-1.45,20.36-3.56,.26-.08,.47-.32,.46-.6-.34-12.11-.7-24.22-.87-36.33,0-.44-.01-.87-.02-1.31,0-.13,.05-.7-.02-.35l-.44,.44h0l-.77-.44c-.09-.32,0,.24,0,.38,.02,.5,.03,1.01,.04,1.51,.04,1.85,.07,3.7,.09,5.55,.1,6.84,.15,13.68,.17,20.52,.02,5.41,.02,10.83,.01,16.24,0,.34,.29,.62,.62,.62,15.98,.35,31.64,2.94,47.23,6.3,3.23,.7,6.45,1.42,9.64,2.26,.47,.12,.89-.31,.77-.77-2.46-9.79-3.94-19.84-5.37-29.82-1.82-12.71-3.33-25.46-4.77-38.22-1.32-11.74-2.56-23.49-3.84-35.23-.72-6.54-1.54-13.05-2.99-19.48-1.17-5.2-2.74-10.28-4.48-15.32-1.46-4.23-3-8.43-4.1-12.77-1.24-4.87-1.86-9.85-1.94-14.88-.02-1.53,0-3.06,.06-4.59,.03-.8-1.22-.8-1.25,0Z"/><path d="M117.73,275.24c-.89-.4-1.46-1.35-1.93-2.16-.84-1.44-1.47-3-2.05-4.56-1.62-4.36-2.82-8.88-3.93-13.4-2.32-9.41-4.17-18.95-5.84-28.5-.37-2.14-.74-4.28-1.08-6.42-.13-.79-1.33-.46-1.21,.33,.96,6.07,2.07,12.13,3.26,18.16,1.96,9.94,3.95,20.07,7.4,29.62,.66,1.82,1.37,3.66,2.35,5.34,.57,1,1.32,2.17,2.41,2.66,.73,.33,1.36-.75,.63-1.08h0Z"/><path d="M115.72,274.31l-10.42,24.29-16.49,38.45-3.81,8.88c-.31,.73,.76,1.37,1.08,.63l10.42-24.29,16.49-38.45,3.81-8.88c.31-.73-.76-1.37-1.08-.63h0Z"/><g><path class="cls-3" d="M330.49,313.43c2.37-1.36,4.7-3.07,5.92-5.51,1.23-2.45,1.03-5.78-1.08-7.52,1.89-.38,3.82,.67,5.08,2.13,1.26,1.46,1.99,3.28,2.81,5.03,5.64,11.98,16.65,21.3,29.39,24.91-.21,5.5-.67,11.59-4.63,15.42-2.51,2.43-6.02,3.5-9.43,4.22-7.44,1.56-15.16,1.81-22.69,.75,1.79-7.23-3.01-14.33-7.83-20-2.83-3.33-9.67-9.8-9.32-14.63,.23-3.17,1.63-2.36,4-2.55,2.93-.25,5.17-.72,7.78-2.23Z"/><path d="M330.8,313.97c2.65-1.54,5.37-3.53,6.49-6.51,.96-2.55,.58-5.64-1.52-7.5l-.28,1.04c4.22-.64,5.98,4.41,7.43,7.38,1.4,2.88,3.12,5.6,5.09,8.13,3.9,5.01,8.82,9.24,14.36,12.35,3.18,1.79,6.56,3.19,10.07,4.2l-.46-.6c-.14,3.58-.33,7.28-1.65,10.66-1.47,3.76-4.45,6.14-8.22,7.4-3.99,1.33-8.32,1.9-12.5,2.19-4.53,.31-9.09,.15-13.58-.47l.44,.77c1.83-7.94-3.36-15.3-8.31-20.97-2.09-2.39-4.32-4.65-6.17-7.24-.95-1.34-1.86-2.78-2.35-4.36-.31-.99-.78-3.33,.35-3.98,.5-.29,1.32-.13,1.88-.14,.9-.01,1.8-.12,2.69-.24,2.23-.31,4.28-1.01,6.25-2.11,.7-.39,.07-1.47-.63-1.08-2.01,1.12-4.12,1.77-6.4,2.03-1.26,.15-2.72-.08-3.95,.27-2.54,.72-1.8,4.64-1.09,6.41,1.26,3.11,3.56,5.76,5.76,8.24,2.43,2.73,4.88,5.4,6.93,8.45,2.84,4.23,5.02,9.22,3.83,14.39-.07,.3,.09,.72,.44,.77,4.77,.66,9.59,.84,14.39,.48,4.5-.34,9.28-.94,13.5-2.61,3.57-1.42,6.3-3.87,7.79-7.44,1.49-3.59,1.71-7.57,1.86-11.41,.01-.27-.2-.53-.46-.6-6.57-1.89-12.67-5.25-17.8-9.77s-8.98-10.12-11.92-16.35c-1.49-3.18-3.93-6.55-7.9-5.94-.46,.07-.6,.75-.28,1.04,1.9,1.69,2.07,4.56,.98,6.77-1.18,2.39-3.45,3.98-5.7,5.29-.7,.4-.07,1.48,.63,1.08Z"/></g><g><polygon class="cls-4" points="317.52 290.02 245.51 202.52 245.51 202.03 245.31 202.28 245.11 202.03 245.1 202.52 173.09 289.68 164.96 310.78 243.93 310.78 246.69 310.78 325.66 310.78 317.52 290.02"/><path d="M317.78,289.76l-7.19-8.73-17.25-20.96-20.92-25.42-17.95-21.82-5.87-7.14c-.86-1.04-2.07-2.13-2.72-3.31-.17-.31,.01,.25,0-.34,0-.3-.42-.53-.64-.27l-.2,.24h.53l-.2-.24c-.22-.26-.64-.04-.64,.27,0,.57,.2,.01-.04,.41-.13,.22-.34,.41-.5,.61l-1.98,2.4-7.25,8.78-22.71,27.48-24.23,29.32-14.42,17.45c-1.19,1.44-1.63,3.09-2.31,4.85l-6.21,16.12-.48,1.23c-.09,.23,.14,.47,.36,.47h160.69c.22,0,.45-.24,.36-.47l-7.13-18.18-1.01-2.58c-.17-.44-.9-.25-.72,.2l7.13,18.18,1.01,2.58,.36-.47H164.96l.36,.47,5.13-13.31,2.69-6.98c.09-.23,.16-.47,.26-.69,.09-.21-.02,0-.04,.03,.08-.12,.18-.23,.27-.33,4.36-5.11,8.56-10.36,12.84-15.54l23.76-28.75,23.37-28.28,8.01-9.69c1.18-1.43,2.7-2.86,3.67-4.44,.18-.3,.2-.46,.21-.87l-.64,.27,.2,.24c.12,.15,.41,.15,.53,0l.2-.24-.64-.27c.01,1.08,1.09,1.94,1.75,2.74l5.06,6.15,17.14,20.82,20.98,25.5,18.17,22.08,6.03,7.33c.9,1.09,1.78,2.57,2.87,3.48,.05,.04,.09,.1,.13,.15,.31,.37,.83-.16,.53-.53Z"/></g><polygon points="317.52 290.02 173.09 289.68 163.96 312.6 242.93 312.6 245.69 312.6 326.56 312.06 317.52 290.02"/><polygon points="245.11 262.75 215.31 342.94 274.09 342.94 245.11 262.75"/><path d="M173.02,290.22l14.41,.04,34.59,.1,41.69,.12,36.03,.1,11.93,.03c1.85,0,3.75,.14,5.59,.02,.08,0,.17,0,.25,0,.77,0,.77-1.2,0-1.2l-14.41-.04-34.59-.1-41.69-.12-36.03-.1-11.93-.03c-1.85,0-3.75-.14-5.59-.02-.08,0-.17,0-.25,0-.77,0-.77,1.2,0,1.2h0Z"/><g><polygon class="cls-4" points="74.78 159.35 70.96 157.26 74.79 155.17 76.88 151.35 78.97 155.18 82.79 157.28 78.96 159.36 76.86 163.18 74.78 159.35"/><path d="M74.97,159.03l-3.82-2.1v.65l2.02-1.1,1.29-.7c.19-.1,.44-.19,.6-.34s.24-.41,.35-.6l.71-1.29,1.1-2.01h-.65l1.1,2.02,.7,1.29c.1,.19,.19,.44,.34,.6s.41,.24,.6,.35l1.29,.71,2.01,1.1v-.65l-2.02,1.1-1.29,.7c-.19,.1-.44,.19-.6,.34s-.24,.41-.35,.6l-.71,1.29-1.1,2.01h.65l-2.08-3.83c-.23-.42-.88-.05-.65,.38l2.08,3.83c.13,.24,.51,.24,.65,0l1.05-1.91,.72-1.31c.07-.14,.16-.27,.22-.41,.03-.06,.18-.26,.04-.12s.04,0,.1-.02c.15-.07,.29-.16,.43-.24l1.31-.72,1.91-1.04c.24-.13,.24-.51,0-.65l-1.91-1.05-1.31-.72c-.14-.07-.27-.16-.41-.22-.06-.03-.26-.18-.12-.04s0-.04-.02-.1c-.07-.15-.16-.29-.24-.43l-.72-1.31-1.04-1.91c-.13-.24-.51-.24-.65,0l-1.05,1.91-.72,1.31c-.07,.14-.16,.27-.22,.41-.03,.06-.18,.26-.04,.12s-.04,0-.1,.02c-.15,.07-.29,.16-.43,.24l-1.31,.72-1.91,1.04c-.24,.13-.24,.51,0,.65l3.82,2.1c.42,.23,.8-.41,.38-.65Z"/></g><g><polygon class="cls-4" points="457.24 284.97 450.52 281.28 457.26 277.61 460.95 270.89 464.61 277.62 471.33 281.31 464.6 284.98 460.91 291.7 457.24 284.97"/><path d="M457.43,284.64l-6.72-3.69v.65l3.55-1.93,2.27-1.23c.31-.17,.75-.31,1-.56s.4-.69,.56-.99l1.24-2.26,1.94-3.54h-.65l1.93,3.55,1.23,2.27c.17,.31,.31,.75,.56,1s.69,.4,.99,.56l2.26,1.24,3.54,1.94v-.65l-3.55,1.93-2.27,1.23c-.31,.17-.75,.31-1,.56s-.4,.69-.56,.99l-1.24,2.26-1.94,3.54h.65l-3.67-6.73c-.23-.42-.88-.05-.65,.38l3.67,6.73c.13,.24,.51,.24,.65,0l1.84-3.36,1.27-2.31c.13-.24,.27-.48,.4-.72,.03-.06,.26-.41,.12-.26s.15-.06,.22-.09c.26-.12,.51-.28,.76-.42l2.31-1.26,3.37-1.83c.24-.13,.24-.51,0-.65l-3.36-1.84-2.31-1.27c-.24-.13-.48-.27-.72-.4-.06-.03-.41-.26-.26-.12s-.06-.15-.09-.22c-.12-.26-.28-.51-.42-.76l-1.26-2.31-1.83-3.37c-.13-.24-.51-.24-.65,0l-1.84,3.36-1.27,2.31c-.13,.24-.27,.48-.4,.72-.03,.06-.26,.41-.12,.26s-.15,.06-.22,.09c-.26,.12-.51,.28-.76,.42l-2.31,1.26-3.37,1.83c-.24,.13-.24,.51,0,.65l6.72,3.69c.42,.23,.8-.41,.38-.65Z"/></g><g><polygon class="cls-4" points="8.01 388.34 .37 384.14 8.02 379.98 12.22 372.34 16.38 379.99 24.02 384.19 16.37 388.35 12.18 395.99 8.01 388.34"/><path d="M8.2,388.01l-7.64-4.19v.65l4.03-2.2,2.58-1.4c.34-.19,.84-.35,1.12-.63s.45-.78,.63-1.12l1.41-2.57,2.21-4.02h-.65l2.2,4.03,1.4,2.58c.19,.34,.35,.84,.63,1.12s.78,.45,1.12,.63l2.57,1.41,4.02,2.21v-.65l-4.03,2.2-2.58,1.4c-.34,.19-.84,.35-1.12,.63s-.45,.78-.63,1.12l-1.41,2.57-2.21,4.02h.65l-4.17-7.65c-.23-.42-.88-.05-.65,.38l4.17,7.65c.13,.24,.51,.24,.65,0l2.1-3.82,1.44-2.62c.15-.27,.31-.54,.45-.82,.03-.07,.28-.45,.14-.31s.19-.08,.26-.11c.3-.14,.58-.32,.87-.47l2.63-1.43,3.83-2.08c.24-.13,.24-.51,0-.65l-3.82-2.1-2.62-1.44c-.27-.15-.54-.31-.82-.45-.07-.03-.45-.28-.31-.14s-.08-.19-.11-.26c-.14-.3-.32-.58-.47-.87l-1.43-2.63-2.08-3.83c-.13-.24-.51-.24-.65,0l-2.1,3.82-1.44,2.62c-.15,.27-.31,.54-.45,.82-.03,.07-.28,.45-.14,.31s-.19,.08-.26,.11c-.3,.14-.58,.32-.87,.47l-2.63,1.43-3.83,2.08c-.24,.13-.24,.51,0,.65l7.64,4.19c.42,.23,.8-.41,.38-.65Z"/></g><g><path d="M215.76,311.7l-10.49-157.71c-1.77-26.65,7.52-52.85,25.7-72.42l16.04-17.27,13.07,14.61c19.5,21.8,29.05,50.74,26.35,79.86l-14.17,152.93s-31.25,10.7-56.5,0Z"/><path class="cls-5" d="M216.39,311.7l-.5-7.49-1.31-19.68-1.82-27.37-2.05-30.8-2-30.01-1.64-24.64-1-15.08c-.54-8.06-.49-16.1,.78-24.11,2.69-16.96,9.94-33.11,20.89-46.35,5.58-6.75,11.85-12.99,17.8-19.41l1.9-2.05h-.88c4.73,5.28,9.53,10.5,14.17,15.86,11.03,12.72,18.87,28.1,22.73,44.48,2.67,11.32,3.33,22.95,2.26,34.51l-1.08,11.62-2.03,21.95-2.62,28.22-2.8,30.17-2.57,27.77-1.98,21.36c-.32,3.48-.91,7.05-.98,10.56,0,.16-.03,.32-.04,.48l.46-.6c-3.85,1.31-7.88,2.2-11.88,2.95-8.88,1.66-18.03,2.3-27.03,1.36-5.92-.62-11.76-2-17.26-4.3-.74-.31-1.06,.9-.33,1.21,16.45,6.89,35.71,5.69,52.65,1.22,1.4-.37,2.81-.75,4.18-1.22,.28-.1,.43-.31,.46-.6l.68-7.38,1.79-19.28,2.49-26.87,2.79-30.15,2.69-29.02,2.21-23.84,1.32-14.23c.8-8.61,.87-17.21-.27-25.8-2.18-16.38-8.22-32.18-17.55-45.82-5.69-8.31-12.77-15.62-19.48-23.11l-2.11-2.35c-.22-.25-.66-.24-.88,0l-15.48,16.67c-10.23,11.02-17.98,24.08-22.39,38.47-3.54,11.57-4.81,23.68-4.01,35.74l.78,11.76,1.51,22.68,1.93,29.04,2.07,31.1,1.92,28.89,1.47,22.05c.24,3.66,.46,7.32,.73,10.97,.01,.16,.02,.32,.03,.48,.05,.8,1.3,.8,1.25,0Z"/></g><path class="cls-5" d="M244.48,198.78c-17.17,0-31.14-13.97-31.14-31.14s13.97-31.14,31.14-31.14,31.14,13.97,31.14,31.14-13.97,31.14-31.14,31.14Zm0-62.02c-17.03,0-30.89,13.86-30.89,30.89s13.86,30.89,30.89,30.89,30.89-13.86,30.89-30.89-13.86-30.89-30.89-30.89Z"/><circle class="cls-3" cx="244.89" cy="170.05" r="34.53"/><g><circle cx="244.89" cy="169.28" r="27.06"/><path d="M271.35,169.28c-.07,11.06-7.09,21.21-17.56,24.93-10.39,3.69-22.21,.43-29.26-8.03-7.13-8.55-8.04-21.07-2.29-30.58,5.74-9.48,17.12-14.48,27.98-12.24,12.21,2.52,21.04,13.5,21.12,25.92,0,.77,1.2,.77,1.2,0-.07-11.5-7.31-21.98-18.13-25.97s-23.48-.59-30.85,8.35-8.39,21.96-2.37,31.91c5.96,9.86,17.7,15.04,29.01,12.86,11.24-2.17,20.26-11.51,22-22.83,.22-1.43,.33-2.87,.34-4.31,0-.77-1.2-.77-1.2,0Z"/></g><g><circle class="cls-4" cx="244.73" cy="169.04" r="23.87"/><path class="cls-3" d="M244.73,145.79c9.69,.07,18.59,6.19,21.88,15.36,3.29,9.19,.39,19.66-7.13,25.86s-18.36,6.95-26.66,1.98c-8.37-5.01-12.83-15.03-10.86-24.61,2.21-10.76,11.85-18.52,22.78-18.6,.8,0,.81-1.26,0-1.25-10.16,.07-19.4,6.42-22.97,15.97-3.6,9.63-.58,20.85,7.34,27.39,7.9,6.52,19.36,7.45,28.18,2.18,8.78-5.25,13.41-15.65,11.5-25.68-2.17-11.45-12.48-19.77-24.06-19.85-.8,0-.81,1.24,0,1.25Z"/></g><g class="cls-2"><rect class="cls-3" x="201.86" y="153.75" width="58.4" height="8.72" transform="translate(-37.3 237.94) rotate(-50.95)"/><rect class="cls-3" x="209.06" y="163.04" width="58.4" height="4.55" transform="translate(-40.23 246.18) rotate(-50.95)"/></g><path d="M244.73,145.77c9.7,.07,18.61,6.19,21.9,15.38,3.29,9.2,.39,19.68-7.14,25.89-7.48,6.17-18.38,6.96-26.69,1.99-8.38-5.01-12.84-15.05-10.87-24.63,2.21-10.77,11.86-18.54,22.81-18.62,.77,0,.77-1.21,0-1.2-10.15,.07-19.38,6.42-22.94,15.95s-.58,20.83,7.33,27.37c7.9,6.52,19.34,7.44,28.15,2.17,8.77-5.24,13.39-15.63,11.49-25.66-2.17-11.44-12.46-19.75-24.03-19.83-.77,0-.77,1.19,0,1.2Z"/><g><path class="cls-4" d="M274.71,290.31v20.48c-5.54,2.63-16.18,6.8-30.15,6.81-14.02,0-24.7-4.18-30.25-6.81v-20.85c6.46,2.47,16.98,5.6,30.25,5.67,13.18,.07,23.68-2.91,30.15-5.29Z"/><path d="M274.09,290.31v20.48l.31-.54c-15.43,7.3-33.3,8.7-49.67,3.85-3.46-1.02-6.83-2.31-10.09-3.85l.31,.54v-20.85l-.79,.6c15.82,6.02,33.28,7.29,49.81,3.59,3.71-.83,7.35-1.91,10.92-3.22,.75-.27,.43-1.48-.33-1.21-15.73,5.77-33.01,6.84-49.32,2.95-3.65-.87-7.24-1.98-10.74-3.32-.39-.15-.79,.23-.79,.6v20.85c0,.21,.12,.45,.31,.54,15.74,7.45,33.95,8.92,50.66,3.97,3.55-1.05,7.02-2.39,10.37-3.97,.19-.09,.31-.33,.31-.54v-20.48c0-.8-1.25-.81-1.25,0Z"/></g><g><polygon class="cls-4" points="204.33 150.15 182.82 167.18 182.82 200.34 207.47 182.86 204.33 150.15"/><path d="M203.89,149.71l-20.47,16.2c-.62,.49-1.18,.74-1.23,1.56-.09,1.45,0,2.93,0,4.38v28.49c0,.44,.54,.82,.94,.54l21.6-15.32,3.05-2.16c.17-.12,.33-.31,.31-.54l-2.74-28.59-.4-4.13c-.08-.79-1.33-.8-1.25,0l2.74,28.59,.4,4.13,.31-.54-21.6,15.32-3.05,2.16,.94,.54v-32.04c0-.09,.07-1.05,0-1.09-.06-.03-.29,.33-.12,.36,.07,.01,.35-.28,.41-.33l10.77-8.53,10.27-8.13c.63-.5-.26-1.38-.88-.88Z"/></g><g><polygon class="cls-4" points="323.21 169.32 344.72 186.35 344.72 219.51 320.08 202.03 323.21 169.32"/><path d="M322.77,169.76l20.37,16.13c.16,.12,.86,.86,1.07,.84-.11,0-.05-.69-.11,.02-.12,1.49,0,3.05,0,4.54v28.21l.94-.54-21.6-15.32-3.05-2.16,.31,.54,2.74-28.59,.4-4.13c.08-.8-1.17-.8-1.25,0l-2.74,28.59-.4,4.13c-.02,.23,.14,.42,.31,.54l21.6,15.32,3.05,2.16c.4,.28,.94-.1,.94-.54v-32.22c0-.77,.05-1.17-.56-1.68-3.52-2.92-7.18-5.69-10.77-8.52l-10.36-8.2c-.62-.49-1.51,.38-.88,.88Z"/></g><g><path class="cls-3" d="M132.85,332.67c-.75-3.78-1.5-7.56-2.24-11.33,0,0,14.16-2.49,16.26-15.08,.6,.17,5.08-.47,4.1-2.35-1.45-2.78-3.35-4.95-3.35-4.95l1.99-18.22c-2.72-1.79-6.44-3.78-11.11-5.14-10.53-3.06-19.63-1.08-23.97,.2-.88,4.99-1.76,9.98-2.64,14.97,0,0-10.21-6.04-8.66,5.29,0,0,3.3,5.34,5.46,5.85-.29,3.81-.97,8.33-2.44,13.27-.72,2.44-1.54,4.66-2.39,6.65,2.76,1.02,5.61,2.14,8.55,3.39,3.18,1.35,6.2,2.73,9.04,4.12,.32,2.82,.64,5.64,.96,8.47l4.35-7.58c.84,.33,1.69,.66,2.54,1,1.2,.48,2.39,.97,3.56,1.46Z"/><path d="M133.45,332.51c-.75-3.78-1.5-7.56-2.24-11.33l-.44,.77c7.94-1.42,15.26-7.39,16.7-15.52l-.77,.44c1.48,.3,4.81-.43,5.01-2.27,.07-.66-.32-1.23-.63-1.78-.57-.99-1.2-1.95-1.89-2.87-.26-.34-.65-1.1-1.03-1.31-.34-.19,.21,.19,.08,.3,.02-.02,0-.11,.02-.14,.25-.39,.16-1.45,.21-1.9l.36-3.3,.87-7.95,.54-4.91c.02-.22-.14-.43-.31-.54-10.54-6.87-23.54-8.51-35.56-5.01-.19,.06-.4,.23-.44,.44-.88,4.99-1.76,9.98-2.64,14.97l.92-.37c-1.83-1.07-4.24-1.99-6.37-1.61-3.6,.64-4.35,6-2.59,8.6,1.27,1.88,2.97,4.62,5.28,5.29l-.46-.6c-.53,6.81-2.16,13.46-4.81,19.76-.14,.33,.15,.66,.44,.77,5.93,2.2,11.75,4.68,17.44,7.44l-.31-.54c.32,2.82,.64,5.64,.96,8.47,.07,.58,.83,.9,1.16,.32l4.35-7.58-.71,.29c2.04,.8,4.07,1.62,6.09,2.47,.74,.31,1.06-.9,.33-1.21-2.02-.85-4.05-1.67-6.09-2.47-.25-.1-.58,.07-.71,.29l-4.35,7.58,1.16,.32c-.29-2.51-.57-5.02-.86-7.53-.14-1.21-.12-1.34-1.23-1.88s-2.24-1.06-3.36-1.58c-4.45-2.03-8.97-3.9-13.56-5.6l.44,.77c2.69-6.4,4.31-13.17,4.85-20.09,.02-.27-.21-.53-.46-.6-1.2-.35-2.15-1.58-2.91-2.51-.68-.83-1.56-1.81-2.01-2.79-.66-1.43-.42-4.6,.97-5.67,1.81-1.4,4.96-.02,6.67,.99,.32,.19,.85,.03,.92-.37,.88-4.99,1.76-9.98,2.64-14.97l-.44,.44c11.72-3.41,24.32-1.81,34.6,4.88l-.31-.54-1.13,10.35-.69,6.28c-.05,.46-.2,1.02-.16,1.48,.05,.52,.4,.81,.72,1.22,.62,.79,1.2,1.62,1.73,2.47,.39,.63,1.41,1.69,.7,2.32-.63,.55-2.29,.97-3.12,.81-.31-.06-.71,.09-.77,.44-1.36,7.74-8.27,13.3-15.82,14.65-.35,.06-.5,.46-.44,.77,.75,3.78,1.5,7.56,2.24,11.33,.16,.79,1.36,.45,1.21-.33Z"/></g><path d="M151.71,290.73c-.47-.56-1.17-.99-1.83-1.29-1.65-.74-3.48-.71-5.18-.13-.76,.26-.43,1.46,.33,1.21,.84-.28,1.69-.44,2.58-.38,.33,.02,.63,.07,.97,.16,.3,.08,.57,.18,.78,.28,.23,.11,.46,.24,.68,.38,.09,.06,.18,.12,.27,.19,.12,.09-.1-.09,0,0,.04,.03,.08,.06,.12,.1,.14,.12,.27,.24,.39,.37,.22,.26,.66,.22,.88,0,.26-.26,.22-.63,0-.88h0Z"/><path d="M141.12,289.1c-1.23-.72-2.56-1.29-3.9-1.76-2.21-.78-4.78-1.34-7.07-.58-.76,.25-.43,1.46,.33,1.21,2.12-.7,4.49-.1,6.53,.63,1.2,.43,2.38,.95,3.48,1.59,.7,.41,1.33-.67,.63-1.08h0Z"/><path d="M136.35,307.85c-.14,0-.25-.06-.36-.15-.07-.1-.09-.12-.05-.06,0,.03,.03,.07,.05,.09,.04,.08-.04-.11,.02,.06,.02,.05,.04,.1,.06,.15,.13,.33,.26,.66,.44,.96,.48,.82,1.22,1.44,2.13,1.74,.83,.27,1.72,.22,2.57,.11,.17-.02,.35-.05,.52-.08,.2-.03,.18-.03,.34-.05,.12-.01,.23-.01,.35-.01,.03,0-.12-.05,0,.01-.13-.06-.15-.06-.2-.15,.42,.69,1.5,.06,1.08-.63-.39-.64-1.19-.48-1.81-.39-.77,.12-1.57,.25-2.36,.04-.83-.22-1.39-.82-1.75-1.58-.1-.21-.19-.51-.33-.79s-.39-.54-.73-.51-.62,.27-.62,.62c0,.32,.29,.65,.62,.62h0Z"/><path d="M130.61,321.34c-1.06-.12-10.16,.61-13.19-2.74l15.77,14-2.58-11.26Z"/><path d="M149.46,281.6c4.32-2.04,6.36-3.59,6.13-4.65-.08-.38-.47-.7-1.16-.96,2.06-1.65,2.35-2.41,2.18-2.79-.33-.76-2.56-.3-2.77-.97-.23-.74,2.27-1.95,2.06-2.46-.23-.57-3.48,.54-3.9-.27-.32-.6,1.27-1.71,1.01-2.25-.2-.41-1.44-.5-5.86,.81,.11-.77,.12-1.87-.43-2.89-1.3-2.4-4.86-2.71-8-2.94-6.17-.45-12.32-1.95-16.41-3.14-2.91-.84-6,.37-7.56,2.96-1.5,2.49-3.49,5.75-5.57,9.14-2.91,4.73-5.64,13.44-3.73,16.53,1.58,2.56,5.19,1.33,6.4,4.07,.94,2.12-.7,4.18,.27,9.17,.22,1.11,.41,1.47,.69,1.55,.97,.26,3.31-2.78,3.82-6.18,.41-2.73-.62-3.85,0-7.18,.25-1.35,.66-2.42,.97-3.13,5.99-9.91,10.2-11.74,13.02-11.43,2.02,.22,3.01,1.52,6,3.23,4.81,2.75,9.53,3.55,12.83,3.78Z"/><circle cx="135.27" cy="293.45" r="2.11"/><circle cx="147.43" cy="295.15" r="2.11"/><path d="M116.64,289.15s-6.78-19.87,8.88,15.87c2.01,4.59,12.76,11.12,14.9,8.66l5.5-3.43s-5.2,12.1-15.31,11.09-21.9-17.97-13.97-32.19Z"/><path d="M146.24,309.39c.55-.28,.59-1.15,.6-1.22,.12-2.8-6.86-5.21-7.87-5.55-4.49,.8-8.97,1.6-13.46,2.39-.44,1.32-.21,1.93,.02,2.24,1.8,2.39,10.44-4.27,16.07-.88,1.94,1.17,3.56,3.56,4.63,3.01Z"/><g><path class="cls-3" d="M38.46,373.37c1.88-11.81,9.27-22.21,18.43-29.9,9.16-7.69,14.67-13.7,25.57-18.63,7-3.17,14.58-6.28,22.13-4.89,7.86,1.45,14.76,7.68,22.72,6.93,1.69-.16,3.48-.63,5.03,.06,1.02,.45,10.93-3.01,20.63,7.42,3.72,4,16.88,42.55,22.09,44.18,4.96,1.56,11.22-5.26,16.14-9.22,4.05-3.26,15.34-12.09,15.87-17.26-1.03,10.19,5.51,19.83,11.91,22.86-8.47,9.64-17.76,18.56-27.73,26.63-2.54,2.06-5.16,4.08-8.15,5.39-2.41,1.06-6.03,2.69-9.96,2.16-5.21-.71-11.37-3.1-13.16-5.31-1.62-2-3.77-2.63-4.56-5.61-3.82-14.46-8.26-41.36-8.77-44.53,1.74,9.78,3.46,19.79,4.95,30.07,1.97,13.69,3.82,27.42,4.17,30.24-8.37,.83-36.99,.9-45.2-.95-2.97,4.91-5.19,10.28-6.57,15.85-3.09-.63-6.19-1.26-9.28-1.88-12.78,11.07-32.82,12.74-47.26,3.95,3.2-6.32,5.53-13.07,6.92-20.02,.07-.35-9.98-12.21-11.35-14.38-4.29-6.78-5.82-15.27-4.57-23.15Z"/><path d="M39.06,373.53c1.66-10.09,7.21-19.03,14.42-26.12,3.64-3.59,7.69-6.81,11.56-10.15,3.59-3.1,7.27-6.07,11.34-8.52,4.77-2.88,10.02-5.24,15.33-6.92,5.57-1.76,11.15-2.15,16.7-.14,4.64,1.68,8.92,4.38,13.77,5.46,2.49,.55,4.76,.35,7.27,.12,1.04-.09,1.87,.14,2.86,.32,.31,.06,.62,.02,.93,0,2.63-.21,5.17-.33,7.77,.25,4.37,.97,8.86,3.61,11.66,7.14,1.02,1.28,1.69,2.9,2.38,4.37,1.18,2.5,2.26,5.05,3.34,7.59,2.62,6.17,5.15,12.39,7.93,18.5,1.22,2.68,2.47,5.34,3.88,7.92,.91,1.66,1.89,3.43,3.23,4.8,1.74,1.77,4.34,1.39,6.46,.49,4.09-1.74,7.34-5.15,10.68-7.97,5.45-4.6,11.82-8.88,15.7-15,.7-1.1,1.26-2.28,1.42-3.59h-1.25c-.82,8.92,3.92,19.35,12.22,23.4l-.13-.98c-6.92,7.85-14.36,15.24-22.28,22.08-3.93,3.39-7.96,7.17-12.66,9.47-1.98,.97-4.1,1.83-6.27,2.28-2.58,.53-5.1,.12-7.61-.52-2.22-.57-4.43-1.32-6.46-2.39-.79-.41-1.58-.87-2.25-1.47-.6-.54-1.08-1.19-1.68-1.73-1.56-1.41-2.83-2.46-3.39-4.59-.43-1.63-.82-3.27-1.21-4.92-1.75-7.55-3.22-15.17-4.61-22.8-1-5.46-1.97-10.93-2.84-16.41l-1.21,.33c3.1,17.42,5.69,34.89,8.07,52.42,.35,2.57,.7,5.14,1.03,7.72l.62-.62c-5.46,.53-10.99,.53-16.48,.55-6.84,.03-13.7-.07-20.53-.53-2.68-.18-5.4-.37-8.03-.94-.28-.06-.56,.04-.71,.29-2.99,4.98-5.22,10.36-6.63,16l.77-.44c-2.44-.5-4.88-.99-7.33-1.49-.74-.15-1.78-.62-2.5-.28-.83,.39-1.63,1.35-2.38,1.89-3.06,2.23-6.46,3.99-10.04,5.23-7.11,2.47-14.9,3-22.26,1.44-4.2-.89-8.21-2.45-11.89-4.66l.22,.86c2.65-5.28,4.74-10.83,6.18-16.56,.19-.75,.36-1.5,.53-2.25,.1-.46,.35-1.05,.31-1.52-.03-.26-.14-.43-.28-.64-.55-.86-1.27-1.65-1.91-2.45-2.07-2.57-4.17-5.11-6.23-7.68s-3.84-4.96-5.16-7.96c-2.56-5.81-3.32-12.38-2.36-18.65,.12-.79-1.08-1.13-1.21-.33-1.34,8.79,.45,18.34,5.97,25.46,1.95,2.51,3.98,4.96,5.98,7.42,.94,1.15,1.88,2.31,2.81,3.47,.28,.35,.56,.7,.82,1.06,.34,.47,.29,.36,.19,.8-1.39,6.66-3.67,13.11-6.72,19.19-.15,.3-.08,.67,.22,.86,11.52,6.94,26.28,7.46,38.49,2,3.46-1.54,6.65-3.59,9.53-6.05l-.61,.16c3.09,.63,6.19,1.25,9.28,1.88,.33,.07,.68-.09,.77-.44,1.39-5.54,3.57-10.8,6.51-15.7l-.71,.29c5.36,1.18,11.07,1.21,16.53,1.37,6.89,.21,13.8,.22,20.69,.03,2.72-.08,5.44-.16,8.15-.43,.3-.03,.67-.26,.62-.62-1.89-15-3.98-30-6.45-44.91-.86-5.19-1.77-10.38-2.69-15.56-.14-.8-1.33-.45-1.21,.33,2.05,12.87,4.37,25.74,7.28,38.44,.79,3.45,1.17,7.38,3.95,9.84,1.25,1.1,2.34,2.44,3.69,3.4,1.69,1.19,3.68,2,5.63,2.67,2.25,.77,4.62,1.39,6.99,1.61s4.74-.3,6.95-1.11c4.7-1.72,8.55-4.53,12.39-7.68,9.5-7.81,18.36-16.39,26.49-25.62,.25-.28,.26-.79-.13-.98-7.94-3.87-12.38-13.8-11.6-22.32,.07-.81-1.15-.78-1.25,0-.18,1.45-1.08,2.79-1.92,3.94-1.16,1.59-2.53,3.03-3.93,4.4-2.64,2.6-5.49,4.98-8.37,7.3-3.34,2.69-6.44,5.77-10,8.17-2,1.35-5.72,3.54-7.84,1.45-1.38-1.36-2.34-3.2-3.25-4.89-1.4-2.57-2.64-5.22-3.85-7.89-2.77-6.11-5.29-12.32-7.92-18.49-1.07-2.52-2.15-5.05-3.32-7.53-.7-1.49-1.4-3.11-2.45-4.4-4.7-5.76-12.13-8.56-19.42-7.9-.68,.06-1.37,.16-1.88,.03-2.44-.64-4.84,.18-7.32,.02-5.07-.33-9.62-3.1-14.21-5.02-4.86-2.03-9.72-2.76-14.94-1.8-5.56,1.03-10.99,3.42-16.03,5.95-8.65,4.34-15.53,11.01-22.86,17.19s-13.93,14.14-17.27,23.5c-.82,2.31-1.43,4.68-1.82,7.09-.13,.79,1.07,1.13,1.21,.33Z"/></g><path d="M50.28,432.64c-1.7,3.31-2.89,6.87-2.99,10.61-.09,3.49,.76,6.97,2.22,10.13,2.71,5.86,7.67,10.48,13.62,12.94l-.37-.92c-3.83,8.59-5.99,17.81-6.35,27.22-.01,.31,.3,.66,.62,.62,8.76-.84,17.36,1.37,25.91,2.94,8.41,1.55,16.89,2.78,25.39,3.72s17.26,1.57,25.92,1.88c7.5,.27,15.12,.57,22.58-.42,6.2-.83,12.44-2.68,17.28-6.8,5.2-4.42,7.97-11.12,8.08-17.88,.11-7.13-2.79-14.03-7.27-19.49-5.05-6.16-12.09-10.52-18.58-14.98-3.43-2.35-6.85-4.73-10.33-7-3.19-2.08-6.53-4.02-10.17-5.18-3.85-1.23-7.92-1.43-11.93-1.42-4.38,0-8.75,.11-13.13,.21-2.12,.05-4.24,.1-6.37,.15-.8,.02-.81,1.27,0,1.25,4.16-.11,8.33-.2,12.49-.27s7.98-.24,11.94,.06,7.93,1.41,11.58,3.33c3.4,1.78,6.54,4.01,9.71,6.16,6.56,4.46,13.48,8.73,19.44,14,5.55,4.91,9.8,11.3,11.03,18.7,1.16,6.94-.67,14.51-5.52,19.73-4.41,4.74-10.66,6.99-16.92,8.01-6.91,1.12-14,.9-20.97,.71-8.33-.23-16.66-.75-24.96-1.57s-16.61-1.94-24.86-3.35c-8.05-1.38-16.1-3.51-24.29-3.87-2.02-.09-4.05-.04-6.06,.15l.62,.62c.35-9.17,2.45-18.2,6.18-26.59,.18-.4,.03-.75-.37-.92-5.54-2.28-10.12-6.63-12.71-12.03-1.47-3.05-2.3-6.45-2.21-9.84s1.22-6.87,2.82-9.98c.37-.71-.71-1.35-1.08-.63h0Z"/><path d="M63.97,465.69c11.01,6.11,24.03,5.09,36.12,4.19l21.42-1.61c5.96-.45,11.97-1.14,17.95-.75s11.82,2.03,15.65,6.77c.51,.63,1.39-.26,.88-.88-6.86-8.5-19.33-7.52-29.07-6.79l-21.67,1.63c-6.57,.49-13.15,1.14-19.75,1.07-7.23-.08-14.52-1.15-20.92-4.7-.7-.39-1.34,.69-.63,1.08h0Z"/><path d="M104.21,429.87c3.57,.14,7.14,.17,10.7,.08s7.26-.53,10.89-.47c6.7,.11,12.56,3.79,19.03,5.07,.4,.08,.78-.17,.79-.6,.03-2.03-.79-3.82-1.84-5.52-1.15-1.85-2.4-3.65-3.6-5.46-2.24-3.38-4.2-6.7-8.31-7.91-1.9-.56-3.91-.73-5.87-.95l-7.15-.8-3.7-.41c-1.12-.12-2.34-.41-3.45-.39-.9,.02-2.32,.71-1.59,1.79,.45,.66,1.53,.04,1.08-.63-.05,.22,.04,.27,.26,.14,.24-.07,.49-.07,.74,0,.49,.03,.99,.11,1.48,.17l2.71,.3,5.67,.63c3.43,.38,7.22,.4,10.46,1.68,3.43,1.35,5.19,4.89,7.12,7.8,1.85,2.79,4.8,6.03,4.75,9.56l.79-.6c-6.42-1.27-12.24-4.87-18.88-5.11-3.62-.13-7.26,.34-10.88,.44s-7.46,.08-11.19-.07c-.8-.03-.8,1.22,0,1.25h0Z"/><path d="M80.81,362.63c-2.51,2.75-3.76,6.21-5.28,9.55-1.65,3.64-3.7,7.07-6.09,10.28-.27,.36,.04,.78,.37,.92,6.2,2.49,12.06,5.84,17.13,10.21,2.28,1.96,4.28,4.19,6.42,6.28,2.68,2.62,5.54,5.04,8.55,7.27,2.93,2.17,6,4.12,9.19,5.89,.7,.39,1.34-.69,.63-1.08-6.3-3.5-12.14-7.77-17.3-12.79-2.17-2.11-4.18-4.37-6.48-6.35s-4.54-3.64-7-5.19c-3.42-2.16-7.05-3.94-10.8-5.45l.37,.92c2.3-3.08,4.29-6.38,5.91-9.87,1.55-3.34,2.74-6.93,5.27-9.7,.54-.59-.34-1.48-.88-.88h0Z"/><path d="M180.68,471.64c5.02-.93,9.98-2.14,14.85-3.64,4.31-1.33,8.98-2.65,12.83-5.07s5.61-5.9,7.06-9.89c1.61-4.45,3.14-9.12,3.02-13.91-.2-8.29-5.56-15.49-12.21-20-7.58-5.14-16.84-7.42-25.66-9.39-8.09-1.81-16.22-2.49-24.48-2.94-.8-.04-.8,1.21,0,1.25,6.81,.37,13.59,.81,20.29,2.09,4.11,.78,8.17,1.78,12.21,2.88,4.24,1.15,8.45,2.53,12.39,4.5,7.26,3.63,13.84,9.66,15.74,17.83,1.06,4.55,.18,9.16-1.2,13.55-1.26,4.03-2.6,8.56-5.82,11.48-3.63,3.29-9.01,4.68-13.57,6.12-5.17,1.63-10.44,2.93-15.77,3.92-.79,.15-.46,1.35,.33,1.21h0Z"/><path d="M166.16,448.99c5.36,.46,10.76,.15,16.04-.93,2.64-.54,5.25-1.28,7.78-2.21,1.63-.6,3.81-1.27,3.91-3.32,.04-.8-1.21-.8-1.25,0-.06,1.3-2.02,1.75-2.99,2.11s-2.04,.71-3.07,1.02c-2.14,.64-4.32,1.15-6.52,1.53-4.59,.78-9.25,.94-13.89,.54-.8-.07-.8,1.18,0,1.25h0Z"/><path d="M13.01,474.72c-1.08-.08-2.28-.22-2.96-1.06-1.28-1.58,.4-3.85,2.1-4.98,11.48-7.63,27.73-4.64,39.07-12.47,3.46,3.93,7.39,7.44,11.68,10.45-.84-.59-4.73,10.98-5.51,11.67-2.93,2.6-7.99,.52-11.5,0-10.92-1.58-21.89-2.78-32.88-3.61Z"/><path d="M54.06,411.44c3.91,2.07,7.87,4.04,11.86,5.96,6.82,3.28,13.77,6.55,21,8.86,2.45,.78,5.36,1.79,7.96,1.32,.79-.14,.46-1.35-.33-1.21-2.18,.39-4.73-.52-6.78-1.16-3.44-1.06-6.8-2.41-10.11-3.82-6.4-2.73-12.68-5.76-18.88-8.92-1.37-.7-2.73-1.39-4.09-2.11-.71-.38-1.34,.7-.63,1.08h0Z"/><path d="M221.11,346.95c1.59,.45,2.57,2.07,2.67,3.66,.13,2.04-.93,3.93-2.11,5.5-.48,.64,.6,1.27,1.08,.63,1.4-1.86,2.56-4.17,2.24-6.57-.27-1.99-1.55-3.87-3.54-4.43-.78-.22-1.11,.99-.33,1.21h0Z"/><path d="M224.17,349.41c1.59,.45,2.57,2.07,2.67,3.66,.13,2.04-.93,3.93-2.11,5.5-.48,.64,.6,1.27,1.08,.63,1.4-1.86,2.56-4.17,2.24-6.57-.27-1.99-1.55-3.87-3.54-4.43-.78-.22-1.11,.99-.33,1.21h0Z"/><path d="M226.63,352.17c1.59,.45,2.57,2.07,2.67,3.66,.13,2.04-.93,3.93-2.11,5.5-.48,.64,.6,1.27,1.08,.63,1.4-1.86,2.56-4.17,2.24-6.57-.27-1.99-1.55-3.87-3.54-4.43-.78-.22-1.11,.99-.33,1.21h0Z"/><path d="M225.77,363.67c-.09,2.54-1.24,5.28-3.28,6.87-1.86,1.45-4.49,1.76-6.76,2.02-.79,.09-.8,1.34,0,1.25,2.62-.31,5.52-.68,7.64-2.39,2.27-1.83,3.55-4.88,3.65-7.75,.03-.8-1.22-.8-1.25,0h0Z"/><g><path class="cls-3" d="M212.93,112.04c-4.31,.4,3.84-7.76,5.92-11.55,.49-.89,1.03-1.82,1.93-2.28s2.25-.17,2.53,.8c2.49-2.17,5.45-3.79,8.61-4.73,1.63-.49,3.86-.53,4.55,1.02,.77,1.74-1.27,3.45-3.12,3.9s-4.05,.53-5.18,2.06c2-.74,4.28,0,6.05,1.2,1.73,1.18,3.16,2.81,4.1,4.68,1.25,.2,1.35,1.95,1.13,3.19-.21,1.17-.49,2.44-1.44,3.16s-2.72,.23-2.69-.95c-2.72,4.28-6.02,8.2-9.77,11.62,0,0-5.53-12.78-12.62-12.12Z"/><path d="M212.93,111.41c-.39,.03-.56,.09-.61-.17-.07-.37,.39-1.03,.56-1.32,.75-1.33,1.71-2.54,2.63-3.75,.97-1.27,1.97-2.51,2.89-3.82,.39-.56,.75-1.13,1.09-1.72,.51-.89,2.43-3.33,3.29-1.32,.17,.4,.71,.36,.98,.13,1.74-1.49,3.68-2.72,5.77-3.64,1.53-.67,4.17-1.89,5.79-.89,1.18,.73,.6,2.02-.24,2.73s-1.85,.95-2.9,1.16c-1.65,.33-3.33,.65-4.45,2.01-.37,.44-.04,1.25,.61,1.04,3.59-1.16,7.21,1.84,8.97,4.73,.4,.65,.52,.83,1.06,1.25,.63,.49,.6,1.35,.51,2.11s-.26,1.63-.63,2.3c-.25,.44-.56,.82-1.07,.92-.44,.09-1.17-.03-1.22-.63s-.81-.86-1.16-.32c-2.72,4.24-5.96,8.09-9.67,11.49l.98,.13c-1.03-2.38-2.4-4.67-3.97-6.73-2.17-2.87-5.29-5.98-9.19-5.69-.8,.06-.8,1.31,0,1.25,3.79-.28,6.75,3.1,8.73,5.92,1.29,1.84,2.45,3.82,3.35,5.88,.17,.39,.72,.37,.98,.13,3.78-3.48,7.09-7.42,9.87-11.75l-1.16-.32c.17,1.81,2.39,2.45,3.76,1.39,1.54-1.19,2.24-4.47,1.42-6.23-.18-.38-.42-.64-.74-.9-.45-.37-.61-.62-.96-1.16-.75-1.14-1.66-2.17-2.73-3.03-2.08-1.68-4.78-2.81-7.44-1.94l.61,1.04c1.69-2.05,4.87-1.36,6.95-2.85,1.53-1.1,2.45-3.28,.79-4.72s-4.35-.61-6.16,.07c-2.69,1.01-5.14,2.5-7.32,4.37l.98,.13c-.44-1.03-1.58-1.48-2.66-1.27-1.43,.28-2.21,1.59-2.88,2.75-1.1,1.91-2.54,3.62-3.88,5.37-.83,1.08-5.95,7.42-1.5,7.12,.8-.05,.8-1.31,0-1.25Z"/></g><g><path class="cls-3" d="M258.85,50.33c.46,.16,1.96,.5,1.96,.5-.04,.23-.12,.58-.33,.95-.88,1.54-3.12,1.76-4.12,1.85-5.81,.56-15.67-3.92-15.17-5.84,.06-.21,.22-.4,.61-.56,3.59-1.53,13.69,1.92,17.04,3.1Z"/><path d="M258.68,50.93c.64,.21,1.31,.35,1.96,.5l-.44-.77c-.55,2.89-5.11,2.53-7.26,2.2-2.84-.44-5.67-1.37-8.22-2.69-.88-.46-1.83-.96-2.53-1.68-.11-.12-.43-.41-.4-.58,.03-.15,.93-.33,1.14-.37,2.54-.43,5.35,.31,7.8,.93,2.68,.67,5.32,1.53,7.93,2.44,.76,.27,1.09-.94,.33-1.21-2.81-.99-5.65-1.9-8.55-2.59-2.61-.62-6.05-1.54-8.68-.56-2.87,1.07,.07,3.4,1.41,4.19,2.81,1.66,6.09,2.78,9.31,3.29,2.85,.46,8.21,.72,8.92-3.06,.06-.32-.09-.69-.44-.77-.66-.15-1.32-.3-1.96-.5-.77-.25-1.1,.96-.33,1.21Z"/></g><g><path class="cls-3" d="M261.71,55.15c.45,.2,1.92,.64,1.92,.64-.05,.22-.16,.57-.4,.93-.99,1.48-3.24,1.53-4.24,1.55-5.83,.14-15.35-5.04-14.71-6.92,.07-.21,.25-.38,.65-.52,3.69-1.27,13.51,2.9,16.77,4.32Z"/><path d="M261.55,55.75c.63,.25,1.28,.45,1.92,.64l-.44-.77c-.75,2.83-5.37,2.09-7.46,1.61-2.75-.63-5.43-1.74-7.84-3.19-.87-.52-1.79-1.1-2.47-1.88-.1-.12-.42-.44-.38-.62,.04-.16,.9-.28,1.12-.3,2.55-.26,5.3,.68,7.69,1.46,2.62,.86,5.18,1.89,7.71,2.99,.73,.32,1.37-.76,.63-1.08-2.71-1.17-5.44-2.29-8.25-3.19-1.6-.51-3.23-.98-4.89-1.24-1.24-.2-2.59-.36-3.83-.03-3.02,.8-.38,3.33,.94,4.26,2.69,1.89,5.93,3.25,9.13,4.01,2.85,.68,8.12,1.28,9.12-2.46,.09-.33-.11-.67-.44-.77-.65-.2-1.3-.39-1.92-.64-.75-.3-1.07,.91-.33,1.21Z"/></g><g><path class="cls-3" d="M260.64,60.31c.43,.25,1.84,.86,1.84,.86-.08,.21-.22,.55-.5,.87-1.16,1.35-3.4,1.14-4.39,1.05-5.81-.54-14.67-6.78-13.81-8.58,.1-.2,.29-.35,.71-.44,3.82-.83,13.09,4.45,16.16,6.23Z"/><path d="M260.32,60.85c.59,.33,1.22,.59,1.84,.86l-.29-.71c-1.08,2.73-5.81,1.31-7.78,.6-2.65-.97-5.23-2.41-7.43-4.18-.74-.59-1.53-1.25-2.06-2.05-.08-.12-.29-.51-.27-.56,.12-.27,1.07-.21,1.34-.19,2.55,.11,5.13,1.33,7.4,2.38,2.48,1.15,4.88,2.47,7.25,3.84,.7,.4,1.33-.68,.63-1.08-2.54-1.47-5.12-2.88-7.8-4.1-2.49-1.13-5.58-2.61-8.4-2.27-1.1,.13-1.94,.82-1.55,1.97,.32,.94,1.18,1.73,1.89,2.36,2.43,2.16,5.4,3.84,8.43,4.98,2.84,1.07,8.08,2.33,9.54-1.38,.09-.23-.06-.6-.29-.71-.62-.27-1.24-.54-1.84-.86-.71-.39-1.34,.69-.63,1.08Z"/></g><g><path class="cls-3" d="M199.39,67.35c5.87-6.59,11.67-13.44,19.11-18.18,7.44-4.74,16.96-7.13,25.2-3.97,8.24,3.16,11.81,10,11.12,21.63-.11,1.81-2.4,2.98-4.21,3.16,.67-2.52-.85-7.56-.85-7.56,0,0-3.04-4.29-5.44-5.32,.7,3.38,.13,5.09,1.65,8.19-.63,1.65-1.55,2.89-2.68,1.53s-.89-3.85-2.45-4.68c-3.81-2.02-4.69-6.72-7.95-5.54-5.5,1.99-9.59,9.49-9.59,9.49-8.47,17.21-18.3,37.2-31.25,50.62-5.25,5.44-10.14,8.9-13.82,11.48-12.03,8.42-23.51,12.83-31.47,15.23-2.38-8.67-5.01-18.5-.83-27.05,3.47-7.11,8.33-6.67,14.31-10.11,14.7-8.47,27.96-26.33,39.15-38.9Z"/><path d="M199.83,67.8c7.98-8.97,16.28-18.92,28.31-22.32,9.13-2.58,20.96-.49,24.68,9.34,.9,2.37,1.29,4.89,1.42,7.41,.07,1.46,.23,3.15-.04,4.59-.3,1.6-2.13,2.35-3.59,2.54l.6,.79c.36-1.56,.15-3.2-.12-4.76-.18-1.01-.31-2.27-.76-3.21-.41-.85-1.24-1.67-1.85-2.36-1.09-1.24-2.32-2.54-3.84-3.25-.51-.23-1.03,.15-.92,.71,.49,2.47,.34,5.04,1.3,7.41,.25,.63,.18,1.06-.25,1.64-.7,.93-1.33-.33-1.57-.99-.33-.91-.48-1.9-1.01-2.73-.56-.87-1.53-1.2-2.3-1.84-.88-.72-1.6-1.62-2.33-2.49-.95-1.14-2.06-2.48-3.68-2.48-1.9,0-3.87,1.53-5.24,2.69-1.55,1.31-2.87,2.87-4.06,4.51-2.14,2.95-3.55,6.34-5.17,9.59-5.18,10.4-10.57,20.75-17.12,30.36-3.17,4.65-6.63,9.13-10.54,13.2-3.86,4.02-8.17,7.53-12.72,10.74-9.92,7.01-20.8,12.43-32.43,15.95l.77,.44c-1.89-6.9-3.97-14.27-2.58-21.45,.64-3.3,2.01-6.71,4.45-9.09,1.85-1.81,4.26-2.75,6.62-3.71,11.89-4.86,21.16-14.97,29.49-24.4,4.9-5.55,9.57-11.28,14.49-16.81,.53-.6-.35-1.49-.88-.88-9.2,10.35-17.63,21.47-28.03,30.69-4.87,4.32-10.07,8.03-16.11,10.49-2.23,.91-4.44,1.87-6.23,3.53-2.32,2.15-3.78,5.19-4.61,8.2-2.16,7.87,.1,16.14,2.19,23.77,.09,.32,.44,.53,.77,.44,10.32-3.13,20.19-7.7,29.19-13.65,4.43-2.92,8.74-6.08,12.68-9.64,4.3-3.89,8.09-8.29,11.55-12.94,7.1-9.55,12.8-20.07,18.16-30.66,1.32-2.6,2.61-5.21,3.9-7.82,.66-1.34,1.27-2.7,2.06-3.96,1-1.58,2.13-3.08,3.41-4.44,1.43-1.5,3.53-3.54,5.68-3.86,1.11-.16,1.9,.7,2.56,1.45,.79,.9,1.51,1.87,2.39,2.7,.96,.91,2.4,1.4,2.91,2.66,.43,1.05,.55,2.21,1.24,3.15,.5,.69,1.29,1.25,2.15,.88,.82-.35,1.8-1.72,1.78-2.61-.01-.65-.57-1.39-.75-2.02-.2-.7-.32-1.41-.4-2.13-.15-1.41-.25-2.81-.52-4.2l-.92,.71c1.39,.64,2.49,1.81,3.49,2.94,.49,.56,1.45,1.6,1.69,2.07,.22,.44,.45,1.78,.59,2.47,.3,1.51,.58,3.16,.23,4.68-.08,.35,.18,.85,.6,.79,2.15-.28,4.55-1.4,4.84-3.79,.32-2.76,.09-5.76-.39-8.49-.76-4.31-2.75-8.32-6.26-11.03-10.04-7.77-24.23-3.59-33.46,3.3-6.21,4.64-11.27,10.55-16.39,16.31-.53,.6,.35,1.49,.88,.88Z"/></g><g><path class="cls-3" d="M196.58,67.03c4.4-4.35,11.33-10.96,20.42-18.69,1.14,.52,4.95,2.42,7.25,6.93,2.28,4.45,1.64,8.59,1.4,9.83-4.38,11.44-15.14,36.48-34.16,54.91-6.57,6.37-13.19,11.03-13.82,11.48-12.03,8.42-23.51,12.83-31.47,15.23-2.3-5.61-5.12-14.83-3.7-25,.73-5.2,2.18-7.87,3.49-9.62,3.47-4.62,8.51-6.13,10.22-6.71,11.78-4,17.21-15.5,40.36-38.36Z"/><path d="M197.03,67.48c6.57-6.48,13.39-12.71,20.42-18.69l-.76,.1c3.69,1.7,6.61,4.87,7.88,8.74,.71,2.16,.92,4.51,.58,6.76-.18,1.24-.84,2.47-1.3,3.63-2.91,7.24-6.25,14.32-10.05,21.13-9.26,16.61-21.47,31.53-37.24,42.36-9.34,6.41-19.66,11.32-30.51,14.61l.77,.44c-3.3-8.11-5.02-17.09-3.52-25.81,.6-3.48,1.76-6.81,4.18-9.44,2.26-2.46,5.21-4.05,8.34-5.12,9.11-3.1,15.27-10.73,21.47-17.7,6.39-7.18,12.89-14.25,19.73-21.01,.57-.57-.31-1.45-.88-.88-6.32,6.25-12.36,12.74-18.27,19.37-3.8,4.26-7.51,8.68-11.74,12.53-3.18,2.9-6.65,5.12-10.73,6.51-3,1.03-5.83,2.5-8.13,4.72-2.36,2.28-3.84,5.13-4.66,8.28-2.49,9.54-.66,19.89,3,28.88,.12,.31,.41,.54,.77,.44,18.83-5.7,35.97-16.34,49.37-30.76,12.69-13.64,22-30.27,28.99-47.45,.57-1.4,1.38-2.9,1.61-4.39,.36-2.33,.22-4.74-.45-7-1.29-4.35-4.47-8.02-8.58-9.91-.27-.13-.53-.1-.76,.1-7.03,5.98-13.85,12.21-20.42,18.69-.57,.57,.31,1.45,.88,.88Z"/></g><g><path class="cls-3" d="M149.73,101.01c.44,2.2,.93,4.79,2.96,5.77,.94,.45,2.03,.44,3,.81,.97,.37,1.86,1.42,1.45,2.37-.22,.51-.73,.81-1.14,1.18-1.39,1.3-1.46,3.49-1.04,5.35,.75,3.34,1.34,3.5,1.2,5.56-.15,2.3-1.66,4.57-3.53,5.77-3.29,2.11-6.45,.11-7.77,1.67-.88,1.04-.8,3.51,3.01,9.59-5.13-1.28-8.79-1.99-10.2-2.31-.52-.12-1.07-.25-1.45-.63-.46-.45-.55-1.14-.63-1.78-.28-2.49-.57-4.98-.85-7.47-.29-2.54-.61-5.18-1.94-7.37-1.27-2.09-3.35-3.58-4.7-5.62-1.35-2.04-1.7-5.19,.28-6.63,1.41-1.03,3.47-.7,4.9,.3,1.43,1,2.38,2.53,3.3,4.02-.17-4.16,2.01-7.83,3.97-11.33,1.53-2.74,2.8-7.95,5.06-9.9,2.39,2.46,3.46,7.3,4.13,10.66Z"/><path d="M149.13,101.17c.34,1.69,.67,3.53,1.76,4.91,.44,.56,.98,1,1.63,1.29,1.07,.48,2.44,.36,3.4,1.05,1.44,1.05-.18,1.95-.82,2.79-.51,.67-.79,1.47-.91,2.3-.28,1.89,.27,3.81,.84,5.6,.47,1.47,.72,2.74,.23,4.28-.74,2.34-2.76,4.34-5.21,4.75-2.09,.35-5.7-.78-6.22,2.19-.19,1.08,.13,2.22,.49,3.23,.74,2.06,1.86,3.97,3.01,5.83l.71-.92c-2.97-.74-5.96-1.4-8.96-2.04-.37-.08-.74-.15-1.1-.24-.25-.06-.53-.1-.77-.19-.81-.33-.92-1.1-1.02-1.88-.25-1.94-.45-3.89-.67-5.84-.39-3.42-.63-7.07-2.76-9.92-1.87-2.5-5.15-4.56-5.15-8.01,0-2.23,1.81-3.55,3.96-2.92s3.36,2.68,4.45,4.46c.32,.51,1.18,.32,1.16-.32-.1-4.55,2.48-7.99,4.33-11.91,1.36-2.88,2.08-6.66,4.51-8.88h-.88c2.52,2.72,3.26,6.87,3.97,10.39,.16,.79,1.36,.45,1.21-.33-.75-3.76-1.6-8.03-4.29-10.94-.24-.26-.64-.22-.88,0-2.62,2.39-3.33,6.33-4.84,9.4-1.97,4-4.48,7.62-4.38,12.27l1.16-.32c-1.69-2.76-4.64-6.58-8.41-4.9-3.08,1.38-2.69,5.46-1.14,7.85,1.13,1.74,2.79,3.05,4.05,4.69,1.51,1.95,2.04,4.31,2.35,6.71,.31,2.37,.55,4.74,.82,7.11,.18,1.59,.08,3.62,1.8,4.37,1.21,.53,2.72,.66,4.01,.94,2.38,.51,4.76,1.06,7.12,1.65,.51,.13,1-.44,.71-.92-1.07-1.72-2.14-3.5-2.84-5.41-.32-.85-.72-1.94-.5-2.86,.3-1.31,1.91-1.03,2.94-1,2.02,.05,3.91-.29,5.55-1.57,2.53-1.97,3.87-5.34,2.91-8.45-.55-1.78-1.26-3.62-1.08-5.52,.11-1.13,.59-1.97,1.44-2.7,.59-.52,1.09-1.1,1.03-1.94-.15-2.11-2.5-2.43-4.09-2.83-2.56-.65-2.99-3.42-3.44-5.64-.16-.79-1.36-.45-1.21,.33Z"/></g><g><path class="cls-3" d="M156.72,169.06c-.88-.04-1.63,.72-1.91,1.56-.28,.84-.22,1.74-.21,2.63,.02,5.71-2.99,11.35-7.75,14.51-2.76,1.83-5.65,3.8-7.08,6.79-1.96,4.13-2.95,8.73-2.84,13.3,.02,.72,.05,1.5-.34,2.11-.72,1.14-2.39,1.07-3.71,.82-6.48-1.23-12.77-3.52-18.52-6.76-4.89-2.76-9.39-6.18-13.58-9.93-4.35-3.89-6.99-9.3-7.46-15.11l-1.78,.5c4.96-4.75,8.79-10.53,12.58-16.26,3.3-4.99,6.36-9.98,8.26-15.68,.82-2.46,1.85-4.63,2.8-7.06,.37-.94,1.59-7.82,2.01-8.02,5.02-2.31,10.57-3.45,16.09-3.3,5.24,.15,10.38,1.43,15.47,2.71l4.53,1.14,15.44,3.88,9.24,2.32c2.34,.59,4.83,1.17,7.12,.43,2.23-.72,3.88-2.56,5.42-4.32l18.85-21.56c.59-.67,1.23-1.37,2.09-1.59,.64-.16,1.32-.03,1.97,.14,7.1,1.91,12.49,8.95,12.46,16.3-4.93,2.72-4.83,10.84-7.24,15.94-1.99,4.22-6.12,6.97-9.09,10.57-3.78,4.6-6.3,11.1-12.04,12.69-2.34,.65-4.85,.31-7.25,.69-1.77,.28-3.44,.94-5.15,1.48-9.33,2.93-19.84,1.91-28.43-2.76,.37,.44-.32,1.41,.05,1.84Z"/><path d="M156.72,168.43c-3.38,.23-2.59,4.41-2.85,6.71-.38,3.29-1.79,6.49-3.93,9.01-2.1,2.48-4.99,3.89-7.42,5.99-2.63,2.27-4.01,5.23-4.98,8.51-.45,1.52-.77,3.07-.98,4.64-.12,.91-.2,1.82-.24,2.73-.04,.99,.17,2.15-.07,3.12-.47,1.89-3.25,1.05-4.53,.78-1.91-.41-3.79-.9-5.65-1.49-7.26-2.29-13.95-6-19.95-10.67-3.06-2.38-6.22-4.87-8.41-8.11s-3.42-6.85-3.76-10.66c-.04-.4-.37-.72-.79-.6l-1.78,.5,.61,1.04c4.51-4.35,8.11-9.5,11.56-14.71,3.43-5.16,6.83-10.4,8.99-16.24,.54-1.46,1.03-2.94,1.62-4.38,.56-1.37,1.24-2.72,1.69-4.12,.48-1.5,.7-3.11,1.04-4.64,.17-.76,.33-1.53,.54-2.28,.05-.17,.08-.49,.2-.63,.33-.38,1.7-.69,2.21-.88,3.02-1.13,6.2-1.85,9.42-2.13,6.74-.58,13.3,1.05,19.78,2.68s13.47,3.38,20.21,5.07c3.29,.83,6.57,1.73,9.88,2.47,2.73,.61,5.56,.79,8.01-.78,2.42-1.56,4.22-4.05,6.09-6.19l6.83-7.81,7.8-8.92c.94-1.08,2.29-3.29,3.76-3.66s3.54,.73,4.77,1.38c5.27,2.8,8.81,8.48,8.87,14.46l.31-.54c-4.21,2.44-4.96,7.93-6.11,12.21-.75,2.79-1.8,5.27-3.71,7.49-2,2.33-4.4,4.27-6.38,6.6-3.33,3.92-5.46,9.57-10.19,12.09-3.08,1.65-6.65,.86-9.95,1.6s-6.32,2.05-9.65,2.54c-7.71,1.15-15.71-.26-22.57-3.93-.57-.3-1.13,.3-.86,.86,.12,.24-.12,.73-.13,.99-.02,.33,.03,.56,.18,.85,.36,.72,1.44,.09,1.08-.63-.12-.24,.12-.73,.13-.99,.02-.33-.03-.56-.18-.85l-.86,.86c5.99,3.2,12.78,4.76,19.56,4.45,3.32-.15,6.61-.74,9.78-1.76,1.56-.5,3.1-1.09,4.72-1.34,1.96-.31,3.96-.13,5.92-.42,5.62-.84,8.59-5.89,11.51-10.2,1.73-2.55,3.73-4.73,5.93-6.87s4.27-4.26,5.52-7.01c1.17-2.58,1.67-5.4,2.43-8.12,.78-2.78,1.82-5.8,4.46-7.33,.19-.11,.31-.32,.31-.54-.04-5.05-2.37-9.91-6.16-13.23-1.86-1.63-4.04-2.88-6.42-3.58-1.17-.34-2.38-.54-3.48,.12-1.28,.76-2.19,2.16-3.15,3.26l-14.3,16.36c-2.05,2.34-4.07,5.35-6.81,6.93-3.19,1.85-7.07,.38-10.36-.44l-20.93-5.25c-6.63-1.66-13.33-3.71-20.18-4.16-3.21-.21-6.45,0-9.61,.64-1.61,.32-3.2,.75-4.75,1.28-.71,.24-1.4,.51-2.09,.79-.46,.19-1.18,.36-1.54,.73-.33,.33-.43,.93-.54,1.36-.23,.87-.42,1.75-.61,2.62-.34,1.58-.57,3.24-1.16,4.74-.7,1.76-1.48,3.48-2.14,5.25-.72,1.94-1.37,3.88-2.23,5.76-1.48,3.22-3.31,6.27-5.23,9.25-4.08,6.33-8.25,12.76-13.7,18.01-.45,.44,.01,1.21,.61,1.04l1.78-.5-.79-.6c.29,3.25,1.18,6.4,2.72,9.29,1.62,3.02,3.89,5.41,6.47,7.62,5.77,4.96,12.13,9.18,19.19,12.06,3.54,1.44,7.22,2.55,10.97,3.31,2.54,.51,5.46,.44,5.51-2.86,.07-4.01,.47-7.81,1.92-11.59,.72-1.88,1.61-3.55,3.05-4.98,1.29-1.28,2.8-2.31,4.31-3.32,2.91-1.96,5.27-4.56,6.73-7.77,.73-1.61,1.24-3.31,1.49-5.06,.12-.88,.17-1.77,.17-2.66,0-1.14-.11-3.23,1.5-3.34,.8-.05,.8-1.3,0-1.25Z"/></g><path d="M136.03,111.5c.01-2.23-1.82-4.38-4.04-4.53-2.22-.15-4.39,1.95-4.13,4.16,.2,1.66,1.49,2.93,2.48,4.28,3.27,4.44,3.38,8.18,5.16,14.05,1.19,3.96,3.6,9.5,9.01,15.81-3.12,.73-6.59,1.38-10.38,1.85-3.45,.43-6.68,.66-9.64,.74-1.06-1.56-2.26-3.87-2.44-6.79-.08-1.35,.08-2.5-.01-2.51-.11-.01-.47,1.65-1.63,9.3-1.19,1.03-4.36,3.49-8.9,3.71-5.73,.27-9.68-3.22-11.5-4.82-6.89-6.08-7.36-14.94-7.42-17.06,2.02-.69,5.25-2.06,8.18-4.89,8.92-8.6,4.44-19.36,12.8-32.56,2.76-4.36,7.03-7.65,11.78-9.67,4.92-2.09,11.28-2.59,15.04,1.21,.23-1.82,1.99-3.31,3.82-3.25-1-.03,1.01,7.3,1.05,8.04,.17,2.65-.97,5.01-2.16,7.34-2.6,5.04-6.62,9.7-7.06,15.58Z"/><path d="M148.34,94.75c-1.89-.04-3.67,.89-4.79,2.39-.2,.27-.04,.7,.22,.86,.32,.19,.65,.05,.86-.22,.01-.02,.06-.08,.02-.03,.03-.04,.07-.08,.1-.13,.06-.07,.13-.15,.2-.22,.13-.13,.27-.26,.41-.38,.02-.02,.11-.09,.05-.04,.03-.03,.07-.05,.11-.08,.08-.06,.16-.11,.24-.17,.17-.11,.34-.2,.51-.29,.19-.09,.22-.11,.42-.18,.19-.07,.37-.12,.57-.16,.1-.02,.19-.04,.29-.06,.01,0,.13-.02,.08-.01s.07,0,.08,0c.21-.02,.41-.03,.62-.02,.34,0,.62-.29,.62-.62s-.29-.62-.62-.62h0Z"/><g><path d="M148.88,104.14c-.12-.4-.33-.87-.74-.93-.32-.04-.62,.2-.74,.5s-.11,.63-.09,.94c.03,.49,.09,1.01,.41,1.38s.99,.47,1.27,.08c.14-.19,.15-.43,.17-.67,.03-.6,.03-1.29-.43-1.69"/><path d="M149.48,103.98c-.11-.36-.26-.72-.53-1-.31-.33-.81-.48-1.24-.34-.47,.16-.8,.53-.95,1-.13,.4-.1,.84-.06,1.25s.11,.82,.3,1.2,.53,.67,.93,.82c.37,.13,.78,.11,1.13-.06,.45-.22,.64-.69,.69-1.16,.09-.8,.05-1.78-.59-2.36-.24-.22-.65-.26-.88,0-.22,.24-.26,.65,0,.88,.02,.02,.04,.04,.06,.06,.02,.02,.11,.09,.03,.03-.06-.05-.01-.01,0,.02,.01,.02,.03,.05,.04,.07,0,0,.05,.09,.04,.09,0,0-.05-.15-.02-.04,.02,.07,.04,.13,.05,.2,0,.03,.01,.06,.02,.08,.02,.1,0-.03,0-.04,.02,.01,.01,.14,.01,.17,0,.13,0,.26,0,.39s-.02,.25-.02,.38c0,.09,.04-.15,0,0,0,.03-.01,.06-.02,.09,0,.01-.03,.09-.03,.09l.03-.07s-.03,.05-.05,.08c0,0,.09-.13,.03-.05-.04,.06-.04-.02,.05-.03,0,0-.05,.03-.06,.03-.08,.05,.04-.03,.06-.02,0,0-.05,.01-.07,.02-.09,.03,.05-.01,.06,0-.03,0-.14,0-.18,0,.12-.02,.12,.02,.06,0-.03,0-.06-.02-.09-.02-.13-.03,.1,.06-.02,0-.03-.02-.05-.03-.08-.05-.06-.04,.01-.03,.04,.03-.01-.03-.18-.16-.06-.05-.04-.04-.07-.1-.1-.15,0,0-.04-.07-.04-.08,0,.05,.04,.1,.01,.02-.05-.13-.08-.26-.1-.4,0,0-.03-.16,0-.06,.01,.09,0,0,0-.03,0-.07-.01-.14-.02-.21-.01-.15-.02-.3-.02-.45,0-.04-.01-.17,.01-.2-.03,.03-.02,.1,0,.02,0-.03,.01-.07,.02-.1,0-.01,.02-.08,.03-.1l-.03,.06s.02-.04,.03-.06c.01-.02,.03-.05,.05-.07,.04-.06-.09,.08,0,.01,.02-.02,.11-.06,.03-.03-.11,.04,.05,0,.04-.02,.02,.03-.13,.03-.04,.02,.07-.02,.05-.02-.05,0h.04c.12,.02-.05-.02-.05-.01,.02,0,.04,0,.05,.01,.05,.01,.02,0-.07-.03,0,0,.05,.03,.06,.03,.1,.05-.09-.09-.01,0,.02,.02,.03,.04,.05,.05,.09,.09-.07-.12,0,0,.03,.06,.07,.11,.1,.17,.01,.02,.02,.05,.03,.07-.03-.05-.04-.11-.01-.02,.03,.07,.05,.14,.07,.2,.1,.31,.44,.54,.77,.44s.54-.43,.44-.77h0Z"/></g><path d="M152.12,118.26c-.11,.04-.22,.07-.34,.09-.01,0-.17,.03-.09,.02,.07,0-.1,0-.12,0-.11,0-.21,0-.32,0-.06,0-.12,0-.17-.01,.09,0,.01,0-.03,0-.1-.02-.21-.04-.31-.07-.06-.02-.11-.03-.17-.05-.02,0-.18-.08-.07-.02-.09-.04-.17-.08-.26-.13-.05-.03-.1-.06-.15-.09,0,0-.15-.12-.06-.04-.08-.07-.16-.14-.23-.21-.03-.03-.07-.07-.1-.1,0,0-.12-.15-.05-.05-.13-.17-.23-.35-.32-.54-.08-.16,.04,.11-.02-.06-.02-.05-.04-.11-.05-.16-.03-.09-.05-.18-.07-.28,0-.04-.03-.17-.01-.06,0-.06-.01-.11-.01-.17,0-.11,0-.23,0-.34,.02-.33-.3-.64-.62-.62-.36,.02-.6,.27-.62,.62-.07,1.08,.42,2.21,1.28,2.89,.91,.72,2.14,.96,3.25,.61,.31-.1,.54-.44,.44-.77-.1-.31-.44-.54-.77-.44h0Z"/><path d="M130.95,110.91c.16,.02,.32,.06,.47,.12,.04,.01,.08,.03,.11,.04-.16-.05-.04-.02,0,0,.07,.04,.14,.07,.21,.12s.14,.09,.2,.13c.1,.07-.1-.08,0,0,.03,.02,.05,.04,.08,.07,.12,.11,.24,.22,.34,.35,.08,.09,.02,0,0-.01,.02,0,.06,.08,.07,.1,.05,.07,.09,.14,.13,.21s.08,.14,.11,.22c.02,.05,.04,.15,0,0,0,.04,.03,.08,.04,.11,.03,.08,.05,.15,.07,.23,0,.03,.03,.22,.05,.24-.03-.02-.02-.15,0,0,0,.03,0,.07,0,.1,0,.09,0,.18,0,.26l1.16-.32-.21-.39c-.16-.29-.58-.4-.86-.22s-.39,.55-.22,.86l.21,.39c.13,.23,.45,.37,.71,.29,.27-.09,.45-.32,.46-.6,.08-1.62-1.2-3.24-2.82-3.49-.17-.03-.33-.03-.48,.06-.13,.08-.25,.22-.29,.37-.07,.3,.09,.72,.44,.77h0Z"/><g><path class="cls-3" d="M144.98,85.01c2.07,1.02,3.88,2.56,5.21,4.44,1.12,1.58,1.93,3.41,3.37,4.69,.54,.47,1.21,.88,1.92,.82,.19-.02,.39-.31,.19-.33"/><path d="M144.67,85.55c1.27,.64,2.44,1.45,3.46,2.44,1.04,1.01,1.82,2.18,2.58,3.41s1.47,2.4,2.55,3.29c.51,.42,1.08,.77,1.74,.87s1.36-.13,1.38-.89c0-.22-.12-.43-.31-.54l-.07-.04c-.7-.41-1.32,.67-.63,1.08l.07,.04-.31-.54c.27-.23,.31-.34,.12-.34-.08,0-.16-.02-.24-.04-.13-.04-.26-.09-.38-.16-.25-.13-.47-.3-.68-.49-.46-.41-.85-.89-1.21-1.39-.71-1.01-1.29-2.11-2-3.11-1.4-1.97-3.27-3.58-5.43-4.66-.72-.36-1.35,.72-.63,1.08h0Z"/></g><g><path class="cls-3" d="M152.98,96.5c-1.96-.25-3.72-1.74-4.27-3.64"/><path d="M152.98,95.87c.12,.02-.07-.01-.08-.02-.06-.01-.12-.02-.18-.04-.11-.02-.22-.05-.33-.08s-.22-.07-.32-.11c-.06-.02-.12-.04-.17-.07,.1,.04-.07-.04-.08-.04-.2-.1-.4-.21-.59-.33-.23-.15-.33-.22-.49-.36s-.33-.31-.49-.48c-.08-.08-.15-.17-.22-.26,.07,.08-.04-.05-.05-.07-.04-.05-.07-.1-.11-.15-.13-.19-.24-.38-.34-.59-.03-.06-.05-.11-.08-.17,.05,.1-.03-.08-.03-.08-.04-.12-.08-.23-.12-.35-.1-.32-.44-.53-.77-.44s-.53,.44-.44,.77c.66,2.2,2.61,3.8,4.88,4.1,.34,.04,.62-.32,.62-.62,0-.38-.29-.58-.62-.62h0Z"/></g><g><path class="cls-3" d="M379.14,235.58c-.9,2.71-2.38,5.48-4.99,6.63,.29,.91,1.55,1.21,1.87,2.1,.11,.31,.09,.66,.06,.99-.2,2.41-.63,4.8-.68,7.22s.34,4.92,1.62,6.97c1.29,2.05,3.62,3.55,6.03,3.35l-1.2,7.73c-.03,.22-.07,.47,.04,.67,.11,.19,.32,.29,.51,.38,5.16,2.36,10.37,4.59,15.64,6.69,.99,.4,2.38,.67,2.92-.25,.22-.38,.21-.85,.19-1.28-.23-6.57,.67-13.18,2.63-19.45,.19-.61,.39-1.3,.08-1.85-.17-.31-.48-.53-.77-.73l-3.06-2.11c3.37-.52,5.69-4.53,4.48-7.71s-5.62-4.62-8.48-2.78c1.26-2.7,1.63-5.8,1.05-8.72-.12-.61-.29-1.23-.7-1.7-.43-.49-1.05-.75-1.66-.99-2.01-.79-4.04-1.52-6.09-2.2-1.44-.48-3.86-1.76-5.4-1.42-2.75,.61-3.39,6.28-4.12,8.47Z"/><path d="M378.54,235.41c-.87,2.54-2.17,5.05-4.7,6.26-.33,.16-.35,.57-.22,.86,.35,.79,1.15,1.04,1.61,1.7,.64,.94,.05,2.91-.08,3.97-.29,2.49-.55,5-.15,7.49,.66,4.03,3.61,7.99,8.06,7.78l-.6-.79-1.05,6.76c-.1,.62-.39,1.51-.04,2.11,.38,.68,1.41,.92,2.07,1.21,4.04,1.83,8.11,3.57,12.21,5.24,1.38,.56,3.27,1.7,4.83,1.19s1.34-2.08,1.31-3.36c-.08-4.48,.36-8.97,1.31-13.35,.27-1.22,.57-2.44,.92-3.64,.27-.94,.79-2.01,.63-3.02-.11-.68-.53-1.12-1.06-1.52-1.04-.78-2.14-1.48-3.21-2.22l-.15,1.14c3.78-.72,6.37-5.16,4.8-8.77-1.5-3.45-6.11-4.77-9.28-2.86l.86,.86c.75-1.67,1.22-3.4,1.36-5.23,.12-1.61,.1-3.7-.62-5.2-.76-1.57-2.65-2-4.15-2.56-1.88-.71-3.81-1.29-5.68-2.04-2.46-.98-4.98-1.72-6.63,.86-1.37,2.13-1.59,4.77-2.34,7.14-.24,.77,.96,1.1,1.21,.33,.59-1.87,.84-3.83,1.6-5.65,.35-.84,.85-1.89,1.74-2.27,1.15-.5,2.69,.25,3.76,.67,1.27,.5,2.55,.93,3.83,1.38,1.52,.53,3.49,.97,4.82,1.89,1.4,.97,1.3,3.52,1.23,5.03-.08,1.74-.51,3.44-1.22,5.02-.24,.53,.27,1.21,.86,.86,2.57-1.55,6.42-.47,7.56,2.4s-1.05,6.38-4.04,6.94c-.57,.11-.55,.86-.15,1.14,.89,.61,1.83,1.19,2.68,1.85s1.06,1.11,.79,2.15c-.12,.45-.28,.9-.41,1.35-.6,2.11-1.09,4.25-1.45,6.41s-.59,4.14-.72,6.23c-.06,1.02-.1,2.03-.11,3.05,0,.96,.33,2.46-.12,3.33-.34,.68-.84,.58-1.55,.4-.37-.1-.73-.25-1.09-.39-1.06-.41-2.1-.85-3.15-1.28-2.2-.9-4.39-1.83-6.56-2.78-1.04-.45-2.08-.91-3.11-1.38-.44-.2-.89-.4-1.33-.6-.3-.13-.59-.27-.88-.4-.21-.43-.25-.87-.12-1.31,.2-2.25,.7-4.53,1.05-6.76,.06-.38-.16-.81-.6-.79-5.21,.25-7.1-5.42-7.03-9.69,.04-2.43,.56-4.8,.68-7.22,.03-.68-.01-1.23-.44-1.78-.47-.62-1.25-.9-1.58-1.63l-.22,.86c2.82-1.34,4.31-4.17,5.28-7,.26-.76-.95-1.09-1.21-.33Z"/></g><path d="M376.41,225.52c-1.31-1.31-.87-5.34,1.33-6.59,2.01-1.14,4.51-.28,6.8,.09,3.82,.61,7.73-.27,11.58,.1,3.85,.36,8.07,2.64,8.54,6.48,3.14-1.11,6.81,.66,8.55,3.51,1.73,2.84,1.79,6.46,.9,9.67-.89,3.21-2.63,6.11-4.35,8.96-2.14,3.55-4.28,7.11-6.42,10.66-1.78-2.36-3.78-4.56-5.97-6.55,1.9-.37,3.77-1.21,4.99-2.7,1.22-1.5,1.64-3.73,.69-5.41-.95-1.68-3.43-2.42-4.96-1.25-1.16,.88-1.78,2.65-3.23,2.78l.13-13.11s-.02,.06-.03,.1c-.39,1.54-15.67,.65-16.18-2.76-.14-.93,.88-1.73,.4-2.62-.51-.95-1.91-.49-2.77-1.34Z"/><path d="M382.04,235c.91-.08,1.86-.19,2.74,.08,.59,.18,1.21,.59,1.43,1.11,.13,.31,.42,.53,.77,.44,.3-.08,.57-.45,.44-.77-.39-.94-1.15-1.57-2.1-1.92-1.04-.38-2.19-.29-3.28-.19-.34,.03-.62,.27-.62,.62,0,.31,.29,.66,.62,.62h0Z"/><path d="M382.54,238.39c-.63,.58-.98,1.43-.95,2.28,.02,.44,.18,.93,.59,1.1,.26,.11,.56,.05,.82-.05,.7-.28,1.24-1.01,1.16-1.77s-.9-1.38-1.62-1.15"/><path d="M381.26,251.15c1.63-.59,3.15-1.49,4.45-2.63-.2,1.68-.53,3.35-.98,4.98-.18,.64-.39,1.3-.78,1.84s-.99,.97-1.66,.99c-1.2,.04-2.03-1.15-2.57-2.22-.39-.79-.82-1.6-1.04-2.45,.71-.39,1.74-.2,2.58-.51Z"/><g><path class="cls-3" d="M312.52,196.99c-2.13,.5-4.33,.72-6.52,.64-.54-1.95,.82-4.02,2.61-4.97s3.89-1.04,5.91-1.12c-1.12-1.13-2.97-.81-4.55-.62s-3.61-.09-4.06-1.62c-.41-1.38,.84-2.68,2.1-3.37,3.25-1.76,7.13-1.72,10.82-1.63-2.72-.37-5.47-.49-8.21-.36,.25-2.43,2.59-4.24,4.99-4.66s4.86,.26,7.19,1.02c-1.82-1.33-4.06-2.09-6.31-2.13-.56-1.16,.28-2.6,1.44-3.16s2.51-.47,3.79-.38c2,.15,4.18,.38,5.63,1.77,2.82,2.72,1.04,7.9,3.41,11.02-.58-.77-.77-1.82-.48-2.74,2.24-1.04,4.99,.72,5.91,3.01,.92,2.3,.54,4.89,.14,7.33l-1.58,9.7c-.03,.21-.07,.42-.2,.59-.16,.2-.44,.28-.69,.34-3.06,.75-12.77,4.89-15.51,3.39-1.6-.88-4.23-12.47-5.82-12.08Z"/><path d="M312.35,196.39c-2.1,.47-4.2,.67-6.35,.62l.6,.46c-.39-1.79,.8-3.44,2.32-4.26,1.69-.91,3.72-.96,5.59-1.03,.5-.02,.87-.69,.44-1.07-1.34-1.16-2.95-1.05-4.62-.85-1.33,.16-4.92,.11-3.66-2.27,.96-1.81,3.63-2.45,5.47-2.77,2.2-.39,4.46-.33,6.68-.27,.83,.02,.77-1.15,0-1.25-2.73-.35-5.47-.47-8.21-.36l.6,.79c.31-2.13,2.02-3.59,4.04-4.11,2.46-.63,5.03,.15,7.37,.91,.71,.23,1.03-.76,.48-1.14-1.97-1.39-4.22-2.12-6.63-2.22l.6,.46c-.5-1.31,.59-2.36,1.8-2.67,1.14-.3,2.43-.12,3.59,0,2.05,.2,4.24,.67,5.26,2.67,1.57,3.06,.4,6.83,2.48,9.75,.46,.65,1.53,.05,1.08-.63-.48-.72-.62-1.42-.42-2.26l-.44,.44c2.56-1.04,4.9,1.24,5.46,3.61,.68,2.87-.19,6.03-.66,8.88l-.67,4.12c-.12,.71-.16,1.49-.35,2.18s-.38,.87-1.01,1.1c-1.42,.53-2.91,.95-4.35,1.44-1.78,.6-3.56,1.17-5.39,1.61-1.32,.32-3.02,.8-4.38,.43-.89-.24-1.19-1.31-1.52-2.09-.59-1.42-1.08-2.88-1.6-4.33s-1.02-2.95-1.73-4.32c-.39-.75-.92-1.69-1.9-1.55-.79,.11-.46,1.32,.33,1.21-.33,.05-.05,.01,.09,.29,.12,.23,.28,.45,.4,.69,.39,.75,.69,1.55,.99,2.35,.66,1.75,1.24,3.53,1.92,5.27,.4,1.04,.83,2.55,1.75,3.28,1.07,.85,2.85,.57,4.08,.38,4.02-.63,7.75-2.32,11.64-3.43,.72-.21,1.39-.33,1.71-1.11,.28-.69,.29-1.59,.41-2.32l.47-2.91c.52-3.18,1.44-6.58,1.21-9.82-.19-2.72-1.59-5.46-4.37-6.28-.84-.25-2.46-.43-3.14,.3-.81,.86-.15,2.7,.39,3.5l1.08-.63c-2.6-3.65-.15-9.69-4.84-12.09-2.05-1.04-5.16-1.34-7.4-.99-2,.31-3.99,2.13-3.17,4.31,.1,.27,.31,.45,.6,.46,2.2,.08,4.2,.78,6,2.04l.48-1.14c-2.76-.89-5.87-1.73-8.71-.7-2.12,.77-3.91,2.47-4.24,4.77-.05,.38,.15,.81,.6,.79,2.75-.11,5.49,0,8.21,.36v-1.25c-2.61-.06-5.27-.11-7.84,.49-2.04,.47-4.63,1.41-5.54,3.49-.69,1.57,.22,3.12,1.76,3.66,2.13,.74,5.1-.87,6.87,.67l.44-1.07c-2.44,.09-5.12,.22-7.12,1.8-1.55,1.22-2.43,3.11-2,5.07,.06,.27,.34,.45,.6,.46,2.26,.05,4.48-.17,6.68-.67,.78-.18,.45-1.38-.33-1.21Z"/></g><g><path class="cls-3" d="M359.79,316.15l-2.82-19.8c-.1-.7-.24-1.47-.76-1.91-.32-.26-.72-.36-1.11-.46-10.48-2.63-19.7-10.37-24.49-20.55-2.98-6.34-4.27-13.39-5.53-20.34l-7.98-44.15c4.78-3.7,10.64-5.83,16.56-6.02,1.1-.03,2.25,.01,3.23,.56,2.89,1.64,2.33,6.05,2.06,9.51-1.28,16.51,13.62,29.94,15.19,46.43,.09,.94,.16,1.94,.7,2.7,.49,.68,1.29,1.02,2.04,1.34,5.96,2.46,11.94,4.93,18.15,6.53,11.95,3.07,24.6,2.87,36.21,7.15,4.35,1.6,8.82,4.16,10.68,8.61,.91,2.17,1.1,4.59,1.23,6.96,.6,11.38-.12,23.18,3.84,33.78,.86,2.3,1.95,4.64,1.82,7.11-.26,4.96-5.09,8.03-9.34,10.16-6.3,3.15-12.81,6.23-19.76,6.76-4.18,.32-8.36-.29-12.51-.89l-16.41-2.4c-2.78-.41-10.77,0-12.03-3.5-.93-2.6,2.1-9.73,2.19-12.91,.15-4.95-1.16-9.78-1.16-14.65Z"/><path d="M360.39,315.99l-1.87-13.12c-.32-2.23-.6-4.46-.95-6.68-.24-1.54-.79-2.38-2.31-2.8-6.62-1.85-12.5-5.25-17.25-10.25-5.23-5.5-8.32-12.29-10.16-19.59-2.1-8.32-3.31-16.9-4.83-25.34l-5.32-29.44-.29,.71c4.33-3.31,9.52-5.44,14.98-5.86,1.34-.1,2.96-.29,4.18,.41,.98,.56,1.49,1.53,1.74,2.59,.5,2.07,.16,4.28,0,6.37-.66,9.06,3.48,17.36,7.46,25.22,2.11,4.17,4.26,8.35,5.8,12.78,.72,2.09,1.31,4.22,1.67,6.4s.06,4.68,2.05,5.98c.95,.62,2.12,.98,3.16,1.41,1.31,.54,2.62,1.07,3.94,1.6,2.77,1.1,5.57,2.15,8.41,3.05,5.43,1.72,11.01,2.7,16.63,3.5s11.02,1.44,16.43,2.7c4.91,1.14,10.33,2.63,14.22,6.01,1.97,1.7,3.31,3.84,3.9,6.39,.64,2.78,.61,5.74,.7,8.58,.18,5.57,.21,11.15,.79,16.7,.29,2.75,.7,5.49,1.35,8.19,.63,2.63,1.59,5.1,2.5,7.63s1.31,5.22-.1,7.7c-1.09,1.92-2.87,3.36-4.7,4.53-2.11,1.35-4.41,2.43-6.67,3.51-2.57,1.23-5.19,2.38-7.9,3.29s-5.58,1.59-8.48,1.79-5.96-.05-8.91-.44c-6.06-.79-12.11-1.76-18.16-2.64-3.33-.49-6.83-.3-10.08-1.23-1.4-.4-2.95-1.11-3.1-2.74-.17-1.77,.45-3.67,.89-5.37,.47-1.78,1.02-3.55,1.32-5.37,.4-2.45,.06-5.03-.24-7.48-.34-2.82-.76-5.63-.78-8.48,0-.8-1.26-.81-1.25,0,.03,3.17,.55,6.28,.89,9.42,.26,2.42,.49,4.87-.03,7.27-.44,2.03-1.08,4.02-1.54,6.05-.34,1.5-.8,3.29-.38,4.82,.87,3.11,5.32,3.52,7.95,3.76,1.52,.14,3.05,.16,4.57,.34,3.23,.39,6.44,.94,9.66,1.41,6.07,.89,12.31,2.24,18.47,1.96,5.71-.26,11.13-2.23,16.27-4.6,4.29-1.97,9.31-4.01,12.34-7.8,1.29-1.61,2.1-3.56,2.09-5.64-.01-2.71-1.29-5.19-2.16-7.69-1.97-5.67-2.66-11.67-2.98-17.64-.31-5.91-.07-11.91-.74-17.8-.29-2.53-.97-4.96-2.5-7.02-1.35-1.83-3.16-3.27-5.12-4.4-4.71-2.71-10.25-4-15.54-4.99-5.84-1.09-11.76-1.68-17.61-2.67s-11.61-2.57-17.21-4.68c-2.87-1.08-5.72-2.22-8.54-3.42-.73-.31-1.49-.64-1.87-1.39-.32-.62-.33-1.37-.41-2.04-.13-1.22-.3-2.43-.55-3.63-.95-4.6-2.81-8.96-4.84-13.17-4.14-8.58-9.67-17.25-9.88-27.07-.08-3.64,1.61-9.1-1.45-11.98-1.76-1.67-4.51-1.36-6.72-1.1-2.66,.31-5.27,.98-7.75,2s-4.71,2.33-6.81,3.93c-.24,.19-.34,.4-.29,.71l4.7,26c1.54,8.54,2.89,17.15,4.72,25.63,1.57,7.26,3.98,14.28,8.57,20.21,4.02,5.2,9.34,9.38,15.4,11.94,1.64,.69,3.4,1.05,5.04,1.7,1.4,.55,1.39,1.61,1.58,2.92l.53,3.71,2.15,15.1c.11,.79,1.32,.46,1.21-.33Z"/></g><path d="M356.24,294.69c7.43,3.35,14.8,6.91,22.42,9.8,3.7,1.4,7.47,2.61,11.34,3.44,1.82,.39,3.66,.7,5.52,.9,1.05,.12,2.1,.2,3.16,.24,.86,.04,2.33,.33,2.98-.2l.61-.16-.19-.04c-.79-.15-1.12,1.05-.33,1.21,1.01,.19,1.63-.96,.86-1.68-.63-.58-1.8-.33-2.56-.34-1.06-.01-2.12-.06-3.17-.15-4.7-.39-9.31-1.51-13.77-2.98-9.02-2.97-17.6-7.22-26.23-11.12-.73-.33-1.36,.75-.63,1.08h0Z"/><path d="M321.27,315.68c-.97-1.44-1.61-3.09-1.8-4.82-.05-.42-.51-.84-.94-.54l-.4,.28c-.28,.19-.4,.55-.22,.86,.16,.27,.58,.42,.86,.22l.4-.28-.94-.54c.22,1.95,.87,3.82,1.98,5.45,.19,.28,.55,.4,.86,.22,.28-.16,.41-.57,.22-.86h0Z"/><g><path class="cls-3" d="M335.87,300.75c-2.05-2.86-4.33-5.56-6.8-8.07-1.29-1.31-2.74-2.62-4.54-2.99-1.22-.25-2.49-.04-3.72,.18l-5.11,.89c-.96,.17-2.03,.41-2.53,1.23-.67,1.09,.1,2.57,1.2,3.23s2.42,.77,3.65,1.13c3.21,.92,5.84,3.66,6.63,6.9l-.85,.38"/><path d="M336.41,300.43c-2.13-2.95-4.46-5.75-7.03-8.33-1.05-1.05-2.19-2.08-3.57-2.66-1.47-.62-3.01-.53-4.55-.29-1.84,.29-3.68,.63-5.52,.95-1.24,.22-2.68,.54-3.25,1.81-.44,.98-.1,2.12,.54,2.92,.91,1.15,2.33,1.5,3.69,1.82,3.55,.82,6.37,3.13,7.32,6.74l.29-.71-.85,.38c-.73,.33-.1,1.4,.63,1.08l.85-.38c.25-.11,.35-.46,.29-.71-.73-2.77-2.59-5.19-5.13-6.55-1.45-.78-3.02-.92-4.55-1.45-.86-.3-1.85-.9-2-1.9-.2-1.29,1.15-1.61,2.13-1.8,1.96-.37,3.93-.72,5.89-1.02,2.31-.36,4.06,.06,5.83,1.6,3,2.62,5.59,5.88,7.91,9.09,.47,.65,1.55,.02,1.08-.63h0Z"/></g><path d="M323.08,289.25c-1.21-1.63-2.61-3.43-4.39-4.48-1.68-.99-3.71-1.25-5.6-.79-.78,.19-.45,1.4,.33,1.21,1.61-.4,3.34-.14,4.76,.74,.74,.46,1.35,1.09,1.94,1.72,.67,.71,1.29,1.45,1.87,2.23,.47,.64,1.56,.02,1.08-.63h0Z"/><path d="M298.19,477.11c-1.61,.91,38.09-2.34,38.09-2.34,0,0-9.3-16.83-8.86-50.49,.44-33.66-11.96-34.12-11.96-34.12l36.76,4.67s-46.06,91.62,28.34,91.62l46.94-2.8s5.76-18.7,1.33-27.11c0,0-13.73-.47-26.57-7.01s-21.7-4.21-21.7-4.21l38.97-64.51s16.39-27.58,6.64-42.07c0,0-9.09,9.5-26.47,11.76s-45.28-8.02-45.28-8.02c0,0-60.23-14.96-74.84,10.28s24.36,121.07,18.6,124.34Z"/><path class="cls-3" d="M394.86,394.32c-11.9,.08-23.79,.16-35.69,.23-2.19,.01-4.37,.03-6.56,.03-.8,0-.81,1.25,0,1.25,12.48,0,24.97-.15,37.45-.23,1.6-.01,3.2-.02,4.8-.03,.8,0,.81-1.26,0-1.25h0Z"/><path d="M306.07,483.27c.2,1.17,.29,2.22-.58,3.14-.58,.62-1.36,1.05-2.08,1.49-1.61,.99-3.28,1.87-5,2.64-3.39,1.53-6.98,2.61-10.64,3.25-.59,.1-1.24,.05-1.66,.49-.34,.36-.51,.98-.58,1.45-.19,1.18,.21,2.39,.9,3.34,1.85,2.58,5.35,2.6,8.21,2.64,8.08,.12,16.16,.22,24.23-.16,4.03-.19,8.08-.46,12.07-1,2.61-.35,5.25-1.23,6.32-3.86,1.36-3.34-.02-7.34-.92-10.61-1.18-4.24-2.52-8.58-1.84-13.03,.12-.77-1.01-1.13-1.21-.33-.08,.33-1.04,.57-1.38,.67-.99,.29-2.02,.47-3.04,.62-2.63,.4-5.3,.59-7.96,.74-1.94,.11-3.88,.21-5.82,.22-2.57,.02-5.39-1.05-7.9-.16-3.48,1.24-1.63,5.91-1.13,8.44,.16,.79,1.36,.45,1.21-.33-.3-1.54-.88-3.06-.89-4.65-.02-2.11,1.46-2.54,3.29-2.51,2.18,.04,4.31,.5,6.49,.44,4.68-.12,9.45-.33,14.06-1.15,1.19-.21,3.91-.5,4.27-2l-1.21-.33c-.51,3.28-.04,6.5,.75,9.7,.83,3.34,2.14,6.69,2.45,10.13,.13,1.44,.07,3.02-.7,4.29-.92,1.52-2.62,2.07-4.28,2.37-3.66,.65-7.47,.81-11.18,1.02-7.57,.42-15.16,.38-22.74,.28-2.92-.04-7.5,.61-9.77-1.69-.76-.78-1.82-2.97-.59-3.69,.61-.35,1.87-.32,2.57-.47,.85-.18,1.7-.39,2.54-.62,3.55-.97,6.98-2.39,10.19-4.19,1.39-.78,3.04-1.6,4.07-2.84s.92-2.63,.66-4.09c-.14-.79-1.34-.46-1.21,.33Z"/><path d="M437.69,479.73c-2.16,3.74-4.82,6.98-7.82,10.07-2.07,2.13-4.38,5.47-1.79,8.17,2.32,2.41,6.72,2.48,9.81,2.63,4,.2,8.12-.24,11.73-2.06,2.98-1.5,5.59-3.92,6.9-7.02,1.66-3.93,.85-8.2,.23-12.27-.72-4.68-.54-9.05,.88-13.59,.82-2.61,1.94-6.27-.34-8.49-3.19-3.11-8.78-.2-12.16,.98-4.97,1.73-10.25,1.81-15.25,.15-.43-.14-.94,.33-.77,.77,.76,1.96,.52,3.98,.18,6.01-.33,1.94-.67,3.88-1,5.81-.44,2.53-1.08,4.96-1.65,7.46-.3,1.3-1.16,3.97,.28,4.9,1.35,.87,3.66,.04,5.02-.37,2.18-.65,4.27-1.58,6.44-2.25,.77-.23,.44-1.44-.33-1.21-2.22,.68-4.34,1.64-6.57,2.29-1.02,.3-2.4,.8-3.49,.59-.99-.19-.53-1.61-.41-2.33,.5-2.87,1.38-5.64,1.87-8.52,.38-2.24,.8-4.47,1.15-6.71,.31-2.03,.47-4.06-.29-6.01l-.77,.77c3.55,1.17,7.3,1.55,11.01,1.05s7.14-2.37,10.85-3.18c1.78-.39,4.16-.59,5.35,1.09,.95,1.32,.64,3.16,.29,4.64-.37,1.57-.95,3.08-1.33,4.64-.44,1.85-.68,3.76-.72,5.65-.07,3.9,1,7.66,1.22,11.53,.22,3.77-.77,7.23-3.52,9.89-2.51,2.43-5.82,3.78-9.24,4.29-3.72,.55-7.99,.41-11.63-.56-1.74-.47-3.76-1.48-3.68-3.59,.07-1.96,1.85-3.56,3.13-4.85,2.9-2.93,5.41-6.2,7.48-9.78,.4-.7-.68-1.33-1.08-.63Z"/><path d="M34.12,366.22c-.44,1.48-.55,3.12,.05,4.54,.6,1.42,2.03,2.55,3.57,2.48,.08,0,.16-.01,.22-.05,.13-.07,.18-.22,.23-.36l3-8.99c.1-.3-4.27-1.4-4.82-1.2-1.3,.47-1.91,2.37-2.27,3.58Z"/><g><path class="cls-3" d="M346.25,118.86c-.03,1.25,.06,2.51,.33,3.73,.6,2.7,2.11,5.26,1.95,8.02,3.35-2.05,6.18-4.95,8.13-8.36-2.02-.65-3.79-2.06-4.86-3.9-.86-1.48-1.47-4.69-3.11-5.52-2.18-1.1-2.41,4.48-2.44,6.03Z"/><path d="M345.63,118.86c-.03,2.07,.3,4.02,.96,5.97,.64,1.89,1.39,3.75,1.32,5.78-.02,.47,.55,.78,.94,.54,3.45-2.14,6.31-5.07,8.36-8.58,.21-.36,0-.79-.37-.92-2.38-.8-4.15-2.56-5.06-4.88-.61-1.57-1.27-4.05-3.1-4.62-2.96-.93-3.01,5.08-3.05,6.71-.02,.8,1.23,.8,1.25,0,.03-1.31,.11-2.65,.42-3.93,.1-.4,.26-1.33,.69-1.55,.52-.27,1.08,.53,1.32,.9,.99,1.49,1.25,3.35,2.25,4.84,1.19,1.78,2.93,3.06,4.95,3.74l-.37-.92c-1.94,3.33-4.64,6.11-7.91,8.13l.94,.54c.07-1.93-.54-3.73-1.16-5.52-.71-2.06-1.15-4.04-1.12-6.23,.01-.8-1.24-.8-1.25,0Z"/></g><g><path class="cls-3" d="M365.12,100.56c.65-.18,1.32,.42,1.46,1.08s-.09,1.34-.35,1.97c-2.41,5.82-7.19,10.71-8.16,16.93-.06,.42-.1,.93-.47,1.12,2.85,1.7,4.58,4.76,5.71,7.89,.88-.57,1.4-1.54,1.86-2.48,3.27-6.65,5.42-13.86,6.32-21.22,.17-1.36,.26-2.85-.49-3.99-1.1-1.65-3.44-1.84-5.41-1.59-.19,.02-.42,.1-.43,.29s.13,.12-.02,0Z"/><path d="M365.12,101.18c1.81-.16,.21,2.94-.09,3.54-.4,.83-.85,1.64-1.31,2.44-.86,1.49-1.79,2.95-2.67,4.43s-1.69,2.95-2.35,4.52c-.32,.76-.61,1.54-.84,2.34-.2,.72-.18,2.26-.73,2.75-.31,.28-.2,.78,.13,.98,2.74,1.71,4.33,4.56,5.42,7.52,.12,.34,.57,.63,.92,.37,1.4-1.04,2.05-2.6,2.77-4.14,.82-1.77,1.56-3.57,2.22-5.4,1.34-3.7,2.35-7.52,3.02-11.39,.45-2.65,1.55-6.59-.96-8.55-1.05-.82-2.43-1.06-3.73-1.05-.82,0-2.65-.04-2.36,1.28,.09,.41,.58,.56,.92,.37l.03-.02c.27-.15,.42-.59,.22-.86l-.07-.09c-.47-.64-1.55-.02-1.08,.63l.07,.09,.22-.86-.03,.02,.92,.37c.12,.56,1,.29,1.5,.31,.56,.02,1.12,.09,1.65,.28,1.48,.51,2.05,1.75,2.06,3.25,0,2.81-.73,5.77-1.37,8.49s-1.46,5.41-2.44,8.03c-.54,1.44-1.12,2.86-1.76,4.25s-1.2,2.99-2.41,3.9l.92,.37c-1.21-3.28-2.96-6.37-5.99-8.26l.13,.98c.72-.63,.65-1.68,.86-2.55,.28-1.21,.7-2.38,1.22-3.51,.98-2.16,2.25-4.17,3.48-6.19s2.36-3.9,3.21-6.01c.6-1.49,.62-4.11-1.67-3.91-.8,.07-.8,1.32,0,1.25Z"/></g><g><path class="cls-3" d="M288.1,183.34c-2.52,1.59-6.55,.97-9.7,.65-.7-.07-1.05-.11-1.22-.15-5.88-1.46-4.96-13.7-9.46-14.62-1.95-.4-5.71,1.27-7.86,3.28-.56,.52-1.15,1.13-1.91,1.15-1.04,.03-1.79-1.16-1.68-2.19,.12-1.04,.83-1.9,1.56-2.65,4.03-4.1,8.69-6.75,14.34-5.65l19.37-.05c.8,1.82,2.15,5.6,1.52,10.32-.34,2.55-.99,7.41-4.96,9.91Z"/><path d="M287.78,182.8c-1.77,1.04-3.9,1.03-5.9,.9-1.56-.1-3.49-.05-4.97-.59-2.29-.84-3.28-3.62-3.99-5.72-.75-2.21-1.25-4.63-2.47-6.65s-2.92-2.53-5.13-1.96c-1.68,.43-3.3,1.26-4.7,2.28-.69,.5-1.36,1.4-2.14,1.72s-1.54-.08-1.61-1.02c-.05-.72,.41-1.41,.85-1.94,2.45-2.97,6.16-5.52,9.99-6.15,1.94-.32,3.86,.1,5.81,.1l5.98-.02,12.03-.03-.54-.31c1.47,3.4,1.88,7.06,1.33,10.71-.5,3.35-1.59,6.71-4.55,8.66-.67,.44-.04,1.52,.63,1.08,3.24-2.14,4.57-5.71,5.12-9.41,.6-4.03,.16-7.94-1.46-11.68-.08-.19-.34-.31-.54-.31l-11.42,.03-6.66,.02c-2.17,0-4.26-.42-6.44,.01-3.92,.78-7.62,3.39-10.18,6.4-1.02,1.2-1.71,2.89-.72,4.32,1,1.45,2.58,1.07,3.74,.06,1.64-1.42,3.36-2.63,5.48-3.25,1.3-.38,2.58-.51,3.53,.58,1.63,1.86,2.07,4.79,2.85,7.06,.85,2.49,2.01,5.48,4.67,6.52,1.64,.64,3.77,.6,5.5,.71,2.22,.14,4.56,.08,6.53-1.07,.69-.41,.07-1.49-.63-1.08Z"/></g><path d="M269.3,170.88c-.24,2.05,1.1,3.99,2.85,4.94,2.11,1.16,4.67,.94,6.91,.35,.78-.2,.45-1.41-.33-1.21-1.87,.49-4.05,.76-5.83-.17-1.45-.75-2.54-2.24-2.34-3.92,.04-.34-.32-.62-.62-.62-.37,0-.59,.29-.62,.62h0Z"/><path d="M269.67,174.4c-.24,2.05,1.1,3.99,2.85,4.94,2.11,1.16,4.67,.94,6.91,.35,.78-.2,.45-1.41-.33-1.21-1.87,.49-4.05,.76-5.83-.17-1.45-.75-2.54-2.24-2.34-3.92,.04-.34-.32-.62-.62-.62-.37,0-.59,.29-.62,.62h0Z"/><path d="M270.88,178.04c-.24,2.05,1.1,3.99,2.85,4.94,2.11,1.16,4.67,.94,6.91,.35,.78-.2,.45-1.41-.33-1.21-1.87,.49-4.05,.76-5.83-.17-1.45-.75-2.54-2.24-2.34-3.92,.04-.34-.32-.62-.62-.62-.37,0-.59,.29-.62,.62h0Z"/><g><path class="cls-3" d="M291.66,173.42c-4.42,.64-9.1-.94-12.22-4.13-.72,2.21-3.19,3.5-5.52,3.5-2.33,0-4.53-1.01-6.55-2.17,1.91-.82,3.56-2.21,4.7-3.95,.8-1.23,1.36-2.63,2.42-3.65,1.88-1.81,4.79-1.9,7.38-1.72,3.14,.22,6.27,.67,9.35,1.37l-.58,.78"/><path d="M291.66,172.8c-4.34,.57-8.67-.86-11.78-3.94-.36-.35-.88-.16-1.04,.28-.72,1.93-2.77,2.98-4.75,3.04-2.3,.07-4.45-.97-6.4-2.08v1.08c1.83-.83,3.4-2.07,4.59-3.69,1.38-1.88,2.05-4.21,4.44-5.09,1.93-.71,4.09-.54,6.1-.37,2.77,.23,5.52,.67,8.24,1.27l-.37-.92-.58,.78c-.48,.65,.61,1.27,1.08,.63l.58-.78c.24-.32,0-.84-.37-.92-2.67-.59-5.38-1.02-8.1-1.27-2.16-.2-4.46-.38-6.57,.27-2,.62-3.25,1.97-4.27,3.74-1.34,2.34-2.88,4.15-5.38,5.28-.44,.2-.38,.87,0,1.08,2.4,1.35,5.13,2.6,7.95,2.16,2.26-.35,4.23-1.7,5.04-3.87l-1.04,.28c3.32,3.29,8.01,4.91,12.66,4.31,.79-.1,.8-1.35,0-1.25h0Z"/></g><path d="M427.22,379.89c.53,2.27,2.17,3.92,3.89,5.39,1.76,1.5,4.04,3.01,4.85,5.29,2.36,6.65-9.17,9.53-13.36,10.9-3.73,1.22-7.52,2.28-11.35,3.17-3.3,.77-7.73,1.87-10.32-1.05-1.07-1.2-1.6-2.95-.68-4.4,.77-1.21,2.21-1.69,3.53-2.04,2.41-.63,4.92-.89,6.98-2.41,4.76-3.52,5.23-10.52,5.29-15.93,0-.8-1.24-.81-1.25,0-.06,5.46-.55,13.45-6.47,15.87-2.54,1.04-5.59,.89-7.87,2.54-2.33,1.67-2.4,4.69-.73,6.86,2.1,2.72,5.63,2.91,8.78,2.4,4.11-.67,8.2-1.88,12.18-3.1,3.7-1.14,7.56-2.28,11.01-4.05,2.43-1.25,5.04-3.16,5.65-6,1.42-6.59-7.64-8.27-8.93-13.79-.18-.78-1.39-.45-1.21,.33h0Z"/><path d="M274.78,63.4l-6.61,10.1-.95,1.46c-.53,.81,.77,1.56,1.3,.76l6.61-10.1,.95-1.46c.53-.81-.77-1.56-1.3-.76h0Z"/><path d="M283.57,69.73l-11.23,7.69-1.59,1.09c-.79,.54-.04,1.84,.76,1.3l11.23-7.69,1.59-1.09c.79-.54,.04-1.84-.76-1.3h0Z"/><path d="M274.06,84.74l10.15-1.19,1.44-.17c.95-.11,.96-1.61,0-1.5l-10.15,1.19-1.44,.17c-.95,.11-.96,1.61,0,1.5h0Z"/><path d="M161.82,65.39c.14-9.23,3.2-18.3,8.7-25.72,4.98-6.72,13.27-13.62,22.25-11.69,3.76,.81,7.37,3.07,9.15,6.56s.92,7.79-1.94,10.61c-1.35,1.34-3.12,2.35-5.04,2.52-.7,.06-2.05,.13-2.65-.32s-1.02-1.87-1.26-2.57c-1.31-3.85-.68-7.98,.82-11.68,3.29-8.1,10.5-14.95,18.14-18.97,4.01-2.11,8.55-3.3,13.08-2.64,4.29,.63,8.43,2.94,10.37,6.95,1.97,4.07,.66,9.78-4.29,10.82s-7.58-4.48-7.03-8.54c.62-4.55,3.85-8.69,7.05-11.81,3.14-3.07,6.95-5.52,11.18-6.77,7.7-2.28,16.76,.19,21.29,7.11,2.16,3.3,2.84,7.23,1.72,11.02-1.06,3.57-3.52,6.82-6.87,8.54-1.63,.84-3.41,1.21-5.24,1.14l.6,.46c-2.16-8.94,4.52-17.21,12.38-20.62,8.85-3.83,18.68-.82,26.22,4.5,4.5,3.18,8.39,7.2,11.72,11.58,.48,.63,1.57,.01,1.08-.63-6.1-8.03-14.33-15.36-24.39-17.71-4.7-1.1-9.56-1.02-14.1,.71-4.28,1.63-8.11,4.45-10.85,8.13-3.09,4.14-4.47,9.3-3.25,14.37,.07,.27,.33,.45,.6,.46,8.46,.31,14.94-8.59,13.78-16.6C263.76,5.73,254.49-.13,245.99,0c-9.82,.15-19.31,7.25-23.59,15.89-2.02,4.09-2.46,9.31,1.05,12.75,3.18,3.11,8.03,2.23,10.59-1.19,2.93-3.91,1.52-9.36-1.63-12.69-3.19-3.37-7.96-4.82-12.52-4.69-5.22,.15-10.11,2.39-14.35,5.31-4.13,2.85-7.88,6.27-10.88,10.32-2.77,3.74-4.98,8.11-5.5,12.78-.25,2.22-.06,4.51,.66,6.63,.32,.94,.74,1.88,1.26,2.73,.49,.8,1.41,.92,2.29,1.04,4.04,.53,7.86-2.3,9.64-5.77,1.96-3.82,1.23-8.13-1.48-11.39-2.7-3.26-6.96-5.13-11.15-5.3-4.9-.2-9.65,1.95-13.47,4.87-8.29,6.32-13.75,16.37-15.62,26.53-.46,2.5-.7,5.03-.74,7.57-.01,.8,1.24,.8,1.25,0h0Z"/><path d="M456.32,339.92c5.48,4.17,9.76,9.88,12.21,16.31,2.44,6.39,3.65,14.45-.14,20.58-2.96,4.78-11.01,8.25-15.39,3.24-1.63-1.86-2.37-4.61-1.83-7.03,.26-1.17,.86-2.41,1.84-3.15s2.95,.19,3.93,.63c5.11,2.33,7.87,8,9.22,13.16,.81,3.08,1.12,6.25,1.13,9.44,.01,3.88-.51,7.91-2.34,11.39-1.48,2.82-3.83,5.29-6.78,6.58s-7.04,1.24-9.56-1.17c-2.31-2.22-2.56-6.7,.61-8.31,3.27-1.67,6.88,.57,8.67,3.31,3.69,5.62,4.29,13.94,1.9,20.15s-8.27,10.65-14.92,10.47c-1.52-.04-2.99-.38-4.4-.95-.74-.3-1.07,.91-.33,1.21,6.61,2.69,14.39-.38,18.48-5.95,4.77-6.49,4.74-15.75,1.7-22.96-1.39-3.31-3.86-6.4-7.6-6.96-3.22-.48-6.39,1.27-7.01,4.6s1.32,6.48,4.36,7.84c3.3,1.47,7.14,.89,10.18-.95,7.44-4.52,8.76-13.86,8.15-21.83-.49-6.36-2.59-13.47-7.47-17.88-1.12-1.01-2.38-1.85-3.77-2.44-1.07-.45-2.98-1.24-4.15-.88s-2.12,1.9-2.56,2.9c-.55,1.23-.76,2.6-.67,3.94,.18,2.75,1.52,5.48,3.83,7.05,2.75,1.86,6.44,1.79,9.42,.59,7.57-3.05,9.73-11.5,8.75-18.94-1.04-7.91-4.88-15.45-10.42-21.16-1.37-1.41-2.85-2.69-4.41-3.88-.64-.49-1.26,.6-.63,1.08h0Z"/><g><path class="cls-3" d="M207.06,352.06c2.05-2.86,4.33-5.56,6.8-8.07,1.29-1.31,2.74-2.62,4.54-2.99,1.22-.25,2.49-.04,3.72,.18l5.11,.89c.96,.17,2.03,.41,2.53,1.23,.67,1.09-.1,2.57-1.2,3.23s-2.42,.77-3.65,1.13c-3.21,.92-5.84,3.66-6.63,6.9l.85,.38"/><path d="M207.6,352.38c2.29-3.18,4.84-6.36,7.77-8.97,1.72-1.54,3.46-2.09,5.76-1.76,2.04,.3,4.08,.67,6.1,1.05,.9,.17,2.19,.43,2.14,1.6-.04,.98-.91,1.64-1.74,1.98-1.53,.63-3.19,.72-4.69,1.49-2.61,1.34-4.53,3.79-5.27,6.62-.06,.24,.04,.59,.29,.71l.85,.38c.73,.32,1.37-.75,.63-1.08l-.85-.38,.29,.71c.79-2.99,3.06-5.5,6.04-6.42,2.19-.68,6.01-1.13,5.7-4.34-.11-1.18-1.04-1.89-2.09-2.24-1.7-.56-3.63-.69-5.39-1-1.61-.28-3.28-.67-4.91-.32-1.43,.3-2.67,1.16-3.75,2.12-3.01,2.69-5.61,5.96-7.97,9.23-.47,.65,.61,1.28,1.08,.63h0Z"/></g></g></svg>