<svg width="149" height="41" viewBox="0 0 149 41" fill="none" xmlns="http://www.w3.org/2000/svg">
<path d="M5.30184 33.903C5.27988 33.9472 5.25438 33.9779 5.22545 33.9961C5.19644 34.0141 5.16188 34.0232 5.12201 34.0232C5.08197 34.0232 5.03698 34.0076 4.98708 33.9765C4.93704 33.9455 4.87813 33.911 4.81017 33.8729C4.74223 33.8349 4.66279 33.8005 4.57177 33.7692C4.4809 33.7384 4.37341 33.7228 4.24944 33.7228C4.13757 33.7228 4.04011 33.7362 3.95715 33.7633C3.87418 33.7903 3.80427 33.8279 3.74729 33.876C3.69033 33.924 3.64787 33.9816 3.6198 34.0487C3.59185 34.1158 3.57783 34.1895 3.57783 34.2694C3.57783 34.3715 3.60637 34.4568 3.66336 34.5249C3.72034 34.593 3.79573 34.651 3.88966 34.6991C3.9836 34.747 4.09062 34.79 4.21054 34.8281C4.33045 34.8664 4.45282 34.9069 4.57776 34.9499C4.70269 34.993 4.82516 35.043 4.94511 35.1001C5.06503 35.1572 5.17192 35.2291 5.26596 35.3164C5.35992 35.4035 5.43531 35.51 5.49229 35.6361C5.54925 35.7625 5.57769 35.9155 5.57769 36.096C5.57769 36.292 5.54426 36.4758 5.47727 36.647C5.41029 36.8182 5.31243 36.9674 5.18349 37.0945C5.05454 37.2219 4.89717 37.3218 4.71123 37.395C4.52529 37.468 4.31241 37.5047 4.07255 37.5047C3.93469 37.5047 3.79865 37.491 3.66482 37.4642C3.53088 37.4371 3.40252 37.3983 3.27955 37.3485C3.15658 37.2984 3.04164 37.2383 2.93476 37.1681C2.82777 37.0982 2.73237 37.02 2.64844 36.9339L2.88229 36.5464C2.90426 36.5183 2.93074 36.4949 2.96173 36.4758C2.99271 36.4568 3.02713 36.4472 3.06517 36.4472C3.11508 36.4472 3.16914 36.4678 3.22709 36.5088C3.28503 36.5499 3.35348 36.5956 3.4324 36.6454C3.51134 36.6956 3.60431 36.7412 3.7113 36.782C3.81819 36.8232 3.94664 36.8437 4.09659 36.8437C4.32643 36.8437 4.50432 36.7892 4.63022 36.6802C4.75625 36.5709 4.81919 36.4142 4.81919 36.2098C4.81919 36.096 4.79064 36.0028 4.73369 35.9307C4.67671 35.8586 4.60132 35.7979 4.50735 35.7488C4.41342 35.6999 4.30643 35.6584 4.18651 35.6241C4.06656 35.5902 3.94469 35.5532 3.82075 35.5132C3.69678 35.473 3.5749 35.425 3.45499 35.3689C3.33504 35.3129 3.22805 35.2396 3.13412 35.1497C3.04018 35.0594 2.96479 34.9467 2.90781 34.8115C2.85083 34.6764 2.82228 34.5096 2.82228 34.3114C2.82228 34.1533 2.85375 33.9993 2.91671 33.8489C2.97965 33.6988 3.07165 33.5656 3.19256 33.4494C3.31345 33.3334 3.46193 33.2403 3.63787 33.1701C3.81367 33.0999 4.0146 33.0649 4.24054 33.0649C4.49638 33.0649 4.73223 33.1051 4.94816 33.185C5.16398 33.2651 5.34783 33.3774 5.49984 33.5216L5.30184 33.903Z" fill="#121212"/>
<path d="M8.34551 34.9031C8.19153 34.9031 8.06015 34.9357 7.9512 35.0009C7.84225 35.0659 7.74074 35.1576 7.64681 35.2757V36.6573C7.73074 36.7614 7.82224 36.8341 7.92119 36.8751C8.02012 36.9162 8.12651 36.9367 8.24047 36.9367C8.35245 36.9367 8.45385 36.9157 8.54487 36.8736C8.63574 36.8317 8.71273 36.7676 8.7757 36.6815C8.83862 36.5954 8.88706 36.4867 8.9211 36.3555C8.95515 36.2243 8.97209 36.0696 8.97209 35.8914C8.97209 35.7113 8.95758 35.5585 8.92867 35.4334C8.89963 35.3082 8.85816 35.2065 8.80423 35.1286C8.75017 35.0503 8.68468 34.9934 8.60779 34.9572C8.53081 34.9212 8.44335 34.9031 8.34551 34.9031ZM6.90625 38.4626V34.3746H7.359C7.40694 34.3746 7.44795 34.3857 7.48197 34.4077C7.51589 34.4297 7.53785 34.4636 7.54786 34.5095L7.60787 34.7951C7.73171 34.6528 7.87422 34.5376 8.03514 34.4496C8.19605 34.3614 8.38442 34.3174 8.60025 34.3174C8.76825 34.3174 8.92159 34.3524 9.06054 34.4225C9.1994 34.4927 9.31932 34.5944 9.42032 34.7273C9.52123 34.8606 9.59919 35.0248 9.6542 35.2201C9.7091 35.4152 9.73668 35.6392 9.73668 35.8914C9.73668 36.1218 9.70571 36.3351 9.64371 36.5312C9.58174 36.7275 9.49329 36.8977 9.37836 37.0418C9.26343 37.1861 9.12448 37.2988 8.9616 37.3799C8.79861 37.4608 8.61623 37.5014 8.41445 37.5014C8.24047 37.5014 8.09309 37.475 7.97217 37.4219C7.85115 37.3689 7.74281 37.2953 7.64681 37.2012V38.4626H6.90625Z" fill="#121212"/>
<path d="M11.0469 37.4565V34.3746H11.4817C11.5576 34.3746 11.6105 34.3885 11.6405 34.4166C11.6705 34.4445 11.6904 34.4926 11.7006 34.5607L11.7455 34.9331C11.8554 34.7431 11.9843 34.5929 12.1323 34.4826C12.2802 34.3724 12.4461 34.3174 12.63 34.3174C12.7818 34.3174 12.9078 34.3523 13.0078 34.4225L12.9118 34.9781C12.9058 35.0143 12.8928 35.0398 12.8729 35.0549C12.8529 35.0699 12.8259 35.0774 12.7919 35.0774C12.762 35.0774 12.721 35.0704 12.669 35.0564C12.6169 35.0425 12.548 35.0353 12.4621 35.0353C12.3081 35.0353 12.1763 35.0779 12.0663 35.163C11.9564 35.248 11.8634 35.3727 11.7874 35.537V37.4565H11.0469Z" fill="#121212"/>
<path d="M15.5283 34.8584C15.3125 34.8584 15.1435 34.9195 15.0217 35.0414C14.8997 35.1637 14.8217 35.337 14.7878 35.5611H16.179C16.179 35.465 16.1659 35.3743 16.1401 35.2893C16.114 35.2042 16.0741 35.1297 16.0201 35.0656C15.9661 35.0016 15.8982 34.951 15.8162 34.9139C15.7341 34.8769 15.6382 34.8584 15.5283 34.8584ZM15.5134 34.3267C15.7072 34.3267 15.8856 34.3577 16.0486 34.4198C16.2115 34.4819 16.3518 34.5725 16.4699 34.6916C16.5878 34.8107 16.6796 34.9569 16.7456 35.1302C16.8116 35.3035 16.8446 35.5012 16.8446 35.7234C16.8446 35.7794 16.842 35.8261 16.8372 35.8631C16.8321 35.9002 16.8231 35.9293 16.8101 35.9503C16.7971 35.9713 16.7796 35.9863 16.7576 35.9953C16.7357 36.0043 16.7077 36.0088 16.6738 36.0088H14.7728C14.7948 36.3253 14.8797 36.5575 15.0276 36.7056C15.1755 36.8538 15.3714 36.9279 15.6154 36.9279C15.7352 36.9279 15.8387 36.914 15.9256 36.8858C16.0125 36.8579 16.0885 36.8269 16.1535 36.7927C16.2184 36.7587 16.2753 36.7276 16.3244 36.6996C16.3733 36.6717 16.4207 36.6575 16.4668 36.6575C16.4968 36.6575 16.5227 36.6636 16.5447 36.6755C16.5666 36.6876 16.5857 36.7047 16.6018 36.7267L16.8176 36.9971C16.7357 37.0932 16.6436 37.1737 16.5417 37.2388C16.4399 37.3038 16.3334 37.3559 16.2224 37.395C16.1115 37.4342 15.9985 37.4615 15.8836 37.4776C15.7687 37.4935 15.6572 37.5016 15.5494 37.5016C15.3355 37.5016 15.1366 37.4661 14.9527 37.395C14.7688 37.3239 14.6088 37.2188 14.4729 37.0797C14.337 36.9406 14.2301 36.7683 14.1522 36.5629C14.0742 36.3578 14.0352 36.1199 14.0352 35.8496C14.0352 35.6394 14.0692 35.4416 14.1372 35.2563C14.2051 35.0709 14.3025 34.9099 14.4295 34.7728C14.5564 34.6357 14.7113 34.5268 14.8942 34.4466C15.077 34.3667 15.2835 34.3267 15.5134 34.3267Z" fill="#121212"/>
<path d="M19.1713 36.9938C19.2471 36.9938 19.3171 36.9868 19.381 36.9731C19.445 36.9594 19.5055 36.9386 19.5625 36.9111C19.6195 36.8835 19.6744 36.8494 19.7275 36.8091C19.7803 36.7685 19.8339 36.7209 19.8878 36.6656V36.1498C19.672 36.1498 19.4915 36.1632 19.3466 36.1906C19.2017 36.2177 19.0852 36.2527 18.9973 36.295C18.9093 36.3373 18.8469 36.3867 18.8098 36.4432C18.7729 36.4996 18.7546 36.5613 18.7546 36.6276C18.7546 36.7587 18.793 36.8526 18.87 36.909C18.9468 36.9656 19.0473 36.9938 19.1713 36.9938ZM20.6104 37.4564H20.2776C20.2077 37.4564 20.1527 37.4459 20.1127 37.4249C20.0728 37.4038 20.0428 37.3613 20.0227 37.2972L19.9568 37.078C19.8788 37.1481 19.8024 37.2095 19.7275 37.2626C19.6525 37.3158 19.575 37.3603 19.4951 37.3962C19.415 37.4324 19.3301 37.4593 19.2402 37.4775C19.1502 37.4955 19.0502 37.5046 18.9403 37.5046C18.8104 37.5046 18.6905 37.4869 18.5805 37.4517C18.4706 37.4166 18.3761 37.3637 18.2972 37.2935C18.2182 37.2232 18.1568 37.1357 18.1128 37.0313C18.0688 36.9269 18.0469 36.8052 18.0469 36.6665C18.0469 36.55 18.0773 36.4351 18.1383 36.3214C18.1993 36.208 18.3007 36.1055 18.4427 36.0141C18.5845 35.9227 18.7735 35.8469 19.0094 35.7865C19.2452 35.7264 19.538 35.6961 19.8878 35.6961V35.5145C19.8878 35.3067 19.8444 35.1529 19.7574 35.053C19.6705 34.953 19.544 34.9031 19.3781 34.9031C19.2581 34.9031 19.1583 34.9173 19.0783 34.9451C18.9983 34.9733 18.9288 35.0048 18.87 35.0398C18.8109 35.075 18.7565 35.1064 18.7064 35.1343C18.6565 35.1625 18.6015 35.1764 18.5416 35.1764C18.4916 35.1764 18.4487 35.1635 18.4127 35.1375C18.3767 35.1113 18.3477 35.0793 18.3257 35.0412L18.1908 34.8041C18.5445 34.4797 18.9713 34.3174 19.4711 34.3174C19.6509 34.3174 19.8114 34.3469 19.9524 34.4062C20.0932 34.465 20.2127 34.5471 20.3106 34.6522C20.4084 34.7574 20.483 34.883 20.5339 35.0292C20.5849 35.1754 20.6104 35.3358 20.6104 35.5099V37.4564Z" fill="#121212"/>
<path d="M23.2662 36.9126C23.4202 36.9126 23.5511 36.8807 23.6591 36.8166C23.767 36.7525 23.8688 36.6614 23.9649 36.5431V35.1615C23.8808 35.0593 23.7894 34.9871 23.6905 34.945C23.5915 34.9031 23.4851 34.882 23.3712 34.882C23.2592 34.882 23.1577 34.9031 23.0668 34.945C22.9758 34.9871 22.8989 35.0507 22.836 35.136C22.773 35.2211 22.7245 35.3292 22.6906 35.4604C22.6565 35.5914 22.6396 35.7461 22.6396 35.9243C22.6396 36.1045 22.6541 36.2572 22.683 36.3825C22.712 36.5076 22.7535 36.6098 22.8075 36.6888C22.8615 36.768 22.9274 36.8251 23.0054 36.8601C23.0833 36.8951 23.1702 36.9126 23.2662 36.9126ZM24.2526 37.4564C24.1566 37.4564 24.0937 37.4113 24.0638 37.3212L24.0038 37.0239C23.9398 37.0958 23.8729 37.161 23.803 37.219C23.733 37.2772 23.6576 37.3273 23.5766 37.3693C23.4955 37.4113 23.4087 37.4438 23.3158 37.4669C23.2227 37.4899 23.1224 37.5013 23.0143 37.5013C22.8465 37.5013 22.6925 37.4663 22.5526 37.3963C22.4126 37.3263 22.2922 37.2246 22.1914 37.0913C22.0904 36.9582 22.0124 36.7937 21.9575 36.5973C21.9024 36.401 21.875 36.1767 21.875 35.9243C21.875 35.696 21.906 35.4838 21.9679 35.2876C22.03 35.0912 22.1189 34.9211 22.2348 34.7768C22.3507 34.6327 22.4896 34.52 22.6515 34.439C22.8134 34.358 22.9953 34.3173 23.1973 34.3173C23.3691 34.3173 23.5161 34.3449 23.638 34.3999C23.7599 34.4549 23.8688 34.5285 23.9649 34.6207V32.9927H24.7055V37.4564H24.2526Z" fill="#121212"/>
<path d="M27.0474 37.4562H26.3068V34.3743H27.0474V37.4562ZM27.1584 33.476C27.1584 33.5402 27.1452 33.6002 27.1193 33.6563C27.0933 33.7124 27.0589 33.7615 27.0159 33.8036C26.9729 33.8455 26.9225 33.879 26.8645 33.904C26.8065 33.9292 26.7445 33.9417 26.6786 33.9417C26.6146 33.9417 26.5542 33.9292 26.4972 33.904C26.4402 33.879 26.3907 33.8455 26.3488 33.8036C26.3068 33.7615 26.2734 33.7124 26.2483 33.6563C26.2233 33.6002 26.2109 33.5402 26.2109 33.476C26.2109 33.41 26.2233 33.3478 26.2483 33.2899C26.2734 33.2317 26.3068 33.1817 26.3488 33.1396C26.3907 33.0975 26.4402 33.0641 26.4972 33.0389C26.5542 33.014 26.6146 33.0015 26.6786 33.0015C26.7445 33.0015 26.8065 33.014 26.8645 33.0389C26.9225 33.0641 26.9729 33.0975 27.0159 33.1396C27.0589 33.1817 27.0933 33.2317 27.1193 33.2899C27.1452 33.3478 27.1584 33.41 27.1584 33.476Z" fill="#121212"/>
<path d="M28.6328 37.4567V34.3748H29.0855C29.1814 34.3748 29.2445 34.4198 29.2744 34.5097L29.3254 34.7532C29.3874 34.6891 29.4528 34.631 29.5218 34.5789C29.5907 34.5268 29.6636 34.4818 29.7406 34.4437C29.8175 34.4058 29.9 34.3768 29.9879 34.3567C30.0759 34.3366 30.1719 34.3267 30.2758 34.3267C30.4437 34.3267 30.5926 34.3552 30.7227 34.4122C30.8525 34.4694 30.9609 34.5493 31.0478 34.6524C31.1349 34.7557 31.2008 34.8788 31.2457 35.0221C31.2908 35.1651 31.3133 35.3228 31.3133 35.4951V37.4567H30.5727V35.4951C30.5727 35.3069 30.5291 35.1613 30.4423 35.058C30.3554 34.9549 30.2249 34.9033 30.0509 34.9033C29.9231 34.9033 29.8032 34.9324 29.6911 34.9906C29.5792 35.0486 29.4733 35.1277 29.3733 35.2278V37.4567H28.6328Z" fill="#121212"/>
<path d="M33.8565 35.8399C33.9484 35.8399 34.0283 35.8273 34.0964 35.8021C34.1642 35.7772 34.2207 35.7428 34.2657 35.6988C34.3107 35.6545 34.3447 35.6015 34.3677 35.5394C34.3907 35.4773 34.4022 35.4093 34.4022 35.3353C34.4022 35.1829 34.3566 35.0625 34.2657 34.9732C34.1746 34.8843 34.0383 34.8395 33.8565 34.8395C33.6746 34.8395 33.5381 34.8843 33.4472 34.9732C33.3561 35.0625 33.3108 35.1829 33.3108 35.3353C33.3108 35.4074 33.3223 35.4743 33.3452 35.5365C33.3681 35.5985 33.4022 35.6521 33.4472 35.697C33.4922 35.7423 33.5491 35.7772 33.6181 35.8021C33.6871 35.8273 33.7665 35.8399 33.8565 35.8399ZM34.669 37.5852C34.669 37.5239 34.651 37.474 34.615 37.4351C34.579 37.3962 34.5301 37.3662 34.4682 37.3447C34.4061 37.3232 34.3337 37.3072 34.2507 37.297C34.1678 37.2868 34.0798 37.2816 33.987 37.2816H33.6991C33.6001 37.2816 33.5046 37.2706 33.4127 37.2486C33.3287 37.2948 33.2613 37.3493 33.2103 37.4124C33.1594 37.4754 33.1339 37.5481 33.1339 37.6302C33.1339 37.6842 33.1473 37.7348 33.1743 37.7818C33.2014 37.829 33.2443 37.8695 33.3033 37.9035C33.3621 37.9374 33.4386 37.9641 33.5326 37.9832C33.6266 38.002 33.7415 38.0115 33.8776 38.0115C34.0154 38.0115 34.1343 38.0007 34.2343 37.9795C34.3341 37.958 34.4166 37.9282 34.4817 37.8905C34.5466 37.8526 34.594 37.8077 34.6241 37.7555C34.6541 37.7033 34.669 37.6466 34.669 37.5852ZM33.8565 34.3198C33.9884 34.3198 34.1123 34.3335 34.2283 34.3604C34.3442 34.3875 34.4502 34.4271 34.546 34.4792H35.4306V34.7555C35.4306 34.8016 35.4187 34.8376 35.3945 34.8634C35.3705 34.8896 35.3296 34.9077 35.2716 34.9178L34.9958 34.9688C35.0157 35.0209 35.0313 35.0759 35.0423 35.1338C35.0533 35.192 35.0588 35.2532 35.0588 35.3171C35.0588 35.4694 35.0284 35.6071 34.9674 35.7303C34.9063 35.8533 34.8225 35.9582 34.7156 36.0441C34.6086 36.1302 34.4817 36.1967 34.3346 36.2439C34.1878 36.2909 34.0283 36.3145 33.8565 36.3145C33.7404 36.3145 33.6276 36.3035 33.5176 36.2813C33.4218 36.34 33.3738 36.4055 33.3738 36.4781C33.3738 36.5407 33.4022 36.5866 33.4592 36.6158C33.5161 36.645 33.5912 36.6655 33.684 36.6778C33.7769 36.6898 33.8824 36.6958 34.0004 36.6958C34.1183 36.6958 34.2392 36.7011 34.3632 36.711C34.4872 36.721 34.6081 36.7387 34.7261 36.7639C34.8439 36.7888 34.9492 36.8286 35.0423 36.8827C35.1352 36.9369 35.2102 37.011 35.2673 37.1044C35.3241 37.1977 35.3527 37.3178 35.3527 37.4644C35.3527 37.6011 35.3191 37.7335 35.2522 37.8622C35.1853 37.9908 35.0883 38.1054 34.9614 38.2059C34.8343 38.306 34.6789 38.387 34.4951 38.4484C34.3113 38.5097 34.1012 38.5402 33.8654 38.5402C33.6315 38.5402 33.4287 38.5179 33.2568 38.4726C33.0848 38.4276 32.9425 38.3674 32.8295 38.2924C32.7165 38.2174 32.6321 38.1308 32.5762 38.0326C32.5203 37.9345 32.4922 37.8324 32.4922 37.7262C32.4922 37.582 32.5362 37.4608 32.6242 37.3627C32.7122 37.2648 32.8341 37.1865 32.99 37.1285C32.9139 37.0866 32.8531 37.0303 32.807 36.9601C32.7611 36.8902 32.7381 36.799 32.7381 36.6869C32.7381 36.6409 32.7461 36.5932 32.7621 36.5444C32.778 36.4951 32.8026 36.4465 32.8355 36.3986C32.8686 36.3505 32.9101 36.3051 32.96 36.262C33.01 36.2187 33.0689 36.1804 33.1368 36.1461C32.9809 36.062 32.8586 35.9501 32.7696 35.8098C32.6805 35.6696 32.6361 35.5054 32.6361 35.3171C32.6361 35.1649 32.6666 35.0273 32.7276 34.9041C32.7885 34.7811 32.8734 34.6758 32.9824 34.5887C33.0914 34.5017 33.2203 34.4349 33.3693 34.389C33.5182 34.343 33.6806 34.3198 33.8565 34.3198Z" fill="#121212"/>
<path d="M39.4238 34.9327H39.6128C39.6886 34.9327 39.7516 34.9222 39.8016 34.9012C39.8515 34.8801 39.8945 34.8467 39.9305 34.8004L41.1268 33.2837C41.1767 33.2196 41.2292 33.1751 41.2842 33.1499C41.3391 33.125 41.4087 33.1126 41.4926 33.1126H42.1882L40.7281 34.9178C40.6821 34.9739 40.6382 35.0209 40.5961 35.0588C40.5541 35.097 40.5092 35.1281 40.4613 35.152C40.5272 35.176 40.5865 35.2102 40.6396 35.2542C40.6926 35.2982 40.7441 35.3544 40.794 35.4223L42.2992 37.456H41.5857C41.4897 37.456 41.418 37.4425 41.3712 37.4154C41.3242 37.3885 41.2846 37.349 41.2528 37.2968L40.0264 35.6927C39.9865 35.6407 39.9414 35.603 39.8915 35.58C39.8414 35.557 39.7706 35.5456 39.6786 35.5456H39.4238V37.456H38.6172V33.1094H39.4238V34.9327Z" fill="#121212"/>
<path d="M43.4844 37.4567V34.3748H43.9371C44.033 34.3748 44.0961 34.4198 44.1259 34.5097L44.177 34.7532C44.2389 34.6891 44.3045 34.631 44.3734 34.5789C44.4423 34.5268 44.5153 34.4818 44.5923 34.4437C44.6692 34.4058 44.7516 34.3768 44.8396 34.3567C44.9276 34.3366 45.0236 34.3267 45.1275 34.3267C45.2954 34.3267 45.4441 34.3552 45.5742 34.4122C45.7041 34.4694 45.8125 34.5493 45.8995 34.6524C45.9865 34.7557 46.0524 34.8788 46.0974 35.0221C46.1424 35.1651 46.1648 35.3228 46.1648 35.4951V37.4567H45.4243V35.4951C45.4243 35.3069 45.3808 35.1613 45.2939 35.058C45.2069 34.9549 45.0764 34.9033 44.9026 34.9033C44.7746 34.9033 44.6547 34.9324 44.5428 34.9906C44.4309 35.0486 44.3248 35.1277 44.2249 35.2278V37.4567H43.4844Z" fill="#121212"/>
<path d="M48.9559 36.9311C49.2117 36.9311 49.4012 36.8448 49.524 36.6727C49.647 36.5003 49.7085 36.2481 49.7085 35.9157C49.7085 35.5833 49.647 35.3298 49.524 35.1556C49.4012 34.9815 49.2117 34.8943 48.9559 34.8943C48.6959 34.8943 48.504 34.9821 48.3802 35.1573C48.2562 35.3323 48.1943 35.5854 48.1943 35.9157C48.1943 36.246 48.2562 36.4979 48.3802 36.6712C48.504 36.8443 48.6959 36.9311 48.9559 36.9311ZM48.9559 34.3267C49.1857 34.3267 49.394 34.3638 49.581 34.4378C49.7679 34.512 49.9273 34.617 50.0592 34.7532C50.1912 34.8895 50.2931 35.0556 50.3651 35.2519C50.4371 35.4481 50.473 35.6675 50.473 35.9098C50.473 36.1539 50.4371 36.3742 50.3651 36.5705C50.2931 36.7667 50.1912 36.9339 50.0592 37.0721C49.9273 37.2102 49.7679 37.3166 49.581 37.3907C49.394 37.4647 49.1857 37.5016 48.9559 37.5016C48.7259 37.5016 48.5171 37.4647 48.3293 37.3907C48.1413 37.3166 47.981 37.2102 47.8479 37.0721C47.715 36.9339 47.6121 36.7667 47.5391 36.5705C47.4662 36.3742 47.4297 36.1539 47.4297 35.9098C47.4297 35.6675 47.4662 35.4481 47.5391 35.2519C47.6121 35.0556 47.715 34.8895 47.8479 34.7532C47.981 34.617 48.1413 34.512 48.3293 34.4378C48.5171 34.3638 48.7259 34.3267 48.9559 34.3267Z" fill="#121212"/>
<path d="M51.4258 34.3743H52.0134C52.0694 34.3743 52.1165 34.3874 52.1544 34.4132C52.1923 34.4394 52.2163 34.4724 52.2264 34.5124L52.667 36.1586C52.691 36.2485 52.7105 36.3368 52.7256 36.4229C52.7405 36.5089 52.755 36.5952 52.769 36.6812C52.791 36.5952 52.8146 36.5089 52.8395 36.4229C52.8644 36.3368 52.8909 36.2485 52.9189 36.1586L53.4287 34.5063C53.4406 34.4663 53.4647 34.4333 53.5007 34.4073C53.5367 34.3812 53.5786 34.3682 53.6266 34.3682H53.9534C54.0073 34.3682 54.0524 34.3812 54.0884 34.4073C54.1242 34.4333 54.1483 34.4663 54.1603 34.5063L54.6639 36.1884C54.69 36.2747 54.7135 36.3583 54.7344 36.4395C54.7555 36.5205 54.7758 36.6021 54.7958 36.6842C54.8098 36.5981 54.8253 36.5121 54.8423 36.4258C54.8593 36.3397 54.8808 36.2506 54.9069 36.1586L55.3625 34.5124C55.3725 34.4724 55.3965 34.4394 55.4345 34.4132C55.4725 34.3874 55.5165 34.3743 55.5664 34.3743H56.1272L55.1526 37.4562H54.556C54.4921 37.4562 54.446 37.4121 54.4181 37.324L53.8634 35.5429C53.8454 35.4847 53.8289 35.426 53.814 35.3671C53.7989 35.3079 53.7864 35.2494 53.7765 35.1912C53.7645 35.2515 53.7514 35.3108 53.7375 35.3701C53.7234 35.4292 53.7074 35.4886 53.6895 35.5487L53.1288 37.324C53.1008 37.4121 53.0468 37.4562 52.9669 37.4562H52.4002L51.4258 34.3743Z" fill="#121212"/>
<path d="M58.0844 37.4565H57.3438V32.9927H58.0844V37.4565Z" fill="#121212"/>
<path d="M60.9542 34.8584C60.7384 34.8584 60.5694 34.9195 60.4475 35.0414C60.3255 35.1637 60.2475 35.337 60.2136 35.5611H61.6048C61.6048 35.465 61.5918 35.3743 61.5659 35.2893C61.5399 35.2042 61.4999 35.1297 61.446 35.0656C61.392 35.0016 61.3239 34.951 61.242 34.9139C61.16 34.8769 61.0641 34.8584 60.9542 34.8584ZM60.9391 34.3267C61.1331 34.3267 61.3115 34.3577 61.4743 34.4198C61.6372 34.4819 61.7777 34.5725 61.8956 34.6916C62.0136 34.8107 62.1055 34.9569 62.1715 35.1302C62.2375 35.3035 62.2705 35.5012 62.2705 35.7234C62.2705 35.7794 62.2679 35.8261 62.2631 35.8631C62.2578 35.9002 62.249 35.9293 62.2359 35.9503C62.223 35.9713 62.2055 35.9863 62.1834 35.9953C62.1614 36.0043 62.1336 36.0088 62.0995 36.0088H60.1986C60.2206 36.3253 60.3055 36.5575 60.4535 36.7056C60.6013 36.8538 60.7973 36.9279 61.0411 36.9279C61.1611 36.9279 61.2646 36.914 61.3514 36.8858C61.4384 36.8579 61.5144 36.8269 61.5793 36.7927C61.6442 36.7587 61.7012 36.7276 61.7502 36.6996C61.7991 36.6717 61.8466 36.6575 61.8926 36.6575C61.9226 36.6575 61.9486 36.6636 61.9706 36.6755C61.9925 36.6876 62.0116 36.7047 62.0275 36.7267L62.2435 36.9971C62.1614 37.0932 62.0695 37.1737 61.9676 37.2388C61.8656 37.3038 61.7593 37.3559 61.6482 37.395C61.5374 37.4342 61.4244 37.4615 61.3095 37.4776C61.1945 37.4935 61.0831 37.5016 60.9751 37.5016C60.7613 37.5016 60.5625 37.4661 60.3785 37.395C60.1947 37.3239 60.0347 37.2188 59.8987 37.0797C59.7629 36.9406 59.656 36.7683 59.578 36.5629C59.5 36.3578 59.4609 36.1199 59.4609 35.8496C59.4609 35.6394 59.495 35.4416 59.5629 35.2563C59.631 35.0709 59.7283 34.9099 59.8553 34.7728C59.9822 34.6357 60.1371 34.5268 60.32 34.4466C60.5029 34.3667 60.7093 34.3267 60.9391 34.3267Z" fill="#121212"/>
<path d="M64.8014 36.9126C64.9554 36.9126 65.0862 36.8807 65.1942 36.8166C65.3021 36.7525 65.404 36.6614 65.5 36.5431V35.1615C65.416 35.0593 65.3246 34.9871 65.2256 34.945C65.1267 34.9031 65.0202 34.882 64.9063 34.882C64.7944 34.882 64.6929 34.9031 64.602 34.945C64.5109 34.9871 64.4341 35.0507 64.3711 35.136C64.3082 35.2211 64.2597 35.3292 64.2257 35.4604C64.1918 35.5914 64.1748 35.7461 64.1748 35.9243C64.1748 36.1045 64.1893 36.2572 64.2182 36.3825C64.2472 36.5076 64.2887 36.6098 64.3427 36.6888C64.3967 36.768 64.4626 36.8251 64.5406 36.8601C64.6184 36.8951 64.7055 36.9126 64.8014 36.9126ZM65.7879 37.4564C65.6919 37.4564 65.629 37.4113 65.599 37.3212L65.539 37.0239C65.4751 37.0958 65.4081 37.161 65.3381 37.219C65.2682 37.2772 65.1927 37.3273 65.1118 37.3693C65.0307 37.4113 64.9439 37.4438 64.8509 37.4669C64.758 37.4899 64.6575 37.5013 64.5495 37.5013C64.3816 37.5013 64.2276 37.4663 64.0878 37.3963C63.9478 37.3263 63.8274 37.2246 63.7265 37.0913C63.6255 36.9582 63.5475 36.7937 63.4926 36.5973C63.4376 36.401 63.4102 36.1767 63.4102 35.9243C63.4102 35.696 63.4412 35.4838 63.5031 35.2876C63.5651 35.0912 63.654 34.9211 63.7699 34.7768C63.8859 34.6327 64.0248 34.52 64.1868 34.439C64.3487 34.358 64.5305 34.3173 64.7324 34.3173C64.9043 34.3173 65.0512 34.3449 65.1732 34.3999C65.2951 34.4549 65.404 34.5285 65.5 34.6207V32.9927H66.2406V37.4564H65.7879Z" fill="#121212"/>
<path d="M68.8565 35.8399C68.9483 35.8399 69.0282 35.8273 69.0964 35.8021C69.1642 35.7772 69.2206 35.7428 69.2657 35.6988C69.3106 35.6545 69.3446 35.6015 69.3677 35.5394C69.3905 35.4773 69.402 35.4093 69.402 35.3353C69.402 35.1829 69.3566 35.0625 69.2657 34.9732C69.1746 34.8843 69.0383 34.8395 68.8565 34.8395C68.6744 34.8395 68.5381 34.8843 68.4472 34.9732C68.3561 35.0625 68.3107 35.1829 68.3107 35.3353C68.3107 35.4074 68.3222 35.4743 68.3452 35.5365C68.3681 35.5985 68.4021 35.6521 68.4472 35.697C68.4921 35.7423 68.5491 35.7772 68.618 35.8021C68.6869 35.8273 68.7665 35.8399 68.8565 35.8399ZM69.669 37.5852C69.669 37.5239 69.651 37.474 69.615 37.4351C69.579 37.3962 69.5301 37.3662 69.468 37.3447C69.4061 37.3232 69.3336 37.3072 69.2506 37.297C69.1678 37.2868 69.0797 37.2816 68.9868 37.2816H68.6989C68.6 37.2816 68.5046 37.2706 68.4126 37.2486C68.3287 37.2948 68.2612 37.3493 68.2102 37.4124C68.1593 37.4754 68.1339 37.5481 68.1339 37.6302C68.1339 37.6842 68.1473 37.7348 68.1742 37.7818C68.2013 37.829 68.2443 37.8695 68.3032 37.9035C68.3621 37.9374 68.4386 37.9641 68.5326 37.9832C68.6265 38.002 68.7415 38.0115 68.8774 38.0115C69.0153 38.0115 69.1343 38.0007 69.2341 37.9795C69.3341 37.958 69.4166 37.9282 69.4816 37.8905C69.5466 37.8526 69.5939 37.8077 69.6239 37.7555C69.6539 37.7033 69.669 37.6466 69.669 37.5852ZM68.8565 34.3198C68.9884 34.3198 69.1123 34.3335 69.2281 34.3604C69.3441 34.3875 69.4502 34.4271 69.546 34.4792H70.4306V34.7555C70.4306 34.8016 70.4186 34.8376 70.3945 34.8634C70.3705 34.8896 70.3296 34.9077 70.2716 34.9178L69.9957 34.9688C70.0157 35.0209 70.0312 35.0759 70.0422 35.1338C70.0532 35.192 70.0586 35.2532 70.0586 35.3171C70.0586 35.4694 70.0283 35.6071 69.9672 35.7303C69.9063 35.8533 69.8223 35.9582 69.7155 36.0441C69.6085 36.1302 69.4816 36.1967 69.3346 36.2439C69.1877 36.2909 69.0282 36.3145 68.8565 36.3145C68.7404 36.3145 68.6274 36.3035 68.5175 36.2813C68.4216 36.34 68.3738 36.4055 68.3738 36.4781C68.3738 36.5407 68.4021 36.5866 68.459 36.6158C68.5161 36.645 68.5911 36.6655 68.684 36.6778C68.777 36.6898 68.8823 36.6958 69.0002 36.6958C69.1183 36.6958 69.2391 36.7011 69.3631 36.711C69.4871 36.721 69.608 36.7387 69.7259 36.7639C69.8438 36.7888 69.9492 36.8286 70.0422 36.8827C70.1351 36.9369 70.2102 37.011 70.2671 37.1044C70.3241 37.1977 70.3525 37.3178 70.3525 37.4644C70.3525 37.6011 70.319 37.7335 70.2522 37.8622C70.1852 37.9908 70.0881 38.1054 69.9614 38.2059C69.8343 38.306 69.6788 38.387 69.495 38.4484C69.3111 38.5097 69.1012 38.5402 68.8654 38.5402C68.6315 38.5402 68.4287 38.5179 68.2567 38.4726C68.0848 38.4276 67.9425 38.3674 67.8295 38.2924C67.7165 38.2174 67.632 38.1308 67.5762 38.0326C67.5201 37.9345 67.4922 37.8324 67.4922 37.7262C67.4922 37.582 67.5361 37.4608 67.6241 37.3627C67.712 37.2648 67.834 37.1865 67.9899 37.1285C67.9139 37.0866 67.853 37.0303 67.807 36.9601C67.7611 36.8902 67.7381 36.799 67.7381 36.6869C67.7381 36.6409 67.746 36.5932 67.762 36.5444C67.7779 36.4951 67.8026 36.4465 67.8354 36.3986C67.8684 36.3505 67.9099 36.3051 67.9599 36.262C68.0099 36.2187 68.0689 36.1804 68.1368 36.1461C67.9809 36.062 67.8585 35.9501 67.7695 35.8098C67.6805 35.6696 67.6361 35.5054 67.6361 35.3171C67.6361 35.1649 67.6666 35.0273 67.7276 34.9041C67.7885 34.7811 67.8734 34.6758 67.9824 34.5887C68.0912 34.5017 68.2202 34.4349 68.3692 34.389C68.518 34.343 68.6806 34.3198 68.8565 34.3198Z" fill="#121212"/>
<path d="M72.9307 34.8584C72.715 34.8584 72.5459 34.9195 72.424 35.0414C72.3021 35.1637 72.2241 35.337 72.1901 35.5611H73.5814C73.5814 35.465 73.5683 35.3743 73.5424 35.2893C73.5165 35.2042 73.4764 35.1297 73.4225 35.0656C73.3684 35.0016 73.3005 34.951 73.2185 34.9139C73.1366 34.8769 73.0407 34.8584 72.9307 34.8584ZM72.9157 34.3267C73.1096 34.3267 73.2881 34.3577 73.4509 34.4198C73.6138 34.4819 73.7542 34.5725 73.8722 34.6916C73.9902 34.8107 74.0821 34.9569 74.1481 35.1302C74.2141 35.3035 74.247 35.5012 74.247 35.7234C74.247 35.7794 74.2445 35.8261 74.2395 35.8631C74.2344 35.9002 74.2256 35.9293 74.2124 35.9503C74.1995 35.9713 74.1819 35.9863 74.16 35.9953C74.138 36.0043 74.1102 36.0088 74.0761 36.0088H72.1752C72.1971 36.3253 72.282 36.5575 72.43 36.7056C72.5779 36.8538 72.7738 36.9279 73.0177 36.9279C73.1376 36.9279 73.2411 36.914 73.3279 36.8858C73.415 36.8579 73.491 36.8269 73.5558 36.7927C73.6208 36.7587 73.6778 36.7276 73.7268 36.6996C73.7757 36.6717 73.8232 36.6575 73.8691 36.6575C73.8991 36.6575 73.9252 36.6636 73.9471 36.6755C73.9691 36.6876 73.9881 36.7047 74.0041 36.7267L74.22 36.9971C74.138 37.0932 74.0461 37.1737 73.9442 37.2388C73.8422 37.3038 73.7358 37.3559 73.6248 37.395C73.514 37.4342 73.401 37.4615 73.2861 37.4776C73.171 37.4935 73.0597 37.5016 72.9517 37.5016C72.7378 37.5016 72.5391 37.4661 72.3551 37.395C72.1711 37.3239 72.0113 37.2188 71.8753 37.0797C71.7394 36.9406 71.6326 36.7683 71.5546 36.5629C71.4766 36.3578 71.4375 36.1199 71.4375 35.8496C71.4375 35.6394 71.4716 35.4416 71.5395 35.2563C71.6076 35.0709 71.7048 34.9099 71.8319 34.7728C71.9588 34.6357 72.1137 34.5268 72.2966 34.4466C72.4794 34.3667 72.6859 34.3267 72.9157 34.3267Z" fill="#121212"/>
<path d="M80.6008 33.1128V33.7765H79.2964V37.4563H78.49V33.7765H77.1797V33.1128H80.6008Z" fill="#121212"/>
<path d="M81.8203 37.4565V32.9927H82.5609V34.7078C82.6808 34.5939 82.8128 34.5017 82.9566 34.4316C83.1006 34.3614 83.2694 34.3265 83.4634 34.3265C83.6313 34.3265 83.7802 34.355 83.9102 34.4121C84.04 34.4692 84.1484 34.5492 84.2355 34.6523C84.3224 34.7555 84.3883 34.8787 84.4334 35.0219C84.4783 35.1649 84.5008 35.3226 84.5008 35.4949V37.4565H83.7603V35.4949C83.7603 35.3068 83.7167 35.1611 83.6298 35.0579C83.5429 34.9548 83.4125 34.9031 83.2385 34.9031C83.1106 34.9031 82.9907 34.9323 82.8787 34.9905C82.7669 35.0484 82.6608 35.1276 82.5609 35.2276V37.4565H81.8203Z" fill="#121212"/>
<path d="M85.9805 37.4565V34.3746H86.4152C86.4913 34.3746 86.544 34.3885 86.5743 34.4166C86.604 34.4445 86.6241 34.4926 86.6343 34.5607L86.6791 34.9331C86.7889 34.7431 86.9177 34.5929 87.0657 34.4826C87.2135 34.3724 87.3794 34.3174 87.5633 34.3174C87.7157 34.3174 87.8415 34.3523 87.9411 34.4225L87.8455 34.9781C87.8396 35.0143 87.8265 35.0398 87.8064 35.0549C87.7864 35.0699 87.7596 35.0774 87.7255 35.0774C87.6956 35.0774 87.6546 35.0704 87.6024 35.0564C87.5507 35.0425 87.4814 35.0353 87.3956 35.0353C87.2419 35.0353 87.1096 35.0779 86.9998 35.163C86.89 35.248 86.7968 35.3727 86.7211 35.537V37.4565H85.9805Z" fill="#121212"/>
<path d="M90.4948 36.9311C90.7508 36.9311 90.9401 36.8448 91.0631 36.6727C91.186 36.5003 91.2473 36.2481 91.2473 35.9157C91.2473 35.5833 91.186 35.3298 91.0631 35.1556C90.9401 34.9815 90.7508 34.8943 90.4948 34.8943C90.2349 34.8943 90.0431 34.9821 89.9193 35.1573C89.7953 35.3323 89.7332 35.5854 89.7332 35.9157C89.7332 36.246 89.7953 36.4979 89.9193 36.6712C90.0431 36.8443 90.2349 36.9311 90.4948 36.9311ZM90.4948 34.3267C90.7246 34.3267 90.933 34.3638 91.1199 34.4378C91.3068 34.512 91.4661 34.617 91.5982 34.7532C91.7302 34.8895 91.8322 35.0556 91.9042 35.2519C91.9759 35.4481 92.0121 35.6675 92.0121 35.9098C92.0121 36.1539 91.9759 36.3742 91.9042 36.5705C91.8322 36.7667 91.7302 36.9339 91.5982 37.0721C91.4661 37.2102 91.3068 37.3166 91.1199 37.3907C90.933 37.4647 90.7246 37.5016 90.4948 37.5016C90.2649 37.5016 90.0561 37.4647 89.8682 37.3907C89.6803 37.3166 89.5198 37.2102 89.387 37.0721C89.2541 36.9339 89.1511 36.7667 89.0782 36.5705C89.0051 36.3742 88.9688 36.1539 88.9688 35.9098C88.9688 35.6675 89.0051 35.4481 89.0782 35.2519C89.1511 35.0556 89.2541 34.8895 89.387 34.7532C89.5198 34.617 89.6803 34.512 89.8682 34.4378C90.0561 34.3638 90.2649 34.3267 90.4948 34.3267Z" fill="#121212"/>
<path d="M94.0139 34.375V36.3334C94.0139 36.5215 94.0575 36.6672 94.1445 36.7704C94.2314 36.8735 94.362 36.9252 94.5357 36.9252C94.6635 36.9252 94.7835 36.8966 94.8958 36.8396C95.0075 36.7823 95.1136 36.7039 95.2134 36.6037V34.375H95.9539V37.4568H95.5013C95.4054 37.4568 95.3425 37.4119 95.3125 37.3216L95.2614 37.0752C95.1976 37.1396 95.1314 37.1979 95.0635 37.251C94.9955 37.3041 94.9231 37.3492 94.8461 37.3862C94.7692 37.4234 94.6863 37.4524 94.5971 37.4734C94.5084 37.4945 94.4127 37.505 94.3109 37.505C94.1429 37.505 93.9945 37.4764 93.8656 37.4192C93.7365 37.3623 93.6282 37.2816 93.5404 37.1774C93.4523 37.0733 93.3859 36.9496 93.3409 36.8066C93.2959 36.6634 93.2734 36.5057 93.2734 36.3334V34.375H94.0139Z" fill="#121212"/>
<path d="M98.5595 35.8399C98.6515 35.8399 98.7316 35.8273 98.7994 35.8021C98.8674 35.7772 98.9239 35.7428 98.9689 35.6988C99.0139 35.6545 99.0478 35.6015 99.0707 35.5394C99.0937 35.4773 99.1054 35.4093 99.1054 35.3353C99.1054 35.1829 99.0597 35.0625 98.9689 34.9732C98.8779 34.8843 98.7415 34.8395 98.5595 34.8395C98.3777 34.8395 98.2413 34.8843 98.1503 34.9732C98.0593 35.0625 98.0139 35.1829 98.0139 35.3353C98.0139 35.4074 98.0254 35.4743 98.0483 35.5365C98.0713 35.5985 98.1055 35.6521 98.1503 35.697C98.1952 35.7423 98.2523 35.7772 98.3211 35.8021C98.3902 35.8273 98.4697 35.8399 98.5595 35.8399ZM99.372 37.5852C99.372 37.5239 99.3542 37.474 99.3181 37.4351C99.2822 37.3962 99.2332 37.3662 99.1712 37.3447C99.1092 37.3232 99.0367 37.3072 98.9539 37.297C98.8709 37.2868 98.783 37.2816 98.6901 37.2816H98.4022C98.3033 37.2816 98.2076 37.2706 98.116 37.2486C98.0319 37.2948 97.9644 37.3493 97.9133 37.4124C97.8624 37.4754 97.837 37.5481 97.837 37.6302C97.837 37.6842 97.8504 37.7348 97.8775 37.7818C97.9044 37.829 97.9473 37.8695 98.0064 37.9035C98.0654 37.9374 98.1417 37.9641 98.2357 37.9832C98.3297 38.002 98.4446 38.0115 98.5805 38.0115C98.7186 38.0115 98.8374 38.0007 98.9375 37.9795C99.0372 37.958 99.1197 37.9282 99.1847 37.8905C99.2496 37.8526 99.2972 37.8077 99.3272 37.7555C99.3572 37.7033 99.372 37.6466 99.372 37.5852ZM98.5595 34.3198C98.6915 34.3198 98.8155 34.3335 98.9314 34.3604C99.0473 34.3875 99.1532 34.4271 99.249 34.4792H100.134V34.7555C100.134 34.8016 100.122 34.8376 100.098 34.8634C100.074 34.8896 100.033 34.9077 99.9747 34.9178L99.6991 34.9688C99.7187 35.0209 99.7343 35.0759 99.7454 35.1338C99.7563 35.192 99.7619 35.2532 99.7619 35.3171C99.7619 35.4694 99.7315 35.6071 99.6705 35.7303C99.6095 35.8533 99.5256 35.9582 99.4187 36.0441C99.3115 36.1302 99.1847 36.1967 99.0377 36.2439C98.8909 36.2909 98.7316 36.3145 98.5595 36.3145C98.4436 36.3145 98.3307 36.3035 98.2208 36.2813C98.1248 36.34 98.0769 36.4055 98.0769 36.4781C98.0769 36.5407 98.1055 36.5866 98.1623 36.6158C98.2194 36.645 98.2943 36.6655 98.3873 36.6778C98.4802 36.6898 98.5857 36.6958 98.7035 36.6958C98.8213 36.6958 98.9424 36.7011 99.0663 36.711C99.1903 36.721 99.3111 36.7387 99.4292 36.7639C99.547 36.7888 99.6524 36.8286 99.7454 36.8827C99.8384 36.9369 99.9132 37.011 99.9704 37.1044C100.027 37.1977 100.056 37.3178 100.056 37.4644C100.056 37.6011 100.022 37.7335 99.9552 37.8622C99.8883 37.9908 99.7915 38.1054 99.6644 38.2059C99.5374 38.306 99.3821 38.387 99.1984 38.4484C99.0144 38.5097 98.8045 38.5402 98.5685 38.5402C98.3348 38.5402 98.1318 38.5179 97.9599 38.4726C97.788 38.4276 97.6455 38.3674 97.5328 38.2924C97.4198 38.2174 97.3354 38.1308 97.2792 38.0326C97.2234 37.9345 97.1953 37.8324 97.1953 37.7262C97.1953 37.582 97.2392 37.4608 97.3273 37.3627C97.4152 37.2648 97.5371 37.1865 97.6931 37.1285C97.6171 37.0866 97.5562 37.0303 97.51 36.9601C97.4642 36.8902 97.4412 36.799 97.4412 36.6869C97.4412 36.6409 97.4491 36.5932 97.4652 36.5444C97.4813 36.4951 97.5057 36.4465 97.5386 36.3986C97.5716 36.3505 97.6131 36.3051 97.6631 36.262C97.713 36.2187 97.7721 36.1804 97.8399 36.1461C97.684 36.062 97.5616 35.9501 97.4727 35.8098C97.3836 35.6696 97.3392 35.5054 97.3392 35.3171C97.3392 35.1649 97.3697 35.0273 97.4307 34.9041C97.4918 34.7811 97.5767 34.6758 97.6854 34.5887C97.7946 34.5017 97.9234 34.4349 98.0723 34.389C98.2213 34.343 98.3836 34.3198 98.5595 34.3198Z" fill="#121212"/>
<path d="M101.352 37.4565V32.9927H102.092V34.7078C102.212 34.5939 102.344 34.5017 102.488 34.4316C102.632 34.3614 102.801 34.3265 102.995 34.3265C103.163 34.3265 103.311 34.355 103.441 34.4121C103.571 34.4692 103.68 34.5492 103.767 34.6523C103.854 34.7555 103.92 34.8787 103.965 35.0219C104.009 35.1649 104.032 35.3226 104.032 35.4949V37.4565H103.291V35.4949C103.291 35.3068 103.248 35.1611 103.161 35.0579C103.074 34.9548 102.944 34.9031 102.77 34.9031C102.642 34.9031 102.522 34.9323 102.41 34.9905C102.298 35.0484 102.192 35.1276 102.092 35.2276V37.4565H101.352Z" fill="#121212"/>
<path d="M110.515 33.1128V33.7765H109.21V37.4563H108.404V33.7765H107.094V33.1128H110.515Z" fill="#121212"/>
<path d="M112.407 34.8584C112.191 34.8584 112.022 34.9195 111.901 35.0414C111.779 35.1637 111.701 35.337 111.667 35.5611H113.058C113.058 35.465 113.045 35.3743 113.019 35.2893C112.993 35.2042 112.953 35.1297 112.899 35.0656C112.845 35.0016 112.777 34.951 112.695 34.9139C112.613 34.8769 112.517 34.8584 112.407 34.8584ZM112.392 34.3267C112.586 34.3267 112.765 34.3577 112.928 34.4198C113.09 34.4819 113.231 34.5725 113.349 34.6916C113.467 34.8107 113.559 34.9569 113.625 35.1302C113.691 35.3035 113.724 35.5012 113.724 35.7234C113.724 35.7794 113.721 35.8261 113.716 35.8631C113.711 35.9002 113.702 35.9293 113.689 35.9503C113.676 35.9713 113.659 35.9863 113.637 35.9953C113.614 36.0043 113.587 36.0088 113.553 36.0088H111.652C111.674 36.3253 111.759 36.5575 111.906 36.7056C112.055 36.8538 112.25 36.9279 112.494 36.9279C112.614 36.9279 112.718 36.914 112.805 36.8858C112.892 36.8579 112.967 36.8269 113.033 36.7927C113.098 36.7587 113.154 36.7276 113.203 36.6996C113.252 36.6717 113.3 36.6575 113.346 36.6575C113.376 36.6575 113.402 36.6636 113.424 36.6755C113.446 36.6876 113.465 36.7047 113.481 36.7267L113.696 36.9971C113.614 37.0932 113.523 37.1737 113.421 37.2388C113.319 37.3038 113.212 37.3559 113.101 37.395C112.991 37.4342 112.878 37.4615 112.763 37.4776C112.648 37.4935 112.536 37.5016 112.428 37.5016C112.214 37.5016 112.015 37.4661 111.832 37.395C111.648 37.3239 111.488 37.2188 111.352 37.0797C111.216 36.9406 111.109 36.7683 111.031 36.5629C110.953 36.3578 110.914 36.1199 110.914 35.8496C110.914 35.6394 110.948 35.4416 111.016 35.2563C111.084 35.0709 111.182 34.9099 111.308 34.7728C111.435 34.6357 111.59 34.5268 111.773 34.4466C111.956 34.3667 112.162 34.3267 112.392 34.3267Z" fill="#121212"/>
<path d="M117.236 35.0266C117.214 35.0546 117.192 35.0766 117.171 35.0926C117.15 35.1087 117.12 35.1167 117.08 35.1167C117.042 35.1167 117.005 35.1052 116.969 35.0821C116.933 35.0591 116.89 35.0331 116.84 35.0041C116.79 34.975 116.731 34.9491 116.662 34.9258C116.593 34.9029 116.507 34.8914 116.405 34.8914C116.275 34.8914 116.161 34.9148 116.063 34.962C115.966 35.0089 115.884 35.0766 115.819 35.1647C115.754 35.2528 115.706 35.3595 115.674 35.4846C115.642 35.6098 115.626 35.7515 115.626 35.9098C115.626 36.0737 115.643 36.2202 115.678 36.3484C115.713 36.4764 115.764 36.584 115.83 36.6712C115.896 36.7583 115.975 36.8242 116.07 36.8694C116.164 36.9145 116.269 36.937 116.387 36.937C116.505 36.937 116.601 36.9225 116.674 36.8934C116.747 36.8643 116.808 36.8324 116.858 36.7973C116.908 36.7624 116.951 36.7302 116.989 36.7013C117.025 36.6722 117.067 36.6575 117.113 36.6575C117.173 36.6575 117.218 36.6808 117.248 36.7267L117.461 36.9971C117.379 37.0932 117.29 37.1739 117.194 37.2388C117.098 37.3038 116.999 37.3559 116.896 37.395C116.793 37.4342 116.686 37.4615 116.576 37.4776C116.466 37.4935 116.357 37.5016 116.249 37.5016C116.06 37.5016 115.881 37.4661 115.713 37.395C115.545 37.3239 115.398 37.2203 115.273 37.0841C115.148 36.948 115.05 36.7812 114.977 36.584C114.904 36.3869 114.867 36.162 114.867 35.9098C114.867 35.6834 114.9 35.4736 114.965 35.2803C115.03 35.0872 115.125 34.9199 115.251 34.7787C115.377 34.6376 115.533 34.5268 115.719 34.4466C115.905 34.3668 116.118 34.3267 116.36 34.3267C116.59 34.3267 116.792 34.3639 116.965 34.4379C117.137 34.512 117.293 34.618 117.431 34.7562L117.236 35.0266Z" fill="#121212"/>
<path d="M118.688 37.4565V32.9927H119.428V34.7078C119.548 34.5939 119.68 34.5017 119.824 34.4316C119.968 34.3614 120.137 34.3265 120.331 34.3265C120.499 34.3265 120.647 34.355 120.777 34.4121C120.907 34.4692 121.016 34.5492 121.103 34.6523C121.189 34.7555 121.256 34.8787 121.301 35.0219C121.345 35.1649 121.368 35.3226 121.368 35.4949V37.4565H120.627V35.4949C120.627 35.3068 120.584 35.1611 120.497 35.0579C120.41 34.9548 120.28 34.9031 120.106 34.9031C119.978 34.9031 119.858 34.9323 119.746 34.9905C119.634 35.0484 119.528 35.1276 119.428 35.2276V37.4565H118.688Z" fill="#121212"/>
<path d="M122.844 37.4567V34.3748H123.297C123.392 34.3748 123.455 34.4198 123.485 34.5097L123.536 34.7532C123.598 34.6891 123.664 34.631 123.733 34.5789C123.802 34.5268 123.875 34.4818 123.951 34.4437C124.029 34.4058 124.111 34.3768 124.199 34.3567C124.287 34.3366 124.383 34.3267 124.487 34.3267C124.655 34.3267 124.804 34.3552 124.934 34.4122C125.063 34.4694 125.172 34.5493 125.259 34.6524C125.346 34.7557 125.412 34.8788 125.457 35.0221C125.502 35.1651 125.524 35.3228 125.524 35.4951V37.4567H124.783V35.4951C124.783 35.3069 124.74 35.1613 124.653 35.058C124.566 34.9549 124.436 34.9033 124.262 34.9033C124.134 34.9033 124.014 34.9324 123.902 34.9906C123.79 35.0486 123.684 35.1277 123.584 35.2278V37.4567H122.844Z" fill="#121212"/>
<path d="M128.315 36.9311C128.571 36.9311 128.76 36.8448 128.883 36.6727C129.006 36.5003 129.067 36.2481 129.067 35.9157C129.067 35.5833 129.006 35.3298 128.883 35.1556C128.76 34.9815 128.571 34.8943 128.315 34.8943C128.055 34.8943 127.863 34.9821 127.739 35.1573C127.615 35.3323 127.554 35.5854 127.554 35.9157C127.554 36.246 127.615 36.4979 127.739 36.6712C127.863 36.8443 128.055 36.9311 128.315 36.9311ZM128.315 34.3267C128.545 34.3267 128.753 34.3638 128.94 34.4378C129.127 34.512 129.286 34.617 129.418 34.7532C129.55 34.8895 129.652 35.0556 129.724 35.2519C129.796 35.4481 129.832 35.6675 129.832 35.9098C129.832 36.1539 129.796 36.3742 129.724 36.5705C129.652 36.7667 129.55 36.9339 129.418 37.0721C129.286 37.2102 129.127 37.3166 128.94 37.3907C128.753 37.4647 128.545 37.5016 128.315 37.5016C128.085 37.5016 127.876 37.4647 127.688 37.3907C127.501 37.3166 127.34 37.2102 127.207 37.0721C127.074 36.9339 126.971 36.7667 126.898 36.5705C126.825 36.3742 126.789 36.1539 126.789 35.9098C126.789 35.6675 126.825 35.4481 126.898 35.2519C126.971 35.0556 127.074 34.8895 127.207 34.7532C127.34 34.617 127.501 34.512 127.688 34.4378C127.876 34.3638 128.085 34.3267 128.315 34.3267Z" fill="#121212"/>
<path d="M131.951 37.4565H131.211V32.9927H131.951V37.4565Z" fill="#121212"/>
<path d="M134.85 36.9311C135.105 36.9311 135.295 36.8448 135.418 36.6727C135.541 36.5003 135.602 36.2481 135.602 35.9157C135.602 35.5833 135.541 35.3298 135.418 35.1556C135.295 34.9815 135.105 34.8943 134.85 34.8943C134.589 34.8943 134.398 34.9821 134.274 35.1573C134.15 35.3323 134.088 35.5854 134.088 35.9157C134.088 36.246 134.15 36.4979 134.274 36.6712C134.398 36.8443 134.589 36.9311 134.85 36.9311ZM134.85 34.3267C135.08 34.3267 135.288 34.3638 135.474 34.4378C135.662 34.512 135.821 34.617 135.953 34.7532C136.084 34.8895 136.187 35.0556 136.259 35.2519C136.331 35.4481 136.367 35.6675 136.367 35.9098C136.367 36.1539 136.331 36.3742 136.259 36.5705C136.187 36.7667 136.084 36.9339 135.953 37.0721C135.821 37.2102 135.662 37.3166 135.474 37.3907C135.288 37.4647 135.08 37.5016 134.85 37.5016C134.62 37.5016 134.411 37.4647 134.223 37.3907C134.035 37.3166 133.874 37.2102 133.742 37.0721C133.609 36.9339 133.506 36.7667 133.433 36.5705C133.36 36.3742 133.324 36.1539 133.324 35.9098C133.324 35.6675 133.36 35.4481 133.433 35.2519C133.506 35.0556 133.609 34.8895 133.742 34.7532C133.874 34.617 134.035 34.512 134.223 34.4378C134.411 34.3638 134.62 34.3267 134.85 34.3267Z" fill="#121212"/>
<path d="M138.758 35.8399C138.85 35.8399 138.93 35.8273 138.998 35.8021C139.067 35.7772 139.123 35.7428 139.168 35.6988C139.213 35.6545 139.247 35.6015 139.27 35.5394C139.293 35.4773 139.305 35.4093 139.305 35.3353C139.305 35.1829 139.259 35.0625 139.168 34.9732C139.077 34.8843 138.941 34.8395 138.758 34.8395C138.577 34.8395 138.44 34.8843 138.35 34.9732C138.259 35.0625 138.213 35.1829 138.213 35.3353C138.213 35.4074 138.224 35.4743 138.247 35.5365C138.27 35.5985 138.305 35.6521 138.35 35.697C138.394 35.7423 138.452 35.7772 138.521 35.8021C138.59 35.8273 138.669 35.8399 138.758 35.8399ZM139.571 37.5852C139.571 37.5239 139.553 37.474 139.516 37.4351C139.481 37.3962 139.432 37.3662 139.37 37.3447C139.308 37.3232 139.236 37.3072 139.153 37.297C139.07 37.2868 138.981 37.2816 138.89 37.2816H138.601C138.503 37.2816 138.407 37.2706 138.315 37.2486C138.231 37.2948 138.163 37.3493 138.112 37.4124C138.061 37.4754 138.035 37.5481 138.035 37.6302C138.035 37.6842 138.049 37.7348 138.076 37.7818C138.103 37.829 138.147 37.8695 138.205 37.9035C138.264 37.9374 138.341 37.9641 138.435 37.9832C138.528 38.002 138.643 38.0115 138.78 38.0115C138.918 38.0115 139.036 38.0007 139.136 37.9795C139.237 37.958 139.319 37.9282 139.384 37.8905C139.449 37.8526 139.496 37.8077 139.527 37.7555C139.556 37.7033 139.571 37.6466 139.571 37.5852ZM138.758 34.3198C138.891 34.3198 139.015 34.3335 139.131 34.3604C139.246 34.3875 139.352 34.4271 139.447 34.4792H140.332V34.7555C140.332 34.8016 140.321 34.8376 140.297 34.8634C140.272 34.8896 140.231 34.9077 140.174 34.9178L139.898 34.9688C139.917 35.0209 139.934 35.0759 139.944 35.1338C139.956 35.192 139.961 35.2532 139.961 35.3171C139.961 35.4694 139.93 35.6071 139.869 35.7303C139.809 35.8533 139.725 35.9582 139.617 36.0441C139.51 36.1302 139.384 36.1967 139.237 36.2439C139.09 36.2909 138.93 36.3145 138.758 36.3145C138.643 36.3145 138.53 36.3035 138.42 36.2813C138.324 36.34 138.275 36.4055 138.275 36.4781C138.275 36.5407 138.305 36.5866 138.361 36.6158C138.418 36.645 138.494 36.6655 138.586 36.6778C138.679 36.6898 138.785 36.6958 138.902 36.6958C139.02 36.6958 139.141 36.7011 139.265 36.711C139.389 36.721 139.51 36.7387 139.628 36.7639C139.746 36.7888 139.851 36.8286 139.944 36.8827C140.037 36.9369 140.113 37.011 140.169 37.1044C140.226 37.1977 140.254 37.3178 140.254 37.4644C140.254 37.6011 140.221 37.7335 140.155 37.8622C140.087 37.9908 139.99 38.1054 139.864 38.2059C139.736 38.306 139.582 38.387 139.398 38.4484C139.214 38.5097 139.003 38.5402 138.767 38.5402C138.533 38.5402 138.33 38.5179 138.159 38.4726C137.987 38.4276 137.844 38.3674 137.732 38.2924C137.619 38.2174 137.534 38.1308 137.479 38.0326C137.423 37.9345 137.395 37.8324 137.395 37.7262C137.395 37.582 137.438 37.4608 137.526 37.3627C137.614 37.2648 137.737 37.1865 137.892 37.1285C137.816 37.0866 137.755 37.0303 137.709 36.9601C137.663 36.8902 137.64 36.799 137.64 36.6869C137.64 36.6409 137.649 36.5932 137.664 36.5444C137.681 36.4951 137.705 36.4465 137.738 36.3986C137.77 36.3505 137.812 36.3051 137.862 36.262C137.912 36.2187 137.972 36.1804 138.039 36.1461C137.884 36.062 137.761 35.9501 137.672 35.8098C137.582 35.6696 137.539 35.5054 137.539 35.3171C137.539 35.1649 137.568 35.0273 137.629 34.9041C137.691 34.7811 137.775 34.6758 137.885 34.5887C137.993 34.5017 138.122 34.4349 138.272 34.389C138.42 34.343 138.583 34.3198 138.758 34.3198Z" fill="#121212"/>
<path d="M142.638 38.3034C142.616 38.3555 142.588 38.395 142.552 38.4223C142.518 38.4491 142.464 38.4625 142.392 38.4625H141.84L142.415 37.228L141.172 34.3745H141.819C141.879 34.3745 141.925 34.3885 141.957 34.4166C141.989 34.4445 142.013 34.4765 142.029 34.5126L142.686 36.1106C142.708 36.1628 142.727 36.2168 142.742 36.2729C142.759 36.3289 142.773 36.385 142.784 36.4411C142.801 36.3829 142.818 36.327 142.837 36.2729C142.856 36.2187 142.876 36.1637 142.898 36.1077L143.516 34.5126C143.533 34.4726 143.558 34.4396 143.596 34.4134C143.632 34.3876 143.674 34.3745 143.72 34.3745H144.314L142.638 38.3034Z" fill="#121212"/>
<path d="M42.4711 18.8785C40.6541 18.8785 39.1813 17.192 39.1813 15.1116C39.1813 13.0312 40.6541 11.3446 42.4711 11.3446C44.288 11.3446 45.7608 13.0312 45.7608 15.1116C45.7608 17.192 44.288 18.8785 42.4711 18.8785ZM42.6302 7.83691C41.1999 7.83691 39.8801 8.37847 38.8182 9.29186L38.5549 8.43859C38.4443 8.08083 38.1142 7.83691 37.7405 7.83691H35.5508V28.1409H38.8182V20.9314C39.8801 21.8446 41.1999 22.3862 42.6302 22.3862C46.139 22.3862 48.9834 19.1292 48.9834 15.1116C48.9834 11.0939 46.139 7.83691 42.6302 7.83691Z" fill="#121212"/>
<path d="M6.98452 23.5781H2.91406V1.73828H6.98452V23.5781Z" fill="#121212"/>
<path d="M10.918 23.5783V8.08195H13.1945C13.6769 8.08195 13.9935 8.30847 14.1442 8.76152L14.3854 9.90948C14.6568 9.60737 14.9406 9.33058 15.2372 9.07886C15.5335 8.82726 15.85 8.61059 16.1869 8.42934C16.5236 8.2481 16.8853 8.10459 17.2724 7.99894C17.6591 7.89316 18.084 7.84033 18.5463 7.84033C19.5211 7.84033 20.3226 8.10459 20.9509 8.63323C21.5789 9.16187 22.0489 9.8642 22.3605 10.7402C22.6017 10.2267 22.9032 9.78631 23.2651 9.41858C23.6269 9.05123 24.0238 8.75167 24.456 8.52003C24.888 8.28839 25.3478 8.11725 25.8355 8.00636C26.3228 7.89572 26.8128 7.84033 27.3054 7.84033C28.1595 7.84033 28.9185 7.97131 29.5817 8.23301C30.2451 8.49483 30.8029 8.87753 31.2553 9.38084C31.7075 9.88454 32.0517 10.4985 32.2879 11.2235C32.5239 11.9484 32.6422 12.7792 32.6422 13.7156V23.5783H28.9185V13.7156C28.9185 12.7289 28.7022 11.9862 28.2702 11.4877C27.838 10.9894 27.2047 10.7402 26.3707 10.7402C25.9885 10.7402 25.6343 10.8057 25.3078 10.9366C24.9811 11.0676 24.6946 11.2563 24.4484 11.5029C24.2022 11.7498 24.0086 12.0593 23.8682 12.4318C23.7272 12.8044 23.657 13.2323 23.657 13.7156V23.5783H19.9181V13.7156C19.9181 12.6787 19.7095 11.9235 19.2926 11.45C18.8755 10.9769 18.2598 10.7402 17.4458 10.7402C16.9129 10.7402 16.413 10.8738 15.9458 11.1403C15.4784 11.4074 15.0436 11.7724 14.6417 12.2353V23.5783H10.918Z" fill="#121212"/>
<path d="M58.3163 10.5136C57.2307 10.5136 56.3813 10.8208 55.7684 11.4349C55.1553 12.0492 54.7632 12.9203 54.5925 14.0478H61.5878C61.5878 13.5644 61.5223 13.1091 61.3917 12.681C61.2609 12.253 61.0601 11.8781 60.7887 11.5556C60.5173 11.2336 60.1756 10.9794 59.7635 10.7931C59.3512 10.6068 58.8689 10.5136 58.3163 10.5136ZM58.2409 7.84033C59.2156 7.84033 60.1127 7.99651 60.9319 8.30847C61.7509 8.62069 62.457 9.07642 63.05 9.67529C63.6429 10.2745 64.1053 11.0096 64.437 11.8805C64.7686 12.7514 64.9346 13.7457 64.9346 14.8634C64.9346 15.1455 64.9218 15.3796 64.8968 15.5657C64.8716 15.7521 64.8263 15.898 64.7612 16.0037C64.6956 16.1095 64.6077 16.185 64.4974 16.2304C64.3866 16.2755 64.246 16.2983 64.0752 16.2983H54.5171C54.6276 17.8893 55.0547 19.0573 55.7985 19.8023C56.5422 20.5475 57.5272 20.9198 58.7535 20.9198C59.3565 20.9198 59.8766 20.8496 60.3139 20.7085C60.751 20.5676 61.1328 20.4117 61.4595 20.2403C61.7861 20.0691 62.0724 19.9132 62.3188 19.7721C62.565 19.6312 62.8037 19.5606 63.0349 19.5606C63.1857 19.5606 63.3162 19.5909 63.4269 19.6513C63.5375 19.7116 63.6328 19.7973 63.7134 19.908L64.7989 21.2674C64.3866 21.7506 63.9244 22.1561 63.4118 22.4831C62.8994 22.8104 62.364 23.0721 61.8064 23.2685C61.2486 23.4649 60.6805 23.6032 60.1027 23.6839C59.5247 23.7644 58.9645 23.8048 58.4218 23.8048C57.3462 23.8048 56.3462 23.6258 55.4216 23.2685C54.4969 22.9114 53.693 22.3827 53.0095 21.6827C52.326 20.9829 51.7885 20.1171 51.3965 19.0849C51.0046 18.0529 50.8086 16.8571 50.8086 15.4977C50.8086 14.4405 50.9793 13.4462 51.3211 12.5148C51.6626 11.5837 52.1526 10.773 52.791 10.0831C53.4292 9.39363 54.2081 8.84734 55.1277 8.44444C56.0473 8.04178 57.0851 7.84033 58.2409 7.84033Z" fill="#121212"/>
<path d="M71.1729 3.11889V23.5787H68.8199C68.0629 23.5787 67.4492 22.9639 67.4492 22.2054V1.74561H69.8021C70.5592 1.74561 71.1729 2.36045 71.1729 3.11889Z" fill="#121212"/>
<path d="M83.8115 11.1026C83.7108 11.2639 83.6054 11.3772 83.4948 11.4424C83.3841 11.5082 83.2434 11.5407 83.0727 11.5407C82.8918 11.5407 82.6982 11.4904 82.4924 11.3896C82.2863 11.2891 82.0475 11.1758 81.7762 11.0499C81.5048 10.924 81.1958 10.8108 80.8491 10.7101C80.5022 10.6094 80.0926 10.559 79.6204 10.559C78.8866 10.559 78.3088 10.7152 77.8867 11.0271C77.4645 11.3394 77.2535 11.7473 77.2535 12.2506C77.2535 12.5827 77.3614 12.8622 77.5776 13.0889C77.7937 13.3154 78.08 13.5143 78.4369 13.6854C78.7936 13.8567 79.1983 14.0101 79.6505 14.146C80.1029 14.282 80.565 14.4306 81.0375 14.5916C81.5098 14.7528 81.9722 14.9366 82.4244 15.1428C82.8768 15.3494 83.2812 15.6111 83.6381 15.9283C83.9948 16.2455 84.2812 16.6256 84.4973 17.0686C84.7133 17.5119 84.8216 18.0454 84.8216 18.6696C84.8216 19.4148 84.6858 20.102 84.4146 20.7312C84.1431 21.3606 83.746 21.9043 83.2234 22.3624C82.7008 22.8207 82.0551 23.178 81.2862 23.4348C80.5174 23.6915 79.6354 23.8199 78.6405 23.8199C78.1076 23.8199 77.5875 23.7719 77.0801 23.6764C76.5725 23.5806 76.0851 23.4474 75.6177 23.2761C75.1503 23.105 74.7182 22.9038 74.3212 22.672C73.924 22.4405 73.575 22.1887 73.2734 21.9169L74.1328 20.4971C74.2432 20.3261 74.374 20.195 74.5247 20.1044C74.6755 20.0138 74.8663 19.9685 75.0976 19.9685C75.3287 19.9685 75.5473 20.0341 75.7535 20.1648C75.9593 20.2958 76.1983 20.4366 76.4694 20.5877C76.7409 20.7387 77.0599 20.8798 77.4268 21.0107C77.7936 21.1416 78.2584 21.207 78.8214 21.207C79.2635 21.207 79.643 21.154 79.9596 21.0484C80.2761 20.9427 80.5374 20.8043 80.7435 20.6331C80.9494 20.4619 81.1002 20.263 81.1958 20.0365C81.2912 19.8099 81.339 19.5758 81.339 19.3341C81.339 18.9717 81.231 18.6748 81.0149 18.4431C80.7987 18.2115 80.5122 18.0102 80.1556 17.8388C79.7987 17.6678 79.3916 17.5142 78.9344 17.3782C78.4769 17.2423 78.0097 17.0939 77.5323 16.9327C77.0549 16.7717 76.5875 16.5829 76.1303 16.3662C75.6729 16.1498 75.2657 15.8754 74.9092 15.5431C74.5523 15.2108 74.2658 14.8031 74.0499 14.3197C73.8335 13.8365 73.7258 13.2526 73.7258 12.5678C73.7258 11.9334 73.8513 11.3293 74.1027 10.7553C74.3538 10.1814 74.7231 9.68066 75.2107 9.25243C75.698 8.82458 76.3061 8.4823 77.0349 8.22546C77.7635 7.96862 78.6051 7.84033 79.56 7.84033C80.6253 7.84033 81.5953 8.01659 82.4698 8.36897C83.344 8.72148 84.0727 9.18451 84.6556 9.75842L83.8115 11.1026Z" fill="#121212"/>
<path d="M111.561 11.1026C111.461 11.2639 111.355 11.3772 111.245 11.4424C111.134 11.5082 110.993 11.5407 110.823 11.5407C110.642 11.5407 110.448 11.4904 110.242 11.3896C110.036 11.2891 109.798 11.1758 109.526 11.0499C109.255 10.924 108.946 10.8108 108.599 10.7101C108.252 10.6094 107.843 10.559 107.37 10.559C106.637 10.559 106.059 10.7152 105.637 11.0271C105.215 11.3394 105.003 11.7473 105.003 12.2506C105.003 12.5827 105.111 12.8622 105.328 13.0889C105.544 13.3154 105.83 13.5143 106.187 13.6854C106.544 13.8567 106.948 14.0101 107.401 14.146C107.853 14.282 108.315 14.4306 108.787 14.5916C109.26 14.7528 109.722 14.9366 110.174 15.1428C110.627 15.3494 111.031 15.6111 111.388 15.9283C111.745 16.2455 112.031 16.6256 112.247 17.0686C112.463 17.5119 112.571 18.0454 112.571 18.6696C112.571 19.4148 112.436 20.102 112.164 20.7312C111.893 21.3606 111.496 21.9043 110.973 22.3624C110.451 22.8207 109.805 23.178 109.036 23.4348C108.267 23.6915 107.385 23.8199 106.391 23.8199C105.858 23.8199 105.337 23.7719 104.83 23.6764C104.322 23.5806 103.835 23.4474 103.368 23.2761C102.9 23.105 102.468 22.9038 102.071 22.672C101.674 22.4405 101.325 22.1887 101.023 21.9169L101.883 20.4971C101.993 20.3261 102.124 20.195 102.275 20.1044C102.426 20.0138 102.616 19.9685 102.848 19.9685C103.079 19.9685 103.297 20.0341 103.503 20.1648C103.709 20.2958 103.948 20.4366 104.219 20.5877C104.491 20.7387 104.81 20.8798 105.177 21.0107C105.544 21.1416 106.008 21.207 106.571 21.207C107.014 21.207 107.393 21.154 107.71 21.0484C108.026 20.9427 108.287 20.8043 108.494 20.6331C108.699 20.4619 108.85 20.263 108.946 20.0365C109.041 19.8099 109.089 19.5758 109.089 19.3341C109.089 18.9717 108.981 18.6748 108.765 18.4431C108.549 18.2115 108.262 18.0102 107.906 17.8388C107.549 17.6678 107.142 17.5142 106.684 17.3782C106.227 17.2423 105.76 17.0939 105.282 16.9327C104.805 16.7717 104.338 16.5829 103.88 16.3662C103.423 16.1498 103.016 15.8754 102.659 15.5431C102.302 15.2108 102.016 14.8031 101.8 14.3197C101.584 13.8365 101.476 13.2526 101.476 12.5678C101.476 11.9334 101.601 11.3293 101.853 10.7553C102.104 10.1814 102.473 9.68066 102.961 9.25243C103.448 8.82458 104.056 8.4823 104.785 8.22546C105.514 7.96862 106.355 7.84033 107.31 7.84033C108.375 7.84033 109.345 8.01659 110.22 8.36897C111.094 8.72148 111.823 9.18451 112.406 9.75842L111.561 11.1026Z" fill="#121212"/>
<path d="M100.963 7.84033H97.9785C97.7471 7.84033 97.5386 7.90608 97.3527 8.03667C97.1667 8.16765 97.0336 8.33392 96.9533 8.53512L93.8476 16.5551C93.737 16.8372 93.634 17.114 93.5386 17.3859C93.4431 17.6577 93.3551 17.9396 93.2748 18.2316C93.2145 17.9498 93.1441 17.6679 93.0637 17.3859C92.9832 17.104 92.8878 16.8322 92.7772 16.5702L89.4758 8.53512C89.3951 8.35388 89.2744 8.19297 89.1138 8.05189C88.953 7.91094 88.7219 7.84033 88.4205 7.84033H85.1641L91.4205 22.1887L88.6923 28.0395H91.8464C92.1411 28.0395 92.4181 27.8727 92.5339 27.6012L92.5361 27.5958L100.963 7.84033Z" fill="#121212"/>
<path d="M144.055 14.8796C144.055 22.1375 138.182 28.021 130.937 28.021C123.693 28.021 117.82 22.1375 117.82 14.8796C117.82 7.62193 123.693 1.73828 130.937 1.73828C138.182 1.73828 144.055 7.62193 144.055 14.8796Z" fill="#121212"/>
<path d="M143.306 14.8797C143.306 21.7227 137.769 27.2702 130.938 27.2702C124.107 27.2702 118.57 21.7227 118.57 14.8797C118.57 8.03669 124.107 2.48926 130.938 2.48926C137.769 2.48926 143.306 8.03669 143.306 14.8797Z" fill="#F4F5F6"/>
<path d="M143.112 14.8802C143.112 21.6178 137.66 27.0798 130.934 27.0798C124.21 27.0798 118.758 21.6178 118.758 14.8802C118.758 8.14257 124.21 2.68066 130.934 2.68066C137.66 2.68066 143.112 8.14257 143.112 14.8802Z" fill="#121212"/>
<path d="M130.935 9.61719C131.624 9.61719 132.184 10.1769 132.184 10.8675C132.184 11.5579 131.624 12.1178 130.935 12.1178C130.246 12.1178 129.688 11.5579 129.688 10.8675C129.688 10.1769 130.246 9.61719 130.935 9.61719Z" fill="#F4F5F6"/>
<path d="M130.937 7.4502C131.396 7.4502 131.769 7.8233 131.769 8.28364C131.769 8.74385 131.396 9.11708 130.937 9.11708C130.479 9.11708 130.105 8.74385 130.105 8.28364C130.105 7.8233 130.479 7.4502 130.937 7.4502Z" fill="#F4F5F6"/>
<path d="M130.937 5.80322C131.212 5.80322 131.436 6.02706 131.436 6.30321C131.436 6.57949 131.212 6.80333 130.937 6.80333C130.661 6.80333 130.438 6.57949 130.438 6.30321C130.438 6.02706 130.661 5.80322 130.937 5.80322Z" fill="#F4F5F6"/>
<path d="M130.935 4.3667C131.119 4.3667 131.267 4.51595 131.267 4.70006C131.267 4.88413 131.119 5.0334 130.935 5.0334C130.751 5.0334 130.602 4.88413 130.602 4.70006C130.602 4.51595 130.751 4.3667 130.935 4.3667Z" fill="#F4F5F6"/>
<path d="M127.225 11.1586C127.712 10.6704 128.502 10.6705 128.99 11.1587C129.477 11.6471 129.477 12.4387 128.99 12.9268C128.503 13.415 127.712 13.415 127.225 12.9268C126.738 12.4384 126.737 11.6468 127.225 11.1586Z" fill="#F4F5F6"/>
<path d="M125.689 9.62637C126.014 9.30098 126.541 9.30098 126.866 9.62637C127.19 9.95189 127.19 10.4796 126.866 10.805C126.541 11.1306 126.014 11.1306 125.689 10.805C125.364 10.4796 125.364 9.95189 125.689 9.62637Z" fill="#F4F5F6"/>
<path d="M124.529 8.46143C124.724 8.26611 125.04 8.26611 125.235 8.46143C125.43 8.65661 125.43 8.97331 125.235 9.16862C125.04 9.36381 124.724 9.36381 124.529 9.16862C124.334 8.97331 124.334 8.65661 124.529 8.46143Z" fill="#F4F5F6"/>
<path d="M123.515 7.4458C123.645 7.31559 123.856 7.31559 123.986 7.4458C124.116 7.57601 124.116 7.78706 123.986 7.91727C123.856 8.04748 123.645 8.04748 123.515 7.91727C123.385 7.78706 123.385 7.57601 123.515 7.4458Z" fill="#F4F5F6"/>
<path d="M125.684 14.88C125.684 14.1896 126.242 13.6299 126.932 13.6299C127.621 13.6299 128.18 14.1896 128.18 14.88C128.18 15.5705 127.621 16.1302 126.932 16.1302C126.242 16.1302 125.684 15.5705 125.684 14.88Z" fill="#F4F5F6"/>
<path d="M123.523 14.8798C123.523 14.4195 123.896 14.0464 124.355 14.0464C124.815 14.0464 125.187 14.4195 125.187 14.8798C125.187 15.34 124.815 15.7133 124.355 15.7133C123.896 15.7133 123.523 15.34 123.523 14.8798Z" fill="#F4F5F6"/>
<path d="M121.875 14.8794C121.875 14.6032 122.098 14.3794 122.374 14.3794C122.65 14.3794 122.873 14.6032 122.873 14.8794C122.873 15.1557 122.65 15.3795 122.374 15.3795C122.098 15.3795 121.875 15.1557 121.875 14.8794Z" fill="#F4F5F6"/>
<path d="M120.441 14.8802C120.441 14.6961 120.59 14.5469 120.774 14.5469C120.958 14.5469 121.107 14.6961 121.107 14.8802C121.107 15.0644 120.958 15.2137 120.774 15.2137C120.59 15.2137 120.441 15.0644 120.441 14.8802Z" fill="#F4F5F6"/>
<path d="M127.225 18.6011C126.737 18.1129 126.738 17.3214 127.225 16.833C127.712 16.3448 128.503 16.3447 128.99 16.8329C129.477 17.3211 129.477 18.1127 128.99 18.601C128.502 19.0893 127.712 19.0893 127.225 18.6011Z" fill="#F4F5F6"/>
<path d="M125.689 20.1333C125.364 19.8077 125.364 19.28 125.689 18.9546C126.014 18.6291 126.541 18.6291 126.866 18.9546C127.19 19.28 127.19 19.8077 126.866 20.1333C126.541 20.4587 126.014 20.4587 125.689 20.1333Z" fill="#F4F5F6"/>
<path d="M124.529 21.2979C124.334 21.1027 124.334 20.786 124.529 20.5907C124.724 20.3955 125.04 20.3955 125.235 20.5907C125.43 20.786 125.43 21.1027 125.235 21.2979C125.04 21.4932 124.724 21.4932 124.529 21.2979Z" fill="#F4F5F6"/>
<path d="M123.515 22.3142C123.385 22.184 123.385 21.973 123.515 21.8428C123.645 21.7126 123.856 21.7126 123.986 21.8428C124.116 21.973 124.116 22.184 123.986 22.3142C123.856 22.4444 123.645 22.4444 123.515 22.3142Z" fill="#F4F5F6"/>
<path d="M130.935 20.1427C130.246 20.1427 129.688 19.5829 129.688 18.8924C129.688 18.2018 130.246 17.6421 130.935 17.6421C131.624 17.6421 132.184 18.2018 132.184 18.8924C132.184 19.5829 131.624 20.1427 130.935 20.1427Z" fill="#F4F5F6"/>
<path d="M130.937 22.3099C130.479 22.3099 130.105 21.9368 130.105 21.4765C130.105 21.0162 130.479 20.6431 130.937 20.6431C131.396 20.6431 131.769 21.0162 131.769 21.4765C131.769 21.9368 131.396 22.3099 130.937 22.3099Z" fill="#F4F5F6"/>
<path d="M130.937 23.9566C130.661 23.9566 130.438 23.7328 130.438 23.4567C130.438 23.1805 130.661 22.9565 130.937 22.9565C131.212 22.9565 131.436 23.1805 131.436 23.4567C131.436 23.7328 131.212 23.9566 130.937 23.9566Z" fill="#F4F5F6"/>
<path d="M130.935 25.3933C130.751 25.3933 130.602 25.2441 130.602 25.0599C130.602 24.8758 130.751 24.7266 130.935 24.7266C131.119 24.7266 131.267 24.8758 131.267 25.0599C131.267 25.2441 131.119 25.3933 130.935 25.3933Z" fill="#F4F5F6"/>
<path d="M134.654 18.6011C134.166 19.0893 133.376 19.0893 132.889 18.601C132.402 18.1127 132.402 17.3211 132.888 16.8329C133.376 16.3447 134.166 16.3448 134.654 16.833C135.14 17.3214 135.141 18.1129 134.654 18.6011Z" fill="#F4F5F6"/>
<path d="M136.182 20.1333C135.856 20.4587 135.33 20.4587 135.005 20.1333C134.681 19.8077 134.681 19.28 135.005 18.9546C135.33 18.6291 135.856 18.6291 136.182 18.9546C136.506 19.28 136.506 19.8077 136.182 20.1333Z" fill="#F4F5F6"/>
<path d="M137.344 21.2979C137.15 21.4932 136.833 21.4932 136.638 21.2979C136.444 21.1027 136.444 20.786 136.638 20.5907C136.833 20.3955 137.15 20.3955 137.344 20.5907C137.539 20.786 137.539 21.1027 137.344 21.2979Z" fill="#F4F5F6"/>
<path d="M138.357 22.3142C138.227 22.4444 138.016 22.4444 137.886 22.3142C137.757 22.184 137.757 21.973 137.886 21.8428C138.016 21.7126 138.227 21.7126 138.357 21.8428C138.487 21.973 138.487 22.184 138.357 22.3142Z" fill="#F4F5F6"/>
<path d="M136.191 14.88C136.191 15.5705 135.632 16.1302 134.943 16.1302C134.253 16.1302 133.695 15.5705 133.695 14.88C133.695 14.1896 134.253 13.6299 134.943 13.6299C135.632 13.6299 136.191 14.1896 136.191 14.88Z" fill="#F4F5F6"/>
<path d="M138.352 14.8798C138.352 15.34 137.98 15.7133 137.52 15.7133C137.06 15.7133 136.688 15.34 136.688 14.8798C136.688 14.4195 137.06 14.0464 137.52 14.0464C137.98 14.0464 138.352 14.4195 138.352 14.8798Z" fill="#F4F5F6"/>
<path d="M139.998 14.8794C139.998 15.1557 139.775 15.3795 139.499 15.3795C139.223 15.3795 139 15.1557 139 14.8794C139 14.6032 139.223 14.3794 139.499 14.3794C139.775 14.3794 139.998 14.6032 139.998 14.8794Z" fill="#F4F5F6"/>
<path d="M141.432 14.8802C141.432 15.0644 141.283 15.2137 141.099 15.2137C140.915 15.2137 140.766 15.0644 140.766 14.8802C140.766 14.6961 140.915 14.5469 141.099 14.5469C141.283 14.5469 141.432 14.6961 141.432 14.8802Z" fill="#F4F5F6"/>
<path d="M134.654 11.1586C135.141 11.6468 135.14 12.4384 134.654 12.9268C134.166 13.415 133.376 13.415 132.888 12.9268C132.402 12.4387 132.402 11.6471 132.889 11.1587C133.376 10.6705 134.166 10.6704 134.654 11.1586Z" fill="#F4F5F6"/>
<path d="M136.182 9.62637C136.506 9.95189 136.506 10.4796 136.182 10.805C135.856 11.1306 135.33 11.1306 135.005 10.805C134.681 10.4796 134.681 9.95189 135.005 9.62637C135.33 9.30098 135.856 9.30098 136.182 9.62637Z" fill="#F4F5F6"/>
<path d="M137.344 8.46143C137.539 8.65661 137.539 8.97331 137.344 9.16862C137.15 9.36381 136.833 9.36381 136.638 9.16862C136.444 8.97331 136.444 8.65661 136.638 8.46143C136.833 8.26611 137.15 8.26611 137.344 8.46143Z" fill="#F4F5F6"/>
<path d="M138.357 7.4458C138.487 7.57601 138.487 7.78706 138.357 7.91727C138.227 8.04748 138.016 8.04748 137.886 7.91727C137.757 7.78706 137.757 7.57601 137.886 7.4458C138.016 7.31559 138.227 7.31559 138.357 7.4458Z" fill="#F4F5F6"/>
<path d="M132.717 14.8797C132.717 15.866 131.919 16.6657 130.935 16.6657C129.95 16.6657 129.152 15.866 129.152 14.8797C129.152 13.8934 129.95 13.0938 130.935 13.0938C131.919 13.0938 132.717 13.8934 132.717 14.8797Z" fill="#F4F5F6"/>
</svg>
