<svg width="18" height="19" viewBox="0 0 18 19" fill="none" xmlns="http://www.w3.org/2000/svg">
<path fill-rule="evenodd" clip-rule="evenodd" d="M9.30017 0.858398C6.95367 0.858398 6.65918 0.868659 5.73758 0.910599C4.81777 0.952719 4.18992 1.09834 3.64055 1.312C3.07229 1.53269 2.59024 1.82789 2.11 2.30831C1.62939 2.78856 1.33419 3.2706 1.11279 3.83869C0.898585 4.38824 0.752784 5.01626 0.711383 5.93571C0.670163 6.85732 0.659363 7.15198 0.659363 9.49849C0.659363 11.845 0.669803 12.1386 0.711563 13.0602C0.753864 13.98 0.899485 14.6078 1.11297 15.1572C1.33383 15.7255 1.62903 16.2075 2.10946 16.6878C2.58952 17.1684 3.07157 17.4643 3.63947 17.685C4.1892 17.8986 4.81723 18.0443 5.73686 18.0864C6.65846 18.1283 6.95277 18.1386 9.29909 18.1386C11.6458 18.1386 11.9394 18.1283 12.861 18.0864C13.7808 18.0443 14.4093 17.8986 14.9591 17.685C15.5272 17.4643 16.0085 17.1684 16.4885 16.6878C16.9692 16.2075 17.2644 15.7255 17.4858 15.1574C17.6982 14.6078 17.844 13.9798 17.8872 13.0604C17.9286 12.1388 17.9394 11.845 17.9394 9.49849C17.9394 7.15198 17.9286 6.8575 17.8872 5.93589C17.844 5.01608 17.6982 4.38824 17.4858 3.83887C17.2644 3.2706 16.9692 2.78856 16.4885 2.30831C16.0079 1.82771 15.5273 1.53251 14.9585 1.312C14.4077 1.09834 13.7795 0.952719 12.8597 0.910599C11.9381 0.868659 11.6447 0.858398 9.29747 0.858398H9.30017ZM8.52505 2.41539C8.75509 2.41503 9.01177 2.41539 9.30013 2.41539C11.607 2.41539 11.8805 2.42367 12.7915 2.46507C13.6339 2.50359 14.0911 2.64435 14.3956 2.76261C14.7988 2.91922 15.0863 3.10642 15.3885 3.40882C15.6909 3.71122 15.8781 3.99923 16.0351 4.40243C16.1533 4.70663 16.2943 5.16384 16.3326 6.00625C16.374 6.91706 16.383 7.19066 16.383 9.49649C16.383 11.8023 16.374 12.0759 16.3326 12.9867C16.2941 13.8291 16.1533 14.2863 16.0351 14.5905C15.8785 14.9937 15.6909 15.2808 15.3885 15.5831C15.0861 15.8855 14.799 16.0727 14.3956 16.2293C14.0914 16.3481 13.6339 16.4885 12.7915 16.527C11.8806 16.5684 11.607 16.5774 9.30013 16.5774C6.99305 16.5774 6.71963 16.5684 5.80882 16.527C4.96641 16.4881 4.50921 16.3474 4.20446 16.2291C3.80126 16.0725 3.51326 15.8853 3.21085 15.5829C2.90845 15.2805 2.72125 14.9932 2.56429 14.5898C2.44602 14.2856 2.30508 13.8284 2.26674 12.986C2.22534 12.0752 2.21706 11.8016 2.21706 9.49432C2.21706 7.18706 2.22534 6.9149 2.26674 6.00409C2.30526 5.16168 2.44602 4.70447 2.56429 4.39991C2.72089 3.99671 2.90845 3.7087 3.21085 3.4063C3.51326 3.1039 3.80126 2.9167 4.20446 2.75973C4.50903 2.64093 4.96641 2.50053 5.80882 2.46183C6.60587 2.42583 6.91475 2.41503 8.52505 2.41323V2.41539ZM13.9121 3.85001C13.3397 3.85001 12.8753 4.31387 12.8753 4.88646C12.8753 5.45887 13.3397 5.92327 13.9121 5.92327C14.4846 5.92327 14.949 5.45887 14.949 4.88646C14.949 4.31405 14.4846 3.85001 13.9121 3.85001ZM9.30019 5.06142C6.84982 5.06142 4.86314 7.0481 4.86314 9.49846C4.86314 11.9488 6.84982 13.9346 9.30019 13.9346C11.7506 13.9346 13.7365 11.9488 13.7365 9.49846C13.7365 7.0481 11.7506 5.06142 9.30019 5.06142ZM9.30015 6.61843C10.8906 6.61843 12.1802 7.90779 12.1802 9.49846C12.1802 11.089 10.8906 12.3785 9.30015 12.3785C7.70948 12.3785 6.42012 11.089 6.42012 9.49846C6.42012 7.90779 7.70948 6.61843 9.30015 6.61843Z" fill="black"/>
</svg>
