<svg width="119" height="119" viewBox="0 0 119 119" fill="none" xmlns="http://www.w3.org/2000/svg">
<circle cx="59.1992" cy="59.1992" r="59.1992" fill="#FFEE4F"/>
<path d="M18.171 55.955C18.1455 56.2051 18.0611 56.4277 17.9177 56.6226C17.7743 56.8176 17.5927 56.9656 17.3727 57.0667C17.1528 57.1677 16.9178 57.2054 16.6677 57.1799C16.4148 57.1541 16.1923 57.0697 16.0001 56.9266C15.8051 56.7832 15.6571 56.6015 15.5561 56.3816C15.4551 56.1617 15.4173 55.9267 15.4428 55.6766C15.4687 55.4237 15.5531 55.2011 15.6962 55.009C15.8396 54.814 16.0212 54.666 16.2411 54.565C16.4582 54.4637 16.6932 54.4259 16.9462 54.4517C17.1962 54.4772 17.4188 54.5617 17.6138 54.7051C17.8087 54.8484 17.9568 55.0301 18.0578 55.25C18.1591 55.4671 18.1968 55.7021 18.171 55.955Z" fill="#121212"/>
<path d="M23.2096 77.4952L17.2168 79.6973L16.8843 78.7924L19.748 77.7401L19.7213 77.6677L15.9325 76.2022L15.5172 75.072L19.0987 76.495L21.5056 72.8579L21.9061 73.9478L19.9438 76.8692L21.0189 77.2731L22.8771 76.5903L23.2096 77.4952Z" fill="#121212"/>
<path d="M29.0881 86.0818L23.9343 89.8503L23.3653 89.072L27.8515 85.7917L26.1443 83.4569L26.8119 82.9688L29.0881 86.0818Z" fill="#121212"/>
<path d="M38.316 93.8778L39.1302 94.4989L33.4318 98.182L32.546 97.5063L34.5958 91.0398L35.4066 91.6583L33.6762 96.9079L33.7171 96.9391L38.316 93.8778ZM36.6646 95.76L34.0311 93.751L34.5197 93.1105L37.1532 95.1195L36.6646 95.76Z" fill="#121212"/>
<path d="M48.3379 104.01L48.06 104.789L43.4027 103.127L43.6806 102.348L45.5532 103.016L47.4208 97.782L48.3249 98.1045L46.4572 103.339L48.3379 104.01Z" fill="#121212"/>
<path d="M63.851 99.2215C64.3272 99.1925 64.7452 99.2415 65.1049 99.3685C65.462 99.4984 65.7474 99.6971 65.9611 99.9646C66.1749 100.232 66.3048 100.558 66.3511 100.941L65.3845 101C65.3504 100.77 65.2646 100.582 65.1269 100.436C64.9866 100.293 64.8101 100.191 64.5974 100.129C64.3847 100.068 64.1544 100.044 63.9063 100.06C63.6354 100.076 63.3957 100.134 63.187 100.232C62.9784 100.331 62.8189 100.461 62.7085 100.622C62.5954 100.786 62.5452 100.972 62.5579 101.18C62.5693 101.369 62.6329 101.519 62.7485 101.632C62.8613 101.746 63.0113 101.835 63.1984 101.901C63.3858 101.97 63.5953 102.027 63.8271 102.073L64.588 102.233C65.1096 102.339 65.5269 102.518 65.8399 102.771C66.1531 103.027 66.3232 103.375 66.35 103.817C66.3724 104.185 66.2936 104.512 66.1135 104.798C65.9305 105.084 65.674 105.312 65.3439 105.484C65.0111 105.659 64.6323 105.759 64.2074 105.785C63.774 105.811 63.3887 105.758 63.0514 105.624C62.7114 105.493 62.4379 105.3 62.2307 105.047C62.0209 104.796 61.9013 104.502 61.8721 104.163L62.8045 104.106C62.8566 104.398 63.0074 104.617 63.2568 104.765C63.5033 104.914 63.8105 104.976 64.1783 104.954C64.4349 104.938 64.6577 104.883 64.8465 104.789C65.0327 104.697 65.1742 104.577 65.2711 104.428C65.365 104.279 65.4064 104.112 65.3951 103.927C65.383 103.727 65.3118 103.569 65.1815 103.451C65.0484 103.333 64.8912 103.242 64.71 103.179C64.526 103.118 64.3499 103.07 64.1818 103.035L63.5514 102.906C63.3459 102.867 63.1336 102.811 62.9145 102.739C62.6955 102.666 62.4904 102.565 62.2995 102.437C62.1058 102.311 61.9471 102.149 61.8234 101.951C61.697 101.755 61.6251 101.513 61.6076 101.225C61.5859 100.869 61.6591 100.544 61.8273 100.25C61.9956 99.9597 62.2502 99.7224 62.5911 99.5386C62.9321 99.3575 63.3521 99.2519 63.851 99.2215Z" fill="#121212"/>
<path d="M73.8293 100.985L74.1785 103.487L73.2173 103.772L73.1843 101.176L73.8293 100.985Z" fill="#121212"/>
<path d="M85.913 96.7831L86.3225 97.5016L82.0264 99.9501L81.6169 99.2316L83.3443 98.2471L80.5924 93.4187L81.4263 92.9434L84.1782 97.7718L85.913 96.7831Z" fill="#121212"/>
<path d="M90.8427 84.4203L95.437 88.8537L92.655 91.7367L92.0599 91.1624L94.1725 88.9732L92.788 87.6372L90.8242 89.6723L90.2322 89.101L92.196 87.066L90.7683 85.6883L88.635 87.8992L88.0399 87.3249L90.8427 84.4203Z" fill="#121212"/>
<path d="M96.1185 75.5852L101.71 78.6662L101.245 79.5107L96.3776 76.8287L94.9819 79.362L94.2575 78.9629L96.1185 75.5852Z" fill="#121212"/>
<path d="M100.423 61.8705C100.441 61.6198 100.52 61.3951 100.658 61.1963C100.796 60.9975 100.973 60.8445 101.19 60.7376C101.407 60.6306 101.641 60.5864 101.892 60.6051C102.145 60.624 102.37 60.7024 102.566 60.8402C102.765 60.9782 102.918 61.1557 103.025 61.3728C103.132 61.5899 103.176 61.8238 103.157 62.0745C103.138 62.328 103.06 62.5528 102.922 62.7488C102.784 62.9476 102.607 63.1005 102.39 63.2075C102.175 63.3147 101.942 63.3588 101.688 63.3399C101.437 63.3212 101.213 63.2428 101.014 63.1048C100.815 62.9668 100.662 62.7893 100.555 62.5722C100.448 62.358 100.404 62.1241 100.423 61.8705Z" fill="#121212"/>
<path d="M94.8089 40.476L100.739 38.1113L101.096 39.0069L98.2625 40.1368L98.2911 40.2085L102.118 41.5701L102.564 42.6886L98.9455 41.3637L96.6387 45.0651L96.2086 43.9865L98.0905 41.0127L97.0048 40.6383L95.1659 41.3715L94.8089 40.476Z" fill="#121212"/>
<path d="M88.6848 32.0531L93.734 28.1456L94.324 28.908L89.9289 32.3094L91.6991 34.5967L91.0451 35.1029L88.6848 32.0531Z" fill="#121212"/>
<path d="M79.2593 24.5113L78.4285 23.9126L84.0244 20.0755L84.9283 20.7268L83.0555 27.2469L82.2282 26.6506L83.8149 21.3558L83.7731 21.3257L79.2593 24.5113ZM80.8589 22.5848L83.5461 24.5212L83.0751 25.1748L80.3879 23.2383L80.8589 22.5848Z" fill="#121212"/>
<path d="M68.9533 14.6565L69.2099 13.8703L73.9107 15.4044L73.6542 16.1906L71.7641 15.5738L70.0398 20.8571L69.1274 20.5593L70.8516 15.276L68.9533 14.6565Z" fill="#121212"/>
<path d="M53.5816 19.8662C53.1064 19.9081 52.6873 19.8705 52.3242 19.7535C51.9637 19.6333 51.673 19.4424 51.4521 19.1809C51.2311 18.9193 51.0923 18.5975 51.0356 18.2154L52.0003 18.1302C52.0406 18.359 52.1315 18.5445 52.2731 18.6869C52.4173 18.8261 52.5965 18.9236 52.8108 18.9792C53.025 19.0349 53.256 19.0518 53.5035 19.0299C53.7738 19.0061 54.012 18.9421 54.2178 18.8379C54.4237 18.7337 54.5796 18.5995 54.6856 18.4352C54.7941 18.2679 54.8392 18.0804 54.8209 17.8727C54.8043 17.6849 54.7367 17.536 54.618 17.426C54.5022 17.3158 54.3498 17.2303 54.1609 17.1696C53.9718 17.106 53.7608 17.0543 53.5278 17.0147L52.7628 16.8757C52.2385 16.7843 51.8165 16.6165 51.4967 16.3723C51.1767 16.1252 50.9972 15.7812 50.9583 15.3401C50.9259 14.973 50.9958 14.6443 51.168 14.3538C51.3431 14.063 51.5933 13.8273 51.9186 13.6466C52.2465 13.4628 52.6225 13.3522 53.0465 13.3148C53.479 13.2766 53.8656 13.3199 54.2065 13.4447C54.5498 13.5664 54.8285 13.7511 55.0426 13.9989C55.2592 14.2436 55.3867 14.5349 55.4251 14.8728L54.4946 14.9549C54.4346 14.6648 54.2779 14.4492 54.0246 14.3081C53.7741 14.1668 53.4653 14.1123 53.0982 14.1447C52.8421 14.1673 52.6209 14.2284 52.4347 14.328C52.2511 14.4245 52.1129 14.5485 52.0202 14.7001C51.9303 14.8514 51.8935 15.0196 51.9099 15.2045C51.9274 15.4037 52.0029 15.5605 52.1363 15.6749C52.2726 15.7891 52.4322 15.8754 52.6151 15.9338C52.8007 15.9891 52.978 16.0322 53.1471 16.0632L53.7807 16.175C53.9872 16.2084 54.201 16.2584 54.4219 16.3249C54.6429 16.3915 54.8506 16.4864 55.045 16.6098C55.242 16.73 55.405 16.8877 55.5341 17.0828C55.6657 17.2748 55.7443 17.5145 55.7696 17.8019C55.801 18.1576 55.7367 18.4844 55.5766 18.7825C55.4162 19.0777 55.1682 19.3218 54.8325 19.5149C54.4965 19.7051 54.0796 19.8222 53.5816 19.8662Z" fill="#121212"/>
<path d="M43.558 18.3728L43.1407 15.8811L44.0938 15.5697L44.1975 18.1639L43.558 18.3728Z" fill="#121212"/>
<path d="M31.5915 22.904L31.1625 22.1969L35.3902 19.6322L35.8192 20.3392L34.1193 21.3705L37.0018 26.122L36.1812 26.6199L33.2987 21.8683L31.5915 22.904Z" fill="#121212"/>
<path d="M26.9969 35.3951L22.2835 31.0887L24.9858 28.1309L25.5964 28.6887L23.5443 30.9347L24.9647 32.2324L26.8722 30.1446L27.4796 30.6995L25.572 32.7874L27.0367 34.1255L29.109 31.8574L29.7195 32.4152L26.9969 35.3951Z" fill="#121212"/>
<path d="M21.9723 44.3709L16.2985 41.4434L16.7405 40.5867L21.6795 43.1349L23.0056 40.5645L23.7406 40.9437L21.9723 44.3709Z" fill="#121212"/>
</svg>
