<svg width="15" height="16" viewBox="0 0 15 16" fill="none" xmlns="http://www.w3.org/2000/svg">
<path fill-rule="evenodd" clip-rule="evenodd" d="M5.41896 5.88924H8.06518V7.20737C8.44637 6.44927 9.42392 5.76812 10.8924 5.76812C13.7075 5.76812 14.3758 7.27719 14.3758 10.046V15.1738H11.5258V10.6765C11.5258 9.09976 11.1446 8.21057 10.1742 8.21057C8.82827 8.21057 8.26896 9.16888 8.26896 10.6758V15.1738H5.41896V5.88924ZM0.531918 15.0527H3.38192V5.76812H0.531918V15.0527ZM3.79018 2.7407C3.79029 2.97959 3.74291 3.21611 3.65081 3.43652C3.5587 3.65693 3.42371 3.85684 3.25367 4.02463C2.9091 4.36707 2.44271 4.55876 1.95692 4.55758C1.47198 4.55725 1.00666 4.36606 0.661593 4.02534C0.492169 3.85699 0.357631 3.65685 0.265688 3.43641C0.173746 3.21597 0.126206 2.97955 0.125793 2.7407C0.125793 2.25834 0.318168 1.79664 0.662306 1.45607C1.00707 1.11489 1.47259 0.923615 1.95763 0.923828C2.44356 0.923828 2.90953 1.11549 3.25367 1.45607C3.59709 1.79664 3.79018 2.25834 3.79018 2.7407Z" fill="black"/>
</svg>
