<svg width="158" height="31" viewBox="0 0 158 31" fill="none" xmlns="http://www.w3.org/2000/svg">
<path d="M56.5553 22.8844L55.2695 14.6903L51.4678 22.8844H50.7971L46.9954 14.6903L45.7096 22.8844H42.9141L44.9245 10.291H47.7201L51.1864 17.9902L54.6527 10.291H57.4482L59.4047 22.8844H56.5553Z" fill="black"/>
<path fill-rule="evenodd" clip-rule="evenodd" d="M69.1341 22.8299H71.2013V13.1511H69.2456L68.9659 14.0861C68.0837 13.2879 66.9225 12.8546 65.7236 12.8763C64.3434 12.8763 63.0197 13.4151 62.0438 14.3743C61.0678 15.3335 60.5195 16.6345 60.5195 17.991C60.5195 19.3475 61.0678 20.6484 62.0438 21.6076C63.0197 22.5668 64.3434 23.1057 65.7236 23.1057C66.8927 23.1105 68.0242 22.7003 68.9102 21.9506L69.1341 22.8299ZM65.9474 15.3508C66.4788 15.3502 66.9984 15.5046 67.4404 15.7943C67.8824 16.0841 68.2271 16.4961 68.4308 16.9785C68.6345 17.4608 68.6881 17.9916 68.5847 18.5039C68.4814 19.0161 68.2259 19.4867 67.8504 19.8562C67.4749 20.2256 66.9962 20.4773 66.4752 20.5793C65.9541 20.6814 65.4139 20.6293 64.923 20.4296C64.432 20.2299 64.0124 19.8915 63.7172 19.4574C63.4219 19.0232 63.2644 18.5127 63.2644 17.9905C63.2548 17.6415 63.3176 17.2943 63.449 16.97C63.5805 16.6456 63.7778 16.351 64.0288 16.104C64.2798 15.857 64.5794 15.6629 64.9093 15.5334C65.2391 15.4039 65.5924 15.3417 65.9474 15.3508Z" fill="black"/>
<path d="M79.8648 22.8853L76.7339 18.266V22.8853H74.0508V9.68652H76.7339V17.4953L79.6966 13.2056H82.7718L79.4179 17.825L83.1081 22.8844L79.8648 22.8853Z" fill="black"/>
<path fill-rule="evenodd" clip-rule="evenodd" d="M93.3924 18.7599C93.4387 18.506 93.4574 18.248 93.4482 17.9902C93.4202 17.003 93.0971 16.0456 92.5191 15.2377C91.9412 14.4297 91.134 13.8069 90.1983 13.4468C89.2626 13.0867 88.2397 13.0054 87.2573 13.2129C86.2748 13.4204 85.3762 13.9076 84.6736 14.6137C83.971 15.3198 83.4955 16.2136 83.3063 17.1836C83.1172 18.1535 83.2227 19.1568 83.6099 20.0682C83.997 20.9796 84.6487 21.7588 85.4834 22.3087C86.3182 22.8585 87.2992 23.1546 88.304 23.1601C89.3923 23.1718 90.4559 22.8422 91.3405 22.2192C92.2252 21.5963 92.8847 20.7123 93.2234 19.6959H90.4278C90.2152 20.0447 89.911 20.3309 89.5472 20.5245C89.1833 20.7181 88.7732 20.8119 88.3598 20.7961C87.769 20.8288 87.1883 20.635 86.74 20.2554C86.2917 19.8757 86.0107 19.34 85.9563 18.7609L93.3924 18.7599ZM90.7641 17.0004H86.012C86.0951 16.4715 86.3762 15.9921 86.8002 15.6563C87.2242 15.3205 87.7605 15.1525 88.304 15.1852C88.866 15.1561 89.4204 15.3222 89.8703 15.6544C90.3202 15.9866 90.637 16.4637 90.7651 17.0022L90.7641 17.0004Z" fill="black"/>
<path d="M94.7931 18.815H97.5886C97.5942 19.0754 97.6552 19.3318 97.7677 19.5676C97.8802 19.8035 98.0417 20.0136 98.2417 20.1844C98.4417 20.3553 98.6758 20.4832 98.9291 20.5598C99.1824 20.6364 99.4492 20.6601 99.7124 20.6293C100.775 20.6293 101.781 20.0796 101.781 19.1446C101.781 18.1566 100.606 17.88 99.2089 17.6052C97.3081 17.1651 94.9594 16.6172 94.9594 13.8651C94.9594 11.4454 96.7488 10.0703 99.6 10.0703C102.563 10.0703 104.184 11.6098 104.184 14.14H101.442C101.442 13.0397 100.548 12.5448 99.4858 12.5448C98.5911 12.5448 97.6973 12.9301 97.6973 13.7547C97.6973 14.6349 98.8159 14.9097 100.157 15.2393C102.114 15.7342 104.574 16.3396 104.574 19.1437C104.574 21.8383 102.395 23.1586 99.7106 23.1586C96.8054 23.1056 94.7931 21.5105 94.7931 18.815Z" fill="black"/>
<path d="M112.515 20.5204V22.8306H110.615C110.142 22.8695 109.667 22.8065 109.221 22.6461C108.776 22.4857 108.371 22.2318 108.036 21.9019C107.701 21.5721 107.443 21.1744 107.28 20.7364C107.117 20.2985 107.053 19.8309 107.093 19.3663V15.2409H105.305V14.6912L109.218 10.6216H109.72V13.1518H112.462V15.2418H109.778V19.0366C109.758 19.2364 109.784 19.438 109.852 19.6269C109.921 19.8158 110.032 19.9874 110.176 20.1294C110.32 20.2713 110.495 20.3801 110.687 20.4479C110.879 20.5156 111.085 20.5407 111.288 20.5213L112.515 20.5204Z" fill="black"/>
<path fill-rule="evenodd" clip-rule="evenodd" d="M118.947 12.9309C117.921 12.9507 116.923 13.2678 116.08 13.8425C115.237 14.4172 114.586 15.2239 114.207 16.1613C113.829 17.0986 113.74 18.125 113.953 19.1115C114.166 20.0981 114.671 21.0008 115.403 21.7066C116.136 22.4123 117.065 22.8896 118.073 23.0785C119.081 23.2674 120.123 23.1596 121.069 22.7685C122.015 22.3774 122.822 21.7205 123.389 20.8802C123.957 20.0399 124.259 19.0536 124.258 18.0451C124.27 17.3612 124.14 16.682 123.876 16.0491C123.612 15.4162 123.22 14.8429 122.722 14.3642C122.225 13.8855 121.634 13.5115 120.985 13.265C120.336 13.0186 119.642 12.9049 118.947 12.9309ZM118.947 15.4054C119.3 15.3928 119.652 15.4529 119.981 15.5819C120.309 15.7108 120.607 15.9058 120.854 16.1543C121.102 16.4028 121.294 16.6993 121.418 17.0249C121.542 17.3505 121.595 17.698 121.575 18.0451C121.591 18.3911 121.534 18.7366 121.408 19.0601C121.282 19.3836 121.09 19.6783 120.844 19.9258C120.597 20.1733 120.302 20.3684 119.975 20.499C119.649 20.6296 119.299 20.6929 118.947 20.6849C118.593 20.6973 118.241 20.6371 117.912 20.5081C117.584 20.3791 117.287 20.1841 117.039 19.9356C116.792 19.6871 116.6 19.3906 116.476 19.0651C116.352 18.7395 116.299 18.3921 116.319 18.0451C116.303 17.6993 116.36 17.354 116.486 17.0306C116.611 16.7072 116.803 16.4126 117.05 16.1651C117.296 15.9176 117.591 15.7225 117.917 15.5918C118.243 15.4611 118.594 15.3976 118.947 15.4054Z" fill="black"/>
<path d="M132.083 13.1509V15.6254H130.908C129.399 15.6254 128.784 16.2855 128.784 17.8798V22.9393H126.211V13.2605H127.947L128.394 14.4703C128.727 14.0449 129.161 13.7069 129.658 13.4863C130.156 13.2657 130.701 13.1693 131.245 13.2057H132.084L132.083 13.1509Z" fill="black"/>
<path fill-rule="evenodd" clip-rule="evenodd" d="M135.043 8.0918H134.819C134.419 8.0918 134.034 8.24822 133.751 8.52665C133.468 8.80509 133.309 9.18273 133.309 9.57649C133.309 9.97026 133.468 10.3479 133.751 10.6263C134.034 10.9048 134.419 11.0612 134.819 11.0612H135.043C135.444 11.0612 135.828 10.9048 136.111 10.6263C136.395 10.3479 136.554 9.97026 136.554 9.57649C136.554 9.18273 136.395 8.80509 136.111 8.52665C135.828 8.24822 135.444 8.0918 135.043 8.0918ZM136.272 13.206H133.588V22.8849H136.272V13.206Z" fill="black"/>
<path fill-rule="evenodd" clip-rule="evenodd" d="M148.353 18.76C148.4 18.5061 148.418 18.248 148.409 17.9902C148.381 17.0029 148.058 16.0456 147.48 15.2376C146.902 14.4296 146.095 13.8068 145.159 13.4467C144.223 13.0867 143.2 13.0053 142.218 13.2129C141.235 13.4205 140.337 13.9078 139.634 14.614C138.932 15.3202 138.456 16.2141 138.267 17.1841C138.078 18.1542 138.184 19.1574 138.571 20.0688C138.958 20.9802 139.61 21.7594 140.445 22.3091C141.28 22.8588 142.261 23.1548 143.266 23.1602C144.354 23.1718 145.418 22.8422 146.302 22.2193C147.187 21.5963 147.847 20.7124 148.185 19.6959H145.39C145.177 20.0447 144.872 20.3309 144.508 20.5245C144.144 20.718 143.734 20.8119 143.321 20.7961C142.73 20.8291 142.149 20.6353 141.7 20.2557C141.252 19.876 140.971 19.3401 140.916 18.7609L148.353 18.76ZM145.726 17.0004H140.974C141.065 16.475 141.348 16.0005 141.771 15.6661C142.193 15.3318 142.725 15.1608 143.267 15.1852C143.828 15.1566 144.382 15.3229 144.832 15.655C145.282 15.9871 145.598 16.464 145.726 17.0022V17.0004Z" fill="black"/>
<path d="M153.829 23.1598C151.368 23.1598 149.691 21.7847 149.691 19.6955H152.32C152.32 20.5757 152.99 21.0149 153.941 21.0149C154.667 21.0149 155.338 20.6853 155.338 20.0269C155.338 19.3686 154.499 19.1467 153.437 18.9824C151.872 18.7075 149.86 18.3222 149.86 16.013C149.86 14.1977 151.424 12.9331 153.829 12.9331C156.233 12.9331 157.798 14.2525 157.798 16.1773H155.282C155.282 15.4076 154.723 15.0223 153.773 15.0223C152.935 15.0223 152.431 15.4076 152.431 15.9573C152.431 16.6175 153.27 16.727 154.275 16.9453C155.897 17.2201 157.965 17.5507 157.965 19.9147C157.965 21.8395 156.288 23.1598 153.828 23.1598H153.829Z" fill="black"/>
<path d="M17.468 21.3929C17.3385 20.9711 17.0716 20.6027 16.7084 20.3444C16.3452 20.0861 15.9057 19.9521 15.4575 19.963H5.38855C5.21168 19.9608 5.03616 19.9935 4.87234 20.0591C4.70852 20.1246 4.5597 20.2217 4.43467 20.3447C4.30964 20.4677 4.21093 20.614 4.14434 20.775C4.07776 20.9361 4.04466 21.1086 4.04699 21.2825C4.05172 21.6308 4.19455 21.9636 4.44509 22.21C4.69564 22.4564 5.03413 22.597 5.38855 22.6019H17.468C17.6082 22.2107 17.6082 21.7841 17.468 21.3929Z" fill="black"/>
<path d="M12.8797 27.9377L13.1593 27.6081L16.7938 23.5932C17.0798 23.3409 17.2921 23.0181 17.4088 22.6582H13.9389L9.96994 26.9479L9.85845 27.168C9.12735 28.8179 9.9142 29.7529 10.3053 30.0278C10.4146 30.1325 10.5492 30.2082 10.6965 30.2478L12.8769 27.9377H12.8797Z" fill="black"/>
<path d="M31.2761 11.7139C30.9457 9.53164 30.0183 7.47863 28.593 5.77418C27.9328 4.97813 27.1825 4.25854 26.3567 3.62932C24.0378 1.85749 21.187 0.890671 18.2498 0.879985H9.02527C8.84841 0.877811 8.67289 0.910462 8.50907 0.976011C8.34524 1.04156 8.19643 1.13868 8.0714 1.26165C7.94637 1.38462 7.84766 1.53094 7.78107 1.692C7.71449 1.85306 7.68139 2.02559 7.68372 2.19941C7.68127 2.37332 7.71428 2.54594 7.7808 2.7071C7.84733 2.86827 7.94603 3.0147 8.07107 3.13776C8.19611 3.26083 8.34497 3.35803 8.50885 3.42363C8.67274 3.48924 8.84833 3.52192 9.02527 3.51974H18.2498C18.4749 3.51068 18.7002 3.52908 18.9206 3.57453C21.2643 3.70113 23.4942 4.60913 25.2422 6.14874C26.9903 7.68835 28.1522 9.76759 28.5363 12.0435C28.5274 12.1562 28.5465 12.2693 28.592 12.3731C29.0956 17.1577 25.9647 21.557 22.4984 23.8124C19.2002 25.9572 14.8402 27.6072 12.8836 27.8254L10.7589 30.1904C11.2664 30.4209 11.8211 30.5337 12.3801 30.52C16.1818 30.52 22.6665 26.8904 24.009 26.0102C28.2576 23.3732 32.1707 17.8179 31.2761 11.7139Z" fill="black"/>
<path d="M19.1439 8.63488C19.1464 8.46097 19.1134 8.28835 19.0469 8.12719C18.9803 7.96603 18.8816 7.8196 18.7566 7.69653C18.6315 7.57347 18.4827 7.47627 18.3188 7.41066C18.1549 7.34506 17.9793 7.31238 17.8024 7.31456H4.04871C3.87177 7.31238 3.69618 7.34506 3.53229 7.41066C3.36841 7.47627 3.21955 7.57347 3.09451 7.69653C2.96947 7.8196 2.87077 7.96603 2.80424 8.12719C2.73771 8.28835 2.7047 8.46097 2.70716 8.63488C2.71188 8.98321 2.85472 9.31599 3.10526 9.5624C3.35581 9.80882 3.6943 9.94943 4.04871 9.95431H17.8015C18.156 9.94966 18.4948 9.80916 18.7455 9.56272C18.9963 9.31628 19.1392 8.98336 19.1439 8.63488Z" fill="black"/>
<path d="M17.354 14.9616C17.3563 14.7878 17.3232 14.6153 17.2566 14.4542C17.1901 14.2932 17.0913 14.1468 16.9663 14.0239C16.8413 13.9009 16.6925 13.8038 16.5286 13.7382C16.3648 13.6727 16.1893 13.64 16.0124 13.6422H1.30835C0.958246 13.6512 0.625553 13.7942 0.38116 14.0407C0.136768 14.2873 0 14.6179 0 14.9621C0 15.3063 0.136768 15.6369 0.38116 15.8834C0.625553 16.13 0.958246 16.273 1.30835 16.2819H16.0115C16.1898 16.289 16.3677 16.2597 16.5339 16.1959C16.7001 16.132 16.851 16.035 16.9772 15.911C17.1033 15.7869 17.2019 15.6385 17.2668 15.4751C17.3316 15.3117 17.3613 15.1369 17.354 14.9616Z" fill="black"/>
</svg>
