<svg width="26" height="26" viewBox="0 0 26 26" fill="none" xmlns="http://www.w3.org/2000/svg">
<g clip-path="url(#clip0_4240_4596)">
<circle cx="13" cy="13" r="12.895" stroke="black" stroke-width="0.21"/>
<path d="M11.9999 9.99993C11.9999 10.5304 11.7892 11.039 11.4141 11.4141C11.039 11.7892 10.5304 11.9999 9.99993 11.9999C9.46952 11.9999 8.96083 11.7892 8.58577 11.4141C8.21071 11.039 8 10.5304 8 9.99993C8 9.46952 8.21071 8.96083 8.58577 8.58577C8.96083 8.21071 9.46952 8 9.99993 8C10.5304 8 11.039 8.21071 11.4141 8.58577C11.7892 8.96083 11.9999 9.46952 11.9999 9.99993ZM11.9999 15.9997C11.9999 16.5302 11.7892 17.0388 11.4141 17.4139C11.039 17.789 10.5304 17.9997 9.99993 17.9997C9.46952 17.9997 8.96083 17.789 8.58577 17.4139C8.21071 17.0388 8 16.5302 8 15.9997C8 15.4693 8.21071 14.9606 8.58577 14.5856C8.96083 14.2105 9.46952 13.9998 9.99993 13.9998C10.5304 13.9998 11.039 14.2105 11.4141 14.5856C11.7892 14.9606 11.9999 15.4693 11.9999 15.9997ZM17.9997 9.99993C17.9997 10.5304 17.789 11.039 17.4139 11.4141C17.0388 11.7892 16.5302 11.9999 15.9997 11.9999C15.4693 11.9999 14.9606 11.7892 14.5856 11.4141C14.2105 11.039 13.9998 10.5304 13.9998 9.99993C13.9998 9.46952 14.2105 8.96083 14.5856 8.58577C14.9606 8.21071 15.4693 8 15.9997 8C16.5302 8 17.0388 8.21071 17.4139 8.58577C17.789 8.96083 17.9997 9.46952 17.9997 9.99993ZM15.9997 17.9997C16.5302 17.9997 17.0388 17.789 17.4139 17.4139C17.789 17.0388 17.9997 16.5302 17.9997 15.9997C17.9997 15.4693 17.789 14.9606 17.4139 14.5856C17.0388 14.2105 16.5302 13.9998 15.9997 13.9998C15.4693 13.9998 14.9606 14.2105 14.5856 14.5856C14.2105 14.9606 13.9998 15.4693 13.9998 15.9997C13.9998 16.5302 14.2105 17.0388 14.5856 17.4139C14.9606 17.789 15.4693 17.9997 15.9997 17.9997Z" fill="black"/>
</g>
<defs>
<clipPath id="clip0_4240_4596">
<rect width="26" height="26" rx="13" fill="white"/>
</clipPath>
</defs>
</svg>
