<svg width="149" height="24" viewBox="0 0 149 24" fill="none" xmlns="http://www.w3.org/2000/svg">
<path d="M49.3905 22.0112V1.30566L53.416 1.30566L60.5369 12.4204L67.7409 1.30566L71.6556 1.30566V22.0112H67.9032V7.02532L60.5092 18.4963L53.1429 7.05303V22.0112H49.3905Z" fill="#121212"/>
<path d="M83.7094 22.4982C82.0074 22.4982 80.4914 22.1815 79.1693 21.5442C77.8473 20.9109 76.8063 19.9768 76.0423 18.7418C75.2823 17.5068 74.9023 15.9869 74.9023 14.1898C74.9023 12.5392 75.2428 11.0866 75.9196 9.83179C76.6004 8.57703 77.5385 7.59538 78.7339 6.87498C79.9293 6.15854 81.2989 5.79834 82.8386 5.79834C84.3071 5.79834 85.5896 6.12292 86.686 6.76811C87.7825 7.4133 88.6295 8.31578 89.2272 9.4795C89.8249 10.6393 90.1257 12.0009 90.1257 13.5644C90.1257 13.7821 90.1139 13.9959 90.098 14.2056C90.0782 14.4115 90.0505 14.7281 90.0149 15.1437H78.4885C78.7062 16.45 79.2881 17.4752 80.2301 18.2074C81.1722 18.9437 82.4388 19.3118 84.034 19.3118C86.0646 19.3118 87.9329 18.6785 89.6349 17.4039V20.6457C88.8195 21.2117 87.8893 21.659 86.8483 21.9955C85.8073 22.3319 84.7584 22.4982 83.7094 22.4982ZM82.6763 8.63244C81.5166 8.63244 80.5745 8.99264 79.8501 9.70908C79.1258 10.4255 78.6706 11.4309 78.4885 12.7213H86.6464C86.6464 12.4838 86.6267 12.274 86.591 12.0919C86.409 10.9678 85.9815 10.1089 85.3125 9.51909C84.6436 8.92931 83.7648 8.63244 82.6763 8.63244Z" fill="#121212"/>
<path d="M93.418 22.011V6.28887H96.921L96.9487 9.55837C97.3683 8.48569 98.0016 7.63467 98.8526 6.99739C99.7037 6.36407 100.666 6.04346 101.734 6.04346C102.023 6.04346 102.368 6.07116 102.767 6.12658C103.167 6.18199 103.484 6.25324 103.717 6.34428V9.8592C103.428 9.76816 103.048 9.68504 102.577 9.61379C102.106 9.54254 101.671 9.50296 101.271 9.50296C99.9134 9.50296 98.8764 9.94628 98.1599 10.825C97.4435 11.7077 97.0873 12.9823 97.0873 14.6526V22.011H93.418Z" fill="#121212"/>
<path d="M113.434 22.4982C111.747 22.4982 110.279 22.1617 109.028 21.4928C107.777 20.8199 106.815 19.862 106.135 18.6191C105.454 17.3722 105.113 15.9156 105.113 14.2452C105.113 12.5551 105.466 11.0786 106.162 9.81991C106.859 8.55723 107.829 7.57163 109.072 6.86311C110.31 6.15458 111.747 5.79834 113.378 5.79834C114.193 5.79834 114.946 5.90125 115.634 6.09917C116.323 6.30104 116.976 6.53457 117.594 6.80769V10.2118C116.996 9.85158 116.347 9.5745 115.65 9.38055C114.95 9.19055 114.285 9.09555 113.651 9.09555C112.183 9.09555 111.011 9.54679 110.128 10.4453C109.25 11.3438 108.81 12.5669 108.81 14.1106C108.81 15.7256 109.25 16.9843 110.128 17.8828C111.011 18.7814 112.226 19.2287 113.786 19.2287C114.419 19.2287 115.029 19.1534 115.607 18.9991C116.188 18.8447 116.849 18.6033 117.594 18.2787V21.5205C117.012 21.8094 116.374 22.0469 115.674 22.229C114.977 22.4071 114.229 22.4982 113.434 22.4982Z" fill="#121212"/>
<path d="M128.604 22.4982C126.898 22.4982 125.386 22.1815 124.064 21.5442C122.742 20.9109 121.701 19.9768 120.937 18.7418C120.177 17.5068 119.797 15.9869 119.797 14.1898C119.797 12.5392 120.137 11.0866 120.814 9.83179C121.495 8.57703 122.433 7.59538 123.628 6.87498C124.824 6.15854 126.193 5.79834 127.733 5.79834C129.202 5.79834 130.484 6.12292 131.581 6.76811C132.677 7.4133 133.524 8.31578 134.122 9.4795C134.719 10.6393 135.02 12.0009 135.02 13.5644C135.02 13.7821 135.008 13.9959 134.993 14.2056C134.973 14.4115 134.945 14.7281 134.909 15.1437H123.383C123.601 16.45 124.183 17.4752 125.125 18.2074C126.067 18.9437 127.333 19.3118 128.929 19.3118C130.959 19.3118 132.827 18.6785 134.529 17.4039V20.6457C133.714 21.2117 132.784 21.659 131.743 21.9955C130.702 22.3319 129.653 22.4982 128.604 22.4982ZM127.571 8.63244C126.411 8.63244 125.469 8.99264 124.745 9.70908C124.02 10.4255 123.565 11.4309 123.383 12.7213H131.541C131.541 12.4838 131.521 12.274 131.486 12.0919C131.303 10.9678 130.876 10.1089 130.207 9.51909C129.538 8.92931 128.659 8.63244 127.571 8.63244Z" fill="#121212"/>
<path d="M138.621 22.011V6.28887H142.128L142.156 9.55837C142.571 8.48569 143.205 7.63467 144.056 6.99739C144.907 6.36407 145.869 6.04346 146.937 6.04346C147.226 6.04346 147.571 6.07116 147.97 6.12658C148.37 6.18199 148.687 6.25324 148.924 6.34428V9.8592C148.631 9.76816 148.251 9.68504 147.78 9.61379C147.309 9.54254 146.874 9.50296 146.478 9.50296C145.117 9.50296 144.08 9.94628 143.363 10.825C142.647 11.7077 142.29 12.9823 142.29 14.6526V22.011H138.621Z" fill="#121212"/>
<path d="M38.0031 5.01806L29.7422 0.252338C29.1604 -0.0841126 28.2104 -0.0841126 27.6285 0.252338L4.84093 13.4095L17.4519 3.72372L11.4314 0.252338C10.8495 -0.0841126 9.89956 -0.0841126 9.3177 0.252338L1.05685 5.01806C0.474989 5.35451 0 6.18178 0 6.85468L0 16.3861C0 17.059 0.474989 17.8863 1.05685 18.2228L9.3177 22.9924C9.89956 23.3289 10.8495 23.3289 11.4314 22.9924L34.223 9.83524L21.612 19.5171L27.6285 22.9924C28.2104 23.3289 29.1604 23.3289 29.7422 22.9924L38.0031 18.2228C38.5849 17.8863 39.0599 17.059 39.0599 16.3901V6.85468C39.0599 6.18178 38.5849 5.35451 38.0031 5.01806Z" fill="#121212"/>
</svg>
