<svg width="95" height="50" viewBox="0 0 95 50" fill="none" xmlns="http://www.w3.org/2000/svg">
<g clip-path="url(#clip0_4683_18460)">
<path d="M4.395 49.7832H6.847L11.198 37.6832H9.207L5.667 47.8402L2.082 37.6852H0L4.395 49.7832ZM17.719 49.9912C20.449 49.9912 22.461 48.7192 22.877 46.2912H20.957C20.702 47.7022 19.616 48.3962 17.742 48.3962C15.267 48.3962 13.942 46.8692 13.854 44.1162H22.968V43.4912C22.968 39.1652 20.331 37.4742 17.532 37.4742C14.199 37.4742 11.865 40.0192 11.865 43.6742V43.8592C11.865 47.5852 14.296 49.9912 17.719 49.9912ZM13.919 42.5662C14.243 40.4152 15.561 39.0732 17.529 39.0732C19.518 39.0732 20.814 40.0672 20.999 42.5662H13.919ZM25.305 49.7862H27.225V42.4532C27.2074 42.0088 27.283 41.5656 27.4472 41.1522C27.6113 40.7388 27.8603 40.3644 28.178 40.0532C28.4966 39.7419 28.8769 39.501 29.2945 39.3459C29.712 39.1909 30.1575 39.1252 30.602 39.1532C32.546 39.1532 33.447 40.1012 33.447 42.2292V49.7932H35.367V42.3682C35.367 38.8502 33.608 37.4872 31.109 37.4872C30.3261 37.439 29.5455 37.6133 28.8575 37.99C28.1694 38.3668 27.6021 38.9306 27.221 39.6162V37.6962H25.306L25.305 49.7862ZM42.215 49.9482C42.7733 49.9641 43.3298 49.8777 43.857 49.6932V48.0742C43.3839 48.2536 42.8808 48.3405 42.375 48.3302C41.404 48.3302 40.875 47.7512 40.875 46.5712V39.3082H43.697V37.6892H40.875V34.9302H38.951V37.6832H37.22V39.3022H38.951V46.7512C38.9104 47.187 38.9676 47.6264 39.1185 48.0373C39.2693 48.4482 39.51 48.8202 39.823 49.1262C40.1359 49.4323 40.5132 49.6647 40.9274 49.8064C41.3416 49.9481 41.7822 49.9955 42.217 49.9452L42.215 49.9482ZM50.242 49.9942C51.0175 50.0361 51.7891 49.8587 52.4683 49.4821C53.1475 49.1055 53.7068 48.5451 54.082 47.8652V49.7852H56.003V37.6852H54.083V45.0212C54.1009 45.4625 54.0267 45.9027 53.8653 46.3139C53.7038 46.725 53.4585 47.098 53.145 47.4092C52.8315 47.7203 52.4566 47.9628 52.0443 48.1212C51.632 48.2796 51.1912 48.3504 50.75 48.3292C48.85 48.3292 47.95 47.3812 47.95 45.2532V37.6892H46.033V45.3462C46.033 48.6742 47.838 49.9922 50.245 49.9922L50.242 49.9942ZM59.287 49.7862H61.207V43.1472C61.207 40.1632 62.757 39.4002 65.188 39.2842V37.4842C64.3643 37.4494 63.5483 37.6565 62.8409 38.08C62.1335 38.5034 61.5655 39.1247 61.207 39.8672V37.6922H59.287V49.7862ZM71.987 49.9942C74.717 49.9942 76.729 48.7222 77.145 46.2942H75.225C74.97 47.7052 73.884 48.3992 72.01 48.3992C69.535 48.3992 68.21 46.8722 68.122 44.1192H77.236V43.4942C77.236 39.1682 74.599 37.4772 71.8 37.4772C68.467 37.4772 66.133 40.0222 66.133 43.6772V43.8622C66.133 47.5842 68.564 49.9902 71.987 49.9902V49.9942ZM68.187 42.5692C68.511 40.4182 69.829 39.0762 71.797 39.0762C73.786 39.0762 75.082 40.0702 75.267 42.5692H68.187ZM83.435 49.9952C86.372 49.9952 87.879 48.5142 87.879 46.3172C87.879 43.7492 86.12 43.1942 83.621 42.7322C81.399 42.3392 80.799 41.8992 80.799 40.8122C80.799 39.7712 81.699 39.0772 83.089 39.0772C84.616 39.0772 85.356 39.6562 85.634 40.9772H87.485C87.161 38.3632 85.285 37.4842 83.113 37.4842C81.213 37.4842 79.018 38.6402 79.018 40.8842C79.018 42.9892 80.082 43.8682 83.228 44.4462C85.102 44.7932 86.05 45.2102 86.05 46.4832C86.05 47.7832 85.24 48.4032 83.413 48.4032C81.469 48.4032 80.706 47.5032 80.568 46.0662H78.696C78.812 48.5372 80.547 49.9942 83.438 49.9942L83.435 49.9952Z" fill="#121212"/>
<path d="M0.775024 25.479H4.85602V18.572C4.82084 18.3159 4.84226 18.0552 4.91881 17.8083C4.99535 17.5614 5.12514 17.3343 5.29901 17.143C5.47295 16.9516 5.68678 16.8007 5.9254 16.701C6.16402 16.6013 6.42162 16.5552 6.68001 16.566C7.61501 16.566 8.20702 17.158 8.20702 18.366V25.478H12.242V18.571C12.2068 18.3149 12.2283 18.0542 12.3048 17.8073C12.3814 17.5604 12.5111 17.3333 12.685 17.142C12.859 16.9506 13.0728 16.7997 13.3114 16.7C13.55 16.6003 13.8076 16.5542 14.066 16.565C15.001 16.565 15.593 17.157 15.593 18.365V25.477H19.674V17.677C19.674 14.691 18.033 13.233 15.774 13.233C15.0049 13.2175 14.2436 13.3901 13.5563 13.7357C12.8689 14.0812 12.2764 14.5894 11.83 15.216C11.5665 14.5871 11.1118 14.0572 10.5303 13.7012C9.94872 13.3453 9.26988 13.1815 8.59001 13.233C7.83063 13.2154 7.08089 13.4057 6.42188 13.7834C5.76286 14.1611 5.21966 14.7118 4.85101 15.376V13.552H0.77002L0.775024 25.479ZM25.328 25.757C26.0974 25.8155 26.867 25.6455 27.5401 25.2684C28.2133 24.8912 28.7601 24.3237 29.112 23.637V25.484H33.193V13.556H29.112V20.418C29.112 21.945 28.312 22.675 27.083 22.675C25.92 22.675 25.396 22.014 25.396 20.669V13.557H21.315V21.333C21.315 24.34 23.024 25.753 25.327 25.753L25.328 25.757ZM35.128 25.479H39.186V8.31297H35.128V25.479ZM45.867 25.757C46.6312 25.7442 47.3903 25.6292 48.124 25.415V22.315C47.7531 22.4573 47.3583 22.5272 46.961 22.521C46.7934 22.5416 46.6233 22.523 46.4642 22.4666C46.3051 22.4102 46.1612 22.3175 46.044 22.196C45.9269 22.0744 45.8397 21.9273 45.7892 21.7663C45.7387 21.6052 45.7263 21.4346 45.753 21.268V16.343H48.101V13.566H45.753V11.081H41.672V13.566H40.239V16.343H41.675V21.655C41.675 24.455 43.175 25.755 45.868 25.755L45.867 25.757ZM49.514 25.479H53.595V13.556H49.514V25.479ZM51.543 12.417C51.8305 12.4342 52.1185 12.3929 52.3895 12.2956C52.6606 12.1983 52.9091 12.0471 53.12 11.851C53.3309 11.6548 53.4999 11.4179 53.6166 11.1546C53.7333 10.8912 53.7954 10.607 53.799 10.319C53.7953 10.0299 53.7334 9.74449 53.6169 9.47988C53.5004 9.21528 53.3318 8.97688 53.121 8.77896C52.9103 8.58112 52.6619 8.42779 52.3906 8.32813C52.1193 8.22848 51.8307 8.18455 51.542 8.19897C51.2546 8.18483 50.9673 8.22911 50.6974 8.32914C50.4276 8.42918 50.1808 8.58288 49.972 8.78096C49.7633 8.97918 49.5969 9.21768 49.4829 9.48203C49.369 9.74638 49.3098 10.0311 49.309 10.319C49.3104 10.6054 49.3701 10.8886 49.4844 11.1513C49.5988 11.414 49.7653 11.6507 49.974 11.847C50.1828 12.0433 50.4295 12.1952 50.6989 12.2932C50.9683 12.3911 51.2548 12.4333 51.541 12.417H51.543ZM55.532 29.469H59.613V23.724C59.9727 24.3776 60.511 24.9155 61.1649 25.2748C61.8188 25.634 62.5614 25.7999 63.306 25.753C66.106 25.753 68.367 23.702 68.367 19.598V19.413C68.367 15.332 66.11 13.236 63.329 13.236C62.5786 13.2227 61.8383 13.4105 61.1849 13.7797C60.5315 14.149 59.9888 14.6863 59.613 15.336V13.558H55.539L55.532 29.469ZM61.87 22.63C60.389 22.63 59.499 21.604 59.499 19.575V19.39C59.499 17.384 60.388 16.313 61.87 16.313C63.306 16.313 64.218 17.313 64.218 19.413V19.598C64.218 21.558 63.396 22.63 61.868 22.63H61.87ZM69.712 25.479H73.77V8.31297H69.708L69.712 25.479ZM77.463 29.468H81.363L87.751 13.555H83.851L81.571 19.915L79.109 13.555H74.687L79.452 24.27L77.463 29.468Z" fill="#121212"/>
<path d="M92.509 5.05447e-05V9.10205H94.633V5.05447e-05H92.509Z" fill="#797979"/>
<path d="M85.5311 2.12402L94.6331 2.12402V2.3365e-05L85.5311 2.3365e-05V2.12402Z" fill="#797979"/>
</g>
<defs>
<clipPath id="clip0_4683_18460">
<rect width="94.632" height="50" fill="white"/>
</clipPath>
</defs>
</svg>
