<svg width="171" height="41" viewBox="0 0 171 41" fill="none" xmlns="http://www.w3.org/2000/svg">
<g clip-path="url(#clip0_3558_921)">
<path d="M32.6214 4.72325C32.6214 6.74682 34.2734 8.38703 36.3126 8.38703C38.3508 8.38703 40.0028 6.74682 40.0028 4.72325C40.0028 2.69967 38.3508 1.05859 36.3126 1.05859C34.2734 1.05859 32.6214 2.69967 32.6214 4.72325Z" fill="white"/>
<path d="M24.6903 4.72349C24.6903 6.74706 26.3424 8.38728 28.3815 8.38728C30.4196 8.38728 32.0716 6.74706 32.0716 4.72349C32.0716 2.69992 30.4196 1.05884 28.3815 1.05884C26.3424 1.05884 24.6903 2.69992 24.6903 4.72349Z" fill="white"/>
<path d="M16.557 4.72373C16.557 6.7473 18.2091 8.38752 20.2473 8.38752C22.2854 8.38752 23.9384 6.7473 23.9384 4.72373C23.9384 2.70016 22.2854 1.05908 20.2473 1.05908C18.2091 1.05908 16.557 2.70016 16.557 4.72373Z" fill="white"/>
<path d="M32.6207 12.7066C32.6207 14.7302 34.2728 16.3704 36.3119 16.3704C38.3501 16.3704 40.0022 14.7302 40.0022 12.7066C40.0022 10.6831 38.3501 9.04199 36.3119 9.04199C34.2728 9.04199 32.6207 10.6831 32.6207 12.7066Z" fill="white"/>
<path d="M24.6895 12.7069C24.6895 14.7305 26.3415 16.3707 28.3806 16.3707C30.4187 16.3707 32.0708 14.7305 32.0708 12.7069C32.0708 10.6833 30.4187 9.04224 28.3806 9.04224C26.3415 9.04224 24.6895 10.6833 24.6895 12.7069Z" fill="white"/>
<path d="M16.5581 12.7064C16.5581 14.73 18.2102 16.3702 20.2484 16.3702C22.2865 16.3702 23.9395 14.73 23.9395 12.7064C23.9395 10.6829 22.2865 9.04175 20.2484 9.04175C18.2102 9.04175 16.5581 10.6829 16.5581 12.7064Z" fill="white"/>
<path d="M8.62708 12.7066C8.62708 14.7302 10.2791 16.3704 12.3183 16.3704C14.3564 16.3704 16.0084 14.7302 16.0084 12.7066C16.0084 10.6831 14.3564 9.04199 12.3183 9.04199C10.2791 9.04199 8.62708 10.6831 8.62708 12.7066Z" fill="white"/>
<path d="M8.42383 20.5988C8.42383 22.6223 10.0768 24.2626 12.115 24.2626C14.1532 24.2626 15.8052 22.6223 15.8052 20.5988C15.8052 18.5752 14.1532 16.9341 12.115 16.9341C10.0768 16.9341 8.42383 18.5752 8.42383 20.5988Z" fill="white"/>
<path d="M0.312622 20.5988C0.312622 22.6223 1.96556 24.2626 4.00375 24.2626C6.04194 24.2626 7.694 22.6223 7.694 20.5988C7.694 18.5752 6.04194 16.9341 4.00375 16.9341C1.96556 16.9341 0.312622 18.5752 0.312622 20.5988Z" fill="white"/>
<path d="M32.6198 20.6892C32.6198 22.7127 34.2719 24.3538 36.311 24.3538C38.3492 24.3538 40.0013 22.7127 40.0013 20.6892C40.0013 18.6656 38.3492 17.0254 36.311 17.0254C34.2719 17.0254 32.6198 18.6656 32.6198 20.6892Z" fill="white"/>
<path d="M24.6903 20.689C24.6903 22.7125 26.3424 24.3535 28.3815 24.3535C30.4196 24.3535 32.0716 22.7125 32.0716 20.689C32.0716 18.6653 30.4196 17.0251 28.3815 17.0251C26.3424 17.0251 24.6903 18.6653 24.6903 20.689Z" fill="white"/>
<path d="M16.5574 20.689C16.5574 22.7125 18.2094 24.3535 20.2477 24.3535C22.2858 24.3535 23.9388 22.7125 23.9388 20.689C23.9388 18.6653 22.2858 17.0251 20.2477 17.0251C18.2094 17.0251 16.5574 18.6653 16.5574 20.689Z" fill="white"/>
<path d="M24.6896 28.6725C24.6896 30.696 26.3416 32.3363 28.3807 32.3363C30.4189 32.3363 32.0709 30.696 32.0709 28.6725C32.0709 26.6489 30.4189 25.0078 28.3807 25.0078C26.3416 25.0078 24.6896 26.6489 24.6896 28.6725Z" fill="white"/>
<path d="M16.558 36.7213C16.558 38.7448 18.21 40.385 20.2483 40.385C22.2864 40.385 23.9394 38.7448 23.9394 36.7213C23.9394 34.6977 22.2864 33.0566 20.2483 33.0566C18.21 33.0566 16.558 34.6977 16.558 36.7213Z" fill="white"/>
<path d="M16.5582 28.672C16.5582 30.6955 18.2103 32.3358 20.2485 32.3358C22.2866 32.3358 23.9397 30.6955 23.9397 28.672C23.9397 26.6484 22.2866 25.0073 20.2485 25.0073C18.2103 25.0073 16.5582 26.6484 16.5582 28.672Z" fill="white"/>
<path fill-rule="evenodd" clip-rule="evenodd" d="M43.6814 1.31662C46.2758 1.13894 48.5565 1.05054 50.525 1.05054C56.071 1.05054 58.8444 2.99359 58.8444 6.87881C58.8444 8.67655 58.3745 10.2537 57.4347 11.6077C56.9429 12.3403 56.182 12.9233 55.1541 13.3565C54.1253 13.7888 52.8841 14.0059 51.4304 14.0059H46.4663V24.3627H43.6814V1.31662ZM50.5585 1.38401C49.2608 1.38401 47.897 1.46103 46.4663 1.61595V13.6724H51.4304C54.5837 13.5395 56.16 11.297 56.16 6.94531C56.16 5.16856 55.691 3.79793 54.7512 2.83166C53.8115 1.86626 52.4142 1.38401 50.5585 1.38401Z" fill="white"/>
<path fill-rule="evenodd" clip-rule="evenodd" d="M62.2 1.31539C64.7935 1.13772 67.0856 1.04932 69.0762 1.04932C74.6001 1.04932 77.362 2.88033 77.362 6.54411C77.362 8.09854 76.9822 9.48668 76.2213 10.7077C75.4614 11.9286 74.1532 12.7391 72.2965 13.1382L79.0062 24.3614H75.8863L69.3116 13.3377H64.984V24.3614H62.2V1.31539ZM69.0762 1.38279C67.7794 1.38279 66.4147 1.45981 64.984 1.61473V13.0051H69.949C73.1023 12.8722 74.6786 10.7409 74.6786 6.61063C74.6786 4.92403 74.2087 3.63042 73.2699 2.73067C72.33 1.83179 70.9328 1.38279 69.0762 1.38279Z" fill="white"/>
<path d="M81.6871 1.38328V1.0498L87.658 1.0498V1.38328L86.0139 1.38328V24.0293H87.658V24.3619H81.6871V24.0293H83.2298V1.38328H81.6871Z" fill="white"/>
<path d="M108.156 1.04932C108.58 1.47118 108.793 2.01471 108.793 2.68077C108.793 3.23568 108.67 3.80196 108.424 4.37963L99.8361 24.3614L99.4676 24.5286L91.0145 1.04932H93.8655L100.877 20.7651L108.022 4.37963C108.267 3.82472 108.391 3.24706 108.391 2.64751C108.391 2.04797 108.223 1.58234 107.888 1.24887L108.156 1.04932Z" fill="white"/>
<path fill-rule="evenodd" clip-rule="evenodd" d="M108.189 24.3616H107.786L117.816 1.04949L118.185 0.882324L126.638 24.3616H123.787L121.171 17.035H111.376L108.189 24.3616ZM116.776 4.64588L111.509 16.7024H121.07L116.776 4.64588Z" fill="white"/>
<path fill-rule="evenodd" clip-rule="evenodd" d="M132.34 1.08263C133.323 1.038 134.291 1.01611 135.242 1.01611C136.192 1.01611 137.198 1.11589 138.259 1.31545C139.322 1.51501 140.374 1.88786 141.413 2.43138C142.453 2.97579 143.337 3.67511 144.064 4.52935C144.79 5.38447 145.378 6.51091 145.825 7.90955C146.271 9.30818 146.495 11.007 146.495 13.0052C146.495 15.0034 146.166 16.7968 145.507 18.3845C144.846 19.9713 143.946 21.187 142.806 22.0307C140.591 23.6744 137.919 24.4945 134.789 24.4945C133.692 24.4945 132.541 24.4508 131.334 24.3616H129.655V1.08263H132.34ZM132.44 24.0954C132.911 24.1401 133.502 24.162 134.218 24.162C134.934 24.162 135.471 24.1515 135.828 24.1287C136.185 24.1068 136.678 24.0123 137.304 23.8461C137.93 23.6788 138.512 23.4521 139.049 23.1633C139.586 22.8753 140.15 22.4473 140.743 21.8811C141.335 21.3148 141.844 20.6435 142.27 19.8654C143.231 18.0458 143.711 15.6695 143.711 12.7391C143.711 10.6526 143.455 8.8478 142.94 7.3275C142.425 5.80633 141.838 4.67901 141.179 3.94643C140.52 3.21385 139.72 2.63095 138.781 2.1977C137.841 1.76532 137.092 1.51501 136.533 1.44849C135.974 1.38285 135.325 1.34871 134.587 1.34871C133.849 1.34871 133.134 1.38285 132.44 1.44849V24.0954Z" fill="white"/>
<path fill-rule="evenodd" clip-rule="evenodd" d="M149.516 13.2721C149.516 9.23109 150.506 6.16073 152.485 4.06277C154.465 1.96481 157.008 0.91626 160.117 0.91626C163.224 0.91626 165.702 1.82652 167.547 3.64703C169.393 5.46754 170.314 8.37598 170.314 12.3723C170.314 16.3687 169.331 19.3883 167.361 21.4311C165.394 23.474 162.767 24.4945 159.478 24.4945C156.639 24.4945 154.314 23.6849 152.503 22.0639C151.562 21.2202 150.83 20.0491 150.305 18.5507C149.779 17.0514 149.516 15.2922 149.516 13.2721ZM160.016 1.24886C157.757 1.24886 155.907 2.24751 154.465 4.24658C153.022 6.24388 152.301 9.17507 152.301 13.0384C152.301 16.9018 152.982 19.7218 154.347 21.4977C155.711 23.2744 157.528 24.1619 159.798 24.1619C162.068 24.1619 163.924 23.158 165.366 21.1484C166.809 19.1388 167.53 16.219 167.53 12.389C167.53 8.55891 166.843 5.74499 165.467 3.94636C164.092 2.14773 162.274 1.24886 160.016 1.24886Z" fill="white"/>
<path d="M49.93 40.4301C47.6978 40.4301 46.0449 39.8017 44.9712 38.5457C44.5894 38.0959 44.2791 37.4972 44.0402 36.7506C43.8013 36.004 43.6823 35.0981 43.6823 34.0312C43.6823 32.9651 43.8586 32.0085 44.2104 31.1613C44.5621 30.314 45.0425 29.6594 45.6518 29.1972C46.833 28.3324 48.2594 27.9001 49.93 27.9001C50.4069 27.9001 50.8723 27.9386 51.3264 28.0157C51.7795 28.0926 52.1198 28.1732 52.3463 28.2555L52.669 28.3798L52.6153 28.5574C51.8033 28.238 50.9085 28.0778 49.93 28.0778C48.6649 28.0778 47.6088 28.4865 46.7616 29.3041C46.1171 29.9088 45.6632 30.7971 45.4014 31.97C45.2462 32.6334 45.1677 33.4448 45.1677 34.4049C45.1677 35.3641 45.3053 36.2508 45.5794 37.0622C45.8545 37.8735 46.1675 38.4748 46.52 38.8661C46.8718 39.2564 47.2985 39.568 47.7993 39.7991C48.3008 40.0301 48.7002 40.1632 48.9991 40.1982C49.2979 40.2341 49.6585 40.2516 50.0816 40.2516C50.5056 40.2516 50.9861 40.2104 51.5229 40.1273C52.0599 40.045 52.4653 39.968 52.7405 39.8971L53.1521 39.772L53.2058 39.9496C52.2988 40.27 51.2065 40.4301 49.93 40.4301Z" fill="white"/>
<path fill-rule="evenodd" clip-rule="evenodd" d="M64.8325 40.3583H64.6174L69.9695 27.9175L70.1669 27.8291L74.6779 40.3583H73.1563L71.7599 36.4485H66.5331L64.8325 40.3583ZM69.415 29.8378L66.6045 36.2709H71.707L69.415 29.8378Z" fill="white"/>
<path fill-rule="evenodd" clip-rule="evenodd" d="M87.4108 28.0605C88.7949 27.965 90.0124 27.9177 91.0623 27.9177C94.0218 27.9177 95.5019 28.9549 95.5019 31.0284C95.5019 31.9877 95.2507 32.8296 94.7499 33.5526C94.4872 33.9429 94.0817 34.2536 93.5325 34.4848C92.9833 34.7158 92.3212 34.8313 91.5455 34.8313H88.8963V40.3585H87.4108V28.0605ZM91.08 28.0954C90.3879 28.0954 89.6597 28.1374 88.8963 28.2206V34.6536H91.5455C93.2284 34.5828 94.0693 33.3854 94.0693 31.0634C94.0693 30.1164 93.819 29.3838 93.3174 28.8691C92.8166 28.3527 92.0709 28.0954 91.08 28.0954Z" fill="white"/>
<path d="M107.908 28.0956V27.918H111.095V28.0956H110.218V40.1811H111.095V40.3588H107.908V40.1811H108.732V28.0956H107.908Z" fill="white"/>
<path d="M128.007 40.3585H126.521V28.0954H123.424V27.9177H131.122V28.0954H128.007V40.3585Z" fill="white"/>
<path fill-rule="evenodd" clip-rule="evenodd" d="M141.096 40.3583H140.882L146.233 27.9175L146.431 27.8291L150.942 40.3583H149.42L148.024 36.4485H142.797L141.096 40.3583ZM145.679 29.8378L142.869 36.2709H147.97L145.679 29.8378Z" fill="white"/>
<path d="M170.313 40.3585H163.511V27.9177H164.996V40.1808H170.313V40.3585Z" fill="white"/>
</g>
<defs>
<clipPath id="clip0_3558_921">
<rect width="170" height="40" fill="white" transform="translate(0.313354 0.882324)"/>
</clipPath>
</defs>
</svg>
