<svg width="147" height="27" viewBox="0 0 147 27" fill="none" xmlns="http://www.w3.org/2000/svg">
<path d="M27 13.5C27 20.9558 20.9558 27 13.5 27C6.04417 27 0 20.9558 0 13.5C0 6.04417 6.04417 0 13.5 0C20.9558 0 27 6.04417 27 13.5Z" fill="#707070"/>
<path d="M13.5607 7.12912C14.1737 6.42129 15.3365 6.85481 15.3365 7.79119V15.3683C15.3365 15.9268 14.8837 16.3796 14.3252 16.3796H7.76328C6.89684 16.3796 6.43157 15.3612 6.99879 14.7062L13.5607 7.12912Z" fill="white" fill-opacity="0.7"/>
<path d="M13.6039 21.3618C12.991 22.0696 11.8281 21.6361 11.8281 20.6997V13.1227C11.8281 12.5641 12.2809 12.1113 12.8394 12.1113H19.4014C20.2678 12.1113 20.7331 13.1297 20.1659 13.7847L13.6039 21.3618Z" fill="white" fill-opacity="0.8"/>
<path d="M41.4799 9.80906L43.0427 7.86505C41.6895 6.83588 40.3363 6.2832 38.621 6.2832C36.4102 6.2832 34.2566 7.48388 34.2566 10.0187C34.2566 12.5726 36.2006 13.335 37.9349 13.983C39.2881 14.4785 40.5079 14.9168 40.5079 16.0603C40.5079 17.242 39.4596 17.7566 38.3923 17.7566C37.001 17.7566 36.1624 17.1277 35.0761 16.0794L33.2655 17.8519C34.714 19.3003 36.3149 20.0818 38.3733 20.0818C40.6984 20.0818 43.4239 18.843 43.4239 15.946C43.4239 13.1444 41.1559 12.2677 39.269 11.6197C38.2399 11.2575 36.982 10.9717 36.982 9.94249C36.982 9.06577 37.8015 8.60834 38.7163 8.60834C39.7455 8.60834 40.7366 9.18013 41.4799 9.80906Z" fill="black"/>
<path d="M52.5077 9.82764H50.1256L48.391 16.0408H48.3527L46.8664 9.82764H43.9883L46.7327 19.8526H49.6487L51.25 14.1158H51.2879L52.87 19.8526H55.7285L58.6066 9.82764H55.786L54.2039 16.0217H54.1468L52.5077 9.82764Z" fill="black"/>
<path d="M62.7334 19.8532V9.82829H60.0273V19.8532H62.7334ZM62.7334 8.43701V6.13086H60.0273V8.43701H62.7334Z" fill="black"/>
<path d="M65.3672 9.82833V24.618H68.0733V18.8813C68.8358 19.758 70.0364 20.082 71.0084 20.082C73.715 20.082 75.6969 17.6996 75.6969 14.8789C75.6969 11.9629 73.6958 9.59961 71.0276 9.59961C69.9981 9.59961 68.6451 9.98079 67.9209 11.0671L67.7114 9.82833H65.3672ZM68.0733 13.2589C68.6642 12.2679 69.5792 11.9248 70.4367 11.9248C71.9996 11.9248 72.9333 13.3161 72.9333 14.8027C72.9333 16.213 72.1329 17.7568 70.3983 17.7568C69.5409 17.7568 68.7404 17.4709 68.0733 16.6704V13.2589Z" fill="black"/>
<path d="M86.7415 15.5079C86.8177 15.1076 86.8748 14.6311 86.8748 14.2309C86.8748 11.5627 84.8167 9.59961 82.0339 9.59961C79.1563 9.59961 76.9453 11.9248 76.9453 14.9551C76.9453 17.9664 78.9847 20.082 82.0148 20.082C84.1687 20.082 85.4455 19.2815 86.5891 17.6234L84.8167 16.4227C84.1687 17.3756 83.5015 17.9093 82.2055 17.9093C80.7763 17.9093 79.8805 16.8801 79.6897 15.5079H86.7415ZM79.8234 13.6591C80.1091 12.5347 80.8142 11.7151 82.1102 11.7151C83.2158 11.7151 84.0541 12.4584 84.1116 13.6591H79.8234Z" fill="black"/>
<path d="M93.7695 6.51172V19.8529H96.4952V14.8214H98.0199C100.307 14.8214 103.013 13.716 103.013 10.6475C103.013 7.61715 100.288 6.51172 98.0199 6.51172H93.7695ZM96.4952 8.81787H97.9436C99.2396 8.81787 100.116 9.52305 100.116 10.7047C100.116 12.0388 99.0302 12.5153 97.5813 12.5153H96.4952V8.81787Z" fill="black"/>
<path d="M113.045 19.8533V13.8307C113.045 11.2196 111.692 9.59961 108.91 9.59961C107.423 9.59961 105.879 9.99986 104.602 10.6288L105.326 12.5728C106.203 12.1154 107.213 11.6961 108.357 11.6961C109.824 11.6961 110.339 12.4584 110.339 13.7163V13.8688C109.71 13.7354 109.081 13.6591 108.528 13.6591C106.451 13.6591 104.164 14.4406 104.164 16.8991C104.164 18.9575 105.898 20.082 107.766 20.082C108.833 20.082 109.844 19.7961 110.492 18.9956L110.701 19.8533H113.045ZM110.339 17.3375C109.767 17.8521 109.119 18.1951 108.338 18.1951C107.537 18.1951 106.813 17.7377 106.813 16.861C106.813 15.6794 107.976 15.3173 108.967 15.3173C109.386 15.3173 109.824 15.3744 110.339 15.4888V17.3375Z" fill="black"/>
<path d="M125.228 9.82833H122.884L122.655 11.01C121.931 9.96171 120.616 9.59961 119.606 9.59961C116.88 9.59961 114.898 11.8867 114.898 14.6883C114.898 17.5853 116.919 19.8533 119.568 19.8533C120.54 19.8533 121.779 19.5293 122.522 18.5763V19.4911C122.522 21.0921 121.493 21.8544 120.082 21.8544C119.091 21.8544 117.681 21.4351 116.538 20.5775L115.546 22.8074C116.957 23.7413 118.634 24.1796 120.178 24.1796C122.007 24.1796 123.723 23.5126 124.599 21.9879C125.019 21.2827 125.228 20.406 125.228 19.3196V9.82833ZM122.522 16.213C121.931 17.2041 120.997 17.5281 120.159 17.5281C118.615 17.5281 117.662 16.2321 117.662 14.7645C117.662 13.3733 118.462 11.9248 120.197 11.9248C121.035 11.9248 121.836 12.2107 122.522 13.0111V16.213Z" fill="black"/>
<path d="M136.882 15.5079C136.958 15.1076 137.015 14.6311 137.015 14.2309C137.015 11.5627 134.957 9.59961 132.175 9.59961C129.297 9.59961 127.086 11.9248 127.086 14.9551C127.086 17.9664 129.125 20.082 132.155 20.082C134.309 20.082 135.586 19.2815 136.73 17.6234L134.957 16.4227C134.309 17.3756 133.642 17.9093 132.346 17.9093C130.917 17.9093 130.021 16.8801 129.83 15.5079H136.882ZM129.964 13.6591C130.25 12.5347 130.955 11.7151 132.251 11.7151C133.356 11.7151 134.195 12.4584 134.252 13.6591H129.964Z" fill="black"/>
<path d="M145.912 10.9147C144.978 10.038 143.777 9.59961 142.443 9.59961C140.613 9.59961 138.86 10.6288 138.86 12.6681C138.86 14.4215 140.175 15.1076 141.376 15.6222C142.367 16.0605 143.282 16.3655 143.282 17.0707C143.282 17.6806 142.557 17.9474 142.005 17.9474C141.033 17.9474 140.404 17.509 139.641 16.7657L138.098 18.3667C139.203 19.4721 140.575 20.082 142.138 20.082C144.082 20.082 145.988 19.0719 145.988 16.861C145.988 14.9551 144.349 14.3071 143.053 13.7735C142.214 13.4304 141.471 13.1064 141.471 12.4775C141.471 12.001 141.929 11.7151 142.443 11.7151C143.205 11.7151 143.91 12.0963 144.425 12.5537L145.912 10.9147Z" fill="black"/>
</svg>
