<svg width="468" height="64" viewBox="0 0 468 64" fill="none" xmlns="http://www.w3.org/2000/svg">
<mask id="mask0_4287_33719" style="mask-type:alpha" maskUnits="userSpaceOnUse" x="0" y="0" width="468" height="64">
<rect width="467.478" height="64" fill="#D9D9D9"/>
</mask>
<g mask="url(#mask0_4287_33719)">
<path d="M234.443 57.0879H215.653V4.08322H234.598C239.929 4.08322 244.519 5.14435 248.367 7.2666C252.214 9.37161 255.173 12.3997 257.244 16.3509C259.332 20.3021 260.376 25.0297 260.376 30.5338C260.376 36.0551 259.332 40.8 257.244 44.7684C255.173 48.7369 252.197 51.7822 248.315 53.9045C244.45 56.0268 239.826 57.0879 234.443 57.0879ZM226.859 47.486H233.977C237.29 47.486 240.076 46.8993 242.336 45.726C244.614 44.5355 246.322 42.6979 247.461 40.2134C248.617 37.7115 249.195 34.485 249.195 30.5338C249.195 26.6171 248.617 23.4165 247.461 20.9319C246.322 18.4473 244.623 16.6183 242.362 15.4451C240.102 14.2718 237.315 13.6851 234.003 13.6851H226.859V47.486ZM277.309 34.1054V57.0879H266.283V4.08322H276.998V24.3482H277.464C278.361 22.0016 279.811 20.1641 281.812 18.8355C283.814 17.4897 286.324 16.8168 289.344 16.8168C292.104 16.8168 294.511 17.4207 296.564 18.6284C298.635 19.819 300.24 21.5358 301.378 23.7788C302.534 26.0046 303.104 28.6703 303.087 31.7761V57.0879H292.061V33.7431C292.078 31.293 291.457 29.3864 290.198 28.0233C288.955 26.6602 287.213 25.9787 284.97 25.9787C283.469 25.9787 282.14 26.2979 280.984 26.9363C279.845 27.5747 278.948 28.5064 278.292 29.7315C277.654 30.9393 277.326 32.3972 277.309 34.1054ZM320.913 57.8384C318.376 57.8384 316.116 57.3985 314.132 56.5185C312.148 55.6213 310.577 54.3013 309.421 52.5587C308.283 50.7988 307.713 48.6075 307.713 45.9849C307.713 43.7763 308.119 41.9215 308.93 40.4204C309.741 38.9193 310.845 37.7115 312.242 36.797C313.64 35.8826 315.227 35.1924 317.005 34.7265C318.799 34.2607 320.68 33.9329 322.647 33.7431C324.959 33.5015 326.822 33.2772 328.237 33.0701C329.652 32.8458 330.679 32.518 331.317 32.0867C331.955 31.6553 332.275 31.0169 332.275 30.1715V30.0162C332.275 28.377 331.757 27.1088 330.722 26.2116C329.704 25.3144 328.254 24.8658 326.374 24.8658C324.389 24.8658 322.811 25.3058 321.637 26.1858C320.464 27.0485 319.688 28.1355 319.308 29.4468L309.111 28.6186C309.628 26.203 310.646 24.1153 312.165 22.3553C313.683 20.5782 315.642 19.2151 318.04 18.2661C320.455 17.2999 323.251 16.8168 326.425 16.8168C328.634 16.8168 330.748 17.0756 332.766 17.5932C334.802 18.1108 336.605 18.9131 338.175 20.0001C339.763 21.0872 341.014 22.4847 341.928 24.1929C342.843 25.8838 343.3 27.9112 343.3 30.275V57.0879H332.844V51.5752H332.533C331.895 52.8175 331.041 53.9131 329.971 54.8621C328.901 55.7938 327.616 56.5271 326.115 57.062C324.614 57.5796 322.88 57.8384 320.913 57.8384ZM324.07 50.2294C325.692 50.2294 327.124 49.9102 328.366 49.2718C329.609 48.6161 330.584 47.7362 331.291 46.6319C331.998 45.5276 332.352 44.2767 332.352 42.8791V38.6605C332.007 38.8848 331.533 39.0918 330.929 39.2816C330.342 39.4542 329.678 39.6181 328.936 39.7734C328.194 39.9114 327.452 40.0408 326.71 40.1616C325.968 40.2651 325.295 40.36 324.691 40.4463C323.397 40.6361 322.267 40.938 321.301 41.3521C320.335 41.7662 319.584 42.327 319.049 43.0344C318.514 43.7246 318.247 44.5873 318.247 45.6225C318.247 47.1236 318.79 48.271 319.877 49.0647C320.982 49.8412 322.379 50.2294 324.07 50.2294ZM349.667 57.0879V17.3344H360.356V24.2705H360.77C361.495 21.8032 362.711 19.9398 364.419 18.6802C366.128 17.4034 368.095 16.765 370.32 16.765C370.873 16.765 371.468 16.7995 372.106 16.8685C372.745 16.9375 373.305 17.0324 373.788 17.1532V26.9363C373.271 26.781 372.555 26.643 371.64 26.5222C370.726 26.4014 369.889 26.341 369.13 26.341C367.508 26.341 366.059 26.6947 364.782 27.4022C363.522 28.0923 362.522 29.0586 361.78 30.3009C361.055 31.5432 360.693 32.9753 360.693 34.5971V57.0879H349.667ZM387.5 57.8384C384.963 57.8384 382.703 57.3985 380.719 56.5185C378.734 55.6213 377.164 54.3013 376.008 52.5587C374.87 50.7988 374.3 48.6075 374.3 45.9849C374.3 43.7763 374.706 41.9215 375.517 40.4204C376.328 38.9193 377.432 37.7115 378.829 36.797C380.227 35.8826 381.814 35.1924 383.591 34.7265C385.386 34.2607 387.267 33.9329 389.234 33.7431C391.546 33.5015 393.409 33.2772 394.824 33.0701C396.239 32.8458 397.265 32.518 397.904 32.0867C398.542 31.6553 398.861 31.0169 398.861 30.1715V30.0162C398.861 28.377 398.344 27.1088 397.309 26.2116C396.291 25.3144 394.841 24.8658 392.96 24.8658C390.976 24.8658 389.398 25.3058 388.224 26.1858C387.051 27.0485 386.275 28.1355 385.895 29.4468L375.698 28.6186C376.215 26.203 377.233 24.1153 378.752 22.3553C380.27 20.5782 382.228 19.2151 384.627 18.2661C387.042 17.2999 389.837 16.8168 393.012 16.8168C395.221 16.8168 397.334 17.0756 399.353 17.5932C401.389 18.1108 403.192 18.9131 404.762 20.0001C406.35 21.0872 407.601 22.4847 408.515 24.1929C409.43 25.8838 409.887 27.9112 409.887 30.275V57.0879H399.431V51.5752H399.12C398.482 52.8175 397.628 53.9131 396.558 54.8621C395.488 55.7938 394.203 56.5271 392.702 57.062C391.201 57.5796 389.467 57.8384 387.5 57.8384ZM390.657 50.2294C392.279 50.2294 393.711 49.9102 394.953 49.2718C396.196 48.6161 397.17 47.7362 397.878 46.6319C398.585 45.5276 398.939 44.2767 398.939 42.8791V38.6605C398.594 38.8848 398.119 39.0918 397.516 39.2816C396.929 39.4542 396.265 39.6181 395.523 39.7734C394.781 39.9114 394.039 40.0408 393.297 40.1616C392.555 40.2651 391.882 40.36 391.278 40.4463C389.984 40.6361 388.854 40.938 387.888 41.3521C386.922 41.7662 386.171 42.327 385.636 43.0344C385.101 43.7246 384.834 44.5873 384.834 45.6225C384.834 47.1236 385.377 48.271 386.464 49.0647C387.569 49.8412 388.966 50.2294 390.657 50.2294ZM451.892 17.3344L437.994 57.0879H425.571L411.673 17.3344H423.32L431.576 45.7778H431.99L440.22 17.3344H451.892ZM455.348 57.0879V17.3344H466.374V57.0879H455.348ZM460.887 12.2099C459.248 12.2099 457.841 11.6664 456.668 10.5794C455.512 9.47513 454.934 8.15519 454.934 6.61957C454.934 5.10121 455.512 3.79852 456.668 2.71152C457.841 1.60725 459.248 1.05512 460.887 1.05512C462.526 1.05512 463.923 1.60725 465.079 2.71152C466.253 3.79852 466.839 5.10121 466.839 6.61957C466.839 8.15519 466.253 9.47513 465.079 10.5794C463.923 11.6664 462.526 12.2099 460.887 12.2099Z" fill="black"/>
<path d="M16.6063 20.3178H0V5.11304H51.5177V20.3178H34.9114V64.4454H16.6063V20.3178Z" fill="black"/>
<path d="M54.3592 5.11304H104.348V20.3178H72.6219V27.7078H104.348V41.8507H72.6219V49.2407H104.348V64.4454H54.3168V5.11304H54.3592Z" fill="black"/>
<path d="M107.406 5.11304H137.391C157.182 5.11304 164.148 19.7232 164.148 34.6731C164.148 52.8933 154.507 64.403 133.823 64.403H107.406V5.11304ZM125.669 49.2407H132.804C144.186 49.2407 145.842 40.0245 145.842 34.4607C145.842 30.7232 144.653 20.3602 131.445 20.3602H125.626V49.2832L125.669 49.2407Z" fill="black"/>
<path d="M190.448 41.726L184.884 32.4673L179.448 41.726H166.069L178.768 23.0386L166.537 5.1582H179.915L184.884 13.9922L189.981 5.1582H203.359L191.127 23.0386L203.826 41.726H190.448Z" fill="black"/>
</g>
</svg>
