<svg width="288" height="65" viewBox="0 0 288 65" fill="none" xmlns="http://www.w3.org/2000/svg">
<mask id="mask0_4287_33721" style="mask-type:luminance" maskUnits="userSpaceOnUse" x="0" y="0" width="288" height="65">
<path d="M287.134 0H0V64.2038H287.134V0Z" fill="white"/>
</mask>
<g mask="url(#mask0_4287_33721)">
<path d="M58.0382 0.204102H6.06787C2.86614 0.204102 0.27063 2.79963 0.27063 6.00134V57.9719C0.27063 61.1736 2.86614 63.7691 6.06787 63.7691H58.0382C61.2402 63.7691 63.8355 61.1736 63.8355 57.9719V6.00134C63.8355 2.79963 61.2402 0.204102 58.0382 0.204102Z" fill="black"/>
<path d="M31.1633 24.0398H23.5588V44.6368H17.4545V24.0398H9.98633V19.2996H31.1633V24.0398Z" fill="white"/>
<path d="M54.0797 44.6368H50.7378V32.9401H37.9497V44.6368H34.6078V19.2996H37.9497V30.212H50.7378V19.2996H54.0797V44.6368Z" fill="#E5E5E5"/>
<path d="M100.286 21.1414H89.6463V50.0594H82.485V21.1414H71.9818V15.3442H100.286V21.1414Z" fill="black"/>
<path d="M117.821 47.4336C116.116 49.5024 113.763 50.5368 110.762 50.5368C107.989 50.5368 105.875 49.7412 104.42 48.1497C102.965 46.5582 102.226 44.228 102.203 41.1589V24.2446H109.092V40.9543C109.092 43.6369 110.319 44.9782 112.774 44.9782C115.116 44.9782 116.719 44.1711 117.583 42.5572V24.2446H124.505V50.0593H118.026L117.821 47.4336Z" fill="black"/>
<path d="M144.209 30.7248C143.254 30.5885 142.424 30.5203 141.719 30.5203C139.105 30.5203 137.4 31.407 136.604 33.1802V50.0603H129.681V24.2456H136.195L136.399 27.3488C137.786 24.9617 139.696 23.7681 142.129 23.7681C142.901 23.7681 143.618 23.8704 144.277 24.0751L144.209 30.7248Z" fill="black"/>
<path fill-rule="evenodd" clip-rule="evenodd" d="M170.772 37.4079C170.772 41.5455 169.886 44.7625 168.112 47.0586C166.362 49.3775 163.895 50.5368 160.712 50.5368C157.916 50.5368 155.688 49.4685 154.029 47.3312L153.722 50.0595H147.515V13.4346H154.404V26.5637C155.995 24.6994 158.087 23.7673 160.678 23.7673C163.816 23.7673 166.282 24.9266 168.078 27.2457C169.874 29.5646 170.772 32.827 170.772 37.0327V37.4079ZM163.884 36.8964C163.884 34.2819 163.463 32.3721 162.622 31.1673C161.804 29.9852 160.576 29.394 158.939 29.394C156.734 29.394 155.222 30.2919 154.404 32.0881V42.2503C155.245 44.0691 156.768 44.9784 158.973 44.9784C161.201 44.9784 162.668 43.8758 163.372 41.6705C163.713 40.6247 163.884 39.0333 163.884 36.8964Z" fill="black"/>
<path fill-rule="evenodd" clip-rule="evenodd" d="M173.952 36.9313C173.952 34.3622 174.441 32.0775 175.419 30.0769C176.419 28.0763 177.84 26.5303 179.682 25.4392C181.546 24.3252 183.693 23.7681 186.125 23.7681C189.627 23.7681 192.47 24.8368 194.653 26.9737C196.856 29.1107 198.096 32.0095 198.37 35.6696L198.403 37.4088C198.403 41.3872 197.3 44.5699 195.095 46.9572C192.866 49.3443 189.9 50.5378 186.195 50.5378C182.466 50.5378 179.488 49.3443 177.26 46.9572C175.055 44.5699 173.952 41.3304 173.952 37.2382V36.9313ZM180.841 37.4088C180.841 39.864 181.307 41.7396 182.239 43.0355C183.147 44.3313 184.467 44.9794 186.195 44.9794C187.853 44.9794 189.15 44.3426 190.082 43.0696C191.038 41.7963 191.514 39.7504 191.514 36.9313C191.514 34.5215 191.038 32.6574 190.082 31.3386C189.15 29.9973 187.831 29.3268 186.125 29.3268C184.445 29.3268 183.147 29.9859 182.239 31.3045C181.307 32.6231 180.841 34.6578 180.841 37.4088Z" fill="black"/>
<path d="M230.717 50.0594H226.114V33.9978H208.586V50.0594H204.015V15.3442H208.586V30.2807H226.114V15.3442H230.717V50.0594Z" fill="black"/>
<path d="M238.189 17.4246C238.189 16.6971 238.404 16.0832 238.837 15.5831C239.268 15.1057 239.915 14.8669 240.779 14.8669C241.643 14.8669 242.293 15.1057 242.724 15.5831C243.179 16.0832 243.404 16.6971 243.404 17.4246C243.404 18.1294 243.179 18.7203 242.724 19.1978C242.293 19.6753 241.643 19.914 240.779 19.914C239.915 19.914 239.268 19.6753 238.837 19.1978C238.404 18.7203 238.189 18.1294 238.189 17.4246ZM242.962 50.0595H238.528V24.2448H242.962V50.0595Z" fill="black"/>
<path d="M262.472 28.2014C261.813 28.1104 261.096 28.065 260.323 28.065C257.436 28.065 255.47 29.2925 254.424 31.7479V50.0603H250.025V24.2456H254.323L254.391 27.2466C255.822 24.9276 257.869 23.7681 260.529 23.7681C261.393 23.7681 262.04 23.882 262.472 24.1091V28.2014Z" fill="black"/>
<path fill-rule="evenodd" clip-rule="evenodd" d="M276.803 50.5378C273.303 50.5378 270.462 49.3898 268.279 47.0935C266.074 44.7974 264.969 41.7283 264.969 37.8861V37.0678C264.969 34.4987 265.459 32.214 266.437 30.2132C267.415 28.1901 268.791 26.6101 270.563 25.4733C272.314 24.3365 274.211 23.7681 276.258 23.7681C279.623 23.7681 282.237 24.8821 284.1 27.1102C285.944 29.3153 286.863 32.4754 286.863 36.5903V38.4317H269.403C269.451 40.978 270.188 43.0355 271.621 44.604C273.052 46.1728 274.859 46.9572 277.042 46.9572C278.612 46.9572 279.929 46.6388 280.998 46.0022C282.09 45.3657 283.046 44.5132 283.862 43.4447L286.557 45.5588C284.374 48.8782 281.123 50.5378 276.803 50.5378ZM276.258 27.417C274.484 27.417 272.995 28.065 271.792 29.3608C270.563 30.6566 269.814 32.4754 269.541 34.817H282.464V34.476C282.328 32.2254 281.725 30.4862 280.657 29.2584C279.566 28.0308 278.1 27.417 276.258 27.417Z" fill="black"/>
</g>
</svg>
