<svg width="140" height="32" viewBox="0 0 140 32" fill="none" xmlns="http://www.w3.org/2000/svg">
<mask id="mask0_3505_317" style="mask-type:luminance" maskUnits="userSpaceOnUse" x="0" y="0" width="140" height="32">
<path d="M139.579 0H0V31.365H139.579V0Z" fill="white"/>
</mask>
<g mask="url(#mask0_3505_317)">
<path d="M28.2142 0.0981445H2.95091C1.39452 0.0981445 0.132812 1.36612 0.132812 2.93023V28.319C0.132812 29.8831 1.39452 31.1512 2.95091 31.1512H28.2142C29.7708 31.1512 31.0324 29.8831 31.0324 28.319V2.93023C31.0324 1.36612 29.7708 0.0981445 28.2142 0.0981445Z" fill="#121212"/>
<path d="M15.1538 11.743H11.4571V21.805H8.48975V11.743H4.85938V9.42725H15.1538V11.743Z" fill="white"/>
<path d="M26.2897 21.805H24.6652V16.091H18.4487V21.805H16.8242V9.42725H18.4487V14.7582H24.6652V9.42725H26.2897V21.805Z" fill="#B8B8B8"/>
<path d="M48.7511 10.3272H43.5791V24.4543H40.0978V10.3272H34.9922V7.49512H48.7511V10.3272Z" fill="#121212"/>
<path d="M57.272 23.1712C56.4431 24.1818 55.2993 24.6872 53.8405 24.6872C52.4922 24.6872 51.4645 24.2985 50.7573 23.5211C50.0499 22.7435 49.6908 21.6051 49.6797 20.1058V11.8428H53.0284V20.0059C53.0284 21.3164 53.625 21.9717 54.8186 21.9717C55.9569 21.9717 56.736 21.5774 57.156 20.789V11.8428H60.5211V24.4539H57.3715L57.272 23.1712Z" fill="#121212"/>
<path d="M70.1009 15.006C69.6368 14.9394 69.2334 14.906 68.8908 14.906C67.6199 14.906 66.791 15.3393 66.4043 16.2055V24.4518H63.0391V11.8408H66.2052L66.3047 13.3567C66.9789 12.1906 67.9072 11.6074 69.0896 11.6074C69.4654 11.6074 69.8136 11.6574 70.1339 11.7575L70.1009 15.006Z" fill="#121212"/>
<path fill-rule="evenodd" clip-rule="evenodd" d="M83.0165 18.275C83.0165 20.2964 82.5854 21.8679 81.7235 22.9896C80.8725 24.1224 79.6734 24.6888 78.1263 24.6888C76.767 24.6888 75.684 24.1668 74.8771 23.1228L74.728 24.4556H71.7109V6.56348H75.0595V12.9773C75.8331 12.0666 76.8499 11.6112 78.1097 11.6112C79.6348 11.6112 80.834 12.1777 81.7069 13.3105C82.58 14.4434 83.0165 16.0372 83.0165 18.0917V18.275ZM79.6679 18.0252C79.6679 16.7479 79.4635 15.8149 79.0546 15.2263C78.6567 14.6488 78.06 14.36 77.2642 14.36C76.1923 14.36 75.4573 14.7987 75.0595 15.6762V20.6406C75.4684 21.5292 76.209 21.9734 77.2809 21.9734C78.3638 21.9734 79.0767 21.4348 79.4193 20.3574C79.5851 19.8465 79.6679 19.0691 79.6679 18.0252Z" fill="#121212"/>
<path fill-rule="evenodd" clip-rule="evenodd" d="M84.5625 18.0385C84.5625 16.7835 84.8001 15.6673 85.2754 14.69C85.7616 13.7126 86.4524 12.9573 87.3479 12.4244C88.2538 11.8801 89.2975 11.6079 90.4799 11.6079C92.1822 11.6079 93.5644 12.13 94.6255 13.174C95.6964 14.218 96.2993 15.6341 96.4321 17.4221L96.4482 18.2717C96.4482 20.2153 95.9122 21.7701 94.8404 22.9363C93.757 24.1025 92.3151 24.6855 90.5137 24.6855C88.7012 24.6855 87.2534 24.1025 86.1705 22.9363C85.0985 21.7701 84.5625 20.1876 84.5625 18.1885V18.0385ZM87.9114 18.2717C87.9114 19.4712 88.1377 20.3875 88.5911 21.0205C89.0323 21.6535 89.6737 21.9701 90.5137 21.9701C91.3199 21.9701 91.9504 21.6591 92.4033 21.0372C92.8679 20.4152 93.0998 19.4157 93.0998 18.0385C93.0998 16.8612 92.8679 15.9506 92.4033 15.3063C91.9504 14.6511 91.3092 14.3235 90.4799 14.3235C89.6631 14.3235 89.0323 14.6456 88.5911 15.2896C88.1377 15.9338 87.9114 16.9278 87.9114 18.2717Z" fill="#121212"/>
<path d="M112.16 24.4543H109.922V16.6079H101.402V24.4543H99.1797V7.49512H101.402V14.792H109.922V7.49512H112.16V24.4543Z" fill="#121212"/>
<path d="M115.789 8.5102C115.789 8.1548 115.894 7.85493 116.104 7.61059C116.314 7.37735 116.628 7.26074 117.048 7.26074C117.468 7.26074 117.784 7.37735 117.994 7.61059C118.215 7.85493 118.325 8.1548 118.325 8.5102C118.325 8.85451 118.215 9.14322 117.994 9.37649C117.784 9.60975 117.468 9.72634 117.048 9.72634C116.628 9.72634 116.314 9.60975 116.104 9.37649C115.894 9.14322 115.789 8.85451 115.789 8.5102ZM118.11 24.4531H115.954V11.8421H118.11V24.4531Z" fill="#121212"/>
<path d="M127.597 13.7733C127.277 13.7288 126.928 13.7066 126.553 13.7066C125.15 13.7066 124.193 14.3063 123.685 15.5058V24.4518H121.547V11.8408H123.637L123.669 13.3068C124.365 12.174 125.36 11.6074 126.652 11.6074C127.072 11.6074 127.387 11.6631 127.597 11.7741V13.7733Z" fill="#121212"/>
<path fill-rule="evenodd" clip-rule="evenodd" d="M134.557 24.6851C132.856 24.6851 131.475 24.1243 130.414 23.0024C129.342 21.8807 128.805 20.3815 128.805 18.5045V18.1047C128.805 16.8496 129.043 15.7335 129.518 14.7561C129.994 13.7677 130.662 12.9958 131.524 12.4405C132.375 11.8852 133.297 11.6074 134.293 11.6074C135.928 11.6074 137.198 12.1517 138.105 13.2401C139.001 14.3174 139.448 15.8612 139.448 17.8715V18.771H130.961C130.983 20.0149 131.342 21.02 132.038 21.7863C132.734 22.5527 133.612 22.9359 134.673 22.9359C135.437 22.9359 136.077 22.7804 136.597 22.4694C137.128 22.1584 137.593 21.7419 137.989 21.22L139.298 22.2528C138.238 23.8743 136.657 24.6851 134.557 24.6851ZM134.293 13.3901C133.43 13.3901 132.706 13.7066 132.121 14.3396C131.524 14.9726 131.16 15.8612 131.027 17.0051H137.309V16.8386C137.243 15.7391 136.95 14.8895 136.431 14.2896C135.9 13.6899 135.188 13.3901 134.293 13.3901Z" fill="#121212"/>
</g>
</svg>
