<svg width="160" height="53" viewBox="0 0 160 53" fill="none" xmlns="http://www.w3.org/2000/svg">
<g clip-path="url(#clip0_3506_670)">
<mask id="mask0_3506_670" style="mask-type:luminance" maskUnits="userSpaceOnUse" x="0" y="0" width="160" height="53">
<path d="M159.786 0H0.00390625V52.234H159.786V0Z" fill="white"/>
</mask>
<g mask="url(#mask0_3506_670)">
<path d="M52.7089 27.8631C52.6732 29.6153 53.138 31.3318 55.0869 31.3497C56.3743 31.3676 57.608 30.3126 57.9656 29.5796H57.9835C58.788 31.2066 60.3794 31.4212 61.3091 31.3854C63.9733 31.2961 64.6526 27.7379 64.6169 24.609C64.6169 24.4838 64.6169 24.3408 64.6169 24.1978C64.5454 24.1978 64.2414 24.1978 64.1699 24.1978C64.0627 24.1978 63.7408 24.1798 63.7408 24.1798C63.4547 24.1978 62.5429 24.305 62.2747 24.305C62.1674 24.3408 62.1317 24.4838 62.1317 24.5553C62.1317 25.5387 62.0779 29.4187 61.0589 29.2756C59.2171 29.0431 59.4317 26.3612 59.5747 24.5374C59.5927 24.3587 59.5927 24.1978 59.6106 24.0368L59.5391 23.9832C59.5211 23.9832 58.2874 24.0189 57.7868 24.0368C57.769 24.0726 57.5544 24.0904 57.5007 24.0904C57.4292 24.1619 57.4114 24.2872 57.4114 24.3408C57.3756 24.8771 57.4114 25.36 57.3756 25.8784C57.2861 26.8081 57.0359 28.8107 55.8916 28.7929C55.8557 28.7929 55.677 28.7929 55.6591 28.7929C54.7114 28.6676 55.4804 25.4851 55.7842 24.305C55.6591 24.305 55.1943 24.2872 55.1049 24.2872C54.6221 24.2872 53.4063 24.305 53.4063 24.305L53.2454 24.3408C53.2454 24.3408 53.138 24.6805 53.0844 24.7878C53.0487 24.9845 52.9057 25.6461 52.9057 25.6997C52.8878 25.7533 52.8162 26.4864 52.7626 26.7724C52.7447 26.9334 52.7268 27.7022 52.7089 27.8631ZM65.8781 31.4391L65.9676 31.5642L67.684 31.6178C67.7018 31.6178 67.8271 31.5642 67.8807 31.5463L67.9164 31.4927C67.9343 31.4569 67.9343 31.2961 67.9343 31.2602C67.9343 31.2066 67.9343 31.0278 67.9343 31.01L68.1309 23.8758C67.8986 23.715 66.2714 23.6256 66.0391 23.6971L66.0032 23.7328C65.9496 23.7686 65.896 23.9117 65.896 23.9117L65.8781 31.4391ZM66.0212 20.586C65.9676 21.4085 66.6112 21.7661 67.3979 21.784C68.2383 21.8197 68.5423 21.1224 68.5779 20.3893C68.5959 19.7636 68.0773 19.2093 67.4515 19.1914C67.237 19.1914 66.9866 19.1914 66.8258 19.2629C66.3967 19.4596 66.0391 20.1748 66.0212 20.586Z" fill="#121212"/>
<path d="M69.29 31.2248C69.29 31.2784 69.272 31.3856 69.3256 31.3856L69.5581 31.4035L74.8685 31.4393C74.8864 31.4393 75.0294 31.5109 75.0472 31.4035C75.0651 31.3678 75.0651 31.1533 75.0651 31.0817C75.083 31.028 75.1009 30.7957 75.1009 30.7778C75.083 30.5632 75.083 29.544 75.083 29.3474C75.083 29.3474 74.9936 29.3294 74.9757 29.3294L72.544 29.4368L75.1545 26.3256C75.387 23.4649 75.3512 24.1621 75.3691 23.9834C75.2976 23.9298 75.2797 23.9298 75.2081 23.9298L69.2005 23.6079C69.2005 23.6079 69.2005 23.6794 69.2005 23.6973C69.129 24.3767 69.2184 25.0741 69.1826 25.7535H73.0984C73.0984 25.7535 73.1162 25.7893 73.0984 25.7893C73.0984 25.8071 73.0269 25.8965 73.009 25.9324C72.7765 26.1647 72.2579 26.7368 72.2402 26.7727L69.3972 29.705V29.7406L69.29 31.2248Z" fill="#121212"/>
<path d="M77.1406 31.4573C77.1406 31.5468 77.1765 31.5647 77.2837 31.5647C77.9273 31.5647 78.5532 31.4216 79.1969 31.4573L79.3041 31.4216L79.3399 28.3105C79.3399 28.2212 79.4472 28.0782 79.5187 28.0423L80.0193 27.6132L82.4153 31.5289C82.433 31.5468 82.451 31.6004 82.4868 31.6183C82.5225 31.6541 82.5583 31.6541 82.6119 31.6541H82.6476L84.5786 31.6183C84.686 31.6362 84.686 31.5289 84.686 31.4573L81.5033 26.3974L84.686 23.6976H81.9146C81.8967 23.6976 81.8431 23.6976 81.8252 23.6976H81.7716L79.4651 25.6465C79.3756 22.3029 79.626 19.8534 79.626 18.0476L77.2837 18.0117L77.1406 31.368C77.1406 31.3858 77.1406 31.4396 77.1406 31.4573ZM85.5784 31.4396L85.6679 31.5647L87.3843 31.6183C87.4021 31.6183 87.5274 31.5647 87.581 31.5468L87.6166 31.4932C87.6346 31.4573 87.6346 31.2965 87.6346 31.2607C87.6346 31.2071 87.6346 31.0282 87.6346 31.0104L87.8312 23.8763C87.5989 23.7155 85.9717 23.6261 85.7394 23.6976L85.7035 23.7333C85.6499 23.7691 85.5963 23.9121 85.5963 23.9121L85.5784 31.4396ZM85.7215 20.5864C85.6679 21.409 86.3115 21.7666 87.0982 21.7845C87.9386 21.8202 88.2425 21.1229 88.2782 20.3898C88.2962 19.764 87.7776 19.2098 87.1518 19.1919C86.9373 19.1919 86.6869 19.1919 86.5261 19.2634C86.097 19.46 85.7394 20.1752 85.7215 20.5864Z" fill="#121212"/>
<path d="M88.8376 28.2925C88.8376 30.0089 89.7851 31.5644 91.591 31.5644C92.6102 31.5644 93.3611 30.8849 93.7545 30.0089H93.7902L93.9155 31.3678C93.9155 31.3856 93.9511 31.5108 94.0227 31.5108H94.0406C94.2372 31.5108 95.167 31.4214 95.3636 31.4035C95.5425 31.2963 95.5782 31.171 95.5961 30.9565L96.2756 19.7638V19.4241C96.2756 19.3703 96.1862 19.3883 96.1683 19.3883L94.7199 19.2988C94.5948 19.2988 94.2908 19.3526 94.2908 19.3526L94.2015 19.4419L93.7009 24.6807C91.0189 22.8212 88.7661 25.521 88.8376 28.221C88.8376 28.2387 88.8376 28.2746 88.8376 28.2925ZM90.7686 27.9527C90.7686 26.1111 92.3777 25.6284 93.54 27.0051C93.5936 27.3627 93.5936 27.5594 93.5936 27.8634C93.5936 27.9349 93.5756 28.1672 93.5756 28.221C93.379 29.0254 92.5923 29.5083 91.7877 29.5083C90.9653 29.5083 90.7686 28.6501 90.7686 27.9527ZM103.764 29.8659C103.889 29.4904 103.96 29.1328 103.96 28.8288C103.96 27.4163 102.637 26.9336 101.546 26.5581C100.742 26.272 100.045 26.0396 100.116 25.4674C100.152 25.1992 100.456 25.0383 100.903 25.0383C101.421 25.0383 102.154 25.2708 102.977 25.9501C105.712 24.2159 101.922 23.0537 100.831 23.0537C99.4724 23.0537 98.346 23.6973 97.9348 24.5556C97.7738 24.9668 97.6844 25.3244 97.6844 25.664C97.6844 26.433 98.1671 27.0944 99.5975 27.8454C99.83 27.9349 100.098 28.0421 100.349 28.1315C100.366 28.1315 100.402 28.1494 100.42 28.1494C101.028 28.364 101.654 28.5786 101.582 28.9539C101.511 29.3115 101.296 29.5261 100.831 29.5261C99.9909 29.5261 99.1506 29.0792 98.5785 28.7573L98.1671 28.5248C98.2029 28.2746 96.9871 29.9374 97.005 29.9016L96.9871 30.0625C96.9871 30.0625 97.2196 30.2771 97.2732 30.3307L97.2553 30.3128C98.0778 31.0102 99.5439 31.5108 100.885 31.5108C102.19 31.5108 103.388 31.0638 103.764 29.8659Z" fill="#121212"/>
<path d="M108.289 31.6894C110.828 31.8503 111.901 29.7226 111.847 28.5425L110.023 28.31C109.898 29.222 109.398 29.8299 108.736 29.8657C107.663 29.9014 107.359 28.7391 107.288 28.0598C107.198 27.1657 107.431 24.9845 108.933 24.9845C109.845 24.9845 109.451 26.6115 109.326 27.0406C109.326 27.0585 109.308 27.0764 109.326 27.0942L111.436 27.13C112.08 25.0917 111.436 23.125 109.04 23.0714C106.483 23.0176 105.267 25.0024 105.232 27.434C105.196 29.8299 106.018 31.5284 108.289 31.6894ZM116.677 31.3676C116.963 31.3854 118.232 31.4212 118.501 31.4212H118.554C118.769 31.4212 118.858 31.1887 118.858 31.0278C118.84 30.6881 118.912 28.0419 118.912 27.7022V27.2372C118.912 22.8568 115.622 21.8197 112.904 24.1083L113.87 25.6102C115.139 24.6448 116.516 24.4659 116.713 26.0752C115.282 26.6651 112.403 27.2731 112.403 29.4902C112.403 30.3126 113.28 30.7596 114.013 30.8132C115.371 30.7954 115.961 30.6702 116.623 30.5094C116.623 30.5094 116.659 30.5271 116.677 30.5271C116.677 30.7954 116.659 31.0278 116.659 31.2602C116.659 31.2961 116.623 31.3676 116.677 31.3676ZM115.103 29.079C115.139 28.6319 116.301 28.024 116.695 28.024H116.713C116.73 28.024 116.748 28.0419 116.748 28.0419L116.766 29.2935L116.73 29.3292C116.713 29.3471 116.409 29.4187 116.301 29.4366H115.89C115.622 29.4366 115.068 29.4366 115.103 29.079ZM119.99 31.2782C120.741 31.2961 122.386 31.5284 122.404 31.2602C122.421 29.6689 122.386 27.0406 122.815 26.2718C123.244 25.8963 123.834 25.7891 124.335 25.8427C124.889 25.8963 125.354 26.1288 125.729 26.5221C125.997 26.54 126.838 25.0024 126.891 24.7878C125.836 23.0891 123.762 23.4826 122.386 24.4123C122.386 24.3587 122.404 24.3408 122.421 24.305C122.421 24.2872 122.404 24.2693 122.386 24.2157C122.386 24.1978 122.386 24.1619 122.386 24.1441C122.386 24.1262 122.386 24.1083 122.386 24.0904C122.439 23.4646 122.457 23.2322 121.992 23.1965C121.706 23.1606 120.347 23.2322 120.347 23.3216C120.347 23.3395 120.347 23.3574 120.347 23.3574L119.99 31.2782ZM127.463 31.2961C127.463 31.3676 127.499 31.4748 127.517 31.4748H129.823C129.895 29.9729 129.698 28.8286 130.163 27.5592C130.52 26.7724 131.343 26.1645 132.201 26.1645C133.042 26.1645 133.149 27.291 133.185 27.9347C133.202 28.2923 133.274 30.1695 133.292 30.6345C133.292 30.7239 133.31 31.1887 133.31 31.2961H135.509C135.509 31.0636 135.473 30.0802 135.473 29.8657C135.473 29.8657 135.473 29.8299 135.473 29.8119C135.402 27.6486 135.902 23.9653 132.898 23.9653C131.522 23.9653 130.646 24.4123 129.877 25.4493H129.805L129.752 24.1798C129.752 24.1619 129.698 24.1441 129.68 24.1441L127.713 24.0904L127.463 31.2961ZM136.756 31.4391L136.846 31.5642L138.562 31.6178C138.58 31.6178 138.705 31.5642 138.759 31.5463L138.795 31.4927C138.812 31.4569 138.812 31.2961 138.812 31.2602C138.812 31.2066 138.812 31.0278 138.812 31.01L139.009 23.8758C138.777 23.715 137.15 23.6256 136.917 23.6971L136.881 23.7328C136.828 23.7686 136.774 23.9117 136.774 23.9117L136.756 31.4391ZM136.899 20.586C136.846 21.4085 137.489 21.7661 138.276 21.784C139.116 21.8197 139.42 21.1224 139.456 20.3893C139.474 19.7636 138.955 19.2093 138.33 19.1914C138.115 19.1914 137.865 19.1914 137.704 19.2629C137.275 19.4596 136.917 20.1748 136.899 20.586Z" fill="#121212"/>
<path d="M142.943 31.6183H144.731L148.503 23.8586H146.054C146.036 23.8586 145.982 23.8943 145.982 23.9301L144.051 27.7384L143.98 27.6848L142.567 23.6261C141.566 23.6261 140.94 23.6976 139.957 23.6797L140.511 24.9135L142.943 31.6183ZM153.135 31.3681C153.421 31.3859 154.691 31.4217 154.959 31.4217H155.013C155.227 31.4217 155.317 31.1892 155.317 31.0283C155.298 30.6886 155.37 28.0424 155.37 27.7027V27.2378C155.37 22.8573 152.08 21.8202 149.362 24.1088L150.328 25.6107C151.597 24.6453 152.974 24.4664 153.171 26.0757C151.741 26.6656 148.861 27.2736 148.861 29.4907C148.861 30.3131 149.738 30.7601 150.471 30.8137C151.83 30.7959 152.419 30.6707 153.082 30.5099C153.082 30.5099 153.117 30.5276 153.135 30.5276C153.135 30.7959 153.117 31.0283 153.117 31.2607C153.117 31.2966 153.082 31.3681 153.135 31.3681ZM151.562 29.0795C151.597 28.6325 152.76 28.0245 153.152 28.0245H153.171C153.189 28.0245 153.206 28.0424 153.206 28.0424L153.224 29.294L153.189 29.3297C153.171 29.3476 152.867 29.4192 152.76 29.4371H152.349C152.08 29.4371 151.526 29.4371 151.562 29.0795ZM156.627 31.2251H158.558L159.076 18.3694C159.022 18.3337 158.683 18.2979 158.611 18.2979C158.523 18.2979 157.86 18.2979 157.574 18.2979C157.377 18.2979 156.824 18.2979 156.806 18.2979L156.699 18.4052L156.627 31.2251Z" fill="#121212"/>
<path d="M65.8945 40.9791V35.3156H66.8816V40.9791H65.8945ZM67.9743 40.9791V36.898H68.8399V37.2818C68.9887 37.1303 69.1506 37.0168 69.3255 36.941C69.5005 36.8627 69.6884 36.8235 69.8896 36.8235C70.1324 36.8235 70.3465 36.8745 70.5318 36.9762C70.7199 37.0782 70.87 37.2256 70.9822 37.4189C71.1573 37.2231 71.3492 37.0755 71.5581 36.9762C71.7695 36.8745 71.9914 36.8235 72.2239 36.8235C72.6234 36.8235 72.9368 36.9514 73.1639 37.2074C73.3936 37.4607 73.5086 37.8092 73.5086 38.2532V40.9791H72.643V38.4137C72.643 38.1474 72.5894 37.9477 72.4824 37.8145C72.3753 37.6787 72.2173 37.6108 72.0085 37.6108C71.7709 37.6108 71.5711 37.7008 71.4091 37.881C71.2473 38.0612 71.1664 38.2871 71.1664 38.5586V40.9791H70.3243V38.4137C70.3243 38.1474 70.2707 37.9477 70.1637 37.8145C70.0566 37.6787 69.8987 37.6108 69.6898 37.6108C69.4521 37.6108 69.2511 37.7008 69.0866 37.881C68.9221 38.0612 68.8399 38.2871 68.8399 38.5586V40.9791H67.9743ZM77.0414 40.9791C76.9683 40.9268 76.9147 40.8707 76.8807 40.8107C76.8495 40.7506 76.8337 40.6814 76.8337 40.6032C76.685 40.7468 76.5205 40.8538 76.3403 40.9243C76.1628 40.9922 75.9604 41.0261 75.7332 41.0261C75.3207 41.0261 74.9811 40.9073 74.7149 40.6697C74.4485 40.4321 74.3154 40.1318 74.3154 39.7689C74.3154 39.3798 74.4367 39.0873 74.6796 38.8915C74.9224 38.6931 75.3703 38.5416 76.0231 38.4372H76.0269C76.5806 38.3458 76.8572 38.18 76.8572 37.9398C76.8572 37.8014 76.7947 37.6931 76.6693 37.6148C76.5466 37.5364 76.3716 37.4971 76.1444 37.4971C75.8964 37.4971 75.7044 37.5481 75.5687 37.65C75.4355 37.7491 75.365 37.8928 75.3572 38.0807L74.5072 38.0847C74.5595 37.633 74.72 37.3027 74.9891 37.0937C75.258 36.8823 75.6562 36.7765 76.1836 36.7765C76.7189 36.7765 77.1053 36.8718 77.3429 37.0624C77.5805 37.2504 77.6993 37.5612 77.6993 37.9947V40.0391C77.6993 40.3081 77.7097 40.5079 77.7307 40.6384C77.7516 40.769 77.7868 40.8825 77.8365 40.9791H77.0414ZM76.8652 38.8838C76.6928 38.9412 76.4538 39.0026 76.1484 39.0678C75.5634 39.1932 75.271 39.4073 75.271 39.7101C75.271 39.8746 75.3285 40.0065 75.4433 40.1058C75.5609 40.2024 75.7201 40.2506 75.9212 40.2506C76.2528 40.2506 76.4944 40.1683 76.6458 40.0038C76.7972 39.8394 76.8729 39.5731 76.8729 39.2049C76.8729 39.1684 76.8716 39.1148 76.869 39.0443C76.8665 38.9738 76.8652 38.9203 76.8652 38.8838ZM81.1618 38.7428C81.1618 38.3667 81.0847 38.0834 80.9306 37.8928C80.7792 37.6995 80.556 37.603 80.2608 37.603C79.9684 37.603 79.7399 37.7022 79.5754 37.9006C79.4136 38.0991 79.3327 38.3798 79.3327 38.7428C79.3327 39.103 79.4136 39.3825 79.5754 39.5809C79.7399 39.7793 79.9684 39.8786 80.2608 39.8786C80.556 39.8786 80.7792 39.7833 80.9306 39.5926C81.0847 39.3994 81.1618 39.1161 81.1618 38.7428ZM81.1618 40.2898C81.0312 40.4281 80.8796 40.5313 80.7074 40.5992C80.5376 40.6645 80.3419 40.6971 80.1198 40.6971C79.6133 40.6971 79.2021 40.5196 78.8861 40.1645C78.5728 39.8068 78.4161 39.338 78.4161 38.7583C78.4161 38.1734 78.5715 37.7035 78.8822 37.3484C79.1955 36.9933 79.6082 36.8157 80.1198 36.8157C80.3392 36.8157 80.5338 36.8497 80.7034 36.9175C80.8732 36.9828 81.0259 37.0859 81.1618 37.2269V36.898H82.0273V40.329C82.0273 40.6293 82.0143 40.8472 81.9881 40.9831C81.9646 41.1188 81.9241 41.2429 81.8667 41.3551C81.744 41.5953 81.5364 41.782 81.244 41.9152C80.9541 42.051 80.6081 42.1189 80.206 42.1189C79.7073 42.1189 79.3117 42.0118 79.0193 41.7977C78.7295 41.5862 78.5715 41.2899 78.5454 40.9086H79.5481C79.5689 41.0549 79.629 41.1606 79.7281 41.2258C79.8274 41.2912 79.9815 41.3238 80.1903 41.3238C80.5403 41.3238 80.7896 41.265 80.9384 41.1476C81.0873 41.0327 81.1618 40.8408 81.1618 40.5717V40.2898ZM83.0221 36.2948V35.3156H83.8955V36.2948H83.0221ZM83.0221 40.9791V36.898H83.8955V40.9791H83.0221ZM84.8943 40.9791V36.898H85.7598V37.2818C85.9192 37.1303 86.0941 37.0168 86.2847 36.941C86.4753 36.8627 86.6802 36.8235 86.8996 36.8235C87.3174 36.8235 87.6477 36.9514 87.8906 37.2074C88.1333 37.4607 88.2548 37.8092 88.2548 38.2532V40.9791H87.3892V38.4137C87.3892 38.1499 87.3305 37.9502 87.213 37.8145C87.0955 37.6787 86.9244 37.6108 86.6999 37.6108C86.4361 37.6108 86.2129 37.7008 86.0301 37.881C85.8499 38.0612 85.7598 38.2871 85.7598 38.5586V40.9791H84.8943ZM89.9077 38.4451H91.7093C91.6858 38.1891 91.5918 37.9803 91.4272 37.8183C91.2627 37.6538 91.067 37.5716 90.8398 37.5716C90.6099 37.5716 90.4062 37.6538 90.2287 37.8183C90.0538 37.9803 89.9467 38.1891 89.9077 38.4451ZM92.7001 40.047C92.473 40.3917 92.2118 40.6515 91.9168 40.8264C91.6218 40.9986 91.2941 41.0849 90.9338 41.0849C90.3515 41.0849 89.8776 40.8838 89.512 40.4817C89.149 40.077 88.9676 39.5483 88.9676 38.8955C88.9676 38.2818 89.1425 37.7766 89.4924 37.3797C89.845 36.9828 90.2888 36.7844 90.8241 36.7844C91.3959 36.7844 91.8554 36.9997 92.2027 37.4306C92.5501 37.8589 92.7236 38.432 92.7236 39.15V39.197H89.9077C89.9389 39.5155 90.0525 39.7702 90.2484 39.9608C90.4468 40.1488 90.6948 40.2428 90.9925 40.2428C91.1884 40.2428 91.3737 40.1893 91.5486 40.0823C91.7235 39.9752 91.8659 39.8276 91.9756 39.6396L92.7001 40.047ZM96.9772 34.8496H97.6743V42.8709H96.9772V34.8496ZM106.722 39.432C106.529 39.9856 106.243 40.4046 105.864 40.6892C105.485 40.9738 105.023 41.1161 104.478 41.1161C103.712 41.1161 103.108 40.8499 102.664 40.3172C102.22 39.7819 101.998 39.0509 101.998 38.1239C101.998 37.2413 102.225 36.5298 102.68 35.9894C103.137 35.4488 103.739 35.1786 104.485 35.1786C105.068 35.1786 105.548 35.3273 105.927 35.625C106.305 35.9227 106.563 36.3549 106.698 36.9215L105.774 37.1761C105.685 36.8339 105.526 36.565 105.296 36.3693C105.066 36.1707 104.799 36.0716 104.493 36.0716C104.062 36.0716 103.709 36.2622 103.432 36.6433C103.155 37.0221 103.017 37.5102 103.017 38.1082C103.017 38.7428 103.155 39.2506 103.432 39.6319C103.709 40.0104 104.073 40.1997 104.525 40.1997C104.83 40.1997 105.099 40.0978 105.331 39.8941C105.564 39.6906 105.734 39.4073 105.841 39.0443L106.722 39.432ZM107.517 40.9791V36.898H108.39V37.4894C108.526 37.257 108.685 37.0859 108.868 36.9762C109.054 36.864 109.269 36.8079 109.514 36.8079C109.559 36.8079 109.591 36.8091 109.612 36.8118C109.633 36.8118 109.654 36.8144 109.675 36.8197V37.791C109.657 37.791 109.636 37.791 109.612 37.791C109.589 37.7884 109.554 37.787 109.507 37.787C109.165 37.787 108.893 37.8746 108.692 38.0495C108.491 38.2217 108.39 38.4555 108.39 38.7506V40.9791H107.517Z" fill="#121212"/>
<path d="M110.831 38.4451H112.632C112.609 38.1891 112.515 37.9803 112.35 37.8183C112.186 37.6538 111.99 37.5716 111.763 37.5716C111.533 37.5716 111.329 37.6538 111.152 37.8183C110.977 37.9803 110.87 38.1891 110.831 38.4451ZM113.623 40.047C113.396 40.3917 113.135 40.6515 112.84 40.8264C112.545 40.9986 112.217 41.0849 111.857 41.0849C111.274 41.0849 110.801 40.8838 110.435 40.4817C110.072 40.077 109.891 39.5483 109.891 38.8955C109.891 38.2818 110.066 37.7766 110.415 37.3797C110.768 36.9828 111.212 36.7844 111.747 36.7844C112.319 36.7844 112.778 36.9997 113.126 37.4306C113.473 37.8589 113.647 38.432 113.647 39.15V39.197H110.831C110.862 39.5155 110.975 39.7702 111.171 39.9608C111.37 40.1488 111.618 40.2428 111.915 40.2428C112.111 40.2428 112.297 40.1893 112.472 40.0823C112.647 39.9752 112.789 39.8276 112.899 39.6396L113.623 40.047ZM116.921 40.9791C116.848 40.9268 116.794 40.8707 116.76 40.8107C116.729 40.7506 116.713 40.6814 116.713 40.6032C116.565 40.7468 116.4 40.8538 116.22 40.9243C116.042 40.9922 115.84 41.0261 115.613 41.0261C115.2 41.0261 114.861 40.9073 114.594 40.6697C114.328 40.4321 114.195 40.1318 114.195 39.7689C114.195 39.3798 114.316 39.0873 114.559 38.8915C114.802 38.6931 115.25 38.5416 115.903 38.4372H115.907C116.46 38.3458 116.737 38.18 116.737 37.9398C116.737 37.8014 116.674 37.6931 116.549 37.6148C116.426 37.5364 116.251 37.4971 116.024 37.4971C115.776 37.4971 115.584 37.5481 115.448 37.65C115.315 37.7491 115.245 37.8928 115.237 38.0807L114.387 38.0847C114.439 37.633 114.6 37.3027 114.869 37.0937C115.138 36.8823 115.536 36.7765 116.063 36.7765C116.598 36.7765 116.985 36.8718 117.223 37.0624C117.46 37.2504 117.579 37.5612 117.579 37.9947V40.0391C117.579 40.3081 117.589 40.5079 117.61 40.6384C117.631 40.769 117.666 40.8825 117.716 40.9791H116.921ZM116.745 38.8838C116.572 38.9412 116.334 39.0026 116.028 39.0678C115.443 39.1932 115.151 39.4073 115.151 39.7101C115.151 39.8746 115.208 40.0065 115.323 40.1058C115.44 40.2024 115.6 40.2506 115.801 40.2506C116.132 40.2506 116.374 40.1683 116.525 40.0038C116.677 39.8394 116.753 39.5731 116.753 39.2049C116.753 39.1684 116.751 39.1148 116.749 39.0443C116.746 38.9738 116.745 38.9203 116.745 38.8838ZM119.533 39.6396C119.533 39.8955 119.57 40.0613 119.643 40.137C119.719 40.2128 119.859 40.2506 120.062 40.2506C120.093 40.2506 120.127 40.2494 120.164 40.2467C120.203 40.2441 120.244 40.2401 120.285 40.235V40.9791C120.215 40.9973 120.142 41.0104 120.066 41.0183C119.993 41.0288 119.917 41.0339 119.839 41.0339C119.398 41.0339 119.091 40.9478 118.918 40.7754C118.746 40.6032 118.66 40.2428 118.66 39.6944V37.6186H118.018V36.898H118.66V35.4762H119.533V36.898H120.285V37.6186H119.533V39.6396ZM121.539 38.4451H123.34C123.317 38.1891 123.223 37.9803 123.058 37.8183C122.894 37.6538 122.698 37.5716 122.471 37.5716C122.241 37.5716 122.037 37.6538 121.86 37.8183C121.685 37.9803 121.578 38.1891 121.539 38.4451ZM124.331 40.047C124.104 40.3917 123.843 40.6515 123.548 40.8264C123.253 40.9986 122.925 41.0849 122.565 41.0849C121.983 41.0849 121.509 40.8838 121.143 40.4817C120.78 40.077 120.599 39.5483 120.599 38.8955C120.599 38.2818 120.774 37.7766 121.124 37.3797C121.476 36.9828 121.92 36.7844 122.455 36.7844C123.027 36.7844 123.487 36.9997 123.834 37.4306C124.181 37.8589 124.355 38.432 124.355 39.15V39.197H121.539C121.57 39.5155 121.684 39.7702 121.879 39.9608C122.078 40.1488 122.326 40.2428 122.624 40.2428C122.819 40.2428 123.005 40.1893 123.18 40.0823C123.355 39.9752 123.497 39.8276 123.607 39.6396L124.331 40.047ZM128.608 34.8496H129.306V42.8709H128.608V34.8496Z" fill="#121212"/>
<path d="M134.784 40.9785L133.562 35.3149H134.518L135.305 39.3296C135.324 39.4236 135.339 39.5293 135.352 39.6468C135.365 39.7643 135.376 39.8975 135.384 40.0464C135.397 39.9158 135.411 39.7917 135.427 39.6742C135.442 39.5541 135.461 39.4406 135.482 39.3335L136.226 35.3149H137.405L138.153 39.3256C138.174 39.4275 138.191 39.5372 138.204 39.6547C138.219 39.7722 138.231 39.9027 138.239 40.0464C138.247 39.9393 138.257 39.827 138.27 39.7095C138.286 39.5894 138.306 39.4641 138.329 39.3335L139.05 35.3149H140.021L138.834 40.9785H137.687L136.892 36.9561C136.873 36.8621 136.855 36.7446 136.837 36.6036C136.818 36.4626 136.803 36.3124 136.79 36.1532C136.779 36.3228 136.766 36.4795 136.751 36.6231C136.738 36.7641 136.723 36.8765 136.708 36.96L135.963 40.9785H134.784ZM140.628 36.2942V35.3149H141.502V36.2942H140.628ZM140.628 40.9785V36.8973H141.502V40.9785H140.628Z" fill="#121212"/>
<path d="M142.492 40.9788V36.8977H143.358V37.2816C143.517 37.13 143.692 37.0165 143.882 36.9407C144.073 36.8625 144.278 36.8232 144.498 36.8232C144.915 36.8232 145.246 36.9512 145.488 37.2071C145.731 37.4605 145.853 37.8089 145.853 38.2529V40.9788H144.987V38.4134C144.987 38.1497 144.928 37.9499 144.811 37.8142C144.693 37.6784 144.522 37.6105 144.298 37.6105C144.034 37.6105 143.811 37.7006 143.628 37.8808C143.448 38.061 143.358 38.2868 143.358 38.5584V40.9788H142.492Z" fill="#121212"/>
<path fill-rule="evenodd" clip-rule="evenodd" d="M5.00781 52.2336C8.0125 52.2336 12.2845 52.2248 16.5566 52.2145C15.7955 51.7805 15.1964 51.1103 14.8501 50.3053H5.01074V52.2262L5.00781 52.2336ZM8.43985 49.7076H14.646C14.5092 49.1574 14.4887 48.5848 14.5858 48.0261H8.43985V49.7076ZM22.1592 40.5599H25.1815V40.5364C25.1639 40.3044 25.1551 40.0753 25.1551 39.8477C25.1554 39.5244 25.172 39.2014 25.205 38.8799H22.1577V40.5599H22.1592ZM24.1873 41.1723H18.7286V42.8465H21.6569C21.8092 42.6754 21.9709 42.5131 22.1416 42.3604C22.7368 41.831 23.4326 41.427 24.1873 41.1723ZM21.1826 43.4589H15.298V45.1374H16.7446C17.3098 44.8546 17.9341 44.7098 18.5662 44.7149C19.1983 44.7201 19.8201 44.8749 20.3808 45.1668C20.5549 44.5574 20.8256 43.9798 21.1826 43.4559V43.4589ZM15.8546 45.7396H11.8675V47.4211H14.74C14.9387 46.8436 15.2666 46.3192 15.699 45.8879C15.7489 45.8365 15.8018 45.788 15.8546 45.741V45.7396Z" fill="#121212"/>
<path fill-rule="evenodd" clip-rule="evenodd" d="M25.2106 8.68165C28.652 8.68371 32.038 9.54797 35.0594 11.1955C38.0808 12.843 40.6413 15.2213 42.5069 18.1131C44.3725 21.0048 45.4839 24.3181 45.7396 27.75C45.9951 31.1819 45.3868 34.623 43.9701 37.7593C43.8924 37.3992 43.7943 37.0436 43.6764 36.6946C44.5123 33.7307 44.6117 30.6075 43.9658 27.5966C43.3199 24.5856 41.9483 21.778 39.9701 19.4177C37.9921 17.0576 35.4675 15.2163 32.6158 14.0541C29.764 12.8918 26.6715 12.4437 23.6072 12.7487C20.5429 13.0538 17.5995 14.1027 15.0328 15.8043C12.4662 17.506 10.3541 19.8088 8.88013 22.5126C7.40614 25.2164 6.61491 28.2393 6.57524 31.3186C6.53558 34.3977 7.24865 37.44 8.6525 40.1809C8.64516 40.3278 8.64222 40.4747 8.64222 40.6289C8.64222 40.8242 8.64222 41.0195 8.65838 41.2163C8.59963 41.231 8.54236 41.2471 8.48362 41.2647C6.27671 38.1879 4.96102 34.5622 4.68127 30.7862C4.40153 27.0101 5.16855 23.23 6.89796 19.8617C8.62739 16.4932 11.2522 13.6671 14.4838 11.6939C17.7155 9.72066 21.4286 8.67685 25.215 8.67725L25.2106 8.68165Z" fill="#C3C3C3"/>
<path d="M3.47997 52.2337H4.40223V50.0103L4.70476 49.7078H7.83132V47.7238L8.13533 47.4212H11.2619V45.4313L11.5644 45.1288H14.6925V43.1506L14.995 42.8466H18.1216V40.8626L18.4241 40.5601H21.5522V38.576L21.8547 38.2735H25.2926C25.5029 37.0414 25.9609 35.8649 26.6393 34.815C25.4267 33.2566 23.7577 32.116 21.8653 31.5522C19.9729 30.9885 17.9517 31.03 16.0839 31.6708C14.2163 32.3117 12.5955 33.5201 11.4479 35.1268C10.3004 36.7337 9.68339 38.659 9.6832 40.6335C9.6832 40.8347 9.68318 41.0271 9.69934 41.2107C9.69934 41.2944 9.7111 41.3781 9.71844 41.4618C11.0402 41.2885 12.9346 41.4779 13.3899 42.9127C12.2591 42.2651 10.8096 41.8363 9.50697 42.1094V42.0947L9.49228 42.1138C8.57328 42.2492 7.70884 42.6336 6.99258 43.2251C6.27631 43.8165 5.73553 44.5928 5.42876 45.4695L5.35533 45.8954L5.01022 45.6413C4.77371 45.5241 4.52433 45.4348 4.26712 45.3755C3.69169 45.2426 3.09196 45.2579 2.52407 45.42C1.95616 45.582 1.43869 45.8856 1.02011 46.3022C0.534691 46.7883 0.204214 47.4071 0.0704372 48.0809C-0.063339 48.7547 0.00559008 49.453 0.268513 50.0876C0.531437 50.7221 0.976557 51.2646 1.54763 51.6463C2.11871 52.0281 2.79013 52.232 3.47703 52.2323L3.47997 52.2337ZM18.5343 52.1295H35.8633C38.9473 52.1118 41.6069 52.1133 43.8156 52.1295H48.7515C49.6547 52.1295 50.521 51.7707 51.1597 51.132C51.7983 50.4933 52.1571 49.627 52.1571 48.7238C52.1571 47.8207 51.7983 46.9544 51.1597 46.3157C50.521 45.677 49.6547 45.3182 48.7515 45.3182C48.5973 45.3185 48.4432 45.3288 48.2904 45.3491C48.1472 45.3682 48.0053 45.3967 47.8659 45.4343C47.0803 45.8117 46.4767 46.3536 45.9128 46.8617C45.4178 47.2244 44.8099 48.5271 42.9007 47.7825C43.9845 47.7825 44.7071 47.1319 45.5074 46.4123C46.0567 45.9174 46.6412 45.3931 47.4078 44.9893C47.1439 44.0216 46.6279 43.1412 45.9128 42.4381C45.1977 41.7348 44.3088 41.2337 43.3369 40.986L43.1093 40.6644C43.121 40.5351 43.1313 40.3985 43.1386 40.2576C43.146 40.1166 43.1474 39.9976 43.1474 39.8478C43.1684 38.6932 42.9592 37.5461 42.5318 36.4734C42.1045 35.4006 41.4677 34.4237 40.6585 33.5998C39.8493 32.7759 38.8842 32.1215 37.8193 31.675C36.7545 31.2284 35.6112 30.9984 34.4565 30.9985C33.3017 30.9988 32.1586 31.2291 31.0937 31.6761C30.029 32.123 29.064 32.7777 28.2551 33.6019C27.4464 34.426 26.8098 35.4031 26.3829 36.476C25.9558 37.5489 25.747 38.6962 25.7684 39.8508C25.7684 40.071 25.7684 40.2913 25.7919 40.4969C25.8007 40.6174 25.8125 40.7392 25.8257 40.8611C27.8553 40.7437 30.0464 40.9023 31.1845 42.7585C31.1845 42.7585 29.1461 41.1886 25.5878 41.4838C24.4564 41.5928 23.3893 42.0598 22.5417 42.817C21.6942 43.5743 21.1103 44.5822 20.8751 45.6942L20.7768 46.1788L20.4126 45.8851C19.9693 45.5929 19.464 45.4083 18.9366 45.3461C18.4094 45.2839 17.875 45.3458 17.376 45.5269C16.877 45.7081 16.4272 46.0033 16.0625 46.3893C15.6979 46.7751 15.4285 47.2409 15.2759 47.7493C15.1234 48.2579 15.0916 48.7949 15.1836 49.3177C15.2755 49.8407 15.4883 50.3349 15.8052 50.7608C16.122 51.1868 16.5341 51.5328 17.0084 51.7711C17.4828 52.0096 18.0063 52.1337 18.5372 52.1339L18.5343 52.1295Z" fill="#121212"/>
<path fill-rule="evenodd" clip-rule="evenodd" d="M20.3575 47.2125C19.0945 46.6001 16.6185 47.2713 15.7668 48.3742C15.9885 45.9187 19.0725 45.1712 20.3575 47.2125ZM10.9896 39.6289C11.3538 33.7355 17.3117 30.6119 22.5134 32.7912C17.0092 32.7912 13.1043 34.621 10.9896 39.6289ZM11.7958 43.3752C9.2449 41.8567 6.35329 43.2724 5.77467 46.1919C6.94218 44.5588 9.38 43.1211 11.7958 43.3752ZM5.25333 47.1935C3.99036 46.5811 1.51583 47.2522 0.664062 48.3551C0.885816 45.8996 3.9698 45.1521 5.25333 47.1935ZM29.5552 43.1402C26.1202 41.0974 22.2299 43.0022 21.4516 46.932C23.02 44.7292 26.2979 42.7995 29.5552 43.1402ZM26.6489 39.7522C27.0131 33.8574 32.9637 30.7337 38.1727 32.9146C32.6685 32.9146 28.7636 34.7429 26.6489 39.7522Z" fill="white"/>
<path fill-rule="evenodd" clip-rule="evenodd" d="M22.3067 8.75853C22.8194 8.75853 23.3204 8.91055 23.7468 9.19536C24.1729 9.48017 24.5053 9.885 24.7013 10.3586C24.8975 10.8323 24.9489 11.3534 24.8489 11.8562C24.7489 12.359 24.502 12.8209 24.1395 13.1834C23.777 13.5459 23.3151 13.7928 22.8123 13.8928C22.3096 13.9928 21.7884 13.9415 21.3148 13.7453C20.841 13.5491 20.4363 13.2169 20.1516 12.7906C19.8667 12.3644 19.7147 11.8632 19.7147 11.3506C19.7147 10.6631 19.9878 10.0038 20.4739 9.51771C20.96 9.03161 21.6192 8.75853 22.3067 8.75853ZM31.9992 2.43488C35.8395 1.69032 35.5414 1.35108 33.1388 4.42626C35.0333 7.84802 35.2653 7.46032 31.5983 6.12539L29.6525 8.21076C28.8653 10.9261 27.4878 14.2774 27.4188 14.8193C26.9562 18.5142 28.4277 18.2837 29.3558 19.3719C30.2839 20.4601 26.9547 25.4738 26.1837 25.5149C25.4127 25.556 27.8182 21.0387 25.89 21.7745C25.3613 22.5983 23.11 28.8735 20.5517 30.0161C20.7456 28.8177 22.2362 25.9848 22.6518 23.0183C23.1599 19.4013 22.781 16.3907 20.1861 18.7845C19.4342 19.4776 18.0023 21.3398 17.572 21.397C18.1815 16.7857 24.3098 13.8853 26.1999 12.0334C27.9386 10.3328 28.8961 8.64692 29.4307 7.33402L29.5056 5.19138C25.9619 3.53484 26.0031 3.98569 29.7538 2.9107C30.2325 -0.972195 29.8169 -0.793027 31.9992 2.44076V2.43488ZM24.7063 4.73907L25.0926 5.59084L26.0354 5.51006L25.3451 6.14155L25.7123 7.01388L24.8987 6.55128L24.182 7.17101L24.3715 6.25463L23.5667 5.76413L24.4963 5.65986L24.7122 4.73907H24.7063ZM20.5679 3.83002L20.1993 5.28537L21.4637 6.1298L19.9658 6.22966L19.5546 7.69823L18.9951 6.30456L17.4766 6.36477L18.6294 5.40286L18.1036 3.97688L19.374 4.77725L20.5679 3.8359V3.83002Z" fill="#121212"/>
</g>
</g>
<defs>
<clipPath id="clip0_3506_670">
<rect width="159.927" height="52.281" fill="white"/>
</clipPath>
</defs>
</svg>
