<svg width="93" height="33" viewBox="0 0 93 33" fill="none" xmlns="http://www.w3.org/2000/svg">
<g clip-path="url(#clip0_4683_18457)">
<mask id="mask0_4683_18457" style="mask-type:luminance" maskUnits="userSpaceOnUse" x="0" y="0" width="93" height="33">
<path d="M92.8164 0.0307617H0.183838V32.3198H92.8164V0.0307617Z" fill="white"/>
</mask>
<g mask="url(#mask0_4683_18457)">
<path d="M29.7942 8.13827V0.0307617H0.183838V8.13827H18.0736L0.183838 24.1221V32.3198H30.1189V24.1221H11.9005L29.7942 8.13827Z" fill="#121212"/>
<path d="M44.841 10.4229H34.043V32.3198H44.841V10.4229Z" fill="#121212"/>
<path d="M44.841 0.0307617H34.043V8.13827H44.841V0.0307617Z" fill="#777777"/>
<path d="M59.8915 10.4229H49.0896V32.3198H59.8915V10.4229Z" fill="#121212"/>
<path d="M59.8915 0.0307617H49.0896V8.13827H59.8915V0.0307617Z" fill="#777777"/>
<path d="M90.1514 3.87096C87.8906 1.37091 84.2475 0.0307617 79.4524 0.0307617H64.1367V8.22839H75.7622H78.8944C81.2224 8.22839 82.5725 9.61166 82.5725 12.0059C82.5725 14.4002 81.2224 15.9206 78.8944 15.9206H74.9384V10.4189L64.1367 20.0664V32.3158H74.9384V24.1065L75.089 23.934H79.4524C87.926 23.934 92.8126 19.4198 92.8126 11.5866C92.8126 8.38518 91.8856 5.7832 90.1474 3.86704L90.1514 3.87096Z" fill="#121212"/>
</g>
</g>
<defs>
<clipPath id="clip0_4683_18457">
<rect width="93" height="32.3478" fill="white"/>
</clipPath>
</defs>
</svg>
