<svg width="581" height="648" viewBox="0 0 581 648" fill="none" xmlns="http://www.w3.org/2000/svg">
<g clip-path="url(#clip0_4725_22494)">
<rect width="581" height="648" rx="16" fill="#FFF0F0"/>
<g clip-path="url(#clip1_4725_22494)">
<rect x="383.129" y="82" width="174.759" height="91.6214" rx="5.90091" fill="white"/>
<rect width="174.759" height="24.7841" transform="translate(383.129 82)" fill="#464646"/>
<ellipse cx="395.521" cy="94.392" rx="2.95046" ry="2.95046" fill="#F74A4A"/>
<ellipse cx="407.306" cy="94.3919" rx="2.95046" ry="2.95046" fill="#FFAE1B"/>
<ellipse cx="419.15" cy="94.3919" rx="2.95046" ry="2.95046" fill="#259F46"/>
<path d="M409.305 148.582V131.416H412.935V138.498H420.302V131.416H423.923V148.582H420.302V141.491H412.935V148.582H409.305ZM432.666 148.833C431.364 148.833 430.238 148.557 429.288 148.003C428.344 147.445 427.614 146.668 427.1 145.673C426.586 144.673 426.329 143.513 426.329 142.195C426.329 140.865 426.586 139.702 427.1 138.708C427.614 137.708 428.344 136.931 429.288 136.378C430.238 135.819 431.364 135.539 432.666 135.539C433.968 135.539 435.091 135.819 436.035 136.378C436.985 136.931 437.717 137.708 438.231 138.708C438.746 139.702 439.003 140.865 439.003 142.195C439.003 143.513 438.746 144.673 438.231 145.673C437.717 146.668 436.985 147.445 436.035 148.003C435.091 148.557 433.968 148.833 432.666 148.833ZM432.683 146.067C433.275 146.067 433.769 145.9 434.166 145.564C434.563 145.223 434.862 144.76 435.063 144.173C435.27 143.586 435.373 142.918 435.373 142.17C435.373 141.421 435.27 140.753 435.063 140.166C434.862 139.58 434.563 139.116 434.166 138.775C433.769 138.434 433.275 138.264 432.683 138.264C432.085 138.264 431.582 138.434 431.174 138.775C430.771 139.116 430.467 139.58 430.26 140.166C430.059 140.753 429.958 141.421 429.958 142.17C429.958 142.918 430.059 143.586 430.26 144.173C430.467 144.76 430.771 145.223 431.174 145.564C431.582 145.9 432.085 146.067 432.683 146.067ZM441.324 148.582V135.707H444.727V137.979H444.878C445.147 137.224 445.594 136.629 446.219 136.193C446.845 135.757 447.594 135.539 448.466 135.539C449.349 135.539 450.1 135.76 450.721 136.202C451.341 136.637 451.754 137.23 451.961 137.979H452.095C452.358 137.241 452.833 136.651 453.52 136.21C454.213 135.763 455.032 135.539 455.976 135.539C457.177 135.539 458.153 135.922 458.901 136.688C459.656 137.448 460.033 138.526 460.033 139.923V148.582H456.471V140.627C456.471 139.912 456.281 139.376 455.901 139.018C455.521 138.66 455.046 138.482 454.476 138.482C453.828 138.482 453.322 138.688 452.959 139.102C452.595 139.51 452.414 140.049 452.414 140.719V148.582H448.952V140.552C448.952 139.92 448.77 139.417 448.407 139.043C448.05 138.669 447.577 138.482 446.991 138.482C446.594 138.482 446.236 138.582 445.918 138.783C445.605 138.979 445.356 139.255 445.172 139.613C444.987 139.965 444.895 140.379 444.895 140.854V148.582H441.324ZM468.721 148.833C467.397 148.833 466.257 148.565 465.301 148.029C464.351 147.487 463.619 146.721 463.105 145.732C462.591 144.737 462.334 143.561 462.334 142.203C462.334 140.879 462.591 139.716 463.105 138.716C463.619 137.716 464.343 136.936 465.276 136.378C466.215 135.819 467.315 135.539 468.578 135.539C469.428 135.539 470.218 135.676 470.95 135.95C471.688 136.218 472.331 136.624 472.878 137.166C473.432 137.708 473.862 138.389 474.169 139.211C474.476 140.027 474.63 140.982 474.63 142.077V143.058H463.759V140.845H471.269C471.269 140.331 471.157 139.876 470.934 139.479C470.71 139.082 470.4 138.772 470.003 138.549C469.612 138.319 469.157 138.205 468.637 138.205C468.095 138.205 467.614 138.331 467.195 138.582C466.782 138.828 466.458 139.16 466.223 139.58C465.988 139.993 465.868 140.454 465.863 140.963V143.066C465.863 143.703 465.98 144.254 466.215 144.718C466.455 145.181 466.793 145.539 467.229 145.791C467.665 146.042 468.182 146.168 468.78 146.168C469.176 146.168 469.54 146.112 469.869 146C470.199 145.888 470.481 145.721 470.716 145.497C470.95 145.274 471.129 145 471.252 144.676L474.555 144.894C474.387 145.687 474.043 146.38 473.524 146.972C473.01 147.559 472.345 148.017 471.529 148.347C470.719 148.671 469.783 148.833 468.721 148.833ZM476.96 153.41V135.707H480.481V137.87H480.64C480.797 137.523 481.023 137.171 481.319 136.813C481.621 136.45 482.012 136.149 482.492 135.908C482.979 135.662 483.582 135.539 484.303 135.539C485.242 135.539 486.108 135.785 486.901 136.277C487.695 136.763 488.329 137.498 488.804 138.482C489.279 139.459 489.517 140.686 489.517 142.161C489.517 143.597 489.285 144.81 488.821 145.799C488.363 146.782 487.737 147.528 486.943 148.037C486.155 148.54 485.272 148.791 484.295 148.791C483.602 148.791 483.012 148.677 482.526 148.448C482.045 148.219 481.651 147.931 481.344 147.584C481.037 147.232 480.802 146.877 480.64 146.52H480.531V153.41H476.96ZM480.456 142.144C480.456 142.91 480.562 143.578 480.774 144.148C480.986 144.718 481.294 145.162 481.696 145.48C482.099 145.793 482.587 145.95 483.163 145.95C483.744 145.95 484.236 145.791 484.638 145.472C485.041 145.148 485.345 144.701 485.552 144.131C485.764 143.555 485.87 142.893 485.87 142.144C485.87 141.401 485.767 140.747 485.56 140.183C485.354 139.619 485.049 139.177 484.647 138.859C484.244 138.54 483.75 138.381 483.163 138.381C482.582 138.381 482.09 138.535 481.688 138.842C481.291 139.149 480.986 139.585 480.774 140.15C480.562 140.714 480.456 141.379 480.456 142.144ZM495.568 148.825C494.747 148.825 494.015 148.682 493.372 148.397C492.73 148.107 492.221 147.679 491.847 147.115C491.478 146.545 491.294 145.835 491.294 144.986C491.294 144.271 491.425 143.67 491.687 143.184C491.95 142.698 492.308 142.306 492.76 142.01C493.213 141.714 493.727 141.491 494.303 141.34C494.884 141.189 495.493 141.083 496.13 141.021C496.879 140.943 497.482 140.87 497.94 140.803C498.399 140.731 498.731 140.625 498.938 140.485C499.145 140.345 499.248 140.138 499.248 139.865V139.814C499.248 139.283 499.08 138.873 498.745 138.582C498.415 138.292 497.946 138.146 497.337 138.146C496.694 138.146 496.183 138.289 495.803 138.574C495.423 138.853 495.172 139.205 495.049 139.63L491.746 139.362C491.914 138.579 492.243 137.903 492.735 137.333C493.227 136.758 493.861 136.316 494.638 136.009C495.42 135.696 496.326 135.539 497.354 135.539C498.069 135.539 498.753 135.623 499.407 135.791C500.067 135.959 500.651 136.218 501.159 136.57C501.673 136.922 502.078 137.375 502.374 137.928C502.671 138.476 502.819 139.133 502.819 139.898V148.582H499.432V146.796H499.332C499.125 147.199 498.848 147.554 498.502 147.861C498.156 148.163 497.739 148.4 497.253 148.573C496.767 148.741 496.205 148.825 495.568 148.825ZM496.591 146.361C497.116 146.361 497.58 146.257 497.982 146.05C498.385 145.838 498.7 145.553 498.93 145.195C499.159 144.838 499.273 144.433 499.273 143.98V142.614C499.161 142.686 499.008 142.754 498.812 142.815C498.622 142.871 498.407 142.924 498.167 142.974C497.926 143.019 497.686 143.061 497.446 143.1C497.206 143.134 496.988 143.164 496.792 143.192C496.373 143.254 496.007 143.351 495.694 143.486C495.381 143.62 495.138 143.801 494.965 144.03C494.792 144.254 494.705 144.533 494.705 144.869C494.705 145.355 494.881 145.726 495.233 145.983C495.591 146.235 496.043 146.361 496.591 146.361ZM511.389 153.678C510.233 153.678 509.241 153.519 508.414 153.2C507.592 152.887 506.938 152.46 506.452 151.918C505.966 151.376 505.65 150.767 505.505 150.091L508.808 149.646C508.908 149.903 509.068 150.144 509.285 150.367C509.503 150.591 509.791 150.769 510.149 150.904C510.512 151.043 510.953 151.113 511.473 151.113C512.25 151.113 512.89 150.923 513.393 150.543C513.901 150.169 514.155 149.54 514.155 148.657V146.302H514.004C513.848 146.66 513.613 146.998 513.3 147.316C512.987 147.635 512.585 147.894 512.093 148.096C511.602 148.297 511.015 148.397 510.333 148.397C509.366 148.397 508.486 148.174 507.693 147.727C506.905 147.274 506.276 146.584 505.807 145.656C505.343 144.723 505.111 143.544 505.111 142.119C505.111 140.661 505.349 139.443 505.824 138.465C506.299 137.487 506.93 136.755 507.718 136.269C508.511 135.783 509.38 135.539 510.325 135.539C511.046 135.539 511.649 135.662 512.135 135.908C512.621 136.149 513.013 136.45 513.309 136.813C513.611 137.171 513.842 137.523 514.004 137.87H514.139V135.707H517.684V148.708C517.684 149.803 517.416 150.719 516.88 151.457C516.343 152.194 515.6 152.748 514.65 153.116C513.706 153.491 512.619 153.678 511.389 153.678ZM511.465 145.715C512.04 145.715 512.526 145.573 512.923 145.288C513.326 144.997 513.633 144.584 513.845 144.047C514.063 143.505 514.172 142.857 514.172 142.103C514.172 141.348 514.066 140.694 513.854 140.141C513.641 139.582 513.334 139.149 512.932 138.842C512.529 138.535 512.04 138.381 511.465 138.381C510.878 138.381 510.383 138.54 509.981 138.859C509.579 139.172 509.274 139.607 509.068 140.166C508.861 140.725 508.757 141.37 508.757 142.103C508.757 142.846 508.861 143.488 509.068 144.03C509.28 144.567 509.584 144.983 509.981 145.279C510.383 145.57 510.878 145.715 511.465 145.715ZM526.393 148.833C525.069 148.833 523.929 148.565 522.973 148.029C522.023 147.487 521.291 146.721 520.777 145.732C520.263 144.737 520.006 143.561 520.006 142.203C520.006 140.879 520.263 139.716 520.777 138.716C521.291 137.716 522.015 136.936 522.948 136.378C523.887 135.819 524.988 135.539 526.251 135.539C527.1 135.539 527.891 135.676 528.623 135.95C529.36 136.218 530.003 136.624 530.55 137.166C531.104 137.708 531.534 138.389 531.841 139.211C532.149 140.027 532.302 140.982 532.302 142.077V143.058H521.431V140.845H528.941C528.941 140.331 528.829 139.876 528.606 139.479C528.382 139.082 528.072 138.772 527.675 138.549C527.284 138.319 526.829 138.205 526.309 138.205C525.767 138.205 525.287 138.331 524.868 138.582C524.454 138.828 524.13 139.16 523.895 139.58C523.661 139.993 523.54 140.454 523.535 140.963V143.066C523.535 143.703 523.652 144.254 523.887 144.718C524.127 145.181 524.465 145.539 524.901 145.791C525.337 146.042 525.854 146.168 526.452 146.168C526.848 146.168 527.212 146.112 527.541 146C527.871 145.888 528.153 145.721 528.388 145.497C528.623 145.274 528.801 145 528.924 144.676L532.227 144.894C532.059 145.687 531.716 146.38 531.196 146.972C530.682 147.559 530.017 148.017 529.201 148.347C528.391 148.671 527.455 148.833 526.393 148.833Z" fill="#302D2D"/>
</g>
<rect x="383.719" y="82.5901" width="173.579" height="90.4412" rx="5.31082" stroke="#464646" stroke-width="1.18018"/>
<rect width="151.131" height="73.0128" transform="translate(21 315.718)" fill="white"/>
<g clip-path="url(#clip2_4725_22494)">
<rect x="21" y="315.718" width="151.131" height="73.0128" rx="5.10579" fill="white"/>
<rect width="151.131" height="21.4443" transform="translate(21 315.718)" fill="#464646"/>
<ellipse cx="31.7209" cy="326.44" rx="2.55289" ry="2.5529" fill="#F74A4A"/>
<ellipse cx="41.9396" cy="326.44" rx="2.55289" ry="2.5529" fill="#FFAE1B"/>
<ellipse cx="52.1623" cy="326.44" rx="2.55289" ry="2.5529" fill="#259F46"/>
<path d="M63.095 365.416H60.4391L64.486 353.693H67.6799L71.721 365.416H69.0651L66.1287 356.372H66.0371L63.095 365.416ZM62.929 360.808H69.2025V362.743H62.929V360.808ZM73.1319 365.416V353.693H75.5703V358.101H75.6447C75.7516 357.864 75.9061 357.624 76.1084 357.38C76.3144 357.132 76.5816 356.926 76.9097 356.761C77.2417 356.594 77.6538 356.51 78.1461 356.51C78.7872 356.51 79.3787 356.677 79.9205 357.013C80.4624 357.345 80.8955 357.847 81.2198 358.519C81.5442 359.186 81.7064 360.024 81.7064 361.031C81.7064 362.012 81.548 362.84 81.2313 363.516C80.9184 364.187 80.491 364.697 79.9491 365.044C79.4111 365.387 78.8082 365.559 78.1404 365.559C77.6672 365.559 77.2646 365.481 76.9326 365.324C76.6045 365.168 76.3354 364.971 76.1256 364.735C75.9157 364.494 75.7554 364.252 75.6447 364.008H75.536V365.416H73.1319ZM75.5188 361.02C75.5188 361.543 75.5913 361.999 75.7363 362.388C75.8813 362.777 76.0912 363.081 76.366 363.298C76.6407 363.512 76.9746 363.619 77.3676 363.619C77.7645 363.619 78.1003 363.51 78.3751 363.292C78.6498 363.071 78.8578 362.766 78.999 362.377C79.144 361.984 79.2165 361.531 79.2165 361.02C79.2165 360.513 79.1459 360.066 79.0047 359.681C78.8635 359.295 78.6555 358.994 78.3808 358.776C78.106 358.559 77.7683 358.45 77.3676 358.45C76.9708 358.45 76.635 358.555 76.3602 358.765C76.0893 358.975 75.8813 359.272 75.7363 359.658C75.5913 360.043 75.5188 360.497 75.5188 361.02ZM87.3058 365.588C86.4167 365.588 85.6478 365.399 84.9991 365.021C84.3542 364.639 83.8562 364.109 83.5051 363.43C83.1541 362.747 82.9785 361.955 82.9785 361.054C82.9785 360.146 83.1541 359.352 83.5051 358.673C83.8562 357.99 84.3542 357.46 84.9991 357.082C85.6478 356.7 86.4167 356.51 87.3058 356.51C88.1949 356.51 88.9619 356.7 89.6068 357.082C90.2555 357.46 90.7554 357.99 91.1065 358.673C91.4576 359.352 91.6331 360.146 91.6331 361.054C91.6331 361.955 91.4576 362.747 91.1065 363.43C90.7554 364.109 90.2555 364.639 89.6068 365.021C88.9619 365.399 88.1949 365.588 87.3058 365.588ZM87.3173 363.699C87.7218 363.699 88.0595 363.584 88.3304 363.355C88.6013 363.123 88.8055 362.806 88.9429 362.405C89.084 362.005 89.1546 361.549 89.1546 361.037C89.1546 360.526 89.084 360.07 88.9429 359.669C88.8055 359.269 88.6013 358.952 88.3304 358.719C88.0595 358.486 87.7218 358.37 87.3173 358.37C86.909 358.37 86.5655 358.486 86.287 358.719C86.0122 358.952 85.8042 359.269 85.663 359.669C85.5257 360.07 85.457 360.526 85.457 361.037C85.457 361.549 85.5257 362.005 85.663 362.405C85.8042 362.806 86.0122 363.123 86.287 363.355C86.5655 363.584 86.909 363.699 87.3173 363.699ZM98.8567 361.673V356.624H101.295V365.416H98.954V363.819H98.8624C98.664 364.334 98.3339 364.748 97.8722 365.061C97.4143 365.374 96.8552 365.53 96.1951 365.53C95.6074 365.53 95.0904 365.397 94.6439 365.13C94.1974 364.863 93.8483 364.483 93.5964 363.991C93.3484 363.499 93.2224 362.909 93.2186 362.222V356.624H95.657V361.787C95.6608 362.306 95.8001 362.716 96.0749 363.018C96.3496 363.319 96.7179 363.47 97.1796 363.47C97.4734 363.47 97.7482 363.403 98.0038 363.27C98.2595 363.132 98.4656 362.93 98.622 362.663C98.7823 362.396 98.8605 362.066 98.8567 361.673ZM107.922 356.624V358.456H102.627V356.624H107.922ZM103.829 354.518H106.268V362.714C106.268 362.939 106.302 363.115 106.371 363.241C106.439 363.363 106.535 363.449 106.657 363.499C106.783 363.548 106.928 363.573 107.092 363.573C107.206 363.573 107.321 363.563 107.435 363.544C107.55 363.521 107.638 363.504 107.699 363.493L108.082 365.307C107.96 365.345 107.788 365.389 107.567 365.439C107.346 365.492 107.077 365.525 106.76 365.536C106.172 365.559 105.657 365.481 105.215 365.302C104.776 365.122 104.434 364.844 104.19 364.466C103.946 364.088 103.826 363.611 103.829 363.035V354.518ZM120.527 353.693H123.006V361.306C123.006 362.161 122.802 362.909 122.393 363.55C121.989 364.191 121.422 364.691 120.693 365.05C119.965 365.405 119.116 365.582 118.146 365.582C117.173 365.582 116.322 365.405 115.593 365.05C114.865 364.691 114.298 364.191 113.893 363.55C113.489 362.909 113.287 362.161 113.287 361.306V353.693H115.765V361.094C115.765 361.541 115.862 361.938 116.057 362.285C116.256 362.632 116.534 362.905 116.893 363.104C117.251 363.302 117.669 363.401 118.146 363.401C118.627 363.401 119.045 363.302 119.4 363.104C119.759 362.905 120.035 362.632 120.23 362.285C120.428 361.938 120.527 361.541 120.527 361.094V353.693ZM132.314 359.131L130.082 359.269C130.044 359.078 129.962 358.906 129.836 358.753C129.71 358.597 129.544 358.473 129.338 358.381C129.136 358.286 128.893 358.238 128.611 358.238C128.233 358.238 127.915 358.318 127.655 358.479C127.396 358.635 127.266 358.845 127.266 359.108C127.266 359.318 127.35 359.496 127.518 359.641C127.686 359.786 127.974 359.902 128.382 359.99L129.973 360.31C130.828 360.486 131.465 360.768 131.885 361.157C132.305 361.547 132.515 362.058 132.515 362.691C132.515 363.268 132.345 363.773 132.005 364.208C131.67 364.643 131.208 364.983 130.62 365.227C130.036 365.468 129.363 365.588 128.6 365.588C127.436 365.588 126.509 365.345 125.818 364.861C125.131 364.372 124.728 363.708 124.61 362.869L127.008 362.743C127.081 363.098 127.256 363.369 127.535 363.556C127.814 363.739 128.17 363.83 128.605 363.83C129.033 363.83 129.376 363.748 129.636 363.584C129.899 363.416 130.033 363.201 130.036 362.938C130.033 362.716 129.939 362.535 129.756 362.394C129.573 362.249 129.29 362.138 128.909 362.062L127.386 361.758C126.528 361.587 125.888 361.289 125.469 360.865C125.053 360.442 124.845 359.902 124.845 359.246C124.845 358.681 124.997 358.194 125.303 357.786C125.612 357.378 126.045 357.063 126.602 356.842C127.163 356.62 127.819 356.51 128.571 356.51C129.681 356.51 130.555 356.744 131.193 357.214C131.834 357.683 132.208 358.322 132.314 359.131Z" fill="#302D2D"/>
</g>
<rect x="21.5106" y="316.228" width="150.11" height="71.9916" rx="4.59521" stroke="#464646" stroke-width="1.02116"/>
<rect width="151.131" height="73.0128" transform="translate(208.215 315.72)" fill="white"/>
<g clip-path="url(#clip3_4725_22494)">
<rect x="208.215" y="315.72" width="151.131" height="73.0128" rx="5.10579" fill="white"/>
<rect width="151.131" height="21.4443" transform="translate(208.215 315.72)" fill="#464646"/>
<ellipse cx="218.936" cy="326.442" rx="2.55289" ry="2.5529" fill="#F74A4A"/>
<ellipse cx="229.154" cy="326.442" rx="2.55289" ry="2.5529" fill="#FFAE1B"/>
<ellipse cx="239.373" cy="326.442" rx="2.55289" ry="2.5529" fill="#259F46"/>
<path d="M233.871 365.418V353.695H238.496C239.385 353.695 240.142 353.865 240.768 354.205C241.394 354.541 241.871 355.008 242.199 355.607C242.531 356.202 242.697 356.889 242.697 357.668C242.697 358.446 242.529 359.133 242.193 359.728C241.858 360.324 241.371 360.787 240.734 361.119C240.1 361.451 239.333 361.617 238.433 361.617H235.485V359.631H238.032C238.509 359.631 238.902 359.549 239.211 359.385C239.524 359.217 239.757 358.986 239.91 358.692C240.066 358.395 240.144 358.053 240.144 357.668C240.144 357.279 240.066 356.939 239.91 356.649C239.757 356.355 239.524 356.128 239.211 355.968C238.898 355.804 238.501 355.722 238.021 355.722H236.349V365.418H233.871ZM246.532 365.584C245.971 365.584 245.471 365.487 245.032 365.292C244.594 365.094 244.246 364.802 243.991 364.416C243.739 364.027 243.613 363.542 243.613 362.962C243.613 362.474 243.703 362.064 243.882 361.732C244.061 361.4 244.305 361.133 244.615 360.93C244.924 360.728 245.275 360.576 245.668 360.472C246.065 360.369 246.481 360.297 246.916 360.255C247.427 360.202 247.839 360.152 248.152 360.106C248.465 360.057 248.692 359.984 248.833 359.889C248.974 359.793 249.045 359.652 249.045 359.465V359.431C249.045 359.068 248.93 358.788 248.701 358.589C248.476 358.391 248.156 358.292 247.74 358.292C247.301 358.292 246.952 358.389 246.692 358.584C246.433 358.774 246.261 359.015 246.177 359.305L243.922 359.122C244.036 358.587 244.262 358.126 244.597 357.736C244.933 357.343 245.366 357.042 245.897 356.832C246.431 356.618 247.049 356.512 247.751 356.512C248.24 356.512 248.707 356.569 249.154 356.683C249.604 356.798 250.003 356.975 250.35 357.216C250.701 357.456 250.978 357.765 251.18 358.143C251.382 358.517 251.483 358.965 251.483 359.488V365.418H249.171V364.199H249.102C248.961 364.474 248.772 364.716 248.535 364.926C248.299 365.132 248.015 365.294 247.683 365.412C247.351 365.527 246.967 365.584 246.532 365.584ZM247.23 363.901C247.589 363.901 247.906 363.831 248.181 363.689C248.455 363.544 248.671 363.35 248.827 363.106C248.984 362.861 249.062 362.585 249.062 362.276V361.343C248.986 361.392 248.881 361.438 248.747 361.48C248.618 361.518 248.471 361.554 248.307 361.589C248.142 361.619 247.978 361.648 247.814 361.675C247.65 361.697 247.501 361.718 247.368 361.737C247.082 361.779 246.832 361.846 246.618 361.938C246.404 362.029 246.238 362.153 246.12 362.31C246.002 362.463 245.943 362.653 245.943 362.882C245.943 363.214 246.063 363.468 246.303 363.644C246.547 363.815 246.856 363.901 247.23 363.901ZM253.375 365.418V356.626H255.739V358.16H255.831C255.991 357.614 256.26 357.202 256.638 356.924C257.015 356.641 257.45 356.5 257.943 356.5C258.065 356.5 258.196 356.508 258.338 356.523C258.479 356.538 258.603 356.559 258.71 356.586V358.75C258.595 358.715 258.437 358.685 258.235 358.658C258.032 358.631 257.847 358.618 257.679 358.618C257.321 358.618 257 358.696 256.718 358.853C256.439 359.005 256.218 359.219 256.054 359.494C255.894 359.768 255.813 360.085 255.813 360.444V365.418H253.375ZM265.088 356.626V358.458H259.793V356.626H265.088ZM260.995 354.52H263.433V362.716C263.433 362.941 263.468 363.117 263.536 363.243C263.605 363.365 263.701 363.451 263.823 363.5C263.949 363.55 264.094 363.575 264.258 363.575C264.372 363.575 264.487 363.565 264.601 363.546C264.716 363.523 264.803 363.506 264.864 363.495L265.248 365.309C265.126 365.347 264.954 365.391 264.733 365.441C264.511 365.494 264.242 365.527 263.926 365.538C263.338 365.561 262.823 365.483 262.38 365.303C261.941 365.124 261.6 364.846 261.356 364.468C261.111 364.09 260.991 363.613 260.995 363.037V354.52ZM269.114 360.335V365.418H266.676V356.626H269V358.177H269.103C269.298 357.666 269.624 357.261 270.082 356.964C270.54 356.662 271.095 356.512 271.747 356.512C272.358 356.512 272.89 356.645 273.344 356.912C273.798 357.179 274.151 357.561 274.403 358.057C274.655 358.549 274.781 359.137 274.781 359.82V365.418H272.343V360.255C272.347 359.717 272.209 359.297 271.931 358.996C271.652 358.69 271.269 358.538 270.78 358.538C270.452 358.538 270.162 358.608 269.91 358.75C269.662 358.891 269.467 359.097 269.326 359.368C269.189 359.635 269.118 359.957 269.114 360.335ZM280.71 365.59C279.805 365.59 279.027 365.407 278.374 365.04C277.726 364.67 277.226 364.147 276.875 363.472C276.524 362.793 276.348 361.989 276.348 361.062C276.348 360.158 276.524 359.364 276.875 358.681C277.226 357.998 277.72 357.466 278.357 357.084C278.998 356.702 279.75 356.512 280.612 356.512C281.192 356.512 281.732 356.605 282.232 356.792C282.736 356.975 283.175 357.252 283.549 357.622C283.926 357.992 284.22 358.458 284.43 359.019C284.64 359.576 284.745 360.228 284.745 360.976V361.646H277.321V360.135H282.45C282.45 359.784 282.373 359.473 282.221 359.202C282.068 358.931 281.856 358.719 281.585 358.566C281.318 358.41 281.007 358.332 280.652 358.332C280.282 358.332 279.954 358.418 279.668 358.589C279.386 358.757 279.164 358.984 279.004 359.27C278.844 359.553 278.762 359.868 278.758 360.215V361.652C278.758 362.087 278.838 362.463 278.998 362.779C279.162 363.096 279.393 363.34 279.691 363.512C279.988 363.684 280.341 363.769 280.75 363.769C281.021 363.769 281.269 363.731 281.494 363.655C281.719 363.579 281.912 363.464 282.072 363.312C282.232 363.159 282.354 362.972 282.438 362.751L284.694 362.899C284.579 363.441 284.344 363.914 283.989 364.319C283.638 364.72 283.184 365.033 282.627 365.258C282.074 365.479 281.435 365.59 280.71 365.59ZM286.336 365.418V356.626H288.7V358.16H288.792C288.952 357.614 289.221 357.202 289.599 356.924C289.977 356.641 290.412 356.5 290.904 356.5C291.026 356.5 291.158 356.508 291.299 356.523C291.44 356.538 291.564 356.559 291.671 356.586V358.75C291.556 358.715 291.398 358.685 291.196 358.658C290.994 358.631 290.809 358.618 290.641 358.618C290.282 358.618 289.961 358.696 289.679 358.853C289.4 359.005 289.179 359.219 289.015 359.494C288.855 359.768 288.775 360.085 288.775 360.444V365.418H286.336ZM300.247 359.133L298.015 359.27C297.976 359.08 297.894 358.908 297.768 358.755C297.642 358.599 297.476 358.475 297.27 358.383C297.068 358.288 296.826 358.24 296.543 358.24C296.166 358.24 295.847 358.32 295.588 358.481C295.328 358.637 295.198 358.847 295.198 359.11C295.198 359.32 295.282 359.498 295.45 359.643C295.618 359.788 295.906 359.904 296.315 359.992L297.906 360.312C298.761 360.488 299.398 360.77 299.818 361.159C300.237 361.549 300.447 362.06 300.447 362.693C300.447 363.27 300.277 363.775 299.938 364.21C299.602 364.645 299.14 364.985 298.553 365.229C297.969 365.469 297.295 365.59 296.532 365.59C295.368 365.59 294.441 365.347 293.75 364.863C293.063 364.374 292.661 363.71 292.542 362.871L294.941 362.745C295.013 363.1 295.189 363.371 295.467 363.558C295.746 363.741 296.103 363.832 296.538 363.832C296.965 363.832 297.309 363.75 297.568 363.586C297.831 363.418 297.965 363.203 297.969 362.94C297.965 362.718 297.871 362.537 297.688 362.396C297.505 362.251 297.223 362.14 296.841 362.064L295.319 361.76C294.46 361.589 293.821 361.291 293.401 360.867C292.985 360.444 292.777 359.904 292.777 359.248C292.777 358.683 292.93 358.196 293.235 357.788C293.544 357.38 293.977 357.065 294.534 356.844C295.095 356.622 295.752 356.512 296.503 356.512C297.614 356.512 298.488 356.746 299.125 357.216C299.766 357.685 300.14 358.324 300.247 359.133ZM304.421 360.335V365.418H301.983V353.695H304.352V358.177H304.455C304.654 357.658 304.974 357.252 305.417 356.958C305.86 356.66 306.415 356.512 307.083 356.512C307.693 356.512 308.226 356.645 308.68 356.912C309.138 357.176 309.492 357.555 309.744 358.051C310 358.544 310.126 359.133 310.122 359.82V365.418H307.684V360.255C307.687 359.713 307.55 359.291 307.272 358.99C306.997 358.689 306.611 358.538 306.115 358.538C305.783 358.538 305.489 358.608 305.234 358.75C304.982 358.891 304.784 359.097 304.639 359.368C304.497 359.635 304.425 359.957 304.421 360.335ZM312.041 365.418V356.626H314.479V365.418H312.041ZM313.266 355.493C312.903 355.493 312.592 355.372 312.333 355.132C312.077 354.888 311.949 354.596 311.949 354.256C311.949 353.921 312.077 353.632 312.333 353.392C312.592 353.148 312.903 353.026 313.266 353.026C313.628 353.026 313.938 353.148 314.193 353.392C314.453 353.632 314.582 353.921 314.582 354.256C314.582 354.596 314.453 354.888 314.193 355.132C313.938 355.372 313.628 355.493 313.266 355.493ZM316.433 368.715V356.626H318.837V358.103H318.945C319.052 357.866 319.207 357.626 319.409 357.382C319.615 357.134 319.882 356.927 320.21 356.763C320.542 356.595 320.955 356.512 321.447 356.512C322.088 356.512 322.679 356.679 323.221 357.015C323.763 357.347 324.196 357.849 324.521 358.521C324.845 359.188 325.007 360.026 325.007 361.033C325.007 362.014 324.849 362.842 324.532 363.518C324.219 364.189 323.792 364.699 323.25 365.046C322.712 365.389 322.109 365.561 321.441 365.561C320.968 365.561 320.565 365.483 320.233 365.326C319.905 365.17 319.636 364.973 319.426 364.737C319.216 364.496 319.056 364.254 318.945 364.01H318.871V368.715H316.433ZM318.82 361.022C318.82 361.545 318.892 362.001 319.037 362.39C319.182 362.779 319.392 363.083 319.667 363.3C319.941 363.514 320.275 363.621 320.668 363.621C321.065 363.621 321.401 363.512 321.676 363.294C321.951 363.073 322.158 362.768 322.3 362.379C322.445 361.986 322.517 361.533 322.517 361.022C322.517 360.514 322.447 360.068 322.305 359.683C322.164 359.297 321.956 358.996 321.682 358.778C321.407 358.561 321.069 358.452 320.668 358.452C320.272 358.452 319.936 358.557 319.661 358.767C319.39 358.977 319.182 359.274 319.037 359.66C318.892 360.045 318.82 360.499 318.82 361.022ZM333.948 359.133L331.716 359.27C331.677 359.08 331.595 358.908 331.469 358.755C331.343 358.599 331.178 358.475 330.971 358.383C330.769 358.288 330.527 358.24 330.245 358.24C329.867 358.24 329.548 358.32 329.289 358.481C329.029 358.637 328.899 358.847 328.899 359.11C328.899 359.32 328.983 359.498 329.151 359.643C329.319 359.788 329.607 359.904 330.016 359.992L331.607 360.312C332.462 360.488 333.099 360.77 333.519 361.159C333.938 361.549 334.148 362.06 334.148 362.693C334.148 363.27 333.978 363.775 333.639 364.21C333.303 364.645 332.841 364.985 332.254 365.229C331.67 365.469 330.996 365.59 330.233 365.59C329.069 365.59 328.142 365.347 327.451 364.863C326.764 364.374 326.362 363.71 326.243 362.871L328.642 362.745C328.714 363.1 328.89 363.371 329.168 363.558C329.447 363.741 329.804 363.832 330.239 363.832C330.666 363.832 331.01 363.75 331.269 363.586C331.532 363.418 331.666 363.203 331.67 362.94C331.666 362.718 331.572 362.537 331.389 362.396C331.206 362.251 330.924 362.14 330.542 362.064L329.02 361.76C328.161 361.589 327.522 361.291 327.102 360.867C326.686 360.444 326.478 359.904 326.478 359.248C326.478 358.683 326.631 358.196 326.936 357.788C327.245 357.38 327.678 357.065 328.235 356.844C328.796 356.622 329.453 356.512 330.204 356.512C331.315 356.512 332.189 356.746 332.826 357.216C333.467 357.685 333.841 358.324 333.948 359.133Z" fill="#302D2D"/>
</g>
<rect x="208.725" y="316.23" width="150.11" height="71.9916" rx="4.59521" stroke="#464646" stroke-width="1.02116"/>
<rect width="151.131" height="73.0128" transform="translate(395.02 315.721)" fill="white"/>
<g clip-path="url(#clip4_4725_22494)">
<rect x="395.02" y="315.721" width="151.131" height="73.0128" rx="5.10579" fill="white"/>
<rect width="151.131" height="21.4443" transform="translate(395.02 315.721)" fill="#464646"/>
<ellipse cx="405.74" cy="326.443" rx="2.55289" ry="2.5529" fill="#F74A4A"/>
<ellipse cx="415.959" cy="326.443" rx="2.55289" ry="2.5529" fill="#FFAE1B"/>
<ellipse cx="426.182" cy="326.443" rx="2.55289" ry="2.5529" fill="#259F46"/>
<path d="M437.992 357.8H435.485C435.439 357.476 435.345 357.188 435.204 356.936C435.063 356.68 434.882 356.463 434.66 356.284C434.439 356.104 434.183 355.967 433.893 355.871C433.607 355.776 433.296 355.728 432.96 355.728C432.354 355.728 431.825 355.879 431.375 356.181C430.925 356.478 430.575 356.913 430.327 357.486C430.079 358.054 429.955 358.745 429.955 359.558C429.955 360.393 430.079 361.095 430.327 361.664C430.579 362.233 430.93 362.662 431.381 362.952C431.831 363.242 432.352 363.387 432.943 363.387C433.275 363.387 433.582 363.343 433.865 363.255C434.151 363.168 434.405 363.04 434.626 362.872C434.847 362.7 435.031 362.492 435.176 362.248C435.324 362.004 435.427 361.725 435.485 361.412L437.992 361.424C437.927 361.962 437.765 362.481 437.505 362.981C437.25 363.477 436.904 363.921 436.469 364.314C436.038 364.703 435.523 365.013 434.924 365.242C434.328 365.467 433.655 365.579 432.903 365.579C431.858 365.579 430.923 365.343 430.098 364.869C429.278 364.396 428.629 363.711 428.152 362.815C427.679 361.918 427.443 360.832 427.443 359.558C427.443 358.279 427.683 357.192 428.164 356.295C428.645 355.398 429.297 354.715 430.121 354.246C430.946 353.773 431.873 353.536 432.903 353.536C433.582 353.536 434.212 353.631 434.792 353.822C435.376 354.013 435.893 354.292 436.343 354.658C436.794 355.02 437.16 355.465 437.442 355.992C437.728 356.518 437.912 357.121 437.992 357.8ZM443.696 365.591C442.807 365.591 442.038 365.402 441.389 365.024C440.744 364.642 440.246 364.112 439.895 363.433C439.544 362.75 439.368 361.958 439.368 361.057C439.368 360.149 439.544 359.355 439.895 358.676C440.246 357.993 440.744 357.463 441.389 357.085C442.038 356.703 442.807 356.513 443.696 356.513C444.585 356.513 445.352 356.703 445.997 357.085C446.645 357.463 447.145 357.993 447.496 358.676C447.847 359.355 448.023 360.149 448.023 361.057C448.023 361.958 447.847 362.75 447.496 363.433C447.145 364.112 446.645 364.642 445.997 365.024C445.352 365.402 444.585 365.591 443.696 365.591ZM443.707 363.702C444.112 363.702 444.449 363.587 444.72 363.358C444.991 363.126 445.195 362.809 445.333 362.408C445.474 362.007 445.544 361.551 445.544 361.04C445.544 360.529 445.474 360.073 445.333 359.672C445.195 359.271 444.991 358.955 444.72 358.722C444.449 358.489 444.112 358.373 443.707 358.373C443.299 358.373 442.955 358.489 442.677 358.722C442.402 358.955 442.194 359.271 442.053 359.672C441.916 360.073 441.847 360.529 441.847 361.04C441.847 361.551 441.916 362.007 442.053 362.408C442.194 362.809 442.402 363.126 442.677 363.358C442.955 363.587 443.299 363.702 443.707 363.702ZM452.047 360.336V365.419H449.608V356.627H451.932V358.178H452.035C452.23 357.667 452.556 357.262 453.014 356.965C453.472 356.663 454.027 356.513 454.68 356.513C455.29 356.513 455.823 356.646 456.277 356.913C456.731 357.18 457.084 357.562 457.336 358.058C457.588 358.55 457.714 359.138 457.714 359.821V365.419H455.275V360.256C455.279 359.718 455.142 359.298 454.863 358.997C454.584 358.691 454.201 358.539 453.713 358.539C453.384 358.539 453.094 358.609 452.842 358.751C452.594 358.892 452.4 359.098 452.259 359.369C452.121 359.636 452.051 359.958 452.047 360.336ZM464.312 356.627V358.459H459.017V356.627H464.312ZM460.219 354.521H462.658V362.717C462.658 362.942 462.692 363.118 462.761 363.244C462.829 363.366 462.925 363.452 463.047 363.501C463.173 363.551 463.318 363.576 463.482 363.576C463.596 363.576 463.711 363.566 463.825 363.547C463.94 363.524 464.028 363.507 464.089 363.496L464.472 365.31C464.35 365.348 464.178 365.392 463.957 365.442C463.736 365.495 463.467 365.528 463.15 365.539C462.562 365.562 462.047 365.484 461.604 365.304C461.166 365.125 460.824 364.847 460.58 364.469C460.336 364.091 460.215 363.614 460.219 363.038V354.521ZM468.407 365.585C467.846 365.585 467.346 365.488 466.908 365.293C466.469 365.095 466.122 364.803 465.866 364.417C465.614 364.028 465.488 363.543 465.488 362.963C465.488 362.475 465.578 362.065 465.757 361.733C465.936 361.401 466.181 361.134 466.49 360.931C466.799 360.729 467.15 360.577 467.543 360.473C467.94 360.37 468.356 360.298 468.791 360.256C469.302 360.203 469.714 360.153 470.027 360.107C470.34 360.058 470.567 359.985 470.708 359.89C470.849 359.794 470.92 359.653 470.92 359.466V359.432C470.92 359.069 470.806 358.789 470.577 358.59C470.351 358.392 470.031 358.293 469.615 358.293C469.176 358.293 468.827 358.39 468.568 358.585C468.308 358.775 468.136 359.016 468.052 359.306L465.797 359.123C465.912 358.588 466.137 358.127 466.473 357.737C466.808 357.344 467.241 357.043 467.772 356.833C468.306 356.619 468.924 356.513 469.626 356.513C470.115 356.513 470.582 356.57 471.029 356.684C471.479 356.799 471.878 356.976 472.225 357.217C472.576 357.457 472.853 357.766 473.055 358.144C473.257 358.518 473.358 358.966 473.358 359.489V365.419H471.046V364.2H470.977C470.836 364.474 470.647 364.717 470.411 364.927C470.174 365.133 469.89 365.295 469.558 365.413C469.226 365.528 468.842 365.585 468.407 365.585ZM469.106 363.902C469.464 363.902 469.781 363.832 470.056 363.69C470.331 363.545 470.546 363.351 470.703 363.106C470.859 362.862 470.937 362.586 470.937 362.277V361.344C470.861 361.393 470.756 361.439 470.622 361.481C470.493 361.519 470.346 361.555 470.182 361.59C470.018 361.62 469.854 361.649 469.689 361.675C469.525 361.698 469.377 361.719 469.243 361.738C468.957 361.78 468.707 361.847 468.493 361.939C468.279 362.03 468.113 362.154 467.995 362.311C467.877 362.463 467.818 362.654 467.818 362.883C467.818 363.215 467.938 363.469 468.178 363.645C468.423 363.816 468.732 363.902 469.106 363.902ZM479.223 365.591C478.322 365.591 477.547 365.4 476.899 365.018C476.254 364.633 475.758 364.099 475.41 363.416C475.067 362.733 474.895 361.946 474.895 361.057C474.895 360.157 475.069 359.367 475.416 358.688C475.767 358.005 476.265 357.472 476.91 357.091C477.555 356.705 478.322 356.513 479.211 356.513C479.978 356.513 480.65 356.652 481.226 356.93C481.802 357.209 482.258 357.6 482.594 358.104C482.93 358.607 483.115 359.199 483.149 359.878H480.848C480.783 359.439 480.612 359.086 480.333 358.819C480.058 358.548 479.698 358.413 479.251 358.413C478.873 358.413 478.543 358.516 478.261 358.722C477.982 358.924 477.765 359.22 477.608 359.609C477.452 359.998 477.374 360.47 477.374 361.023C477.374 361.584 477.45 362.061 477.603 362.454C477.759 362.847 477.979 363.147 478.261 363.353C478.543 363.559 478.873 363.662 479.251 363.662C479.53 363.662 479.78 363.604 480.001 363.49C480.226 363.376 480.411 363.21 480.556 362.992C480.705 362.771 480.802 362.505 480.848 362.196H483.149C483.111 362.868 482.928 363.459 482.6 363.971C482.275 364.478 481.827 364.875 481.255 365.161C480.682 365.448 480.005 365.591 479.223 365.591ZM489.387 356.627V358.459H484.092V356.627H489.387ZM485.294 354.521H487.733V362.717C487.733 362.942 487.767 363.118 487.836 363.244C487.904 363.366 488 363.452 488.122 363.501C488.248 363.551 488.393 363.576 488.557 363.576C488.671 363.576 488.786 363.566 488.9 363.547C489.015 363.524 489.103 363.507 489.164 363.496L489.547 365.31C489.425 365.348 489.253 365.392 489.032 365.442C488.811 365.495 488.542 365.528 488.225 365.539C487.637 365.562 487.122 365.484 486.679 365.304C486.241 365.125 485.899 364.847 485.655 364.469C485.411 364.091 485.29 363.614 485.294 363.038V354.521ZM501.992 353.696H504.471V361.309C504.471 362.164 504.267 362.912 503.858 363.553C503.454 364.194 502.887 364.694 502.158 365.053C501.43 365.407 500.58 365.585 499.611 365.585C498.638 365.585 497.787 365.407 497.058 365.053C496.33 364.694 495.763 364.194 495.358 363.553C494.954 362.912 494.752 362.164 494.752 361.309V353.696H497.23V361.097C497.23 361.544 497.327 361.941 497.522 362.288C497.72 362.635 497.999 362.908 498.358 363.106C498.716 363.305 499.134 363.404 499.611 363.404C500.092 363.404 500.51 363.305 500.865 363.106C501.223 362.908 501.5 362.635 501.695 362.288C501.893 361.941 501.992 361.544 501.992 361.097V353.696ZM513.779 359.134L511.547 359.271C511.509 359.081 511.427 358.909 511.301 358.756C511.175 358.6 511.009 358.476 510.803 358.384C510.601 358.289 510.358 358.241 510.076 358.241C509.698 358.241 509.38 358.321 509.12 358.482C508.861 358.638 508.731 358.848 508.731 359.111C508.731 359.321 508.815 359.498 508.983 359.644C509.151 359.789 509.439 359.905 509.847 359.993L511.438 360.313C512.293 360.489 512.93 360.771 513.35 361.16C513.77 361.55 513.98 362.061 513.98 362.694C513.98 363.271 513.81 363.776 513.47 364.211C513.134 364.646 512.673 364.986 512.085 365.23C511.501 365.47 510.828 365.591 510.065 365.591C508.901 365.591 507.973 365.348 507.283 364.864C506.596 364.375 506.193 363.711 506.075 362.872L508.473 362.746C508.546 363.101 508.721 363.372 509 363.559C509.278 363.742 509.635 363.833 510.07 363.833C510.498 363.833 510.841 363.751 511.101 363.587C511.364 363.419 511.497 363.204 511.501 362.94C511.497 362.719 511.404 362.538 511.221 362.397C511.038 362.252 510.755 362.141 510.374 362.065L508.851 361.761C507.993 361.59 507.353 361.292 506.934 360.868C506.518 360.445 506.31 359.905 506.31 359.249C506.31 358.684 506.462 358.197 506.768 357.789C507.077 357.381 507.51 357.066 508.067 356.845C508.628 356.623 509.284 356.513 510.036 356.513C511.146 356.513 512.02 356.747 512.658 357.217C513.299 357.686 513.673 358.325 513.779 359.134Z" fill="#302D2D"/>
</g>
<rect x="395.53" y="316.231" width="150.11" height="71.9916" rx="4.59521" stroke="#464646" stroke-width="1.02116"/>
<g clip-path="url(#clip5_4725_22494)">
<rect x="218.809" y="496.602" width="125.555" height="71.6853" rx="4.24173" fill="white"/>
<rect width="125.555" height="17.8153" transform="translate(218.809 496.602)" fill="#464646"/>
<ellipse cx="227.715" cy="505.509" rx="2.12087" ry="2.12087" fill="#F74A4A"/>
<ellipse cx="236.199" cy="505.509" rx="2.12087" ry="2.12087" fill="#FFAE1B"/>
<ellipse cx="244.687" cy="505.509" rx="2.12087" ry="2.12087" fill="#259F46"/>
<path d="M240.419 538.352V528.48H244.121C244.879 528.48 245.516 528.622 246.03 528.904C246.547 529.187 246.938 529.576 247.201 530.071C247.468 530.562 247.601 531.122 247.601 531.748C247.601 532.381 247.468 532.944 247.201 533.435C246.934 533.927 246.541 534.314 246.02 534.597C245.5 534.876 244.858 535.016 244.097 535.016H241.643V533.546H243.856C244.299 533.546 244.662 533.469 244.945 533.315C245.228 533.161 245.437 532.948 245.572 532.678C245.71 532.409 245.779 532.098 245.779 531.748C245.779 531.398 245.71 531.089 245.572 530.823C245.437 530.556 245.226 530.349 244.94 530.201C244.658 530.05 244.293 529.974 243.846 529.974H242.207V538.352H240.419ZM251.075 538.501C250.606 538.501 250.184 538.418 249.808 538.251C249.435 538.08 249.139 537.83 248.921 537.499C248.705 537.168 248.598 536.76 248.598 536.274C248.598 535.857 248.675 535.511 248.829 535.238C248.983 534.965 249.194 534.746 249.461 534.582C249.727 534.419 250.028 534.295 250.362 534.211C250.699 534.125 251.048 534.062 251.408 534.023C251.842 533.978 252.194 533.938 252.463 533.903C252.733 533.864 252.929 533.806 253.052 533.729C253.177 533.649 253.239 533.525 253.239 533.358V533.329C253.239 532.966 253.132 532.685 252.917 532.486C252.701 532.286 252.391 532.187 251.986 532.187C251.559 532.187 251.22 532.28 250.969 532.466C250.722 532.653 250.555 532.873 250.468 533.127L248.839 532.895C248.967 532.446 249.179 532.07 249.475 531.767C249.771 531.462 250.132 531.234 250.559 531.083C250.987 530.929 251.459 530.852 251.977 530.852C252.333 530.852 252.688 530.893 253.042 530.977C253.395 531.061 253.718 531.199 254.011 531.392C254.303 531.581 254.538 531.84 254.714 532.168C254.894 532.495 254.984 532.905 254.984 533.397V538.352H253.307V537.335H253.249C253.143 537.54 252.994 537.733 252.801 537.913C252.611 538.09 252.372 538.233 252.083 538.342C251.797 538.448 251.461 538.501 251.075 538.501ZM251.528 537.219C251.879 537.219 252.182 537.15 252.439 537.012C252.696 536.87 252.894 536.684 253.032 536.453C253.174 536.221 253.244 535.969 253.244 535.696V534.823C253.19 534.868 253.096 534.91 252.965 534.949C252.836 534.987 252.692 535.021 252.531 535.05C252.37 535.079 252.211 535.105 252.054 535.127C251.896 535.15 251.76 535.169 251.644 535.185C251.384 535.22 251.151 535.278 250.945 535.358C250.739 535.439 250.577 535.551 250.458 535.696C250.339 535.837 250.28 536.02 250.28 536.245C250.28 536.567 250.397 536.809 250.632 536.973C250.866 537.137 251.165 537.219 251.528 537.219ZM256.739 538.352V530.948H258.431V532.182H258.508C258.643 531.755 258.874 531.425 259.202 531.194C259.533 530.959 259.911 530.842 260.335 530.842C260.431 530.842 260.539 530.847 260.658 530.856C260.78 530.863 260.881 530.874 260.961 530.89V532.495C260.887 532.47 260.77 532.447 260.61 532.428C260.452 532.405 260.299 532.394 260.152 532.394C259.833 532.394 259.547 532.463 259.294 532.601C259.043 532.736 258.845 532.924 258.701 533.165C258.556 533.406 258.484 533.684 258.484 533.999V538.352H256.739ZM266.215 530.948V532.298H261.959V530.948H266.215ZM263.01 529.174H264.755V536.125C264.755 536.359 264.79 536.539 264.861 536.665C264.935 536.787 265.031 536.87 265.15 536.915C265.269 536.96 265.401 536.983 265.545 536.983C265.655 536.983 265.754 536.975 265.844 536.959C265.937 536.943 266.008 536.928 266.056 536.915L266.35 538.28C266.257 538.312 266.124 538.347 265.95 538.386C265.78 538.424 265.571 538.447 265.324 538.453C264.887 538.466 264.493 538.4 264.143 538.255C263.792 538.108 263.514 537.879 263.309 537.571C263.106 537.262 263.007 536.877 263.01 536.414V529.174ZM269.42 534.014V538.352H267.675V530.948H269.342V532.206H269.429C269.599 531.792 269.871 531.462 270.244 531.218C270.62 530.974 271.084 530.852 271.637 530.852C272.148 530.852 272.593 530.961 272.972 531.179C273.354 531.398 273.65 531.714 273.859 532.129C274.071 532.544 274.175 533.046 274.172 533.638V538.352H272.427V533.908C272.427 533.413 272.299 533.026 272.042 532.746C271.788 532.466 271.436 532.327 270.986 532.327C270.681 532.327 270.409 532.394 270.171 532.529C269.937 532.661 269.752 532.852 269.617 533.103C269.485 533.353 269.42 533.657 269.42 534.014ZM279.224 538.496C278.481 538.496 277.84 538.342 277.3 538.034C276.764 537.722 276.351 537.282 276.062 536.713C275.772 536.141 275.628 535.468 275.628 534.693C275.628 533.932 275.772 533.263 276.062 532.688C276.354 532.11 276.762 531.66 277.286 531.338C277.81 531.014 278.425 530.852 279.132 530.852C279.588 530.852 280.019 530.926 280.424 531.073C280.832 531.218 281.192 531.443 281.504 531.748C281.819 532.053 282.066 532.442 282.246 532.915C282.426 533.384 282.516 533.943 282.516 534.592V535.127H276.447V533.951H280.843C280.84 533.617 280.768 533.32 280.626 533.059C280.485 532.796 280.287 532.589 280.033 532.437C279.783 532.286 279.49 532.211 279.156 532.211C278.8 532.211 278.486 532.298 278.216 532.471C277.946 532.642 277.736 532.866 277.585 533.146C277.437 533.422 277.362 533.726 277.358 534.057V535.084C277.358 535.514 277.437 535.884 277.594 536.192C277.752 536.498 277.972 536.732 278.255 536.896C278.538 537.057 278.869 537.137 279.248 537.137C279.502 537.137 279.731 537.102 279.937 537.031C280.143 536.957 280.321 536.85 280.472 536.708C280.623 536.567 280.737 536.392 280.814 536.183L282.444 536.366C282.341 536.797 282.145 537.172 281.856 537.494C281.57 537.812 281.203 538.059 280.757 538.236C280.31 538.41 279.799 538.496 279.224 538.496ZM283.992 538.352V530.948H285.684V532.182H285.761C285.896 531.755 286.127 531.425 286.455 531.194C286.786 530.959 287.164 530.842 287.588 530.842C287.684 530.842 287.792 530.847 287.911 530.856C288.033 530.863 288.134 530.874 288.214 530.89V532.495C288.141 532.47 288.023 532.447 287.863 532.428C287.705 532.405 287.553 532.394 287.405 532.394C287.087 532.394 286.801 532.463 286.547 532.601C286.296 532.736 286.098 532.924 285.954 533.165C285.809 533.406 285.737 533.684 285.737 533.999V538.352H283.992ZM295.225 532.905L293.635 533.079C293.59 532.918 293.511 532.767 293.399 532.625C293.289 532.484 293.141 532.37 292.955 532.283C292.769 532.196 292.541 532.153 292.271 532.153C291.908 532.153 291.602 532.232 291.355 532.389C291.111 532.547 290.99 532.751 290.993 533.001C290.99 533.217 291.069 533.392 291.229 533.527C291.393 533.662 291.663 533.773 292.039 533.859L293.302 534.129C294.003 534.28 294.523 534.52 294.864 534.848C295.208 535.175 295.381 535.604 295.384 536.135C295.381 536.6 295.245 537.012 294.975 537.368C294.708 537.722 294.337 537.998 293.861 538.198C293.386 538.397 292.839 538.496 292.222 538.496C291.316 538.496 290.587 538.307 290.034 537.928C289.481 537.545 289.152 537.013 289.046 536.332L290.747 536.168C290.825 536.502 290.988 536.755 291.239 536.925C291.49 537.095 291.816 537.181 292.218 537.181C292.632 537.181 292.965 537.095 293.215 536.925C293.469 536.755 293.596 536.544 293.596 536.294C293.596 536.082 293.514 535.906 293.35 535.768C293.19 535.63 292.939 535.524 292.598 535.45L291.336 535.185C290.625 535.037 290.1 534.788 289.759 534.438C289.419 534.084 289.25 533.638 289.253 533.098C289.25 532.642 289.374 532.246 289.624 531.912C289.878 531.575 290.23 531.314 290.68 531.131C291.133 530.945 291.655 530.852 292.247 530.852C293.114 530.852 293.797 531.036 294.295 531.406C294.796 531.776 295.106 532.275 295.225 532.905ZM298.568 534.014V538.352H296.823V528.48H298.53V532.206H298.616C298.79 531.788 299.058 531.459 299.421 531.218C299.788 530.974 300.254 530.852 300.819 530.852C301.333 530.852 301.782 530.959 302.164 531.175C302.546 531.39 302.842 531.705 303.051 532.119C303.263 532.534 303.369 533.04 303.369 533.638V538.352H301.624V533.908C301.624 533.41 301.496 533.022 301.239 532.746C300.985 532.466 300.628 532.327 300.168 532.327C299.86 532.327 299.584 532.394 299.339 532.529C299.098 532.661 298.909 532.852 298.771 533.103C298.636 533.353 298.568 533.657 298.568 534.014ZM305.148 538.352V530.948H306.893V538.352H305.148ZM306.025 529.897C305.749 529.897 305.511 529.806 305.312 529.623C305.112 529.436 305.013 529.213 305.013 528.953C305.013 528.689 305.112 528.466 305.312 528.283C305.511 528.096 305.749 528.003 306.025 528.003C306.304 528.003 306.542 528.096 306.738 528.283C306.938 528.466 307.037 528.689 307.037 528.953C307.037 529.213 306.938 529.436 306.738 529.623C306.542 529.806 306.304 529.897 306.025 529.897ZM308.687 541.128V530.948H310.403V532.172H310.504C310.594 531.992 310.721 531.801 310.885 531.599C311.049 531.393 311.27 531.218 311.55 531.073C311.83 530.926 312.186 530.852 312.62 530.852C313.192 530.852 313.708 530.998 314.167 531.29C314.63 531.58 314.996 532.008 315.266 532.577C315.539 533.143 315.676 533.837 315.676 534.66C315.676 535.473 315.543 536.163 315.276 536.732C315.009 537.301 314.646 537.735 314.187 538.034C313.727 538.333 313.207 538.482 312.625 538.482C312.201 538.482 311.849 538.411 311.569 538.27C311.29 538.128 311.065 537.958 310.894 537.759C310.727 537.556 310.597 537.365 310.504 537.185H310.432V541.128H308.687ZM310.398 534.65C310.398 535.129 310.465 535.548 310.6 535.908C310.739 536.268 310.936 536.549 311.193 536.752C311.454 536.951 311.769 537.05 312.138 537.05C312.524 537.05 312.847 536.948 313.107 536.742C313.367 536.533 313.563 536.249 313.695 535.889C313.83 535.526 313.897 535.113 313.897 534.65C313.897 534.19 313.832 533.782 313.7 533.426C313.568 533.069 313.372 532.789 313.112 532.587C312.851 532.384 312.527 532.283 312.138 532.283C311.765 532.283 311.449 532.381 311.189 532.577C310.928 532.773 310.731 533.048 310.596 533.402C310.464 533.755 310.398 534.171 310.398 534.65ZM323.022 532.905L321.431 533.079C321.386 532.918 321.308 532.767 321.195 532.625C321.086 532.484 320.938 532.37 320.752 532.283C320.565 532.196 320.337 532.153 320.067 532.153C319.704 532.153 319.399 532.232 319.151 532.389C318.907 532.547 318.787 532.751 318.79 533.001C318.787 533.217 318.865 533.392 319.026 533.527C319.19 533.662 319.46 533.773 319.836 533.859L321.099 534.129C321.799 534.28 322.32 534.52 322.66 534.848C323.004 535.175 323.178 535.604 323.181 536.135C323.178 536.6 323.041 537.012 322.771 537.368C322.505 537.722 322.133 537.998 321.658 538.198C321.182 538.397 320.636 538.496 320.019 538.496C319.113 538.496 318.383 538.307 317.831 537.928C317.278 537.545 316.949 537.013 316.843 536.332L318.544 536.168C318.621 536.502 318.785 536.755 319.036 536.925C319.286 537.095 319.613 537.181 320.014 537.181C320.429 537.181 320.761 537.095 321.012 536.925C321.266 536.755 321.393 536.544 321.393 536.294C321.393 536.082 321.311 535.906 321.147 535.768C320.986 535.63 320.736 535.524 320.395 535.45L319.132 535.185C318.422 535.037 317.897 534.788 317.556 534.438C317.215 534.084 317.047 533.638 317.05 533.098C317.047 532.642 317.17 532.246 317.421 531.912C317.675 531.575 318.027 531.314 318.477 531.131C318.93 530.945 319.452 530.852 320.043 530.852C320.911 530.852 321.594 531.036 322.092 531.406C322.593 531.776 322.903 532.275 323.022 532.905ZM249.352 544.48V554.352H247.564V544.48H249.352ZM252.956 550.014V554.352H251.211V546.948H252.879V548.206H252.966C253.136 547.792 253.408 547.462 253.781 547.218C254.157 546.974 254.621 546.852 255.174 546.852C255.685 546.852 256.13 546.961 256.509 547.179C256.891 547.398 257.187 547.714 257.396 548.129C257.608 548.544 257.712 549.046 257.709 549.638V554.352H255.964V549.908C255.964 549.413 255.836 549.026 255.578 548.746C255.325 548.466 254.973 548.327 254.523 548.327C254.218 548.327 253.946 548.394 253.708 548.529C253.474 548.661 253.289 548.852 253.154 549.103C253.022 549.353 252.956 549.657 252.956 550.014ZM261.228 550.014V554.352H259.483V546.948H261.151V548.206H261.237C261.408 547.792 261.679 547.462 262.052 547.218C262.428 546.974 262.892 546.852 263.445 546.852C263.956 546.852 264.401 546.961 264.78 547.179C265.163 547.398 265.458 547.714 265.667 548.129C265.879 548.544 265.984 549.046 265.98 549.638V554.352H264.235V549.908C264.235 549.413 264.107 549.026 263.85 548.746C263.596 548.466 263.244 548.327 262.794 548.327C262.489 548.327 262.217 548.394 261.98 548.529C261.745 548.661 261.56 548.852 261.425 549.103C261.294 549.353 261.228 549.657 261.228 550.014ZM271.032 554.496C270.29 554.496 269.648 554.342 269.109 554.034C268.572 553.722 268.159 553.282 267.87 552.713C267.581 552.141 267.436 551.468 267.436 550.693C267.436 549.932 267.581 549.263 267.87 548.688C268.162 548.11 268.57 547.66 269.094 547.338C269.618 547.014 270.233 546.852 270.94 546.852C271.397 546.852 271.827 546.926 272.232 547.073C272.64 547.218 273 547.443 273.312 547.748C273.627 548.053 273.874 548.442 274.054 548.915C274.234 549.384 274.324 549.943 274.324 550.592V551.127H268.255V549.951H272.651C272.648 549.617 272.576 549.32 272.435 549.059C272.293 548.796 272.096 548.589 271.842 548.437C271.591 548.286 271.299 548.211 270.964 548.211C270.608 548.211 270.294 548.298 270.024 548.471C269.755 548.642 269.544 548.866 269.393 549.146C269.245 549.422 269.17 549.726 269.166 550.057V551.084C269.166 551.514 269.245 551.884 269.403 552.192C269.56 552.498 269.78 552.732 270.063 552.896C270.346 553.057 270.677 553.137 271.056 553.137C271.31 553.137 271.54 553.102 271.745 553.031C271.951 552.957 272.129 552.85 272.28 552.708C272.431 552.567 272.545 552.392 272.623 552.183L274.252 552.366C274.149 552.797 273.953 553.172 273.664 553.494C273.378 553.812 273.011 554.059 272.565 554.236C272.118 554.41 271.607 554.496 271.032 554.496ZM275.8 554.352V546.948H277.492V548.182H277.569C277.704 547.755 277.936 547.425 278.263 547.194C278.594 546.959 278.972 546.842 279.396 546.842C279.492 546.842 279.6 546.847 279.719 546.856C279.841 546.863 279.942 546.874 280.023 546.89V548.495C279.949 548.47 279.831 548.447 279.671 548.428C279.513 548.405 279.361 548.394 279.213 548.394C278.895 548.394 278.609 548.463 278.355 548.601C278.104 548.736 277.907 548.924 277.762 549.165C277.617 549.406 277.545 549.684 277.545 549.999V554.352H275.8ZM284.626 554.352V544.48H288.328C289.086 544.48 289.722 544.622 290.237 544.904C290.754 545.187 291.144 545.576 291.408 546.071C291.675 546.562 291.808 547.122 291.808 547.748C291.808 548.381 291.675 548.944 291.408 549.435C291.141 549.927 290.747 550.314 290.227 550.597C289.706 550.876 289.065 551.016 288.304 551.016H285.85V549.546H288.063C288.506 549.546 288.869 549.469 289.152 549.315C289.435 549.161 289.644 548.948 289.779 548.678C289.917 548.409 289.986 548.098 289.986 547.748C289.986 547.398 289.917 547.089 289.779 546.823C289.644 546.556 289.433 546.349 289.147 546.201C288.864 546.05 288.5 545.974 288.053 545.974H286.414V554.352H284.626ZM295.282 554.501C294.813 554.501 294.39 554.418 294.014 554.251C293.642 554.08 293.346 553.83 293.127 553.499C292.912 553.168 292.804 552.76 292.804 552.274C292.804 551.857 292.882 551.511 293.036 551.238C293.19 550.965 293.401 550.746 293.667 550.582C293.934 550.419 294.234 550.295 294.569 550.211C294.906 550.125 295.255 550.062 295.615 550.023C296.048 549.978 296.4 549.938 296.67 549.903C296.94 549.864 297.136 549.806 297.258 549.729C297.384 549.649 297.446 549.525 297.446 549.358V549.329C297.446 548.966 297.339 548.685 297.123 548.486C296.908 548.286 296.598 548.187 296.193 548.187C295.766 548.187 295.427 548.28 295.176 548.466C294.929 548.653 294.761 548.873 294.675 549.127L293.045 548.895C293.174 548.446 293.386 548.07 293.682 547.767C293.977 547.462 294.339 547.234 294.766 547.083C295.194 546.929 295.666 546.852 296.183 546.852C296.54 546.852 296.895 546.893 297.249 546.977C297.602 547.061 297.925 547.199 298.217 547.392C298.51 547.581 298.744 547.84 298.921 548.168C299.101 548.495 299.191 548.905 299.191 549.397V554.352H297.514V553.335H297.456C297.35 553.54 297.2 553.733 297.008 553.913C296.818 554.09 296.579 554.233 296.289 554.342C296.003 554.448 295.668 554.501 295.282 554.501ZM295.735 553.219C296.085 553.219 296.389 553.15 296.646 553.012C296.903 552.87 297.101 552.684 297.239 552.453C297.38 552.221 297.451 551.969 297.451 551.696V550.823C297.396 550.868 297.303 550.91 297.172 550.949C297.043 550.987 296.898 551.021 296.738 551.05C296.577 551.079 296.418 551.105 296.261 551.127C296.103 551.15 295.966 551.169 295.851 551.185C295.591 551.22 295.358 551.278 295.152 551.358C294.946 551.439 294.784 551.551 294.665 551.696C294.546 551.837 294.487 552.02 294.487 552.245C294.487 552.567 294.604 552.809 294.839 552.973C295.073 553.137 295.372 553.219 295.735 553.219ZM304.166 557.282C303.539 557.282 303.001 557.197 302.551 557.027C302.101 556.86 301.739 556.635 301.466 556.352C301.193 556.069 301.004 555.756 300.897 555.412L302.469 555.031C302.54 555.176 302.642 555.319 302.777 555.46C302.912 555.605 303.094 555.724 303.322 555.817C303.553 555.914 303.844 555.962 304.194 555.962C304.689 555.962 305.099 555.841 305.424 555.6C305.748 555.362 305.91 554.97 305.91 554.424V553.021H305.824C305.734 553.201 305.602 553.386 305.428 553.576C305.258 553.765 305.032 553.924 304.749 554.053C304.469 554.181 304.117 554.246 303.693 554.246C303.124 554.246 302.609 554.112 302.146 553.846C301.686 553.576 301.32 553.174 301.047 552.641C300.777 552.104 300.642 551.432 300.642 550.626C300.642 549.813 300.777 549.127 301.047 548.568C301.32 548.005 301.688 547.58 302.151 547.29C302.613 546.998 303.129 546.852 303.698 546.852C304.132 546.852 304.488 546.926 304.768 547.073C305.051 547.218 305.276 547.393 305.443 547.599C305.61 547.801 305.737 547.992 305.824 548.172H305.92V546.948H307.641V554.472C307.641 555.105 307.49 555.629 307.188 556.044C306.886 556.458 306.473 556.768 305.949 556.974C305.425 557.18 304.831 557.282 304.166 557.282ZM304.18 552.877C304.55 552.877 304.864 552.787 305.125 552.607C305.385 552.427 305.583 552.168 305.718 551.831C305.853 551.493 305.92 551.089 305.92 550.616C305.92 550.15 305.853 549.742 305.718 549.392C305.586 549.042 305.39 548.77 305.13 548.577C304.873 548.381 304.556 548.283 304.18 548.283C303.791 548.283 303.467 548.384 303.206 548.587C302.946 548.789 302.75 549.067 302.618 549.421C302.487 549.771 302.421 550.17 302.421 550.616C302.421 551.069 302.487 551.466 302.618 551.807C302.753 552.144 302.951 552.408 303.211 552.597C303.475 552.784 303.798 552.877 304.18 552.877ZM312.707 554.496C311.965 554.496 311.323 554.342 310.784 554.034C310.247 553.722 309.834 553.282 309.545 552.713C309.256 552.141 309.111 551.468 309.111 550.693C309.111 549.932 309.256 549.263 309.545 548.688C309.837 548.11 310.245 547.66 310.769 547.338C311.293 547.014 311.908 546.852 312.615 546.852C313.072 546.852 313.502 546.926 313.907 547.073C314.315 547.218 314.675 547.443 314.987 547.748C315.302 548.053 315.549 548.442 315.729 548.915C315.909 549.384 315.999 549.943 315.999 550.592V551.127H309.93V549.951H314.326C314.323 549.617 314.251 549.32 314.11 549.059C313.968 548.796 313.77 548.589 313.517 548.437C313.266 548.286 312.974 548.211 312.639 548.211C312.283 548.211 311.969 548.298 311.699 548.471C311.43 548.642 311.219 548.866 311.068 549.146C310.92 549.422 310.845 549.726 310.841 550.057V551.084C310.841 551.514 310.92 551.884 311.078 552.192C311.235 552.498 311.455 552.732 311.738 552.896C312.021 553.057 312.352 553.137 312.731 553.137C312.985 553.137 313.215 553.102 313.42 553.031C313.626 552.957 313.804 552.85 313.955 552.708C314.106 552.567 314.22 552.392 314.297 552.183L315.927 552.366C315.824 552.797 315.628 553.172 315.339 553.494C315.053 553.812 314.686 554.059 314.24 554.236C313.793 554.41 313.282 554.496 312.707 554.496Z" fill="#302D2D"/>
</g>
<rect x="219.233" y="497.026" width="124.707" height="70.8369" rx="3.81756" stroke="#464646" stroke-width="0.848346"/>
<path d="M206.077 358.988C205.016 358.988 204.168 359.837 204.168 360.897C204.168 361.957 205.016 362.806 206.077 362.806C207.137 362.806 207.986 361.957 207.986 360.897C207.986 359.837 207.137 358.988 206.077 358.988Z" fill="white"/>
<path d="M218.802 526.933L212.439 523.26V530.607L218.802 526.933ZM204.804 360.897C204.804 360.188 205.368 359.625 206.077 359.625V358.352C204.665 358.352 203.532 359.485 203.532 360.897H204.804ZM206.077 359.625C206.786 359.625 207.349 360.188 207.349 360.897H208.622C208.622 359.485 207.489 358.352 206.077 358.352V359.625ZM207.349 360.897C207.349 361.606 206.786 362.17 206.077 362.17V363.442C207.489 363.442 208.622 362.309 208.622 360.897H207.349ZM206.077 362.17C205.368 362.17 204.804 361.606 204.804 360.897H203.532C203.532 362.309 204.665 363.442 206.077 363.442V362.17ZM204.168 360.261H201.835V361.533H204.168V360.261ZM192.715 369.381V518.45H193.988V369.381H192.715ZM201.835 527.57H213.076V526.297H201.835V527.57ZM192.715 518.45C192.715 523.487 196.798 527.57 201.835 527.57V526.297C197.501 526.297 193.988 522.784 193.988 518.45H192.715ZM201.835 360.261C196.798 360.261 192.715 364.344 192.715 369.381H193.988C193.988 365.047 197.501 361.533 201.835 361.533V360.261Z" fill="black"/>
<path d="M470.522 171.705C469.462 171.705 468.613 172.553 468.613 173.614C468.613 174.674 469.462 175.523 470.522 175.523C471.582 175.523 472.431 174.674 472.431 173.614C472.431 172.553 471.582 171.705 470.522 171.705Z" fill="white"/>
<path d="M470.585 315.712L474.258 309.349H466.911L470.585 315.712ZM469.25 173.614C469.25 172.905 469.813 172.341 470.522 172.341V171.069C469.11 171.069 467.977 172.202 467.977 173.614H469.25ZM470.522 172.341C471.231 172.341 471.795 172.905 471.795 173.614H473.067C473.067 172.202 471.934 171.069 470.522 171.069V172.341ZM471.795 173.614C471.795 174.323 471.231 174.886 470.522 174.886V176.159C471.934 176.159 473.067 175.026 473.067 173.614H471.795ZM470.522 174.886C469.813 174.886 469.25 174.323 469.25 173.614H467.977C467.977 175.026 469.11 176.159 470.522 176.159V174.886ZM469.886 175.523V244.631H471.158V175.523H469.886ZM469.949 244.694V309.986H471.221V244.694H469.949ZM470.553 245.299C470.219 245.299 469.949 245.028 469.949 244.694H471.221C471.221 244.326 470.922 244.027 470.553 244.027V245.299ZM469.886 244.631C469.886 245 470.185 245.299 470.553 245.299V244.027C470.888 244.027 471.158 244.298 471.158 244.631H469.886Z" fill="black"/>
<path d="M283.785 315.712L287.459 309.35H280.112L283.785 315.712ZM460.516 244.027H292.269V245.299H460.516V244.027ZM283.149 253.147V309.986H284.421V253.147H283.149ZM292.269 244.027C287.232 244.027 283.149 248.11 283.149 253.147H284.421C284.421 248.813 287.935 245.299 292.269 245.299V244.027Z" fill="black"/>
<path d="M470.519 171.706C469.458 171.706 468.61 172.554 468.61 173.615C468.61 174.675 469.458 175.524 470.519 175.524C471.579 175.524 472.427 174.675 472.427 173.615C472.427 172.554 471.579 171.706 470.519 171.706Z" fill="white"/>
<path d="M470.519 175.524C471.579 175.524 472.427 174.675 472.427 173.615C472.427 172.554 471.579 171.706 470.519 171.706C469.458 171.706 468.61 172.554 468.61 173.615C468.61 174.675 469.458 175.524 470.519 175.524ZM470.519 175.524V236.18C470.519 240.866 466.72 244.664 462.035 244.664H105.054C100.368 244.664 96.5703 248.462 96.5703 253.147V315.713" stroke="black" stroke-width="1.27252"/>
<path d="M470.522 171.705C469.462 171.705 468.613 172.553 468.613 173.614C468.613 174.674 469.462 175.523 470.522 175.523C471.582 175.523 472.431 174.674 472.431 173.614C472.431 172.553 471.582 171.705 470.522 171.705Z" fill="white"/>
<path d="M470.522 175.523C471.582 175.523 472.431 174.674 472.431 173.614C472.431 172.553 471.582 171.705 470.522 171.705C469.462 171.705 468.613 172.553 468.613 173.614C468.613 174.674 469.462 175.523 470.522 175.523ZM470.522 175.523V236.179C470.522 240.865 474.32 244.663 479.006 244.663H839.961C844.646 244.663 848.444 248.461 848.444 253.146V315.712" stroke="black" stroke-width="1.27252"/>
</g>
<defs>
<clipPath id="clip0_4725_22494">
<rect width="581" height="648" rx="16" fill="white"/>
</clipPath>
<clipPath id="clip1_4725_22494">
<rect x="383.129" y="82" width="174.759" height="91.6214" rx="5.90091" fill="white"/>
</clipPath>
<clipPath id="clip2_4725_22494">
<rect x="21" y="315.718" width="151.131" height="73.0128" rx="5.10579" fill="white"/>
</clipPath>
<clipPath id="clip3_4725_22494">
<rect x="208.215" y="315.72" width="151.131" height="73.0128" rx="5.10579" fill="white"/>
</clipPath>
<clipPath id="clip4_4725_22494">
<rect x="395.02" y="315.721" width="151.131" height="73.0128" rx="5.10579" fill="white"/>
</clipPath>
<clipPath id="clip5_4725_22494">
<rect x="218.809" y="496.602" width="125.555" height="71.6853" rx="4.24173" fill="white"/>
</clipPath>
</defs>
</svg>
