<svg width="1202" height="648" viewBox="0 0 1202 648" fill="none" xmlns="http://www.w3.org/2000/svg">
<rect width="1202" height="648" rx="16" fill="#0A1439"/>
<path d="M442.005 311.455V307.458L453.781 288.863H457.114V294.553H455.079L447.15 307.108V307.326H463.593V311.455H442H442.005ZM455.247 316.601V310.235L455.303 308.445V288.863H460.046V316.596H455.247V316.601Z" fill="white"/>
<path d="M468.194 316.607V288.874H478.601C480.733 288.874 482.525 289.271 483.975 290.064C485.425 290.857 486.525 291.951 487.268 293.334C488.011 294.722 488.387 296.293 488.387 298.052C488.387 299.812 488.011 301.408 487.262 302.791C486.514 304.174 485.405 305.258 483.939 306.051C482.474 306.839 480.672 307.236 478.53 307.236H471.629V303.107H477.848C479.095 303.107 480.117 302.888 480.911 302.456C481.705 302.024 482.296 301.429 482.682 300.666C483.064 299.908 483.257 299.039 483.257 298.052C483.257 297.066 483.064 296.201 482.682 295.454C482.301 294.707 481.705 294.122 480.906 293.7C480.107 293.278 479.079 293.069 477.822 293.069H473.212V316.607H468.184H468.194Z" fill="white"/>
<path d="M525.992 298.227H520.923C520.78 297.398 520.511 296.656 520.124 296.01C519.737 295.364 519.254 294.815 518.674 294.363C518.093 293.91 517.437 293.569 516.699 293.341C515.961 293.112 515.167 292.995 514.322 292.995C512.811 292.995 511.478 293.371 510.312 294.124C509.147 294.876 508.236 295.98 507.574 297.429C506.913 298.878 506.587 300.648 506.587 302.732C506.587 304.817 506.918 306.637 507.584 308.087C508.251 309.536 509.162 310.629 510.322 311.366C511.483 312.104 512.816 312.47 514.312 312.47C515.142 312.47 515.925 312.358 516.648 312.139C517.376 311.921 518.032 311.59 518.612 311.158C519.198 310.726 519.686 310.192 520.088 309.561C520.49 308.931 520.77 308.209 520.923 307.395L525.992 307.421C525.803 308.737 525.391 309.973 524.765 311.132C524.139 312.287 523.315 313.309 522.307 314.188C521.294 315.068 520.114 315.755 518.755 316.248C517.401 316.741 515.895 316.985 514.241 316.985C511.803 316.985 509.625 316.421 507.707 315.292C505.793 314.163 504.282 312.536 503.177 310.405C502.073 308.275 501.523 305.717 501.523 302.737C501.523 299.758 502.078 297.19 503.193 295.064C504.302 292.939 505.819 291.312 507.732 290.183C509.646 289.054 511.819 288.49 514.236 288.49C515.783 288.49 517.218 288.708 518.546 289.141C519.875 289.573 521.06 290.208 522.098 291.042C523.137 291.876 523.992 292.898 524.668 294.103C525.345 295.308 525.783 296.681 525.992 298.227Z" fill="white"/>
<path d="M533.818 316.607H528.449L538.22 288.874H544.429L554.215 316.607H548.846L541.431 294.559H541.213L533.813 316.607H533.818ZM533.996 305.73H548.632V309.768H533.996V305.73Z" fill="white"/>
<path d="M557.872 316.607V288.874H568.284C570.417 288.874 572.208 289.271 573.658 290.064C575.109 290.857 576.208 291.951 576.951 293.334C577.694 294.722 578.071 296.293 578.071 298.052C578.071 299.812 577.694 301.408 576.946 302.791C576.198 304.174 575.089 305.258 573.623 306.051C572.157 306.839 570.356 307.236 568.213 307.236H561.312V303.107H567.531C568.778 303.107 569.801 302.888 570.595 302.456C571.389 302.024 571.979 301.429 572.366 300.666C572.748 299.908 572.941 299.039 572.941 298.052C572.941 297.066 572.748 296.201 572.366 295.454C571.984 294.707 571.389 294.122 570.59 293.7C569.791 293.278 568.763 293.069 567.506 293.069H562.895V316.607H557.867H557.872Z" fill="white"/>
<path d="M587.458 288.872V316.605H582.43V288.872H587.458Z" fill="white"/>
<path d="M591.703 293.082V288.872H613.851V293.082H605.271V316.605H600.283V293.082H591.703Z" fill="white"/>
<path d="M618.306 316.607H612.938L622.708 288.874H628.917L638.703 316.607H633.334L625.92 294.559H625.701L618.301 316.607H618.306ZM618.485 305.73H633.121V309.768H618.485V305.73Z" fill="white"/>
<path d="M642.371 316.607V288.874H647.399V312.397H659.623V316.607H642.371Z" fill="white"/>
<path d="M673.443 316.607V288.874H683.855C685.987 288.874 687.778 289.271 689.229 290.064C690.679 290.857 691.778 291.951 692.521 293.334C693.264 294.722 693.641 296.293 693.641 298.052C693.641 299.812 693.264 301.408 692.516 302.791C691.768 304.174 690.659 305.258 689.193 306.051C687.728 306.839 685.926 307.236 683.784 307.236H676.883V303.107H683.102C684.348 303.107 685.371 302.888 686.165 302.456C686.959 302.024 687.549 301.429 687.936 300.666C688.318 299.908 688.511 299.039 688.511 298.052C688.511 297.066 688.318 296.201 687.936 295.454C687.555 294.707 686.959 294.122 686.16 293.7C685.361 293.278 684.333 293.069 683.076 293.069H678.465V316.607H673.438H673.443Z" fill="white"/>
<path d="M698.49 316.607H693.121L702.892 288.874H709.101L718.887 316.607H713.518L706.103 294.559H705.884L698.485 316.607H698.49ZM698.668 305.73H713.304V309.768H698.668V305.73Z" fill="white"/>
<path d="M722.555 316.607V288.874H732.962C735.094 288.874 736.885 289.245 738.336 289.983C739.786 290.725 740.885 291.757 741.628 293.09C742.371 294.422 742.748 295.973 742.748 297.742C742.748 299.512 742.371 301.063 741.618 302.364C740.865 303.671 739.756 304.678 738.29 305.385C736.824 306.091 735.028 306.447 732.896 306.447H725.481V302.278H732.219C733.466 302.278 734.489 302.105 735.282 301.754C736.076 301.403 736.667 300.895 737.053 300.224C737.435 299.552 737.628 298.724 737.628 297.737C737.628 296.751 737.435 295.912 737.048 295.21C736.662 294.508 736.066 293.979 735.272 293.613C734.478 293.247 733.45 293.064 732.193 293.064H727.588V316.602H722.56L722.555 316.607ZM736.896 304.042L743.766 316.607H738.153L731.405 304.042H736.896Z" fill="white"/>
<path d="M746.164 293.082V288.872H768.312V293.082H759.731V316.605H754.744V293.082H746.164Z" fill="white"/>
<path d="M795.379 288.872V316.605H790.906L777.827 297.715H777.598V316.605H772.57V288.872H777.069L790.138 307.777H790.382V288.872H795.385H795.379Z" fill="white"/>
<path d="M800.84 316.607V288.874H818.896V293.084H805.868V300.615H817.959V304.825H805.868V312.397H819.003V316.607H800.84Z" fill="white"/>
<path d="M824.031 316.607V288.874H834.443C836.576 288.874 838.367 289.245 839.817 289.983C841.268 290.725 842.367 291.757 843.11 293.09C843.853 294.422 844.23 295.973 844.23 297.742C844.23 299.512 843.853 301.063 843.1 302.364C842.347 303.671 841.237 304.678 839.772 305.385C838.306 306.091 836.51 306.447 834.377 306.447H826.963V302.278H833.7C834.947 302.278 835.97 302.105 836.764 301.754C837.558 301.403 838.148 300.895 838.535 300.224C838.917 299.552 839.11 298.724 839.11 297.737C839.11 296.751 838.917 295.912 838.525 295.21C838.138 294.508 837.543 293.979 836.749 293.613C835.955 293.247 834.927 293.064 833.675 293.064H829.064V316.602H824.036L824.031 316.607ZM838.372 304.042L845.242 316.607H839.629L832.881 304.042H838.372Z" fill="white"/>
<path d="M863.947 296.493C863.82 295.308 863.291 294.388 862.354 293.732C861.418 293.076 860.207 292.746 858.715 292.746C857.667 292.746 856.766 292.903 856.018 293.219C855.27 293.534 854.695 293.961 854.298 294.505C853.901 295.044 853.698 295.664 853.688 296.361C853.688 296.941 853.82 297.439 854.09 297.866C854.359 298.293 854.721 298.649 855.179 298.944C855.642 299.239 856.151 299.483 856.71 299.681C857.27 299.88 857.835 300.048 858.405 300.18L861.006 300.831C862.054 301.075 863.062 301.405 864.034 301.817C865.006 302.234 865.876 302.758 866.649 303.388C867.423 304.019 868.034 304.781 868.486 305.676C868.939 306.571 869.163 307.619 869.163 308.819C869.163 310.446 868.746 311.875 867.917 313.105C867.087 314.336 865.886 315.297 864.319 315.988C862.751 316.68 860.858 317.026 858.634 317.026C856.41 317.026 854.604 316.69 853.016 316.024C851.428 315.358 850.191 314.382 849.301 313.1C848.41 311.819 847.927 310.258 847.855 308.412H852.802C852.873 309.378 853.174 310.182 853.698 310.822C854.222 311.463 854.909 311.941 855.754 312.256C856.598 312.571 857.545 312.729 858.593 312.729C859.642 312.729 860.644 312.566 861.474 312.236C862.298 311.905 862.95 311.448 863.418 310.853C863.886 310.263 864.125 309.566 864.135 308.773C864.125 308.051 863.911 307.451 863.499 306.978C863.087 306.505 862.502 306.109 861.759 305.788C861.016 305.468 860.145 305.183 859.148 304.929L855.988 304.115C853.703 303.531 851.896 302.636 850.573 301.441C849.25 300.246 848.588 298.654 848.588 296.666C848.588 295.034 849.036 293.6 849.922 292.375C850.812 291.144 852.023 290.193 853.56 289.512C855.097 288.83 856.838 288.49 858.777 288.49C860.715 288.49 862.476 288.83 863.962 289.512C865.448 290.193 866.619 291.139 867.464 292.344C868.313 293.549 868.751 294.932 868.777 296.493H863.937H863.947Z" fill="white"/>
<path d="M448.309 360.762V342.273H454.904C456.344 342.273 457.535 342.538 458.482 343.057C459.428 343.58 460.136 344.297 460.604 345.202C461.072 346.107 461.311 347.129 461.311 348.258C461.311 349.387 461.077 350.419 460.604 351.324C460.13 352.23 459.418 352.946 458.471 353.47C457.525 353.999 456.329 354.258 454.899 354.258H450.365V351.894H454.65C455.56 351.894 456.298 351.736 456.863 351.421C457.428 351.106 457.845 350.674 458.11 350.124C458.375 349.575 458.507 348.955 458.507 348.253C458.507 347.551 458.375 346.936 458.11 346.392C457.845 345.848 457.428 345.426 456.858 345.121C456.288 344.816 455.54 344.658 454.614 344.658H451.108V360.757H448.314L448.309 360.762Z" fill="white"/>
<path d="M471.927 360.762H468.965L475.626 342.273H478.853L485.514 360.762H482.553L477.321 345.629H477.179L471.937 360.762H471.927ZM472.425 353.521H482.039V355.87H472.425V353.521Z" fill="white"/>
<path d="M495.938 360.762V342.273H502.533C503.968 342.273 505.159 342.523 506.105 343.016C507.052 343.509 507.764 344.19 508.233 345.06C508.701 345.929 508.94 346.931 508.94 348.07C508.94 349.209 508.706 350.196 508.233 351.055C507.759 351.914 507.047 352.58 506.1 353.053C505.154 353.531 503.958 353.765 502.528 353.765H497.53V351.365H502.273C503.179 351.365 503.912 351.238 504.482 350.979C505.052 350.719 505.469 350.343 505.734 349.85C505.999 349.357 506.131 348.762 506.131 348.07C506.131 347.379 505.999 346.768 505.729 346.255C505.459 345.741 505.042 345.35 504.472 345.075C503.902 344.801 503.159 344.663 502.238 344.663H498.731V360.762H495.938ZM505.072 352.418L509.642 360.762H506.462L501.978 352.418H505.067H505.072Z" fill="white"/>
<path d="M519.193 344.673V342.273H533.513V344.673H527.737V360.762H524.953V344.673H519.188H519.193Z" fill="white"/>
<path d="M559.362 342.273V360.762H556.797L547.393 347.201H547.22V360.762H544.426V342.273H547.011L556.426 355.855H556.599V342.273H559.362Z" fill="white"/>
<path d="M571.188 360.762V342.273H582.791V344.673H573.981V350.307H582.185V352.702H573.981V358.362H582.903V360.762H571.193H571.188Z" fill="white"/>
<path d="M594.297 360.762V342.273H600.892C602.327 342.273 603.518 342.523 604.465 343.016C605.411 343.509 606.124 344.19 606.592 345.06C607.06 345.929 607.299 346.931 607.299 348.07C607.299 349.209 607.065 350.196 606.592 351.055C606.119 351.914 605.406 352.58 604.46 353.053C603.513 353.531 602.317 353.765 600.887 353.765H595.89V351.365H600.633C601.539 351.365 602.271 351.238 602.841 350.979C603.411 350.719 603.829 350.343 604.093 349.85C604.358 349.357 604.49 348.762 604.49 348.07C604.49 347.379 604.358 346.768 604.088 346.255C603.818 345.741 603.401 345.35 602.831 345.075C602.261 344.801 601.518 344.663 600.597 344.663H597.091V360.762H594.297ZM603.432 352.418L608.002 360.762H604.821L600.338 352.418H603.427H603.432Z" fill="white"/>
<path d="M628.554 347.13C628.457 346.276 628.06 345.61 627.363 345.137C626.666 344.664 625.785 344.43 624.727 344.43C623.968 344.43 623.312 344.547 622.757 344.786C622.203 345.025 621.775 345.35 621.47 345.762C621.164 346.174 621.012 346.642 621.012 347.166C621.012 347.608 621.113 347.984 621.322 348.305C621.531 348.625 621.806 348.89 622.147 349.103C622.488 349.317 622.854 349.495 623.246 349.637C623.638 349.779 624.014 349.896 624.376 349.983L626.182 350.451C626.773 350.593 627.378 350.791 627.999 351.035C628.62 351.284 629.195 351.605 629.724 352.012C630.253 352.413 630.686 352.917 631.012 353.512C631.342 354.107 631.505 354.823 631.505 355.652C631.505 356.7 631.236 357.63 630.696 358.444C630.157 359.257 629.378 359.898 628.355 360.366C627.332 360.834 626.101 361.068 624.655 361.068C623.21 361.068 622.07 360.849 621.058 360.412C620.045 359.969 619.256 359.349 618.681 358.535C618.111 357.727 617.79 356.766 617.734 355.652H620.533C620.589 356.318 620.808 356.878 621.19 357.32C621.572 357.763 622.065 358.093 622.661 358.307C623.256 358.52 623.918 358.627 624.635 358.627C625.424 358.627 626.126 358.5 626.747 358.251C627.363 358.002 627.851 357.651 628.208 357.203C628.564 356.756 628.742 356.232 628.742 355.627C628.742 355.078 628.584 354.63 628.274 354.279C627.963 353.929 627.546 353.644 627.017 353.41C626.488 353.181 625.892 352.978 625.231 352.805L623.042 352.21C621.561 351.808 620.386 351.213 619.521 350.43C618.655 349.647 618.223 348.615 618.223 347.323C618.223 346.256 618.513 345.33 619.093 344.532C619.673 343.739 620.452 343.118 621.444 342.676C622.432 342.233 623.546 342.01 624.788 342.01C626.03 342.01 627.149 342.228 628.111 342.671C629.073 343.113 629.831 343.713 630.386 344.481C630.94 345.249 631.231 346.128 631.251 347.12H628.559L628.554 347.13Z" fill="white"/>
<path d="M642.602 360.762V342.273H645.395V350.307H654.622V342.273H657.421V360.762H654.622V352.697H645.395V360.762H642.602Z" fill="white"/>
<path d="M672.036 342.273V360.762H669.242V342.273H672.036Z" fill="white"/>
<path d="M683.863 360.762V342.273H690.459C691.899 342.273 693.09 342.538 694.036 343.057C694.983 343.58 695.69 344.297 696.158 345.202C696.627 346.107 696.866 347.129 696.866 348.258C696.866 349.387 696.632 350.419 696.158 351.324C695.685 352.23 694.973 352.946 694.026 353.47C693.08 353.999 691.884 354.258 690.454 354.258H685.919V351.894H690.204C691.115 351.894 691.853 351.736 692.418 351.421C692.983 351.106 693.4 350.674 693.665 350.124C693.929 349.575 694.062 348.955 694.062 348.253C694.062 347.551 693.929 346.936 693.665 346.392C693.4 345.848 692.983 345.426 692.413 345.121C691.843 344.816 691.095 344.658 690.169 344.658H686.662V360.757H683.868L683.863 360.762Z" fill="white"/>
<path d="M737.756 348.291H734.937C734.83 347.691 734.626 347.157 734.331 346.704C734.036 346.252 733.675 345.86 733.247 345.54C732.82 345.219 732.341 344.98 731.817 344.818C731.288 344.655 730.733 344.574 730.143 344.574C729.074 344.574 728.123 344.843 727.283 345.377C726.443 345.911 725.782 346.699 725.293 347.731C724.81 348.769 724.565 350.03 724.565 351.525C724.565 353.019 724.81 354.301 725.293 355.333C725.777 356.37 726.443 357.153 727.288 357.682C728.133 358.211 729.079 358.476 730.133 358.476C730.718 358.476 731.273 358.394 731.802 358.237C732.331 358.079 732.804 357.84 733.232 357.53C733.659 357.214 734.021 356.833 734.321 356.381C734.621 355.928 734.825 355.404 734.942 354.814L737.761 354.825C737.609 355.735 737.318 356.569 736.891 357.331C736.458 358.094 735.909 358.75 735.237 359.299C734.565 359.848 733.797 360.276 732.937 360.576C732.077 360.876 731.135 361.028 730.117 361.028C728.514 361.028 727.089 360.647 725.832 359.884C724.581 359.121 723.593 358.033 722.876 356.609C722.153 355.191 721.797 353.497 721.797 351.525C721.797 349.552 722.158 347.853 722.881 346.44C723.603 345.021 724.591 343.933 725.843 343.17C727.095 342.407 728.519 342.026 730.117 342.026C731.1 342.026 732.016 342.168 732.871 342.448C733.721 342.728 734.489 343.14 735.171 343.679C735.853 344.218 736.413 344.874 736.86 345.647C737.308 346.419 737.609 347.304 737.766 348.296L737.756 348.291Z" fill="white"/>
<path d="M750.306 360.762H747.344L754.005 342.273H757.232L763.893 360.762H760.931L755.7 345.629H755.557L750.316 360.762H750.306ZM750.804 353.521H760.417V355.87H750.804V353.521Z" fill="white"/>
<path d="M774.32 360.762V342.273H780.916C782.356 342.273 783.547 342.538 784.493 343.057C785.44 343.58 786.147 344.297 786.615 345.202C787.084 346.107 787.323 347.129 787.323 348.258C787.323 349.387 787.089 350.419 786.615 351.324C786.142 352.23 785.43 352.946 784.483 353.47C783.537 353.999 782.341 354.258 780.911 354.258H776.376V351.894H780.661C781.572 351.894 782.31 351.736 782.875 351.421C783.44 351.106 783.857 350.674 784.122 350.124C784.386 349.575 784.519 348.955 784.519 348.253C784.519 347.551 784.386 346.936 784.122 346.392C783.857 345.848 783.44 345.426 782.87 345.121C782.3 344.816 781.552 344.658 780.626 344.658H777.119V360.757H774.325L774.32 360.762Z" fill="white"/>
<path d="M801.13 342.273V360.762H798.336V342.273H801.13Z" fill="white"/>
<path d="M812.048 344.673V342.273H826.369V344.673H820.593V360.762H817.809V344.673H812.043H812.048Z" fill="white"/>
<path d="M836.641 360.762H833.68L840.341 342.273H843.568L850.229 360.762H847.267L842.036 345.629H841.893L836.652 360.762H836.641ZM837.14 353.521H846.753V355.87H837.14V353.521Z" fill="white"/>
<path d="M860.648 360.762V342.273H863.442V358.362H871.829V360.762H860.654H860.648Z" fill="white"/>
<path d="M869.026 329.851H444.09V330.36H869.026V329.851Z" fill="white"/>
<path d="M352.549 350.192C347.419 348.793 342.834 350.527 338.508 352.978L362.029 369H386.604C379.358 364.882 372.116 360.758 364.869 356.639C361.032 354.458 356.874 351.371 352.554 350.192H352.549Z" fill="white"/>
<path d="M360.393 316.14C352.525 315.102 345.207 311.385 339.187 306.285C337.477 304.841 338.169 302.09 339.864 301.027C350.021 294.687 360.179 288.341 370.337 281.995L365.004 279L329.273 301.312V346.684L332.413 348.825C336.388 346.338 340.525 343.943 345.1 343.257C355.915 341.635 365.854 349.496 374.775 354.571C381.716 358.521 388.663 362.467 395.604 366.418L424.566 346.689V330.921C411.523 323.629 398.479 316.343 385.436 309.051C378.296 314.472 369.426 317.329 360.398 316.14H360.393Z" fill="#FA6E68"/>
<path d="M382.741 302.665C383.891 301.663 385.423 301.373 386.802 302.141C399.392 309.178 411.978 316.211 424.568 323.248V301.312L388.838 279C388.838 279 357.754 297.753 347.469 304.18C358.375 311.294 372.38 311.7 382.746 302.67L382.741 302.665Z" fill="white"/>
</svg>
