<svg width="581" height="647" viewBox="0 0 581 647" fill="none" xmlns="http://www.w3.org/2000/svg">
<g clip-path="url(#clip0_4567_13844)">
<path d="M0 -1H581V647H0V-1Z" fill="#FCEEF1"/>
<g clip-path="url(#clip1_4567_13844)">
<rect width="123.091" height="102" transform="translate(229 45)" fill="#F26722"/>
<path d="M278.949 89.7536C278.191 89.7536 277.509 89.5883 276.901 89.2576C276.303 88.9163 275.834 88.447 275.493 87.8496C275.162 87.2416 274.997 86.5643 274.997 85.8176C274.997 85.1776 275.109 84.559 275.333 83.9616C275.557 83.3536 275.919 82.719 276.421 82.0576L279.765 77.6416H281.669L277.557 82.9856L277.269 82.9536C277.493 82.655 277.759 82.4416 278.069 82.3136C278.378 82.1856 278.746 82.1216 279.173 82.1216C279.866 82.1216 280.495 82.287 281.061 82.6176C281.637 82.9376 282.085 83.3856 282.405 83.9616C282.725 84.5376 282.885 85.183 282.885 85.8976C282.885 86.6336 282.714 87.295 282.373 87.8816C282.031 88.4576 281.562 88.9163 280.965 89.2576C280.367 89.5883 279.695 89.7536 278.949 89.7536ZM278.949 88.3456C279.386 88.3456 279.781 88.2443 280.133 88.0416C280.495 87.8283 280.778 87.535 280.981 87.1616C281.194 86.7883 281.301 86.3723 281.301 85.9136C281.301 85.4443 281.199 85.0283 280.997 84.6656C280.794 84.303 280.511 84.0203 280.149 83.8176C279.786 83.6043 279.386 83.4976 278.949 83.4976C278.501 83.4976 278.095 83.6043 277.733 83.8176C277.37 84.0203 277.087 84.303 276.885 84.6656C276.682 85.0283 276.581 85.4443 276.581 85.9136C276.581 86.3723 276.682 86.7883 276.885 87.1616C277.098 87.535 277.381 87.8283 277.733 88.0416C278.095 88.2443 278.501 88.3456 278.949 88.3456ZM289.519 89.7536C288.58 89.7536 287.754 89.4976 287.039 88.9856C286.324 88.4736 285.764 87.7536 285.359 86.8256C284.964 85.887 284.767 84.8096 284.767 83.5936C284.767 82.3776 284.964 81.3056 285.359 80.3776C285.764 79.4496 286.319 78.7296 287.023 78.2176C287.738 77.7056 288.564 77.4496 289.503 77.4496C290.431 77.4496 291.252 77.7056 291.967 78.2176C292.682 78.7296 293.236 79.4496 293.631 80.3776C294.026 81.3056 294.223 82.3776 294.223 83.5936C294.223 84.8096 294.026 85.887 293.631 86.8256C293.247 87.7536 292.698 88.4736 291.983 88.9856C291.268 89.4976 290.447 89.7536 289.519 89.7536ZM289.519 88.2976C290.138 88.2976 290.682 88.1056 291.151 87.7216C291.631 87.327 291.999 86.7776 292.255 86.0736C292.522 85.359 292.655 84.5323 292.655 83.5936C292.655 82.655 292.522 81.8336 292.255 81.1296C291.999 80.4256 291.631 79.8816 291.151 79.4976C290.682 79.103 290.132 78.9056 289.503 78.9056C288.874 78.9056 288.319 79.103 287.839 79.4976C287.37 79.8816 287.002 80.4256 286.735 81.1296C286.479 81.8336 286.351 82.655 286.351 83.5936C286.351 84.5323 286.479 85.3536 286.735 86.0576C287.002 86.7616 287.37 87.311 287.839 87.7056C288.319 88.1003 288.879 88.2976 289.519 88.2976ZM301.097 89.7536C300.158 89.7536 299.332 89.4976 298.617 88.9856C297.902 88.4736 297.342 87.7536 296.937 86.8256C296.542 85.887 296.345 84.8096 296.345 83.5936C296.345 82.3776 296.542 81.3056 296.937 80.3776C297.342 79.4496 297.897 78.7296 298.601 78.2176C299.316 77.7056 300.142 77.4496 301.081 77.4496C302.009 77.4496 302.83 77.7056 303.545 78.2176C304.26 78.7296 304.814 79.4496 305.209 80.3776C305.604 81.3056 305.801 82.3776 305.801 83.5936C305.801 84.8096 305.604 85.887 305.209 86.8256C304.825 87.7536 304.276 88.4736 303.561 88.9856C302.846 89.4976 302.025 89.7536 301.097 89.7536ZM301.097 88.2976C301.716 88.2976 302.26 88.1056 302.729 87.7216C303.209 87.327 303.577 86.7776 303.833 86.0736C304.1 85.359 304.233 84.5323 304.233 83.5936C304.233 82.655 304.1 81.8336 303.833 81.1296C303.577 80.4256 303.209 79.8816 302.729 79.4976C302.26 79.103 301.71 78.9056 301.081 78.9056C300.452 78.9056 299.897 79.103 299.417 79.4976C298.948 79.8816 298.58 80.4256 298.313 81.1296C298.057 81.8336 297.929 82.655 297.929 83.5936C297.929 84.5323 298.057 85.3536 298.313 86.0576C298.58 86.7616 298.948 87.311 299.417 87.7056C299.897 88.1003 300.457 88.2976 301.097 88.2976Z" fill="white"/>
<path d="M284.198 103.798H286.054L290.326 115.718H288.646L287.67 112.934H282.582L281.606 115.718H279.926L284.198 103.798ZM287.158 111.478L284.902 104.95H285.35L283.078 111.478H287.158ZM294.948 103.798H296.804L301.076 115.718H299.396L298.42 112.934H293.332L292.356 115.718H290.676L294.948 103.798ZM297.908 111.478L295.652 104.95H296.1L293.828 111.478H297.908Z" fill="white"/>
<rect width="123.091" height="44.6246" transform="translate(229 147)" fill="white"/>
<path d="M240.906 173.368H238.986V171.992H241.29L242.25 168.696H240.33V167.336H242.634L243.482 164.392H245.034L244.186 167.336H247.306L248.154 164.392H249.722L248.874 167.336H250.794V168.696H248.474L247.53 171.992H249.45V173.368H247.146L246.298 176.312H244.73L245.578 173.368H242.458L241.61 176.312H240.058L240.906 173.368ZM245.978 171.992L246.922 168.696H243.802L242.858 171.992H245.978ZM252.843 164.392H260.411V165.832H254.427V169.688H259.851V171.144H254.427V176.312H252.843V164.392ZM261.708 175.224L265.004 171.656L265.484 171.128C266.102 170.467 266.55 169.966 266.828 169.624C267.116 169.272 267.329 168.942 267.468 168.632C267.617 168.312 267.692 167.976 267.692 167.624C267.692 166.984 267.5 166.488 267.116 166.136C266.742 165.784 266.236 165.608 265.596 165.608C264.956 165.608 264.412 165.795 263.964 166.168C263.516 166.531 263.206 167.043 263.036 167.704L261.612 167.336C261.75 166.707 262.006 166.158 262.38 165.688C262.753 165.208 263.217 164.84 263.772 164.584C264.326 164.328 264.929 164.2 265.58 164.2C266.305 164.2 266.945 164.344 267.5 164.632C268.054 164.91 268.486 165.304 268.796 165.816C269.116 166.318 269.276 166.894 269.276 167.544C269.276 167.982 269.19 168.403 269.02 168.808C268.849 169.214 268.593 169.64 268.252 170.088C267.91 170.536 267.436 171.091 266.828 171.752L263.884 174.952H269.532V176.312H261.708V175.224ZM275.238 176.504C274.481 176.504 273.798 176.339 273.19 176.008C272.593 175.667 272.123 175.198 271.782 174.6C271.451 173.992 271.286 173.315 271.286 172.568C271.286 171.928 271.398 171.31 271.622 170.712C271.846 170.104 272.209 169.47 272.71 168.808L276.054 164.392H277.958L273.846 169.736L273.558 169.704C273.782 169.406 274.049 169.192 274.358 169.064C274.667 168.936 275.035 168.872 275.462 168.872C276.155 168.872 276.785 169.038 277.35 169.368C277.926 169.688 278.374 170.136 278.694 170.712C279.014 171.288 279.174 171.934 279.174 172.648C279.174 173.384 279.003 174.046 278.662 174.632C278.321 175.208 277.851 175.667 277.254 176.008C276.657 176.339 275.985 176.504 275.238 176.504ZM275.238 175.096C275.675 175.096 276.07 174.995 276.422 174.792C276.785 174.579 277.067 174.286 277.27 173.912C277.483 173.539 277.59 173.123 277.59 172.664C277.59 172.195 277.489 171.779 277.286 171.416C277.083 171.054 276.801 170.771 276.438 170.568C276.075 170.355 275.675 170.248 275.238 170.248C274.79 170.248 274.385 170.355 274.022 170.568C273.659 170.771 273.377 171.054 273.174 171.416C272.971 171.779 272.87 172.195 272.87 172.664C272.87 173.123 272.971 173.539 273.174 173.912C273.387 174.286 273.67 174.579 274.022 174.792C274.385 174.995 274.79 175.096 275.238 175.096ZM286.464 165.736H280.624V164.376H288.112V165.736L282.928 176.312H281.232L286.464 165.736ZM289.63 175.224L292.926 171.656L293.406 171.128C294.024 170.467 294.472 169.966 294.75 169.624C295.038 169.272 295.251 168.942 295.39 168.632C295.539 168.312 295.614 167.976 295.614 167.624C295.614 166.984 295.422 166.488 295.038 166.136C294.664 165.784 294.158 165.608 293.518 165.608C292.878 165.608 292.334 165.795 291.886 166.168C291.438 166.531 291.128 167.043 290.958 167.704L289.534 167.336C289.672 166.707 289.928 166.158 290.302 165.688C290.675 165.208 291.139 164.84 291.694 164.584C292.248 164.328 292.851 164.2 293.502 164.2C294.227 164.2 294.867 164.344 295.422 164.632C295.976 164.91 296.408 165.304 296.718 165.816C297.038 166.318 297.198 166.894 297.198 167.544C297.198 167.982 297.112 168.403 296.942 168.808C296.771 169.214 296.515 169.64 296.174 170.088C295.832 170.536 295.358 171.091 294.75 171.752L291.806 174.952H297.454V176.312H289.63V175.224ZM299.208 175.224L302.504 171.656L302.984 171.128C303.602 170.467 304.05 169.966 304.328 169.624C304.616 169.272 304.829 168.942 304.968 168.632C305.117 168.312 305.192 167.976 305.192 167.624C305.192 166.984 305 166.488 304.616 166.136C304.242 165.784 303.736 165.608 303.096 165.608C302.456 165.608 301.912 165.795 301.464 166.168C301.016 166.531 300.706 167.043 300.536 167.704L299.112 167.336C299.25 166.707 299.506 166.158 299.88 165.688C300.253 165.208 300.717 164.84 301.272 164.584C301.826 164.328 302.429 164.2 303.08 164.2C303.805 164.2 304.445 164.344 305 164.632C305.554 164.91 305.986 165.304 306.296 165.816C306.616 166.318 306.776 166.894 306.776 167.544C306.776 167.982 306.69 168.403 306.52 168.808C306.349 169.214 306.093 169.64 305.752 170.088C305.41 170.536 304.936 171.091 304.328 171.752L301.384 174.952H307.032V176.312H299.208V175.224Z" fill="black"/>
</g>
<g clip-path="url(#clip2_4567_13844)">
<rect width="123.091" height="102" transform="translate(51 412)" fill="#FFF9F3"/>
<path d="M103.653 455.474L106.949 451.906L107.429 451.378C108.048 450.716 108.496 450.215 108.773 449.874C109.061 449.522 109.274 449.191 109.413 448.882C109.562 448.562 109.637 448.226 109.637 447.874C109.637 447.234 109.445 446.738 109.061 446.386C108.688 446.034 108.181 445.858 107.541 445.858C106.901 445.858 106.357 446.044 105.909 446.418C105.461 446.78 105.152 447.292 104.981 447.954L103.557 447.586C103.696 446.956 103.952 446.407 104.325 445.938C104.698 445.458 105.162 445.09 105.717 444.834C106.272 444.578 106.874 444.45 107.525 444.45C108.25 444.45 108.89 444.594 109.445 444.882C110 445.159 110.432 445.554 110.741 446.066C111.061 446.567 111.221 447.143 111.221 447.794C111.221 448.231 111.136 448.652 110.965 449.058C110.794 449.463 110.538 449.89 110.197 450.338C109.856 450.786 109.381 451.34 108.773 452.002L105.829 455.202H111.477V456.562H103.653V455.474ZM117.167 456.754C116.549 456.754 115.962 456.647 115.407 456.434C114.863 456.21 114.394 455.895 113.999 455.49C113.605 455.074 113.317 454.588 113.135 454.034L114.415 453.49C114.639 454.066 115.002 454.519 115.503 454.85C116.005 455.18 116.559 455.346 117.167 455.346C117.647 455.346 118.074 455.239 118.447 455.026C118.831 454.802 119.13 454.498 119.343 454.114C119.567 453.719 119.679 453.282 119.679 452.802C119.679 452.311 119.567 451.874 119.343 451.49C119.13 451.095 118.831 450.791 118.447 450.578C118.074 450.354 117.653 450.242 117.183 450.242C116.703 450.242 116.255 450.354 115.839 450.578C115.434 450.791 115.141 451.074 114.959 451.426L113.679 451.154L114.591 444.626H120.783V445.986H115.199L115.807 445.394L115.103 450.45L114.559 450.13C114.89 449.692 115.29 449.372 115.759 449.17C116.239 448.967 116.767 448.866 117.343 448.866C118.101 448.866 118.778 449.042 119.375 449.394C119.973 449.735 120.437 450.204 120.767 450.802C121.098 451.399 121.263 452.066 121.263 452.802C121.263 453.548 121.082 454.22 120.719 454.818C120.367 455.415 119.882 455.89 119.263 456.242C118.645 456.583 117.946 456.754 117.167 456.754Z" fill="black"/>
<path d="M100.823 470.798H102.679L106.951 482.718H105.271L104.295 479.934H99.207L98.231 482.718H96.551L100.823 470.798ZM103.783 478.478L101.527 471.95H101.975L99.703 478.478H103.783ZM111.573 470.798H113.429L117.701 482.718H116.021L115.045 479.934H109.957L108.981 482.718H107.301L111.573 470.798ZM114.533 478.478L112.277 471.95H112.725L110.453 478.478H114.533ZM122.323 470.798H124.179L128.451 482.718H126.771L125.795 479.934H120.707L119.731 482.718H118.051L122.323 470.798ZM125.283 478.478L123.027 471.95H123.475L121.203 478.478H125.283Z" fill="black"/>
<rect width="123.091" height="44.6246" transform="translate(51 514)" fill="white"/>
<path d="M62.9064 540.368H60.9864V538.992H63.2904L64.2504 535.696H62.3304V534.336H64.6344L65.4824 531.392H67.0344L66.1864 534.336H69.3064L70.1544 531.392H71.7224L70.8744 534.336H72.7944V535.696H70.4744L69.5304 538.992H71.4504V540.368H69.1464L68.2984 543.312H66.7304L67.5784 540.368H64.4584L63.6104 543.312H62.0584L62.9064 540.368ZM67.9784 538.992L68.9224 535.696H65.8024L64.8584 538.992H67.9784ZM74.8433 531.392H82.4113V532.832H76.4273V536.688H81.8513V538.144H76.4273V543.312H74.8433V531.392ZM84.1558 531.392H91.7238V532.832H85.7398V536.688H91.1638V538.144H85.7398V543.312H84.1558V531.392ZM93.4683 531.392H101.036V532.832H95.0523V536.688H100.476V538.144H95.0523V543.312H93.4683V531.392ZM107.629 537.968L107.901 538C107.677 538.299 107.41 538.512 107.101 538.64C106.791 538.768 106.429 538.832 106.013 538.832C105.319 538.832 104.685 538.672 104.109 538.352C103.543 538.022 103.101 537.568 102.781 536.992C102.461 536.416 102.301 535.771 102.301 535.056C102.301 534.32 102.471 533.664 102.813 533.088C103.154 532.502 103.623 532.043 104.221 531.712C104.818 531.371 105.49 531.2 106.237 531.2C106.994 531.2 107.671 531.371 108.269 531.712C108.877 532.043 109.346 532.512 109.677 533.12C110.018 533.718 110.189 534.39 110.189 535.136C110.189 535.776 110.077 536.4 109.853 537.008C109.629 537.606 109.266 538.235 108.765 538.896L105.405 543.312H103.517L107.629 537.968ZM106.237 537.456C106.685 537.456 107.09 537.355 107.453 537.152C107.815 536.939 108.098 536.651 108.301 536.288C108.503 535.926 108.605 535.51 108.605 535.04C108.605 534.582 108.498 534.166 108.285 533.792C108.082 533.419 107.799 533.131 107.437 532.928C107.074 532.715 106.674 532.608 106.237 532.608C105.799 532.608 105.399 532.715 105.037 532.928C104.685 533.131 104.402 533.419 104.189 533.792C103.986 534.166 103.885 534.582 103.885 535.04C103.885 535.51 103.986 535.926 104.189 536.288C104.391 536.651 104.669 536.939 105.021 537.152C105.383 537.355 105.789 537.456 106.237 537.456ZM112.359 531.392H119.927V532.832H113.943V536.688H119.367V538.144H113.943V543.312H112.359V531.392ZM125.047 543.504C124.418 543.504 123.831 543.392 123.287 543.168C122.743 542.944 122.274 542.63 121.879 542.224C121.485 541.808 121.197 541.318 121.015 540.752L122.343 540.208C122.567 540.806 122.919 541.27 123.399 541.6C123.879 541.931 124.429 542.096 125.047 542.096C125.549 542.096 125.991 542 126.375 541.808C126.759 541.616 127.058 541.339 127.271 540.976C127.485 540.603 127.591 540.166 127.591 539.664C127.591 538.907 127.357 538.315 126.887 537.888C126.418 537.462 125.805 537.248 125.047 537.248C124.695 537.248 124.365 537.286 124.055 537.36L123.719 536.64L126.903 532.752H121.623V531.392H128.679V532.72L125.639 536.448L125.543 536.032C126.247 536.054 126.871 536.219 127.415 536.528C127.97 536.838 128.402 537.259 128.711 537.792C129.021 538.326 129.175 538.939 129.175 539.632C129.175 540.358 128.999 541.014 128.647 541.6C128.306 542.187 127.821 542.651 127.191 542.992C126.562 543.334 125.847 543.504 125.047 543.504Z" fill="black"/>
</g>
<g clip-path="url(#clip3_4567_13844)">
<rect width="123.091" height="102" transform="translate(407 418)" fill="#332C7A"/>
<path d="M456.949 462.754C456.191 462.754 455.509 462.588 454.901 462.258C454.303 461.916 453.834 461.447 453.493 460.85C453.162 460.242 452.997 459.564 452.997 458.818C452.997 458.178 453.109 457.559 453.333 456.962C453.557 456.354 453.919 455.719 454.421 455.058L457.765 450.642H459.669L455.557 455.986L455.269 455.954C455.493 455.655 455.759 455.442 456.069 455.314C456.378 455.186 456.746 455.122 457.173 455.122C457.866 455.122 458.495 455.287 459.061 455.618C459.637 455.938 460.085 456.386 460.405 456.962C460.725 457.538 460.885 458.183 460.885 458.898C460.885 459.634 460.714 460.295 460.373 460.882C460.031 461.458 459.562 461.916 458.965 462.258C458.367 462.588 457.695 462.754 456.949 462.754ZM456.949 461.346C457.386 461.346 457.781 461.244 458.133 461.042C458.495 460.828 458.778 460.535 458.981 460.162C459.194 459.788 459.301 459.372 459.301 458.914C459.301 458.444 459.199 458.028 458.997 457.666C458.794 457.303 458.511 457.02 458.149 456.818C457.786 456.604 457.386 456.498 456.949 456.498C456.501 456.498 456.095 456.604 455.733 456.818C455.37 457.02 455.087 457.303 454.885 457.666C454.682 458.028 454.581 458.444 454.581 458.914C454.581 459.372 454.682 459.788 454.885 460.162C455.098 460.535 455.381 460.828 455.733 461.042C456.095 461.244 456.501 461.346 456.949 461.346ZM467.519 462.754C466.58 462.754 465.754 462.498 465.039 461.986C464.324 461.474 463.764 460.754 463.359 459.826C462.964 458.887 462.767 457.81 462.767 456.594C462.767 455.378 462.964 454.306 463.359 453.378C463.764 452.45 464.319 451.73 465.023 451.218C465.738 450.706 466.564 450.45 467.503 450.45C468.431 450.45 469.252 450.706 469.967 451.218C470.682 451.73 471.236 452.45 471.631 453.378C472.026 454.306 472.223 455.378 472.223 456.594C472.223 457.81 472.026 458.887 471.631 459.826C471.247 460.754 470.698 461.474 469.983 461.986C469.268 462.498 468.447 462.754 467.519 462.754ZM467.519 461.298C468.138 461.298 468.682 461.106 469.151 460.722C469.631 460.327 469.999 459.778 470.255 459.074C470.522 458.359 470.655 457.532 470.655 456.594C470.655 455.655 470.522 454.834 470.255 454.13C469.999 453.426 469.631 452.882 469.151 452.498C468.682 452.103 468.132 451.906 467.503 451.906C466.874 451.906 466.319 452.103 465.839 452.498C465.37 452.882 465.002 453.426 464.735 454.13C464.479 454.834 464.351 455.655 464.351 456.594C464.351 457.532 464.479 458.354 464.735 459.058C465.002 459.762 465.37 460.311 465.839 460.706C466.319 461.1 466.879 461.298 467.519 461.298ZM479.097 462.754C478.158 462.754 477.332 462.498 476.617 461.986C475.902 461.474 475.342 460.754 474.937 459.826C474.542 458.887 474.345 457.81 474.345 456.594C474.345 455.378 474.542 454.306 474.937 453.378C475.342 452.45 475.897 451.73 476.601 451.218C477.316 450.706 478.142 450.45 479.081 450.45C480.009 450.45 480.83 450.706 481.545 451.218C482.26 451.73 482.814 452.45 483.209 453.378C483.604 454.306 483.801 455.378 483.801 456.594C483.801 457.81 483.604 458.887 483.209 459.826C482.825 460.754 482.276 461.474 481.561 461.986C480.846 462.498 480.025 462.754 479.097 462.754ZM479.097 461.298C479.716 461.298 480.26 461.106 480.729 460.722C481.209 460.327 481.577 459.778 481.833 459.074C482.1 458.359 482.233 457.532 482.233 456.594C482.233 455.655 482.1 454.834 481.833 454.13C481.577 453.426 481.209 452.882 480.729 452.498C480.26 452.103 479.71 451.906 479.081 451.906C478.452 451.906 477.897 452.103 477.417 452.498C476.948 452.882 476.58 453.426 476.313 454.13C476.057 454.834 475.929 455.655 475.929 456.594C475.929 457.532 476.057 458.354 476.313 459.058C476.58 459.762 476.948 460.311 477.417 460.706C477.897 461.1 478.457 461.298 479.097 461.298Z" fill="white"/>
<path d="M456.823 476.798H458.679L462.951 488.718H461.271L460.295 485.934H455.207L454.231 488.718H452.551L456.823 476.798ZM459.783 484.478L457.527 477.95H457.975L455.703 484.478H459.783ZM467.573 476.798H469.429L473.701 488.718H472.021L471.045 485.934H465.957L464.981 488.718H463.301L467.573 476.798ZM470.533 484.478L468.277 477.95H468.725L466.453 484.478H470.533ZM478.323 476.798H480.179L484.451 488.718H482.771L481.795 485.934H476.707L475.731 488.718H474.051L478.323 476.798ZM481.283 484.478L479.027 477.95H479.475L477.203 484.478H481.283Z" fill="white"/>
<rect width="123.091" height="44.6246" transform="translate(407 520)" fill="white"/>
<path d="M418.906 546.368H416.986V544.992H419.29L420.25 541.696H418.33V540.336H420.634L421.482 537.392H423.034L422.186 540.336H425.306L426.154 537.392H427.722L426.874 540.336H428.794V541.696H426.474L425.53 544.992H427.45V546.368H425.146L424.298 549.312H422.73L423.578 546.368H420.458L419.61 549.312H418.058L418.906 546.368ZM423.978 544.992L424.922 541.696H421.802L420.858 544.992H423.978ZM434.219 549.504C433.59 549.504 433.003 549.392 432.459 549.168C431.915 548.944 431.446 548.63 431.051 548.224C430.657 547.808 430.369 547.318 430.187 546.752L431.515 546.208C431.739 546.806 432.091 547.27 432.571 547.6C433.051 547.931 433.601 548.096 434.219 548.096C434.721 548.096 435.163 548 435.547 547.808C435.931 547.616 436.23 547.339 436.443 546.976C436.657 546.603 436.763 546.166 436.763 545.664C436.763 544.907 436.529 544.315 436.059 543.888C435.59 543.462 434.977 543.248 434.219 543.248C433.867 543.248 433.537 543.286 433.227 543.36L432.891 542.64L436.075 538.752H430.795V537.392H437.851V538.72L434.811 542.448L434.715 542.032C435.419 542.054 436.043 542.219 436.587 542.528C437.142 542.838 437.574 543.259 437.883 543.792C438.193 544.326 438.347 544.939 438.347 545.632C438.347 546.358 438.171 547.014 437.819 547.6C437.478 548.187 436.993 548.651 436.363 548.992C435.734 549.334 435.019 549.504 434.219 549.504ZM443.969 549.504C443.34 549.504 442.753 549.392 442.209 549.168C441.665 548.944 441.196 548.63 440.801 548.224C440.407 547.808 440.119 547.318 439.937 546.752L441.265 546.208C441.489 546.806 441.841 547.27 442.321 547.6C442.801 547.931 443.351 548.096 443.969 548.096C444.471 548.096 444.913 548 445.297 547.808C445.681 547.616 445.98 547.339 446.193 546.976C446.407 546.603 446.513 546.166 446.513 545.664C446.513 544.907 446.279 544.315 445.809 543.888C445.34 543.462 444.727 543.248 443.969 543.248C443.617 543.248 443.287 543.286 442.977 543.36L442.641 542.64L445.825 538.752H440.545V537.392H447.601V538.72L444.561 542.448L444.465 542.032C445.169 542.054 445.793 542.219 446.337 542.528C446.892 542.838 447.324 543.259 447.633 543.792C447.943 544.326 448.097 544.939 448.097 545.632C448.097 546.358 447.921 547.014 447.569 547.6C447.228 548.187 446.743 548.651 446.113 548.992C445.484 549.334 444.769 549.504 443.969 549.504ZM449.895 548.224L453.191 544.656L453.671 544.128C454.29 543.467 454.738 542.966 455.015 542.624C455.303 542.272 455.517 541.942 455.655 541.632C455.805 541.312 455.879 540.976 455.879 540.624C455.879 539.984 455.687 539.488 455.303 539.136C454.93 538.784 454.423 538.608 453.783 538.608C453.143 538.608 452.599 538.795 452.151 539.168C451.703 539.531 451.394 540.043 451.223 540.704L449.799 540.336C449.938 539.707 450.194 539.158 450.567 538.688C450.941 538.208 451.405 537.84 451.959 537.584C452.514 537.328 453.117 537.2 453.767 537.2C454.493 537.2 455.133 537.344 455.687 537.632C456.242 537.91 456.674 538.304 456.983 538.816C457.303 539.318 457.463 539.894 457.463 540.544C457.463 540.982 457.378 541.403 457.207 541.808C457.037 542.214 456.781 542.64 456.439 543.088C456.098 543.536 455.623 544.091 455.015 544.752L452.071 547.952H457.719V549.312H449.895V548.224ZM465.425 549.504C464.305 549.504 463.303 549.243 462.417 548.72C461.532 548.187 460.833 547.451 460.321 546.512C459.82 545.574 459.569 544.523 459.569 543.36C459.569 542.187 459.82 541.131 460.321 540.192C460.833 539.254 461.532 538.523 462.417 538C463.303 537.467 464.305 537.2 465.425 537.2C466.204 537.2 466.924 537.344 467.585 537.632C468.257 537.91 468.823 538.278 469.281 538.736C469.74 539.195 470.071 539.691 470.273 540.224L468.833 540.896C468.545 540.203 468.103 539.659 467.505 539.264C466.919 538.859 466.225 538.656 465.425 538.656C464.593 538.656 463.852 538.854 463.201 539.248C462.561 539.643 462.06 540.198 461.697 540.912C461.335 541.627 461.153 542.443 461.153 543.36C461.153 544.278 461.335 545.094 461.697 545.808C462.06 546.512 462.561 547.062 463.201 547.456C463.852 547.851 464.593 548.048 465.425 548.048C466.225 548.048 466.919 547.851 467.505 547.456C468.103 547.051 468.545 546.507 468.833 545.824L470.273 546.48C470.071 547.014 469.74 547.515 469.281 547.984C468.823 548.443 468.257 548.811 467.585 549.088C466.924 549.366 466.204 549.504 465.425 549.504ZM477.527 538.736H471.687V537.376H479.175V538.736L473.991 549.312H472.295L477.527 538.736ZM484.276 537.392H486.132L490.404 549.312H488.724L487.748 546.528H482.66L481.684 549.312H480.004L484.276 537.392ZM487.236 545.072L484.98 538.544H485.428L483.156 545.072H487.236Z" fill="black"/>
</g>
<g clip-path="url(#clip4_4567_13844)">
<rect width="123.091" height="102" transform="translate(407 195)" fill="#EEF7E8"/>
<path d="M459.653 238.474L462.949 234.906L463.429 234.378C464.048 233.716 464.496 233.215 464.773 232.874C465.061 232.522 465.274 232.191 465.413 231.882C465.562 231.562 465.637 231.226 465.637 230.874C465.637 230.234 465.445 229.738 465.061 229.386C464.688 229.034 464.181 228.858 463.541 228.858C462.901 228.858 462.357 229.044 461.909 229.418C461.461 229.78 461.152 230.292 460.981 230.954L459.557 230.586C459.696 229.956 459.952 229.407 460.325 228.938C460.698 228.458 461.162 228.09 461.717 227.834C462.272 227.578 462.874 227.45 463.525 227.45C464.25 227.45 464.89 227.594 465.445 227.882C466 228.159 466.432 228.554 466.741 229.066C467.061 229.567 467.221 230.143 467.221 230.794C467.221 231.231 467.136 231.652 466.965 232.058C466.794 232.463 466.538 232.89 466.197 233.338C465.856 233.786 465.381 234.34 464.773 235.002L461.829 238.202H467.477V239.562H459.653V238.474ZM473.167 239.754C472.549 239.754 471.962 239.647 471.407 239.434C470.863 239.21 470.394 238.895 469.999 238.49C469.605 238.074 469.317 237.588 469.135 237.034L470.415 236.49C470.639 237.066 471.002 237.519 471.503 237.85C472.005 238.18 472.559 238.346 473.167 238.346C473.647 238.346 474.074 238.239 474.447 238.026C474.831 237.802 475.13 237.498 475.343 237.114C475.567 236.719 475.679 236.282 475.679 235.802C475.679 235.311 475.567 234.874 475.343 234.49C475.13 234.095 474.831 233.791 474.447 233.578C474.074 233.354 473.653 233.242 473.183 233.242C472.703 233.242 472.255 233.354 471.839 233.578C471.434 233.791 471.141 234.074 470.959 234.426L469.679 234.154L470.591 227.626H476.783V228.986H471.199L471.807 228.394L471.103 233.45L470.559 233.13C470.89 232.692 471.29 232.372 471.759 232.17C472.239 231.967 472.767 231.866 473.343 231.866C474.101 231.866 474.778 232.042 475.375 232.394C475.973 232.735 476.437 233.204 476.767 233.802C477.098 234.399 477.263 235.066 477.263 235.802C477.263 236.548 477.082 237.22 476.719 237.818C476.367 238.415 475.882 238.89 475.263 239.242C474.645 239.583 473.946 239.754 473.167 239.754Z" fill="black"/>
<path d="M456.823 253.798H458.679L462.951 265.718H461.271L460.295 262.934H455.207L454.231 265.718H452.551L456.823 253.798ZM459.783 261.478L457.527 254.95H457.975L455.703 261.478H459.783ZM467.573 253.798H469.429L473.701 265.718H472.021L471.045 262.934H465.957L464.981 265.718H463.301L467.573 253.798ZM470.533 261.478L468.277 254.95H468.725L466.453 261.478H470.533ZM478.323 253.798H480.179L484.451 265.718H482.771L481.795 262.934H476.707L475.731 265.718H474.051L478.323 253.798ZM481.283 261.478L479.027 254.95H479.475L477.203 261.478H481.283Z" fill="black"/>
<rect width="123.091" height="44.6246" transform="translate(407 297)" fill="white"/>
<path d="M418.906 323.368H416.986V321.992H419.29L420.25 318.696H418.33V317.336H420.634L421.482 314.392H423.034L422.186 317.336H425.306L426.154 314.392H427.722L426.874 317.336H428.794V318.696H426.474L425.53 321.992H427.45V323.368H425.146L424.298 326.312H422.73L423.578 323.368H420.458L419.61 326.312H418.058L418.906 323.368ZM423.978 321.992L424.922 318.696H421.802L420.858 321.992H423.978ZM430.843 314.392H438.619V315.832H432.427V319.608H438.299V321.064H432.427V324.872H438.619V326.312H430.843V314.392ZM440.546 314.392H448.322V315.832H442.13V319.608H448.002V321.064H442.13V324.872H448.322V326.312H440.546V314.392ZM450.25 314.392H457.818V315.832H451.834V319.688H457.258V321.144H451.834V326.312H450.25V314.392ZM464.714 315.736H458.874V314.376H466.362V315.736L461.178 326.312H459.482L464.714 315.736ZM468.328 314.392H476.104V315.832H469.912V319.608H475.784V321.064H469.912V324.872H476.104V326.312H468.328V314.392ZM481.759 326.504C480.969 326.504 480.265 326.344 479.647 326.024C479.028 325.704 478.543 325.272 478.191 324.728C477.849 324.174 477.679 323.555 477.679 322.872C477.679 322.115 477.892 321.448 478.319 320.872C478.745 320.286 479.332 319.87 480.079 319.624L480.047 320.04C479.492 319.806 479.049 319.443 478.719 318.952C478.399 318.462 478.239 317.923 478.239 317.336C478.239 316.75 478.388 316.216 478.687 315.736C478.996 315.256 479.417 314.883 479.951 314.616C480.495 314.339 481.097 314.2 481.759 314.2C482.42 314.2 483.017 314.334 483.551 314.6C484.084 314.867 484.5 315.24 484.799 315.72C485.097 316.2 485.247 316.739 485.247 317.336C485.247 317.944 485.087 318.488 484.767 318.968C484.447 319.448 484.015 319.806 483.471 320.04L483.423 319.624C484.18 319.88 484.772 320.296 485.199 320.872C485.625 321.448 485.839 322.115 485.839 322.872C485.839 323.555 485.663 324.174 485.311 324.728C484.969 325.272 484.484 325.704 483.855 326.024C483.236 326.344 482.537 326.504 481.759 326.504ZM481.759 325.144C482.495 325.144 483.092 324.936 483.551 324.52C484.02 324.094 484.255 323.539 484.255 322.856C484.255 322.398 484.148 321.998 483.935 321.656C483.732 321.304 483.439 321.038 483.055 320.856C482.671 320.664 482.239 320.568 481.759 320.568C481.268 320.568 480.831 320.664 480.447 320.856C480.063 321.038 479.769 321.304 479.567 321.656C479.364 321.998 479.263 322.398 479.263 322.856C479.263 323.539 479.492 324.094 479.951 324.52C480.409 324.936 481.012 325.144 481.759 325.144ZM481.759 319.208C482.303 319.208 482.756 319.038 483.119 318.696C483.481 318.355 483.663 317.918 483.663 317.384C483.663 316.851 483.481 316.414 483.119 316.072C482.756 315.731 482.303 315.56 481.759 315.56C481.204 315.56 480.74 315.731 480.367 316.072C480.004 316.414 479.823 316.851 479.823 317.384C479.823 317.918 480.004 318.355 480.367 318.696C480.74 319.038 481.204 319.208 481.759 319.208Z" fill="black"/>
</g>
<g clip-path="url(#clip5_4567_13844)">
<rect width="123.091" height="102" transform="translate(229 286)" fill="#FEF9AC"/>
<path d="M284.589 330.754C283.97 330.754 283.384 330.647 282.829 330.434C282.285 330.21 281.816 329.895 281.421 329.49C281.026 329.074 280.738 328.588 280.557 328.034L281.837 327.49C282.061 328.066 282.424 328.519 282.925 328.85C283.426 329.18 283.981 329.346 284.589 329.346C285.069 329.346 285.496 329.239 285.869 329.026C286.253 328.802 286.552 328.498 286.765 328.114C286.989 327.719 287.101 327.282 287.101 326.802C287.101 326.311 286.989 325.874 286.765 325.49C286.552 325.095 286.253 324.791 285.869 324.578C285.496 324.354 285.074 324.242 284.605 324.242C284.125 324.242 283.677 324.354 283.261 324.578C282.856 324.791 282.562 325.074 282.381 325.426L281.101 325.154L282.013 318.626H288.205V319.986H282.621L283.229 319.394L282.525 324.45L281.981 324.13C282.312 323.692 282.712 323.372 283.181 323.17C283.661 322.967 284.189 322.866 284.765 322.866C285.522 322.866 286.2 323.042 286.797 323.394C287.394 323.735 287.858 324.204 288.189 324.802C288.52 325.399 288.685 326.066 288.685 326.802C288.685 327.548 288.504 328.22 288.141 328.818C287.789 329.415 287.304 329.89 286.685 330.242C286.066 330.583 285.368 330.754 284.589 330.754ZM295.441 330.754C294.502 330.754 293.675 330.498 292.961 329.986C292.246 329.474 291.686 328.754 291.281 327.826C290.886 326.887 290.689 325.81 290.689 324.594C290.689 323.378 290.886 322.306 291.281 321.378C291.686 320.45 292.241 319.73 292.945 319.218C293.659 318.706 294.486 318.45 295.425 318.45C296.353 318.45 297.174 318.706 297.889 319.218C298.603 319.73 299.158 320.45 299.553 321.378C299.947 322.306 300.145 323.378 300.145 324.594C300.145 325.81 299.947 326.887 299.553 327.826C299.169 328.754 298.619 329.474 297.905 329.986C297.19 330.498 296.369 330.754 295.441 330.754ZM295.441 329.298C296.059 329.298 296.603 329.106 297.073 328.722C297.553 328.327 297.921 327.778 298.177 327.074C298.443 326.359 298.577 325.532 298.577 324.594C298.577 323.655 298.443 322.834 298.177 322.13C297.921 321.426 297.553 320.882 297.073 320.498C296.603 320.103 296.054 319.906 295.425 319.906C294.795 319.906 294.241 320.103 293.761 320.498C293.291 320.882 292.923 321.426 292.657 322.13C292.401 322.834 292.273 323.655 292.273 324.594C292.273 325.532 292.401 326.354 292.657 327.058C292.923 327.762 293.291 328.311 293.761 328.706C294.241 329.1 294.801 329.298 295.441 329.298Z" fill="black"/>
<path d="M278.823 344.798H280.679L284.951 356.718H283.271L282.295 353.934H277.207L276.231 356.718H274.551L278.823 344.798ZM281.783 352.478L279.527 345.95H279.975L277.703 352.478H281.783ZM289.573 344.798H291.429L295.701 356.718H294.021L293.045 353.934H287.957L286.981 356.718H285.301L289.573 344.798ZM292.533 352.478L290.277 345.95H290.725L288.453 352.478H292.533ZM300.323 344.798H302.179L306.451 356.718H304.771L303.795 353.934H298.707L297.731 356.718H296.051L300.323 344.798ZM303.283 352.478L301.027 345.95H301.475L299.203 352.478H303.283Z" fill="black"/>
<rect width="123.091" height="44.6246" transform="translate(229 388)" fill="white"/>
<path d="M240.906 414.368H238.986V412.992H241.29L242.25 409.696H240.33V408.336H242.634L243.482 405.392H245.034L244.186 408.336H247.306L248.154 405.392H249.722L248.874 408.336H250.794V409.696H248.474L247.53 412.992H249.45V414.368H247.146L246.298 417.312H244.73L245.578 414.368H242.458L241.61 417.312H240.058L240.906 414.368ZM245.978 412.992L246.922 409.696H243.802L242.858 412.992H245.978ZM252.843 405.392H260.411V406.832H254.427V410.688H259.851V412.144H254.427V417.312H252.843V405.392ZM262.156 405.392H269.932V406.832H263.74V410.608H269.612V412.064H263.74V415.872H269.932V417.312H262.156V405.392ZM271.859 405.392H279.427V406.832H273.443V410.688H278.867V412.144H273.443V417.312H271.859V405.392ZM286.019 411.968L286.291 412C286.067 412.299 285.801 412.512 285.491 412.64C285.182 412.768 284.819 412.832 284.403 412.832C283.71 412.832 283.075 412.672 282.499 412.352C281.934 412.022 281.491 411.568 281.171 410.992C280.851 410.416 280.691 409.771 280.691 409.056C280.691 408.32 280.862 407.664 281.203 407.088C281.545 406.502 282.014 406.043 282.611 405.712C283.209 405.371 283.881 405.2 284.627 405.2C285.385 405.2 286.062 405.371 286.659 405.712C287.267 406.043 287.737 406.512 288.067 407.12C288.409 407.718 288.579 408.39 288.579 409.136C288.579 409.776 288.467 410.4 288.243 411.008C288.019 411.606 287.657 412.235 287.155 412.896L283.795 417.312H281.907L286.019 411.968ZM284.627 411.456C285.075 411.456 285.481 411.355 285.843 411.152C286.206 410.939 286.489 410.651 286.691 410.288C286.894 409.926 286.995 409.51 286.995 409.04C286.995 408.582 286.889 408.166 286.675 407.792C286.473 407.419 286.19 407.131 285.827 406.928C285.465 406.715 285.065 406.608 284.627 406.608C284.19 406.608 283.79 406.715 283.427 406.928C283.075 407.131 282.793 407.419 282.579 407.792C282.377 408.166 282.275 408.582 282.275 409.04C282.275 409.51 282.377 409.926 282.579 410.288C282.782 410.651 283.059 410.939 283.411 411.152C283.774 411.355 284.179 411.456 284.627 411.456ZM293.886 405.392H295.742L300.014 417.312H298.334L297.358 414.528H292.27L291.294 417.312H289.614L293.886 405.392ZM296.846 413.072L294.59 406.544H295.038L292.766 413.072H296.846ZM306.519 417.504C305.399 417.504 304.396 417.243 303.511 416.72C302.626 416.187 301.927 415.451 301.415 414.512C300.914 413.574 300.663 412.523 300.663 411.36C300.663 410.187 300.914 409.131 301.415 408.192C301.927 407.254 302.626 406.523 303.511 406C304.396 405.467 305.399 405.2 306.519 405.2C307.298 405.2 308.018 405.344 308.679 405.632C309.351 405.91 309.916 406.278 310.375 406.736C310.834 407.195 311.164 407.691 311.367 408.224L309.927 408.896C309.639 408.203 309.196 407.659 308.599 407.264C308.012 406.859 307.319 406.656 306.519 406.656C305.687 406.656 304.946 406.854 304.295 407.248C303.655 407.643 303.154 408.198 302.791 408.912C302.428 409.627 302.247 410.443 302.247 411.36C302.247 412.278 302.428 413.094 302.791 413.808C303.154 414.512 303.655 415.062 304.295 415.456C304.946 415.851 305.687 416.048 306.519 416.048C307.319 416.048 308.012 415.851 308.599 415.456C309.196 415.051 309.639 414.507 309.927 413.824L311.367 414.48C311.164 415.014 310.834 415.515 310.375 415.984C309.916 416.443 309.351 416.811 308.679 417.088C308.018 417.366 307.298 417.504 306.519 417.504Z" fill="black"/>
</g>
<g clip-path="url(#clip6_4567_13844)">
<rect width="123.091" height="102" transform="translate(51 -28)" fill="#73E7FF"/>
<path d="M96.9968 15.4736L100.293 11.9056L100.773 11.3776C101.391 10.7163 101.839 10.215 102.117 9.87365C102.405 9.52165 102.618 9.19098 102.757 8.88165C102.906 8.56164 102.981 8.22564 102.981 7.87364C102.981 7.23364 102.789 6.73764 102.405 6.38564C102.031 6.03364 101.525 5.85765 100.885 5.85765C100.245 5.85765 99.7008 6.04431 99.2528 6.41765C98.8048 6.78031 98.4955 7.29231 98.3248 7.95364L96.9008 7.58564C97.0395 6.95631 97.2955 6.40698 97.6688 5.93764C98.0421 5.45764 98.5061 5.08964 99.0608 4.83364C99.6155 4.57764 100.218 4.44965 100.869 4.44965C101.594 4.44965 102.234 4.59365 102.789 4.88165C103.343 5.15898 103.775 5.55364 104.085 6.06565C104.405 6.56698 104.565 7.14298 104.565 7.79364C104.565 8.23098 104.479 8.65231 104.309 9.05765C104.138 9.46298 103.882 9.88965 103.541 10.3376C103.199 10.7856 102.725 11.3403 102.117 12.0016L99.1728 15.2016H104.821V16.5616H96.9968V15.4736ZM111.519 16.7536C110.58 16.7536 109.754 16.4976 109.039 15.9856C108.324 15.4736 107.764 14.7536 107.359 13.8256C106.964 12.887 106.767 11.8096 106.767 10.5936C106.767 9.37765 106.964 8.30565 107.359 7.37765C107.764 6.44965 108.319 5.72965 109.023 5.21764C109.738 4.70564 110.564 4.44965 111.503 4.44965C112.431 4.44965 113.252 4.70564 113.967 5.21764C114.682 5.72965 115.236 6.44965 115.631 7.37765C116.026 8.30565 116.223 9.37765 116.223 10.5936C116.223 11.8096 116.026 12.887 115.631 13.8256C115.247 14.7536 114.698 15.4736 113.983 15.9856C113.268 16.4976 112.447 16.7536 111.519 16.7536ZM111.519 15.2976C112.138 15.2976 112.682 15.1056 113.151 14.7216C113.631 14.327 113.999 13.7776 114.255 13.0736C114.522 12.359 114.655 11.5323 114.655 10.5936C114.655 9.65498 114.522 8.83365 114.255 8.12965C113.999 7.42564 113.631 6.88164 113.151 6.49765C112.682 6.10298 112.132 5.90565 111.503 5.90565C110.874 5.90565 110.319 6.10298 109.839 6.49765C109.37 6.88164 109.002 7.42564 108.735 8.12965C108.479 8.83365 108.351 9.65498 108.351 10.5936C108.351 11.5323 108.479 12.3536 108.735 13.0576C109.002 13.7616 109.37 14.311 109.839 14.7056C110.319 15.1003 110.879 15.2976 111.519 15.2976ZM123.097 16.7536C122.158 16.7536 121.332 16.4976 120.617 15.9856C119.902 15.4736 119.342 14.7536 118.937 13.8256C118.542 12.887 118.345 11.8096 118.345 10.5936C118.345 9.37765 118.542 8.30565 118.937 7.37765C119.342 6.44965 119.897 5.72965 120.601 5.21764C121.316 4.70564 122.142 4.44965 123.081 4.44965C124.009 4.44965 124.83 4.70564 125.545 5.21764C126.26 5.72965 126.814 6.44965 127.209 7.37765C127.604 8.30565 127.801 9.37765 127.801 10.5936C127.801 11.8096 127.604 12.887 127.209 13.8256C126.825 14.7536 126.276 15.4736 125.561 15.9856C124.846 16.4976 124.025 16.7536 123.097 16.7536ZM123.097 15.2976C123.716 15.2976 124.26 15.1056 124.729 14.7216C125.209 14.327 125.577 13.7776 125.833 13.0736C126.1 12.359 126.233 11.5323 126.233 10.5936C126.233 9.65498 126.1 8.83365 125.833 8.12965C125.577 7.42564 125.209 6.88164 124.729 6.49765C124.26 6.10298 123.71 5.90565 123.081 5.90565C122.452 5.90565 121.897 6.10298 121.417 6.49765C120.948 6.88164 120.58 7.42564 120.313 8.12965C120.057 8.83365 119.929 9.65498 119.929 10.5936C119.929 11.5323 120.057 12.3536 120.313 13.0576C120.58 13.7616 120.948 14.311 121.417 14.7056C121.897 15.1003 122.457 15.2976 123.097 15.2976Z" fill="black"/>
<path d="M100.823 30.7978H102.679L106.951 42.7178H105.271L104.295 39.9338H99.207L98.231 42.7178H96.551L100.823 30.7978ZM103.783 38.4778L101.527 31.9498H101.975L99.703 38.4778H103.783ZM111.573 30.7978H113.429L117.701 42.7178H116.021L115.045 39.9338H109.957L108.981 42.7178H107.301L111.573 30.7978ZM114.533 38.4778L112.277 31.9498H112.725L110.453 38.4778H114.533ZM122.323 30.7978H124.179L128.451 42.7178H126.771L125.795 39.9338H120.707L119.731 42.7178H118.051L122.323 30.7978ZM125.283 38.4778L123.027 31.9498H123.475L121.203 38.4778H125.283Z" fill="black"/>
<rect width="123.091" height="44.6246" transform="translate(51 74)" fill="white"/>
<path d="M62.9064 100.368H60.9864V98.9923H63.2904L64.2504 95.6963H62.3304V94.3363H64.6344L65.4824 91.3923H67.0344L66.1864 94.3363H69.3064L70.1544 91.3923H71.7224L70.8744 94.3363H72.7944V95.6963H70.4744L69.5304 98.9923H71.4504V100.368H69.1464L68.2984 103.312H66.7304L67.5784 100.368H64.4584L63.6104 103.312H62.0584L62.9064 100.368ZM67.9784 98.9923L68.9224 95.6963H65.8024L64.8584 98.9923H67.9784ZM79.9953 92.7363H74.1553V91.3763H81.6433V92.7363L76.4593 103.312H74.7633L79.9953 92.7363ZM86.9849 103.504C86.3555 103.504 85.7689 103.392 85.2249 103.168C84.6809 102.944 84.2115 102.63 83.8169 102.224C83.4222 101.808 83.1342 101.318 82.9529 100.752L84.2809 100.208C84.5049 100.806 84.8569 101.27 85.3369 101.6C85.8169 101.931 86.3662 102.096 86.9849 102.096C87.4862 102.096 87.9289 102 88.3129 101.808C88.6969 101.616 88.9955 101.339 89.2089 100.976C89.4222 100.603 89.5289 100.166 89.5289 99.6643C89.5289 98.9069 89.2942 98.3149 88.8249 97.8883C88.3555 97.4616 87.7422 97.2483 86.9849 97.2483C86.6329 97.2483 86.3022 97.2856 85.9929 97.3603L85.6569 96.6403L88.8409 92.7523H83.5609V91.3923H90.6169V92.7203L87.5769 96.4483L87.4809 96.0323C88.1849 96.0536 88.8089 96.2189 89.3529 96.5283C89.9075 96.8376 90.3395 97.2589 90.6489 97.7923C90.9582 98.3256 91.1129 98.9389 91.1129 99.6323C91.1129 100.358 90.9369 101.014 90.5849 101.6C90.2435 102.187 89.7582 102.651 89.1289 102.992C88.4995 103.334 87.7849 103.504 86.9849 103.504ZM93.3589 91.3923H101.135V92.8323H94.9429V96.6083H100.815V98.0643H94.9429V101.872H101.135V103.312H93.3589V91.3923ZM108.214 92.7363H102.374V91.3763H109.862V92.7363L104.678 103.312H102.982L108.214 92.7363ZM111.828 91.3923H119.396V92.8323H113.412V96.6883H118.836V98.1443H113.412V103.312H111.828V91.3923ZM121.14 91.3923H128.708V92.8323H122.724V96.6883H128.148V98.1443H122.724V103.312H121.14V91.3923Z" fill="black"/>
</g>
<g clip-path="url(#clip7_4567_13844)">
<rect width="123.091" height="102" transform="translate(407 -28)" fill="#94DDCA"/>
<path d="M456.715 6.00165H454.459V4.64164H458.299V16.5616H456.715V6.00165ZM465.785 16.7536C464.846 16.7536 464.019 16.4976 463.305 15.9856C462.59 15.4736 462.03 14.7536 461.625 13.8256C461.23 12.887 461.033 11.8096 461.033 10.5936C461.033 9.37765 461.23 8.30565 461.625 7.37765C462.03 6.44965 462.585 5.72965 463.289 5.21764C464.003 4.70564 464.83 4.44965 465.769 4.44965C466.697 4.44965 467.518 4.70564 468.233 5.21764C468.947 5.72965 469.502 6.44965 469.897 7.37765C470.291 8.30565 470.489 9.37765 470.489 10.5936C470.489 11.8096 470.291 12.887 469.897 13.8256C469.513 14.7536 468.963 15.4736 468.249 15.9856C467.534 16.4976 466.713 16.7536 465.785 16.7536ZM465.785 15.2976C466.403 15.2976 466.947 15.1056 467.417 14.7216C467.897 14.327 468.265 13.7776 468.521 13.0736C468.787 12.359 468.921 11.5323 468.921 10.5936C468.921 9.65498 468.787 8.83365 468.521 8.12965C468.265 7.42564 467.897 6.88164 467.417 6.49765C466.947 6.10298 466.398 5.90565 465.769 5.90565C465.139 5.90565 464.585 6.10298 464.105 6.49765C463.635 6.88164 463.267 7.42564 463.001 8.12965C462.745 8.83365 462.617 9.65498 462.617 10.5936C462.617 11.5323 462.745 12.3536 463.001 13.0576C463.267 13.7616 463.635 14.311 464.105 14.7056C464.585 15.1003 465.145 15.2976 465.785 15.2976ZM477.363 16.7536C476.424 16.7536 475.597 16.4976 474.883 15.9856C474.168 15.4736 473.608 14.7536 473.203 13.8256C472.808 12.887 472.611 11.8096 472.611 10.5936C472.611 9.37765 472.808 8.30565 473.203 7.37765C473.608 6.44965 474.163 5.72965 474.867 5.21764C475.581 4.70564 476.408 4.44965 477.347 4.44965C478.275 4.44965 479.096 4.70564 479.811 5.21764C480.525 5.72965 481.08 6.44965 481.475 7.37765C481.869 8.30565 482.067 9.37765 482.067 10.5936C482.067 11.8096 481.869 12.887 481.475 13.8256C481.091 14.7536 480.541 15.4736 479.827 15.9856C479.112 16.4976 478.291 16.7536 477.363 16.7536ZM477.363 15.2976C477.981 15.2976 478.525 15.1056 478.995 14.7216C479.475 14.327 479.843 13.7776 480.099 13.0736C480.365 12.359 480.499 11.5323 480.499 10.5936C480.499 9.65498 480.365 8.83365 480.099 8.12965C479.843 7.42564 479.475 6.88164 478.995 6.49765C478.525 6.10298 477.976 5.90565 477.347 5.90565C476.717 5.90565 476.163 6.10298 475.683 6.49765C475.213 6.88164 474.845 7.42564 474.579 8.12965C474.323 8.83365 474.195 9.65498 474.195 10.5936C474.195 11.5323 474.323 12.3536 474.579 13.0576C474.845 13.7616 475.213 14.311 475.683 14.7056C476.163 15.1003 476.723 15.2976 477.363 15.2976Z" fill="black"/>
<path d="M456.823 30.7978H458.679L462.951 42.7178H461.271L460.295 39.9338H455.207L454.231 42.7178H452.551L456.823 30.7978ZM459.783 38.4778L457.527 31.9498H457.975L455.703 38.4778H459.783ZM467.573 30.7978H469.429L473.701 42.7178H472.021L471.045 39.9338H465.957L464.981 42.7178H463.301L467.573 30.7978ZM470.533 38.4778L468.277 31.9498H468.725L466.453 38.4778H470.533ZM478.323 30.7978H480.179L484.451 42.7178H482.771L481.795 39.9338H476.707L475.731 42.7178H474.051L478.323 30.7978ZM481.283 38.4778L479.027 31.9498H479.475L477.203 38.4778H481.283Z" fill="black"/>
<rect width="123.091" height="44.6246" transform="translate(407 74)" fill="white"/>
<path d="M418.906 100.368H416.986V98.9923H419.29L420.25 95.6963H418.33V94.3363H420.634L421.482 91.3923H423.034L422.186 94.3363H425.306L426.154 91.3923H427.722L426.874 94.3363H428.794V95.6963H426.474L425.53 98.9923H427.45V100.368H425.146L424.298 103.312H422.73L423.578 100.368H420.458L419.61 103.312H418.058L418.906 100.368ZM423.978 98.9923L424.922 95.6963H421.802L420.858 98.9923H423.978ZM435.691 97.9683L435.963 98.0003C435.739 98.2989 435.473 98.5123 435.163 98.6403C434.854 98.7683 434.491 98.8323 434.075 98.8323C433.382 98.8323 432.747 98.6723 432.171 98.3523C431.606 98.0216 431.163 97.5683 430.843 96.9923C430.523 96.4163 430.363 95.7709 430.363 95.0563C430.363 94.3203 430.534 93.6643 430.875 93.0883C431.217 92.5016 431.686 92.0429 432.283 91.7123C432.881 91.3709 433.553 91.2003 434.299 91.2003C435.057 91.2003 435.734 91.3709 436.331 91.7123C436.939 92.0429 437.409 92.5123 437.739 93.1203C438.081 93.7176 438.251 94.3896 438.251 95.1363C438.251 95.7763 438.139 96.4003 437.915 97.0083C437.691 97.6056 437.329 98.2349 436.827 98.8963L433.467 103.312H431.579L435.691 97.9683ZM434.299 97.4563C434.747 97.4563 435.153 97.3549 435.515 97.1523C435.878 96.9389 436.161 96.6509 436.363 96.2883C436.566 95.9256 436.667 95.5096 436.667 95.0403C436.667 94.5816 436.561 94.1656 436.347 93.7923C436.145 93.4189 435.862 93.1309 435.499 92.9283C435.137 92.7149 434.737 92.6083 434.299 92.6083C433.862 92.6083 433.462 92.7149 433.099 92.9283C432.747 93.1309 432.465 93.4189 432.251 93.7923C432.049 94.1656 431.947 94.5816 431.947 95.0403C431.947 95.5096 432.049 95.9256 432.251 96.2883C432.454 96.6509 432.731 96.9389 433.083 97.1523C433.446 97.3549 433.851 97.4563 434.299 97.4563ZM445.247 100.56H439.375V99.2643L445.215 91.3923H446.719V99.2643H448.271V100.56H446.719V103.312H445.247V100.56ZM440.351 99.2643H445.247V92.7043L445.711 92.8323L440.575 99.8243L440.351 99.2643ZM450.218 91.3923H454.138C455.333 91.3923 456.378 91.6376 457.274 92.1283C458.181 92.6189 458.88 93.3176 459.37 94.2243C459.861 95.1203 460.106 96.1603 460.106 97.3443C460.106 98.5283 459.861 99.5736 459.37 100.48C458.88 101.376 458.181 102.075 457.274 102.576C456.368 103.067 455.322 103.312 454.138 103.312H450.218V91.3923ZM454.154 101.872C455.029 101.872 455.792 101.691 456.442 101.328C457.093 100.955 457.594 100.427 457.946 99.7443C458.298 99.0616 458.474 98.2616 458.474 97.3443C458.474 96.4376 458.298 95.6429 457.946 94.9603C457.594 94.2776 457.088 93.7549 456.426 93.3923C455.776 93.0189 455.018 92.8323 454.154 92.8323H451.802V101.872H454.154ZM462.078 91.3923H465.998C467.192 91.3923 468.238 91.6376 469.134 92.1283C470.04 92.6189 470.739 93.3176 471.23 94.2243C471.72 95.1203 471.966 96.1603 471.966 97.3443C471.966 98.5283 471.72 99.5736 471.23 100.48C470.739 101.376 470.04 102.075 469.134 102.576C468.227 103.067 467.182 103.312 465.998 103.312H462.078V91.3923ZM466.014 101.872C466.888 101.872 467.651 101.691 468.302 101.328C468.952 100.955 469.454 100.427 469.806 99.7443C470.158 99.0616 470.334 98.2616 470.334 97.3443C470.334 96.4376 470.158 95.6429 469.806 94.9603C469.454 94.2776 468.947 93.7549 468.286 93.3923C467.635 93.0189 466.878 92.8323 466.014 92.8323H463.662V101.872H466.014ZM479.441 103.504C478.321 103.504 477.318 103.243 476.433 102.72C475.548 102.187 474.849 101.451 474.337 100.512C473.836 99.5736 473.585 98.5229 473.585 97.3603C473.585 96.1869 473.836 95.1309 474.337 94.1923C474.849 93.2536 475.548 92.5229 476.433 92.0003C477.318 91.4669 478.321 91.2003 479.441 91.2003C480.22 91.2003 480.94 91.3443 481.601 91.6323C482.273 91.9096 482.838 92.2776 483.297 92.7363C483.756 93.1949 484.086 93.6909 484.289 94.2243L482.849 94.8963C482.561 94.2029 482.118 93.6589 481.521 93.2643C480.934 92.8589 480.241 92.6563 479.441 92.6563C478.609 92.6563 477.868 92.8536 477.217 93.2483C476.577 93.6429 476.076 94.1976 475.713 94.9123C475.35 95.6269 475.169 96.4429 475.169 97.3603C475.169 98.2776 475.35 99.0936 475.713 99.8083C476.076 100.512 476.577 101.062 477.217 101.456C477.868 101.851 478.609 102.048 479.441 102.048C480.241 102.048 480.934 101.851 481.521 101.456C482.118 101.051 482.561 100.507 482.849 99.8243L484.289 100.48C484.086 101.014 483.756 101.515 483.297 101.984C482.838 102.443 482.273 102.811 481.601 103.088C480.94 103.366 480.22 103.504 479.441 103.504ZM489.526 91.3923H491.382L495.654 103.312H493.974L492.998 100.528H487.91L486.934 103.312H485.254L489.526 91.3923ZM492.486 99.0723L490.23 92.5443H490.678L488.406 99.0723H492.486Z" fill="black"/>
</g>
<g clip-path="url(#clip8_4567_13844)">
<rect width="123.091" height="102" transform="translate(51 192)" fill="#FBEDC6"/>
<path d="M100.715 226.002H98.4592V224.642H102.299V236.562H100.715V226.002ZM109.785 236.754C108.846 236.754 108.019 236.498 107.305 235.986C106.59 235.474 106.03 234.754 105.625 233.826C105.23 232.887 105.033 231.81 105.033 230.594C105.033 229.378 105.23 228.306 105.625 227.378C106.03 226.45 106.585 225.73 107.289 225.218C108.003 224.706 108.83 224.45 109.769 224.45C110.697 224.45 111.518 224.706 112.233 225.218C112.947 225.73 113.502 226.45 113.897 227.378C114.291 228.306 114.489 229.378 114.489 230.594C114.489 231.81 114.291 232.887 113.897 233.826C113.513 234.754 112.963 235.474 112.249 235.986C111.534 236.498 110.713 236.754 109.785 236.754ZM109.785 235.298C110.403 235.298 110.947 235.106 111.417 234.722C111.897 234.327 112.265 233.778 112.521 233.074C112.787 232.359 112.921 231.532 112.921 230.594C112.921 229.655 112.787 228.834 112.521 228.13C112.265 227.426 111.897 226.882 111.417 226.498C110.947 226.103 110.398 225.906 109.769 225.906C109.139 225.906 108.585 226.103 108.105 226.498C107.635 226.882 107.267 227.426 107.001 228.13C106.745 228.834 106.617 229.655 106.617 230.594C106.617 231.532 106.745 232.354 107.001 233.058C107.267 233.762 107.635 234.311 108.105 234.706C108.585 235.1 109.145 235.298 109.785 235.298ZM121.363 236.754C120.424 236.754 119.597 236.498 118.883 235.986C118.168 235.474 117.608 234.754 117.203 233.826C116.808 232.887 116.611 231.81 116.611 230.594C116.611 229.378 116.808 228.306 117.203 227.378C117.608 226.45 118.163 225.73 118.867 225.218C119.581 224.706 120.408 224.45 121.347 224.45C122.275 224.45 123.096 224.706 123.811 225.218C124.525 225.73 125.08 226.45 125.475 227.378C125.869 228.306 126.067 229.378 126.067 230.594C126.067 231.81 125.869 232.887 125.475 233.826C125.091 234.754 124.541 235.474 123.827 235.986C123.112 236.498 122.291 236.754 121.363 236.754ZM121.363 235.298C121.981 235.298 122.525 235.106 122.995 234.722C123.475 234.327 123.843 233.778 124.099 233.074C124.365 232.359 124.499 231.532 124.499 230.594C124.499 229.655 124.365 228.834 124.099 228.13C123.843 227.426 123.475 226.882 122.995 226.498C122.525 226.103 121.976 225.906 121.347 225.906C120.717 225.906 120.163 226.103 119.683 226.498C119.213 226.882 118.845 227.426 118.579 228.13C118.323 228.834 118.195 229.655 118.195 230.594C118.195 231.532 118.323 232.354 118.579 233.058C118.845 233.762 119.213 234.311 119.683 234.706C120.163 235.1 120.723 235.298 121.363 235.298Z" fill="black"/>
<path d="M100.823 250.798H102.679L106.951 262.718H105.271L104.295 259.934H99.207L98.231 262.718H96.551L100.823 250.798ZM103.783 258.478L101.527 251.95H101.975L99.703 258.478H103.783ZM111.573 250.798H113.429L117.701 262.718H116.021L115.045 259.934H109.957L108.981 262.718H107.301L111.573 250.798ZM114.533 258.478L112.277 251.95H112.725L110.453 258.478H114.533ZM122.323 250.798H124.179L128.451 262.718H126.771L125.795 259.934H120.707L119.731 262.718H118.051L122.323 250.798ZM125.283 258.478L123.027 251.95H123.475L121.203 258.478H125.283Z" fill="black"/>
<rect width="123.091" height="44.6246" transform="translate(51 294)" fill="white"/>
<path d="M62.9064 320.368H60.9864V318.992H63.2904L64.2504 315.696H62.3304V314.336H64.6344L65.4824 311.392H67.0344L66.1864 314.336H69.3064L70.1544 311.392H71.7224L70.8744 314.336H72.7944V315.696H70.4744L69.5304 318.992H71.4504V320.368H69.1464L68.2984 323.312H66.7304L67.5784 320.368H64.4584L63.6104 323.312H62.0584L62.9064 320.368ZM67.9784 318.992L68.9224 315.696H65.8024L64.8584 318.992H67.9784ZM74.8433 311.392H82.4113V312.832H76.4273V316.688H81.8513V318.144H76.4273V323.312H74.8433V311.392ZM84.1558 311.392H89.1798C89.8838 311.392 90.4971 311.52 91.0198 311.776C91.5424 312.032 91.9424 312.395 92.2198 312.864C92.5078 313.334 92.6518 313.883 92.6518 314.512C92.6518 315.12 92.4971 315.664 92.1878 316.144C91.8784 316.614 91.4358 316.971 90.8598 317.216L90.8438 316.624C91.5904 316.902 92.1558 317.318 92.5398 317.872C92.9344 318.427 93.1318 319.062 93.1318 319.776C93.1318 320.875 92.7798 321.739 92.0758 322.368C91.3718 322.998 90.4118 323.312 89.1958 323.312H84.1558V311.392ZM89.2598 321.872C89.9531 321.872 90.5078 321.686 90.9237 321.312C91.3398 320.939 91.5478 320.432 91.5478 319.792C91.5478 319.163 91.3398 318.656 90.9237 318.272C90.5078 317.888 89.9531 317.696 89.2598 317.696H85.7398V321.872H89.2598ZM89.1478 316.288C89.7238 316.288 90.1878 316.123 90.5398 315.792C90.8918 315.451 91.0677 315.019 91.0677 314.496C91.0677 313.963 90.8918 313.552 90.5398 313.264C90.1984 312.966 89.7344 312.816 89.1478 312.816H85.7398V316.288H89.1478ZM95.2339 311.392H103.01V312.832H96.8179V316.608H102.69V318.064H96.8179V321.872H103.01V323.312H95.2339V311.392ZM104.937 311.392H108.857C110.052 311.392 111.097 311.638 111.993 312.128C112.9 312.619 113.598 313.318 114.089 314.224C114.58 315.12 114.825 316.16 114.825 317.344C114.825 318.528 114.58 319.574 114.089 320.48C113.598 321.376 112.9 322.075 111.993 322.576C111.086 323.067 110.041 323.312 108.857 323.312H104.937V311.392ZM108.873 321.872C109.748 321.872 110.51 321.691 111.161 321.328C111.812 320.955 112.313 320.427 112.665 319.744C113.017 319.062 113.193 318.262 113.193 317.344C113.193 316.438 113.017 315.643 112.665 314.96C112.313 314.278 111.806 313.755 111.145 313.392C110.494 313.019 109.737 312.832 108.873 312.832H106.521V321.872H108.873ZM122.3 323.504C121.18 323.504 120.178 323.243 119.292 322.72C118.407 322.187 117.708 321.451 117.196 320.512C116.695 319.574 116.444 318.523 116.444 317.36C116.444 316.187 116.695 315.131 117.196 314.192C117.708 313.254 118.407 312.523 119.292 312C120.178 311.467 121.18 311.2 122.3 311.2C123.079 311.2 123.799 311.344 124.46 311.632C125.132 311.91 125.698 312.278 126.156 312.736C126.615 313.195 126.946 313.691 127.148 314.224L125.708 314.896C125.42 314.203 124.978 313.659 124.38 313.264C123.794 312.859 123.1 312.656 122.3 312.656C121.468 312.656 120.727 312.854 120.076 313.248C119.436 313.643 118.935 314.198 118.572 314.912C118.21 315.627 118.028 316.443 118.028 317.36C118.028 318.278 118.21 319.094 118.572 319.808C118.935 320.512 119.436 321.062 120.076 321.456C120.727 321.851 121.468 322.048 122.3 322.048C123.1 322.048 123.794 321.851 124.38 321.456C124.978 321.051 125.42 320.507 125.708 319.824L127.148 320.48C126.946 321.014 126.615 321.515 126.156 321.984C125.698 322.443 125.132 322.811 124.46 323.088C123.799 323.366 123.079 323.504 122.3 323.504ZM132.754 323.504C131.996 323.504 131.314 323.339 130.706 323.008C130.108 322.667 129.639 322.198 129.298 321.6C128.967 320.992 128.802 320.315 128.802 319.568C128.802 318.928 128.914 318.31 129.138 317.712C129.362 317.104 129.724 316.47 130.226 315.808L133.57 311.392H135.474L131.362 316.736L131.074 316.704C131.298 316.406 131.564 316.192 131.874 316.064C132.183 315.936 132.551 315.872 132.978 315.872C133.671 315.872 134.3 316.038 134.866 316.368C135.442 316.688 135.89 317.136 136.21 317.712C136.53 318.288 136.69 318.934 136.69 319.648C136.69 320.384 136.519 321.046 136.178 321.632C135.836 322.208 135.367 322.667 134.77 323.008C134.172 323.339 133.5 323.504 132.754 323.504ZM132.754 322.096C133.191 322.096 133.586 321.995 133.938 321.792C134.3 321.579 134.583 321.286 134.786 320.912C134.999 320.539 135.106 320.123 135.106 319.664C135.106 319.195 135.004 318.779 134.802 318.416C134.599 318.054 134.316 317.771 133.954 317.568C133.591 317.355 133.191 317.248 132.754 317.248C132.306 317.248 131.9 317.355 131.538 317.568C131.175 317.771 130.892 318.054 130.69 318.416C130.487 318.779 130.386 319.195 130.386 319.664C130.386 320.123 130.487 320.539 130.69 320.912C130.903 321.286 131.186 321.579 131.538 321.792C131.9 321.995 132.306 322.096 132.754 322.096Z" fill="black"/>
</g>
<g clip-path="url(#clip9_4567_13844)">
<rect width="123.091" height="102" transform="translate(229 527)" fill="#E03157"/>
<path d="M278.949 571.754C278.191 571.754 277.509 571.588 276.901 571.258C276.303 570.916 275.834 570.447 275.493 569.85C275.162 569.242 274.997 568.564 274.997 567.818C274.997 567.178 275.109 566.559 275.333 565.962C275.557 565.354 275.919 564.719 276.421 564.058L279.765 559.642H281.669L277.557 564.986L277.269 564.954C277.493 564.655 277.759 564.442 278.069 564.314C278.378 564.186 278.746 564.122 279.173 564.122C279.866 564.122 280.495 564.287 281.061 564.618C281.637 564.938 282.085 565.386 282.405 565.962C282.725 566.538 282.885 567.183 282.885 567.898C282.885 568.634 282.714 569.295 282.373 569.882C282.031 570.458 281.562 570.916 280.965 571.258C280.367 571.588 279.695 571.754 278.949 571.754ZM278.949 570.346C279.386 570.346 279.781 570.244 280.133 570.042C280.495 569.828 280.778 569.535 280.981 569.162C281.194 568.788 281.301 568.372 281.301 567.914C281.301 567.444 281.199 567.028 280.997 566.666C280.794 566.303 280.511 566.02 280.149 565.818C279.786 565.604 279.386 565.498 278.949 565.498C278.501 565.498 278.095 565.604 277.733 565.818C277.37 566.02 277.087 566.303 276.885 566.666C276.682 567.028 276.581 567.444 276.581 567.914C276.581 568.372 276.682 568.788 276.885 569.162C277.098 569.535 277.381 569.828 277.733 570.042C278.095 570.244 278.501 570.346 278.949 570.346ZM289.519 571.754C288.58 571.754 287.754 571.498 287.039 570.986C286.324 570.474 285.764 569.754 285.359 568.826C284.964 567.887 284.767 566.81 284.767 565.594C284.767 564.378 284.964 563.306 285.359 562.378C285.764 561.45 286.319 560.73 287.023 560.218C287.738 559.706 288.564 559.45 289.503 559.45C290.431 559.45 291.252 559.706 291.967 560.218C292.682 560.73 293.236 561.45 293.631 562.378C294.026 563.306 294.223 564.378 294.223 565.594C294.223 566.81 294.026 567.887 293.631 568.826C293.247 569.754 292.698 570.474 291.983 570.986C291.268 571.498 290.447 571.754 289.519 571.754ZM289.519 570.298C290.138 570.298 290.682 570.106 291.151 569.722C291.631 569.327 291.999 568.778 292.255 568.074C292.522 567.359 292.655 566.532 292.655 565.594C292.655 564.655 292.522 563.834 292.255 563.13C291.999 562.426 291.631 561.882 291.151 561.498C290.682 561.103 290.132 560.906 289.503 560.906C288.874 560.906 288.319 561.103 287.839 561.498C287.37 561.882 287.002 562.426 286.735 563.13C286.479 563.834 286.351 564.655 286.351 565.594C286.351 566.532 286.479 567.354 286.735 568.058C287.002 568.762 287.37 569.311 287.839 569.706C288.319 570.1 288.879 570.298 289.519 570.298ZM301.097 571.754C300.158 571.754 299.332 571.498 298.617 570.986C297.902 570.474 297.342 569.754 296.937 568.826C296.542 567.887 296.345 566.81 296.345 565.594C296.345 564.378 296.542 563.306 296.937 562.378C297.342 561.45 297.897 560.73 298.601 560.218C299.316 559.706 300.142 559.45 301.081 559.45C302.009 559.45 302.83 559.706 303.545 560.218C304.26 560.73 304.814 561.45 305.209 562.378C305.604 563.306 305.801 564.378 305.801 565.594C305.801 566.81 305.604 567.887 305.209 568.826C304.825 569.754 304.276 570.474 303.561 570.986C302.846 571.498 302.025 571.754 301.097 571.754ZM301.097 570.298C301.716 570.298 302.26 570.106 302.729 569.722C303.209 569.327 303.577 568.778 303.833 568.074C304.1 567.359 304.233 566.532 304.233 565.594C304.233 564.655 304.1 563.834 303.833 563.13C303.577 562.426 303.209 561.882 302.729 561.498C302.26 561.103 301.71 560.906 301.081 560.906C300.452 560.906 299.897 561.103 299.417 561.498C298.948 561.882 298.58 562.426 298.313 563.13C298.057 563.834 297.929 564.655 297.929 565.594C297.929 566.532 298.057 567.354 298.313 568.058C298.58 568.762 298.948 569.311 299.417 569.706C299.897 570.1 300.457 570.298 301.097 570.298Z" fill="white"/>
<path d="M278.823 585.798H280.679L284.951 597.718H283.271L282.295 594.934H277.207L276.231 597.718H274.551L278.823 585.798ZM281.783 593.478L279.527 586.95H279.975L277.703 593.478H281.783ZM289.573 585.798H291.429L295.701 597.718H294.021L293.045 594.934H287.957L286.981 597.718H285.301L289.573 585.798ZM292.533 593.478L290.277 586.95H290.725L288.453 593.478H292.533ZM300.323 585.798H302.179L306.451 597.718H304.771L303.795 594.934H298.707L297.731 597.718H296.051L300.323 585.798ZM303.283 593.478L301.027 586.95H301.475L299.203 593.478H303.283Z" fill="white"/>
<rect width="123.091" height="44.6246" transform="translate(229 629)" fill="white"/>
<path d="M240.906 655.368H238.986V653.992H241.29L242.25 650.696H240.33V649.336H242.634L243.482 646.392H245.034L244.186 649.336H247.306L248.154 646.392H249.722L248.874 649.336H250.794V650.696H248.474L247.53 653.992H249.45V655.368H247.146L246.298 658.312H244.73L245.578 655.368H242.458L241.61 658.312H240.058L240.906 655.368ZM245.978 653.992L246.922 650.696H243.802L242.858 653.992H245.978ZM252.843 646.392H260.619V647.832H254.427V651.608H260.299V653.064H254.427V656.872H260.619V658.312H252.843V646.392ZM267.042 658.504C266.104 658.504 265.277 658.248 264.562 657.736C263.848 657.224 263.288 656.504 262.882 655.576C262.488 654.638 262.29 653.56 262.29 652.344C262.29 651.128 262.488 650.056 262.882 649.128C263.288 648.2 263.842 647.48 264.546 646.968C265.261 646.456 266.088 646.2 267.026 646.2C267.954 646.2 268.776 646.456 269.49 646.968C270.205 647.48 270.76 648.2 271.154 649.128C271.549 650.056 271.746 651.128 271.746 652.344C271.746 653.56 271.549 654.638 271.154 655.576C270.77 656.504 270.221 657.224 269.506 657.736C268.792 658.248 267.97 658.504 267.042 658.504ZM267.042 657.048C267.661 657.048 268.205 656.856 268.674 656.472C269.154 656.078 269.522 655.528 269.778 654.824C270.045 654.11 270.178 653.283 270.178 652.344C270.178 651.406 270.045 650.584 269.778 649.88C269.522 649.176 269.154 648.632 268.674 648.248C268.205 647.854 267.656 647.656 267.026 647.656C266.397 647.656 265.842 647.854 265.362 648.248C264.893 648.632 264.525 649.176 264.258 649.88C264.002 650.584 263.874 651.406 263.874 652.344C263.874 653.283 264.002 654.104 264.258 654.808C264.525 655.512 264.893 656.062 265.362 656.456C265.842 656.851 266.402 657.048 267.042 657.048ZM277.501 658.504C276.871 658.504 276.285 658.392 275.741 658.168C275.197 657.944 274.727 657.63 274.333 657.224C273.938 656.808 273.65 656.318 273.469 655.752L274.797 655.208C275.021 655.806 275.373 656.27 275.853 656.6C276.333 656.931 276.882 657.096 277.501 657.096C278.002 657.096 278.445 657 278.829 656.808C279.213 656.616 279.511 656.339 279.725 655.976C279.938 655.603 280.045 655.166 280.045 654.664C280.045 653.907 279.81 653.315 279.341 652.888C278.871 652.462 278.258 652.248 277.501 652.248C277.149 652.248 276.818 652.286 276.509 652.36L276.173 651.64L279.357 647.752H274.077V646.392H281.133V647.72L278.093 651.448L277.997 651.032C278.701 651.054 279.325 651.219 279.869 651.528C280.423 651.838 280.855 652.259 281.165 652.792C281.474 653.326 281.628 653.939 281.628 654.632C281.628 655.358 281.453 656.014 281.101 656.6C280.759 657.187 280.274 657.651 279.645 657.992C279.015 658.334 278.301 658.504 277.501 658.504ZM285.411 647.752H283.155V646.392H286.995V658.312H285.411V647.752ZM293.472 658.504C292.853 658.504 292.267 658.398 291.712 658.184C291.168 657.96 290.699 657.646 290.304 657.24C289.909 656.824 289.621 656.339 289.44 655.784L290.72 655.24C290.944 655.816 291.307 656.27 291.808 656.6C292.309 656.931 292.864 657.096 293.472 657.096C293.952 657.096 294.379 656.99 294.752 656.776C295.136 656.552 295.435 656.248 295.648 655.864C295.872 655.47 295.984 655.032 295.984 654.552C295.984 654.062 295.872 653.624 295.648 653.24C295.435 652.846 295.136 652.542 294.752 652.328C294.379 652.104 293.957 651.992 293.488 651.992C293.008 651.992 292.56 652.104 292.144 652.328C291.739 652.542 291.445 652.824 291.264 653.176L289.984 652.904L290.896 646.376H297.088V647.736H291.504L292.112 647.144L291.408 652.2L290.864 651.88C291.195 651.443 291.595 651.123 292.064 650.92C292.544 650.718 293.072 650.616 293.648 650.616C294.405 650.616 295.083 650.792 295.68 651.144C296.277 651.486 296.741 651.955 297.072 652.552C297.403 653.15 297.568 653.816 297.568 654.552C297.568 655.299 297.387 655.971 297.024 656.568C296.672 657.166 296.187 657.64 295.568 657.992C294.949 658.334 294.251 658.504 293.472 658.504ZM304.98 647.736H299.14V646.376H306.628V647.736L301.444 658.312H299.748L304.98 647.736Z" fill="black"/>
</g>
</g>
<defs>
<clipPath id="clip0_4567_13844">
<rect width="581" height="647" rx="16" fill="white"/>
</clipPath>
<clipPath id="clip1_4567_13844">
<rect x="229" y="45" width="123.091" height="146.625" rx="6.15616" fill="white"/>
</clipPath>
<clipPath id="clip2_4567_13844">
<rect x="51" y="412" width="123.091" height="146.625" rx="6.15616" fill="white"/>
</clipPath>
<clipPath id="clip3_4567_13844">
<rect x="407" y="418" width="123.091" height="146.625" rx="6.15616" fill="white"/>
</clipPath>
<clipPath id="clip4_4567_13844">
<rect x="407" y="195" width="123.091" height="146.625" rx="6.15616" fill="white"/>
</clipPath>
<clipPath id="clip5_4567_13844">
<rect x="229" y="286" width="123.091" height="146.625" rx="6.15616" fill="white"/>
</clipPath>
<clipPath id="clip6_4567_13844">
<rect x="51" y="-28" width="123.091" height="146.625" rx="6.15616" fill="white"/>
</clipPath>
<clipPath id="clip7_4567_13844">
<rect x="407" y="-28" width="123.091" height="146.625" rx="6.15616" fill="white"/>
</clipPath>
<clipPath id="clip8_4567_13844">
<rect x="51" y="192" width="123.091" height="146.625" rx="6.15616" fill="white"/>
</clipPath>
<clipPath id="clip9_4567_13844">
<rect x="229" y="527" width="123.091" height="146.625" rx="6.15616" fill="white"/>
</clipPath>
</defs>
</svg>
