<svg width="581" height="648" viewBox="0 0 581 648" fill="none" xmlns="http://www.w3.org/2000/svg">
<rect width="581" height="648" rx="16" fill="#F2EFF7"/>
<g clip-path="url(#clip0_4567_15655)">
<path d="M276.662 342.018H116.344C109.014 342.018 101.707 342.087 94.3769 342.018C84.0368 341.926 74.409 336.71 69.1241 327.703C66.045 322.464 65.1718 316.742 65.1718 310.814V182.482C65.1718 179.219 65.1718 175.979 65.1718 172.716C65.1948 163.272 69.2619 154.379 76.9596 148.75C85.5074 142.477 95.1352 143.143 104.993 143.143H273.996C278.523 143.143 282.958 143.442 287.255 145.142C298.33 149.508 305.43 160.331 305.545 172.118C305.821 197.027 305.545 221.958 305.545 246.866V308.93C305.545 312.951 305.591 316.857 304.511 320.786C301.064 333.309 289.506 341.834 276.639 341.995C275.972 341.995 275.972 343.029 276.639 343.029C288.289 342.868 299.019 336.182 303.891 325.497C306.097 320.672 306.579 315.639 306.579 310.446V179.931C306.579 177.335 306.602 174.715 306.579 172.118C306.464 161.778 301.248 152.082 292.402 146.59C284.038 141.397 274.755 142.109 265.425 142.109C234.06 142.109 202.718 142.109 171.353 142.109H95.319C78.3153 142.109 64.3217 154.862 64.1608 172.187C64.0689 180.919 64.1608 189.674 64.1608 198.405V297.602C64.1608 306.977 62.9659 317.524 67.1709 326.186C72.1801 336.48 82.7271 342.891 94.1012 343.029C95.8935 343.029 97.6858 343.029 99.478 343.029H276.662C277.328 343.029 277.328 341.995 276.662 341.995V342.018Z" fill="black"/>
<path d="M64.666 166.765C64.666 153.437 75.4657 142.615 88.8159 142.615H281.923C295.251 142.615 306.073 153.414 306.073 166.765" fill="black"/>
<path d="M85.4168 159.595C87.4981 159.595 89.1852 157.908 89.1852 155.827C89.1852 153.746 87.4981 152.059 85.4168 152.059C83.3356 152.059 81.6484 153.746 81.6484 155.827C81.6484 157.908 83.3356 159.595 85.4168 159.595Z" fill="#F76282"/>
<path d="M98.6297 159.595C100.711 159.595 102.398 157.908 102.398 155.827C102.398 153.746 100.711 152.059 98.6297 152.059C96.5485 152.059 94.8613 153.746 94.8613 155.827C94.8613 157.908 96.5485 159.595 98.6297 159.595Z" fill="#FABA01"/>
<path d="M111.817 159.595C113.898 159.595 115.586 157.908 115.586 155.827C115.586 153.746 113.898 152.059 111.817 152.059C109.736 152.059 108.049 153.746 108.049 155.827C108.049 157.908 109.736 159.595 111.817 159.595Z" fill="#99D97F"/>
<path d="M268.205 254.909C265.287 268.167 254.189 278.163 240.609 279.381C239.736 279.449 239.713 280.828 240.609 280.759C248.927 280.024 256.762 276.256 262.231 269.891C265.816 265.732 268.366 260.63 269.538 255.277C269.722 254.403 268.389 254.036 268.205 254.909Z" fill="black"/>
<path d="M267.54 248.061L267.149 252.335C267.08 253.185 267.149 254.013 267.655 254.702C268.39 255.713 269.654 256.196 270.895 255.92C271.653 255.759 272.228 255.253 272.733 254.702C273.376 253.99 273.905 253.208 274.342 252.358C274.502 252.014 274.433 251.623 274.089 251.416C273.79 251.232 273.307 251.324 273.147 251.669C272.825 252.312 272.457 252.933 271.975 253.484C271.768 253.737 271.538 253.99 271.308 254.197C271.171 254.311 270.918 254.472 270.826 254.518C270.068 254.794 269.171 254.518 268.758 253.875C268.459 253.369 268.482 252.887 268.551 252.243L268.758 249.854L268.919 248.084C268.942 247.717 268.574 247.395 268.229 247.395C267.839 247.395 267.563 247.717 267.54 248.084V248.061Z" fill="black"/>
<path d="M254.407 252.487C254.647 213.198 222.992 181.154 183.703 180.914C144.414 180.674 112.37 212.329 112.13 251.618C111.89 290.906 143.545 322.951 182.834 323.191C222.123 323.431 254.167 291.776 254.407 252.487Z" fill="#FD7112"/>
<path d="M253.913 252.495C253.568 281.929 234.749 308.791 206.877 318.648C179.12 328.46 147.479 319.636 128.752 296.98C110.025 274.324 107.451 240.546 123.007 215.178C138.563 189.81 168.779 176.897 197.686 182.917C226.592 188.937 248.605 212.49 253.04 241.189C253.614 244.935 253.867 248.726 253.867 252.518C253.867 253.184 254.901 253.184 254.901 252.518C254.901 222.715 236.289 195.394 208.302 184.916C180.039 174.346 147.318 183.147 128.085 206.332C108.853 229.517 106.302 262.973 121.651 288.731C137.001 314.489 167.378 328.046 196.721 322.463C226.064 316.879 249.203 292.982 253.959 263.708C254.556 260.008 254.855 256.263 254.901 252.495C254.901 251.828 253.867 251.828 253.867 252.495H253.913Z" fill="black"/>
<path d="M142.563 316.926C134.13 306.242 133.602 291.352 141.207 280.07C141.713 279.334 140.518 278.645 140.012 279.38C132.016 291.214 132.774 306.747 141.575 317.914C142.126 318.604 143.092 317.639 142.54 316.949L142.563 316.926Z" fill="black"/>
<path d="M148.4 320.902L145.321 317.892C144.677 317.271 143.988 316.812 143.069 316.766C141.897 316.697 140.702 317.386 140.174 318.42C139.829 319.11 139.806 319.799 139.898 320.557C140.036 321.591 140.334 322.579 140.771 323.522C140.932 323.866 141.414 323.935 141.713 323.774C142.058 323.567 142.127 323.177 141.966 322.832C141.644 322.12 141.414 321.339 141.276 320.557C141.208 320.075 141.139 319.592 141.345 319.133C141.644 318.466 142.448 318.053 143.115 318.145C143.689 318.214 144.057 318.604 144.47 318.995L146.148 320.649L147.435 321.89C148.078 322.51 149.043 321.545 148.4 320.925V320.902Z" fill="black"/>
<path d="M488.06 495.971H327.742C320.412 495.971 313.105 496.04 305.775 495.971C295.435 495.879 285.807 490.663 280.523 481.655C277.443 476.416 276.57 470.695 276.57 464.767C276.57 436.435 276.57 408.103 276.57 379.771V336.457C276.57 333.194 276.57 329.954 276.57 326.692C276.593 317.248 280.66 308.355 288.358 302.725C296.906 296.452 306.534 297.119 316.391 297.119H485.372C489.898 297.119 494.333 297.418 498.63 299.118C509.705 303.484 516.806 314.306 516.921 326.094C517.196 351.002 516.921 375.933 516.921 400.842V462.905C516.921 466.926 516.967 470.833 515.887 474.762C512.44 487.285 500.882 495.81 488.014 495.971C487.348 495.971 487.348 497.005 488.014 497.005C499.664 496.844 510.395 490.157 515.266 479.472C517.472 474.647 517.955 469.615 517.955 464.422V333.884C517.955 331.287 517.978 328.668 517.955 326.071C517.84 315.731 512.624 306.034 503.777 300.543C495.413 295.35 486.13 296.062 476.801 296.062H306.717C289.714 296.062 275.72 308.815 275.559 326.14C275.467 334.872 275.559 343.626 275.559 352.358C275.559 385.423 275.559 418.489 275.559 451.554C275.559 460.929 274.364 471.476 278.569 480.139C283.579 490.433 294.125 496.844 305.5 496.982C307.292 496.982 309.084 496.982 310.876 496.982H488.06C488.726 496.982 488.726 495.948 488.06 495.948V495.971Z" fill="black"/>
<path d="M276.064 320.717C276.064 307.39 286.864 296.567 300.214 296.567H493.322C506.649 296.567 517.472 307.367 517.472 320.717" fill="black"/>
<path d="M296.813 313.548C298.895 313.548 300.582 311.861 300.582 309.78C300.582 307.698 298.895 306.011 296.813 306.011C294.732 306.011 293.045 307.698 293.045 309.78C293.045 311.861 294.732 313.548 296.813 313.548Z" fill="#F76282"/>
<path d="M310.026 313.548C312.107 313.548 313.795 311.861 313.795 309.78C313.795 307.698 312.107 306.011 310.026 306.011C307.945 306.011 306.258 307.698 306.258 309.78C306.258 311.861 307.945 313.548 310.026 313.548Z" fill="#FABA01"/>
<path d="M323.214 313.548C325.295 313.548 326.982 311.861 326.982 309.78C326.982 307.698 325.295 306.011 323.214 306.011C321.132 306.011 319.445 307.698 319.445 309.78C319.445 311.861 321.132 313.548 323.214 313.548Z" fill="#99D97F"/>
<path d="M397.802 476.669C437.092 476.669 468.942 444.819 468.942 405.529C468.942 366.24 437.092 334.389 397.802 334.389C358.513 334.389 326.662 366.24 326.662 405.529C326.662 444.819 358.513 476.669 397.802 476.669Z" fill="#FABA01"/>
<path d="M326.133 405.53C326.294 435.333 345.09 462.562 373.146 472.856C401.478 483.242 434.13 474.257 453.247 450.958C472.227 427.773 474.686 394.179 459.176 368.512C443.711 342.961 413.22 329.473 383.9 335.24C354.58 341.008 331.602 365.043 327.006 394.34C326.432 398.062 326.156 401.808 326.133 405.553C326.133 406.219 327.167 406.219 327.167 405.553C327.328 376.118 345.986 349.142 373.789 339.101C401.593 329.059 433.164 337.745 452.029 360.286C471.124 383.127 473.675 416.583 458.279 442.042C442.884 467.502 412.76 480.599 383.785 474.763C355.292 469.018 332.705 445.512 328.063 416.835C327.466 413.09 327.19 409.298 327.167 405.507C327.167 404.841 326.133 404.841 326.133 405.507V405.53Z" fill="black"/>
<path d="M311.955 382.208C314.184 396.132 325.191 407.208 339.184 409.299C340.057 409.437 340.425 408.104 339.552 407.966C331.487 406.771 324.088 402.589 319.216 396.018C316.137 391.859 314.115 386.941 313.288 381.84C313.15 380.967 311.817 381.335 311.955 382.208Z" fill="black"/>
<path d="M312.967 375.038L313.105 379.473C313.105 379.771 313.105 380.001 313.059 380.231C312.944 380.667 312.668 381.012 312.3 381.242C312.071 381.38 312.002 381.403 311.703 381.472C311.496 381.518 311.841 381.472 311.611 381.472C311.542 381.472 311.473 381.472 311.404 381.472C311.335 381.472 311.266 381.472 311.198 381.472C311.106 381.472 311.106 381.472 311.175 381.472C311.129 381.472 311.106 381.472 311.083 381.472C310.531 381.334 310.209 381.035 309.796 380.507C308.762 379.22 308.21 377.703 307.958 376.095C307.889 375.727 307.452 375.52 307.107 375.612C306.717 375.727 306.556 376.095 306.625 376.462C306.901 378.094 307.452 379.633 308.417 380.966C308.877 381.587 309.382 382.253 310.118 382.598C310.761 382.896 311.496 382.965 312.186 382.804C313.587 382.46 314.529 381.173 314.506 379.748C314.506 379.036 314.46 378.347 314.437 377.634L314.368 375.061C314.346 374.165 312.967 374.165 312.99 375.061L312.967 375.038Z" fill="black"/>
<path d="M345.802 372.51C347.921 372.51 349.639 370.792 349.639 368.672C349.639 366.553 347.921 364.835 345.802 364.835C343.683 364.835 341.965 366.553 341.965 368.672C341.965 370.792 343.683 372.51 345.802 372.51Z" fill="#251F20"/>
<path d="M344.608 384.39C340.173 386.894 334.705 387.722 329.741 386.711C328.661 386.504 328.202 388.158 329.282 388.365C334.728 389.468 340.633 388.595 345.481 385.86C346.446 385.309 345.573 383.815 344.608 384.367V384.39Z" fill="black"/>
<path d="M299.917 544.73H242.288C231.074 544.73 221.906 535.562 221.906 524.348V487.354C221.906 476.141 231.074 466.972 242.288 466.972H282.729L298.078 456.977C301.272 454.909 305.5 457.161 305.523 460.975L305.592 467.8C314.071 470.281 320.321 478.117 320.321 487.377V524.371C320.321 535.585 311.153 544.753 299.94 544.753L299.917 544.73Z" fill="#09CFAE"/>
<path d="M299.916 544.225H258.602C253.202 544.225 247.802 544.317 242.402 544.225C230.821 544.041 222.434 534.827 222.411 523.453C222.388 515.801 222.411 508.149 222.411 500.475C222.411 493.788 221.308 485.608 224.112 479.335C227.03 472.74 233.51 468.099 240.702 467.524C242.724 467.363 244.769 467.455 246.791 467.455H272.411C275.559 467.455 278.937 467.777 282.062 467.455C284.176 467.225 286.083 465.364 287.83 464.215C291.253 461.986 294.608 459.528 298.147 457.506C301.685 455.484 304.833 457.988 304.994 461.803C305.063 463.779 305.04 465.778 305.04 467.777C305.04 468.007 305.201 468.213 305.431 468.282C313.956 470.948 319.654 478.554 319.769 487.492C319.815 491.1 319.769 494.707 319.769 498.315C319.769 507.115 319.999 515.939 319.769 524.739C319.493 535.539 310.601 544.018 299.893 544.225C299.227 544.225 299.227 545.282 299.893 545.259C308.073 545.098 315.587 540.41 318.965 532.874C320.941 528.485 320.803 523.981 320.803 519.294C320.803 508.701 320.964 498.108 320.803 487.538C320.688 479.978 316.828 472.993 310.21 469.202C309.452 468.765 306.258 467.8 306.097 467.547C305.592 466.881 306.074 463.825 306.051 462.997C306.051 460.47 305.936 457.988 303.524 456.472C299.273 453.829 293.942 459.022 290.61 461.205L283.464 465.847C282.338 466.582 282.866 466.444 281.488 466.444H247.733C243.367 466.444 239.07 466.214 234.888 467.8C227.375 470.649 222.021 477.749 221.4 485.769C221.102 489.583 221.331 493.466 221.331 497.281V516.398C221.331 520.305 220.964 524.51 221.722 528.393C223.284 536.297 229.58 542.846 237.439 544.707C240.702 545.466 244.125 545.259 247.457 545.259H299.87C300.537 545.259 300.537 544.225 299.87 544.225H299.916Z" fill="#241F20"/>
<path d="M363.586 103.552H296.353C283.278 103.552 272.57 114.26 272.57 127.334V170.694C272.57 180.321 278.384 188.662 286.679 192.385L286.771 202.794C286.817 207.229 291.734 209.871 295.456 207.458L315.378 194.476H363.586C376.661 194.476 387.369 183.768 387.369 170.694V127.357C387.369 114.283 376.661 103.575 363.586 103.575V103.552Z" fill="#AC94CD"/>
<path d="M363.588 103.046C341.391 103.046 319.194 102.954 296.998 103.046C289.415 103.069 282.269 106.148 277.466 112.123C273.215 117.407 272.066 123.52 272.066 130.091V168.901C272.066 176.576 274.41 183.699 280.316 188.892C281.051 189.536 281.809 190.133 282.613 190.684C283.326 191.19 285.532 191.948 285.945 192.477C286.405 193.074 286.198 194.912 286.221 195.969C286.244 198.727 285.669 202.38 286.703 205.023C287.99 208.332 291.942 209.825 295.113 208.286C296.86 207.435 298.468 206.149 300.077 205.092L309.635 198.865C311.451 197.693 313.565 195.694 315.61 194.981C315.242 195.119 315.794 195.027 316.115 195.004C316.874 194.981 317.632 195.004 318.367 195.004H349.824C354.397 195.004 358.969 195.073 363.542 195.004C372.503 194.866 380.844 190.041 385.095 182.068C387.899 176.783 387.945 171.314 387.945 165.546V143.924C387.945 138.547 387.968 133.17 387.945 127.817C387.899 119.453 383.969 111.686 376.938 107.021C372.963 104.402 368.367 103.115 363.634 103.023C362.967 103.023 362.967 104.057 363.634 104.057C375.996 104.264 386.428 114.053 386.888 126.53C387.048 131.056 386.888 135.606 386.888 140.11V162.789C386.888 168.671 387.347 174.646 384.843 180.161C380.913 188.846 372.297 193.901 362.899 193.947C357.361 193.947 351.823 193.947 346.308 193.947H323.583C320.895 193.947 316.874 193.097 314.461 194.453C308.211 197.968 302.328 202.357 296.331 206.264C295.412 206.861 294.516 207.504 293.413 207.734C289.714 208.469 287.439 205.482 287.301 202.196C287.163 198.911 287.232 195.625 287.209 192.362C287.209 192.201 287.117 191.994 286.956 191.925C278.454 187.927 273.215 179.77 273.123 170.395C273.077 166.236 273.123 162.077 273.123 157.895C273.123 147.716 272.986 137.536 273.123 127.38C273.261 117.798 279.121 108.998 288.174 105.574C292.126 104.08 296.101 104.057 300.214 104.057H363.611C364.277 104.057 364.277 103.023 363.611 103.023L363.588 103.046Z" fill="black"/>
<path d="M314.391 151.898C315.736 151.898 316.826 150.807 316.826 149.462C316.826 148.117 315.736 147.026 314.391 147.026C313.046 147.026 311.955 148.117 311.955 149.462C311.955 150.807 313.046 151.898 314.391 151.898Z" fill="#241F20"/>
<path d="M331.58 151.898C332.925 151.898 334.016 150.807 334.016 149.462C334.016 148.117 332.925 147.026 331.58 147.026C330.235 147.026 329.145 148.117 329.145 149.462C329.145 150.807 330.235 151.898 331.58 151.898Z" fill="#241F20"/>
<path d="M348.744 151.898C350.089 151.898 351.18 150.807 351.18 149.462C351.18 148.117 350.089 147.026 348.744 147.026C347.399 147.026 346.309 148.117 346.309 149.462C346.309 150.807 347.399 151.898 348.744 151.898Z" fill="#241F20"/>
<path d="M259.198 506.471C260.353 506.471 261.289 505.535 261.289 504.38C261.289 503.225 260.353 502.289 259.198 502.289C258.044 502.289 257.107 503.225 257.107 504.38C257.107 505.535 258.044 506.471 259.198 506.471Z" fill="#241F20"/>
<path d="M273.927 506.471C275.082 506.471 276.018 505.535 276.018 504.38C276.018 503.225 275.082 502.289 273.927 502.289C272.772 502.289 271.836 503.225 271.836 504.38C271.836 505.535 272.772 506.471 273.927 506.471Z" fill="#241F20"/>
<path d="M288.657 506.471C289.812 506.471 290.748 505.535 290.748 504.38C290.748 503.225 289.812 502.289 288.657 502.289C287.503 502.289 286.566 503.225 286.566 504.38C286.566 505.535 287.503 506.471 288.657 506.471Z" fill="#241F20"/>
<path d="M199.961 265.731C200.742 264.031 202.305 262.514 204.074 261.871C207.452 260.653 211.036 262.377 212.691 265.456C213.219 266.444 214.713 265.57 214.184 264.582C212.254 260.975 207.98 258.884 203.982 260.102C201.661 260.814 199.524 262.652 198.49 264.858C198.031 265.846 199.501 266.742 199.984 265.731H199.961Z" fill="#251F20"/>
<path d="M223.17 265.731C223.951 264.031 225.513 262.514 227.283 261.871C230.661 260.653 234.245 262.377 235.9 265.456C236.428 266.444 237.922 265.57 237.393 264.582C235.463 260.975 231.189 258.884 227.191 260.102C224.87 260.814 222.733 262.652 221.699 264.858C221.24 265.846 222.71 266.742 223.193 265.731H223.17Z" fill="#251F20"/>
<path d="M201.363 275.635C205.728 280.414 212.185 283.24 218.642 283.171C225.099 283.102 231.303 280.23 235.554 275.52C236.289 274.692 235.071 273.475 234.336 274.302C230.384 278.668 224.547 281.402 218.642 281.448C212.737 281.494 206.647 278.874 202.58 274.417C201.822 273.59 200.604 274.807 201.363 275.635Z" fill="#251F20"/>
</g>
<defs>
<clipPath id="clip0_4567_15655">
<rect width="454" height="442.281" fill="white" transform="translate(64 103)"/>
</clipPath>
</defs>
</svg>
