<svg width="581" height="648" viewBox="0 0 581 648" fill="none" xmlns="http://www.w3.org/2000/svg">
<rect width="581" height="648" rx="16" fill="#FFF9F3"/>
<g clip-path="url(#clip0_4567_15709)">
<path d="M244.778 294.501L325.121 333.618L318.491 347.235L238.148 308.119L244.778 294.501Z" fill="#FFC300"/>
<path d="M318.702 347.882L325.779 333.363L244.529 293.789L237.451 308.308L318.702 347.882ZM324.424 333.828L318.237 346.547L238.806 307.863L244.994 295.144L324.424 333.828Z" fill="black"/>
<path d="M229.281 295.993L244.568 293.971L237.612 308.248L229.281 295.993Z" fill="#FFE196"/>
<path d="M229.282 295.993L235.773 295.144L232.134 300.199L229.282 295.993Z" fill="black"/>
<path d="M292.637 335.83C300.766 359.368 323.536 376.637 348.368 378.255C349.338 378.315 349.338 379.832 348.368 379.771C322.828 378.113 299.532 360.439 291.161 336.234C290.837 335.304 292.313 334.92 292.617 335.83H292.637Z" fill="black"/>
<path d="M294.943 327.64C295.529 330.289 296.035 333.686 293.608 335.648C291.343 337.488 288.209 336.315 286.51 334.313C285.479 333.1 284.69 331.664 284.185 330.168C283.881 329.237 285.337 328.833 285.641 329.763C286.429 332.109 288.371 335.304 291.242 335.061C292.516 334.96 293.365 333.949 293.709 332.796C294.174 331.239 293.79 329.601 293.467 328.065C293.264 327.114 294.72 326.71 294.923 327.66L294.943 327.64Z" fill="black"/>
<path d="M422.843 323.455H422.863C471.679 323.455 511.252 363.028 511.252 411.844V411.864C511.252 460.68 471.679 500.253 422.863 500.253H422.843C374.027 500.253 334.454 460.68 334.454 411.864V411.844C334.454 363.028 374.027 323.455 422.843 323.455Z" fill="#FF5382"/>
<path d="M422.843 501C472.002 501 512 461.002 512 411.843C512 362.684 472.002 322.686 422.843 322.686C373.684 322.686 333.686 362.684 333.686 411.843C333.686 461.002 373.684 501 422.843 501ZM422.843 324.203C471.173 324.203 510.483 363.514 510.483 411.843C510.483 460.173 471.173 499.484 422.843 499.484C374.513 499.484 335.202 460.173 335.202 411.843C335.202 363.514 374.513 324.203 422.843 324.203Z" fill="black"/>
<path d="M404.199 377.507C400.95 377.507 398.315 374.872 398.315 371.622C398.315 368.372 400.95 365.738 404.199 365.738C407.449 365.738 410.084 368.372 410.084 371.622C410.084 374.872 407.449 377.507 404.199 377.507Z" fill="#261F20"/>
<path d="M366.385 376.415C363.135 376.415 360.501 373.78 360.501 370.53C360.501 367.28 363.135 364.646 366.385 364.646C369.635 364.646 372.27 367.28 372.27 370.53C372.27 373.78 369.635 376.415 366.385 376.415Z" fill="#261F20"/>
<path d="M411.297 392.066C404.583 399.406 394.634 403.714 384.706 403.491C374.777 403.269 365.839 398.921 359.489 391.884C358.842 391.156 359.914 390.084 360.561 390.812C366.648 397.546 375.626 401.772 384.706 401.975C394.27 402.197 403.775 398.052 410.225 390.994C410.893 390.266 411.964 391.338 411.297 392.066Z" fill="#261F20"/>
<path d="M467.774 460.051C475.236 440.598 472.142 418.233 460.535 401.045C459.989 400.236 461.303 399.467 461.849 400.276C473.659 417.748 476.833 440.659 469.25 460.456C468.907 461.366 467.43 460.961 467.794 460.051H467.774Z" fill="black"/>
<path d="M460.819 464.642C462.073 462.256 463.731 459.587 466.724 459.445C469.717 459.304 471.334 462.114 471.496 464.683C471.597 466.341 471.254 468.08 470.647 469.617C470.505 470.001 470.141 470.264 469.717 470.142C469.353 470.041 469.029 469.596 469.191 469.212C470.121 466.866 470.809 462.923 468.2 461.346C467.047 460.638 465.672 461.022 464.661 461.811C463.488 462.721 462.781 464.137 462.093 465.431C461.648 466.3 460.334 465.532 460.779 464.662L460.819 464.642Z" fill="black"/>
<path d="M131.307 264.65C131.307 233.913 157.191 209.223 188.332 211.164C214.903 212.822 236.561 234.358 238.36 260.909C239.513 277.956 232.678 293.446 221.233 304.001C216.319 308.531 212.861 314.415 211.102 320.866L210.171 324.284H159.617L157.656 317.085C156.422 312.555 153.814 308.531 150.234 305.478C138.668 295.65 131.307 281.009 131.307 264.63V264.65Z" fill="#FFC300"/>
<path d="M159.051 325.072H210.758L211.85 321.089C213.609 314.658 217.026 308.956 221.758 304.588C233.911 293.365 240.241 277.45 239.129 260.889C237.288 233.812 215.489 212.114 188.392 210.436C173.206 209.485 158.748 214.682 147.707 225.056C136.807 235.288 130.559 249.726 130.559 264.67C130.559 280.645 137.555 295.731 149.749 306.104C153.247 309.077 155.735 312.96 156.928 317.327L159.051 325.093V325.072ZM209.605 323.556H160.204L158.384 316.923C157.11 312.252 154.461 308.106 150.72 304.932C138.87 294.861 132.075 280.18 132.075 264.67C132.075 249.16 138 236.259 148.738 226.168C159.476 216.078 173.509 211.022 188.291 211.952C214.62 213.59 235.812 234.682 237.592 261.01C238.684 277.107 232.536 292.596 220.707 303.496C215.773 308.046 212.193 314.011 210.353 320.725L209.565 323.596L209.605 323.556Z" fill="black"/>
<path d="M159.618 333.403H212.195C214.985 333.403 217.25 331.138 217.25 328.348C217.25 325.557 214.985 323.292 212.195 323.292H159.618C156.828 323.292 154.563 325.557 154.563 328.348C154.563 331.138 156.828 333.403 159.618 333.403ZM212.195 325.315C213.873 325.315 215.228 326.669 215.228 328.348C215.228 330.026 213.873 331.381 212.195 331.381H159.618C157.94 331.381 156.585 330.026 156.585 328.348C156.585 326.669 157.94 325.315 159.618 325.315H212.195Z" fill="black"/>
<path d="M175.451 355.648H192.296C198.544 355.648 203.883 351.179 205.015 345.031L207.139 333.404H160.629L162.752 345.031C163.864 351.179 169.223 355.648 175.472 355.648H175.451Z" fill="#00C4EF"/>
<path d="M175.471 356.416H192.316C198.928 356.416 204.59 351.684 205.783 345.193L208.068 332.655H159.739L162.024 345.193C163.217 351.704 168.859 356.416 175.491 356.416H175.471ZM206.248 334.172L204.287 344.91C203.235 350.693 198.2 354.899 192.316 354.899H175.471C169.587 354.899 164.551 350.693 163.5 344.91L161.538 334.172H206.228H206.248Z" fill="black"/>
<path d="M184.895 362.725C188.798 362.725 191.973 359.55 191.973 355.647H189.95C189.95 358.438 187.686 360.703 184.895 360.703C182.104 360.703 179.84 358.438 179.84 355.647H177.818C177.818 359.55 180.992 362.725 184.895 362.725Z" fill="black"/>
<path d="M184.896 302.06C166.469 302.06 151.53 287.122 151.53 268.694C151.53 250.267 166.469 235.329 184.896 235.329C203.323 235.329 218.262 250.267 218.262 268.694C218.262 287.122 203.323 302.06 184.896 302.06Z" fill="#FFE196"/>
<path d="M178.668 325.092L180.185 324.93L175.716 285.64H190.801L187.869 323.717L189.386 323.838L192.338 285.64H202.146C207.585 285.64 212.014 281.211 212.014 275.771C212.014 270.332 207.585 265.903 202.146 265.903C196.706 265.903 192.014 270.19 191.59 275.67L190.943 284.103H175.574L174.381 273.608C173.876 269.22 170.175 265.903 165.747 265.903C160.307 265.903 155.878 270.332 155.878 275.771C155.878 281.211 160.307 285.64 165.747 285.64H174.219L178.709 325.092H178.668ZM173.997 284.123H165.686C161.096 284.123 157.355 280.382 157.355 275.792C157.355 271.201 161.096 267.46 165.686 267.46C169.326 267.46 172.399 270.19 172.804 273.83L173.977 284.143L173.997 284.123ZM202.085 267.44C206.675 267.44 210.416 271.181 210.416 275.771C210.416 280.362 206.675 284.103 202.085 284.103H192.399L193.046 275.792C193.41 271.1 197.373 267.42 202.085 267.42V267.44Z" fill="black"/>
<path d="M206.99 332.652L207.32 334.132L162.776 344.072L162.445 342.592L206.99 332.652Z" fill="black"/>
<path d="M168.213 353.888L205.521 344.303L205.157 342.847L167.828 352.432L168.213 353.888Z" fill="black"/>
<path d="M84.9987 316.013L81.1566 324.385C81.0353 324.648 80.8331 324.85 80.5702 324.971L72.1984 328.813C71.2885 329.238 71.2885 330.532 72.1984 330.957L80.5702 334.799C80.8331 334.92 81.0353 335.122 81.1566 335.385L84.9987 343.757C85.4234 344.667 86.7176 344.667 87.1422 343.757L90.9843 335.385C91.1057 335.122 91.3079 334.92 91.5708 334.799L99.9425 330.957C100.852 330.532 100.852 329.238 99.9425 328.813L91.5708 324.971C91.3079 324.85 91.1057 324.648 90.9843 324.385L87.1422 316.013C86.7176 315.103 85.4234 315.103 84.9987 316.013Z" fill="#5BF3FF"/>
<path d="M85.4643 316.276L81.9457 323.919C81.5615 324.769 81.1368 325.274 80.2673 325.659L75.8994 327.66L73.675 328.672C73.3515 328.813 72.7246 328.975 72.4617 329.218C71.2484 330.492 74.3828 331.361 74.9288 331.604L79.782 333.828C80.611 334.212 81.2379 334.455 81.703 335.304C82.3906 336.619 82.9568 338.034 83.5836 339.389L84.6149 341.634C84.8374 342.119 85.0396 342.887 85.3834 343.292C86.5764 344.707 87.2842 342.139 87.5673 341.533L89.7917 336.679C90.1759 335.83 90.4792 334.779 91.3285 334.293C92.4812 333.646 93.7754 333.161 94.9684 332.615C96.3435 331.988 97.9208 331.462 99.215 330.674C99.6598 330.411 100.691 330.249 99.6194 329.218C99.3161 328.934 98.6285 328.752 98.2645 328.591L92.9058 326.124C91.915 325.659 90.9645 325.396 90.4388 324.385C89.6704 322.908 89.0233 321.331 88.3357 319.815L87.1831 317.287C87.082 317.064 86.9809 316.68 86.8191 316.478C86.5967 316.195 86.536 314.557 85.4643 316.235C85.1003 316.801 84.2105 316.276 84.5543 315.71C85.4642 314.254 87.082 314.678 87.7493 316.033C88.5379 317.631 89.2457 319.269 89.9737 320.886C90.4186 321.877 90.8837 323.798 91.8341 324.465C92.9463 325.254 94.5236 325.699 95.7571 326.265C97.1726 326.912 98.7499 327.479 100.105 328.267C101.46 329.056 101.439 330.613 100.105 331.402C98.7701 332.19 97.1726 332.756 95.7571 333.403C94.5236 333.97 92.9463 334.435 91.8341 335.203C90.8837 335.87 90.4186 337.792 89.9737 338.782C89.2255 340.4 88.5379 342.038 87.7493 343.636C87.082 344.99 85.444 345.456 84.5543 343.959C83.8667 342.827 83.4016 341.472 82.8557 340.279C82.1883 338.803 81.6221 337.124 80.7728 335.749C80.2066 334.839 78.7507 334.495 77.8407 334.071L72.664 331.685C71.5316 331.159 70.3183 330.107 71.3698 328.773C71.7338 328.328 72.3202 328.126 72.8257 327.903L75.6365 326.609C77.1127 325.942 78.9731 325.396 80.3077 324.465C80.7931 324.122 80.9548 323.535 81.1773 323.03L82.5119 320.138L84.5543 315.71C84.8374 315.103 85.7271 315.629 85.4643 316.235V316.276Z" fill="black"/>
<path d="M299.348 200.749L295.506 209.121C295.385 209.384 295.183 209.586 294.92 209.708L286.548 213.55C285.638 213.974 285.638 215.269 286.548 215.693L294.92 219.535C295.183 219.657 295.385 219.859 295.506 220.122L299.348 228.493C299.773 229.403 301.067 229.403 301.492 228.493L305.334 220.122C305.455 219.859 305.657 219.657 305.92 219.535L314.292 215.693C315.202 215.269 315.202 213.974 314.292 213.55L305.92 209.708C305.657 209.586 305.455 209.384 305.334 209.121L301.492 200.749C301.067 199.839 299.773 199.839 299.348 200.749Z" fill="#5BF3FF"/>
<path d="M299.814 201.012L296.295 208.656C295.911 209.505 295.486 210.011 294.617 210.395L290.249 212.397L288.025 213.408C287.701 213.549 287.074 213.711 286.811 213.954C285.598 215.228 288.732 216.097 289.278 216.34L294.132 218.564C294.961 218.949 295.588 219.191 296.053 220.041C296.74 221.355 297.306 222.771 297.933 224.125L298.965 226.37C299.187 226.855 299.389 227.624 299.733 228.028C300.926 229.444 301.634 226.876 301.917 226.269L304.141 221.416C304.526 220.566 304.829 219.515 305.678 219.03C306.831 218.382 308.125 217.897 309.318 217.351C310.693 216.724 312.27 216.198 313.565 215.41C314.009 215.147 315.041 214.985 313.969 213.954C313.666 213.671 312.978 213.489 312.614 213.327L307.255 210.86C306.265 210.395 305.314 210.132 304.788 209.121C304.02 207.645 303.373 206.067 302.685 204.551L301.533 202.023C301.432 201.801 301.33 201.416 301.169 201.214C300.946 200.931 300.886 199.293 299.814 200.972C299.45 201.538 298.56 201.012 298.904 200.446C299.814 198.99 301.432 199.415 302.099 200.769C302.888 202.367 303.595 204.005 304.323 205.623C304.768 206.613 305.233 208.534 306.184 209.202C307.296 209.99 308.873 210.435 310.107 211.002C311.522 211.649 313.099 212.215 314.454 213.003C315.809 213.792 315.789 215.349 314.454 216.138C313.12 216.926 311.522 217.493 310.107 218.14C308.873 218.706 307.296 219.171 306.184 219.939C305.233 220.607 304.768 222.528 304.323 223.519C303.575 225.136 302.888 226.774 302.099 228.372C301.432 229.727 299.794 230.192 298.904 228.695C298.216 227.563 297.751 226.208 297.205 225.015C296.538 223.539 295.972 221.861 295.122 220.485C294.556 219.576 293.1 219.232 292.19 218.807L287.014 216.421C285.881 215.895 284.668 214.844 285.719 213.509C286.083 213.064 286.67 212.862 287.175 212.639L289.986 211.345C291.462 210.678 293.323 210.132 294.657 209.202C295.143 208.858 295.304 208.272 295.527 207.766L296.862 204.874L298.904 200.446C299.187 199.839 300.077 200.365 299.814 200.972V201.012Z" fill="black"/>
<path d="M259.596 231.708L258.241 234.641C258.241 234.641 258.12 234.802 258.039 234.843L255.107 236.198C254.783 236.339 254.783 236.804 255.107 236.946L258.039 238.301C258.039 238.301 258.201 238.422 258.241 238.503L259.596 241.435C259.738 241.759 260.203 241.759 260.344 241.435L261.699 238.503C261.699 238.503 261.82 238.341 261.901 238.301L264.834 236.946C265.157 236.804 265.157 236.339 264.834 236.198L261.901 234.843C261.901 234.843 261.74 234.722 261.699 234.641L260.344 231.708C260.203 231.385 259.738 231.385 259.596 231.708Z" fill="black"/>
<path d="M259.757 231.79L258.524 234.459C258.382 234.762 258.24 234.924 257.937 235.066L256.42 235.773L255.652 236.137C255.531 236.198 255.308 236.238 255.227 236.34C254.803 236.784 255.895 237.088 256.097 237.169L257.796 237.957C258.079 238.099 258.301 238.18 258.463 238.483C258.706 238.948 258.908 239.433 259.11 239.899L259.474 240.687C259.555 240.849 259.616 241.132 259.737 241.274C260.161 241.779 260.404 240.869 260.505 240.667L261.294 238.968C261.435 238.665 261.537 238.301 261.84 238.139C262.244 237.917 262.689 237.755 263.114 237.553C263.599 237.33 264.145 237.148 264.59 236.865C264.752 236.764 265.116 236.724 264.732 236.36C264.63 236.259 264.388 236.198 264.246 236.137L262.366 235.268C262.022 235.106 261.678 235.005 261.496 234.661C261.233 234.135 261.011 233.589 260.768 233.064L260.364 232.174C260.364 232.174 260.283 231.972 260.242 231.891C260.161 231.79 260.141 231.223 259.777 231.81C259.656 232.012 259.332 231.81 259.454 231.628C259.777 231.122 260.343 231.264 260.566 231.749C260.849 232.315 261.092 232.882 261.355 233.448C261.516 233.792 261.678 234.459 262.002 234.702C262.386 234.985 262.952 235.126 263.377 235.328C263.882 235.551 264.428 235.753 264.893 236.036C265.358 236.319 265.358 236.865 264.893 237.128C264.428 237.391 263.862 237.593 263.377 237.836C262.952 238.038 262.386 238.2 262.002 238.463C261.678 238.705 261.516 239.373 261.355 239.717C261.092 240.283 260.849 240.849 260.566 241.415C260.323 241.88 259.757 242.042 259.454 241.537C259.211 241.132 259.049 240.667 258.867 240.242C258.625 239.737 258.443 239.13 258.139 238.665C257.937 238.341 257.432 238.22 257.108 238.079L255.288 237.25C254.884 237.068 254.479 236.704 254.843 236.238C254.965 236.077 255.167 236.016 255.349 235.935L256.34 235.49C256.845 235.248 257.512 235.066 257.978 234.742C258.139 234.621 258.2 234.418 258.281 234.236L258.746 233.225L259.454 231.668C259.555 231.446 259.858 231.648 259.777 231.85L259.757 231.79Z" fill="black"/>
<path d="M190.84 152.844L189.485 155.776C189.485 155.776 189.364 155.938 189.283 155.979L186.351 157.333C186.028 157.475 186.028 157.94 186.351 158.082L189.283 159.436C189.283 159.436 189.445 159.558 189.485 159.639L190.84 162.571C190.982 162.894 191.447 162.894 191.588 162.571L192.943 159.639C192.943 159.639 193.065 159.477 193.146 159.436L196.078 158.082C196.401 157.94 196.401 157.475 196.078 157.333L193.146 155.979C193.146 155.979 192.984 155.857 192.943 155.776L191.588 152.844C191.447 152.521 190.982 152.521 190.84 152.844Z" fill="black"/>
<path d="M191.001 152.925L189.768 155.594C189.626 155.898 189.485 156.059 189.181 156.201L187.665 156.909L186.896 157.273C186.775 157.333 186.552 157.374 186.472 157.475C186.047 157.92 187.139 158.223 187.341 158.304L189.04 159.093C189.323 159.234 189.545 159.315 189.707 159.618C189.95 160.083 190.152 160.569 190.354 161.034L190.718 161.822C190.799 161.984 190.86 162.267 190.981 162.409C191.406 162.914 191.648 162.004 191.749 161.802L192.538 160.104C192.68 159.8 192.781 159.436 193.084 159.275C193.488 159.052 193.933 158.89 194.358 158.688C194.843 158.466 195.389 158.284 195.834 158.001C195.996 157.899 196.36 157.859 195.976 157.495C195.875 157.394 195.632 157.333 195.49 157.273L193.61 156.403C193.266 156.241 192.922 156.14 192.74 155.796C192.477 155.271 192.255 154.725 192.012 154.199L191.608 153.309C191.608 153.309 191.527 153.107 191.487 153.026C191.406 152.925 191.385 152.359 191.021 152.945C190.9 153.147 190.577 152.945 190.698 152.763C191.021 152.258 191.588 152.399 191.81 152.884C192.093 153.451 192.336 154.017 192.599 154.583C192.76 154.927 192.922 155.594 193.246 155.837C193.63 156.12 194.196 156.262 194.621 156.464C195.126 156.686 195.672 156.888 196.138 157.171C196.603 157.455 196.603 158.001 196.138 158.263C195.672 158.526 195.106 158.729 194.621 158.971C194.196 159.173 193.63 159.335 193.246 159.598C192.922 159.841 192.76 160.508 192.599 160.852C192.336 161.418 192.093 161.984 191.81 162.55C191.567 163.016 191.001 163.177 190.698 162.672C190.455 162.267 190.293 161.802 190.111 161.378C189.869 160.872 189.687 160.265 189.383 159.8C189.181 159.477 188.676 159.355 188.352 159.214L186.532 158.385C186.128 158.203 185.723 157.839 186.087 157.374C186.209 157.212 186.411 157.151 186.593 157.07L187.584 156.625C188.089 156.383 188.757 156.201 189.222 155.877C189.383 155.756 189.444 155.554 189.525 155.372L189.99 154.361L190.698 152.804C190.799 152.581 191.102 152.783 191.021 152.986L191.001 152.925Z" fill="black"/>
<path d="M103.887 272.151L102.532 275.083C102.532 275.083 102.411 275.245 102.33 275.286L99.3979 276.641C99.0744 276.782 99.0744 277.247 99.3979 277.389L102.33 278.744C102.33 278.744 102.492 278.865 102.532 278.946L103.887 281.878C104.029 282.202 104.494 282.202 104.635 281.878L105.99 278.946C105.99 278.946 106.112 278.784 106.192 278.744L109.125 277.389C109.448 277.247 109.448 276.782 109.125 276.641L106.192 275.286C106.192 275.286 106.031 275.164 105.99 275.083L104.635 272.151C104.494 271.828 104.029 271.828 103.887 272.151Z" fill="black"/>
<path d="M104.048 272.233L102.815 274.902C102.673 275.205 102.531 275.367 102.228 275.508L100.712 276.216L99.9431 276.58C99.8217 276.641 99.5993 276.681 99.5184 276.782C99.0938 277.227 100.186 277.531 100.388 277.612L102.087 278.4C102.37 278.542 102.592 278.623 102.754 278.926C102.997 279.391 103.199 279.876 103.401 280.341L103.765 281.13C103.846 281.292 103.907 281.575 104.028 281.717C104.453 282.222 104.695 281.312 104.796 281.11L105.585 279.411C105.726 279.108 105.828 278.744 106.131 278.582C106.535 278.36 106.98 278.198 107.405 277.996C107.89 277.773 108.436 277.591 108.881 277.308C109.043 277.207 109.407 277.167 109.023 276.803C108.921 276.702 108.679 276.641 108.537 276.58L106.657 275.711C106.313 275.549 105.969 275.448 105.787 275.104C105.524 274.578 105.302 274.032 105.059 273.507L104.655 272.617C104.655 272.617 104.574 272.415 104.533 272.334C104.453 272.233 104.432 271.666 104.068 272.253C103.947 272.455 103.623 272.253 103.745 272.071C104.068 271.565 104.635 271.707 104.857 272.192C105.14 272.758 105.383 273.325 105.646 273.891C105.807 274.234 105.969 274.902 106.293 275.144C106.677 275.428 107.243 275.569 107.668 275.771C108.173 275.994 108.719 276.196 109.184 276.479C109.649 276.762 109.649 277.308 109.184 277.571C108.719 277.834 108.153 278.036 107.668 278.279C107.243 278.481 106.677 278.643 106.293 278.906C105.969 279.148 105.807 279.816 105.646 280.159C105.383 280.726 105.14 281.292 104.857 281.858C104.614 282.323 104.048 282.485 103.745 281.979C103.502 281.575 103.34 281.11 103.158 280.685C102.916 280.18 102.734 279.573 102.43 279.108C102.228 278.784 101.723 278.663 101.399 278.521L99.5791 277.692C99.1747 277.51 98.7702 277.146 99.1342 276.681C99.2556 276.52 99.4578 276.459 99.6398 276.378L100.631 275.933C101.136 275.69 101.803 275.508 102.269 275.185C102.43 275.064 102.491 274.861 102.572 274.679L103.037 273.668L103.745 272.111C103.846 271.889 104.149 272.091 104.068 272.293L104.048 272.233Z" fill="black"/>
<path d="M125.442 148.173L121.6 156.545C121.479 156.808 121.276 157.01 121.014 157.131L112.642 160.974C111.732 161.398 111.732 162.692 112.642 163.117L121.014 166.959C121.276 167.08 121.479 167.283 121.6 167.546L125.442 175.917C125.867 176.827 127.161 176.827 127.586 175.917L131.428 167.546C131.549 167.283 131.751 167.08 132.014 166.959L140.386 163.117C141.296 162.692 141.296 161.398 140.386 160.974L132.014 157.131C131.751 157.01 131.549 156.808 131.428 156.545L127.586 148.173C127.161 147.263 125.867 147.263 125.442 148.173Z" fill="#5BF3FF"/>
<path d="M125.908 148.436L122.389 156.08C122.005 156.929 121.58 157.434 120.711 157.819L116.343 159.821L114.118 160.832C113.795 160.973 113.168 161.135 112.905 161.378C111.692 162.652 114.826 163.521 115.372 163.764L120.225 165.988C121.054 166.372 121.681 166.615 122.146 167.464C122.834 168.779 123.4 170.194 124.027 171.549L125.058 173.794C125.281 174.279 125.483 175.048 125.827 175.452C127.02 176.867 127.728 174.299 128.011 173.693L130.235 168.84C130.619 167.99 130.923 166.939 131.772 166.453C132.925 165.806 134.219 165.321 135.412 164.775C136.787 164.148 138.364 163.622 139.658 162.834C140.103 162.571 141.135 162.409 140.063 161.378C139.759 161.095 139.072 160.913 138.708 160.751L133.349 158.284C132.358 157.819 131.408 157.556 130.882 156.545C130.114 155.069 129.467 153.491 128.779 151.975L127.626 149.447C127.525 149.225 127.424 148.84 127.262 148.638C127.04 148.355 126.979 146.717 125.908 148.395C125.544 148.962 124.654 148.436 124.998 147.87C125.908 146.414 127.525 146.838 128.193 148.193C128.981 149.791 129.689 151.429 130.417 153.046C130.862 154.037 131.327 155.958 132.277 156.626C133.39 157.414 134.967 157.859 136.2 158.425C137.616 159.072 139.193 159.639 140.548 160.427C141.903 161.216 141.883 162.773 140.548 163.562C139.213 164.35 137.616 164.917 136.2 165.564C134.967 166.13 133.39 166.595 132.277 167.363C131.327 168.031 130.862 169.952 130.417 170.943C129.669 172.56 128.981 174.198 128.193 175.796C127.525 177.151 125.887 177.616 124.998 176.119C124.31 174.987 123.845 173.632 123.299 172.439C122.632 170.963 122.065 169.284 121.216 167.909C120.65 166.999 119.194 166.656 118.284 166.231L113.107 163.845C111.975 163.319 110.762 162.267 111.813 160.933C112.177 160.488 112.764 160.286 113.269 160.063L116.08 158.769C117.556 158.102 119.416 157.556 120.751 156.626C121.236 156.282 121.398 155.695 121.621 155.19L122.955 152.298L124.998 147.87C125.281 147.263 126.171 147.789 125.908 148.395V148.436Z" fill="black"/>
</g>
<defs>
<clipPath id="clip0_4567_15709">
<rect width="441.034" height="354" fill="white" transform="matrix(-1 0 0 1 512 147)"/>
</clipPath>
</defs>
</svg>
