<svg width="581" height="648" viewBox="0 0 581 648" fill="none" xmlns="http://www.w3.org/2000/svg">
<g clip-path="url(#clip0_4567_10431)">
<rect width="581" height="648" rx="16" fill="#E4F6F2"/>
<path d="M1161.26 546.309C1073.24 579.78 977.525 592.671 884.26 577.808C809.751 565.917 739.752 536.905 672.951 502.662C607.149 468.934 543.802 430.404 476.602 399.391C407.46 367.52 334.035 344.997 257.5 342.767C211.253 341.424 164.692 346.912 119.958 358.717C73.4252 371.007 29.6619 390.987 -11.475 415.826C-20.5531 421.314 -29.517 426.974 -38.4239 432.776C-39.5943 433.519 -40.6506 431.661 -39.5087 430.918C-1.45485 406.193 38.1976 384.013 80.9903 368.606C126.267 352.285 174.255 343.167 222.329 340.938C299.093 337.393 374.259 354.172 445.028 383.27C513.057 411.253 576.489 448.783 641.178 483.511C707.694 519.212 776.436 552.054 850.403 569.004C940.413 589.641 1034.08 584.382 1122.26 557.428C1135.22 553.455 1148.04 549.024 1160.69 544.222C1161.97 543.736 1162.54 545.794 1161.26 546.28V546.28V546.309Z" fill="#231F20"/>
<path d="M187.081 339.005C222.488 339.005 251.19 310.211 251.19 274.693C251.19 239.174 222.488 210.381 187.081 210.381C151.675 210.381 122.973 239.174 122.973 274.693C122.973 310.211 151.675 339.005 187.081 339.005Z" fill="#F9A43D"/>
<path d="M187.084 339.526C151.447 339.526 122.457 310.444 122.457 274.694C122.457 238.945 151.447 209.863 187.084 209.863C222.72 209.863 251.71 238.945 251.71 274.694C251.71 310.444 222.72 339.526 187.084 339.526ZM187.084 210.881C152.006 210.881 123.492 239.506 123.492 274.674C123.492 309.842 152.027 338.466 187.084 338.466C222.14 338.466 250.675 309.842 250.675 274.674C250.675 239.506 222.14 210.881 187.084 210.881V210.881Z" fill="#231F20"/>
<path d="M199.322 283.127C200.026 281.59 201.434 280.219 203.029 279.637C206.073 278.536 209.303 280.094 210.794 282.878C211.27 283.771 212.616 282.982 212.14 282.088C210.401 278.827 206.549 276.937 202.946 278.038C200.855 278.682 198.929 280.344 197.997 282.338C197.583 283.231 198.908 284.041 199.343 283.127H199.322Z" fill="#231F20"/>
<path d="M220.24 283.127C220.944 281.59 222.352 280.219 223.947 279.637C226.991 278.536 230.221 280.094 231.712 282.878C232.188 283.771 233.534 282.981 233.058 282.088C231.319 278.827 227.467 276.937 223.864 278.038C221.773 278.681 219.847 280.343 218.915 282.337C218.501 283.231 219.826 284.041 220.261 283.127H220.24Z" fill="#231F20"/>
<path d="M207.07 294.156C208.209 296.607 210.57 298.664 213.138 299.453C217.569 300.804 222.29 298.477 224.423 294.468C224.899 293.575 223.553 292.806 223.077 293.679C221.193 297.21 217.03 299.225 213.158 297.812C211.129 297.064 209.327 295.34 208.416 293.367C208.002 292.453 206.656 293.242 207.07 294.156V294.156Z" fill="#231F20"/>
<path d="M91.2129 209.113C97.073 213.683 104.817 217.547 112.106 213.849C115.047 212.354 117.49 209.633 117.863 206.247C118.132 203.879 117.366 201.386 115.109 200.326C110.843 198.312 106.805 202.071 107.426 206.392C108.545 214.369 115.958 217.734 123.288 217.443C132.171 217.09 140.413 212.478 145.652 205.353C146.045 204.813 145.155 204.294 144.761 204.834C140.144 211.107 133.02 215.387 125.255 216.259C121.445 216.695 117.283 216.446 113.887 214.493C110.698 212.665 107.82 208.449 108.4 204.585C108.793 201.926 111.526 200.285 114.115 201.054C118.608 202.404 116.869 208.594 114.343 211.024C107.654 217.485 98.1291 213.205 91.9584 208.386C91.4407 207.971 90.6952 208.719 91.2336 209.113H91.2129Z" fill="#00BEE7"/>
<path d="M139.956 206.041L144.988 205.21L145.713 205.085L145.05 204.587L145.216 209.51V210.216C145.257 210.881 146.293 210.881 146.272 210.216L146.106 205.293V204.587C146.065 204.213 145.754 204.026 145.423 204.088L140.391 204.919L139.666 205.044C139.397 205.085 139.232 205.438 139.314 205.687C139.397 205.978 139.666 206.103 139.956 206.041V206.041Z" fill="#00BEE7"/>
<path d="M348.067 344.572C377.649 344.572 401.629 320.543 401.629 290.902C401.629 261.261 377.649 237.232 348.067 237.232C318.485 237.232 294.504 261.261 294.504 290.902C294.504 320.543 318.485 344.572 348.067 344.572Z" fill="#E96C87"/>
<path d="M348.069 345.005C318.295 345.005 294.074 320.736 294.074 290.902C294.074 261.068 318.295 236.799 348.069 236.799C377.844 236.799 402.065 261.068 402.065 290.902C402.065 320.736 377.844 345.005 348.069 345.005ZM348.069 237.648C318.762 237.648 294.939 261.536 294.939 290.885C294.939 320.233 318.78 344.121 348.069 344.121C377.359 344.121 401.2 320.233 401.2 290.885C401.2 261.536 377.359 237.648 348.069 237.648V237.648Z" fill="#231F20"/>
<path d="M358.291 297.94C358.879 296.657 360.055 295.513 361.387 295.027C363.931 294.108 366.629 295.409 367.875 297.732C368.273 298.477 369.398 297.818 369 297.073C367.546 294.351 364.328 292.774 361.318 293.692C359.571 294.23 357.962 295.617 357.183 297.281C356.837 298.026 357.945 298.702 358.308 297.94H358.291Z" fill="#231F20"/>
<path d="M375.771 297.94C376.359 296.657 377.536 295.513 378.868 295.027C381.411 294.108 384.11 295.409 385.356 297.732C385.753 298.477 386.878 297.818 386.48 297.073C385.027 294.351 381.809 292.774 378.799 293.692C377.051 294.23 375.442 295.617 374.664 297.281C374.318 298.026 375.425 298.702 375.788 297.94H375.771Z" fill="#231F20"/>
<path d="M364.765 307.146C365.716 309.192 367.688 310.908 369.834 311.567C373.536 312.693 377.481 310.752 379.262 307.406C379.66 306.661 378.536 306.019 378.138 306.747C376.564 309.694 373.086 311.376 369.851 310.197C368.155 309.573 366.65 308.134 365.889 306.487C365.543 305.725 364.419 306.383 364.765 307.146V307.146Z" fill="#231F20"/>
<path d="M267.967 236.176C272.863 239.99 279.333 243.214 285.423 240.129C287.88 238.88 289.921 236.61 290.233 233.784C290.458 231.808 289.818 229.727 287.932 228.843C284.368 227.162 280.994 230.3 281.513 233.905C282.447 240.562 288.641 243.37 294.766 243.128C302.187 242.833 309.073 238.984 313.45 233.038C313.779 232.588 313.035 232.154 312.706 232.605C308.848 237.84 302.897 241.411 296.409 242.139C293.226 242.504 289.748 242.296 286.911 240.666C284.247 239.14 281.842 235.621 282.326 232.397C282.655 230.178 284.939 228.809 287.101 229.45C290.856 230.577 289.402 235.743 287.292 237.771C281.704 243.162 273.745 239.591 268.59 235.569C268.157 235.223 267.534 235.847 267.984 236.176H267.967Z" fill="#00BEE7"/>
<path d="M308.691 233.61L312.895 232.917L313.501 232.813L312.947 232.397L313.085 236.505V237.094C313.12 237.649 313.985 237.649 313.968 237.094L313.829 232.986V232.397C313.795 232.085 313.535 231.929 313.258 231.981L309.054 232.674L308.449 232.778C308.224 232.813 308.085 233.107 308.155 233.315C308.224 233.558 308.449 233.662 308.691 233.61V233.61Z" fill="#00BEE7"/>
</g>
<defs>
<clipPath id="clip0_4567_10431">
<rect width="581" height="648" fill="white" transform="matrix(-1 0 0 1 581 0)"/>
</clipPath>
</defs>
</svg>
