<svg width="581" height="648" viewBox="0 0 581 648" fill="none" xmlns="http://www.w3.org/2000/svg">
<rect width="581" height="648" rx="16" fill="#FCEEF1"/>
<path d="M363.812 286.334H333.062C329.35 286.334 326.342 289.34 326.342 293.048V378.033C326.342 381.741 329.35 384.747 333.062 384.747H363.812C367.523 384.747 370.532 381.741 370.532 378.033V293.048C370.532 289.34 367.523 286.334 363.812 286.334Z" fill="#231F20"/>
<path d="M423.486 257.958H392.736C389.024 257.958 386.016 260.964 386.016 264.672V378.032C386.016 381.74 389.024 384.746 392.736 384.746H423.486C427.197 384.746 430.206 381.74 430.206 378.032V264.672C430.206 260.964 427.197 257.958 423.486 257.958Z" fill="#231F20"/>
<path d="M485.531 225.336H454.78C451.069 225.336 448.061 228.342 448.061 232.05V378.033C448.061 381.741 451.069 384.747 454.78 384.747H485.531C489.242 384.747 492.251 381.741 492.251 378.033V232.05C492.251 228.342 489.242 225.336 485.531 225.336Z" fill="#231F20"/>
<path d="M359.373 281.873H328.622C324.911 281.873 321.902 284.879 321.902 288.587V373.572C321.902 377.28 324.911 380.286 328.622 380.286H359.373C363.084 380.286 366.092 377.28 366.092 373.572V288.587C366.092 284.879 363.084 281.873 359.373 281.873Z" fill="#5FCDB0"/>
<path d="M359.351 380.879H328.624C324.587 380.879 321.311 377.605 321.311 373.572V288.611C321.311 284.578 324.587 281.304 328.624 281.304H359.351C363.387 281.304 366.664 284.578 366.664 288.611V373.572C366.664 377.605 363.387 380.879 359.351 380.879ZM328.624 282.466C325.229 282.466 322.498 285.218 322.498 288.587V373.548C322.498 376.941 325.252 379.669 328.624 379.669H359.351C362.722 379.669 365.477 376.917 365.477 373.548V288.611C365.477 285.242 362.722 282.49 359.351 282.49H328.624V282.466Z" fill="#231F20"/>
<path d="M419.046 253.499H388.296C384.585 253.499 381.576 256.505 381.576 260.213V373.573C381.576 377.281 384.585 380.288 388.296 380.288H419.046C422.758 380.288 425.766 377.281 425.766 373.573V260.213C425.766 256.505 422.758 253.499 419.046 253.499Z" fill="#776FCB"/>
<path d="M419.024 380.881H388.298C384.261 380.881 380.984 377.607 380.984 373.573V260.237C380.984 256.204 384.261 252.93 388.298 252.93H419.024C423.061 252.93 426.338 256.204 426.338 260.237V373.573C426.338 377.607 423.061 380.881 419.024 380.881ZM388.298 254.092C384.902 254.092 382.172 256.844 382.172 260.213V373.55C382.172 376.942 384.926 379.671 388.298 379.671H419.024C422.42 379.671 425.151 376.919 425.151 373.55V260.237C425.151 256.844 422.396 254.116 419.024 254.116H388.298V254.092Z" fill="#231F20"/>
<path d="M481.066 220.899H450.316C446.604 220.899 443.596 223.906 443.596 227.614V373.596C443.596 377.304 446.604 380.31 450.316 380.31H481.066C484.777 380.31 487.786 377.304 487.786 373.596V227.614C487.786 223.906 484.777 220.899 481.066 220.899Z" fill="#F5C954"/>
<path d="M481.067 380.88H450.341C446.304 380.88 443.027 377.606 443.027 373.573V227.614C443.027 223.581 446.304 220.307 450.341 220.307H481.067C485.104 220.307 488.381 223.581 488.381 227.614V373.573C488.381 377.606 485.104 380.88 481.067 380.88ZM450.341 221.469C446.969 221.469 444.215 224.221 444.215 227.59V373.549C444.215 376.942 446.969 379.67 450.341 379.67H481.067C484.463 379.67 487.194 376.918 487.194 373.549V227.614C487.194 224.245 484.439 221.493 481.067 221.493H450.341V221.469Z" fill="#231F20"/>
<path d="M468.315 187.993C458.508 199.025 447.775 209.275 436.022 218.219C426.238 225.645 415.909 232.336 404.25 236.44C396.889 239.026 389.006 240.948 381.17 241.019C377.228 241.043 372.954 240.64 369.439 238.694C364.999 236.25 358.018 227.875 365.83 225.028C368.133 224.198 370.817 224.815 371.577 227.472C372.194 229.607 371.078 231.98 369.962 233.735C367.872 237.081 364.738 240.023 361.841 242.68C349.161 254.353 332.777 261.637 315.632 263.345C314.873 263.416 314.873 264.602 315.632 264.531C332.634 262.847 348.852 255.824 361.627 244.483C365.759 240.806 375.59 232.834 372.336 226.262C370.033 221.564 362.838 223.486 361.295 227.828C359.609 232.549 364.999 237.626 368.68 239.691C372.36 241.755 377.18 242.324 381.502 242.253C395.916 242.016 410.448 236.488 422.582 228.943C440.034 218.1 455.469 204.221 469.099 188.895C469.597 188.325 468.766 187.495 468.268 188.064L468.315 187.993Z" fill="#00BEE7"/>
<path d="M457.703 190.958L467.89 188.514L469.338 188.158L468.578 187.589L468.768 198.123V199.641C468.816 200.401 470.003 200.401 469.979 199.641L469.789 189.107V187.589C469.766 187.186 469.386 186.925 469.006 187.02L458.819 189.463L457.371 189.819C456.634 190.009 456.943 191.148 457.679 190.958H457.703Z" fill="#00BEE7"/>
<path d="M305.378 385.055H500.376C502.75 385.055 506.003 385.648 508.307 385.055C508.401 385.032 508.544 385.055 508.663 385.055C509.423 385.055 509.423 383.869 508.663 383.869H313.666C311.291 383.869 308.038 383.276 305.735 383.869C305.64 383.893 305.497 383.869 305.378 383.869C304.619 383.869 304.619 385.055 305.378 385.055Z" fill="#231F20"/>
<path d="M211.437 320.45H128.352C112.615 320.45 99.8574 333.197 99.8574 348.921V431.936C99.8574 447.66 112.615 460.406 128.352 460.406H211.437C227.174 460.406 239.931 447.66 239.931 431.936V348.921C239.931 333.197 227.174 320.45 211.437 320.45Z" fill="#FF5C00"/>
<path d="M211.411 461H128.326C112.298 461 99.2383 447.951 99.2383 431.936V348.921C99.2383 332.906 112.298 319.857 128.326 319.857H211.411C227.44 319.857 240.5 332.906 240.5 348.921V431.936C240.5 447.951 227.44 461 211.411 461V461ZM128.326 321.044C112.939 321.044 100.426 333.547 100.426 348.921V431.936C100.426 447.31 112.939 459.813 128.326 459.813H211.411C226.798 459.813 239.312 447.31 239.312 431.936V348.921C239.312 333.547 226.798 321.044 211.411 321.044H128.326V321.044Z" fill="#231F20"/>
<path d="M212.719 406.717C212.719 411.367 208.943 415.139 204.289 415.139C199.635 415.139 195.859 411.367 195.859 406.717C195.859 402.066 199.635 401.094 204.289 401.094C208.943 401.094 212.742 402.066 212.742 406.717H212.719Z" fill="#231F20"/>
<path d="M191.491 394.618C193.681 394.618 195.456 392.844 195.456 390.655C195.456 388.467 193.681 386.693 191.491 386.693C189.301 386.693 187.525 388.467 187.525 390.655C187.525 392.844 189.301 394.618 191.491 394.618Z" fill="#231F20"/>
<path d="M216.899 394.19C219.089 394.19 220.865 392.416 220.865 390.228C220.865 388.04 219.089 386.266 216.899 386.266C214.709 386.266 212.934 388.04 212.934 390.228C212.934 392.416 214.709 394.19 216.899 394.19Z" fill="#231F20"/>
<path d="M72.4316 329.846L89.6708 333.405L92.1165 333.903C92.8526 334.046 93.1851 332.907 92.4252 332.765L75.1861 329.206L72.7403 328.708C72.0042 328.565 71.6718 329.704 72.4316 329.846Z" fill="#231F20"/>
<path d="M77.6088 300.522L94.848 321.329L97.2938 324.294C97.7924 324.888 98.6235 324.033 98.1248 323.464L80.8857 302.657L78.4399 299.691C77.9413 299.098 77.1102 299.952 77.6088 300.522Z" fill="#231F20"/>
<path d="M103.274 300.261L106.836 315.706L107.335 317.912C107.501 318.648 108.641 318.339 108.475 317.604L104.913 302.159L104.414 299.952C104.248 299.217 103.108 299.525 103.274 300.261Z" fill="#231F20"/>
</svg>
