<svg width="581" height="648" viewBox="0 0 581 648" fill="none" xmlns="http://www.w3.org/2000/svg">
<rect width="581" height="648" rx="16" fill="#E6F5CC"/>
<g clip-path="url(#clip0_4650_22208)">
<g clip-path="url(#clip1_4650_22208)">
<path d="M411.925 445.361L468.506 479.596C471.193 481.228 474.573 481.17 477.217 479.48L484.352 474.887C488.686 472.099 488.585 465.714 484.15 463.071L422.384 426.135L412.575 430.931C406.725 433.791 406.364 441.981 411.94 445.361H411.925Z" fill="#2A4850"/>
<path d="M308.023 511.851L102.053 391.207L245.866 319.3L451.822 439.959L308.023 511.851Z" fill="#2A4850"/>
<path d="M305.755 501.653L105.881 378.409L249.695 306.502L455.362 425.341L305.755 501.653Z" fill="#2B63A8"/>
<path d="M455.361 425.34L249.391 304.696V123.961L455.361 244.619V425.34Z" fill="#2B63A8"/>
<path d="M456.083 426.597L454.999 425.961L248.668 305.1V122.704L249.751 123.34L456.083 244.2V426.597ZM250.112 304.277L454.624 424.083V245.024L250.112 125.218V304.277Z" fill="#2B63A8"/>
<path d="M122.174 290.251L126.291 299.207C126.421 299.482 126.638 299.698 126.912 299.828L135.868 303.945C136.851 304.393 136.851 305.794 135.868 306.242L126.912 310.359C126.638 310.489 126.421 310.705 126.291 310.98L122.174 319.936C121.727 320.918 120.326 320.918 119.878 319.936L115.761 310.98C115.631 310.705 115.414 310.489 115.14 310.359L106.184 306.242C105.202 305.794 105.202 304.393 106.184 303.945L115.14 299.828C115.414 299.698 115.631 299.482 115.761 299.207L119.878 290.251C120.326 289.269 121.727 289.269 122.174 290.251Z" fill="white"/>
<path d="M121.713 290.526L125.483 298.716C125.902 299.626 126.335 300.146 127.26 300.58L131.925 302.718L134.294 303.815C134.641 303.974 135.32 304.133 135.58 304.408C136.909 305.78 133.529 306.719 132.951 306.993L127.751 309.377C126.87 309.781 126.191 310.041 125.714 310.951C124.963 312.352 124.371 313.869 123.706 315.314L122.594 317.726C122.363 318.246 122.146 319.055 121.785 319.503C120.5 321.048 119.719 318.289 119.416 317.61L117.033 312.425C116.614 311.515 116.31 310.402 115.386 309.882C114.158 309.189 112.771 308.683 111.486 308.091C110.012 307.412 108.337 306.863 106.95 306.011C106.473 305.722 105.347 305.534 106.517 304.408C106.835 304.104 107.571 303.917 107.976 303.743L113.71 301.1C114.765 300.609 115.79 300.334 116.354 299.251C117.177 297.662 117.856 295.986 118.607 294.354L119.849 291.653C120.008 291.306 120.788 289.067 121.713 290.541C122.088 291.133 123.027 290.584 122.652 289.992C121.67 288.446 119.979 288.894 119.257 290.353C118.419 292.057 117.668 293.805 116.874 295.539C116.383 296.593 115.892 298.659 114.866 299.381C113.667 300.219 111.991 300.71 110.677 301.316C109.16 302.01 107.47 302.602 106.026 303.454C104.581 304.307 104.61 305.939 106.026 306.777C107.441 307.614 109.16 308.221 110.677 308.915C111.991 309.521 113.682 310.012 114.866 310.85C115.892 311.572 116.383 313.624 116.874 314.692C117.668 316.411 118.419 318.174 119.257 319.878C119.965 321.323 121.698 321.799 122.652 320.239C123.388 319.026 123.88 317.581 124.457 316.296C125.18 314.721 125.772 312.916 126.682 311.442C127.289 310.46 128.834 310.099 129.831 309.637L135.363 307.094C136.562 306.546 137.848 305.433 136.75 304.018C136.374 303.541 135.739 303.339 135.204 303.079L132.2 301.692C130.625 300.97 128.632 300.392 127.202 299.395C126.682 299.034 126.509 298.399 126.263 297.85L124.833 294.758L122.652 290.021C122.363 289.385 121.424 289.934 121.713 290.569V290.526Z" fill="#2B63A8"/>
<path d="M121.698 290.526L125.468 298.717C125.887 299.627 126.335 300.161 127.259 300.58L131.925 302.718L134.294 303.816C134.641 303.975 135.32 304.133 135.58 304.408C136.865 305.766 133.528 306.69 132.951 306.965L127.75 309.348C126.869 309.752 126.19 310.027 125.699 310.923C124.948 312.324 124.356 313.84 123.691 315.285L122.579 317.697C122.348 318.217 122.131 319.026 121.77 319.474C120.499 320.991 119.733 318.246 119.43 317.582L117.047 312.396C116.628 311.486 116.324 310.374 115.4 309.839C114.172 309.146 112.785 308.64 111.5 308.048C110.026 307.369 108.351 306.82 106.964 305.968C106.502 305.679 105.39 305.506 106.531 304.393C106.849 304.09 107.6 303.902 107.99 303.729L113.724 301.086C114.779 300.594 115.804 300.306 116.368 299.222C117.191 297.633 117.87 295.958 118.621 294.325L119.863 291.624C119.979 291.379 120.08 290.974 120.253 290.772C120.499 290.469 120.557 288.706 121.698 290.526C122.074 291.133 123.041 290.57 122.666 289.963C121.684 288.403 119.965 288.851 119.242 290.324C118.405 292.029 117.653 293.776 116.859 295.51C116.368 296.564 115.877 298.63 114.866 299.338C113.667 300.176 111.991 300.667 110.676 301.273C109.16 301.967 107.47 302.559 106.025 303.411C104.581 304.263 104.595 305.925 106.025 306.762C107.47 307.615 109.16 308.207 110.676 308.9C111.991 309.507 113.681 309.998 114.866 310.836C115.891 311.544 116.382 313.609 116.859 314.664C117.653 316.383 118.405 318.145 119.242 319.85C119.965 321.308 121.698 321.785 122.666 320.211C123.402 318.997 123.894 317.553 124.471 316.267C125.194 314.693 125.786 312.887 126.696 311.414C127.303 310.446 128.848 310.07 129.83 309.622L135.363 307.08C136.576 306.531 137.862 305.39 136.75 303.975C136.374 303.483 135.738 303.296 135.204 303.036L132.199 301.649C130.625 300.927 128.617 300.349 127.201 299.352C126.681 298.991 126.508 298.37 126.263 297.821L124.833 294.73L122.651 289.992C122.348 289.342 121.38 289.905 121.684 290.555L121.698 290.526Z" fill="white"/>
<path d="M121.221 290.8L123.98 296.795C124.616 298.182 125.107 299.857 126.436 300.753C127.981 301.779 129.946 302.414 131.622 303.194C132.416 303.555 133.196 303.945 133.991 304.292C134.886 304.668 135.666 305.029 134.539 305.708C133.644 306.228 132.546 306.545 131.607 306.979C129.859 307.773 127.664 308.438 126.133 309.593C125.049 310.417 124.601 311.876 124.067 313.075C123.301 314.808 122.492 316.527 121.756 318.275C121.683 318.463 121.279 319.387 120.846 319.271C120.658 319.228 120.412 318.593 120.34 318.434C120.167 318.073 120.037 317.683 119.878 317.307C119.026 315.328 118.072 313.378 117.191 311.413C116.628 310.142 115.963 309.492 114.707 308.886C112.843 307.976 110.879 307.253 108.986 306.401C108.524 306.199 107.34 305.809 107.022 305.39C106.459 304.668 107.657 304.451 108.25 304.191C110.315 303.295 112.338 302.299 114.374 301.374C115.747 300.753 116.498 300.161 117.191 298.774C118.13 296.867 118.939 294.903 119.82 292.982C120.123 292.332 120.427 291.696 120.716 291.046C120.759 290.945 120.831 290.699 120.889 290.642C121.265 290.208 120.658 289.876 121.221 290.8C121.626 291.451 122.565 291.479 123.041 290.902C123.619 290.194 122.998 289.327 122.377 288.879C121.539 288.273 120.47 288.359 119.647 288.952C118.419 289.862 117.899 291.826 117.307 293.141C116.642 294.614 116.108 296.174 115.4 297.633C114.548 299.424 112.583 299.843 110.893 300.565C109.304 301.23 107.657 301.851 106.155 302.689C103.541 304.148 104.205 306.488 106.603 307.701C108.12 308.467 109.738 309.117 111.312 309.767C112.135 310.113 112.988 310.402 113.782 310.821C114.865 311.413 115.284 312.193 115.718 313.306C116.281 314.736 116.888 316.122 117.523 317.524C118.116 318.838 118.65 320.774 120.066 321.467C123.07 322.912 124.327 317.87 125.107 316.05C126.017 313.941 126.537 311.543 128.819 310.576C130.74 309.781 132.618 308.9 134.496 308.033C135.724 307.47 137.573 306.762 137.674 305.144C137.775 303.526 136.143 302.876 134.929 302.313C133.023 301.446 131.073 300.681 129.152 299.814C127.736 299.164 127.071 298.413 126.436 297.012C125.959 295.972 125.483 294.946 125.006 293.906L123.547 290.743C123.316 290.237 123.128 289.443 122.536 289.212C121.553 288.807 120.961 289.847 121.106 290.67C121.221 291.349 122.261 291.061 122.146 290.382C122.276 291.147 122.998 292.144 123.33 292.866L124.544 295.495C125.15 296.81 125.627 298.76 126.754 299.713C127.823 300.623 129.354 301.056 130.625 301.576C131.549 301.952 132.459 302.371 133.369 302.79C134.092 303.122 135.103 303.368 135.71 303.859C137.674 305.477 135.623 306.314 134.482 306.834C133.557 307.268 132.633 307.687 131.708 308.106C130.249 308.77 128.574 309.276 127.216 310.128C126.017 310.879 125.511 312.251 124.977 313.508C124.269 315.155 123.605 316.83 122.868 318.463C122.449 319.387 121.756 321.077 120.441 320.442C119.647 320.051 119.257 318.737 118.91 318C118.173 316.411 117.437 314.822 116.816 313.19C116.426 312.179 116.036 311.125 115.183 310.417C114.172 309.579 112.771 309.189 111.572 308.698C109.954 308.033 108.149 307.427 106.661 306.502C103.541 304.581 107.672 303.079 109.333 302.371C111.514 301.446 114.88 300.724 116.122 298.5C116.787 297.315 117.162 295.943 117.726 294.701C118.072 293.921 118.419 293.141 118.78 292.361C119.156 291.537 119.546 290.107 120.427 289.659C120.903 289.414 122.492 290.093 121.366 289.356C121.135 289.212 120.889 289.082 120.6 289.168C120.022 289.327 119.907 290.006 119.705 290.468C119.055 291.985 118.303 293.487 117.624 295.004C116.946 296.521 116.339 298.962 114.865 299.872C113.392 300.782 111.745 301.316 110.229 302.01C108.958 302.588 107.109 303.035 106.054 303.96C104.003 305.765 107.571 306.95 108.828 307.484C110.416 308.163 112.02 308.813 113.594 309.536C114.432 309.911 115.212 310.243 115.747 311.023C116.166 311.63 116.411 312.453 116.714 313.132C117.466 314.765 118.26 316.382 118.953 318.029C119.257 318.751 119.517 319.661 120.181 320.124C122.117 321.482 123.128 317.524 123.619 316.469C124.428 314.721 125.064 312.786 126.06 311.153C126.97 309.651 129.513 309.03 131.029 308.337C132.243 307.773 133.543 307.326 134.742 306.719C135.406 306.387 136.287 305.852 136.316 305C136.331 304.018 135.392 303.671 134.641 303.368C132.719 302.573 130.856 301.649 128.978 300.782C128.01 300.334 126.855 299.987 126.205 299.092C125.714 298.399 125.425 297.532 125.078 296.766L122.074 290.223C121.785 289.587 120.846 290.136 121.135 290.772L121.221 290.8Z" fill="#2B63A8"/>
<path d="M373.762 140.776L377.879 149.732C378.009 150.007 378.226 150.223 378.5 150.353L387.456 154.47C388.438 154.918 388.438 156.319 387.456 156.767L378.5 160.884C378.226 161.014 378.009 161.23 377.879 161.505L373.762 170.461C373.315 171.443 371.913 171.443 371.466 170.461L367.349 161.505C367.219 161.23 367.002 161.014 366.728 160.884L357.772 156.767C356.79 156.319 356.79 154.918 357.772 154.47L366.728 150.353C367.002 150.223 367.219 150.007 367.349 149.732L371.466 140.776C371.913 139.794 373.315 139.794 373.762 140.776Z" fill="white"/>
<path d="M373.301 141.051L377.071 149.241C377.49 150.151 377.923 150.671 378.848 151.104L383.513 153.242L385.882 154.34C386.229 154.499 386.908 154.658 387.168 154.932C388.497 156.304 385.117 157.243 384.539 157.518L379.339 159.901C378.458 160.306 377.779 160.566 377.302 161.476C376.551 162.877 375.959 164.394 375.294 165.838L374.182 168.25C373.951 168.77 373.734 169.579 373.373 170.027C372.087 171.573 371.307 168.814 371.004 168.135L368.621 162.949C368.202 162.039 367.898 160.927 366.974 160.407C365.746 159.713 364.359 159.208 363.074 158.616C361.6 157.937 359.925 157.388 358.538 156.536C358.061 156.247 356.935 156.059 358.105 154.932C358.422 154.629 359.159 154.441 359.564 154.268L365.298 151.624C366.353 151.133 367.378 150.859 367.942 149.775C368.765 148.186 369.444 146.511 370.195 144.878L371.437 142.177C371.596 141.831 372.376 139.592 373.301 141.065C373.676 141.657 374.615 141.108 374.24 140.516C373.257 138.97 371.567 139.418 370.845 140.877C370.007 142.582 369.256 144.33 368.462 146.063C367.971 147.117 367.479 149.183 366.454 149.905C365.255 150.743 363.579 151.234 362.265 151.841C360.748 152.534 359.058 153.126 357.614 153.979C356.169 154.831 356.198 156.463 357.614 157.301C359.029 158.139 360.748 158.746 362.265 159.439C363.579 160.046 365.269 160.537 366.454 161.375C367.479 162.097 367.971 164.148 368.462 165.217C369.256 166.936 370.007 168.698 370.845 170.403C371.553 171.847 373.286 172.324 374.24 170.764C374.976 169.55 375.468 168.106 376.045 166.82C376.768 165.246 377.36 163.44 378.27 161.967C378.876 160.985 380.422 160.623 381.419 160.161L386.951 157.619C388.15 157.07 389.436 155.958 388.338 154.542C387.962 154.065 387.327 153.863 386.792 153.603L383.788 152.216C382.213 151.494 380.22 150.916 378.79 149.92C378.27 149.559 378.096 148.923 377.851 148.374L376.421 145.283L374.24 140.545C373.951 139.909 373.012 140.458 373.301 141.094V141.051Z" fill="#2B63A8"/>
<path d="M373.286 141.064L377.056 149.254C377.475 150.164 377.923 150.698 378.847 151.117L383.513 153.255L385.882 154.353C386.229 154.512 386.907 154.671 387.167 154.945C388.453 156.303 385.116 157.227 384.538 157.502L379.338 159.885C378.457 160.29 377.778 160.564 377.287 161.46C376.536 162.861 375.944 164.378 375.279 165.822L374.167 168.234C373.936 168.755 373.719 169.563 373.358 170.011C372.087 171.528 371.321 168.783 371.018 168.119L368.635 162.933C368.216 162.023 367.912 160.911 366.988 160.376C365.76 159.683 364.373 159.178 363.088 158.585C361.614 157.906 359.939 157.357 358.552 156.505C358.09 156.216 356.978 156.043 358.119 154.931C358.436 154.627 359.188 154.44 359.578 154.266L365.312 151.623C366.367 151.132 367.392 150.843 367.956 149.759C368.779 148.17 369.458 146.495 370.209 144.863L371.451 142.161C371.567 141.916 371.668 141.511 371.841 141.309C372.087 141.006 372.145 139.244 373.286 141.064C373.661 141.67 374.629 141.107 374.254 140.5C373.271 138.94 371.552 139.388 370.83 140.861C369.992 142.566 369.241 144.314 368.447 146.047C367.956 147.102 367.465 149.167 366.453 149.875C365.254 150.713 363.579 151.204 362.264 151.811C360.748 152.504 359.058 153.096 357.613 153.948C356.169 154.801 356.183 156.462 357.613 157.3C359.058 158.152 360.748 158.744 362.264 159.438C363.579 160.044 365.269 160.535 366.453 161.373C367.479 162.081 367.97 164.147 368.447 165.201C369.241 166.92 369.992 168.682 370.83 170.387C371.552 171.846 373.286 172.322 374.254 170.748C374.99 169.535 375.481 168.09 376.059 166.804C376.782 165.23 377.374 163.424 378.284 161.951C378.89 160.983 380.436 160.608 381.418 160.16L386.951 157.617C388.164 157.069 389.45 155.927 388.337 154.512C387.962 154.021 387.326 153.833 386.792 153.573L383.787 152.186C382.213 151.464 380.205 150.886 378.789 149.889C378.269 149.528 378.096 148.907 377.85 148.358L376.42 145.267L374.239 140.529C373.936 139.879 372.968 140.442 373.271 141.092L373.286 141.064Z" fill="white"/>
<path d="M372.809 141.338L375.568 147.333C376.204 148.719 376.695 150.395 378.024 151.291C379.569 152.316 381.534 152.952 383.209 153.732C384.004 154.093 384.784 154.483 385.578 154.83C386.474 155.205 387.254 155.566 386.127 156.245C385.232 156.765 384.134 157.083 383.195 157.516C381.447 158.311 379.252 158.975 377.72 160.131C376.637 160.954 376.189 162.413 375.655 163.612C374.889 165.346 374.08 167.065 373.344 168.812C373.271 169 372.867 169.925 372.434 169.809C372.246 169.766 372 169.13 371.928 168.971C371.755 168.61 371.625 168.22 371.466 167.845C370.614 165.866 369.66 163.916 368.779 161.951C368.216 160.68 367.551 160.03 366.294 159.423C364.431 158.513 362.467 157.791 360.574 156.939C360.112 156.736 358.928 156.346 358.61 155.927C358.046 155.205 359.245 154.989 359.838 154.729C361.903 153.833 363.926 152.836 365.962 151.912C367.335 151.291 368.086 150.698 368.779 149.312C369.718 147.405 370.527 145.44 371.408 143.519C371.711 142.869 372.015 142.234 372.304 141.584C372.347 141.483 372.419 141.237 372.477 141.179C372.852 140.746 372.246 140.414 372.809 141.338C373.214 141.988 374.153 142.017 374.629 141.439C375.207 140.731 374.586 139.865 373.965 139.417C373.127 138.81 372.058 138.897 371.235 139.489C370.007 140.399 369.487 142.364 368.895 143.678C368.23 145.152 367.696 146.712 366.988 148.171C366.136 149.962 364.171 150.381 362.481 151.103C360.892 151.767 359.245 152.388 357.743 153.226C355.129 154.685 355.793 157.025 358.191 158.239C359.708 159.004 361.325 159.654 362.9 160.304C363.723 160.651 364.576 160.94 365.37 161.359C366.453 161.951 366.872 162.731 367.306 163.843C367.869 165.273 368.476 166.66 369.111 168.061C369.703 169.376 370.238 171.311 371.654 172.005C374.658 173.449 375.915 168.408 376.695 166.588C377.605 164.479 378.125 162.081 380.407 161.113C382.328 160.319 384.206 159.438 386.084 158.571C387.312 158.008 389.161 157.3 389.262 155.682C389.363 154.064 387.731 153.414 386.517 152.851C384.611 151.984 382.661 151.218 380.739 150.352C379.324 149.702 378.659 148.951 378.024 147.549C377.547 146.509 377.07 145.484 376.594 144.444L375.135 141.28C374.904 140.775 374.716 139.98 374.124 139.749C373.141 139.345 372.549 140.385 372.694 141.208C372.809 141.887 373.849 141.598 373.734 140.919C373.864 141.685 374.586 142.681 374.918 143.404L376.131 146.033C376.738 147.347 377.215 149.297 378.342 150.251C379.41 151.161 380.942 151.594 382.213 152.114C383.137 152.49 384.047 152.908 384.957 153.327C385.68 153.66 386.691 153.905 387.297 154.396C389.262 156.014 387.211 156.852 386.07 157.372C385.145 157.805 384.221 158.224 383.296 158.643C381.837 159.308 380.162 159.813 378.804 160.665C377.605 161.417 377.099 162.789 376.565 164.046C375.857 165.692 375.193 167.368 374.456 169C374.037 169.925 373.344 171.615 372.029 170.979C371.235 170.589 370.845 169.275 370.498 168.538C369.761 166.949 369.025 165.36 368.403 163.728C368.013 162.717 367.623 161.662 366.771 160.954C365.76 160.117 364.359 159.726 363.16 159.235C361.542 158.571 359.736 157.964 358.249 157.04C355.129 155.119 359.26 153.616 360.921 152.908C363.102 151.984 366.468 151.262 367.71 149.037C368.375 147.853 368.75 146.48 369.313 145.238C369.66 144.458 370.007 143.678 370.368 142.898C370.744 142.075 371.134 140.645 372.015 140.197C372.491 139.951 374.08 140.63 372.954 139.894C372.722 139.749 372.477 139.619 372.188 139.706C371.61 139.865 371.495 140.544 371.292 141.006C370.642 142.523 369.891 144.025 369.212 145.542C368.533 147.058 367.927 149.499 366.453 150.41C364.98 151.32 363.333 151.854 361.817 152.547C360.545 153.125 358.696 153.573 357.642 154.497C355.591 156.303 359.159 157.488 360.415 158.022C362.004 158.701 363.608 159.351 365.182 160.073C366.02 160.449 366.8 160.781 367.335 161.561C367.753 162.168 367.999 162.991 368.302 163.67C369.053 165.302 369.848 166.92 370.541 168.567C370.845 169.289 371.105 170.199 371.769 170.661C373.705 172.019 374.716 168.061 375.207 167.007C376.016 165.259 376.651 163.323 377.648 161.691C378.558 160.189 381.101 159.568 382.617 158.874C383.831 158.311 385.131 157.863 386.33 157.256C386.994 156.924 387.875 156.39 387.904 155.537C387.919 154.555 386.98 154.209 386.228 153.905C384.307 153.111 382.444 152.186 380.566 151.32C379.598 150.872 378.443 150.525 377.793 149.629C377.302 148.936 377.013 148.069 376.666 147.304L373.661 140.76C373.373 140.125 372.434 140.674 372.722 141.309L372.809 141.338Z" fill="#2B63A8"/>
<path d="M424.448 500.282L428.565 509.237C428.695 509.512 428.911 509.729 429.186 509.859L438.142 513.975C439.124 514.423 439.124 515.824 438.142 516.272L429.186 520.389C428.911 520.519 428.695 520.736 428.565 521.01L424.448 529.966C424 530.948 422.599 530.948 422.151 529.966L418.034 521.01C417.904 520.736 417.688 520.519 417.413 520.389L408.457 516.272C407.475 515.824 407.475 514.423 408.457 513.975L417.413 509.859C417.688 509.729 417.904 509.512 418.034 509.237L422.151 500.282C422.599 499.299 424 499.299 424.448 500.282Z" fill="white"/>
<path d="M423.986 500.556L427.756 508.746C428.175 509.656 428.609 510.176 429.533 510.61L434.199 512.747L436.568 513.845C436.915 514.004 437.593 514.163 437.853 514.437C439.182 515.81 435.802 516.749 435.224 517.023L430.024 519.407C429.143 519.811 428.464 520.071 427.988 520.981C427.236 522.382 426.644 523.899 425.98 525.343L424.867 527.756C424.636 528.276 424.42 529.085 424.059 529.532C422.773 531.078 421.993 528.319 421.69 527.64L419.306 522.454C418.887 521.544 418.584 520.432 417.659 519.912C416.432 519.219 415.045 518.713 413.759 518.121C412.286 517.442 410.61 516.893 409.224 516.041C408.747 515.752 407.62 515.564 408.79 514.437C409.108 514.134 409.845 513.946 410.249 513.773L415.984 511.13C417.038 510.638 418.064 510.364 418.627 509.281C419.451 507.692 420.13 506.016 420.881 504.384L422.123 501.683C422.282 501.336 423.062 499.097 423.986 500.57C424.362 501.163 425.301 500.614 424.925 500.021C423.943 498.476 422.253 498.924 421.531 500.383C420.693 502.087 419.942 503.835 419.147 505.568C418.656 506.623 418.165 508.688 417.139 509.411C415.94 510.248 414.265 510.74 412.95 511.346C411.434 512.04 409.744 512.632 408.299 513.484C406.855 514.336 406.884 515.969 408.299 516.806C409.715 517.644 411.434 518.251 412.95 518.944C414.265 519.551 415.955 520.042 417.139 520.88C418.165 521.602 418.656 523.653 419.147 524.722C419.942 526.441 420.693 528.203 421.531 529.908C422.238 531.352 423.972 531.829 424.925 530.269C425.662 529.056 426.153 527.611 426.731 526.326C427.453 524.751 428.045 522.946 428.955 521.472C429.562 520.49 431.108 520.129 432.104 519.667L437.637 517.124C438.836 516.575 440.121 515.463 439.023 514.047C438.648 513.571 438.012 513.369 437.478 513.109L434.473 511.722C432.899 511 430.905 510.422 429.475 509.425C428.955 509.064 428.782 508.428 428.536 507.879L427.106 504.788L424.925 500.05C424.636 499.415 423.697 499.964 423.986 500.599V500.556Z" fill="#2B63A8"/>
<path d="M423.973 500.57L427.743 508.76C428.162 509.67 428.61 510.205 429.535 510.624L434.2 512.762L436.569 513.859C436.916 514.018 437.595 514.177 437.855 514.452C439.141 515.809 435.804 516.734 435.226 517.008L430.026 519.392C429.145 519.796 428.466 520.071 427.975 520.966C427.223 522.367 426.631 523.884 425.967 525.329L424.854 527.741C424.623 528.261 424.407 529.07 424.046 529.518C422.774 531.034 422.009 528.29 421.706 527.625L419.322 522.44C418.903 521.53 418.6 520.417 417.675 519.883C416.448 519.19 415.061 518.684 413.775 518.092C412.302 517.413 410.626 516.864 409.24 516.012C408.777 515.723 407.665 515.549 408.806 514.437C409.124 514.134 409.875 513.946 410.265 513.773L416 511.129C417.054 510.638 418.08 510.349 418.643 509.266C419.467 507.677 420.145 506.001 420.897 504.369L422.139 501.668C422.254 501.422 422.356 501.018 422.529 500.816C422.774 500.512 422.832 498.75 423.973 500.57C424.349 501.177 425.317 500.613 424.941 500.007C423.959 498.447 422.24 498.894 421.518 500.368C420.68 502.072 419.929 503.82 419.134 505.554C418.643 506.608 418.152 508.674 417.141 509.381C415.942 510.219 414.266 510.71 412.952 511.317C411.435 512.01 409.745 512.603 408.301 513.455C406.856 514.307 406.871 515.968 408.301 516.806C409.745 517.658 411.435 518.251 412.952 518.944C414.266 519.551 415.956 520.042 417.141 520.88C418.166 521.587 418.658 523.653 419.134 524.708C419.929 526.426 420.68 528.189 421.518 529.893C422.24 531.352 423.973 531.829 424.941 530.254C425.678 529.041 426.169 527.597 426.747 526.311C427.469 524.736 428.061 522.931 428.971 521.457C429.578 520.49 431.124 520.114 432.106 519.666L437.638 517.124C438.852 516.575 440.137 515.434 439.025 514.018C438.649 513.527 438.014 513.339 437.479 513.079L434.475 511.693C432.9 510.97 430.892 510.393 429.477 509.396C428.957 509.035 428.784 508.414 428.538 507.865L427.108 504.774L424.927 500.036C424.623 499.386 423.656 499.949 423.959 500.599L423.973 500.57Z" fill="white"/>
<path d="M423.51 500.844L426.269 506.839C426.905 508.226 427.396 509.901 428.725 510.797C430.271 511.823 432.235 512.458 433.911 513.238C434.705 513.599 435.485 513.989 436.28 514.336C437.175 514.712 437.955 515.073 436.829 515.752C435.933 516.272 434.835 516.589 433.896 517.023C432.148 517.817 429.953 518.482 428.422 519.637C427.338 520.461 426.89 521.92 426.356 523.119C425.59 524.852 424.781 526.571 424.045 528.319C423.973 528.506 423.568 529.431 423.135 529.315C422.947 529.272 422.701 528.636 422.629 528.478C422.456 528.116 422.326 527.726 422.167 527.351C421.315 525.372 420.361 523.422 419.48 521.457C418.917 520.186 418.252 519.536 416.996 518.93C415.132 518.019 413.168 517.297 411.275 516.445C410.813 516.243 409.629 515.853 409.311 515.434C408.748 514.712 409.947 514.495 410.539 514.235C412.604 513.339 414.627 512.343 416.663 511.418C418.036 510.797 418.787 510.205 419.48 508.818C420.419 506.911 421.228 504.947 422.109 503.026C422.413 502.376 422.716 501.74 423.005 501.09C423.048 500.989 423.12 500.743 423.178 500.686C423.554 500.252 422.947 499.92 423.51 500.844C423.915 501.494 424.854 501.523 425.33 500.946C425.908 500.238 425.287 499.371 424.666 498.923C423.828 498.317 422.759 498.403 421.936 498.995C420.708 499.906 420.188 501.87 419.596 503.185C418.931 504.658 418.397 506.218 417.689 507.677C416.837 509.468 414.872 509.887 413.182 510.609C411.593 511.274 409.947 511.895 408.444 512.733C405.83 514.192 406.494 516.532 408.892 517.745C410.409 518.511 412.027 519.161 413.601 519.811C414.424 520.157 415.277 520.446 416.071 520.865C417.155 521.457 417.573 522.237 418.007 523.35C418.57 524.78 419.177 526.166 419.812 527.568C420.405 528.882 420.939 530.818 422.355 531.511C425.359 532.956 426.616 527.914 427.396 526.094C428.306 523.985 428.826 521.587 431.108 520.62C433.03 519.825 434.907 518.944 436.785 518.077C438.013 517.514 439.862 516.806 439.963 515.188C440.064 513.57 438.432 512.92 437.219 512.357C435.312 511.49 433.362 510.725 431.441 509.858C430.025 509.208 429.361 508.457 428.725 507.056C428.248 506.016 427.772 504.99 427.295 503.95L425.836 500.787C425.605 500.281 425.417 499.487 424.825 499.256C423.843 498.851 423.25 499.891 423.395 500.714C423.51 501.393 424.55 501.104 424.435 500.426C424.565 501.191 425.287 502.188 425.619 502.91L426.833 505.539C427.439 506.854 427.916 508.804 429.043 509.757C430.112 510.667 431.643 511.1 432.914 511.62C433.838 511.996 434.748 512.415 435.659 512.834C436.381 513.166 437.392 513.412 437.999 513.903C439.963 515.52 437.912 516.358 436.771 516.878C435.846 517.312 434.922 517.731 433.997 518.149C432.538 518.814 430.863 519.32 429.505 520.172C428.306 520.923 427.8 522.295 427.266 523.552C426.558 525.199 425.894 526.874 425.157 528.507C424.738 529.431 424.045 531.121 422.73 530.485C421.936 530.095 421.546 528.781 421.199 528.044C420.462 526.455 419.726 524.866 419.105 523.234C418.715 522.223 418.325 521.168 417.472 520.461C416.461 519.623 415.06 519.233 413.861 518.742C412.243 518.077 410.438 517.471 408.95 516.546C405.83 514.625 409.961 513.123 411.622 512.415C413.803 511.49 417.169 510.768 418.411 508.544C419.076 507.359 419.451 505.987 420.015 504.745C420.361 503.965 420.708 503.185 421.069 502.405C421.445 501.581 421.835 500.151 422.716 499.703C423.193 499.458 424.781 500.137 423.655 499.4C423.424 499.255 423.178 499.125 422.889 499.212C422.311 499.371 422.196 500.05 421.994 500.512C421.344 502.029 420.592 503.531 419.914 505.048C419.235 506.565 418.628 509.006 417.155 509.916C415.681 510.826 414.034 511.36 412.518 512.054C411.247 512.632 409.398 513.079 408.343 514.004C406.292 515.809 409.86 516.994 411.117 517.528C412.706 518.207 414.309 518.857 415.883 519.58C416.721 519.955 417.501 520.287 418.036 521.067C418.455 521.674 418.7 522.497 419.004 523.176C419.755 524.809 420.549 526.426 421.242 528.073C421.546 528.795 421.806 529.705 422.47 530.168C424.406 531.525 425.417 527.568 425.908 526.513C426.717 524.765 427.353 522.83 428.349 521.197C429.259 519.695 431.802 519.074 433.318 518.381C434.532 517.817 435.832 517.369 437.031 516.763C437.695 516.431 438.576 515.896 438.605 515.044C438.62 514.062 437.681 513.715 436.93 513.412C435.008 512.617 433.145 511.693 431.267 510.826C430.299 510.378 429.144 510.031 428.494 509.136C428.003 508.442 427.714 507.576 427.367 506.81L424.363 500.267C424.074 499.631 423.135 500.18 423.424 500.816L423.51 500.844Z" fill="#2B63A8"/>
<path d="M447.011 425.341L241.055 304.697V123.962L447.011 244.62V425.341Z" fill="white"/>
<path d="M449.192 421.6L428.637 409.567L379.308 380.677L319.997 345.937L268.486 315.762L251.614 305.881C248.957 304.321 246.342 302.588 243.598 301.187C243.482 301.129 243.366 301.042 243.236 300.984L245.389 304.726V286.669C245.389 272.34 245.389 257.996 245.389 243.667V131.285C245.389 128.96 245.533 126.591 245.389 124.28C245.389 124.178 245.389 124.077 245.389 123.976L238.874 127.717L259.429 139.75L308.759 168.64L368.07 203.38L419.58 233.555L436.452 243.436C439.11 244.996 441.724 246.729 444.469 248.13C444.584 248.188 444.7 248.275 444.83 248.333L442.678 244.591V262.648C442.678 276.977 442.678 291.321 442.678 305.65V403.096C442.678 410.39 442.446 417.714 442.678 425.009C442.678 425.11 442.678 425.211 442.678 425.312C442.678 430.888 451.345 430.902 451.345 425.312V248.853C451.345 245.964 451.908 242.641 449.091 240.807C447.3 239.651 445.393 238.64 443.559 237.571L412.098 219.139L363.895 190.9L311.489 160.204L267.432 134.405L244.262 120.827L243.236 120.221C240.405 118.559 236.722 120.683 236.722 123.962V201.907C236.722 221.754 236.722 241.587 236.722 261.434V300.464C236.722 303.353 236.158 306.676 238.975 308.51C240.766 309.666 242.673 310.677 244.508 311.746L275.969 330.178L324.171 358.417L376.578 389.113L420.635 414.912L443.804 428.49L444.83 429.096C449.654 431.928 454.017 424.431 449.207 421.614L449.192 421.6Z" fill="#2B63A8"/>
<path d="M301.985 496.019L96.0293 375.375L239.829 303.468L445.784 424.127L301.985 496.019Z" fill="white"/>
<path d="M302.808 494.618L282.253 482.586L232.923 453.696L173.613 418.956L122.102 388.78L105.23 378.9L99.9435 375.809C99.0623 375.289 98.1523 374.595 97.1989 374.205C97.0689 374.148 96.9534 374.061 96.8378 374.003V376.805L111.153 369.641L145.532 352.451L186.96 331.737L222.913 313.753L234.801 307.816C236.578 306.921 238.774 306.184 240.392 305.029C240.464 304.971 240.55 304.942 240.637 304.913H238.99L259.545 316.946L308.875 345.835L368.186 380.576L419.696 410.751L436.568 420.631L441.855 423.723C442.736 424.243 443.646 424.936 444.599 425.326C444.729 425.384 444.845 425.47 444.961 425.528V422.726L430.646 429.891L396.267 447.08L354.839 467.794L318.885 485.778L306.997 491.715C305.163 492.639 303.169 493.434 301.407 494.503C301.335 494.546 301.248 494.589 301.161 494.618C299.284 495.557 300.93 498.359 302.808 497.421L317.123 490.256L351.502 473.066L392.93 452.352L428.883 434.368L440.772 428.432C442.606 427.522 444.614 426.713 446.362 425.644C446.434 425.6 446.521 425.557 446.607 425.528C447.72 424.965 447.604 423.304 446.607 422.726L431.758 414.03L394.779 392.363L346.287 363.949L297.218 335.204L258.448 312.497L246.285 305.375C244.494 304.321 242.703 303.093 240.825 302.183C239.236 301.417 237.156 303.006 235.726 303.714L222.48 310.33L176.762 333.196L126.695 358.229L96.65 373.252L95.2055 373.974C94.0933 374.538 94.2088 376.199 95.2055 376.777L115.761 388.809L165.09 417.699L224.401 452.439L275.912 482.615C284.203 487.468 292.379 492.61 300.815 497.204C300.93 497.276 301.046 497.348 301.176 497.406C302.981 498.461 304.628 495.658 302.822 494.604L302.808 494.618Z" fill="#2B63A8"/>
<path d="M319.521 475.074L136.938 369.309L242.14 316.7L424.724 422.466L319.521 475.074Z" fill="#E0EBC5"/>
<path d="M319.795 474.597L301.58 464.053L257.855 438.731L205.16 408.209L159.63 381.832L144.694 373.18L139.984 370.449C139.277 370.045 138.323 369.207 137.514 369.019C137.413 368.991 137.298 368.889 137.211 368.846V369.785L156.452 360.165L196.898 339.942L233.227 321.77L241.763 317.494C241.922 317.422 242.255 317.321 242.37 317.191C242.341 317.22 241.807 316.974 241.966 317.22C242.153 317.523 242.962 317.798 243.251 317.971L261.466 328.53L294.589 347.728L335.164 371.229L375.235 394.443L407.288 413.004L423.697 422.509L424.434 422.928V421.989L388.827 439.8L332.145 468.141L319.232 474.597C318.611 474.915 319.159 475.84 319.781 475.536L355.387 457.726L412.069 429.385L424.983 422.928C425.359 422.74 425.315 422.191 424.983 421.989L413.499 415.33L384.393 398.473L345.233 375.78L304.05 351.931L268.342 331.246L246.126 318.375C245.042 317.754 243.656 316.555 242.442 316.238C241.229 315.92 239.163 317.567 238.167 318.058L206.865 333.716L164.801 354.748L137.991 368.153L136.662 368.817C136.287 369.005 136.33 369.554 136.662 369.756L154.877 380.301L198.602 405.623L251.297 436.145L296.828 462.521L311.764 471.174C314.118 472.532 316.473 474.207 318.943 475.334C319.044 475.377 319.145 475.45 319.246 475.507C319.853 475.854 320.402 474.915 319.795 474.569V474.597Z" fill="#2B63A8"/>
<path d="M406.926 250.831L296.35 188.4C292.45 186.19 287.654 186.291 283.855 188.66L266.449 199.48L275.376 289.963L314.406 312.757L306.606 332.012L342.372 329.08L402.506 376.488L410.985 370.118C416.286 366.145 419.392 359.905 419.392 353.275V272.499C419.392 263.572 414.654 255.324 406.941 250.817L406.926 250.831Z" fill="#2B63A8"/>
<path d="M402.492 376.719L402.376 376.632L342.3 329.267L306.318 332.214L306.433 331.939L314.176 312.829L275.203 290.064V289.977L266.262 199.378L266.363 199.321L283.769 188.501C287.626 186.103 292.494 186.002 296.452 188.241L407.028 250.672C414.756 255.194 419.566 263.557 419.566 272.513V353.289C419.566 359.934 416.388 366.275 411.087 370.262L402.506 376.719H402.492ZM342.415 328.892L342.473 328.935L402.506 376.257L410.87 369.973C416.085 366.044 419.205 359.804 419.205 353.275V272.499C419.205 263.673 414.467 255.425 406.854 250.976L296.278 188.545C292.436 186.378 287.712 186.479 283.971 188.805L266.666 199.566L275.564 289.847L314.652 312.67L314.594 312.814L306.895 331.795L342.43 328.877L342.415 328.892Z" fill="#2B63A8"/>
<path d="M402.768 266.837L282.067 196.331C274.295 191.795 264.545 197.4 264.545 206.385V295.365C264.545 299.511 266.741 303.339 270.323 305.419L303.575 324.847L295.775 344.102L331.541 341.17L391.039 375.925C398.811 380.46 408.561 374.856 408.561 365.871V276.89C408.561 272.745 406.365 268.917 402.783 266.837H402.768Z" fill="#DFFBFF"/>
<path d="M403.042 266.374L390.229 258.892L359.78 241.11L323.812 220.107L293.968 202.672L285.172 197.53C283.539 196.576 281.893 195.464 280.087 194.843C272.214 192.113 264.14 198.281 263.995 206.399C263.966 208.421 263.995 210.443 263.995 212.466V285.543C263.995 288.634 263.995 291.711 263.995 294.802C264.01 299.829 266.451 303.815 270.755 306.329L300.498 323.706L303.285 325.338L303.04 324.732L295.24 343.987C295.11 344.305 295.442 344.695 295.76 344.666L318.236 342.817L330.095 341.849C330.471 341.82 330.846 341.777 331.222 341.762C331.641 341.733 331.381 341.719 331.28 341.69C331.742 341.849 332.204 342.225 332.609 342.47L377.908 368.919C382.415 371.548 386.864 374.581 391.573 376.863C396.903 379.449 403.461 377.716 406.885 372.877C408.632 370.407 409.08 367.604 409.08 364.672V279.519C409.08 277.8 409.167 276.052 408.806 274.362C408.098 270.968 405.96 268.165 403.028 266.36C402.435 265.999 401.887 266.923 402.479 267.299C406.365 269.682 407.982 273.582 407.982 277.959V361.927C407.982 363.227 408.011 364.542 407.982 365.842C407.867 372.342 402.291 377.629 395.719 376.936C393.205 376.676 391.197 375.419 389.088 374.191L380.956 369.439L334.92 342.542C333.938 341.964 332.638 340.838 331.496 340.636C330.875 340.534 330.037 340.751 329.416 340.809L324.216 341.228L297.638 343.409L295.731 343.568L296.251 344.247L304.051 324.992C304.138 324.775 303.993 324.486 303.805 324.385L276.967 308.712C272.734 306.242 267.476 304.075 265.7 299.135C264.761 296.535 265.05 293.502 265.05 290.772V208.219C265.05 207.612 265.05 207.02 265.05 206.413C265.122 202.123 267.476 198.237 271.377 196.36C275.277 194.482 279.422 195.435 283.063 197.559L290.054 201.646L317.095 217.449L352.196 237.947L384.119 256.595L401.641 266.836L402.45 267.313C403.057 267.66 403.606 266.735 402.999 266.374H403.042Z" fill="#2B63A8"/>
<path d="M225.875 379.015L297.377 422.278L350.954 393.821L281.835 352.509L225.875 379.015Z" fill="#2A4850"/>
<path d="M217.584 378.25L289.072 421.527L342.663 393.07L273.544 351.758L217.584 378.25Z" fill="#B0CDD0"/>
<path d="M217.309 378.727L236.39 390.283L271.347 411.445L284.333 419.303L287.829 421.412C288.349 421.73 288.753 422.12 289.36 422.004C290.082 421.86 290.949 421.166 291.584 420.82L297.131 417.873L314.061 408.874L331.9 399.398C335.396 397.549 338.993 395.816 342.402 393.822C342.575 393.721 342.748 393.634 342.907 393.548C343.268 393.36 343.239 392.811 342.907 392.609L323.652 381.096L289.114 360.454L276.995 353.203C275.94 352.567 274.25 350.964 272.979 351.426C269.7 352.625 266.537 354.474 263.388 355.976L245.924 364.253L228.2 372.646C224.748 374.278 221.194 375.795 217.8 377.572C217.626 377.658 217.453 377.731 217.294 377.817C216.658 378.121 217.207 379.045 217.843 378.756L241.446 367.576L272.098 353.059C272.517 352.856 273.051 352.697 273.427 352.423C274.034 352.004 273.572 352.611 273.283 352.25C273.644 352.683 274.554 353.015 275.03 353.304L285.416 359.515L319.218 379.724L334.154 388.651L339.238 391.684C340.062 392.175 341.058 393.042 341.983 393.331C342.113 393.374 342.243 393.49 342.358 393.562V392.623L318.437 405.32L289.562 420.646C289.345 420.762 288.984 420.878 288.811 421.051C289.23 420.632 289.432 421.354 289.071 420.921C288.58 420.3 287.251 419.823 286.572 419.419L275.002 412.413L240.738 391.67L225.947 382.714C223.404 381.168 220.876 379.319 218.19 378.019C218.06 377.962 217.944 377.875 217.829 377.803C217.236 377.442 216.687 378.381 217.28 378.742L217.309 378.727Z" fill="#2B63A8"/>
<path d="M266.812 396.407L275.277 401.232L307.937 379.723L299.458 374.884L266.812 396.407Z" fill="#DC6F5D"/>
<path d="M266.537 396.869L275.002 401.708C275.161 401.795 275.392 401.809 275.551 401.708L304.123 382.872L308.196 380.185C308.529 379.969 308.572 379.463 308.196 379.246L299.732 374.407C299.573 374.321 299.342 374.306 299.183 374.407L270.611 393.244L266.537 395.93C265.959 396.306 266.494 397.245 267.086 396.869L282.658 386.599L293.881 379.203L297.738 376.661C298.143 376.401 299.414 375.852 299.645 375.404C299.775 375.144 299.269 375.404 299.241 375.375C299.356 375.52 299.674 375.621 299.833 375.722L302.635 377.325L307.647 380.185V379.246L292.076 389.517L280.852 396.913L276.995 399.455C276.591 399.715 275.32 400.264 275.089 400.712C274.959 400.972 275.464 400.712 275.493 400.741C275.378 400.596 275.06 400.495 274.901 400.394L272.099 398.79L267.086 395.93C266.479 395.584 265.931 396.523 266.537 396.869Z" fill="#2B63A8"/>
<path d="M254.217 390.138L262.999 394.949L286.14 380.619L277.358 375.809L254.217 390.138Z" fill="#9CB2DB"/>
<path d="M253.942 390.601L262.724 395.411C262.897 395.497 263.1 395.512 263.273 395.411L286.414 381.081C286.746 380.879 286.775 380.345 286.414 380.142L277.631 375.332C277.458 375.246 277.256 375.231 277.082 375.332L253.942 389.662C253.349 390.023 253.898 390.962 254.49 390.601L267.144 382.757L275.147 377.802C275.797 377.398 276.793 377.008 277.328 376.444C277.429 376.329 277.906 376.199 277.357 376.271C276.851 376.343 277.689 376.603 277.978 376.762L285.865 381.081V380.142L273.211 387.986L265.209 392.941C264.559 393.345 263.562 393.735 263.027 394.298C262.926 394.414 262.45 394.544 262.998 394.472C263.504 394.4 262.666 394.14 262.377 393.981L254.49 389.662C253.884 389.329 253.335 390.268 253.942 390.601Z" fill="#2B63A8"/>
<path d="M277.459 402.662L285.909 407.328L303.879 395.786L295.428 391.121L277.459 402.662Z" fill="#9CB2DB"/>
<path d="M277.184 403.124L285.634 407.79C285.793 407.877 286.01 407.891 286.183 407.79L304.152 396.263C304.485 396.046 304.528 395.526 304.152 395.324L295.702 390.658C295.543 390.572 295.327 390.557 295.153 390.658L277.184 402.185C276.606 402.561 277.14 403.5 277.733 403.124L295.702 391.597H295.153L303.603 396.263V395.324L285.634 406.851H286.183L277.733 402.185C277.126 401.853 276.577 402.778 277.184 403.124Z" fill="#2B63A8"/>
<path d="M208.18 465.324L304.86 523.826L377.301 485.359L283.857 429.486L208.18 465.324Z" fill="#2A4850"/>
<path d="M207.168 457.22L303.848 515.722L376.289 477.256L282.845 421.397L207.168 457.22Z" fill="#B0CDD0"/>
<path d="M206.893 457.697L232.605 473.254L279.782 501.798L297.463 512.501L302.287 515.419C302.865 515.766 303.457 516.315 304.136 516.185C305.147 515.983 306.39 514.986 307.285 514.509L314.912 510.465L337.648 498.389L375.899 478.079L376.578 477.718C376.939 477.53 376.91 476.981 376.578 476.779L350.678 461.294L303.992 433.386L287.611 423.593C286.311 422.813 285.011 422.033 283.711 421.267C283.104 420.906 282.859 420.834 282.194 421.094C277.789 422.798 273.527 425.196 269.252 427.218L245.562 438.442C232.908 444.437 220.124 450.229 207.557 456.441C207.341 456.542 207.124 456.643 206.907 456.744C206.272 457.047 206.821 457.972 207.456 457.683L239.437 442.53L280.923 422.885C281.487 422.611 282.122 422.394 282.657 422.062C283.364 421.614 282.859 422.177 282.599 421.859C283.075 422.452 284.347 422.899 284.997 423.289L299.138 431.74L344.958 459.142L365.007 471.131L371.825 475.205C373.01 475.912 374.266 476.909 375.552 477.429C375.711 477.501 375.87 477.617 376.029 477.718V476.779L343.788 493.896L304.7 514.654C304.425 514.798 303.847 514.971 303.631 515.217C303.992 514.784 304.295 515.535 303.804 515.044C302.966 514.191 301.421 513.599 300.409 512.992L284.91 503.618L238.397 475.479C228.257 469.34 218.247 462.869 207.933 457.047C207.774 456.961 207.615 456.845 207.442 456.758C206.85 456.397 206.301 457.336 206.893 457.697Z" fill="#2B63A8"/>
<path d="M179.694 378.034C181.268 378.814 183.146 378.699 184.619 377.731L231.291 347.079L233.631 343.222L238.311 295.799C238.513 293.777 237.459 291.827 235.653 290.902L231.681 288.851C231.681 288.678 230.193 289.212 230.034 289.299L215.618 296.796L213.365 299.078L210.331 305.159C209.883 306.069 209.176 306.821 208.294 307.326L176.313 325.888C174.724 326.812 173.742 328.517 173.742 330.351C173.742 339.206 174.118 368.11 174.19 374.177C174.19 374.871 174.594 375.492 175.216 375.795L179.694 378.02V378.034Z" fill="#2B63A8"/>
<path d="M179.419 378.496C182.684 379.883 184.908 378.193 187.465 376.517L197.187 370.132L222.884 353.261L230.742 348.104C231.638 347.512 231.826 347.28 232.461 346.24C233.27 344.897 234.122 343.871 234.281 342.355L236.78 317.004C237.474 309.969 238.499 302.877 238.875 295.799C239.019 293.097 237.546 291.263 235.263 290.078C234.267 289.573 233.27 288.937 232.244 288.518C231.45 288.186 230.901 288.36 230.063 288.721C226.539 290.194 223.173 292.274 219.793 294.036C218.377 294.773 216.731 295.394 215.416 296.304C213.495 297.648 212.643 299.381 211.646 301.374C210.649 303.368 209.898 305.679 208.006 306.878C207.255 307.355 206.46 307.774 205.695 308.221L180.936 322.594C178.798 323.836 175.476 325.122 174.104 327.303C172.731 329.484 173.208 332.157 173.222 334.497C173.237 337.299 173.266 340.087 173.295 342.889C173.352 349.606 173.439 356.337 173.511 363.054C173.54 365.597 173.569 368.153 173.612 370.696C173.627 372.285 173.179 374.87 174.523 376.011C175.866 377.153 177.859 377.745 179.419 378.525C180.04 378.828 180.589 377.904 179.968 377.586C178.408 376.82 175.173 375.997 174.739 374.047C174.393 372.487 174.696 370.479 174.667 368.89C174.595 363.025 174.523 357.161 174.465 351.311C174.407 345.46 174.335 339.581 174.306 333.717C174.291 330.972 173.945 328.069 176.617 326.364C177.267 325.96 177.946 325.599 178.61 325.209L202.112 311.573C204.265 310.33 206.475 309.16 208.569 307.831C212.354 305.419 212.238 299.887 215.936 297.287C217.077 296.492 218.507 295.943 219.75 295.308L226.495 291.797C227.752 291.147 228.994 290.396 230.294 289.818C231.031 289.486 231.306 289.371 231.883 289.587C232.981 289.977 234.093 290.714 235.133 291.263C238.456 293.04 237.762 296.116 237.459 299.15L236.275 311.096L233.53 338.917L233.183 342.384C233.154 342.615 233.183 342.932 233.111 343.149C233.024 343.409 233.126 342.918 232.837 343.554C232.403 344.449 231.71 345.951 231.046 346.645C229.919 347.815 227.998 348.653 226.654 349.534L185.024 376.878C183.493 377.889 181.861 378.38 180.012 377.586C179.376 377.311 178.827 378.25 179.463 378.525L179.419 378.496Z" fill="#2B63A8"/>
<path d="M184.417 377.99L237.126 348.753C238.195 348.161 238.845 347.049 238.845 345.821V294.975C238.845 292.447 236.158 290.829 233.919 292.014L220.514 299.149C219.908 299.482 219.402 299.987 219.099 300.608L215.531 307.73C215.242 308.307 214.78 308.799 214.216 309.131L180.849 328.487C179.823 329.079 179.188 330.177 179.188 331.376C179.188 338.541 179.188 363.891 179.433 375.144C179.491 377.658 182.206 379.218 184.402 377.99H184.417Z" fill="#6CA9AE"/>
<path d="M184.691 378.452L226.35 355.34L235.306 350.371C237.271 349.273 239.221 348.407 239.38 345.778C239.51 343.597 239.38 341.372 239.38 339.176V298.095C239.38 295.726 239.813 292.866 237.3 291.537C235.61 290.641 234.107 291.306 232.591 292.115L226.625 295.293C223.75 296.824 219.763 298.066 218.232 301.128C216.889 303.83 215.834 307.571 213.133 309.145L190.31 322.391C187.277 324.154 184.229 325.887 181.195 327.678C179.982 328.4 178.957 329.238 178.697 330.741C178.335 332.777 178.639 335.103 178.639 337.169C178.639 343.828 178.653 350.487 178.697 357.146C178.711 360.598 178.74 364.051 178.769 367.488C178.798 370.132 178.465 373.136 178.942 375.751C179.419 378.365 182.308 379.579 184.662 378.467C185.298 378.163 184.749 377.239 184.113 377.528C181.658 378.683 180.054 376.777 179.939 374.494C179.867 373.136 179.895 371.779 179.867 370.435C179.823 367.301 179.794 364.166 179.78 361.046C179.737 354.401 179.708 347.757 179.708 341.112C179.708 338.599 179.708 336.1 179.708 333.586C179.708 331.694 179.592 329.946 181.412 328.79C183.882 327.216 186.497 325.844 189.039 324.37L212.064 311.009C212.815 310.575 213.595 310.157 214.347 309.68C215.517 308.943 216.008 307.961 216.6 306.776C217.539 304.913 218.391 302.977 219.402 301.157C220.153 299.8 221.324 299.323 222.624 298.629C226.321 296.665 229.962 294.57 233.717 292.721C235.812 291.681 238.123 292.519 238.267 295.09C238.311 295.798 238.267 296.521 238.267 297.228C238.267 305.491 238.267 313.753 238.267 322.001V344.767C238.267 346.153 238.166 347.381 236.808 348.262C236.476 348.479 236.115 348.652 235.768 348.84L228.517 352.856L185.153 376.907L184.113 377.484C183.507 377.817 184.056 378.755 184.662 378.423L184.691 378.452Z" fill="#2B63A8"/>
<path d="M200.148 359.703L163.992 380.634C161.681 381.977 158.777 380.301 158.777 377.629V203.481C158.777 200.26 160.496 197.299 163.27 195.681L197.129 176.079C200.465 174.143 204.64 176.556 204.64 180.412V351.917C204.64 355.138 202.921 358.1 200.148 359.717V359.703Z" fill="#DFFBFF"/>
<path d="M199.874 359.24L180.864 370.248L168.572 377.369C166.665 378.481 162.88 381.63 160.612 380.07C159.182 379.088 159.312 377.571 159.312 376.098V234.003C159.312 223.906 159.211 213.794 159.312 203.697C159.356 199.985 161.378 197.399 164.455 195.608L173.931 190.119L196.696 176.931C198.444 175.92 200.394 175.443 202.214 176.743C203.499 177.668 204.048 179.069 204.092 180.6C204.121 181.655 204.092 182.709 204.092 183.763V351.05C204.092 354.416 202.849 357.363 199.859 359.212C199.267 359.573 199.816 360.512 200.408 360.151C203.601 358.172 205.161 354.994 205.175 351.31C205.175 349.952 205.175 348.595 205.175 347.251V188.559C205.175 185.844 205.291 183.113 205.175 180.412C204.987 175.732 200.249 173.695 196.407 175.862C193.359 177.581 190.355 179.372 187.321 181.12L163.747 194.771C160.425 196.692 158.316 199.61 158.229 203.553C158.215 204.478 158.229 205.402 158.229 206.341V376.863C158.229 379.102 159.211 381.283 161.739 381.601C164.065 381.905 166.809 379.622 168.687 378.539L194.645 363.502L200.408 360.165C201.015 359.818 200.466 358.879 199.859 359.226L199.874 359.24Z" fill="#2B63A8"/>
<path d="M203.456 360.945L167.301 381.876C164.989 383.219 162.086 381.544 162.086 378.871V204.723C162.086 201.502 163.805 198.541 166.578 196.923L200.437 177.321C203.774 175.386 207.949 177.798 207.949 181.655V353.159C207.949 356.381 206.23 359.342 203.456 360.96V360.945Z" fill="#DFFBFF"/>
<path d="M203.182 360.469L184.173 371.476L171.88 378.597C169.974 379.709 166.189 382.858 163.921 381.298C162.491 380.316 162.621 378.799 162.621 377.326V235.246C162.621 225.149 162.52 215.037 162.621 204.94C162.664 201.228 164.687 198.642 167.763 196.851L177.239 191.362L200.005 178.174C201.752 177.163 203.702 176.686 205.522 177.986C206.808 178.91 207.357 180.312 207.4 181.843C207.429 182.897 207.4 183.952 207.4 185.006V352.293C207.4 355.659 206.158 358.605 203.168 360.454C202.576 360.815 203.125 361.754 203.717 361.393C206.909 359.414 208.469 356.236 208.484 352.553C208.484 351.195 208.484 349.837 208.484 348.494V189.802C208.484 187.086 208.599 184.356 208.484 181.655C208.296 176.975 203.558 174.938 199.716 177.105C196.668 178.824 193.663 180.615 190.63 182.363L167.056 196.013C163.733 197.934 161.624 200.852 161.538 204.796C161.523 205.72 161.538 206.645 161.538 207.584V378.106C161.538 380.345 162.52 382.526 165.048 382.844C167.373 383.147 170.118 380.865 171.996 379.782L197.953 364.744L203.717 361.408C204.324 361.061 203.775 360.122 203.168 360.469H203.182Z" fill="#2B63A8"/>
<path d="M207.948 361.812L171.793 382.743C169.482 384.086 166.578 382.41 166.578 379.738V205.59C166.578 202.369 168.297 199.407 171.07 197.79L204.929 178.188C208.266 176.252 212.441 178.665 212.441 182.521V354.026C212.441 357.247 210.722 360.208 207.948 361.826V361.812Z" fill="#DFFBFF"/>
<path d="M207.675 361.349L188.665 372.356L176.372 379.478C174.466 380.59 170.681 383.739 168.413 382.179C166.983 381.197 167.113 379.68 167.113 378.207V236.126C167.113 226.029 167.012 215.918 167.113 205.821C167.157 202.108 169.179 199.523 172.256 197.732L181.731 192.243L204.497 179.054C206.245 178.043 208.195 177.567 210.015 178.867C211.3 179.791 211.849 181.192 211.893 182.723C211.921 183.778 211.893 184.832 211.893 185.887V353.174C211.893 356.539 210.65 359.486 207.66 361.335C207.068 361.696 207.617 362.635 208.209 362.274C211.401 360.295 212.961 357.117 212.976 353.434C212.976 352.076 212.976 350.718 212.976 349.375V190.668C212.976 187.952 213.091 185.222 212.976 182.521C212.788 177.841 208.05 175.804 204.208 177.971C201.16 179.69 198.155 181.481 195.122 183.229L171.548 196.879C168.225 198.801 166.117 201.718 166.03 205.662C166.015 206.586 166.03 207.511 166.03 208.45V378.972C166.03 381.211 167.012 383.392 169.54 383.71C171.866 384.013 174.61 381.731 176.488 380.648L202.446 365.611L208.209 362.274C208.816 361.927 208.267 360.988 207.66 361.335L207.675 361.349Z" fill="#2B63A8"/>
<path d="M211.255 363.054L175.099 383.985C172.788 385.328 169.885 383.652 169.885 380.98V206.832C169.885 203.611 171.604 200.65 174.377 199.032L208.236 179.43C211.573 177.494 215.747 179.907 215.747 183.764V355.268C215.747 358.489 214.028 361.451 211.255 363.068V363.054Z" fill="#DFFBFF"/>
<path d="M210.981 362.592L191.972 373.599L179.679 380.72C177.772 381.833 173.988 384.982 171.72 383.422C170.29 382.439 170.42 380.923 170.42 379.449V237.354C170.42 227.257 170.319 217.146 170.42 207.049C170.463 203.337 172.485 200.751 175.562 198.96L185.038 193.471L207.803 180.283C209.551 179.271 211.501 178.795 213.321 180.095C214.607 181.019 215.156 182.42 215.199 183.952C215.228 185.006 215.199 186.061 215.199 187.115V354.402C215.199 357.767 213.957 360.714 210.967 362.563C210.375 362.924 210.923 363.863 211.516 363.502C214.708 361.523 216.268 358.345 216.283 354.662C216.283 353.304 216.283 351.946 216.283 350.603V191.911C216.283 189.195 216.398 186.465 216.283 183.764C216.095 179.084 211.357 177.047 207.514 179.214C204.467 180.933 201.462 182.724 198.429 184.472L174.854 198.122C171.532 200.043 169.423 202.961 169.336 206.905C169.322 207.829 169.336 208.754 169.336 209.692V380.215C169.336 382.454 170.319 384.635 172.847 384.953C175.172 385.256 177.917 382.974 179.795 381.89L205.752 366.853L211.516 363.517C212.122 363.17 211.573 362.231 210.967 362.578L210.981 362.592Z" fill="#2B63A8"/>
<path d="M368.408 302.41C369.382 300.399 368.321 297.873 366.038 296.767C363.755 295.661 361.114 296.394 360.14 298.404C359.167 300.414 360.228 302.941 362.511 304.047C364.794 305.153 367.434 304.42 368.408 302.41Z" fill="#2B63A8"/>
<path d="M339.23 288.274C340.204 286.264 339.143 283.738 336.86 282.632C334.577 281.526 331.937 282.258 330.963 284.269C329.989 286.279 331.05 288.805 333.333 289.911C335.616 291.018 338.256 290.285 339.23 288.274Z" fill="#2B63A8"/>
<path d="M310.055 274.118C311.029 272.108 309.967 269.582 307.684 268.476C305.401 267.37 302.761 268.103 301.787 270.113C300.813 272.123 301.874 274.649 304.157 275.756C306.44 276.862 309.081 276.129 310.055 274.118Z" fill="#2B63A8"/>
<path d="M477.637 383.624L442.565 363.82L432.569 350.141L428.336 350.964L428.799 355.847L407.969 344.276C405.513 342.89 402.494 342.947 400.097 344.435L389.133 351.253L394.752 408.267L419.337 422.626L422.125 431.495L436.946 432.91L474.835 462.783L480.179 458.767C483.516 456.253 485.481 452.324 485.481 448.164V397.275C485.481 391.656 482.49 386.456 477.637 383.61V383.624Z" fill="#2B63A8"/>
<path d="M474.848 463.027L474.733 462.941L436.887 433.098L421.994 431.682L421.965 431.566L419.192 422.755L394.578 408.382V408.296L388.93 351.166L389.031 351.108L399.995 344.29C402.45 342.759 405.541 342.701 408.055 344.117L428.581 355.514L428.133 350.805L428.292 350.776L432.64 349.924L432.712 350.01L442.679 363.661L477.723 383.45C482.619 386.31 485.653 391.597 485.653 397.274V448.178C485.653 452.381 483.645 456.412 480.279 458.925L474.834 463.027H474.848ZM422.269 431.35L437.031 432.751L437.075 432.78L474.863 462.565L480.092 458.636C483.371 456.181 485.321 452.266 485.321 448.178V397.274C485.321 391.742 482.345 386.556 477.564 383.768L442.434 363.906L432.51 350.314L428.538 351.094L429.014 356.149L428.711 355.976L407.881 344.406C405.469 343.048 402.522 343.106 400.182 344.565L389.305 351.325L394.91 408.137L419.481 422.495L422.254 431.321L422.269 431.35Z" fill="#2B63A8"/>
<path d="M475.021 393.707L445.192 376.286L427.786 349.332L425.691 364.903L398.954 349.288C394.057 346.428 387.918 349.953 387.918 355.63V411.705C387.918 414.319 389.305 416.732 391.558 418.046L412.518 430.281L430.126 440.566L467.611 462.464C472.507 465.325 478.647 461.8 478.647 456.123V400.048C478.647 397.433 477.26 395.021 475.006 393.707H475.021Z" fill="#DFFBFF"/>
<path d="M475.295 393.244L450.132 378.54C448.688 377.702 447.272 376.806 445.813 376.012C445.279 375.723 445.727 376.041 445.582 375.882C445.25 375.477 445.004 374.986 444.715 374.538L435.803 360.729L428.263 349.057C428.046 348.711 427.338 348.696 427.266 349.187L425.171 364.759L425.966 364.441L401.482 350.141C400.37 349.491 399.243 348.725 398.044 348.263C394.852 347.05 391.154 348.104 389.045 350.791C386.936 353.478 387.384 356.872 387.384 360.036V408.484C387.384 412.413 387.456 416.14 391.284 418.523C398.203 422.828 405.382 426.757 412.417 430.859C418.931 434.658 425.446 438.472 431.946 442.271L460.576 458.998C463.176 460.515 465.877 462.58 468.737 463.591C474.284 465.541 479.152 460.977 479.181 455.545C479.224 445.968 479.181 436.406 479.181 426.829C479.181 417.96 479.369 409.076 479.181 400.207C479.123 397.275 477.751 394.819 475.281 393.259C474.689 392.883 474.14 393.822 474.732 394.198C478.545 396.61 478.098 400.525 478.098 404.353V451.429C478.098 454.592 478.632 458.333 476.234 460.803C473.836 463.274 470.514 463.461 467.683 461.887C466.643 461.309 465.617 460.688 464.592 460.081L436.54 443.701C430.343 440.075 424.146 436.464 417.949 432.838C410.727 428.62 403.49 424.402 396.267 420.17C392.656 418.061 388.51 416.342 388.452 411.431C388.424 408.441 388.452 405.45 388.452 402.46V356.916C388.452 355.63 388.452 354.388 388.929 353.145C390.475 349.187 395.112 347.83 398.723 349.794C406.87 354.214 414.786 359.169 422.788 363.849L425.417 365.38C425.691 365.539 426.168 365.409 426.211 365.062L428.306 349.491L427.309 349.621L443.127 374.119C443.661 374.943 444.167 376.113 444.918 376.777C445.727 377.485 446.94 377.962 447.864 378.496L463.075 387.38L474.746 394.198C475.353 394.545 475.902 393.62 475.295 393.259V393.244Z" fill="#2B63A8"/>
<path d="M453.383 416.123C453.995 414.859 453.322 413.268 451.879 412.569C450.436 411.87 448.77 412.327 448.157 413.591C447.545 414.855 448.219 416.446 449.662 417.145C451.105 417.844 452.771 417.387 453.383 416.123Z" fill="#2B63A8"/>
<path d="M434.991 407.22C435.603 405.956 434.929 404.365 433.486 403.666C432.043 402.967 430.377 403.424 429.765 404.688C429.153 405.951 429.826 407.542 431.269 408.242C432.712 408.941 434.378 408.483 434.991 407.22Z" fill="#2B63A8"/>
<path d="M416.61 398.308C417.222 397.044 416.548 395.453 415.105 394.754C413.662 394.055 411.996 394.512 411.384 395.776C410.772 397.039 411.445 398.631 412.888 399.33C414.331 400.029 415.998 399.571 416.61 398.308Z" fill="#2B63A8"/>
<path d="M322.294 468.386C322.294 477.616 314.002 485.431 302.547 488.103C302.172 488.19 301.421 488.349 301.421 488.349L294.27 465.641L273.816 483.033C273.816 483.033 273.166 482.556 272.863 482.296C268.284 478.627 265.496 473.745 265.496 468.4C265.496 456.974 278.208 447.701 293.895 447.701C309.582 447.701 322.294 456.96 322.294 468.4V468.386Z" fill="#9CB2DB"/>
<path d="M321.745 468.386C321.586 479.321 310.854 485.821 301.277 487.829L301.941 488.204L294.791 465.497C294.661 465.093 294.199 464.991 293.881 465.251L273.427 482.643L274.077 482.557C268.891 478.671 265.136 472.72 266.219 466.032C267.1 460.6 270.928 456.166 275.464 453.291C286.182 446.459 301.609 446.444 312.327 453.291C317.585 456.642 321.659 461.958 321.745 468.4C321.745 469.094 322.843 469.094 322.829 468.4C322.641 454.938 307.878 447.903 296.192 447.224C284.333 446.545 268.241 451.774 265.338 464.934C263.691 472.387 267.721 479.133 273.543 483.495C273.745 483.64 274.034 483.553 274.193 483.409L294.647 466.017L293.737 465.772L300.887 488.479C300.974 488.768 301.262 488.912 301.551 488.855C311.634 486.746 322.655 479.798 322.814 468.372C322.814 467.678 321.745 467.678 321.731 468.372L321.745 468.386Z" fill="#2B63A8"/>
<path d="M274.295 485.648L293.117 469.426L300.325 490.848C296.973 491.05 292.568 491.007 287.512 490.054C281.951 488.999 277.487 487.208 274.295 485.648Z" fill="#DC6F5D"/>
<path d="M274.684 486.038L291.137 471.867L293.506 469.816L292.596 469.571L298.908 488.306L299.818 490.993L300.338 490.314C291.455 490.834 282.571 489.086 274.583 485.186C273.962 484.882 273.413 485.821 274.034 486.125C282.195 490.111 291.267 491.931 300.338 491.411C300.671 491.397 300.974 491.079 300.858 490.732L294.546 471.997L293.636 469.311C293.506 468.906 293.044 468.805 292.726 469.065L276.273 483.236L273.904 485.287C273.37 485.749 274.15 486.5 274.67 486.052L274.684 486.038Z" fill="#2B63A8"/>
<path d="M261.205 189.484C281.485 189.484 297.924 173.044 297.924 152.765C297.924 132.486 281.485 116.046 261.205 116.046C240.926 116.046 224.486 132.486 224.486 152.765C224.486 173.044 240.926 189.484 261.205 189.484Z" fill="#E0EBC5"/>
<path d="M297.376 152.765C297.275 167.816 287.785 181.611 273.571 186.768C259.357 191.925 243.092 187.505 233.414 175.92C223.736 164.335 222.363 147.131 230.221 134.102C238.036 121.116 253.593 114.269 268.457 117.317C285.184 120.74 297.26 135.778 297.376 152.765C297.376 153.458 298.459 153.458 298.459 152.765C298.358 137.208 288.536 123.037 273.86 117.721C259.169 112.391 242.211 117.115 232.345 129.22C222.479 141.324 221.237 158.658 229.283 171.991C237.328 185.324 253.059 192.257 268.269 189.368C285.676 186.06 298.344 170.388 298.459 152.779C298.459 152.086 297.376 152.086 297.376 152.779V152.765Z" fill="#2B63A8"/>
<path d="M251.37 187.289C270.892 187.289 286.717 171.464 286.717 151.942C286.717 132.421 270.892 116.596 251.37 116.596C231.849 116.596 216.023 132.421 216.023 151.942C216.023 171.464 231.849 187.289 251.37 187.289Z" fill="#A5C661"/>
<path d="M286.168 151.942C286.067 166.402 276.967 179.677 263.302 184.646C249.652 189.615 234.022 185.397 224.676 174.289C215.33 163.181 213.958 146.656 221.47 134.103C228.981 121.55 243.859 114.963 258.16 117.809C274.338 121.03 286.053 135.533 286.168 151.957C286.168 152.65 287.252 152.65 287.252 151.957C287.151 136.992 277.718 123.341 263.591 118.213C249.464 113.085 233.127 117.578 223.607 129.206C214.088 140.834 212.846 157.677 220.661 170.547C228.446 183.36 243.744 190.077 258.449 187.145C275.089 183.837 287.136 168.828 287.252 151.957C287.252 151.263 286.168 151.263 286.168 151.957V151.942Z" fill="#2B63A8"/>
<path d="M251.37 151.94C256.819 151.94 261.236 146.637 261.236 140.095C261.236 133.553 256.819 128.25 251.37 128.25C245.921 128.25 241.504 133.553 241.504 140.095C241.504 146.637 245.921 151.94 251.37 151.94Z" fill="white"/>
<path d="M240.955 140.095C241.013 144.848 243.324 149.875 247.918 151.781C252.208 153.572 256.801 151.666 259.387 147.997C262.276 143.894 262.536 138.145 260.283 133.696C258.26 129.695 253.999 126.922 249.449 127.918C243.96 129.117 241.013 134.866 240.955 140.095C240.955 140.789 242.024 140.789 242.039 140.095C242.096 135.877 244.046 131.371 248.062 129.522C252.078 127.673 256.339 129.522 258.621 133.003C261.091 136.73 261.366 141.8 259.416 145.801C257.61 149.513 253.681 152.244 249.449 151.16C244.595 149.918 242.096 144.761 242.039 140.095C242.039 139.402 240.941 139.402 240.955 140.095Z" fill="#2B63A8"/>
<path d="M227.883 167.831C230.006 160.608 236.449 154.903 244.682 153.834C255.646 152.404 265.642 159.771 267.014 170.272C267.289 172.381 267.187 174.461 266.783 176.44L227.897 167.816L227.883 167.831Z" fill="white"/>
<path d="M228.402 167.975C231.363 158.398 241.475 152.635 251.268 154.585C261.062 156.535 268.183 166.126 266.248 176.31L266.912 175.934L232.837 168.38L228.026 167.311C227.347 167.166 227.059 168.206 227.737 168.351L261.813 175.906L266.623 176.974C266.898 177.032 267.23 176.902 267.288 176.599C268.862 168.308 265.092 160.016 257.74 155.842C250.387 151.667 241.489 152.346 234.902 157.142C231.305 159.756 228.676 163.44 227.362 167.686C227.16 168.351 228.2 168.64 228.402 167.975Z" fill="#2B63A8"/>
<path d="M215.359 364.6L179.203 385.531C176.892 386.875 173.988 385.199 173.988 382.527V208.378C173.988 205.157 175.707 202.196 178.481 200.578L212.34 180.976C215.676 179.041 219.851 181.453 219.851 185.31V356.815C219.851 360.036 218.132 362.997 215.359 364.615V364.6Z" fill="#DFFBFF"/>
<path d="M215.085 364.137L196.075 375.144L183.783 382.266C181.876 383.378 178.091 386.527 175.823 384.967C174.393 383.985 174.523 382.468 174.523 380.995V238.9C174.523 228.803 174.422 218.691 174.523 208.594C174.567 204.882 176.589 202.296 179.666 200.505L189.142 195.016L211.907 181.828C213.655 180.817 215.605 180.34 217.425 181.64C218.71 182.565 219.259 183.966 219.303 185.497C219.332 186.551 219.303 187.606 219.303 188.66V355.947C219.303 359.313 218.06 362.26 215.07 364.109C214.478 364.47 215.027 365.409 215.619 365.047C218.812 363.069 220.372 359.891 220.386 356.207C220.386 354.849 220.386 353.492 220.386 352.148V193.456C220.386 190.741 220.502 188.01 220.386 185.309C220.198 180.629 215.46 178.592 211.618 180.759C208.57 182.478 205.566 184.269 202.532 186.017L178.958 199.667C175.636 201.589 173.527 204.507 173.44 208.45C173.426 209.374 173.44 210.299 173.44 211.238V381.76C173.44 383.999 174.422 386.18 176.95 386.498C179.276 386.802 182.02 384.519 183.898 383.436L209.856 368.399L215.619 365.062C216.226 364.715 215.677 363.776 215.07 364.123L215.085 364.137Z" fill="#2B63A8"/>
<path d="M181.442 218.937L209.147 202.715L213.119 200.39C213.726 200.043 213.177 199.104 212.57 199.451L184.865 215.672L180.893 217.998C180.286 218.345 180.835 219.284 181.442 218.937Z" fill="#2B63A8"/>
<path d="M181.442 230.536L209.147 214.315L213.119 211.989C213.726 211.642 213.177 210.704 212.57 211.05L184.865 227.272L180.893 229.598C180.286 229.944 180.835 230.883 181.442 230.536Z" fill="#2B63A8"/>
<path d="M181.442 242.121L209.147 225.9L213.119 223.574C213.726 223.227 213.177 222.288 212.57 222.635L184.865 238.857L180.893 241.182C180.286 241.529 180.835 242.468 181.442 242.121Z" fill="#2B63A8"/>
<path d="M181.442 253.706L209.147 237.484L213.119 235.159C213.726 234.812 213.177 233.873 212.57 234.22L184.865 250.442L180.893 252.767C180.286 253.114 180.835 254.053 181.442 253.706Z" fill="#2B63A8"/>
<path d="M181.442 265.305L209.147 249.083L213.119 246.758C213.726 246.411 213.177 245.472 212.57 245.819L184.865 262.041L180.893 264.366C180.286 264.713 180.835 265.652 181.442 265.305Z" fill="#2B63A8"/>
<path d="M181.442 276.89L209.147 260.668L213.119 258.343C213.726 257.996 213.177 257.057 212.57 257.404L184.865 273.625L180.893 275.951C180.286 276.298 180.835 277.237 181.442 276.89Z" fill="#2B63A8"/>
<path d="M181.442 288.475L209.147 272.253L213.119 269.927C213.726 269.581 213.177 268.642 212.57 268.989L184.865 285.21L180.893 287.536C180.286 287.883 180.835 288.821 181.442 288.475Z" fill="#2B63A8"/>
<path d="M181.442 300.074L209.147 283.852L213.119 281.527C213.726 281.18 213.177 280.241 212.57 280.588L184.865 296.81L180.893 299.135C180.286 299.482 180.835 300.421 181.442 300.074Z" fill="#2B63A8"/>
<path d="M181.442 311.658L209.147 295.437L213.119 293.111C213.726 292.764 213.177 291.826 212.57 292.172L184.865 308.394L180.893 310.72C180.286 311.066 180.835 312.005 181.442 311.658Z" fill="#2B63A8"/>
<path d="M181.442 323.244L209.147 307.022L213.119 304.697C213.726 304.35 213.177 303.411 212.57 303.758L184.865 319.979L180.893 322.305C180.286 322.652 180.835 323.591 181.442 323.244Z" fill="#2B63A8"/>
<path d="M181.442 334.843L209.147 318.622L213.119 316.296C213.726 315.949 213.177 315.01 212.57 315.357L184.865 331.579L180.893 333.904C180.286 334.251 180.835 335.19 181.442 334.843Z" fill="#2B63A8"/>
<path d="M181.442 346.428L209.147 330.206L213.119 327.881C213.726 327.534 213.177 326.595 212.57 326.942L184.865 343.164L180.893 345.489C180.286 345.836 180.835 346.775 181.442 346.428Z" fill="#2B63A8"/>
<path d="M181.442 358.013L209.147 341.791L213.119 339.466C213.726 339.119 213.177 338.18 212.57 338.527L184.865 354.748L180.893 357.074C180.286 357.421 180.835 358.36 181.442 358.013Z" fill="#2B63A8"/>
<path d="M181.442 369.598L209.147 353.377L213.119 351.051C213.726 350.704 213.177 349.765 212.57 350.112L184.865 366.334L180.893 368.659C180.286 369.006 180.835 369.945 181.442 369.598Z" fill="#2B63A8"/>
<path d="M191.727 381.471C193.301 382.251 195.179 382.136 196.652 381.168L243.324 350.516L245.664 346.659L250.344 299.236C250.546 297.214 249.492 295.264 247.686 294.339L243.714 292.288C243.714 292.115 242.226 292.649 242.067 292.736L227.651 300.233L225.398 302.515L222.364 308.597C221.917 309.507 221.209 310.258 220.328 310.763L188.347 329.325C186.758 330.25 185.775 331.954 185.775 333.789C185.775 342.643 186.151 371.548 186.223 377.614C186.223 378.308 186.628 378.929 187.249 379.232L191.727 381.457V381.471Z" fill="#2B63A8"/>
<path d="M191.453 381.934C194.717 383.32 196.942 381.63 199.498 379.955L209.22 373.57L234.917 356.698L242.775 351.541C243.671 350.949 243.859 350.718 244.494 349.678C245.303 348.335 246.156 347.309 246.314 345.792L248.813 320.441C249.507 313.407 250.532 306.314 250.908 299.236C251.052 296.535 249.579 294.701 247.297 293.516C246.3 293.011 245.303 292.375 244.278 291.956C243.483 291.624 242.934 291.797 242.096 292.158C238.572 293.632 235.206 295.712 231.826 297.474C230.411 298.211 228.764 298.832 227.449 299.742C225.528 301.085 224.676 302.819 223.679 304.812C222.682 306.805 221.931 309.117 220.039 310.316C219.288 310.792 218.493 311.211 217.728 311.659L192.969 326.032C190.831 327.274 187.509 328.56 186.137 330.741C184.765 332.922 185.241 335.594 185.256 337.934C185.27 340.737 185.299 343.524 185.328 346.327C185.386 353.044 185.472 359.775 185.545 366.492C185.573 369.034 185.602 371.591 185.646 374.133C185.66 375.722 185.212 378.308 186.556 379.449C187.899 380.59 189.893 381.182 191.453 381.962C192.074 382.266 192.623 381.341 192.001 381.023C190.441 380.258 187.206 379.435 186.772 377.484C186.426 375.924 186.729 373.917 186.7 372.328C186.628 366.463 186.556 360.598 186.498 354.748C186.44 348.898 186.368 343.019 186.339 337.154C186.325 334.41 185.978 331.506 188.65 329.802C189.3 329.397 189.979 329.036 190.644 328.646L214.146 315.01C216.298 313.768 218.508 312.598 220.602 311.269C224.387 308.857 224.271 303.324 227.969 300.724C229.11 299.93 230.541 299.381 231.783 298.745L238.529 295.235C239.785 294.585 241.028 293.834 242.328 293.256C243.064 292.924 243.339 292.808 243.917 293.025C245.014 293.415 246.127 294.152 247.167 294.701C250.489 296.477 249.796 299.554 249.492 302.588L248.308 314.533L245.563 342.354L245.217 345.821C245.188 346.052 245.217 346.37 245.144 346.587C245.058 346.847 245.159 346.356 244.87 346.991C244.437 347.887 243.743 349.389 243.079 350.082C241.952 351.252 240.031 352.09 238.687 352.971L197.057 380.316C195.526 381.327 193.894 381.818 192.045 381.023C191.409 380.749 190.86 381.688 191.496 381.962L191.453 381.934Z" fill="#2B63A8"/>
<path d="M196.436 381.429L249.146 352.193C250.215 351.6 250.865 350.488 250.865 349.26V298.414C250.865 295.886 248.178 294.268 245.939 295.453L232.534 302.589C231.927 302.921 231.422 303.426 231.118 304.048L227.55 311.169C227.262 311.747 226.799 312.238 226.236 312.57L192.868 331.926C191.843 332.519 191.207 333.616 191.207 334.815C191.207 341.98 191.207 367.331 191.453 378.583C191.51 381.097 194.226 382.657 196.422 381.429H196.436Z" fill="#6CA9AE"/>
<path d="M196.711 381.891L238.37 358.779L247.326 353.81C249.29 352.712 251.24 351.846 251.399 349.217C251.529 347.035 251.399 344.811 251.399 342.615V301.534C251.399 299.165 251.833 296.305 249.319 294.976C247.629 294.08 246.127 294.745 244.61 295.554L238.644 298.732C235.77 300.263 231.783 301.505 230.252 304.567C228.908 307.269 227.854 311.01 225.153 312.584L202.33 325.83C199.296 327.593 196.248 329.326 193.215 331.117C192.002 331.839 190.976 332.677 190.716 334.18C190.355 336.216 190.658 338.542 190.658 340.607C190.658 347.267 190.673 353.926 190.716 360.585C190.73 364.037 190.759 367.49 190.788 370.927C190.817 373.571 190.485 376.575 190.962 379.19C191.438 381.804 194.327 383.018 196.682 381.906C197.317 381.602 196.768 380.678 196.133 380.967C193.677 382.122 192.074 380.215 191.958 377.933C191.886 376.575 191.915 375.218 191.886 373.874C191.843 370.74 191.814 367.605 191.799 364.485C191.756 357.84 191.727 351.196 191.727 344.551C191.727 342.038 191.727 339.539 191.727 337.025C191.727 335.133 191.612 333.385 193.432 332.229C195.902 330.655 198.516 329.283 201.059 327.809L224.084 314.448C224.835 314.014 225.615 313.595 226.366 313.119C227.536 312.382 228.027 311.4 228.62 310.215C229.558 308.352 230.411 306.416 231.422 304.596C232.173 303.238 233.343 302.762 234.643 302.068C238.341 300.104 241.981 298.009 245.737 296.16C247.831 295.12 250.142 295.958 250.287 298.529C250.33 299.237 250.287 299.959 250.287 300.667V348.22C250.287 349.607 250.186 350.835 248.828 351.716C248.496 351.932 248.135 352.106 247.788 352.293L240.537 356.309L197.173 380.36L196.133 380.938C195.526 381.27 196.075 382.209 196.682 381.877L196.711 381.891Z" fill="#2B63A8"/>
</g>
</g>
<defs>
<clipPath id="clip0_4650_22208">
<rect width="417" height="417" fill="white" transform="translate(82 115.5)"/>
</clipPath>
<clipPath id="clip1_4650_22208">
<rect width="416.181" height="416.181" fill="white" transform="translate(82.8184 115.5)"/>
</clipPath>
</defs>
</svg>
