<svg width="1201" height="648" viewBox="0 0 1201 648" fill="none" xmlns="http://www.w3.org/2000/svg">
<g clip-path="url(#clip0_4650_22204)">
<rect width="1201" height="648" rx="16" fill="#EBF9F9"/>
<g clip-path="url(#clip1_4650_22204)">
<path d="M544.461 347.926L542.451 364.498H496.5V363.324C502.281 362.579 503.951 361.157 503.951 357.138V312.615C503.951 308.596 502.281 307.173 496.5 306.428V305.254H533.916C537.348 305.254 539.019 304.916 539.606 303.99H540.78L543.625 321.804H542.451C539.854 311.689 534.999 307.58 525.471 307.58H516.935V332.935H524.635C529.58 332.935 532.087 329.932 531.658 323.971H532.832L535.18 344.223H534.006C533.012 338.195 529.829 335.26 525.132 335.26H516.935V357.341C516.935 360.773 518.2 362.105 521.88 362.105H526.487C535.948 362.105 540.87 357.928 543.309 347.881H544.483L544.461 347.926Z" fill="#414042"/>
<path d="M596.936 379.806V380.98H572.075V379.806C578.013 378.971 579.278 377.955 579.278 374.613V356.528C577.855 361.631 573.497 365.74 567.559 365.74C555.839 365.74 549.652 355.941 549.652 344.494C549.652 330.022 558.684 320.652 571.149 320.652C575.416 320.652 579.436 322.233 582.191 324.761L590.478 320.652H591.652V374.613C591.652 377.955 592.916 378.971 596.913 379.806H596.936ZM573.068 359.125C575.913 359.125 578.329 357.025 579.255 354.113V334.447C579.255 328.329 576.568 322.978 571.894 322.978C566.294 322.978 562.523 330.767 562.523 340.724C562.523 350.681 565.797 359.125 573.068 359.125Z" fill="#414042"/>
<path d="M630.242 357.544V356.28C625.975 361.721 621.549 365.65 615.927 365.65C607.481 365.65 603.372 359.87 603.372 351.268V331.941C603.372 327.832 601.52 326.748 598.607 326.929V325.755L614.685 320.652H615.859V350.365C615.859 355.061 618.275 357.725 622.136 357.725C625.139 357.725 627.397 356.551 630.084 353.887V331.964C630.084 327.855 628.233 326.771 625.32 326.952V325.777L641.397 320.675H642.571V356.393C642.571 358.809 643.497 360.231 645.078 360.231C646.252 360.231 647.494 359.396 648.668 357.138L649.752 357.567C646.816 364.927 642.052 365.763 639.546 365.763C634.533 365.763 630.265 361.992 630.265 357.567L630.242 357.544Z" fill="#414042"/>
<path d="M674.59 363.324V364.498H652.664V363.324C656.254 362.579 657.429 361.224 657.429 357.973V331.941C657.429 327.832 655.577 326.748 652.664 326.929V325.755L668.651 320.652H669.825V357.973C669.825 361.247 670.909 362.579 674.59 363.324ZM663.616 301.394C668.132 301.394 671.473 304.577 671.473 308.754C671.473 312.931 668.132 316.295 663.616 316.295C659.099 316.295 655.758 313.021 655.758 308.754C655.758 304.487 659.099 301.394 663.616 301.394Z" fill="#414042"/>
<path d="M715.1 364.476H678.791V363.212L713.271 307.558H696.042C688.252 307.558 684.323 311.328 682.155 320.608H680.981L683.578 303.945H684.752C685.181 304.871 686.423 305.21 689.02 305.21H722.913V306.474L688.433 362.128H708.1C715.89 362.128 719.819 358.358 721.987 349.078H723.161L720.474 365.741H719.3C718.871 364.815 717.719 364.476 715.123 364.476H715.1Z" fill="#414042"/>
<path d="M728.062 344.404C728.062 330.767 736.169 321.307 747.82 321.307C758.275 321.307 763.559 329.502 762.723 339.211H735.356V340.972C735.356 352.103 740.888 360.479 751.094 360.479C755.949 360.479 760.217 357.137 761.797 352.103L762.881 352.351C761.549 360.298 755.34 365.649 747.64 365.649C735.085 365.649 728.062 356.189 728.062 344.404ZM755.769 337.292C756.198 330.089 752.427 323.655 746.398 323.655C739.962 323.655 736.282 328.915 735.514 337.292H755.769Z" fill="#414042"/>
<path d="M814.001 363.325V364.499H795.508V363.325C799.866 362.737 801.288 361.405 801.288 357.974V335.802C801.288 329.684 798.443 326.274 793.34 326.274C789.072 326.274 785.482 328.781 781.621 333.228V357.996C781.621 361.428 783.043 362.76 787.401 363.347V364.521H768.908V363.347C773.266 362.76 774.689 361.428 774.689 357.996V331.061C774.689 326.545 773.108 325.71 768.908 326.455V325.281L780.447 321.353H781.621V331.151C786.137 324.965 790.834 321.353 796.095 321.353C803.885 321.353 808.221 326.794 808.221 335.486V357.996C808.221 361.428 809.643 362.76 814.001 363.347V363.325Z" fill="#414042"/>
<path d="M474.077 267.979H454.184V278.546H474.077V298.437H484.644V278.546V267.979H474.077Z" fill="#47979D"/>
<path d="M460.234 306.046H468.025V292.364L460.234 306.046Z" fill="#0551BB"/>
<path d="M435.598 327.991L442.101 316.612H427.379L435.598 327.991Z" fill="#0551BB"/>
<path d="M445.084 332.62H468.026V316.612H454.206L445.084 332.62Z" fill="#0551BB"/>
<path d="M413.381 332.62H425.958L418.845 322.754L413.381 332.62Z" fill="#0551BB"/>
<path d="M410.219 316.612H388V332.62H401.345L410.219 316.612Z" fill="#0551BB"/>
<path d="M388 356.688L395.497 343.186H388V356.688Z" fill="#0551BB"/>
<path d="M416.09 306.046H419.748H434.741H448.131L460.347 284.597H388V306.046H406.516H416.09Z" fill="#0551BB"/>
<path d="M449.848 343.052H421.623L421.713 343.187H407.51L395.633 364.613H468.025V343.187H449.826L449.848 343.052Z" fill="#0551BB"/>
</g>
</g>
<defs>
<clipPath id="clip0_4650_22204">
<rect width="1201" height="648" fill="white"/>
</clipPath>
<clipPath id="clip1_4650_22204">
<rect width="426" height="113.001" fill="white" transform="translate(388 267.979)"/>
</clipPath>
</defs>
</svg>
