<svg width="581" height="648" viewBox="0 0 581 648" fill="none" xmlns="http://www.w3.org/2000/svg">
<rect width="581" height="648" rx="16" fill="#F3FBE5"/>
<g clip-path="url(#clip0_4650_22205)">
<path d="M293.881 557.776C334.489 557.776 367.409 550.834 367.409 542.272C367.409 533.709 334.489 526.768 293.881 526.768C253.272 526.768 220.352 533.709 220.352 542.272C220.352 550.834 253.272 557.776 293.881 557.776Z" fill="#2A4850"/>
<path d="M294.877 396.423C336.556 396.423 370.344 386.32 370.344 373.857C370.344 361.395 336.556 351.292 294.877 351.292C253.198 351.292 219.41 361.395 219.41 373.857C219.41 386.32 253.198 396.423 294.877 396.423Z" fill="#997C3A"/>
<path d="M369.616 373.857C369.482 380.707 360.252 384.641 354.976 386.732C343.885 391.127 331.835 393.16 320.034 394.408C305.125 395.981 290.024 396.115 275.095 394.907C262.681 393.909 250.074 392.048 238.235 387.999C234.09 386.579 229.946 384.871 226.3 382.415C223.863 380.784 221.273 378.597 220.409 375.68C218.49 369.214 226.645 364.704 231.327 362.459C241.727 357.509 253.566 355.321 264.906 353.844C279.528 351.944 294.399 351.561 309.116 352.405C322.106 353.153 335.231 354.803 347.742 358.507C352.289 359.85 356.837 361.481 360.981 363.803C363.821 365.376 366.834 367.372 368.522 370.231C369.194 371.344 369.578 372.552 369.597 373.857C369.597 374.778 371.055 374.778 371.036 373.857C370.902 366.969 362.9 362.843 357.489 360.483C346.36 355.628 334.022 353.46 322.029 352.079C305.911 350.217 289.544 350.064 273.388 351.503C260.57 352.635 247.464 354.611 235.395 359.197C229.504 361.423 220.543 365.107 218.874 372.054C217.32 378.539 224.132 383.183 229.025 385.735C239.348 391.107 251.321 393.429 262.719 395.022C278.472 397.228 294.494 397.67 310.363 396.672C323.948 395.828 337.745 394.024 350.716 389.783C357.393 387.596 366.834 384.315 370.153 377.445C370.691 376.313 370.978 375.124 371.017 373.876C371.017 372.955 369.597 372.955 369.578 373.876L369.616 373.857Z" fill="#2B63A8"/>
<path d="M349.163 530.144L321.341 534.135C305.491 536.4 289.431 536.515 273.543 534.462L238.755 529.972C227.894 528.571 219.643 519.514 219.26 508.558L215.537 400.202H374.223L368.332 509.21C367.757 519.859 359.736 528.628 349.183 530.144H349.163Z" fill="#997C3A"/>
<path d="M348.97 529.453C328.593 532.37 308.292 535.997 287.588 534.999C278.32 534.538 269.109 533.176 259.918 531.986C252.876 531.084 245.796 530.279 238.773 529.262C227.874 527.688 220.352 518.612 219.949 507.79C219.777 503.166 219.623 498.541 219.47 493.917L217.608 439.519L216.745 414.382L216.438 405.632C216.38 404.155 216.63 402.274 216.265 400.835C216.227 400.643 216.265 400.413 216.246 400.221L215.517 400.951H374.222L373.493 400.221L371.094 444.738L367.852 504.701C367.775 506.217 367.717 507.713 367.602 509.229C366.911 519.591 359.179 527.842 348.97 529.473C348.049 529.626 348.452 531.008 349.354 530.854C357.221 529.607 364.033 524.484 367.199 517.116C368.523 514.045 368.945 510.86 369.137 507.56L370.308 485.916L373.992 417.606L374.932 400.221C374.951 399.838 374.587 399.492 374.203 399.492H215.555C215.172 399.492 214.826 399.818 214.826 400.221L215.977 433.839L217.935 490.559L218.491 506.907C218.779 515.178 222.079 522.776 229.294 527.324C235.703 531.391 244.357 531.411 251.687 532.37C259.016 533.329 266.25 534.251 273.523 535.191C289.794 537.263 306.2 537.033 322.433 534.711C330.646 533.541 338.858 532.351 347.071 531.18L349.354 530.854C350.275 530.72 349.872 529.338 348.97 529.473V529.453Z" fill="#2B63A8"/>
<path d="M362.364 375.834C346.15 370.096 321.934 366.47 294.879 366.47C267.824 366.47 243.589 370.115 227.394 375.834H206.307V392.873H206.537C206.537 407.456 246.084 419.295 294.879 419.295C343.675 419.295 383.221 407.475 383.221 392.873V375.834H362.364Z" fill="#997C3A"/>
<path d="M362.556 375.143C339.396 367.026 313.665 365.337 289.315 365.798C276.248 366.047 263.181 367.103 250.305 369.348C244.722 370.326 239.176 371.516 233.708 373.07C230.81 373.895 228.239 375.123 225.246 375.123H206.288C205.904 375.123 205.559 375.45 205.559 375.853V392.892C205.559 393.275 205.885 393.621 206.288 393.621H206.518L205.789 392.892C205.962 402.678 219.259 407.801 226.761 410.487C244.127 416.723 263.065 418.892 281.409 419.717C302.19 420.657 323.316 419.678 343.752 415.63C351.523 414.095 359.275 412.099 366.624 409.086C371.498 407.072 376.563 404.596 380.267 400.759C383.01 397.919 383.951 394.906 383.951 391.05V375.833C383.951 375.45 383.625 375.104 383.222 375.104H362.364C361.443 375.104 361.443 376.543 362.364 376.543H383.222L382.492 375.814V388.229C382.492 391.529 382.838 394.676 380.977 397.554C378.386 401.545 373.8 404.136 369.617 406.151C363.266 409.221 356.397 411.235 349.546 412.866C330.531 417.376 310.729 418.757 291.214 418.527C272.487 418.297 253.433 416.589 235.339 411.619C228.392 409.72 221.331 407.34 215.229 403.445C211.545 401.104 207.324 397.612 207.247 392.853C207.247 392.469 206.921 392.124 206.518 392.124H206.288L207.017 392.853V375.814L206.288 376.543H223.135C225.38 376.543 227.145 376.639 229.275 375.929C234.13 374.317 239.099 373.032 244.108 371.977C270.184 366.47 297.7 365.875 324.16 368.657C337.017 370 349.949 372.226 362.172 376.524C363.055 376.831 363.419 375.45 362.556 375.143Z" fill="#2B63A8"/>
<path d="M294.879 401.584C343.669 401.584 383.222 389.755 383.222 375.162C383.222 360.57 343.669 348.74 294.879 348.74C246.089 348.74 206.537 360.57 206.537 375.162C206.537 389.755 246.089 401.584 294.879 401.584Z" fill="#72531C"/>
<path d="M382.511 375.162C382.377 383.183 371.651 387.807 365.491 390.282C352.482 395.482 338.302 397.881 324.448 399.358C306.91 401.22 289.122 401.373 271.546 399.934C256.963 398.744 242.15 396.557 228.277 391.76C223.441 390.091 218.606 388.076 214.365 385.178C211.545 383.26 208.551 380.688 207.573 377.273C205.385 369.694 214.845 364.398 220.371 361.769C232.556 355.955 246.41 353.384 259.707 351.657C276.957 349.412 294.476 348.951 311.822 349.968C327.077 350.851 342.485 352.808 357.164 357.202C362.479 358.795 367.775 360.714 372.61 363.438C375.91 365.299 379.364 367.64 381.302 370.998C382.051 372.284 382.473 373.685 382.511 375.181C382.511 376.102 383.969 376.102 383.95 375.181C383.816 367.122 374.337 362.325 368.024 359.581C354.842 353.863 340.259 351.35 326.06 349.738C307.428 347.627 288.508 347.474 269.838 349.124C254.872 350.448 239.56 352.75 225.418 358.085C218.529 360.675 207.957 364.973 206.038 373.09C204.234 380.688 212.332 386.119 218.069 389.054C230.177 395.291 244.165 397.996 257.539 399.838C275.902 402.39 294.61 402.908 313.108 401.738C328.842 400.759 344.845 398.668 359.888 393.813C365.127 392.125 370.384 390.071 375.066 387.136C378.175 385.178 381.341 382.684 382.972 379.307C383.605 378.002 383.931 376.62 383.95 375.181C383.95 374.26 382.53 374.26 382.511 375.181V375.162Z" fill="#2B63A8"/>
<path d="M317.385 244.779C316.771 243.57 315.562 242.553 314.43 241.882C311.379 240.059 307.599 240.174 304.261 241.018C300.692 241.92 297.372 243.647 294.244 245.585C293.458 246.065 294.187 247.312 294.974 246.832C300.289 243.551 310.094 238.62 315.447 244.568C315.735 244.894 315.908 245.086 316.138 245.527C316.56 246.353 317.807 245.623 317.385 244.798V244.779Z" fill="#2B63A8"/>
<path d="M323.661 211.43C323.009 210.144 321.723 209.089 320.495 208.398C317.137 206.518 313.069 206.863 309.519 207.938C305.605 209.128 301.979 211.2 298.601 213.464C297.834 213.982 298.563 215.229 299.331 214.711C303.936 211.622 309.462 208.398 315.199 208.494C317.617 208.533 320.035 209.339 321.685 211.161C321.992 211.488 322.184 211.718 322.414 212.159C322.836 212.984 324.083 212.255 323.661 211.43Z" fill="#2B63A8"/>
<path d="M321.088 295.378C314.353 292.365 306.237 294.361 301.632 300.079C298.811 303.571 297.18 307.85 296.086 312.148C295.856 313.05 297.238 313.434 297.468 312.532C299.022 306.392 301.881 299.695 307.925 296.798C311.13 295.263 314.852 295.128 318.268 295.973C318.805 296.107 319.342 296.26 319.88 296.452C320.033 296.51 320.187 296.567 320.34 296.625C320.57 296.721 320.206 296.567 320.34 296.625C321.184 297.009 321.914 295.761 321.069 295.378H321.088Z" fill="#2B63A8"/>
<path d="M276.42 304.569C276.42 304.569 276.42 304.511 276.42 304.492C276.343 304.78 276.42 304.53 276.42 304.434C276.477 304.147 276.535 303.859 276.593 303.59C276.823 302.708 277.13 301.882 277.552 301.096C278.818 298.755 280.968 297.201 283.635 296.855C286.302 296.51 288.739 297.162 291.118 297.987C292.001 298.294 292.365 296.913 291.502 296.606C287.683 295.263 283.021 294.495 279.452 296.874C277.36 298.256 275.998 300.463 275.307 302.861C275.154 303.417 275.019 303.993 274.962 304.588C274.866 305.509 276.305 305.509 276.401 304.588L276.42 304.569Z" fill="#2B63A8"/>
<path d="M275.708 283.846C276.936 283.904 278.088 284.134 279.316 284.46C281.81 285.113 284.19 286.245 286.032 288.068C286.684 288.72 287.72 287.703 287.049 287.051C284.132 284.192 279.757 282.58 275.708 282.427C274.787 282.388 274.787 283.827 275.708 283.866V283.846Z" fill="#2B63A8"/>
<path d="M274.079 212.887C275.96 211.275 278.8 210.009 281.332 209.395C287.818 207.841 293.901 210.546 298.544 215.055C299.216 215.708 300.233 214.691 299.561 214.038C294.668 209.318 288.317 206.459 281.467 207.898C278.473 208.531 275.384 209.875 273.043 211.87C272.333 212.465 273.369 213.482 274.06 212.887H274.079Z" fill="#2B63A8"/>
<path d="M295.626 201.299C291.424 194.43 283.231 191.916 275.537 192.223C274.807 192.242 274.078 192.3 273.368 192.396C272.447 192.53 272.85 193.912 273.752 193.777C273.387 193.835 274.136 193.739 274.27 193.72C274.827 193.662 275.383 193.643 275.92 193.624C277.801 193.585 279.7 193.701 281.562 194.008C286.762 194.909 291.559 197.404 294.36 202.009C294.84 202.796 296.087 202.067 295.607 201.28L295.626 201.299Z" fill="#2B63A8"/>
<path d="M233.514 218.433C233.514 218.433 269.28 233.687 275.037 193.565C275.094 193.123 237.121 182.263 233.514 218.433Z" fill="#819B4B"/>
<path d="M233.15 219.066C244.701 223.959 259.975 223.383 268.302 213.022C272.159 208.205 274.232 202.18 275.325 196.174C275.575 194.85 276.323 193.411 274.941 192.759C274.308 192.452 273.522 192.337 272.831 192.164C266.077 190.591 258.651 190.437 251.973 192.394C247.215 193.795 242.84 196.405 239.616 200.223C235.318 205.346 233.438 211.889 232.747 218.452C232.651 219.373 234.09 219.373 234.186 218.452C235.28 208.109 240.019 198.419 250.17 194.524C256.559 192.068 263.793 191.953 270.471 193.162C271.468 193.335 272.447 193.546 273.426 193.814C273.733 193.891 274.02 194.006 274.327 194.083C274.73 194.179 274.5 194.236 274.5 194.083C274.443 193.507 274.097 194.697 274.136 194.62C273.963 195.042 273.963 195.637 273.867 196.098C273.713 196.942 273.522 197.786 273.33 198.611C272.965 200.146 272.524 201.662 272.006 203.159C271.085 205.768 269.876 208.282 268.322 210.585C263.601 217.492 255.907 220.716 247.714 220.601C244.394 220.563 241.094 220.044 237.908 219.181C236.891 218.912 235.894 218.605 234.896 218.241C234.666 218.164 233.533 217.723 233.86 217.857C233.015 217.492 232.286 218.74 233.131 219.104L233.15 219.066Z" fill="#2B63A8"/>
<path d="M271.411 192.299L247.982 207.669L244.605 209.895C243.838 210.394 244.548 211.641 245.334 211.142L268.763 195.772L272.14 193.546C272.908 193.048 272.198 191.8 271.411 192.299Z" fill="#2B63A8"/>
<path d="M223.037 171.422C223.037 171.422 232.977 216.457 275.651 194.352C276.131 194.103 260.435 149.989 223.037 171.422Z" fill="#819B4B"/>
<path d="M222.346 171.614C225.455 185.564 235.989 199.456 250.956 201.01C257.71 201.72 264.522 200.032 270.719 197.441C271.621 197.058 272.523 196.674 273.406 196.252C274.039 195.964 275.708 195.446 276.073 194.909C276.322 194.544 276.342 194.448 276.322 194.007C276.322 193.316 275.823 192.452 275.574 191.819C272.561 184.24 267.688 176.987 261.336 171.825C256.731 168.103 251.301 165.57 245.372 164.956C237.351 164.131 229.542 166.894 222.653 170.77C221.847 171.23 222.576 172.478 223.382 172.017C234.339 165.819 247.099 163.747 258.017 171.115C264.867 175.74 269.971 182.858 273.387 190.303C273.847 191.301 274.288 192.318 274.653 193.374C274.711 193.565 274.941 193.968 274.902 194.16C274.902 194.218 274.979 194.333 274.96 194.39C275.229 193.757 272.888 194.889 272.696 194.985C266.498 197.883 259.686 199.974 252.779 199.686C243.261 199.283 235.394 193.776 230.252 186.005C227.316 181.573 224.917 176.43 223.747 171.211C223.555 170.309 222.154 170.693 222.365 171.595L222.346 171.614Z" fill="#2B63A8"/>
<path d="M273.753 192.395L242.841 180.21L238.37 178.445C237.507 178.1 237.142 179.5 237.986 179.827L268.898 192.011L273.369 193.776C274.233 194.122 274.597 192.721 273.753 192.395Z" fill="#2B63A8"/>
<path d="M368.772 238.121C368.772 238.121 326.366 256.216 319.535 208.648C319.459 208.111 364.474 195.255 368.772 238.121Z" fill="#819B4B"/>
<path d="M368.408 237.487C368.734 237.353 367.64 237.775 367.448 237.852C366.489 238.197 365.51 238.504 364.532 238.792C361.327 239.713 358.027 240.365 354.688 240.615C345.612 241.325 336.402 239.022 330.031 232.172C325.484 227.279 322.874 220.889 321.358 214.461C321.128 213.502 320.917 212.523 320.744 211.545C320.667 211.084 320.572 210.643 320.495 210.182C320.456 209.971 320.111 208.801 320.053 209.108C320.053 209.165 319.977 209.242 320.284 209.07C320.994 208.647 322.145 208.532 322.951 208.36C330.357 206.709 338.417 206.537 345.766 208.551C351.138 210.029 356.089 212.811 359.83 216.994C365.011 222.789 367.237 230.522 368.043 238.101C368.139 239.022 369.578 239.022 369.482 238.101C368.158 225.571 362.594 213.771 350.467 208.647C342.293 205.194 332.89 205.04 324.256 206.633C323.028 206.863 319.958 207.036 319.036 208.091C318.365 208.878 319.132 210.701 319.305 211.583C319.727 213.905 320.265 216.188 320.955 218.433C321.972 221.753 323.315 224.976 325.1 227.951C330.588 237.046 339.932 241.939 350.447 242.169C356.703 242.303 363.361 241.152 369.137 238.696C369.981 238.331 369.252 237.103 368.408 237.449V237.487Z" fill="#2B63A8"/>
<path d="M323.027 208.474L350.812 226.684L354.822 229.313C355.59 229.831 356.319 228.583 355.551 228.065L327.767 209.856L323.756 207.227C322.989 206.709 322.26 207.956 323.027 208.474Z" fill="#2B63A8"/>
<path d="M363.477 190.476C363.477 190.476 355.226 227.854 319.823 209.491C319.421 209.28 332.468 172.669 363.477 190.476Z" fill="#819B4B"/>
<path d="M362.785 190.284C360.502 200.569 353.076 211.238 342.254 213.425C337.284 214.423 332.123 213.598 327.383 211.986C325.829 211.468 324.313 210.854 322.836 210.163C322.49 210.01 320.744 209.396 320.667 209.319C320.495 209.127 320.61 209.837 320.571 209.415C320.514 208.935 321.032 208.072 321.205 207.649C323.565 201.797 327.326 196.233 332.161 192.145C335.768 189.095 340.162 186.965 344.883 186.447C351.33 185.756 357.604 187.962 363.15 191.09C363.956 191.551 364.685 190.303 363.879 189.843C354.515 184.547 343.52 182.743 334.118 188.903C327.959 192.932 323.354 199.283 320.379 205.961C319.938 206.94 318.691 208.935 319.343 210.01C319.9 210.931 322.644 211.66 323.641 212.082C325.253 212.773 326.923 213.387 328.611 213.866C331.182 214.615 333.83 215.133 336.498 215.248C345.132 215.651 352.654 211.487 357.7 204.637C360.694 200.569 363.092 195.619 364.186 190.668C364.378 189.766 362.996 189.382 362.804 190.284H362.785Z" fill="#2B63A8"/>
<path d="M321.741 209.146L347.396 199.034L351.099 197.576C351.943 197.249 351.579 195.849 350.715 196.194L325.061 206.306L321.357 207.764C320.513 208.091 320.878 209.491 321.741 209.146Z" fill="#2B63A8"/>
<path d="M368.772 323.873C368.772 323.873 326.366 341.967 319.535 294.4C319.459 293.862 364.474 281.006 368.772 323.873Z" fill="#819B4B"/>
<path d="M368.408 323.239C368.734 323.105 367.64 323.527 367.448 323.604C366.489 323.949 365.51 324.256 364.532 324.544C361.327 325.465 358.027 326.117 354.688 326.367C345.612 327.077 336.402 324.774 330.031 317.924C325.484 313.031 322.874 306.641 321.358 300.213C321.128 299.254 320.917 298.275 320.744 297.297C320.667 296.836 320.572 296.395 320.495 295.934C320.456 295.723 320.111 294.553 320.053 294.86C320.053 294.917 319.977 294.994 320.284 294.821C320.994 294.399 322.145 294.284 322.951 294.112C330.357 292.461 338.417 292.289 345.766 294.303C351.138 295.781 356.089 298.563 359.83 302.746C365.011 308.541 367.237 316.274 368.043 323.853C368.139 324.774 369.578 324.774 369.482 323.853C368.158 311.323 362.594 299.523 350.467 294.399C342.293 290.945 332.89 290.792 324.256 292.385C323.028 292.615 319.958 292.788 319.036 293.843C318.365 294.63 319.132 296.452 319.305 297.335C319.727 299.657 320.265 301.94 320.955 304.185C321.972 307.505 323.315 310.728 325.1 313.703C330.588 322.798 339.932 327.691 350.447 327.921C356.703 328.055 363.361 326.904 369.137 324.448C369.981 324.083 369.252 322.855 368.408 323.201V323.239Z" fill="#2B63A8"/>
<path d="M323.027 294.226L350.812 312.436L354.822 315.065C355.59 315.583 356.319 314.335 355.551 313.817L327.767 295.608L323.756 292.979C322.989 292.461 322.26 293.708 323.027 294.226Z" fill="#2B63A8"/>
<path d="M365.356 275.46C365.356 275.46 356.741 314.489 319.765 295.32C319.343 295.109 332.967 256.867 365.356 275.46Z" fill="#819B4B"/>
<path d="M364.666 275.269C362.267 286.033 354.515 297.182 343.214 299.446C338.014 300.482 332.622 299.638 327.671 297.949C326.059 297.393 324.467 296.759 322.913 296.049C322.548 295.896 320.725 295.263 320.629 295.148C320.437 294.937 320.572 295.666 320.514 295.224C320.437 294.745 320.994 293.804 321.166 293.382C323.623 287.28 327.575 281.447 332.603 277.188C336.383 274.002 340.969 271.757 345.919 271.22C352.673 270.491 359.217 272.793 365.011 276.075C365.817 276.535 366.546 275.288 365.741 274.827C355.974 269.301 344.499 267.402 334.694 273.849C328.266 278.051 323.45 284.69 320.361 291.636C319.9 292.653 318.614 294.706 319.286 295.819C319.843 296.759 322.74 297.527 323.776 297.968C325.465 298.678 327.192 299.311 328.957 299.849C331.624 300.635 334.406 301.154 337.189 301.288C346.188 301.71 354.036 297.373 359.293 290.216C362.421 285.976 364.915 280.814 366.067 275.633C366.259 274.731 364.877 274.348 364.685 275.25L364.666 275.269Z" fill="#2B63A8"/>
<path d="M321.761 294.936L348.547 284.382L352.423 282.867C353.268 282.54 352.903 281.14 352.039 281.485L325.253 292.039L321.377 293.554C320.533 293.881 320.897 295.281 321.761 294.936Z" fill="#2B63A8"/>
<path d="M317.291 131.435C317.291 131.435 272.026 140.184 293.018 183.434C293.248 183.914 337.765 169.37 317.291 131.435Z" fill="#819B4B"/>
<path d="M317.099 130.744C303.091 133.469 288.911 143.677 286.993 158.567C286.129 165.34 287.626 172.191 290.063 178.484C290.408 179.386 290.792 180.288 291.176 181.171C291.444 181.804 291.924 183.492 292.442 183.857C292.826 184.126 292.922 184.126 293.363 184.106C294.035 184.106 294.879 183.665 295.493 183.435C303.149 180.633 310.536 175.932 315.871 169.734C319.727 165.244 322.395 159.853 323.162 153.943C324.179 145.941 321.646 138.055 317.924 131.051C317.482 130.226 316.254 130.955 316.677 131.78C322.567 142.852 324.294 155.612 316.734 166.319C311.956 173.092 304.646 178.043 297.105 181.267C296.088 181.689 295.071 182.111 294.015 182.437C293.824 182.495 293.382 182.725 293.171 182.686C293.018 182.648 293.037 182.686 293.094 182.706C293.344 182.859 292.595 180.806 292.442 180.441C289.717 174.224 287.818 167.413 288.24 160.563C288.835 150.949 294.61 143.14 302.612 138.151C307.102 135.349 312.263 133.123 317.482 132.107C318.384 131.934 318.001 130.533 317.099 130.725V130.744Z" fill="#2B63A8"/>
<path d="M294.936 181.746L307.927 151.122L309.788 146.747C310.153 145.903 308.905 145.173 308.541 146.018L295.55 176.642L293.689 181.017C293.325 181.861 294.572 182.59 294.936 181.746Z" fill="#2B63A8"/>
<path d="M218.527 284.959C218.527 284.959 246.983 321.244 275.862 282.829C276.188 282.407 242.915 249.442 218.527 284.959Z" fill="#819B4B"/>
<path d="M218.03 285.477C227.585 297.604 244.509 305.394 259.303 298.372C262.393 296.894 265.232 294.918 267.823 292.692C270.778 290.14 274.251 286.974 276.208 283.577C277.11 282.023 274.961 280.757 273.848 279.778C267.631 274.367 259.975 270.031 251.839 268.419C246.179 267.306 240.307 267.651 234.934 269.82C227.758 272.717 222.27 278.339 217.895 284.594C217.358 285.362 218.605 286.072 219.142 285.324C226.069 275.403 236.182 268.035 248.75 269.397C256.866 270.28 264.561 274.252 270.931 279.241C271.91 280.008 272.869 280.814 273.771 281.659C274.04 281.908 275.153 282.752 275.172 283.079C275.172 283.079 272.831 285.496 272.485 285.899C271.142 287.473 269.722 288.969 268.207 290.389C265.712 292.73 262.949 294.822 259.936 296.434C250.937 301.25 240.825 300.386 232.094 295.455C227.201 292.692 222.539 288.893 219.027 284.46C218.452 283.731 217.435 284.767 218.01 285.477H218.03Z" fill="#2B63A8"/>
<path d="M273.464 281.889L240.326 284.306L235.548 284.652C234.627 284.709 234.627 286.168 235.548 286.091L268.686 283.673L273.464 283.328C274.385 283.27 274.385 281.812 273.464 281.889Z" fill="#2B63A8"/>
<path d="M272.371 254.142C283.901 254.142 293.248 244.795 293.248 233.265C293.248 221.735 283.901 212.389 272.371 212.389C260.841 212.389 251.494 221.735 251.494 233.265C251.494 244.795 260.841 254.142 272.371 254.142Z" fill="#2B63A8"/>
<path d="M291.923 228.353C293.861 236.508 290.714 245.2 283.711 249.959C276.707 254.718 267.497 254.545 260.685 249.709C253.873 244.874 250.63 235.798 253.01 227.662C255.389 219.527 262.911 213.521 271.45 213.137C281.024 212.696 289.486 219.181 291.923 228.353C292.154 229.255 293.554 228.871 293.305 227.969C291.002 219.315 283.672 212.811 274.731 211.794C265.789 210.777 256.675 215.823 252.818 224.093C248.961 232.363 250.726 242.226 257.154 248.597C263.582 254.967 273.426 256.617 281.581 252.818C290.925 248.462 295.684 237.89 293.324 227.969C293.113 227.067 291.712 227.451 291.942 228.353H291.923Z" fill="#2B63A8"/>
<path d="M274.75 252.818C286.28 252.818 295.626 243.471 295.626 231.941C295.626 220.411 286.28 211.064 274.75 211.064C263.22 211.064 253.873 220.411 253.873 231.941C253.873 243.471 263.22 252.818 274.75 252.818Z" fill="#FCBC00"/>
<path d="M294.302 227.029C296.24 235.184 293.093 243.876 286.09 248.635C279.086 253.393 269.876 253.221 263.064 248.385C256.252 243.55 253.009 234.474 255.389 226.338C257.768 218.202 265.29 212.196 273.828 211.813C283.403 211.371 291.865 217.857 294.302 227.029C294.532 227.931 295.933 227.547 295.684 226.645C293.381 217.991 286.051 211.486 277.11 210.469C268.168 209.453 259.054 214.499 255.197 222.769C251.34 231.039 253.105 240.902 259.533 247.272C265.961 253.643 275.805 255.293 283.96 251.494C293.304 247.138 298.063 236.565 295.703 226.645C295.492 225.743 294.091 226.127 294.321 227.029H294.302Z" fill="#2B63A8"/>
<path d="M272.601 346.323C284.131 346.323 293.478 336.976 293.478 325.446C293.478 313.916 284.131 304.569 272.601 304.569C261.071 304.569 251.725 313.916 251.725 325.446C251.725 336.976 261.071 346.323 272.601 346.323Z" fill="#2B63A8"/>
<path d="M292.366 329.456C290.581 337.592 284.134 344.001 275.825 345.363C267.517 346.726 258.844 342.447 254.814 334.963C250.785 327.48 251.994 318.097 257.674 311.88C263.353 305.663 272.18 303.667 279.913 306.661C289.027 310.172 294.169 319.958 292.366 329.456C292.193 330.358 293.575 330.742 293.747 329.84C295.417 321.09 291.771 312.072 284.211 307.236C276.651 302.401 266.385 302.881 259.266 308.464C252.147 314.048 249.173 323.911 252.186 332.526C255.198 341.142 263.161 346.841 272.122 347.052C282.503 347.301 291.541 339.895 293.747 329.84C293.939 328.938 292.558 328.554 292.366 329.456Z" fill="#2B63A8"/>
<path d="M270.299 343.694C281.828 343.694 291.175 334.347 291.175 322.817C291.175 311.287 281.828 301.94 270.299 301.94C258.769 301.94 249.422 311.287 249.422 322.817C249.422 334.347 258.769 343.694 270.299 343.694Z" fill="#FCBC00"/>
<path d="M290.063 326.827C288.278 334.963 281.831 341.372 273.523 342.734C265.214 344.097 256.541 339.818 252.512 332.334C248.482 324.851 249.691 315.468 255.371 309.251C261.05 303.034 269.877 301.038 277.61 304.032C286.724 307.543 291.867 317.329 290.063 326.827C289.89 327.729 291.272 328.113 291.444 327.211C293.114 318.461 289.468 309.443 281.908 304.607C274.348 299.772 264.082 300.252 256.963 305.836C249.845 311.419 246.87 321.282 249.883 329.897C252.896 338.513 260.859 344.212 269.819 344.423C280.2 344.672 289.238 337.266 291.444 327.211C291.636 326.309 290.255 325.925 290.063 326.827Z" fill="#2B63A8"/>
<path d="M322.701 275.807C332.429 275.807 340.315 267.92 340.315 258.192C340.315 248.464 332.429 240.577 322.701 240.577C312.972 240.577 305.086 248.464 305.086 258.192C305.086 267.92 312.972 275.807 322.701 275.807Z" fill="#2B63A8"/>
<path d="M339.087 262.298C337.284 269.071 331.527 274.271 324.485 275C317.443 275.729 310.689 271.949 307.561 265.675C304.434 259.4 305.662 251.418 310.631 246.352C315.601 241.287 323.545 239.828 329.992 242.937C337.226 246.41 340.929 254.546 339.087 262.298C338.876 263.2 340.258 263.583 340.469 262.681C342.234 255.275 339.394 247.465 333.101 243.11C326.807 238.754 317.98 238.85 311.783 243.455C305.585 248.06 302.899 256.177 305.144 263.507C307.389 270.836 314.066 276.056 321.684 276.497C330.414 276.996 338.243 271.028 340.469 262.681C340.699 261.78 339.318 261.396 339.087 262.298Z" fill="#2B63A8"/>
<path d="M320.072 276.074C329.8 276.074 337.686 268.188 337.686 258.459C337.686 248.731 329.8 240.845 320.072 240.845C310.343 240.845 302.457 248.731 302.457 258.459C302.457 268.188 310.343 276.074 320.072 276.074Z" fill="#FCBC00"/>
<path d="M336.458 262.566C334.655 269.34 328.898 274.54 321.856 275.269C314.814 275.998 308.06 272.218 304.932 265.943C301.805 259.669 303.033 251.687 308.002 246.621C312.972 241.555 320.916 240.097 327.363 243.205C334.597 246.679 338.301 254.814 336.458 262.566C336.247 263.468 337.629 263.852 337.84 262.95C339.605 255.543 336.765 247.734 330.472 243.378C324.178 239.022 315.351 239.118 309.154 243.724C302.956 248.329 300.27 256.445 302.515 263.775C304.76 271.105 311.437 276.324 319.055 276.766C327.785 277.264 335.614 271.297 337.84 262.95C338.07 262.048 336.689 261.664 336.458 262.566Z" fill="#2B63A8"/>
<path d="M166.778 234.992L170.577 243.242C170.692 243.492 170.904 243.703 171.153 243.818L179.404 247.617C180.306 248.04 180.306 249.325 179.404 249.728L171.153 253.527C170.904 253.642 170.692 253.854 170.577 254.103L166.778 262.354C166.356 263.256 165.07 263.256 164.667 262.354L160.868 254.103C160.753 253.854 160.542 253.642 160.293 253.527L152.042 249.728C151.14 249.306 151.14 248.02 152.042 247.617L160.293 243.818C160.542 243.703 160.753 243.492 160.868 243.242L164.667 234.992C165.09 234.09 166.375 234.09 166.778 234.992Z" fill="white"/>
<path d="M166.164 235.357L169.637 242.917C170.04 243.78 170.482 244.318 171.364 244.72L175.662 246.697L177.85 247.714C178.138 247.848 178.848 248.021 179.039 248.251C179.865 249.268 177.082 250.036 176.603 250.247L171.805 252.453C170.961 252.837 170.309 253.106 169.848 253.988C169.158 255.293 168.62 256.675 168.006 258.018L166.989 260.244C166.778 260.685 166.586 261.51 166.241 261.875C165.262 262.93 164.687 260.704 164.418 260.129L162.211 255.332C161.808 254.449 161.521 253.413 160.619 252.895C159.487 252.242 158.201 251.782 157.031 251.244C155.687 250.63 154.095 250.132 152.848 249.326C151.6 248.52 152.982 247.982 153.788 247.618L159.084 245.181C160.101 244.72 161.06 244.433 161.597 243.397C162.365 241.938 162.979 240.384 163.67 238.887L164.821 236.393C164.917 236.201 165.531 234.378 166.164 235.376C166.663 236.163 167.91 235.433 167.411 234.647C166.433 233.092 164.629 233.476 163.9 234.973C163.132 236.546 162.442 238.158 161.693 239.751C161.252 240.71 160.811 242.552 159.928 243.224C158.873 244.011 157.242 244.452 156.052 245.008C154.632 245.661 153.116 246.236 151.754 246.985C150.296 247.791 150.296 249.613 151.754 250.419C153.116 251.168 154.632 251.743 156.052 252.396C157.242 252.933 158.873 253.394 159.928 254.18C160.83 254.852 161.252 256.694 161.693 257.653C162.422 259.246 163.113 260.858 163.9 262.431C164.629 263.909 166.452 264.35 167.411 262.757C168.083 261.644 168.544 260.301 169.081 259.131C169.752 257.692 170.29 256.003 171.134 254.66C171.671 253.816 173.091 253.47 173.955 253.067L179.059 250.707C180.306 250.132 181.515 248.923 180.383 247.522C180.018 247.061 179.423 246.87 178.905 246.62L176.123 245.335L173.072 243.934C172.592 243.723 171.921 243.531 171.498 243.205C171.076 242.878 170.923 242.322 170.712 241.861L169.388 239.002L167.373 234.628C166.989 233.783 165.742 234.512 166.126 235.357H166.164Z" fill="#2B63A8"/>
<path d="M166.338 235.242L169.811 242.802C170.195 243.647 170.598 244.126 171.461 244.529L175.759 246.506L177.947 247.523C178.254 247.676 178.887 247.81 179.136 248.06C180.326 249.307 177.237 250.171 176.699 250.42L171.902 252.627C171.077 253.01 170.463 253.241 170.022 254.085C169.331 255.39 168.794 256.771 168.18 258.114L167.163 260.34C166.952 260.82 166.76 261.568 166.414 261.971C165.244 263.372 164.534 260.839 164.246 260.225L162.04 255.428C161.656 254.584 161.368 253.567 160.524 253.068C159.392 252.416 158.106 251.955 156.936 251.418C155.573 250.785 154.019 250.286 152.753 249.499C152.311 249.23 151.294 249.077 152.35 248.06C152.637 247.772 153.328 247.599 153.693 247.446L158.989 245.009C159.967 244.568 160.907 244.299 161.426 243.301C162.193 241.843 162.807 240.289 163.498 238.792L164.649 236.297C164.745 236.067 164.86 235.703 165.014 235.511C165.244 235.223 165.302 233.611 166.338 235.281C166.683 235.837 167.585 235.319 167.22 234.762C166.319 233.323 164.726 233.726 164.054 235.089C163.287 236.662 162.596 238.274 161.848 239.866C161.406 240.845 160.946 242.745 160.006 243.397C158.912 244.165 157.358 244.625 156.13 245.182C154.729 245.834 153.175 246.371 151.832 247.158C150.527 247.925 150.508 249.48 151.832 250.247C153.155 251.015 154.71 251.571 156.13 252.224C157.339 252.78 158.893 253.241 160.006 254.008C160.946 254.661 161.406 256.56 161.848 257.539C162.577 259.131 163.268 260.743 164.054 262.317C164.707 263.66 166.319 264.101 167.22 262.643C167.892 261.53 168.352 260.187 168.89 259.016C169.561 257.577 170.099 255.908 170.943 254.545C171.499 253.644 172.938 253.298 173.84 252.895L178.944 250.535C180.057 250.017 181.247 248.981 180.23 247.676C179.885 247.235 179.29 247.043 178.791 246.813L176.009 245.527C174.55 244.855 172.708 244.318 171.403 243.397C170.924 243.071 170.77 242.495 170.54 241.977L169.216 239.118L167.201 234.743C166.933 234.148 166.031 234.666 166.319 235.261L166.338 235.242Z" fill="white"/>
<path d="M165.723 235.606L168.275 241.151C168.889 242.475 169.35 244.03 170.616 244.874C172.036 245.814 173.84 246.409 175.413 247.119C176.142 247.445 176.871 247.81 177.6 248.136C178.33 248.462 179.04 248.5 178.099 249.057C175.682 250.477 172.612 250.956 170.347 252.645C169.311 253.432 168.87 254.794 168.371 255.926C167.661 257.538 166.894 259.15 166.222 260.781C165.857 261.663 165.704 261.702 165.301 260.877C165.147 260.551 165.032 260.186 164.879 259.841C164.092 258.018 163.209 256.214 162.403 254.391C161.137 251.551 157.395 250.861 154.747 249.69C154.364 249.517 153.174 249.134 152.925 248.75L152.713 248.654C152.963 248.443 153.232 248.289 153.558 248.232C153.73 248.174 153.884 248.097 154.057 248.04C155.956 247.215 157.818 246.294 159.717 245.449C161.022 244.855 161.751 244.279 162.384 242.974C163.248 241.228 163.996 239.405 164.821 237.621C165.09 237.026 165.378 236.431 165.646 235.836C165.704 235.702 165.761 235.548 165.838 235.414C166.107 234.858 165.646 235.107 165.742 235.606C165.896 236.489 167.373 236.22 167.776 235.74C168.429 234.973 167.815 234.013 167.124 233.534C166.279 232.939 165.205 233.016 164.38 233.61C163.209 234.474 162.71 236.297 162.135 237.563C161.521 238.925 161.022 240.365 160.389 241.708C159.64 243.3 157.875 243.665 156.359 244.317C154.843 244.97 153.327 245.526 151.927 246.294C150.948 246.831 150.104 247.637 150.181 248.846C150.257 250.055 151.313 250.784 152.33 251.302C153.75 252.012 155.265 252.626 156.724 253.221C157.472 253.528 158.24 253.796 158.95 254.18C159.89 254.698 160.254 255.37 160.638 256.348C161.175 257.691 161.732 258.996 162.327 260.301C162.922 261.606 163.401 263.352 164.764 264.024C167.719 265.482 168.927 260.781 169.714 258.939C170.501 257.097 170.981 254.852 173.015 253.988C174.799 253.24 176.545 252.434 178.31 251.609C179.538 251.052 181.265 250.342 181.361 248.75C181.457 247.157 179.922 246.505 178.713 245.948C176.948 245.142 175.144 244.432 173.379 243.646C172.093 243.07 171.518 242.399 170.942 241.132C170.501 240.173 170.06 239.213 169.618 238.254L168.275 235.337C168.026 234.8 167.834 234.071 167.22 233.821C166.145 233.399 165.474 234.531 165.627 235.433C165.781 236.335 167.162 235.951 167.009 235.049L166.817 235.568L167.258 236.546L167.699 237.525L168.812 239.942C169.388 241.17 169.829 242.974 170.885 243.876C171.94 244.778 173.341 245.162 174.55 245.661C175.394 246.006 176.2 246.37 177.025 246.754C177.677 247.061 178.637 247.272 179.193 247.752C180.728 249.076 178.982 249.69 178.061 250.131C177.217 250.534 176.353 250.918 175.509 251.302C174.166 251.916 172.612 252.376 171.364 253.163C170.213 253.873 169.733 255.159 169.215 256.368C168.563 257.883 167.949 259.438 167.258 260.953C166.932 261.683 166.375 263.198 165.32 262.7C164.648 262.373 164.265 261.145 163.977 260.531C163.305 259.073 162.634 257.634 162.058 256.137C161.694 255.178 161.31 254.161 160.504 253.489C159.525 252.703 158.22 252.319 157.069 251.858C155.592 251.244 153.942 250.688 152.598 249.863C150.008 248.27 153.635 247.042 155.016 246.447C157.088 245.565 160.235 244.893 161.406 242.782C162.02 241.689 162.365 240.422 162.883 239.271C163.209 238.542 163.536 237.832 163.862 237.103C164.188 236.373 164.533 235.069 165.301 234.685C165.8 234.435 167.296 234.762 166.164 234.033C165.896 233.86 165.608 233.745 165.282 233.841C164.668 233.994 164.553 234.647 164.322 235.145C163.708 236.546 163.037 237.928 162.403 239.328C161.77 240.729 161.252 242.859 159.947 243.742C158.643 244.624 157.05 245.085 155.668 245.718C154.479 246.255 152.752 246.677 151.773 247.56C149.72 249.402 153.059 250.592 154.383 251.168C155.841 251.801 157.338 252.396 158.777 253.067C159.506 253.393 160.216 253.681 160.696 254.353C161.08 254.909 161.31 255.677 161.598 256.291C162.269 257.787 162.998 259.246 163.651 260.762C163.958 261.472 164.207 262.316 164.84 262.796C166.798 264.292 167.834 260.493 168.352 259.38C169.081 257.787 169.637 255.926 170.616 254.468C171.499 253.144 173.744 252.587 175.125 251.935C176.257 251.417 177.447 250.995 178.541 250.438C179.231 250.093 180.095 249.537 180.095 248.673C180.095 247.656 179.174 247.272 178.387 246.946C176.641 246.217 174.933 245.373 173.206 244.586C172.362 244.202 171.307 243.876 170.731 243.109C170.271 242.475 170.021 241.669 169.695 240.959L166.913 234.915C166.529 234.071 165.282 234.8 165.665 235.644L165.723 235.606Z" fill="#2B63A8"/>
<path d="M419.641 302.65L422.289 308.406C422.365 308.579 422.519 308.732 422.692 308.809L428.448 311.457C429.081 311.745 429.081 312.647 428.448 312.935L422.692 315.583C422.519 315.659 422.365 315.813 422.289 315.985L419.641 321.742C419.353 322.375 418.451 322.375 418.163 321.742L415.515 315.985C415.438 315.813 415.285 315.659 415.112 315.583L409.356 312.935C408.723 312.647 408.723 311.745 409.356 311.457L415.112 308.809C415.285 308.732 415.438 308.579 415.515 308.406L418.163 302.65C418.451 302.017 419.353 302.017 419.641 302.65Z" fill="white"/>
<path d="M419.008 302.994L421.425 308.252C422.135 309.806 424.227 310.286 425.704 310.957L427.239 311.667C427.374 311.725 428.007 311.917 428.064 312.051C428.237 312.454 426.625 312.953 426.376 313.068L423.037 314.603C422.423 314.891 421.924 315.102 421.598 315.754C421.118 316.656 420.735 317.635 420.312 318.556L419.602 320.11C419.487 320.379 419.315 321.05 419.084 321.242C418.662 321.607 418.355 320.36 418.202 320.033L416.667 316.695C416.36 316.042 416.149 315.313 415.477 314.929C414.69 314.488 413.789 314.162 412.963 313.778C412.023 313.356 410.91 313.011 410.047 312.435C409.874 312.32 409.605 312.339 409.759 312.051C409.855 311.878 410.527 311.706 410.699 311.629L414.383 309.94C415.132 309.595 415.822 309.384 416.206 308.616C416.743 307.6 417.166 306.506 417.645 305.47L418.451 303.743C418.451 303.743 418.835 302.745 419.008 303.033C419.507 303.819 420.754 303.09 420.255 302.304C419.487 301.076 418.029 301.325 417.434 302.534C416.897 303.628 416.417 304.76 415.899 305.873C415.592 306.525 415.304 307.734 414.748 308.214C414.518 308.405 414.115 308.501 413.846 308.616L412.042 309.442C411.064 309.902 410.008 310.286 409.049 310.823C407.898 311.456 407.898 312.953 409.049 313.605C410.008 314.123 411.045 314.526 412.042 314.987L413.846 315.812C414.115 315.927 414.518 316.042 414.748 316.215C415.324 316.695 415.611 317.904 415.899 318.556C416.417 319.669 416.897 320.801 417.434 321.895C418.01 323.046 419.526 323.391 420.255 322.125C420.715 321.338 421.042 320.417 421.425 319.592C421.886 318.614 422.25 317.366 422.864 316.484C423.229 315.946 424.169 315.716 424.745 315.447L428.314 313.816C429.312 313.356 430.175 312.32 429.273 311.245C428.986 310.9 428.583 310.766 428.199 310.593L426.261 309.71L424.131 308.732C423.805 308.578 423.306 308.463 423.037 308.233C422.788 308.022 422.692 307.657 422.557 307.369L421.636 305.374L420.236 302.323C419.852 301.479 418.605 302.208 418.988 303.052L419.008 302.994Z" fill="#2B63A8"/>
<path d="M419.314 302.822L421.731 308.08C422 308.675 422.288 309.001 422.883 309.289L425.876 310.67L427.411 311.38C427.622 311.476 428.063 311.591 428.236 311.764C429.061 312.627 426.912 313.242 426.548 313.395L423.209 314.93C422.633 315.199 422.211 315.371 421.885 315.947C421.405 316.849 421.021 317.827 420.599 318.748L419.889 320.303C419.736 320.629 419.602 321.166 419.371 321.435C418.546 322.413 418.066 320.648 417.855 320.226L416.32 316.887C416.052 316.292 415.86 315.582 415.265 315.237C414.478 314.796 413.576 314.47 412.751 314.086C411.811 313.644 410.717 313.299 409.835 312.743C409.528 312.551 408.818 312.455 409.547 311.726C409.758 311.534 410.238 311.419 410.487 311.304L414.171 309.615C414.843 309.308 415.514 309.116 415.879 308.425C416.416 307.408 416.838 306.315 417.318 305.278L418.124 303.551C418.201 303.398 418.258 303.129 418.373 302.995C418.527 302.803 418.565 301.671 419.294 302.842C419.544 303.225 420.158 302.88 419.909 302.477C419.275 301.479 418.162 301.767 417.702 302.707C417.165 303.801 416.685 304.933 416.167 306.046C415.86 306.718 415.534 308.061 414.881 308.521C414.114 309.058 413.039 309.365 412.176 309.768C411.197 310.21 410.123 310.594 409.182 311.15C408.242 311.706 408.261 312.762 409.182 313.299C410.103 313.836 411.197 314.22 412.176 314.681C413.02 315.064 414.114 315.391 414.881 315.928C415.534 316.388 415.86 317.712 416.167 318.403C416.685 319.516 417.165 320.648 417.702 321.742C418.162 322.682 419.295 322.989 419.909 321.972C420.388 321.205 420.695 320.264 421.079 319.439C421.54 318.422 421.923 317.271 422.518 316.331C422.902 315.698 423.9 315.467 424.533 315.18L428.102 313.549C428.869 313.184 429.714 312.455 428.985 311.553C428.735 311.246 428.332 311.112 427.987 310.958L426.049 310.075C425.032 309.615 423.746 309.231 422.825 308.598C422.499 308.368 422.384 307.965 422.23 307.619L421.309 305.624L419.909 302.573C419.717 302.151 419.103 302.515 419.294 302.937L419.314 302.822Z" fill="white"/>
<path d="M418.7 303.187L420.485 307.044C420.926 308.003 421.272 309.116 422.193 309.711C423.19 310.363 424.438 310.786 425.531 311.285C426.03 311.515 426.548 311.764 427.066 311.994C427.278 312.09 427.508 312.148 427.719 312.263C427.815 311.994 427.776 311.956 427.642 312.129C427.565 312.186 427.489 312.225 427.412 312.263C425.723 313.261 423.613 313.606 422.001 314.758C421.233 315.314 420.907 316.293 420.542 317.137C420.063 318.231 419.334 319.401 419.027 320.572C419.007 320.668 418.777 320.994 419.065 321.051C418.969 321.051 418.835 320.668 418.796 320.591C418.681 320.36 418.604 320.111 418.509 319.862C417.952 318.595 417.338 317.329 416.782 316.062C415.88 314.048 413.251 313.549 411.371 312.704C411.025 312.551 410.469 312.11 410.104 312.052L409.951 311.975C410.066 312.263 410.238 312.301 410.488 312.071C410.622 312.033 410.757 311.956 410.891 311.918C412.215 311.342 413.52 310.709 414.844 310.114C415.784 309.692 416.321 309.251 416.782 308.31C417.376 307.082 417.914 305.816 418.47 304.588C418.662 304.166 418.854 303.763 419.046 303.341C419.103 303.225 419.199 303.11 419.199 302.995C419.238 302.496 418.739 303.187 418.739 303.187C418.739 303.437 419.314 303.648 419.487 303.686C419.852 303.744 420.235 303.609 420.485 303.321C421.041 302.688 420.581 301.844 419.986 301.441C419.334 300.98 418.509 301.038 417.856 301.499C416.993 302.113 416.628 303.417 416.225 304.338C415.822 305.259 415.438 306.276 414.997 307.217C414.498 308.272 413.309 308.502 412.33 308.924C411.275 309.366 410.181 309.769 409.183 310.325C408.435 310.747 407.821 311.361 407.859 312.282C407.898 313.203 408.684 313.779 409.471 314.182C410.488 314.681 411.543 315.122 412.599 315.544C413.097 315.755 413.616 315.928 414.095 316.197C414.709 316.523 414.92 316.945 415.17 317.578C415.554 318.518 415.957 319.459 416.379 320.38C416.801 321.301 417.165 322.548 418.144 323.047C420.37 324.16 421.272 320.859 421.905 319.439C422.442 318.211 422.749 316.676 424.073 316.101C425.32 315.563 426.568 315.007 427.815 314.431C428.755 314.009 429.983 313.453 430.041 312.244C430.098 311.035 429.024 310.536 428.083 310.114C426.855 309.558 425.608 309.059 424.361 308.502C423.478 308.099 423.133 307.696 422.749 306.833C422.442 306.161 422.135 305.509 421.828 304.837L420.888 302.803C420.677 302.362 420.523 301.825 420.024 301.652C419.103 301.307 418.509 302.247 418.643 303.053C418.796 303.955 420.178 303.571 420.024 302.669L419.487 303.206L419.794 303.878L420.101 304.549L420.869 306.238C421.272 307.121 421.598 308.368 422.346 309.02C423.095 309.673 424.111 309.961 424.994 310.325C425.551 310.555 426.107 310.805 426.664 311.073C427.105 311.285 427.815 311.438 428.16 311.764C428.966 312.474 427.892 312.8 427.373 313.05C426.779 313.318 426.184 313.587 425.589 313.875C424.649 314.297 423.574 314.623 422.692 315.18C421.809 315.736 421.483 316.619 421.118 317.482C420.658 318.538 420.235 319.612 419.756 320.668C419.564 321.09 419.295 321.991 418.7 321.8C418.297 321.665 417.99 320.687 417.856 320.361C417.396 319.363 416.935 318.365 416.551 317.348C416.283 316.638 415.995 315.909 415.4 315.41C414.69 314.815 413.75 314.546 412.925 314.22C411.908 313.798 410.795 313.414 409.855 312.858C409.279 312.493 409.03 312.167 409.72 311.707C410.258 311.361 410.91 311.131 411.505 310.882C413.021 310.248 415.247 309.769 416.091 308.234C416.513 307.466 416.762 306.583 417.127 305.797C417.357 305.298 417.568 304.799 417.799 304.3C418.048 303.782 418.24 303.053 418.72 302.688C419.199 302.324 420.197 302.42 419.334 301.863C419.103 301.71 418.835 301.633 418.547 301.71C418.048 301.844 417.933 302.304 417.76 302.727C417.338 303.705 416.858 304.665 416.417 305.643C416.014 306.564 415.63 308.042 414.786 308.637C413.942 309.231 412.752 309.577 411.812 310.018C410.968 310.402 409.74 310.709 409.049 311.342C407.475 312.781 409.816 313.721 410.91 314.201C411.927 314.642 412.963 315.065 413.98 315.525C414.441 315.736 414.92 315.928 415.227 316.35C415.496 316.734 415.65 317.271 415.861 317.713C416.321 318.73 416.82 319.746 417.261 320.783C417.492 321.32 417.664 321.915 418.144 322.298C419.698 323.507 420.504 320.821 420.945 319.862C421.444 318.749 421.847 317.444 422.519 316.446C423.114 315.563 424.649 315.199 425.589 314.758C426.587 314.297 429.158 313.721 429.158 312.301C429.158 311.476 428.448 311.15 427.815 310.901C426.606 310.402 425.435 309.826 424.265 309.27C423.709 309.02 422.999 308.809 422.615 308.31C422.289 307.888 422.116 307.293 421.886 306.814L419.948 302.611C419.564 301.767 418.317 302.496 418.7 303.341V303.187Z" fill="#2B63A8"/>
<path d="M363.208 89.0683L366.566 96.3598C366.662 96.59 366.853 96.7627 367.065 96.8587L374.356 100.217C375.162 100.581 375.162 101.713 374.356 102.078L367.065 105.436C366.834 105.532 366.662 105.724 366.566 105.935L363.208 113.226C362.843 114.032 361.711 114.032 361.346 113.226L357.989 105.935C357.893 105.704 357.701 105.532 357.49 105.436L350.198 102.078C349.392 101.713 349.392 100.581 350.198 100.217L357.49 96.8587C357.72 96.7627 357.893 96.5709 357.989 96.3598L361.346 89.0683C361.711 88.2624 362.843 88.2624 363.208 89.0683Z" fill="white"/>
<path d="M362.574 89.4322L365.644 96.0905C366.009 96.858 366.412 97.3377 367.198 97.7023L370.997 99.4484L372.935 100.331C373.166 100.446 373.837 100.6 373.991 100.811C374.566 101.617 372.245 102.25 371.842 102.423L367.601 104.361C366.834 104.706 366.258 104.955 365.836 105.742C365.222 106.893 364.742 108.121 364.205 109.292L363.303 111.249C363.13 111.633 362.938 112.381 362.631 112.688C361.864 113.475 361.403 111.633 361.173 111.153L359.235 106.932C358.871 106.126 358.602 105.224 357.796 104.764C356.798 104.188 355.666 103.785 354.63 103.305C353.44 102.768 352.02 102.327 350.946 101.617C349.871 100.907 351.099 100.561 351.771 100.254L356.434 98.1052C357.336 97.6831 358.199 97.4337 358.679 96.4934C359.35 95.2078 359.907 93.8263 360.521 92.5023L361.538 90.3149C361.595 90.1997 362.113 88.6839 362.574 89.413C363.073 90.1997 364.32 89.4706 363.821 88.6839C362.919 87.2448 361.25 87.5901 360.578 88.9717C359.907 90.3532 359.293 91.7923 358.64 93.1931C358.257 94.0374 357.873 95.63 357.105 96.2248C356.798 96.4551 356.319 96.5894 355.973 96.7429L353.69 97.7982C352.443 98.3739 351.099 98.8728 349.91 99.5444C348.567 100.293 348.567 101.981 349.91 102.73C351.119 103.401 352.443 103.9 353.69 104.476L355.973 105.531C356.319 105.685 356.798 105.819 357.105 106.049C357.873 106.644 358.257 108.237 358.64 109.081C359.293 110.482 359.907 111.921 360.578 113.302C361.25 114.684 362.958 115.048 363.821 113.59C364.416 112.592 364.819 111.422 365.299 110.386C365.893 109.119 366.373 107.623 367.121 106.433C367.582 105.704 368.829 105.416 369.578 105.071L374.087 102.998C375.238 102.48 376.313 101.329 375.276 100.062C374.931 99.6403 374.432 99.4676 373.952 99.2565L371.496 98.1244L368.81 96.8964C368.388 96.7045 367.793 96.551 367.429 96.2632C367.064 95.9754 366.949 95.5148 366.757 95.1119L365.606 92.5982L363.821 88.7414C363.437 87.8972 362.19 88.6263 362.574 89.4706V89.4322Z" fill="#2B63A8"/>
<path d="M362.805 89.2975L365.875 95.9558C366.22 96.7041 366.585 97.1263 367.333 97.4716L371.133 99.2178L373.071 100.1C373.339 100.235 373.915 100.35 374.126 100.58C375.181 101.674 372.457 102.441 371.977 102.652L367.736 104.59C367.007 104.917 366.47 105.147 366.067 105.876C365.453 107.027 364.973 108.255 364.436 109.426L363.534 111.383C363.342 111.805 363.17 112.477 362.863 112.822C361.826 114.05 361.193 111.824 360.944 111.287L359.006 107.066C358.66 106.317 358.411 105.416 357.663 104.993C356.665 104.418 355.533 104.015 354.496 103.535C353.307 102.979 351.925 102.537 350.812 101.847C350.429 101.616 349.527 101.463 350.467 100.561C350.716 100.311 351.33 100.158 351.657 100.024L356.319 97.8746C357.183 97.4716 358.008 97.2414 358.468 96.3587C359.14 95.0731 359.696 93.6916 360.31 92.3676L361.327 90.1802C361.423 89.9691 361.5 89.6621 361.654 89.4894C361.865 89.2399 361.903 87.8008 362.824 89.2783C363.131 89.7772 363.918 89.3167 363.611 88.8178C362.805 87.5514 361.404 87.916 360.829 89.1056C360.138 90.4872 359.543 91.9263 358.891 93.327C358.488 94.1905 358.085 95.8598 357.26 96.4547C356.281 97.1454 354.919 97.5292 353.844 98.0281C352.597 98.6037 351.235 99.0835 350.064 99.7742C348.894 100.465 348.913 101.827 350.064 102.499C351.235 103.19 352.616 103.669 353.844 104.245C354.919 104.744 356.281 105.128 357.26 105.818C358.085 106.394 358.488 108.083 358.891 108.946C359.543 110.347 360.157 111.786 360.829 113.168C361.404 114.357 362.824 114.741 363.611 113.455C364.206 112.477 364.609 111.287 365.088 110.251C365.683 108.965 366.163 107.507 366.911 106.298C367.41 105.511 368.657 105.204 369.463 104.84L373.972 102.768C374.951 102.307 376.006 101.386 375.105 100.235C374.798 99.8318 374.279 99.6783 373.838 99.4672L371.382 98.3351C370.096 97.7403 368.465 97.2798 367.314 96.4547C366.892 96.1669 366.758 95.6488 366.547 95.2074L365.395 92.6938L363.611 88.837C363.361 88.2997 362.575 88.7602 362.824 89.2975H362.805Z" fill="white"/>
<path d="M362.191 89.6619L364.436 94.5549C364.973 95.7445 365.395 97.1261 366.527 97.8744C367.794 98.6995 369.386 99.2176 370.749 99.8508C371.401 100.139 372.034 100.465 372.687 100.733C373.301 101.002 373.915 100.945 373.128 101.405C370.998 102.652 368.293 103.094 366.278 104.571C365.338 105.262 364.954 106.471 364.494 107.507C363.86 108.946 363.17 110.366 362.594 111.805C362.69 111.556 362.306 112.496 362.306 112.496C362.21 112.496 361.98 111.939 361.941 111.863C361.788 111.575 361.692 111.249 361.558 110.942C360.867 109.33 360.08 107.737 359.37 106.145C358.238 103.631 354.938 103.017 352.597 101.962C352.194 101.789 351.292 101.482 350.985 101.136L350.793 101.04C351.043 101.04 351.292 100.945 351.522 100.81C351.676 100.753 351.829 100.695 351.983 100.618C353.671 99.8892 355.302 99.0833 356.972 98.3349C358.123 97.8169 358.795 97.2796 359.351 96.1283C360.119 94.5741 360.771 92.9815 361.5 91.408C361.75 90.8899 361.999 90.3527 362.229 89.8346C362.287 89.7003 362.364 89.5852 362.402 89.4316C362.575 88.7793 362.153 89.5276 362.172 89.6235C362.229 90.487 363.745 90.1608 364.091 89.7578C364.705 89.0479 364.148 88.1269 363.496 87.6663C362.728 87.1291 361.75 87.1866 361.001 87.7239C359.946 88.4914 359.505 90.1032 358.987 91.2353C358.449 92.4442 358.008 93.7106 357.432 94.8811C356.78 96.2626 355.245 96.5888 353.94 97.1453C352.635 97.7017 351.254 98.2198 350.006 98.9106C349.124 99.4095 348.356 100.139 348.433 101.232C348.51 102.326 349.45 102.998 350.371 103.477C351.637 104.111 352.961 104.648 354.285 105.185C354.938 105.454 355.609 105.684 356.223 106.01C357.029 106.452 357.336 107.027 357.682 107.871C358.142 109.061 358.66 110.212 359.178 111.383C359.696 112.553 360.138 114.088 361.347 114.683C364.014 116.007 365.108 111.843 365.837 110.174C366.566 108.505 366.95 106.586 368.696 105.857C370.269 105.185 371.823 104.475 373.378 103.765C374.491 103.247 376.026 102.614 376.102 101.175C376.179 99.7357 374.836 99.1408 373.723 98.642C372.169 97.932 370.576 97.2988 369.022 96.608C367.89 96.0899 367.41 95.5335 366.911 94.4206C366.527 93.5763 366.144 92.732 365.741 91.8877L364.551 89.3165C364.321 88.8176 364.129 88.1652 363.572 87.935C362.556 87.5512 361.922 88.6066 362.057 89.47C362.21 90.3719 363.592 89.9881 363.438 89.0863L363.112 89.6043L363.515 90.4678L363.918 91.3313L364.896 93.4612C365.395 94.5549 365.798 96.1475 366.739 96.9534C367.679 97.7593 368.926 98.1047 370.02 98.546C370.749 98.8338 371.459 99.1792 372.188 99.5054C372.764 99.7741 373.627 99.9659 374.088 100.369C375.335 101.463 373.857 101.962 373.09 102.307C372.322 102.652 371.593 102.998 370.826 103.343C369.636 103.88 368.274 104.302 367.161 104.993C366.144 105.626 365.683 106.778 365.242 107.852C364.666 109.195 364.129 110.558 363.515 111.901C363.227 112.534 362.824 113.743 361.922 113.417C361.347 113.206 361.001 112.016 360.771 111.536C360.176 110.27 359.581 108.984 359.082 107.68C358.756 106.816 358.411 105.914 357.682 105.3C356.818 104.59 355.648 104.245 354.612 103.823C353.326 103.285 351.868 102.806 350.678 102.077C349.834 101.559 349.508 100.945 350.505 100.292C351.196 99.8316 352.04 99.5438 352.808 99.2176C354.669 98.4309 357.451 97.8361 358.507 95.9364C359.044 94.9578 359.351 93.8641 359.812 92.8471C360.099 92.2139 360.387 91.5807 360.675 90.9475C360.982 90.2759 361.251 89.259 361.922 88.856C362.383 88.5682 363.745 88.8176 362.69 88.1269C362.44 87.9733 362.153 87.8582 361.846 87.935C361.27 88.0885 361.155 88.6641 360.944 89.1246C360.406 90.3719 359.812 91.5807 359.255 92.8279C358.699 94.0752 358.238 95.9364 357.106 96.704C355.974 97.4715 354.535 97.8936 353.326 98.4501C352.271 98.9298 350.736 99.3135 349.872 100.081C347.992 101.75 350.966 102.863 352.194 103.381C353.48 103.938 354.803 104.456 356.07 105.051C356.703 105.339 357.317 105.588 357.72 106.164C358.065 106.663 358.257 107.334 358.507 107.871C359.102 109.176 359.735 110.481 360.31 111.805C360.579 112.438 360.809 113.187 361.385 113.628C363.189 115.009 364.129 111.652 364.628 110.596C365.28 109.195 365.76 107.545 366.623 106.26C367.391 105.108 369.367 104.609 370.576 104.072C371.574 103.612 372.61 103.247 373.589 102.748C374.222 102.422 374.989 101.923 375.009 101.117C375.009 100.177 374.184 99.8124 373.435 99.5246C371.9 98.8914 370.403 98.1431 368.888 97.4523C368.158 97.1069 367.237 96.8383 366.739 96.1667C366.336 95.6102 366.105 94.8811 365.817 94.2671L363.361 88.9328C362.978 88.0885 361.73 88.8176 362.114 89.6619H362.191Z" fill="#2B63A8"/>
<path d="M294.878 373.357C259.783 373.357 230.905 381.301 227.221 391.49C243.435 397.266 267.727 400.931 294.878 400.931C322.029 400.931 346.341 397.266 362.535 391.49C358.851 381.282 329.973 373.357 294.878 373.357Z" fill="#3C2415"/>
<path d="M297.871 401.277V332.526C297.871 321.416 298.831 310.037 294.283 299.599C291.539 293.324 287.721 287.702 285.61 281.121C284.171 276.65 283.307 271.949 283.576 267.228C283.825 263.026 285.034 258.901 287.203 255.293C289.735 251.072 293.42 247.887 296.835 244.414C300.251 240.941 303.167 236.93 304.05 231.961C304.741 228.027 304.242 224.247 302.841 220.525C301.095 215.919 298.965 211.525 297.545 206.786C295.319 199.418 294.129 191.762 293.727 184.086C293.669 183.165 292.23 183.165 292.287 184.086C292.901 195.638 295.434 206.728 299.982 217.359C301.383 220.621 302.803 223.902 302.937 227.509C303.129 232.536 301.306 237.161 298.082 240.96C295.108 244.471 291.482 247.33 288.584 250.899C285.859 254.238 283.845 258.076 282.866 262.259C280.832 270.97 283.173 279.989 286.742 287.971C289.678 294.514 293.746 300.328 295.415 307.428C296.163 310.651 296.47 313.913 296.47 317.194C296.47 320.859 296.47 324.524 296.47 328.189V401.296C296.47 402.217 297.91 402.217 297.91 401.296L297.871 401.277Z" fill="#2B63A8"/>
<path d="M267.478 322.375L272.506 333.83C272.41 333.926 272.333 333.869 272.256 333.83C271.335 333.581 270.433 333.331 269.512 333.101C269.32 333.043 269.205 332.947 269.128 332.775C267.574 329.187 266.001 325.618 264.427 322.049C264.351 321.876 264.331 321.703 264.389 321.511C264.504 321.147 264.619 320.782 264.677 320.398C264.734 320.053 264.869 319.957 265.214 320.072C265.962 320.302 266.73 320.514 267.497 320.648C268.457 320.821 269.435 320.821 270.376 320.494C271.316 320.168 272.026 319.554 272.448 318.633C272.582 318.364 272.544 318.249 272.218 318.153C270.03 317.578 267.843 316.983 265.675 316.407L265.041 316.235C265.655 315.697 266.212 315.198 266.768 314.719C266.903 314.604 267.037 314.719 267.152 314.719C268.917 315.179 270.683 315.659 272.448 316.139C272.563 316.177 272.697 316.273 272.793 316.177C272.87 316.081 272.793 315.947 272.755 315.832C272.41 314.661 271.527 314.028 270.491 313.587C269.244 313.049 267.92 312.762 266.615 312.416C266.48 312.378 266.346 312.339 266.116 312.282C266.73 311.745 267.286 311.246 267.843 310.766C267.939 310.689 268.035 310.728 268.111 310.766C272.237 311.86 276.343 312.973 280.449 314.066C280.488 314.22 280.373 314.239 280.315 314.297C279.893 314.68 279.432 315.045 279.029 315.448C278.838 315.64 278.665 315.659 278.415 315.582C277.456 315.314 276.477 315.064 275.441 314.776C275.537 315.083 275.633 315.352 275.71 315.64C275.806 316.004 275.863 316.388 275.825 316.772C275.825 317.021 275.902 317.098 276.132 317.156C277.226 317.424 278.32 317.731 279.49 318.057C279.106 318.403 278.742 318.652 278.454 318.998C277.955 319.573 277.418 319.708 276.727 319.401C276.362 319.247 275.979 319.19 275.595 319.074C275.422 319.036 275.326 319.036 275.249 319.209C274.309 321.147 272.659 322.087 270.587 322.394C269.666 322.528 268.745 322.509 267.843 322.336C267.766 322.336 267.67 322.317 267.593 322.298C267.574 322.298 267.555 322.298 267.497 322.336L267.478 322.375Z" fill="white"/>
<path d="M273.08 234.128L283.442 241.151C283.423 241.286 283.308 241.266 283.231 241.286C282.329 241.573 281.427 241.842 280.525 242.13C280.333 242.187 280.18 242.168 280.007 242.053C276.784 239.866 273.541 237.659 270.317 235.472C270.144 235.357 270.049 235.241 270.01 235.05C269.914 234.685 269.818 234.32 269.665 233.956C269.53 233.63 269.588 233.495 269.953 233.399C270.701 233.188 271.468 232.977 272.198 232.67C273.099 232.286 273.925 231.788 274.558 231.02C275.191 230.233 275.46 229.351 275.325 228.334C275.287 228.027 275.21 227.95 274.884 228.046C272.735 228.737 270.567 229.389 268.418 230.061L267.784 230.252C268.015 229.466 268.226 228.756 268.437 228.046C268.494 227.892 268.648 227.892 268.763 227.854C270.509 227.317 272.255 226.779 274.001 226.223C274.116 226.185 274.289 226.223 274.308 226.069C274.308 225.954 274.174 225.878 274.078 225.801C273.157 224.995 272.082 224.937 270.95 225.11C269.607 225.321 268.341 225.782 267.036 226.165C266.902 226.204 266.767 226.242 266.537 226.319C266.767 225.532 266.978 224.822 267.19 224.112C267.228 223.997 267.324 223.978 267.42 223.959C271.488 222.692 275.556 221.445 279.623 220.179C279.739 220.275 279.662 220.371 279.623 220.447C279.47 221.004 279.278 221.56 279.144 222.117C279.086 222.385 278.952 222.5 278.683 222.558C277.724 222.846 276.764 223.153 275.747 223.46C275.997 223.671 276.227 223.844 276.419 224.036C276.707 224.304 276.937 224.592 277.129 224.918C277.244 225.129 277.378 225.148 277.609 225.091C278.683 224.745 279.758 224.419 280.928 224.055C280.794 224.554 280.602 224.957 280.544 225.398C280.429 226.146 280.046 226.549 279.297 226.664C278.913 226.722 278.549 226.895 278.165 226.99C277.992 227.029 277.935 227.106 277.954 227.298C278.184 229.447 277.282 231.116 275.709 232.478C274.999 233.092 274.212 233.553 273.349 233.898C273.272 233.937 273.195 233.975 273.119 234.013C273.119 234.013 273.099 234.052 273.061 234.09L273.08 234.128Z" fill="white"/>
<path d="M317.884 259.189L322.912 270.645C322.816 270.741 322.739 270.683 322.662 270.645C321.741 270.395 320.839 270.146 319.918 269.915C319.727 269.858 319.611 269.762 319.535 269.589C317.98 266.001 316.407 262.432 314.834 258.863C314.757 258.69 314.738 258.518 314.795 258.326C314.91 257.961 315.025 257.597 315.083 257.213C315.141 256.868 315.275 256.772 315.62 256.887C316.369 257.117 317.136 257.328 317.904 257.462C318.863 257.635 319.842 257.635 320.782 257.309C321.722 256.983 322.432 256.369 322.854 255.448C322.989 255.179 322.95 255.064 322.624 254.968C320.436 254.392 318.249 253.797 316.081 253.222L315.448 253.049C316.062 252.512 316.618 252.013 317.175 251.533C317.309 251.418 317.443 251.533 317.558 251.533C319.324 251.994 321.089 252.473 322.854 252.953C322.969 252.991 323.104 253.087 323.2 252.992C323.276 252.896 323.2 252.761 323.161 252.646C322.816 251.476 321.933 250.842 320.897 250.401C319.65 249.864 318.326 249.576 317.021 249.231C316.887 249.192 316.752 249.154 316.522 249.096C317.136 248.559 317.693 248.06 318.249 247.58C318.345 247.504 318.441 247.542 318.518 247.58C322.643 248.674 326.749 249.787 330.856 250.881C330.894 251.034 330.779 251.053 330.721 251.111C330.299 251.495 329.839 251.859 329.436 252.262C329.244 252.454 329.071 252.473 328.822 252.397C327.862 252.128 326.884 251.879 325.848 251.591C325.943 251.898 326.039 252.166 326.116 252.454C326.212 252.819 326.27 253.203 326.231 253.586C326.231 253.836 326.308 253.913 326.538 253.97C327.632 254.239 328.726 254.546 329.896 254.872C329.512 255.217 329.148 255.467 328.86 255.812C328.361 256.388 327.824 256.522 327.133 256.215C326.769 256.062 326.385 256.004 326.001 255.889C325.828 255.851 325.732 255.851 325.656 256.023C324.715 257.961 323.065 258.901 320.993 259.208C320.072 259.343 319.151 259.324 318.249 259.151C318.172 259.151 318.076 259.132 318 259.113C317.98 259.113 317.961 259.113 317.904 259.151L317.884 259.189Z" fill="white"/>
</g>
<defs>
<clipPath id="clip0_4650_22205">
<rect width="279.84" height="470.436" fill="white" transform="translate(150.16 87.3398)"/>
</clipPath>
</defs>
</svg>
