<svg width="581" height="648" viewBox="0 0 581 648" fill="none" xmlns="http://www.w3.org/2000/svg">
<rect width="581" height="648" rx="16" fill="#EDF7FD"/>
<g clip-path="url(#clip0_4650_22209)">
<g clip-path="url(#clip1_4650_22209)">
<g clip-path="url(#clip2_4650_22209)">
<path d="M394.362 454.673C441.974 454.673 480.572 447.655 480.572 438.996C480.572 430.338 441.974 423.319 394.362 423.319C346.75 423.319 308.152 430.338 308.152 438.996C308.152 447.655 346.75 454.673 394.362 454.673Z" fill="#273738"/>
<path d="M194.073 422.955L240.093 409.947L217.659 398.737L233.392 382.596L158.73 329.665L173.269 321.841L99.2949 311.684L104.015 372.075L112.345 363.899L136.535 381.669L136.465 381.683L191.952 423.559L193.09 423.236L193.498 423.545L194.073 422.955Z" fill="#273738"/>
<path d="M413.597 442.41C443.847 442.41 468.369 417.888 468.369 387.639C468.369 357.389 443.847 332.867 413.597 332.867C383.348 332.867 358.826 357.389 358.826 387.639C358.826 417.888 383.348 442.41 413.597 442.41Z" fill="#BF8B0A"/>
<path d="M465.586 372.13C471.935 393.791 464.125 417.728 445.919 431.214C427.657 444.741 402.259 445.303 383.394 432.689C364.486 420.046 355.355 396.109 361.058 374.082C366.761 352.056 386.175 335.564 408.862 333.569C431.015 331.617 452.718 343.922 462.425 363.94C463.703 366.581 464.743 369.32 465.6 372.13C465.796 372.776 466.808 372.495 466.611 371.849C459.953 349.85 440.019 333.85 417.023 332.418C393.873 330.971 371.776 344.681 362.716 365.991C353.655 387.301 359.19 413.022 376.482 428.643C393.606 444.109 419.145 447.27 439.556 436.481C459.77 425.791 471.486 402.88 468.409 380.235C468.03 377.398 467.412 374.602 466.611 371.863C466.414 371.217 465.403 371.484 465.6 372.144L465.586 372.13Z" fill="#2B63A8"/>
<path d="M404.994 439.165C435.243 439.165 459.765 414.643 459.765 384.393C459.765 354.144 435.243 329.622 404.994 329.622C374.745 329.622 350.223 354.144 350.223 384.393C350.223 414.643 374.745 439.165 404.994 439.165Z" fill="#FCBC00"/>
<path d="M456.986 368.9C463.335 390.561 455.525 414.498 437.319 427.984C419.057 441.511 393.659 442.073 374.794 429.459C355.886 416.816 346.755 392.879 352.458 370.852C358.161 348.826 377.575 332.334 400.262 330.339C422.948 328.345 444.118 340.692 453.825 360.71C455.103 363.351 456.143 366.09 457 368.9C457.196 369.546 458.208 369.265 458.011 368.619C451.353 346.62 431.419 330.62 408.423 329.187C385.273 327.741 363.176 341.451 354.116 362.761C344.999 384.169 350.59 409.792 367.882 425.413C385.006 440.879 410.545 444.04 430.956 433.251C451.17 422.561 462.886 399.65 459.809 377.005C459.43 374.168 458.812 371.372 458.011 368.633C457.814 367.987 456.803 368.254 457 368.914L456.986 368.9Z" fill="#2B63A8"/>
<path d="M397.96 386.866L423.765 407.136C423.681 407.473 423.4 407.417 423.203 407.473C420.787 408.049 418.371 408.597 415.955 409.187C415.435 409.314 415.056 409.229 414.634 408.892C406.585 402.557 398.536 396.221 390.473 389.914C390.065 389.591 389.826 389.24 389.728 388.734C389.531 387.751 389.335 386.767 389.04 385.826C388.759 384.955 388.941 384.59 389.883 384.407C391.905 384 393.928 383.564 395.881 382.918C398.325 382.103 400.573 380.938 402.343 379.013C404.127 377.074 404.984 374.785 404.843 372.13C404.801 371.329 404.59 371.104 403.747 371.301C397.988 372.692 392.214 374.026 386.441 375.375C385.949 375.487 385.458 375.599 384.769 375.768C385.528 373.759 386.202 371.919 386.89 370.107C387.045 369.7 387.466 369.742 387.789 369.671C392.467 368.562 397.131 367.48 401.809 366.37C402.104 366.3 402.553 366.37 402.624 366.033C402.694 365.724 402.315 365.499 402.09 365.289C399.842 363.027 397.019 362.662 394.041 362.901C390.487 363.181 387.073 364.193 383.617 364.966C383.252 365.05 382.887 365.134 382.297 365.275C383.041 363.266 383.73 361.44 384.404 359.613C384.516 359.318 384.769 359.29 385.022 359.234C395.909 356.677 406.796 354.135 417.668 351.592C417.935 351.873 417.711 352.098 417.626 352.323C417.107 353.742 416.531 355.146 416.067 356.593C415.842 357.267 415.477 357.534 414.803 357.689C412.218 358.251 409.661 358.883 406.95 359.515C407.554 360.105 408.116 360.625 408.622 361.159C409.31 361.889 409.9 362.704 410.308 363.617C410.574 364.207 410.898 364.291 411.516 364.137C414.395 363.42 417.275 362.774 420.394 362.044C419.93 363.294 419.396 364.361 419.143 365.499C418.708 367.452 417.626 368.421 415.632 368.59C414.62 368.674 413.623 369.053 412.611 369.264C412.176 369.362 411.965 369.503 411.979 370.023C412.204 375.684 409.535 379.87 405.166 383.157C403.214 384.618 401.064 385.7 398.746 386.444C398.536 386.514 398.325 386.599 398.114 386.683C398.058 386.711 398.044 386.781 397.96 386.894V386.866Z" fill="white"/>
<path d="M175.797 274.444V411.843L202.782 434.74V268.544L175.797 274.444Z" fill="#819B4B"/>
<path d="M175.26 274.444V409.637C175.26 410.269 175.106 411.14 175.26 411.758C175.485 412.657 176.763 413.345 177.437 413.921L185.22 420.524L201.36 434.22L202.4 435.105C202.737 435.386 203.299 435.217 203.299 434.726V378.564C203.299 362.507 203.299 346.465 203.299 330.409C203.299 316.628 203.299 302.848 203.299 289.053V275.3C203.299 273.207 203.594 270.861 203.299 268.782C203.299 268.698 203.299 268.586 203.299 268.501C203.299 268.15 202.962 267.926 202.639 267.996L175.653 273.91C174.993 274.05 175.274 275.076 175.934 274.921L202.92 269.007L202.259 268.501V285.12C202.259 298.296 202.259 311.473 202.259 324.663C202.259 337.854 202.259 356.762 202.259 372.818V432.169C202.259 432.759 202.035 433.869 202.259 434.431C202.287 434.501 202.259 434.627 202.259 434.712L203.158 434.332L190.726 423.783L181.638 416.071L178.266 413.205C177.718 412.741 177.044 411.898 176.384 411.603C175.934 411.407 176.328 411.898 176.328 411.646C176.328 411.365 176.328 411.098 176.328 410.817V392.836C176.328 377.721 176.328 362.606 176.328 347.477C176.328 332.347 176.328 315.828 176.328 300.01V283.097C176.328 280.372 176.581 277.492 176.328 274.781C176.328 274.654 176.328 274.528 176.328 274.401C176.328 273.727 175.274 273.727 175.274 274.401L175.26 274.444Z" fill="#2B63A8"/>
<path d="M295.47 279.613L239.322 189.499L187.613 292.172L202.785 290.416V434.74L276.899 424.401V281.777L295.47 279.613Z" fill="#A5C661"/>
<path d="M295.922 279.347L276.972 248.934L246.742 200.414L239.774 189.218C239.577 188.895 239.044 188.853 238.861 189.218L221.386 223.93L193.53 279.235L187.152 291.906C186.997 292.229 187.18 292.748 187.602 292.692L202.773 290.922L202.239 290.389V339.246C202.239 353.097 202.239 366.947 202.239 380.798C202.239 392.837 202.239 404.862 202.239 416.9V428.841C202.239 430.653 201.972 432.676 202.239 434.474C202.239 434.558 202.239 434.642 202.239 434.727C202.239 435.106 202.576 435.275 202.899 435.232L227.988 431.735L267.799 426.172L277 424.893C277.225 424.865 277.393 424.598 277.393 424.388V376.191C277.393 362.466 277.393 348.742 277.393 335.003C277.393 321.265 277.393 311.249 277.393 299.379V283.927C277.393 283.449 277.59 282.466 277.393 282.016C277.365 281.96 277.393 281.834 277.393 281.763L276.859 282.297L295.43 280.134C296.09 280.05 296.105 278.996 295.43 279.08L276.859 281.244C276.578 281.272 276.326 281.454 276.326 281.777V329.974C276.326 343.699 276.326 357.423 276.326 371.162C276.326 383.032 276.326 394.916 276.326 406.786V422.238C276.326 422.73 276.129 423.699 276.326 424.149C276.354 424.205 276.326 424.332 276.326 424.402L276.719 423.896L251.63 427.394L211.819 432.957L202.618 434.235L203.279 434.741V296.288C203.279 294.476 203.545 292.453 203.279 290.655C203.279 290.571 203.279 290.487 203.279 290.403C203.279 290.136 203.04 289.841 202.745 289.869L187.573 291.639L188.023 292.425L205.498 257.714L233.354 202.409L239.732 189.738H238.819L257.769 220.151L287.999 268.671L294.967 279.867C295.318 280.443 296.231 279.909 295.88 279.333L295.922 279.347Z" fill="#2B63A8"/>
<path d="M204.591 183.584L239.316 189.498L187.607 292.171L156.576 278.882L204.591 183.584Z" fill="#819B4B"/>
<path d="M204.452 184.089L234.809 189.259L239.177 190.003L238.868 189.231L221.393 223.942L193.537 279.247L187.16 291.918L187.876 291.735L160.722 280.09L156.859 278.432L157.042 279.149L173.281 246.924L199.142 195.594L205.056 183.851C205.365 183.247 204.452 182.713 204.143 183.317L187.904 215.542L162.043 266.871L156.129 278.615C156.016 278.84 156.044 279.219 156.311 279.332L183.465 290.977L187.328 292.635C187.581 292.747 187.904 292.719 188.045 292.452L205.52 257.741L233.376 202.435L239.753 189.765C239.894 189.484 239.796 189.048 239.444 188.992L209.088 183.823L204.719 183.078C204.059 182.966 203.778 183.977 204.438 184.089H204.452Z" fill="#2B63A8"/>
<path d="M291.199 262.461C316.607 262.461 337.205 241.864 337.205 216.455C337.205 191.047 316.607 170.45 291.199 170.45C265.791 170.45 245.193 191.047 245.193 216.455C245.193 241.864 265.791 262.461 291.199 262.461Z" fill="#E0EBC5"/>
<path d="M336.685 216.456C336.586 235.35 324.632 252.713 306.806 259.189C288.979 265.664 268.442 260.144 256.263 245.562C243.999 230.897 242.356 209.404 252.217 193.025C262.036 176.702 281.548 168.09 300.231 171.855C318.549 175.55 333.075 190.637 336.109 209.081C336.502 211.525 336.685 213.984 336.699 216.456C336.699 217.13 337.752 217.13 337.752 216.456C337.654 197.141 325.475 179.497 307.311 172.782C289.148 166.068 267.641 171.799 255.223 186.956C242.861 202.043 241.26 223.915 251.416 240.604C261.488 257.152 281.253 265.847 300.26 262.11C319.182 258.388 334.254 242.697 337.176 223.634C337.542 221.26 337.724 218.858 337.724 216.456C337.724 215.782 336.671 215.782 336.671 216.456H336.685Z" fill="#2B63A8"/>
<path d="M291.42 248.133C308.162 248.133 321.735 234.561 321.735 217.819C321.735 201.077 308.162 187.504 291.42 187.504C274.678 187.504 261.105 201.077 261.105 217.819C261.105 234.561 274.678 248.133 291.42 248.133Z" fill="#A5C661"/>
<path d="M321.202 217.82C321.104 230.224 313.293 241.602 301.564 245.845C289.848 250.073 276.475 246.421 268.51 236.868C260.46 227.232 259.435 213.114 265.939 202.396C272.443 191.677 285.268 186.101 297.518 188.657C311.242 191.523 321.118 203.871 321.216 217.82C321.216 218.494 322.27 218.494 322.27 217.82C322.171 204.994 314.15 193.321 302.069 188.868C289.848 184.345 275.674 188.264 267.484 198.392C259.295 208.52 258.353 222.779 265.04 233.792C271.698 244.763 284.749 250.522 297.335 248.106C311.734 245.353 322.157 232.387 322.284 217.834C322.284 217.16 321.23 217.16 321.23 217.834L321.202 217.82Z" fill="#2B63A8"/>
<path d="M359.119 458.059C396.359 458.059 426.548 444.467 426.548 427.702C426.548 410.936 396.359 397.345 359.119 397.345C321.88 397.345 291.691 410.936 291.691 427.702C291.691 444.467 321.88 458.059 359.119 458.059Z" fill="#BF8B0A"/>
<path d="M426.013 427.702C425.929 435.541 419.453 441.37 413.272 445.177C403.874 450.951 392.819 453.971 382.002 455.741C368.587 457.932 354.778 458.129 341.293 456.472C329.844 455.053 318.156 452.313 307.902 446.863C301.327 443.365 293.882 437.971 292.435 430.132C290.988 422.294 296.523 416.127 302.297 411.997C310.908 405.844 321.5 402.557 331.768 400.478C345.015 397.809 358.726 397.247 372.169 398.441C384.095 399.495 396.232 401.925 407.147 406.982C414.255 410.269 422.445 415.256 425.198 423.067C425.732 424.57 425.999 426.129 426.013 427.716C426.013 428.391 427.067 428.391 427.067 427.716C426.982 419.92 420.956 413.964 414.831 409.988C405.251 403.765 393.732 400.562 382.564 398.722C368.587 396.404 354.174 396.208 340.127 398.062C328.481 399.593 316.569 402.487 306.244 408.289C299.712 411.955 292.59 417.574 291.354 425.455C290.188 432.844 294.992 439.151 300.541 443.435C309.166 450.094 320.151 453.606 330.687 455.811C344.467 458.691 358.782 459.295 372.787 458.003C384.994 456.865 397.398 454.308 408.51 448.998C415.646 445.585 423.583 440.415 426.266 432.535C426.786 430.989 427.053 429.374 427.067 427.744C427.067 427.07 426.013 427.07 426.013 427.744V427.702Z" fill="#2B63A8"/>
<path d="M359.119 447.775C396.359 447.775 426.548 434.184 426.548 417.419C426.548 400.653 396.359 387.062 359.119 387.062C321.88 387.062 291.691 400.653 291.691 417.419C291.691 434.184 321.88 447.775 359.119 447.775Z" fill="#FCBC00"/>
<path d="M426.013 417.419C425.929 425.258 419.453 431.087 413.272 434.894C403.874 440.668 392.819 443.688 382.002 445.458C368.587 447.649 354.778 447.846 341.293 446.188C329.844 444.77 318.156 442.03 307.902 436.58C301.327 433.082 293.882 427.688 292.435 419.849C290.988 412.011 296.523 405.844 302.297 401.714C310.908 395.561 321.5 392.274 331.768 390.195C345.015 387.526 358.726 386.964 372.169 388.158C384.095 389.212 396.232 391.642 407.147 396.699C414.255 399.986 422.445 404.973 425.198 412.783C425.732 414.286 425.999 415.846 426.013 417.433C426.013 418.107 427.067 418.107 427.067 417.433C426.982 409.637 420.956 403.681 414.831 399.705C405.251 393.482 393.732 390.279 382.564 388.439C368.587 386.121 354.174 385.924 340.127 387.779C328.481 389.31 316.569 392.204 306.244 398.005C299.712 401.672 292.59 407.291 291.354 415.171C290.188 422.56 294.992 428.868 300.541 433.152C309.166 439.811 320.151 443.323 330.687 445.528C344.467 448.408 358.782 449.012 372.787 447.719C384.994 446.582 397.398 444.025 408.51 438.715C415.646 435.302 423.583 430.132 426.266 422.251C426.786 420.706 427.053 419.091 427.067 417.461C427.067 416.787 426.013 416.787 426.013 417.461V417.419Z" fill="#2B63A8"/>
<path d="M357.237 424.372L383.042 431.649C383.042 431.958 382.79 432 382.635 432.113C380.711 433.405 378.786 434.683 376.876 435.976C376.468 436.257 376.131 436.327 375.71 436.2C367.66 433.911 359.611 431.649 351.548 429.387C351.141 429.275 350.874 429.064 350.691 428.699C350.326 427.983 349.975 427.266 349.525 426.606C349.118 426.002 349.188 425.651 349.946 425.173C351.562 424.148 353.177 423.108 354.695 421.914C356.591 420.411 358.249 418.711 359.344 416.562C360.454 414.399 360.721 412.277 360.061 410.213C359.864 409.594 359.639 409.482 358.965 409.932C354.385 413.022 349.792 416.084 345.198 419.161C344.805 419.428 344.426 419.681 343.864 420.046C344.089 418.177 344.299 416.492 344.51 414.792C344.552 414.413 344.932 414.3 345.184 414.132C348.893 411.645 352.615 409.159 356.338 406.658C356.577 406.504 356.97 406.406 356.956 406.111C356.956 405.83 356.591 405.802 356.352 405.703C354.006 404.664 351.562 405.352 349.09 406.574C346.154 408.021 343.485 410.002 340.731 411.828C340.436 412.025 340.141 412.221 339.678 412.53C339.902 410.676 340.113 408.976 340.31 407.291C340.338 407.024 340.563 406.897 340.759 406.771C349.413 400.983 358.08 395.182 366.719 389.408C367 389.535 366.86 389.801 366.832 389.998C366.677 391.319 366.48 392.625 366.368 393.945C366.312 394.564 366.059 394.901 365.525 395.252C363.46 396.586 361.423 397.977 359.274 399.41C359.906 399.677 360.468 399.888 361.016 400.154C361.732 400.506 362.393 400.955 362.926 401.545C363.264 401.924 363.559 401.882 364.036 401.545C366.312 399.986 368.616 398.469 371.088 396.811C370.947 397.977 370.709 399.017 370.723 400C370.751 401.7 370.034 402.852 368.391 403.666C367.548 404.088 366.789 404.72 365.989 405.24C365.638 405.464 365.497 405.661 365.609 406.068C366.93 410.508 365.525 414.778 362.505 418.908C361.156 420.748 359.555 422.35 357.757 423.754C357.588 423.881 357.434 424.021 357.279 424.162C357.237 424.19 357.237 424.26 357.181 424.386L357.237 424.372Z" fill="white"/>
<path d="M367.418 430.216C404.658 430.216 434.846 416.625 434.846 399.86C434.846 383.094 404.658 369.503 367.418 369.503C330.179 369.503 299.99 383.094 299.99 399.86C299.99 416.625 330.179 430.216 367.418 430.216Z" fill="#BF8B0A"/>
<path d="M434.326 399.86C434.241 407.698 427.765 413.528 421.585 417.335C412.187 423.109 401.131 426.129 390.315 427.899C376.899 430.09 363.091 430.287 349.605 428.629C338.156 427.21 326.469 424.471 316.214 419.021C309.64 415.523 302.195 410.129 300.748 402.29C299.301 394.452 304.836 388.285 310.609 384.155C319.22 378.002 329.812 374.715 340.081 372.636C353.328 369.967 367.038 369.405 380.482 370.599C392.408 371.653 404.545 374.083 415.46 379.14C422.568 382.427 430.758 387.414 433.511 395.224C434.045 396.727 434.312 398.287 434.326 399.874C434.326 400.548 435.379 400.548 435.379 399.874C435.295 392.078 429.269 386.121 423.144 382.146C413.563 375.923 402.044 372.72 390.877 370.88C376.899 368.562 362.487 368.365 348.439 370.22C336.794 371.751 324.882 374.645 314.557 380.446C308.024 384.113 300.902 389.732 299.666 397.612C298.5 405.001 303.305 411.309 308.853 415.593C317.478 422.252 328.464 425.764 338.999 427.969C352.78 430.849 367.094 431.453 381.1 430.16C393.307 429.023 405.711 426.466 416.822 421.156C423.959 417.742 431.895 412.573 434.578 404.692C435.098 403.147 435.365 401.532 435.379 399.902C435.379 399.228 434.326 399.228 434.326 399.902V399.86Z" fill="#2B63A8"/>
<path d="M367.418 419.933C404.658 419.933 434.846 406.342 434.846 389.576C434.846 372.811 404.658 359.22 367.418 359.22C330.179 359.22 299.99 372.811 299.99 389.576C299.99 406.342 330.179 419.933 367.418 419.933Z" fill="#FCBC00"/>
<path d="M434.326 389.577C434.241 397.415 427.765 403.245 421.585 407.052C412.187 412.825 401.131 415.846 390.315 417.616C376.899 419.807 363.091 420.004 349.605 418.346C338.156 416.927 326.469 414.188 316.214 408.738C309.64 405.24 302.195 399.845 300.748 392.007C299.301 384.168 304.836 378.002 310.609 373.872C319.22 367.719 329.812 364.432 340.081 362.353C353.328 359.684 367.038 359.122 380.482 360.316C392.408 361.369 404.545 363.8 415.46 368.857C422.568 372.144 430.758 377.131 433.511 384.941C434.045 386.444 434.312 388.003 434.326 389.591C434.326 390.265 435.379 390.265 435.379 389.591C435.295 381.794 429.269 375.838 423.144 371.863C413.563 365.64 402.044 362.437 390.877 360.597C376.899 358.279 362.487 358.082 348.439 359.936C336.794 361.468 324.882 364.361 314.557 370.163C308.024 373.829 300.902 379.448 299.666 387.329C298.5 394.718 303.305 401.025 308.853 405.31C317.478 411.968 328.464 415.48 338.999 417.686C352.78 420.566 367.094 421.17 381.1 419.877C393.307 418.739 405.711 416.183 416.822 410.873C423.959 407.459 431.895 402.29 434.578 394.409C435.098 392.864 435.365 391.248 435.379 389.619C435.379 388.945 434.326 388.945 434.326 389.619V389.577Z" fill="#2B63A8"/>
<path d="M365.538 396.531L391.343 403.808C391.343 404.117 391.09 404.159 390.936 404.271C389.011 405.564 387.087 406.842 385.176 408.134C384.769 408.415 384.432 408.486 384.01 408.359C375.961 406.069 367.912 403.808 359.849 401.546C359.441 401.434 359.174 401.223 358.992 400.858C358.627 400.141 358.275 399.425 357.826 398.765C357.418 398.161 357.489 397.809 358.247 397.332C359.863 396.306 361.478 395.267 362.995 394.073C364.892 392.57 366.549 390.87 367.645 388.721C368.755 386.557 369.022 384.436 368.361 382.371C368.165 381.753 367.94 381.641 367.266 382.09C362.686 385.181 358.093 388.243 353.499 391.32C353.106 391.586 352.727 391.839 352.165 392.205C352.389 390.336 352.6 388.651 352.811 386.951C352.853 386.571 353.232 386.459 353.485 386.291C357.194 383.804 360.916 381.318 364.639 378.817C364.878 378.663 365.271 378.564 365.257 378.269C365.257 377.988 364.892 377.96 364.653 377.862C362.307 376.822 359.863 377.511 357.39 378.733C354.454 380.18 351.785 382.161 349.032 383.987C348.737 384.183 348.442 384.38 347.979 384.689C348.203 382.835 348.414 381.135 348.611 379.449C348.639 379.182 348.864 379.056 349.06 378.93C357.713 373.142 366.381 367.34 375.02 361.567C375.301 361.693 375.16 361.96 375.132 362.157C374.978 363.477 374.781 364.784 374.669 366.104C374.613 366.722 374.36 367.059 373.826 367.411C371.761 368.745 369.724 370.136 367.575 371.569C368.207 371.836 368.769 372.046 369.317 372.313C370.033 372.664 370.693 373.114 371.227 373.704C371.564 374.083 371.859 374.041 372.337 373.704C374.613 372.145 376.916 370.628 379.389 368.97C379.248 370.136 379.009 371.175 379.024 372.159C379.052 373.858 378.335 375.01 376.692 375.825C375.849 376.247 375.09 376.879 374.289 377.398C373.938 377.623 373.798 377.82 373.91 378.227C375.231 382.666 373.826 386.937 370.806 391.067C369.457 392.907 367.856 394.508 366.058 395.913C365.889 396.039 365.735 396.18 365.58 396.32C365.538 396.349 365.538 396.419 365.482 396.545L365.538 396.531Z" fill="white"/>
<path d="M350.801 407.585C388.041 407.585 418.229 393.994 418.229 377.229C418.229 360.463 388.041 346.872 350.801 346.872C313.562 346.872 283.373 360.463 283.373 377.229C283.373 393.994 313.562 407.585 350.801 407.585Z" fill="#BF8B0A"/>
<path d="M417.695 377.229C417.611 385.068 411.135 390.897 404.954 394.704C395.556 400.478 384.501 403.498 373.684 405.268C360.269 407.459 346.46 407.656 332.974 405.998C321.526 404.58 309.838 401.84 299.583 396.39C293.009 392.892 285.564 387.498 284.117 379.659C282.67 371.821 288.205 365.654 293.978 361.524C302.589 355.371 313.181 352.084 323.45 350.005C336.697 347.336 350.407 346.774 363.851 347.968C375.777 349.022 387.914 351.452 398.829 356.509C405.937 359.796 414.127 364.783 416.88 372.593C417.414 374.096 417.681 375.656 417.695 377.243C417.695 377.917 418.748 377.917 418.748 377.243C418.664 369.447 412.638 363.491 406.513 359.515C396.933 353.292 385.414 350.089 374.246 348.249C360.269 345.931 345.856 345.735 331.808 347.589C320.163 349.12 308.251 352.014 297.926 357.815C291.394 361.482 284.272 367.101 283.035 374.981C281.869 382.37 286.674 388.678 292.222 392.962C300.848 399.621 311.833 403.133 322.368 405.338C336.149 408.218 350.463 408.822 364.469 407.53C376.676 406.392 389.08 403.835 400.192 398.525C407.328 395.112 415.265 389.942 417.948 382.061C418.467 380.516 418.734 378.901 418.748 377.271C418.748 376.597 417.695 376.597 417.695 377.271V377.229Z" fill="#2B63A8"/>
<path d="M350.801 397.317C388.041 397.317 418.229 383.726 418.229 366.961C418.229 350.195 388.041 336.604 350.801 336.604C313.562 336.604 283.373 350.195 283.373 366.961C283.373 383.726 313.562 397.317 350.801 397.317Z" fill="#FCBC00"/>
<path d="M417.695 366.961C417.611 374.8 411.135 380.629 404.954 384.436C395.556 390.21 384.501 393.23 373.684 395C360.269 397.191 346.46 397.388 332.974 395.73C321.526 394.312 309.838 391.572 299.583 386.122C293.009 382.624 285.564 377.23 284.117 369.391C282.67 361.553 288.205 355.386 293.978 351.256C302.589 345.103 313.181 341.816 323.45 339.737C336.697 337.068 350.407 336.506 363.851 337.7C375.777 338.754 387.914 341.184 398.829 346.241C405.937 349.528 414.127 354.515 416.88 362.325C417.414 363.828 417.681 365.388 417.695 366.975C417.695 367.649 418.748 367.649 418.748 366.975C418.664 359.179 412.638 353.223 406.513 349.247C396.933 343.024 385.414 339.821 374.246 337.981C360.269 335.663 345.856 335.466 331.808 337.321C320.163 338.852 308.251 341.746 297.926 347.547C291.394 351.214 284.272 356.833 283.035 364.713C281.869 372.102 286.674 378.41 292.222 382.694C300.848 389.353 311.833 392.865 322.368 395.07C336.149 397.95 350.463 398.554 364.469 397.261C376.676 396.124 389.08 393.567 400.192 388.257C407.328 384.843 415.265 379.674 417.948 371.793C418.467 370.248 418.734 368.633 418.748 367.003C418.748 366.329 417.695 366.329 417.695 367.003V366.961Z" fill="#2B63A8"/>
<path d="M348.921 373.913L374.726 381.19C374.726 381.499 374.473 381.541 374.319 381.654C372.394 382.946 370.47 384.224 368.559 385.517C368.152 385.798 367.815 385.868 367.393 385.741C359.344 383.452 351.295 381.19 343.231 378.928C342.824 378.816 342.557 378.605 342.375 378.24C342.009 377.524 341.658 376.807 341.209 376.147C340.801 375.543 340.871 375.192 341.63 374.714C343.246 373.689 344.861 372.649 346.378 371.455C348.275 369.952 349.932 368.252 351.028 366.103C352.138 363.94 352.405 361.819 351.744 359.754C351.548 359.135 351.323 359.023 350.649 359.473C346.069 362.563 341.476 365.625 336.882 368.702C336.489 368.969 336.109 369.222 335.547 369.587C335.772 367.719 335.983 366.033 336.194 364.333C336.236 363.954 336.615 363.841 336.868 363.673C340.576 361.186 344.299 358.7 348.022 356.2C348.26 356.045 348.654 355.947 348.64 355.652C348.64 355.371 348.275 355.343 348.036 355.244C345.69 354.205 343.246 354.893 340.773 356.115C337.837 357.562 335.168 359.543 332.415 361.369C332.12 361.566 331.825 361.762 331.361 362.071C331.586 360.217 331.797 358.517 331.993 356.832C332.022 356.565 332.246 356.438 332.443 356.312C341.096 350.524 349.764 344.723 358.403 338.949C358.684 339.076 358.543 339.343 358.515 339.539C358.361 340.86 358.164 342.166 358.052 343.487C357.995 344.105 357.743 344.442 357.209 344.793C355.144 346.127 353.107 347.518 350.958 348.951C351.59 349.218 352.152 349.429 352.7 349.696C353.416 350.047 354.076 350.496 354.61 351.086C354.947 351.466 355.242 351.423 355.72 351.086C357.995 349.527 360.299 348.01 362.772 346.352C362.631 347.518 362.392 348.558 362.406 349.541C362.434 351.241 361.718 352.393 360.074 353.207C359.232 353.629 358.473 354.261 357.672 354.781C357.321 355.006 357.181 355.202 357.293 355.61C358.614 360.049 357.209 364.319 354.189 368.449C352.84 370.289 351.239 371.891 349.44 373.295C349.272 373.422 349.117 373.562 348.963 373.703C348.921 373.731 348.921 373.801 348.865 373.928L348.921 373.913Z" fill="white"/>
<path d="M350.352 384.183C387.343 384.183 417.33 370.592 417.33 353.826C417.33 337.061 387.343 323.47 350.352 323.47C313.36 323.47 283.373 337.061 283.373 353.826C283.373 370.592 313.36 384.183 350.352 384.183Z" fill="#BF8B0A"/>
<path d="M416.809 353.827C416.725 361.693 410.235 367.565 404.012 371.386C394.74 377.075 383.868 380.081 373.22 381.837C359.832 384.057 346.024 384.254 332.566 382.568C321.216 381.149 309.627 378.396 299.47 372.959C292.924 369.448 285.577 364.067 284.13 356.257C282.683 348.446 288.148 342.28 293.879 338.15C302.392 332.011 312.871 328.71 323.056 326.631C336.176 323.962 349.774 323.372 363.105 324.538C374.961 325.577 387.014 327.993 397.873 332.994C405.009 336.295 413.241 341.296 415.994 349.149C416.528 350.666 416.795 352.225 416.809 353.827C416.809 354.501 417.863 354.501 417.863 353.827C417.778 346.058 411.836 340.116 405.74 336.113C396.173 329.848 384.654 326.645 373.486 324.79C359.608 322.487 345.321 322.318 331.386 324.172C319.895 325.704 308.166 328.583 297.995 334.287C291.435 337.967 284.285 343.614 283.049 351.537C281.883 358.968 286.701 365.304 292.264 369.602C300.847 376.218 311.748 379.73 322.227 381.922C335.895 384.773 350.111 385.391 364.004 384.085C376.113 382.947 388.405 380.391 399.418 375.081C406.526 371.653 414.379 366.498 417.048 358.645C417.582 357.086 417.834 355.47 417.863 353.827C417.863 353.152 416.809 353.152 416.809 353.827Z" fill="#2B63A8"/>
<path d="M350.352 373.901C387.343 373.901 417.33 360.31 417.33 343.545C417.33 326.779 387.343 313.188 350.352 313.188C313.36 313.188 283.373 326.779 283.373 343.545C283.373 360.31 313.36 373.901 350.352 373.901Z" fill="#FCBC00"/>
<path d="M416.809 343.544C416.725 351.411 410.235 357.283 404.012 361.104C394.74 366.793 383.868 369.799 373.22 371.555C359.832 373.775 346.024 373.971 332.566 372.286C321.216 370.867 309.627 368.114 299.47 362.677C292.924 359.165 285.577 353.785 284.13 345.975C282.683 338.164 288.148 331.997 293.879 327.867C302.392 321.729 312.871 318.428 323.056 316.348C336.176 313.679 349.774 313.089 363.105 314.255C374.961 315.295 387.014 317.711 397.873 322.712C405.009 326.013 413.241 331.014 415.994 338.867C416.528 340.384 416.795 341.943 416.809 343.544C416.809 344.219 417.863 344.219 417.863 343.544C417.778 335.776 411.836 329.834 405.74 325.831C396.173 319.565 384.654 316.363 373.486 314.508C359.608 312.204 345.321 312.036 331.386 313.89C319.895 315.421 308.166 318.301 297.995 324.004C291.435 327.685 284.285 333.332 283.049 341.255C281.883 348.686 286.701 355.021 292.264 359.32C300.847 365.936 311.748 369.448 322.227 371.64C335.895 374.491 350.111 375.109 364.004 373.803C376.113 372.665 388.405 370.108 399.418 364.798C406.526 361.371 414.379 356.215 417.048 348.363C417.582 346.803 417.834 345.188 417.863 343.544C417.863 342.87 416.809 342.87 416.809 343.544Z" fill="#2B63A8"/>
<path d="M348.485 350.497L374.121 357.774C374.121 358.083 373.882 358.125 373.728 358.238C371.817 359.53 369.907 360.808 368.011 362.101C367.603 362.382 367.266 362.452 366.845 362.325C358.852 360.036 350.845 357.774 342.837 355.512C342.43 355.4 342.163 355.189 341.981 354.824C341.615 354.108 341.264 353.391 340.815 352.731C340.407 352.127 340.492 351.776 341.236 351.298C342.852 350.273 344.453 349.233 345.956 348.039C347.838 346.536 349.482 344.836 350.578 342.687C351.687 340.524 351.954 338.403 351.294 336.338C351.097 335.719 350.873 335.607 350.212 336.057C345.661 339.147 341.096 342.209 336.544 345.286C336.151 345.553 335.772 345.806 335.224 346.171C335.448 344.303 335.659 342.617 335.87 340.917C335.912 340.538 336.277 340.425 336.544 340.257C340.239 337.77 343.933 335.284 347.614 332.784C347.838 332.629 348.232 332.531 348.232 332.236C348.232 331.955 347.866 331.927 347.642 331.828C345.31 330.789 342.88 331.477 340.435 332.699C337.528 334.146 334.873 336.127 332.133 337.953C331.838 338.15 331.557 338.346 331.094 338.655C331.319 336.801 331.529 335.101 331.726 333.416C331.754 333.149 331.965 333.022 332.161 332.896C340.758 327.108 349.356 321.307 357.953 315.533C358.234 315.66 358.093 315.927 358.065 316.123C357.91 317.444 357.714 318.75 357.615 320.071C357.559 320.689 357.306 321.026 356.773 321.377C354.722 322.711 352.699 324.102 350.564 325.535C351.196 325.802 351.758 326.013 352.291 326.28C353.008 326.631 353.668 327.08 354.188 327.67C354.525 328.05 354.82 328.007 355.298 327.67C357.559 326.111 359.849 324.594 362.307 322.936C362.167 324.102 361.928 325.142 361.942 326.125C361.97 327.825 361.254 328.977 359.624 329.791C358.795 330.213 358.037 330.845 357.236 331.365C356.885 331.59 356.745 331.786 356.871 332.194C358.191 336.633 356.787 340.903 353.795 345.033C352.46 346.873 350.873 348.475 349.075 349.879C348.906 350.006 348.751 350.146 348.597 350.287C348.555 350.315 348.555 350.385 348.499 350.512L348.485 350.497Z" fill="white"/>
<path d="M370.834 359.797C407.825 359.797 437.813 346.206 437.813 329.44C437.813 312.675 407.825 299.084 370.834 299.084C333.843 299.084 303.855 312.675 303.855 329.44C303.855 346.206 333.843 359.797 370.834 359.797Z" fill="#BF8B0A"/>
<path d="M437.291 329.44C437.207 337.306 430.717 343.178 424.494 346.999C415.223 352.688 404.35 355.694 393.702 357.45C380.315 359.67 366.506 359.866 353.049 358.181C341.698 356.762 330.109 354.009 319.953 348.572C313.406 345.06 306.06 339.68 304.613 331.87C303.166 324.059 308.63 317.892 314.362 313.763C322.874 307.624 333.354 304.323 343.538 302.244C356.659 299.575 370.257 298.985 383.588 300.15C395.444 301.19 407.497 303.606 418.355 308.607C425.492 311.908 433.723 316.909 436.477 324.762C437.01 326.279 437.277 327.838 437.291 329.44C437.291 330.114 438.345 330.114 438.345 329.44C438.261 321.671 432.319 315.729 426.222 311.726C416.656 305.46 405.137 302.258 393.969 300.403C380.09 298.1 365.804 297.931 351.869 299.785C340.378 301.316 328.648 304.196 318.478 309.899C311.917 313.58 304.767 319.227 303.531 327.15C302.365 334.581 307.183 340.916 312.746 345.215C321.329 351.831 332.23 355.343 342.71 357.535C356.378 360.386 370.594 361.004 384.487 359.698C396.596 358.56 408.887 356.003 419.901 350.693C427.009 347.266 434.861 342.11 437.53 334.258C438.064 332.699 438.317 331.083 438.345 329.44C438.345 328.765 437.291 328.765 437.291 329.44Z" fill="#2B63A8"/>
<path d="M370.834 349.529C407.825 349.529 437.813 335.938 437.813 319.172C437.813 302.407 407.825 288.816 370.834 288.816C333.843 288.816 303.855 302.407 303.855 319.172C303.855 335.938 333.843 349.529 370.834 349.529Z" fill="#FCBC00"/>
<path d="M437.291 319.172C437.207 327.039 430.717 332.91 424.494 336.731C415.223 342.421 404.35 345.427 393.702 347.183C380.315 349.402 366.506 349.599 353.049 347.913C341.698 346.494 330.109 343.741 319.953 338.305C313.406 334.793 306.06 329.413 304.613 321.602C303.166 313.792 308.63 307.625 314.362 303.495C322.874 297.356 333.354 294.055 343.538 291.976C356.659 289.307 370.257 288.717 383.588 289.883C395.444 290.922 407.497 293.339 418.355 298.34C425.492 301.641 433.723 306.642 436.477 314.494C437.01 316.011 437.277 317.571 437.291 319.172C437.291 319.846 438.345 319.846 438.345 319.172C438.261 311.404 432.319 305.462 426.222 301.458C416.656 295.193 405.137 291.99 393.969 290.136C380.09 287.832 365.804 287.663 351.869 289.518C340.378 291.049 328.648 293.929 318.478 299.632C311.917 303.312 304.767 308.959 303.531 316.882C302.365 324.313 307.183 330.649 312.746 334.947C321.329 341.564 332.23 345.076 342.71 347.267C356.378 350.119 370.594 350.737 384.487 349.43C396.596 348.293 408.887 345.736 419.901 340.426C427.009 336.998 434.861 331.843 437.53 323.99C438.064 322.431 438.317 320.816 438.345 319.172C438.345 318.498 437.291 318.498 437.291 319.172Z" fill="#2B63A8"/>
<path d="M368.967 326.125L394.604 333.402C394.604 333.711 394.365 333.753 394.21 333.866C392.3 335.158 390.389 336.436 388.493 337.729C388.086 338.01 387.749 338.08 387.327 337.953C379.334 335.664 371.327 333.402 363.32 331.14C362.913 331.028 362.646 330.817 362.463 330.452C362.098 329.736 361.747 329.019 361.297 328.359C360.89 327.755 360.974 327.404 361.718 326.926C363.334 325.901 364.935 324.861 366.438 323.667C368.321 322.164 369.964 320.464 371.06 318.315C372.17 316.152 372.437 314.03 371.776 311.965C371.58 311.347 371.355 311.235 370.695 311.685C366.143 314.775 361.578 317.837 357.027 320.914C356.633 321.181 356.254 321.434 355.706 321.799C355.931 319.93 356.142 318.245 356.352 316.545C356.394 316.166 356.76 316.053 357.027 315.885C360.721 313.398 364.416 310.912 368.096 308.411C368.321 308.257 368.714 308.159 368.714 307.864C368.714 307.583 368.349 307.555 368.124 307.456C365.792 306.417 363.362 307.105 360.918 308.327C358.01 309.774 355.355 311.755 352.616 313.581C352.321 313.778 352.04 313.974 351.576 314.283C351.801 312.429 352.012 310.729 352.208 309.044C352.236 308.777 352.447 308.65 352.644 308.524C361.241 302.736 369.838 296.935 378.435 291.161C378.716 291.288 378.575 291.554 378.547 291.751C378.393 293.072 378.196 294.378 378.098 295.698C378.042 296.317 377.789 296.654 377.255 297.005C375.204 298.339 373.181 299.73 371.046 301.163C371.678 301.43 372.24 301.641 372.774 301.907C373.49 302.259 374.151 302.708 374.67 303.298C375.007 303.677 375.302 303.635 375.78 303.298C378.042 301.739 380.331 300.222 382.79 298.564C382.649 299.73 382.41 300.77 382.425 301.753C382.453 303.453 381.736 304.605 380.107 305.419C379.278 305.841 378.519 306.473 377.719 306.993C377.367 307.217 377.227 307.414 377.353 307.821C378.674 312.26 377.269 316.531 374.277 320.661C372.942 322.501 371.355 324.103 369.557 325.507C369.388 325.634 369.234 325.774 369.079 325.915C369.037 325.943 369.037 326.013 368.981 326.139L368.967 326.125Z" fill="white"/>
<path d="M268.732 474.101C298.982 474.101 323.503 449.579 323.503 419.33C323.503 389.081 298.982 364.559 268.732 364.559C238.483 364.559 213.961 389.081 213.961 419.33C213.961 449.579 238.483 474.101 268.732 474.101Z" fill="#BF8B0A"/>
<path d="M321.412 432.296C315.919 454.14 297.124 470.842 274.634 473.272C252.073 475.717 229.892 463.453 219.947 443.07C209.959 422.589 214.145 397.247 230.23 381.093C246.244 365.008 271.29 360.555 291.856 370.248C312.422 379.941 324.587 401.363 322.817 423.6C322.578 426.536 322.1 429.444 321.398 432.31C321.243 432.97 322.255 433.251 322.409 432.591C327.804 410.283 318.757 386.445 299.709 373.535C280.435 360.471 254.251 361.103 235.624 375.038C217.053 388.917 208.962 413.697 215.915 435.85C222.841 457.904 243.308 473.624 266.402 474.621C289.215 475.604 310.876 461.824 319.698 440.78C320.808 438.125 321.707 435.4 322.395 432.605C322.564 431.945 321.538 431.664 321.384 432.324L321.412 432.296Z" fill="#2B63A8"/>
<path d="M262.963 466.938C293.212 466.938 317.734 442.416 317.734 412.167C317.734 381.917 293.212 357.396 262.963 357.396C232.713 357.396 208.191 381.917 208.191 412.167C208.191 442.416 232.713 466.938 262.963 466.938Z" fill="#FCBC00"/>
<path d="M315.638 425.132C310.146 446.976 291.35 463.678 268.86 466.108C246.3 468.553 224.119 456.289 214.173 435.906C204.185 415.425 208.371 390.083 224.456 373.929C240.47 357.844 265.517 353.391 286.082 363.084C306.254 372.594 318.813 394.199 317.043 416.436C316.804 419.372 316.326 422.28 315.624 425.146C315.47 425.806 316.481 426.087 316.636 425.427C322.03 403.119 312.983 379.281 293.935 366.371C274.662 353.307 248.477 353.939 229.85 367.874C211.223 381.809 203.188 406.533 210.141 428.686C217.095 450.839 237.534 466.459 260.628 467.457C283.722 468.454 305.103 454.66 313.924 433.616C315.034 430.961 315.933 428.236 316.621 425.441C316.79 424.781 315.765 424.5 315.61 425.16L315.638 425.132Z" fill="#2B63A8"/>
<path d="M255.633 410.732L267.616 441.271C267.363 441.524 267.152 441.342 266.969 441.271C264.595 440.541 262.235 439.796 259.861 439.08C259.342 438.925 259.075 438.673 258.878 438.167C255.155 428.629 251.405 419.09 247.654 409.552C247.471 409.074 247.443 408.639 247.612 408.161C247.935 407.22 248.272 406.265 248.497 405.296C248.694 404.397 249.031 404.186 249.944 404.495C251.896 405.169 253.849 405.815 255.872 406.251C258.4 406.785 260.915 406.925 263.415 406.153C265.93 405.38 267.84 403.849 269.048 401.475C269.414 400.758 269.343 400.463 268.515 400.21C262.839 398.483 257.178 396.713 251.517 394.957C251.04 394.802 250.562 394.662 249.874 394.451C251.545 393.088 253.048 391.866 254.565 390.644C254.903 390.363 255.254 390.63 255.563 390.728C260.156 392.147 264.736 393.566 269.329 394.985C269.61 395.069 269.962 395.364 270.214 395.111C270.439 394.872 270.214 394.493 270.13 394.198C269.343 391.108 267.096 389.366 264.399 388.059C261.196 386.514 257.74 385.643 254.369 384.576C254.004 384.463 253.652 384.351 253.076 384.168C254.734 382.82 256.251 381.583 257.754 380.361C257.993 380.165 258.232 380.263 258.485 380.347C269.161 383.663 279.837 386.978 290.499 390.279C290.583 390.658 290.274 390.742 290.106 390.883C288.94 391.852 287.732 392.765 286.594 393.763C286.06 394.226 285.596 394.282 284.95 394.072C282.436 393.257 279.907 392.484 277.252 391.67C277.477 392.484 277.688 393.215 277.856 393.931C278.067 394.915 278.165 395.912 278.053 396.909C277.983 397.555 278.221 397.794 278.826 397.963C281.663 398.806 284.487 399.705 287.535 400.646C286.495 401.489 285.498 402.149 284.711 402.992C283.349 404.453 281.916 404.748 280.118 403.877C279.205 403.427 278.151 403.259 277.182 402.922C276.761 402.781 276.508 402.809 276.255 403.259C273.586 408.26 269.161 410.521 263.724 411.139C261.308 411.42 258.906 411.252 256.518 410.732C256.293 410.69 256.083 410.648 255.858 410.62C255.802 410.62 255.745 410.662 255.619 410.718L255.633 410.732Z" fill="white"/>
<path d="M289.432 210.12C289.46 217.397 285.653 221.007 281.186 221.021C276.719 221.035 273.165 217.593 273.08 210.64C273.052 203.743 276.817 199.851 281.382 199.837C286.215 199.823 289.403 203.532 289.432 210.106V210.12ZM276.803 210.485C276.704 214.896 278.362 218.226 281.284 218.226C284.36 218.226 285.737 214.924 285.709 210.359C285.709 206.173 284.459 202.661 281.228 202.675C278.306 202.675 276.775 206.145 276.803 210.5V210.485ZM280.919 235.518L301.077 199.781H304.055L283.897 235.504H280.919V235.518ZM311.936 224.336C311.964 231.613 308.157 235.223 303.746 235.237C299.335 235.251 295.725 231.81 295.641 224.912C295.612 217.959 299.377 214.068 303.943 214.054C308.775 214.039 311.922 217.748 311.936 224.322V224.336ZM299.307 224.702C299.265 229.112 300.979 232.442 303.844 232.428C306.921 232.428 308.297 229.127 308.269 224.561C308.269 220.375 307.019 216.877 303.788 216.877C300.866 216.877 299.293 220.347 299.307 224.687V224.702Z" fill="white"/>
</g>
</g>
</g>
<defs>
<clipPath id="clip0_4650_22209">
<rect width="381.571" height="350.952" fill="white" transform="translate(99 148)"/>
</clipPath>
<clipPath id="clip1_4650_22209">
<rect width="381.395" height="349.567" fill="white" transform="translate(99.1777 147.999)"/>
</clipPath>
<clipPath id="clip2_4650_22209">
<rect width="381.571" height="349.774" fill="white" transform="translate(99 147.999)"/>
</clipPath>
</defs>
</svg>
