<svg width="356" height="368" viewBox="0 0 356 368" fill="none" xmlns="http://www.w3.org/2000/svg">
<rect width="356" height="368" rx="16" fill="#FFF9F3"/>
<g clip-path="url(#clip0_4651_22213)">
<path d="M302.129 174.167C302.129 186.171 292.385 195.915 280.381 195.915C268.377 195.915 258.633 186.171 258.633 174.167C258.633 162.137 268.377 152.419 280.381 152.419C292.385 152.419 302.129 162.137 302.129 174.167Z" fill="#F06823"/>
<path fill-rule="evenodd" clip-rule="evenodd" d="M279.081 161.799C278.943 162.388 278.588 162.916 278.016 163.384C277.462 163.782 276.916 164.172 276.379 164.553C276.414 164.709 276.518 164.83 276.691 164.917C276.881 164.986 277.063 165.064 277.236 165.151C278.137 165.722 278.588 166.415 278.588 167.229C278.588 167.836 278.38 168.399 277.964 168.918C277.635 169.317 277.15 169.715 276.509 170.113C275.989 170.408 275.47 170.702 274.95 170.997C274.828 171.084 274.69 171.127 274.534 171.127C274.188 171.127 273.945 170.98 273.807 170.685C273.824 169.784 273.841 168.884 273.859 167.983C273.876 166.909 273.936 166.017 274.04 165.307C273.815 165.151 273.702 164.977 273.702 164.787C273.702 164.683 273.746 164.596 273.833 164.527C273.902 164.441 274.006 164.354 274.144 164.267C274.283 162.622 274.309 161.106 274.222 159.72C273.72 159.616 273.391 159.391 273.235 159.045C273.218 158.993 273.235 158.923 273.287 158.837C273.339 158.75 273.365 158.681 273.365 158.629C273.607 158.456 273.885 158.369 274.197 158.369C274.404 158.369 274.898 158.438 275.677 158.577C276.076 158.629 276.492 158.776 276.925 159.019C278.085 159.608 278.77 160.188 278.977 160.76C279.116 161.175 279.151 161.522 279.081 161.799ZM277.081 167.359C277.098 167.238 277.107 167.117 277.107 166.996C277.107 166.684 277.011 166.398 276.821 166.138C276.266 165.878 275.911 165.748 275.756 165.748C275.669 165.748 275.591 165.766 275.522 165.8C275.522 165.904 275.522 166.017 275.522 166.138C275.522 166.381 275.495 166.736 275.443 167.203C275.374 167.671 275.34 168.018 275.34 168.243C275.34 168.589 275.383 168.91 275.47 169.204C275.608 169.048 275.816 168.884 276.094 168.71C276.371 168.555 276.561 168.407 276.665 168.269C276.855 168.043 276.994 167.74 277.081 167.359ZM277.574 160.993C277.522 160.595 277.193 160.292 276.587 160.084C276.5 160.049 276.371 159.98 276.197 159.876C276.058 159.79 275.946 159.746 275.86 159.746C275.825 159.746 275.781 159.755 275.729 159.772C275.712 159.945 275.704 160.136 275.704 160.344C275.704 160.621 275.729 161.097 275.781 161.773C275.799 162.397 275.808 162.881 275.808 163.228C275.877 163.228 275.989 163.167 276.145 163.046C276.301 162.942 276.387 162.882 276.405 162.864C276.734 162.708 277.02 162.457 277.263 162.111C277.505 161.747 277.609 161.375 277.574 160.993Z" fill="#FEFEFE"/>
<path d="M285.706 160.76C285.307 160.916 284.719 161.106 283.939 161.331C283.177 161.539 282.588 161.721 282.172 161.877C282.086 162.171 282.016 162.804 281.964 163.774C282.138 163.843 282.337 163.878 282.562 163.878C282.735 163.878 282.995 163.843 283.341 163.774C283.688 163.722 283.94 163.696 284.095 163.696C284.39 163.696 284.649 163.765 284.875 163.904C285.03 164.112 285.109 164.25 285.109 164.319C285.109 164.389 285.065 164.449 284.978 164.501C284.961 164.501 284.892 164.579 284.771 164.735C284.684 164.822 284.571 164.865 284.433 164.865C284.208 164.917 283.792 164.943 283.186 164.943C282.683 164.96 282.276 165.03 281.964 165.151C281.757 165.948 281.653 166.58 281.653 167.048C281.653 167.359 281.696 167.602 281.782 167.775C282.302 168.139 283.186 168.295 284.433 168.243C284.519 168.243 284.615 168.2 284.719 168.113C284.805 168.026 284.883 167.983 284.953 167.983C285.247 167.931 285.446 168.165 285.55 168.685C285.585 168.858 285.559 169.014 285.472 169.152C285.368 169.291 285.23 169.369 285.057 169.386C283.757 169.438 282.622 169.334 281.653 169.074C281.358 169.005 281.09 168.84 280.847 168.581C280.588 168.321 280.44 168.026 280.406 167.697C280.319 166.762 280.319 165.922 280.406 165.177C280.111 164.969 279.981 164.77 280.016 164.579C280.033 164.475 280.12 164.389 280.275 164.319C280.431 164.233 280.518 164.146 280.536 164.06C280.552 163.973 280.596 163.462 280.665 162.527C280.059 162.405 279.764 162.18 279.782 161.851C279.782 161.539 279.964 161.288 280.327 161.097C280.674 160.959 281.021 160.82 281.367 160.682C281.782 160.474 282.293 160.292 282.9 160.136C283.42 159.98 283.939 159.842 284.459 159.72C284.511 159.703 284.58 159.694 284.667 159.694C284.961 159.694 285.299 159.807 285.68 160.032C285.697 160.084 285.724 160.171 285.758 160.292C285.81 160.413 285.836 160.5 285.836 160.552C285.836 160.638 285.793 160.708 285.706 160.76Z" fill="#FEFEFE"/>
<path d="M273.706 184.092C273.74 184.3 273.575 184.412 273.212 184.43C272.987 184.447 272.744 184.352 272.485 184.144C272.294 183.953 272.138 183.65 272.016 183.234C271.895 182.853 271.826 182.325 271.809 181.649C271.791 180.87 271.757 180.333 271.705 180.038C271.566 180.524 271.332 181.242 271.003 182.195C270.813 182.732 270.692 183.035 270.64 183.105C270.466 183.451 270.25 183.607 269.99 183.572C269.487 183.451 269.089 183.157 268.795 182.689C268.622 182.394 268.448 181.918 268.275 181.26C268.102 180.532 267.964 180.047 267.86 179.805C267.392 182.057 266.889 183.737 266.352 184.845C266.283 185.001 266.058 184.993 265.677 184.819C265.365 184.663 265.209 184.447 265.209 184.17C265.209 184.066 265.322 183.719 265.547 183.13C265.651 182.871 266.032 181.623 266.69 179.389C266.915 178.609 267.149 177.241 267.392 175.284C267.409 175.266 267.461 175.154 267.547 174.946C267.599 174.79 267.703 174.712 267.86 174.712C268.223 174.712 268.474 174.79 268.613 174.946C268.613 175.258 268.665 175.76 268.769 176.453C268.873 177.146 268.925 177.674 268.925 178.038C269.011 178.644 269.098 179.25 269.185 179.857C269.306 180.55 269.522 181.112 269.834 181.546C270.874 178.67 271.532 176.392 271.809 174.712C271.861 174.539 272.025 174.452 272.302 174.452C272.701 174.452 272.926 174.582 272.978 174.842C273.048 175.24 273.082 175.691 273.082 176.193C273.082 176.366 273.073 176.721 273.056 177.258C273.056 177.709 273.056 178.072 273.056 178.35C273.16 180.636 273.377 182.55 273.706 184.092Z" fill="#FEFEFE"/>
<path fill-rule="evenodd" clip-rule="evenodd" d="M280.408 180.3C279.767 181.737 278.857 182.595 277.68 182.872C277.541 182.907 277.402 182.924 277.264 182.924C276.658 182.924 276.043 182.586 275.419 181.911C274.987 181.46 274.77 180.871 274.77 180.144C274.77 179.347 275.012 178.49 275.497 177.571C275.705 177.19 275.947 176.853 276.225 176.558C276.571 176.229 276.892 176.064 277.186 176.064C277.359 176.064 277.524 176.134 277.68 176.272C277.836 176.394 278.242 176.567 278.901 176.792C279.42 176.965 279.785 177.251 279.992 177.649C280.373 178.377 280.564 179.001 280.564 179.52C280.564 179.815 280.512 180.075 280.408 180.3ZM279.109 179.312C279.022 178.516 278.805 178.048 278.459 177.909C278.407 177.875 278.364 177.857 278.329 177.857C278.19 177.857 278.026 177.97 277.836 178.195C277.627 178.438 277.463 178.585 277.342 178.637C277.255 178.671 277.143 178.637 277.004 178.533C276.866 178.429 276.779 178.377 276.744 178.377C276.71 178.377 276.683 178.394 276.667 178.429C276.285 178.741 276.095 179.243 276.095 179.936C276.095 180.386 276.199 180.776 276.406 181.105C276.719 181.556 276.978 181.781 277.186 181.781C277.654 181.781 278.104 181.478 278.537 180.871C278.97 180.317 279.161 179.797 279.109 179.312Z" fill="#FEFEFE"/>
<path fill-rule="evenodd" clip-rule="evenodd" d="M288.12 183.911C288.154 183.963 288.172 184.015 288.172 184.067C288.172 184.309 287.913 184.5 287.393 184.638C286.821 184.188 286.111 183.504 285.262 182.586C284.309 181.564 283.599 180.854 283.131 180.455C283.097 180.732 283.036 181.469 282.949 182.664C282.897 183.565 282.802 184.275 282.664 184.794C282.647 184.794 282.577 184.82 282.456 184.872C282.334 184.924 282.239 184.942 282.17 184.924C281.703 184.82 281.469 184.491 281.469 183.937C281.469 183.781 281.486 183.565 281.52 183.287C281.572 182.976 281.598 182.785 281.598 182.716C281.651 182.092 281.676 181.347 281.676 180.481V178.714C281.676 177.242 281.763 176.003 281.936 174.999C282.04 174.323 282.672 174.02 283.833 174.089C284.404 174.107 284.907 174.392 285.34 174.947C285.738 175.466 285.938 176.029 285.938 176.636C285.938 177.138 285.755 177.649 285.392 178.169C285.063 178.619 284.656 178.974 284.171 179.234C283.98 179.338 283.885 179.45 283.885 179.572C283.885 179.728 283.998 179.901 284.223 180.091C284.396 180.23 284.569 180.369 284.742 180.507C284.76 180.524 285.357 181.061 286.535 182.118C287.28 182.794 287.808 183.391 288.12 183.911ZM284.69 176.662C284.725 176.454 284.742 176.281 284.742 176.142C284.708 175.917 284.613 175.709 284.456 175.518C284.3 175.328 284.05 175.233 283.703 175.233C283.443 175.233 283.279 175.319 283.21 175.492C283.158 175.752 283.131 176.055 283.131 176.402C283.131 176.54 283.149 176.904 283.183 177.493C283.201 177.943 283.201 178.307 283.183 178.584C284.066 177.909 284.569 177.268 284.69 176.662Z" fill="#FEFEFE"/>
<path d="M293.239 175.7C292.841 175.873 292.261 176.064 291.498 176.272C290.719 176.497 290.13 176.687 289.732 176.843C289.628 177.12 289.55 177.744 289.498 178.714C289.671 178.783 289.87 178.818 290.095 178.818C290.268 178.818 290.529 178.792 290.875 178.74C291.221 178.688 291.473 178.662 291.629 178.662C291.94 178.662 292.2 178.723 292.408 178.844C292.564 179.069 292.642 179.216 292.642 179.286C292.642 179.355 292.599 179.407 292.512 179.442C292.495 179.459 292.426 179.537 292.304 179.675C292.217 179.779 292.105 179.823 291.966 179.805C291.741 179.857 291.325 179.892 290.719 179.909C290.217 179.927 289.81 179.987 289.498 180.091C289.307 180.905 289.212 181.538 289.212 181.988C289.212 182.3 289.255 182.551 289.342 182.741C289.844 183.105 290.719 183.252 291.966 183.183C292.053 183.183 292.148 183.148 292.252 183.079C292.338 182.993 292.417 182.949 292.486 182.949C292.798 182.88 292.997 183.105 293.084 183.625C293.118 183.798 293.092 183.963 293.005 184.119C292.901 184.257 292.772 184.335 292.616 184.352C291.3 184.387 290.165 184.283 289.212 184.041C288.901 183.954 288.623 183.789 288.381 183.547C288.121 183.287 287.982 182.993 287.965 182.663C287.861 181.728 287.861 180.888 287.965 180.143C287.653 179.935 287.515 179.736 287.549 179.545C287.567 179.442 287.653 179.346 287.809 179.26C287.965 179.19 288.052 179.112 288.069 179.026C288.086 178.939 288.129 178.42 288.198 177.467C287.592 177.363 287.298 177.138 287.315 176.791C287.315 176.48 287.497 176.237 287.861 176.064C288.207 175.908 288.554 175.761 288.901 175.622C289.316 175.431 289.827 175.25 290.433 175.076C290.953 174.938 291.473 174.808 291.992 174.687C292.061 174.669 292.131 174.661 292.2 174.661C292.495 174.661 292.832 174.773 293.214 174.998C293.23 175.05 293.257 175.128 293.291 175.232C293.343 175.354 293.37 175.44 293.37 175.492C293.37 175.579 293.326 175.648 293.239 175.7Z" fill="#FEFEFE"/>
<path d="M295.999 184.143C296.035 184.282 296.017 184.429 295.947 184.585C295.878 184.723 295.801 184.792 295.714 184.792C295.627 184.81 295.558 184.836 295.506 184.87C295.472 184.922 295.428 184.94 295.376 184.922C294.805 184.715 294.484 184.437 294.415 184.091C294.38 183.935 294.484 183.779 294.726 183.623C294.952 183.467 295.116 183.398 295.22 183.415C295.393 183.433 295.558 183.502 295.714 183.623C295.887 183.762 295.983 183.935 295.999 184.143ZM297.585 174.243C297.515 175.005 297.238 176.365 296.753 178.323C296.337 180.038 296.147 181.441 296.181 182.532C296.181 182.619 296.121 182.705 295.999 182.792C295.895 182.878 295.792 182.913 295.688 182.896C295.134 182.774 294.839 182.497 294.805 182.064C294.805 181.839 294.805 181.614 294.805 181.389C294.805 180.384 294.96 179.145 295.272 177.673C295.774 175.508 296.043 174.278 296.078 173.983C296.112 173.845 296.199 173.75 296.337 173.698C296.476 173.646 296.606 173.646 296.727 173.698C296.918 173.75 297.108 173.802 297.299 173.854C297.49 173.94 297.585 174.07 297.585 174.243Z" fill="#FEFEFE"/>
<path d="M223.554 200.143C223.909 200.563 223.909 201.209 223.554 201.629L217.286 208.93L212.376 214.648C211.665 215.423 210.373 214.938 210.373 213.905V200.886V187.867C210.373 186.833 211.665 186.349 212.376 187.124L217.286 192.842L223.554 200.143Z" fill="url(#paint0_linear_4651_22213)"/>
<path d="M147.382 211.48C147.931 212.061 147.899 212.966 147.318 213.515L146.93 213.87C144.216 216.293 140.824 217.714 135.817 217.714C134.299 217.714 132.845 217.521 131.488 217.198C127.999 216.293 125.06 214.355 122.96 211.738C121.118 209.444 119.923 206.666 119.535 203.597C119.449 202.887 119.406 202.165 119.406 201.433C119.406 200.701 119.449 199.979 119.535 199.269C119.923 196.2 121.118 193.389 122.96 191.128C125.06 188.479 127.999 186.541 131.488 185.668C132.845 185.313 134.299 185.119 135.817 185.119C140.824 185.119 144.216 186.573 146.93 188.996L147.318 189.351C147.899 189.9 147.931 190.805 147.382 191.386L145.25 193.68L143.893 195.166C143.872 195.187 143.85 195.209 143.829 195.23C143.312 195.715 142.504 195.747 141.955 195.295C141.912 195.274 141.879 195.263 141.858 195.263L141.6 195.004C139.984 193.615 138.24 192.775 135.752 192.775C132.748 192.775 130.358 194.584 129.098 197.169C128.484 198.396 128.161 199.818 128.161 201.336V201.433V201.53C128.161 203.016 128.484 204.437 129.098 205.697C130.358 208.282 132.748 210.058 135.752 210.058C138.24 210.058 139.984 209.218 141.6 207.862L141.858 207.603C141.879 207.582 141.912 207.56 141.955 207.539C142.504 207.086 143.312 207.119 143.829 207.635C143.85 207.657 143.872 207.668 143.893 207.668L145.25 209.186L147.382 211.48Z" fill="#221F55"/>
<path fill-rule="evenodd" clip-rule="evenodd" d="M83.6758 201.531V201.434C83.6758 192.582 90.8151 185.378 100.41 185.378C109.972 185.378 117.046 192.453 117.046 201.305V201.434C117.046 210.285 109.907 217.489 100.313 217.489C90.7504 217.489 83.6758 210.414 83.6758 201.531ZM108.421 201.531V201.434C108.421 196.879 105.126 192.905 100.313 192.905C95.3055 192.905 92.3011 196.782 92.3011 201.305V201.434C92.3011 205.956 95.5962 209.93 100.41 209.93C105.417 209.93 108.421 206.086 108.421 201.531Z" fill="#221F55"/>
<path d="M178.91 186.702V188.77V205.083C178.91 208.863 176.681 213.353 172.352 215.744C170.123 216.972 167.507 217.714 164.663 217.714C161.821 217.714 159.203 216.972 156.975 215.712C152.646 213.353 150.449 208.863 150.449 205.083V188.77V186.702C150.449 185.83 151.128 185.119 152 185.119H157.621C158.461 185.119 159.172 185.83 159.172 186.702V188.77V202.337C159.172 205.342 160.205 207.409 162.047 208.346L162.176 208.411C162.919 208.734 163.759 208.928 164.663 208.928C165.568 208.928 166.408 208.734 167.151 208.411L167.28 208.346H167.312C169.121 207.409 170.155 205.342 170.155 202.337V188.77V186.702C170.155 185.83 170.866 185.119 171.706 185.119H177.327C178.199 185.119 178.91 185.83 178.91 186.702Z" fill="#221F55"/>
<path d="M256.118 186.528V188.596V204.91C256.118 208.689 253.922 213.18 249.593 215.57C247.364 216.798 244.747 217.541 241.904 217.541C239.062 217.541 236.445 216.798 234.216 215.538C229.887 213.18 227.658 208.689 227.658 204.91V188.596V186.528C227.658 185.656 228.369 184.945 229.241 184.945H234.862C235.702 184.945 236.412 185.656 236.412 186.528V188.596V202.164C236.412 205.168 237.447 207.235 239.288 208.172L239.417 208.237C240.16 208.56 241 208.754 241.904 208.754C242.809 208.754 243.649 208.56 244.392 208.237L244.521 208.172C246.362 207.235 247.396 205.168 247.396 202.164V188.596V186.528C247.396 185.656 248.075 184.945 248.947 184.945H254.568C255.44 184.945 256.118 185.656 256.118 186.528Z" fill="#221F55"/>
<path d="M206.309 207.41V207.507C206.309 209.639 205.824 211.416 204.952 212.87C202.981 216.165 198.975 217.715 194.227 217.715C190.286 217.715 185.925 216.552 182.048 213.936C181.876 213.828 181.704 213.709 181.531 213.58C180.821 213.031 181.079 212.353 181.241 212.03L183.824 208.088C184.213 207.604 184.891 207.442 185.44 207.733C185.462 207.733 185.483 207.744 185.505 207.765L185.796 207.927C188.832 209.833 191.869 210.834 194.453 210.834C197.038 210.834 198.233 209.865 198.233 208.476V208.347C198.233 208.304 198.222 208.261 198.201 208.218C198.136 207.184 197.134 206.506 195.681 205.956C194.55 205.504 193.161 205.149 191.675 204.696C191.546 204.653 191.406 204.61 191.254 204.567C187.701 203.501 183.922 201.854 182.662 198.009C182.404 197.169 182.242 196.265 182.242 195.199V195.07C182.242 188.641 187.443 185.055 193.807 185.055C197.328 185.055 201.14 186.121 204.338 187.93C204.489 188.016 204.64 188.103 204.79 188.189C205.178 188.512 205.307 189.029 205.146 189.513C205.124 189.578 205.092 189.642 205.049 189.707L203.692 192.13L203.24 192.97L202.82 193.713C202.82 193.734 202.809 193.756 202.787 193.777C202.432 194.294 201.754 194.52 201.172 194.262C201.13 194.262 201.097 194.251 201.076 194.23L200.139 193.81C200.117 193.788 200.085 193.777 200.042 193.777C197.684 192.614 195.39 191.936 193.613 191.936C191.449 191.936 190.318 192.905 190.318 194.133V194.262C190.318 194.94 190.802 195.49 191.578 195.974C192.774 196.717 194.679 197.299 196.747 198.009C200.3 199.205 204.274 200.788 205.727 204.341C206.083 205.213 206.309 206.247 206.309 207.41Z" fill="#221F55"/>
<path d="M86.4218 167.676C85.7757 168.839 85.1296 169.97 84.6128 171.165C84.0313 172.425 83.2883 172.651 82.1253 171.941C80.93 171.23 79.6056 170.713 78.2164 170.81C76.1813 170.907 74.5984 172.361 74.1783 174.557C73.92 175.979 73.8554 177.4 73.8554 178.854V185.347H81.9961C82.9006 185.347 83.6436 186.09 83.6436 187.027V190.903C83.6436 191.808 82.9006 192.551 81.9961 192.551H73.9522V216.166C73.9522 217.006 73.2416 217.716 72.4016 217.716H66.7806C65.9084 217.716 65.1977 217.006 65.1977 216.166V192.551H62.2257C61.3211 192.551 60.5781 191.808 60.5781 190.903V187.027C60.5781 186.09 61.3211 185.347 62.2257 185.347H65.1977V181.858V178.854C65.1977 176.689 65.3269 174.557 65.8438 172.458C67.556 165.318 74.6952 161.377 81.9638 163.542C83.3206 163.961 84.6451 164.511 85.8404 165.35C86.7126 165.932 86.971 166.675 86.4218 167.676Z" fill="#221F55"/>
</g>
<defs>
<linearGradient id="paint0_linear_4651_22213" x1="210.373" y1="184.217" x2="223.747" y2="184.217" gradientUnits="userSpaceOnUse">
<stop stop-color="#EE3E23"/>
<stop offset="0.5" stop-color="#EF6624"/>
<stop offset="1" stop-color="#F79C1D"/>
</linearGradient>
<clipPath id="clip0_4651_22213">
<rect width="248" height="73.1803" fill="white" transform="translate(54 147)"/>
</clipPath>
</defs>
</svg>
