<svg width="581" height="648" viewBox="0 0 581 648" fill="none" xmlns="http://www.w3.org/2000/svg">
<rect width="581" height="648" rx="16" fill="#FEFDF7"/>
<rect x="65" y="75.0767" width="451" height="497.847" rx="22.2324" fill="#ECF8FE"/>
<path d="M128.375 409.918L124.678 398.732L121.324 409.918H119.266L114.597 396.198H116.579L120.39 407.936L123.782 396.198H125.726L129.442 407.955L132.948 396.198H134.816L130.452 409.918H128.375ZM143.465 409.594C142.588 409.975 141.578 410.128 140.53 410.128C137.157 410.128 135.099 408.146 135.099 404.925C135.099 402.029 136.909 399.837 139.768 399.837C142.798 399.837 144.151 402.353 144.151 404.621C144.151 404.925 144.132 405.288 144.094 405.497H136.909C137.119 407.403 138.491 408.68 140.759 408.68C141.711 408.68 142.569 408.527 143.312 408.203L143.465 409.594ZM139.749 401.495C138.281 401.495 137.081 402.448 136.871 404.335H142.55C142.417 402.772 141.407 401.495 139.749 401.495ZM151.083 409.918V395.435H152.76V401.895H152.818C153.523 400.657 154.666 399.837 156.419 399.837C159.24 399.837 161.145 401.915 161.145 405.021C161.145 408.032 159.03 410.128 156.381 410.128C154.799 410.128 153.446 409.423 152.799 408.089H152.741V409.918H151.083ZM156.133 408.565C157.982 408.565 159.411 407.155 159.411 405.135C159.411 403.096 157.982 401.629 156.133 401.629C154.228 401.629 152.779 403.058 152.779 405.135C152.779 407.155 154.228 408.565 156.133 408.565ZM163.589 409.918V400.047H165.228V401.705H165.285C165.819 400.504 166.981 399.837 168.677 399.837L168.601 401.781C166.181 401.743 165.266 402.963 165.266 405.135V409.918H163.589ZM171.685 398.389C170.98 398.389 170.504 397.932 170.504 397.227C170.504 396.522 170.98 396.064 171.685 396.064C172.391 396.064 172.867 396.522 172.867 397.227C172.867 397.932 172.371 398.389 171.685 398.389ZM170.847 409.918V400.047H172.524V409.918H170.847ZM175.686 409.918V400.047H177.343V401.705H177.401C177.953 400.581 179.02 399.837 180.583 399.837C183.308 399.837 184.394 401.629 184.394 404.03V409.918H182.736V404.697C182.736 402.944 181.993 401.648 180.107 401.648C178.277 401.648 177.362 402.886 177.362 404.83V409.918H175.686ZM194.916 409.042V407.86H194.859C194.154 409.156 192.973 409.956 191.353 409.956C188.628 409.956 186.722 407.936 186.722 404.964C186.722 401.934 188.704 399.837 191.372 399.837C193.011 399.837 194.211 400.562 194.859 401.876H194.916V400.047H196.574V408.927C196.574 412.11 194.936 413.787 192.001 413.787C190.991 413.787 190.171 413.691 189.504 413.444L189.657 412.033C190.267 412.243 190.915 412.3 191.715 412.3C193.678 412.3 194.916 411.424 194.916 409.042ZM191.62 401.629C189.828 401.629 188.475 403.039 188.475 405.021C188.475 407.098 189.809 408.527 191.62 408.527C193.487 408.527 194.878 407.098 194.878 405.021C194.878 403.039 193.487 401.629 191.62 401.629ZM204.84 406.926V401.724H203.106V400.047H204.936L205.145 397.417H206.517V400.047H209.395V401.724H206.517V406.831C206.517 408.127 207.203 408.565 208.156 408.565C208.652 408.565 209.033 408.489 209.414 408.375L209.547 409.88C209.147 410.052 208.499 410.128 207.889 410.128C205.755 410.128 204.84 408.965 204.84 406.926ZM210.71 404.983C210.71 401.934 212.73 399.837 215.684 399.837C218.657 399.837 220.677 401.934 220.677 404.964C220.677 407.917 218.657 410.128 215.684 410.128C212.749 410.128 210.71 407.917 210.71 404.983ZM215.684 408.565C217.666 408.565 218.943 407.136 218.943 405.04C218.943 403.02 217.494 401.629 215.684 401.629C213.778 401.629 212.463 403.02 212.463 405.04C212.463 407.136 213.74 408.565 215.684 408.565ZM230.573 409.042V407.86H230.516C229.81 409.156 228.629 409.956 227.009 409.956C224.284 409.956 222.378 407.936 222.378 404.964C222.378 401.934 224.36 399.837 227.028 399.837C228.667 399.837 229.868 400.562 230.516 401.876H230.573V400.047H232.231V408.927C232.231 412.11 230.592 413.787 227.657 413.787C226.647 413.787 225.828 413.691 225.161 413.444L225.313 412.033C225.923 412.243 226.571 412.3 227.371 412.3C229.334 412.3 230.573 411.424 230.573 409.042ZM227.276 401.629C225.485 401.629 224.132 403.039 224.132 405.021C224.132 407.098 225.466 408.527 227.276 408.527C229.143 408.527 230.535 407.098 230.535 405.021C230.535 403.039 229.143 401.629 227.276 401.629ZM243.008 409.594C242.131 409.975 241.121 410.128 240.073 410.128C236.7 410.128 234.642 408.146 234.642 404.925C234.642 402.029 236.453 399.837 239.311 399.837C242.341 399.837 243.694 402.353 243.694 404.621C243.694 404.925 243.675 405.288 243.637 405.497H236.453C236.662 407.403 238.034 408.68 240.302 408.68C241.255 408.68 242.112 408.527 242.856 408.203L243.008 409.594ZM239.292 401.495C237.825 401.495 236.624 402.448 236.414 404.335H242.093C241.96 402.772 240.95 401.495 239.292 401.495ZM246.545 406.926V401.724H244.811V400.047H246.64L246.85 397.417H248.222V400.047H251.099V401.724H248.222V406.831C248.222 408.127 248.908 408.565 249.861 408.565C250.356 408.565 250.737 408.489 251.118 408.375L251.252 409.88C250.851 410.052 250.204 410.128 249.594 410.128C247.459 410.128 246.545 408.965 246.545 406.926ZM260.469 404.64C260.469 402.886 259.726 401.591 257.839 401.591C256.01 401.591 255.095 402.829 255.095 404.773V409.918H253.418V395.435H255.076V401.648H255.133C255.667 400.562 256.734 399.837 258.297 399.837C261.003 399.837 262.127 401.629 262.127 404.03V409.918H260.469V404.64ZM272.821 409.594C271.944 409.975 270.934 410.128 269.886 410.128C266.513 410.128 264.455 408.146 264.455 404.925C264.455 402.029 266.265 399.837 269.124 399.837C272.154 399.837 273.507 402.353 273.507 404.621C273.507 404.925 273.488 405.288 273.45 405.497H266.265C266.475 407.403 267.847 408.68 270.115 408.68C271.068 408.68 271.925 408.527 272.668 408.203L272.821 409.594ZM269.105 401.495C267.637 401.495 266.437 402.448 266.227 404.335H271.906C271.773 402.772 270.763 401.495 269.105 401.495ZM275.843 409.918V400.047H277.482V401.705H277.539C278.073 400.504 279.235 399.837 280.931 399.837L280.855 401.781C278.435 401.743 277.52 402.963 277.52 405.135V409.918H275.843ZM295.32 409.594C294.443 409.975 293.433 410.128 292.385 410.128C289.012 410.128 286.954 408.146 286.954 404.925C286.954 402.029 288.764 399.837 291.623 399.837C294.653 399.837 296.006 402.353 296.006 404.621C296.006 404.925 295.987 405.288 295.949 405.497H288.764C288.974 407.403 290.346 408.68 292.614 408.68C293.567 408.68 294.424 408.527 295.167 408.203L295.32 409.594ZM291.604 401.495C290.137 401.495 288.936 402.448 288.726 404.335H294.405C294.272 402.772 293.262 401.495 291.604 401.495ZM302.86 409.918H300.916L296.953 400.047H298.935L301.946 408.298L304.823 400.047H306.691L302.86 409.918ZM309.397 398.389C308.692 398.389 308.216 397.932 308.216 397.227C308.216 396.522 308.692 396.064 309.397 396.064C310.102 396.064 310.579 396.522 310.579 397.227C310.579 397.932 310.083 398.389 309.397 398.389ZM308.559 409.918V400.047H310.236V409.918H308.559ZM322.735 395.435V409.918H321.077V408.051H321.02C320.315 409.347 319.057 410.128 317.399 410.128C314.617 410.128 312.654 408.051 312.654 404.964C312.654 401.934 314.693 399.837 317.418 399.837C319.057 399.837 320.353 400.581 321.001 401.876H321.058V395.435H322.735ZM317.666 401.629C315.817 401.629 314.407 403.039 314.407 405.04C314.407 407.174 315.798 408.565 317.666 408.565C319.572 408.565 321.02 407.117 321.02 405.04C321.02 403.02 319.572 401.629 317.666 401.629ZM333.526 409.594C332.649 409.975 331.639 410.128 330.591 410.128C327.218 410.128 325.16 408.146 325.16 404.925C325.16 402.029 326.97 399.837 329.829 399.837C332.859 399.837 334.212 402.353 334.212 404.621C334.212 404.925 334.193 405.288 334.154 405.497H326.97C327.18 407.403 328.552 408.68 330.82 408.68C331.772 408.68 332.63 408.527 333.373 408.203L333.526 409.594ZM329.81 401.495C328.342 401.495 327.142 402.448 326.932 404.335H332.611C332.477 402.772 331.468 401.495 329.81 401.495ZM336.548 409.918V400.047H338.206V401.705H338.263C338.816 400.581 339.883 399.837 341.445 399.837C344.17 399.837 345.257 401.629 345.257 404.03V409.918H343.599V404.697C343.599 402.944 342.855 401.648 340.969 401.648C339.139 401.648 338.225 402.886 338.225 404.83V409.918H336.548ZM355.36 408.032L355.493 409.537C354.788 409.899 353.854 410.128 352.844 410.128C349.7 410.128 347.585 408.108 347.585 404.925C347.585 401.972 349.49 399.837 352.711 399.837C353.854 399.837 354.731 400.085 355.436 400.428L355.283 402.143C354.654 401.819 353.816 401.629 352.863 401.629C350.71 401.629 349.338 403.058 349.338 405.002C349.338 407.174 350.786 408.565 352.939 408.565C353.816 408.565 354.654 408.375 355.36 408.032ZM365.274 409.594C364.397 409.975 363.387 410.128 362.339 410.128C358.966 410.128 356.908 408.146 356.908 404.925C356.908 402.029 358.718 399.837 361.577 399.837C364.607 399.837 365.96 402.353 365.96 404.621C365.96 404.925 365.941 405.288 365.903 405.497H358.718C358.928 407.403 360.3 408.68 362.568 408.68C363.521 408.68 364.378 408.527 365.121 408.203L365.274 409.594ZM361.558 401.495C360.09 401.495 358.89 402.448 358.68 404.335H364.359C364.226 402.772 363.216 401.495 361.558 401.495ZM367.419 404.64V402.905H372.279V404.64H367.419ZM374.549 409.918V395.435H376.226V401.895H376.283C376.988 400.657 378.131 399.837 379.885 399.837C382.705 399.837 384.611 401.915 384.611 405.021C384.611 408.032 382.495 410.128 379.847 410.128C378.265 410.128 376.912 409.423 376.264 408.089H376.207V409.918H374.549ZM379.599 408.565C381.447 408.565 382.876 407.155 382.876 405.135C382.876 403.096 381.447 401.629 379.599 401.629C377.693 401.629 376.245 403.058 376.245 405.135C376.245 407.155 377.693 408.565 379.599 408.565ZM392.657 403.248C392.657 402.296 391.971 401.629 390.313 401.629C389.094 401.629 387.988 401.972 387.207 402.353L387.055 400.638C387.931 400.161 389.132 399.837 390.485 399.837C393.343 399.837 394.429 401.248 394.429 403.42V409.918H392.733V408.375C392.028 409.347 391.075 410.128 389.418 410.128C387.702 410.128 386.426 409.213 386.426 407.536C386.426 405.592 387.722 404.887 390.275 404.468C391.209 404.316 391.857 404.144 392.314 403.915C392.619 403.782 392.657 403.592 392.657 403.248ZM392.733 404.906C392.276 405.173 391.438 405.421 390.447 405.592C388.922 405.859 388.16 406.259 388.16 407.384C388.16 408.394 388.998 408.889 390.027 408.889C391.38 408.889 392.352 407.994 392.733 407.041V404.906ZM396.866 409.537L396.999 408.146C397.78 408.451 398.809 408.68 399.972 408.68C401.382 408.68 402.373 408.279 402.373 407.269C402.373 406.431 401.82 406.031 399.972 405.573C398.009 405.097 396.961 404.411 396.961 402.734C396.961 401.019 398.352 399.837 400.734 399.837C401.954 399.837 402.849 400.104 403.497 400.371L403.364 402.086C402.678 401.838 401.82 401.629 400.734 401.629C399.419 401.629 398.619 401.953 398.619 402.81C398.619 403.592 399.172 403.935 400.81 404.278C402.926 404.735 403.993 405.459 403.993 407.193C403.993 409.004 402.659 410.128 400.048 410.128C398.714 410.128 397.723 409.88 396.866 409.537ZM413.845 409.594C412.968 409.975 411.959 410.128 410.91 410.128C407.537 410.128 405.479 408.146 405.479 404.925C405.479 402.029 407.29 399.837 410.148 399.837C413.178 399.837 414.531 402.353 414.531 404.621C414.531 404.925 414.512 405.288 414.474 405.497H407.29C407.499 407.403 408.871 408.68 411.139 408.68C412.092 408.68 412.949 408.527 413.693 408.203L413.845 409.594ZM410.129 401.495C408.662 401.495 407.461 402.448 407.252 404.335H412.93C412.797 402.772 411.787 401.495 410.129 401.495ZM426.205 395.435V409.918H424.547V408.051H424.49C423.785 409.347 422.527 410.128 420.869 410.128C418.087 410.128 416.124 408.051 416.124 404.964C416.124 401.934 418.163 399.837 420.888 399.837C422.527 399.837 423.823 400.581 424.471 401.876H424.528V395.435H426.205ZM421.136 401.629C419.287 401.629 417.877 403.039 417.877 405.04C417.877 407.174 419.268 408.565 421.136 408.565C423.042 408.565 424.49 407.117 424.49 405.04C424.49 403.02 423.042 401.629 421.136 401.629ZM439.572 403.248C439.572 402.296 438.886 401.629 437.228 401.629C436.009 401.629 434.903 401.972 434.122 402.353L433.97 400.638C434.846 400.161 436.047 399.837 437.4 399.837C440.258 399.837 441.344 401.248 441.344 403.42V409.918H439.648V408.375C438.943 409.347 437.991 410.128 436.333 410.128C434.618 410.128 433.341 409.213 433.341 407.536C433.341 405.592 434.637 404.887 437.19 404.468C438.124 404.316 438.772 404.144 439.229 403.915C439.534 403.782 439.572 403.592 439.572 403.248ZM439.648 404.906C439.191 405.173 438.353 405.421 437.362 405.592C435.837 405.859 435.075 406.259 435.075 407.384C435.075 408.394 435.913 408.889 436.942 408.889C438.295 408.889 439.267 407.994 439.648 407.041V404.906ZM444 409.918V400.047H445.658V401.705H445.715C446.268 400.581 447.335 399.837 448.898 399.837C451.623 399.837 452.709 401.629 452.709 404.03V409.918H451.051V404.697C451.051 402.944 450.308 401.648 448.421 401.648C446.592 401.648 445.677 402.886 445.677 404.83V409.918H444ZM465.118 395.435V409.918H463.46V408.051H463.403C462.698 409.347 461.44 410.128 459.782 410.128C457 410.128 455.037 408.051 455.037 404.964C455.037 401.934 457.076 399.837 459.801 399.837C461.44 399.837 462.736 400.581 463.384 401.876H463.441V395.435H465.118ZM460.049 401.629C458.2 401.629 456.79 403.039 456.79 405.04C456.79 407.174 458.181 408.565 460.049 408.565C461.954 408.565 463.403 407.117 463.403 405.04C463.403 403.02 461.954 401.629 460.049 401.629ZM143.779 438.918V429.047H145.418V430.705H145.475C146.009 429.504 147.171 428.837 148.867 428.837L148.791 430.781C146.371 430.743 145.456 431.963 145.456 434.135V438.918H143.779ZM158.362 438.594C157.485 438.975 156.475 439.128 155.427 439.128C152.054 439.128 149.996 437.146 149.996 433.925C149.996 431.029 151.806 428.837 154.665 428.837C157.695 428.837 159.048 431.353 159.048 433.621C159.048 433.925 159.029 434.288 158.991 434.497H151.806C152.016 436.403 153.388 437.68 155.656 437.68C156.609 437.68 157.466 437.527 158.209 437.203L158.362 438.594ZM154.646 430.495C153.178 430.495 151.978 431.448 151.768 433.335H157.447C157.314 431.772 156.304 430.495 154.646 430.495ZM160.755 438.537L160.888 437.146C161.67 437.451 162.699 437.68 163.861 437.68C165.271 437.68 166.262 437.279 166.262 436.269C166.262 435.431 165.71 435.031 163.861 434.573C161.898 434.097 160.85 433.411 160.85 431.734C160.85 430.019 162.241 428.837 164.624 428.837C165.843 428.837 166.739 429.104 167.387 429.371L167.253 431.086C166.567 430.838 165.71 430.629 164.624 430.629C163.309 430.629 162.508 430.953 162.508 431.81C162.508 432.592 163.061 432.935 164.7 433.278C166.815 433.735 167.882 434.459 167.882 436.193C167.882 438.004 166.548 439.128 163.938 439.128C162.604 439.128 161.613 438.88 160.755 438.537ZM177.734 438.594C176.858 438.975 175.848 439.128 174.8 439.128C171.427 439.128 169.369 437.146 169.369 433.925C169.369 431.029 171.179 428.837 174.038 428.837C177.067 428.837 178.42 431.353 178.42 433.621C178.42 433.925 178.401 434.288 178.363 434.497H171.179C171.389 436.403 172.761 437.68 175.028 437.68C175.981 437.68 176.839 437.527 177.582 437.203L177.734 438.594ZM174.018 430.495C172.551 430.495 171.351 431.448 171.141 433.335H176.82C176.686 431.772 175.676 430.495 174.018 430.495ZM186.21 432.248C186.21 431.296 185.524 430.629 183.866 430.629C182.647 430.629 181.542 430.972 180.76 431.353L180.608 429.638C181.484 429.161 182.685 428.837 184.038 428.837C186.896 428.837 187.983 430.248 187.983 432.42V438.918H186.287V437.375C185.581 438.347 184.629 439.128 182.971 439.128C181.256 439.128 179.979 438.213 179.979 436.536C179.979 434.592 181.275 433.887 183.828 433.468C184.762 433.316 185.41 433.144 185.867 432.915C186.172 432.782 186.21 432.592 186.21 432.248ZM186.287 433.906C185.829 434.173 184.991 434.421 184 434.592C182.475 434.859 181.713 435.259 181.713 436.384C181.713 437.394 182.552 437.889 183.581 437.889C184.934 437.889 185.905 436.994 186.287 436.041V433.906ZM190.638 438.918V429.047H192.277V430.705H192.334C192.868 429.504 194.03 428.837 195.726 428.837L195.65 430.781C193.23 430.743 192.315 431.963 192.315 434.135V438.918H190.638ZM204.63 437.032L204.764 438.537C204.059 438.899 203.125 439.128 202.115 439.128C198.971 439.128 196.855 437.108 196.855 433.925C196.855 430.972 198.761 428.837 201.981 428.837C203.125 428.837 204.001 429.085 204.706 429.428L204.554 431.143C203.925 430.819 203.087 430.629 202.134 430.629C199.98 430.629 198.608 432.058 198.608 434.002C198.608 436.174 200.057 437.565 202.21 437.565C203.087 437.565 203.925 437.375 204.63 437.032ZM214.233 433.64C214.233 431.886 213.49 430.591 211.604 430.591C209.774 430.591 208.859 431.829 208.859 433.773V438.918H207.182V424.435H208.84V430.648H208.898C209.431 429.562 210.498 428.837 212.061 428.837C214.767 428.837 215.891 430.629 215.891 433.03V438.918H214.233V433.64ZM218.086 433.64V431.905H222.945V433.64H218.086ZM225.215 438.918V424.435H226.892V430.895H226.949C227.654 429.657 228.798 428.837 230.551 428.837C233.371 428.837 235.277 430.915 235.277 434.021C235.277 437.032 233.162 439.128 230.513 439.128C228.931 439.128 227.578 438.423 226.93 437.089H226.873V438.918H225.215ZM230.265 437.565C232.114 437.565 233.543 436.155 233.543 434.135C233.543 432.096 232.114 430.629 230.265 430.629C228.36 430.629 226.911 432.058 226.911 434.135C226.911 436.155 228.36 437.565 230.265 437.565ZM243.324 432.248C243.324 431.296 242.637 430.629 240.98 430.629C239.76 430.629 238.655 430.972 237.873 431.353L237.721 429.638C238.598 429.161 239.798 428.837 241.151 428.837C244.01 428.837 245.096 430.248 245.096 432.42V438.918H243.4V437.375C242.695 438.347 241.742 439.128 240.084 439.128C238.369 439.128 237.092 438.213 237.092 436.536C237.092 434.592 238.388 433.887 240.941 433.468C241.875 433.316 242.523 433.144 242.981 432.915C243.285 432.782 243.324 432.592 243.324 432.248ZM243.4 433.906C242.942 434.173 242.104 434.421 241.113 434.592C239.588 434.859 238.826 435.259 238.826 436.384C238.826 437.394 239.665 437.889 240.694 437.889C242.047 437.889 243.019 436.994 243.4 436.041V433.906ZM255.193 437.032L255.326 438.537C254.621 438.899 253.687 439.128 252.677 439.128C249.533 439.128 247.418 437.108 247.418 433.925C247.418 430.972 249.323 428.837 252.544 428.837C253.687 428.837 254.564 429.085 255.269 429.428L255.117 431.143C254.488 430.819 253.649 430.629 252.696 430.629C250.543 430.629 249.171 432.058 249.171 434.002C249.171 436.174 250.619 437.565 252.773 437.565C253.649 437.565 254.488 437.375 255.193 437.032ZM263.519 438.918L259.422 434.535V438.918H257.745V424.435H259.422V433.258L263.043 429.047H265.215L260.851 433.83L265.634 438.918H263.519ZM274.393 438.594C273.517 438.975 272.507 439.128 271.459 439.128C268.086 439.128 266.028 437.146 266.028 433.925C266.028 431.029 267.838 428.837 270.696 428.837C273.726 428.837 275.079 431.353 275.079 433.621C275.079 433.925 275.06 434.288 275.022 434.497H267.838C268.047 436.403 269.42 437.68 271.687 437.68C272.64 437.68 273.498 437.527 274.241 437.203L274.393 438.594ZM270.677 430.495C269.21 430.495 268.009 431.448 267.8 433.335H273.479C273.345 431.772 272.335 430.495 270.677 430.495ZM286.753 424.435V438.918H285.095V437.051H285.038C284.333 438.347 283.075 439.128 281.417 439.128C278.635 439.128 276.672 437.051 276.672 433.964C276.672 430.934 278.711 428.837 281.436 428.837C283.075 428.837 284.371 429.581 285.019 430.876H285.076V424.435H286.753ZM281.684 430.629C279.836 430.629 278.425 432.039 278.425 434.04C278.425 436.174 279.817 437.565 281.684 437.565C283.59 437.565 285.038 436.117 285.038 434.04C285.038 432.02 283.59 430.629 281.684 430.629ZM302.14 438.594C301.264 438.975 300.254 439.128 299.206 439.128C295.833 439.128 293.775 437.146 293.775 433.925C293.775 431.029 295.585 428.837 298.443 428.837C301.473 428.837 302.826 431.353 302.826 433.621C302.826 433.925 302.807 434.288 302.769 434.497H295.585C295.795 436.403 297.167 437.68 299.434 437.68C300.387 437.68 301.245 437.527 301.988 437.203L302.14 438.594ZM298.424 430.495C296.957 430.495 295.756 431.448 295.547 433.335H301.226C301.092 431.772 300.082 430.495 298.424 430.495ZM311.188 438.918L308.329 435.107L305.623 438.918H303.756L307.434 433.849L303.889 429.047H306.024L308.596 432.553L311.093 429.047H313.094L309.511 433.849L313.189 438.918H311.188ZM315.1 442.539V429.047H316.758V430.895H316.815C317.501 429.619 318.778 428.837 320.436 428.837C323.294 428.837 325.162 430.915 325.162 434.021C325.162 437.032 323.047 439.128 320.398 439.128C318.816 439.128 317.482 438.366 316.834 437.089H316.777V442.539H315.1ZM320.15 437.565C321.999 437.565 323.428 436.155 323.428 434.135C323.428 432.096 321.999 430.629 320.15 430.629C318.244 430.629 316.796 432.077 316.796 434.135C316.796 436.117 318.244 437.565 320.15 437.565ZM335.228 438.594C334.352 438.975 333.342 439.128 332.294 439.128C328.921 439.128 326.863 437.146 326.863 433.925C326.863 431.029 328.673 428.837 331.531 428.837C334.561 428.837 335.914 431.353 335.914 433.621C335.914 433.925 335.895 434.288 335.857 434.497H328.673C328.883 436.403 330.255 437.68 332.522 437.68C333.475 437.68 334.333 437.527 335.076 437.203L335.228 438.594ZM331.512 430.495C330.045 430.495 328.845 431.448 328.635 433.335H334.314C334.18 431.772 333.17 430.495 331.512 430.495ZM338.251 438.918V429.047H339.889V430.705H339.947C340.48 429.504 341.643 428.837 343.339 428.837L343.262 430.781C340.842 430.743 339.928 431.963 339.928 434.135V438.918H338.251ZM346.347 427.389C345.642 427.389 345.165 426.932 345.165 426.227C345.165 425.522 345.642 425.064 346.347 425.064C347.052 425.064 347.528 425.522 347.528 426.227C347.528 426.932 347.033 427.389 346.347 427.389ZM345.508 438.918V429.047H347.185V438.918H345.508ZM357.969 438.594C357.093 438.975 356.083 439.128 355.035 439.128C351.662 439.128 349.604 437.146 349.604 433.925C349.604 431.029 351.414 428.837 354.273 428.837C357.302 428.837 358.655 431.353 358.655 433.621C358.655 433.925 358.636 434.288 358.598 434.497H351.414C351.624 436.403 352.996 437.68 355.263 437.68C356.216 437.68 357.074 437.527 357.817 437.203L357.969 438.594ZM354.253 430.495C352.786 430.495 351.586 431.448 351.376 433.335H357.055C356.921 431.772 355.911 430.495 354.253 430.495ZM360.992 438.918V429.047H362.65V430.705H362.707C363.259 429.581 364.327 428.837 365.889 428.837C368.614 428.837 369.7 430.629 369.7 433.03V438.918H368.043V433.697C368.043 431.944 367.299 430.648 365.413 430.648C363.583 430.648 362.669 431.886 362.669 433.83V438.918H360.992ZM379.803 437.032L379.937 438.537C379.232 438.899 378.298 439.128 377.288 439.128C374.144 439.128 372.028 437.108 372.028 433.925C372.028 430.972 373.934 428.837 377.155 428.837C378.298 428.837 379.175 429.085 379.88 429.428L379.727 431.143C379.098 430.819 378.26 430.629 377.307 430.629C375.154 430.629 373.782 432.058 373.782 434.002C373.782 436.174 375.23 437.565 377.383 437.565C378.26 437.565 379.098 437.375 379.803 437.032ZM389.718 438.594C388.841 438.975 387.831 439.128 386.783 439.128C383.41 439.128 381.352 437.146 381.352 433.925C381.352 431.029 383.162 428.837 386.021 428.837C389.051 428.837 390.404 431.353 390.404 433.621C390.404 433.925 390.385 434.288 390.346 434.497H383.162C383.372 436.403 384.744 437.68 387.012 437.68C387.964 437.68 388.822 437.527 389.565 437.203L389.718 438.594ZM386.002 430.495C384.534 430.495 383.334 431.448 383.124 433.335H388.803C388.67 431.772 387.66 430.495 386.002 430.495ZM392.111 438.537L392.244 437.146C393.026 437.451 394.055 437.68 395.217 437.68C396.627 437.68 397.618 437.279 397.618 436.269C397.618 435.431 397.066 435.031 395.217 434.573C393.254 434.097 392.206 433.411 392.206 431.734C392.206 430.019 393.597 428.837 395.979 428.837C397.199 428.837 398.095 429.104 398.743 429.371L398.609 431.086C397.923 430.838 397.066 430.629 395.979 430.629C394.665 430.629 393.864 430.953 393.864 431.81C393.864 432.592 394.417 432.935 396.056 433.278C398.171 433.735 399.238 434.459 399.238 436.193C399.238 438.004 397.904 439.128 395.293 439.128C393.959 439.128 392.968 438.88 392.111 438.537ZM411.667 432.248C411.667 431.296 410.981 430.629 409.323 430.629C408.103 430.629 406.998 430.972 406.217 431.353L406.064 429.638C406.941 429.161 408.141 428.837 409.494 428.837C412.353 428.837 413.439 430.248 413.439 432.42V438.918H411.743V437.375C411.038 438.347 410.085 439.128 408.427 439.128C406.712 439.128 405.435 438.213 405.435 436.536C405.435 434.592 406.731 433.887 409.285 433.468C410.219 433.316 410.867 433.144 411.324 432.915C411.629 432.782 411.667 432.592 411.667 432.248ZM411.743 433.906C411.286 434.173 410.447 434.421 409.456 434.592C407.932 434.859 407.17 435.259 407.17 436.384C407.17 437.394 408.008 437.889 409.037 437.889C410.39 437.889 411.362 436.994 411.743 436.041V433.906ZM416.095 438.918V429.047H417.753V430.705H417.81C418.363 429.581 419.43 428.837 420.992 428.837C423.718 428.837 424.804 430.629 424.804 433.03V438.918H423.146V433.697C423.146 431.944 422.403 430.648 420.516 430.648C418.687 430.648 417.772 431.886 417.772 433.83V438.918H416.095ZM437.213 424.435V438.918H435.555V437.051H435.497C434.792 438.347 433.535 439.128 431.877 439.128C429.095 439.128 427.132 437.051 427.132 433.964C427.132 430.934 429.171 428.837 431.896 428.837C433.535 428.837 434.831 429.581 435.478 430.876H435.536V424.435H437.213ZM432.144 430.629C430.295 430.629 428.885 432.039 428.885 434.04C428.885 436.174 430.276 437.565 432.144 437.565C434.049 437.565 435.497 436.117 435.497 434.04C435.497 432.02 434.049 430.629 432.144 430.629ZM122.313 471.539V458.047H123.971V459.895H124.028C124.714 458.619 125.991 457.837 127.649 457.837C130.507 457.837 132.375 459.915 132.375 463.021C132.375 466.032 130.259 468.128 127.611 468.128C126.029 468.128 124.695 467.366 124.047 466.089H123.99V471.539H122.313ZM127.363 466.565C129.211 466.565 130.64 465.155 130.64 463.135C130.64 461.096 129.211 459.629 127.363 459.629C125.457 459.629 124.009 461.077 124.009 463.135C124.009 465.117 125.457 466.565 127.363 466.565ZM134.819 467.918V458.047H136.457V459.705H136.515C137.048 458.504 138.211 457.837 139.907 457.837L139.83 459.781C137.41 459.743 136.496 460.963 136.496 463.135V467.918H134.819ZM141.035 462.983C141.035 459.934 143.055 457.837 146.009 457.837C148.982 457.837 151.002 459.934 151.002 462.964C151.002 465.917 148.982 468.128 146.009 468.128C143.074 468.128 141.035 465.917 141.035 462.983ZM146.009 466.565C147.991 466.565 149.268 465.136 149.268 463.04C149.268 461.02 147.819 459.629 146.009 459.629C144.104 459.629 142.789 461.02 142.789 463.04C142.789 465.136 144.065 466.565 146.009 466.565ZM162.785 453.435V467.918H161.127V466.051H161.069C160.364 467.347 159.107 468.128 157.449 468.128C154.667 468.128 152.704 466.051 152.704 462.964C152.704 459.934 154.743 457.837 157.468 457.837C159.107 457.837 160.402 458.581 161.05 459.876H161.108V453.435H162.785ZM157.716 459.629C155.867 459.629 154.457 461.039 154.457 463.04C154.457 465.174 155.848 466.565 157.716 466.565C159.621 466.565 161.069 465.117 161.069 463.04C161.069 461.02 159.621 459.629 157.716 459.629ZM174.452 458.047V467.918H172.794V466.298H172.737C172.203 467.404 171.174 468.128 169.65 468.128C167.001 468.128 165.857 466.337 165.857 463.935V458.047H167.534V463.554C167.534 465.288 168.258 466.565 170.088 466.565C171.879 466.565 172.775 465.212 172.775 463.383V458.047H174.452ZM184.653 466.032L184.786 467.537C184.081 467.899 183.147 468.128 182.137 468.128C178.993 468.128 176.878 466.108 176.878 462.925C176.878 459.972 178.783 457.837 182.004 457.837C183.147 457.837 184.024 458.085 184.729 458.428L184.576 460.143C183.948 459.819 183.109 459.629 182.156 459.629C180.003 459.629 178.631 461.058 178.631 463.002C178.631 465.174 180.079 466.565 182.233 466.565C183.109 466.565 183.948 466.375 184.653 466.032ZM187.719 464.926V459.724H185.985V458.047H187.815L188.024 455.417H189.396V458.047H192.274V459.724H189.396V464.831C189.396 466.127 190.082 466.565 191.035 466.565C191.531 466.565 191.912 466.489 192.293 466.375L192.426 467.88C192.026 468.052 191.378 468.128 190.768 468.128C188.634 468.128 187.719 466.965 187.719 464.926ZM193.964 467.537L194.098 466.146C194.879 466.451 195.908 466.68 197.07 466.68C198.48 466.68 199.471 466.279 199.471 465.269C199.471 464.431 198.919 464.031 197.07 463.573C195.107 463.097 194.059 462.411 194.059 460.734C194.059 459.019 195.451 457.837 197.833 457.837C199.052 457.837 199.948 458.104 200.596 458.371L200.462 460.086C199.776 459.838 198.919 459.629 197.833 459.629C196.518 459.629 195.717 459.953 195.717 460.81C195.717 461.592 196.27 461.935 197.909 462.278C200.024 462.735 201.091 463.459 201.091 465.193C201.091 467.004 199.757 468.128 197.147 468.128C195.813 468.128 194.822 467.88 193.964 467.537ZM208.432 464.926V459.724H206.698V458.047H208.527L208.737 455.417H210.109V458.047H212.987V459.724H210.109V464.831C210.109 466.127 210.795 466.565 211.748 466.565C212.243 466.565 212.624 466.489 213.006 466.375L213.139 467.88C212.739 468.052 212.091 468.128 211.481 468.128C209.347 468.128 208.432 466.965 208.432 464.926ZM222.356 462.64C222.356 460.886 221.613 459.591 219.727 459.591C217.897 459.591 216.983 460.829 216.983 462.773V467.918H215.306V453.435H216.963V459.648H217.021C217.554 458.562 218.621 457.837 220.184 457.837C222.89 457.837 224.014 459.629 224.014 462.03V467.918H222.356V462.64ZM232.688 461.248C232.688 460.296 232.002 459.629 230.344 459.629C229.125 459.629 228.019 459.972 227.238 460.353L227.086 458.638C227.962 458.161 229.163 457.837 230.516 457.837C233.374 457.837 234.46 459.248 234.46 461.42V467.918H232.764V466.375C232.059 467.347 231.106 468.128 229.449 468.128C227.733 468.128 226.457 467.213 226.457 465.536C226.457 463.592 227.753 462.887 230.306 462.468C231.24 462.316 231.888 462.144 232.345 461.915C232.65 461.782 232.688 461.592 232.688 461.248ZM232.764 462.906C232.307 463.173 231.468 463.421 230.478 463.592C228.953 463.859 228.191 464.259 228.191 465.384C228.191 466.394 229.029 466.889 230.058 466.889C231.411 466.889 232.383 465.994 232.764 465.041V462.906ZM238.04 464.926V459.724H236.306V458.047H238.135L238.345 455.417H239.717V458.047H242.595V459.724H239.717V464.831C239.717 466.127 240.403 466.565 241.356 466.565C241.851 466.565 242.232 466.489 242.614 466.375L242.747 467.88C242.347 468.052 241.699 468.128 241.089 468.128C238.955 468.128 238.04 466.965 238.04 464.926ZM248.881 467.537L249.015 466.146C249.796 466.451 250.825 466.68 251.988 466.68C253.398 466.68 254.389 466.279 254.389 465.269C254.389 464.431 253.836 464.031 251.988 463.573C250.025 463.097 248.977 462.411 248.977 460.734C248.977 459.019 250.368 457.837 252.75 457.837C253.969 457.837 254.865 458.104 255.513 458.371L255.38 460.086C254.694 459.838 253.836 459.629 252.75 459.629C251.435 459.629 250.635 459.953 250.635 460.81C250.635 461.592 251.187 461.935 252.826 462.278C254.941 462.735 256.008 463.459 256.008 465.193C256.008 467.004 254.674 468.128 252.064 468.128C250.73 468.128 249.739 467.88 248.881 467.537ZM265.861 467.594C264.984 467.975 263.974 468.128 262.926 468.128C259.553 468.128 257.495 466.146 257.495 462.925C257.495 460.029 259.305 457.837 262.164 457.837C265.194 457.837 266.547 460.353 266.547 462.621C266.547 462.925 266.528 463.288 266.49 463.497H259.305C259.515 465.403 260.887 466.68 263.155 466.68C264.108 466.68 264.965 466.527 265.708 466.203L265.861 467.594ZM262.145 459.495C260.677 459.495 259.477 460.448 259.267 462.335H264.946C264.813 460.772 263.803 459.495 262.145 459.495ZM268.883 467.918V458.047H270.522V459.705H270.579C271.113 458.504 272.275 457.837 273.971 457.837L273.895 459.781C271.475 459.743 270.56 460.963 270.56 463.135V467.918H268.883ZM280.733 467.918H278.79L274.826 458.047H276.808L279.819 466.298L282.696 458.047H284.564L280.733 467.918ZM293.961 467.594C293.085 467.975 292.075 468.128 291.027 468.128C287.654 468.128 285.596 466.146 285.596 462.925C285.596 460.029 287.406 457.837 290.264 457.837C293.294 457.837 294.647 460.353 294.647 462.621C294.647 462.925 294.628 463.288 294.59 463.497H287.406C287.616 465.403 288.988 466.68 291.255 466.68C292.208 466.68 293.066 466.527 293.809 466.203L293.961 467.594ZM290.245 459.495C288.778 459.495 287.577 460.448 287.368 462.335H293.047C292.913 460.772 291.903 459.495 290.245 459.495ZM307.183 461.248C307.183 460.296 306.497 459.629 304.839 459.629C303.619 459.629 302.514 459.972 301.733 460.353L301.58 458.638C302.457 458.161 303.657 457.837 305.01 457.837C307.869 457.837 308.955 459.248 308.955 461.42V467.918H307.259V466.375C306.554 467.347 305.601 468.128 303.943 468.128C302.228 468.128 300.951 467.213 300.951 465.536C300.951 463.592 302.247 462.887 304.801 462.468C305.734 462.316 306.382 462.144 306.84 461.915C307.145 461.782 307.183 461.592 307.183 461.248ZM307.259 462.906C306.802 463.173 305.963 463.421 304.972 463.592C303.448 463.859 302.685 464.259 302.685 465.384C302.685 466.394 303.524 466.889 304.553 466.889C305.906 466.889 306.878 465.994 307.259 465.041V462.906ZM311.391 467.537L311.525 466.146C312.306 466.451 313.335 466.68 314.498 466.68C315.908 466.68 316.899 466.279 316.899 465.269C316.899 464.431 316.346 464.031 314.498 463.573C312.535 463.097 311.487 462.411 311.487 460.734C311.487 459.019 312.878 457.837 315.26 457.837C316.479 457.837 317.375 458.104 318.023 458.371L317.89 460.086C317.204 459.838 316.346 459.629 315.26 459.629C313.945 459.629 313.145 459.953 313.145 460.81C313.145 461.592 313.697 461.935 315.336 462.278C317.451 462.735 318.518 463.459 318.518 465.193C318.518 467.004 317.184 468.128 314.574 468.128C313.24 468.128 312.249 467.88 311.391 467.537ZM325.345 467.918V453.435H327.022V459.895H327.079C327.784 458.657 328.927 457.837 330.681 457.837C333.501 457.837 335.407 459.915 335.407 463.021C335.407 466.032 333.291 468.128 330.642 468.128C329.061 468.128 327.708 467.423 327.06 466.089H327.003V467.918H325.345ZM330.395 466.565C332.243 466.565 333.672 465.155 333.672 463.135C333.672 461.096 332.243 459.629 330.395 459.629C328.489 459.629 327.041 461.058 327.041 463.135C327.041 465.155 328.489 466.565 330.395 466.565ZM337.85 467.918V458.047H339.489V459.705H339.547C340.08 458.504 341.243 457.837 342.939 457.837L342.862 459.781C340.442 459.743 339.527 460.963 339.527 463.135V467.918H337.85ZM345.947 456.389C345.242 456.389 344.765 455.932 344.765 455.227C344.765 454.522 345.242 454.064 345.947 454.064C346.652 454.064 347.128 454.522 347.128 455.227C347.128 455.932 346.633 456.389 345.947 456.389ZM345.108 467.918V458.047H346.785V467.918H345.108ZM359.284 453.435V467.918H357.627V466.051H357.569C356.864 467.347 355.607 468.128 353.949 468.128C351.166 468.128 349.204 466.051 349.204 462.964C349.204 459.934 351.243 457.837 353.968 457.837C355.607 457.837 356.902 458.581 357.55 459.876H357.607V453.435H359.284ZM354.215 459.629C352.367 459.629 350.957 461.039 350.957 463.04C350.957 465.174 352.348 466.565 354.215 466.565C356.121 466.565 357.569 465.117 357.569 463.04C357.569 461.02 356.121 459.629 354.215 459.629ZM369.904 467.042V465.86H369.846C369.141 467.156 367.96 467.956 366.34 467.956C363.615 467.956 361.709 465.936 361.709 462.964C361.709 459.934 363.691 457.837 366.359 457.837C367.998 457.837 369.198 458.562 369.846 459.876H369.904V458.047H371.561V466.927C371.561 470.11 369.923 471.787 366.988 471.787C365.978 471.787 365.159 471.691 364.492 471.444L364.644 470.033C365.254 470.243 365.902 470.3 366.702 470.3C368.665 470.3 369.904 469.424 369.904 467.042ZM366.607 459.629C364.816 459.629 363.463 461.039 363.463 463.021C363.463 465.098 364.796 466.527 366.607 466.527C368.474 466.527 369.865 465.098 369.865 463.021C369.865 461.039 368.474 459.629 366.607 459.629ZM382.339 467.594C381.462 467.975 380.452 468.128 379.404 468.128C376.031 468.128 373.973 466.146 373.973 462.925C373.973 460.029 375.783 457.837 378.642 457.837C381.672 457.837 383.025 460.353 383.025 462.621C383.025 462.925 383.006 463.288 382.968 463.497H375.783C375.993 465.403 377.365 466.68 379.633 466.68C380.586 466.68 381.443 466.527 382.186 466.203L382.339 467.594ZM378.623 459.495C377.156 459.495 375.955 460.448 375.745 462.335H381.424C381.291 460.772 380.281 459.495 378.623 459.495ZM384.732 467.537L384.866 466.146C385.647 466.451 386.676 466.68 387.838 466.68C389.249 466.68 390.239 466.279 390.239 465.269C390.239 464.431 389.687 464.031 387.838 463.573C385.876 463.097 384.827 462.411 384.827 460.734C384.827 459.019 386.219 457.837 388.601 457.837C389.82 457.837 390.716 458.104 391.364 458.371L391.23 460.086C390.544 459.838 389.687 459.629 388.601 459.629C387.286 459.629 386.485 459.953 386.485 460.81C386.485 461.592 387.038 461.935 388.677 462.278C390.792 462.735 391.859 463.459 391.859 465.193C391.859 467.004 390.525 468.128 387.915 468.128C386.581 468.128 385.59 467.88 384.732 467.537ZM399.2 464.926V459.724H397.466V458.047H399.295L399.505 455.417H400.877V458.047H403.755V459.724H400.877V464.831C400.877 466.127 401.563 466.565 402.516 466.565C403.011 466.565 403.393 466.489 403.774 466.375L403.907 467.88C403.507 468.052 402.859 468.128 402.249 468.128C400.115 468.128 399.2 466.965 399.2 464.926ZM405.07 462.983C405.07 459.934 407.09 457.837 410.044 457.837C413.016 457.837 415.036 459.934 415.036 462.964C415.036 465.917 413.016 468.128 410.044 468.128C407.109 468.128 405.07 465.917 405.07 462.983ZM410.044 466.565C412.026 466.565 413.302 465.136 413.302 463.04C413.302 461.02 411.854 459.629 410.044 459.629C408.138 459.629 406.823 461.02 406.823 463.04C406.823 465.136 408.1 466.565 410.044 466.565ZM429.129 462.64C429.129 460.886 428.386 459.591 426.499 459.591C424.67 459.591 423.755 460.829 423.755 462.773V467.918H422.078V453.435H423.736V459.648H423.793C424.327 458.562 425.394 457.837 426.956 457.837C429.662 457.837 430.787 459.629 430.787 462.03V467.918H429.129V462.64ZM441.481 467.594C440.604 467.975 439.594 468.128 438.546 468.128C435.173 468.128 433.115 466.146 433.115 462.925C433.115 460.029 434.925 457.837 437.784 457.837C440.814 457.837 442.167 460.353 442.167 462.621C442.167 462.925 442.147 463.288 442.109 463.497H434.925C435.135 465.403 436.507 466.68 438.775 466.68C439.727 466.68 440.585 466.527 441.328 466.203L441.481 467.594ZM437.765 459.495C436.297 459.495 435.097 460.448 434.887 462.335H440.566C440.432 460.772 439.422 459.495 437.765 459.495ZM444.503 467.918V453.435H446.18V467.918H444.503ZM449.341 471.539V458.047H450.999V459.895H451.056C451.742 458.619 453.019 457.837 454.677 457.837C457.535 457.837 459.403 459.915 459.403 463.021C459.403 466.032 457.288 468.128 454.639 468.128C453.057 468.128 451.723 467.366 451.075 466.089H451.018V471.539H449.341ZM454.391 466.565C456.24 466.565 457.669 465.155 457.669 463.135C457.669 461.096 456.24 459.629 454.391 459.629C452.486 459.629 451.037 461.077 451.037 463.135C451.037 465.117 452.486 466.565 454.391 466.565ZM121.262 485.389C120.557 485.389 120.081 484.932 120.081 484.227C120.081 483.522 120.557 483.064 121.262 483.064C121.968 483.064 122.444 483.522 122.444 484.227C122.444 484.932 121.948 485.389 121.262 485.389ZM120.424 496.918V487.047H122.101V496.918H120.424ZM125.263 496.918V487.047H126.92V488.705H126.978C127.53 487.581 128.597 486.837 130.16 486.837C132.885 486.837 133.971 488.629 133.971 491.03V496.918H132.313V491.697C132.313 489.944 131.57 488.648 129.684 488.648C127.854 488.648 126.939 489.886 126.939 491.83V496.918H125.263ZM146.38 482.435V496.918H144.722V495.051H144.665C143.96 496.347 142.702 497.128 141.044 497.128C138.262 497.128 136.299 495.051 136.299 491.964C136.299 488.934 138.338 486.837 141.063 486.837C142.702 486.837 143.998 487.581 144.646 488.876H144.703V482.435H146.38ZM141.311 488.629C139.463 488.629 138.052 490.039 138.052 492.04C138.052 494.174 139.444 495.565 141.311 495.565C143.217 495.565 144.665 494.117 144.665 492.04C144.665 490.02 143.217 488.629 141.311 488.629ZM150.387 485.389C149.682 485.389 149.205 484.932 149.205 484.227C149.205 483.522 149.682 483.064 150.387 483.064C151.092 483.064 151.568 483.522 151.568 484.227C151.568 484.932 151.073 485.389 150.387 485.389ZM149.548 496.918V487.047H151.225V496.918H149.548ZM158.979 496.918H157.036L153.072 487.047H155.054L158.065 495.298L160.942 487.047H162.81L158.979 496.918ZM165.516 485.389C164.811 485.389 164.335 484.932 164.335 484.227C164.335 483.522 164.811 483.064 165.516 483.064C166.221 483.064 166.698 483.522 166.698 484.227C166.698 484.932 166.202 485.389 165.516 485.389ZM164.678 496.918V487.047H166.355V496.918H164.678ZM178.854 482.435V496.918H177.196V495.051H177.139C176.434 496.347 175.176 497.128 173.518 497.128C170.736 497.128 168.773 495.051 168.773 491.964C168.773 488.934 170.812 486.837 173.537 486.837C175.176 486.837 176.472 487.581 177.12 488.876H177.177V482.435H178.854ZM173.785 488.629C171.937 488.629 170.526 490.039 170.526 492.04C170.526 494.174 171.917 495.565 173.785 495.565C175.691 495.565 177.139 494.117 177.139 492.04C177.139 490.02 175.691 488.629 173.785 488.629ZM190.521 487.047V496.918H188.863V495.298H188.806C188.273 496.404 187.244 497.128 185.719 497.128C183.07 497.128 181.927 495.337 181.927 492.935V487.047H183.604V492.554C183.604 494.288 184.328 495.565 186.157 495.565C187.949 495.565 188.844 494.212 188.844 492.383V487.047H190.521ZM199.293 490.248C199.293 489.296 198.607 488.629 196.949 488.629C195.729 488.629 194.624 488.972 193.843 489.353L193.69 487.638C194.567 487.161 195.768 486.837 197.121 486.837C199.979 486.837 201.065 488.248 201.065 490.42V496.918H199.369V495.375C198.664 496.347 197.711 497.128 196.053 497.128C194.338 497.128 193.062 496.213 193.062 494.536C193.062 492.592 194.357 491.887 196.911 491.468C197.845 491.316 198.493 491.144 198.95 490.915C199.255 490.782 199.293 490.592 199.293 490.248ZM199.369 491.906C198.912 492.173 198.073 492.421 197.082 492.592C195.558 492.859 194.796 493.259 194.796 494.384C194.796 495.394 195.634 495.889 196.663 495.889C198.016 495.889 198.988 494.994 199.369 494.041V491.906ZM204.13 496.918V482.435H205.807V496.918H204.13ZM208.34 496.537L208.474 495.146C209.255 495.451 210.284 495.68 211.446 495.68C212.856 495.68 213.847 495.279 213.847 494.269C213.847 493.431 213.295 493.031 211.446 492.573C209.483 492.097 208.435 491.411 208.435 489.734C208.435 488.019 209.827 486.837 212.209 486.837C213.428 486.837 214.324 487.104 214.972 487.371L214.838 489.086C214.152 488.838 213.295 488.629 212.209 488.629C210.894 488.629 210.093 488.953 210.093 489.81C210.093 490.592 210.646 490.935 212.285 491.278C214.4 491.735 215.467 492.459 215.467 494.193C215.467 496.004 214.133 497.128 211.523 497.128C210.189 497.128 209.198 496.88 208.34 496.537ZM222.294 496.918V487.047H223.932V488.705H223.99C224.523 487.504 225.686 486.837 227.382 486.837L227.305 488.781C224.885 488.743 223.97 489.963 223.97 492.135V496.918H222.294ZM236.876 496.594C236 496.975 234.99 497.128 233.941 497.128C230.568 497.128 228.51 495.146 228.51 491.925C228.51 489.029 230.321 486.837 233.179 486.837C236.209 486.837 237.562 489.353 237.562 491.621C237.562 491.925 237.543 492.288 237.505 492.497H230.321C230.53 494.403 231.902 495.68 234.17 495.68C235.123 495.68 235.98 495.527 236.724 495.203L236.876 496.594ZM233.16 488.495C231.693 488.495 230.492 489.448 230.283 491.335H235.961C235.828 489.772 234.818 488.495 233.16 488.495ZM246.93 495.032L247.063 496.537C246.358 496.899 245.425 497.128 244.415 497.128C241.27 497.128 239.155 495.108 239.155 491.925C239.155 488.972 241.061 486.837 244.281 486.837C245.425 486.837 246.301 487.085 247.006 487.428L246.854 489.143C246.225 488.819 245.387 488.629 244.434 488.629C242.28 488.629 240.908 490.058 240.908 492.002C240.908 494.174 242.357 495.565 244.51 495.565C245.387 495.565 246.225 495.375 246.93 495.032ZM248.479 491.983C248.479 488.934 250.499 486.837 253.452 486.837C256.425 486.837 258.445 488.934 258.445 491.964C258.445 494.917 256.425 497.128 253.452 497.128C250.518 497.128 248.479 494.917 248.479 491.983ZM253.452 495.565C255.434 495.565 256.711 494.136 256.711 492.04C256.711 490.02 255.263 488.629 253.452 488.629C251.547 488.629 250.232 490.02 250.232 492.04C250.232 494.136 251.509 495.565 253.452 495.565ZM268.341 496.042V494.86H268.284C267.579 496.156 266.397 496.956 264.778 496.956C262.052 496.956 260.147 494.936 260.147 491.964C260.147 488.934 262.129 486.837 264.797 486.837C266.435 486.837 267.636 487.562 268.284 488.876H268.341V487.047H269.999V495.927C269.999 499.11 268.36 500.787 265.425 500.787C264.415 500.787 263.596 500.691 262.929 500.444L263.082 499.033C263.691 499.243 264.339 499.3 265.14 499.3C267.102 499.3 268.341 498.424 268.341 496.042ZM265.044 488.629C263.253 488.629 261.9 490.039 261.9 492.021C261.9 494.098 263.234 495.527 265.044 495.527C266.912 495.527 268.303 494.098 268.303 492.021C268.303 490.039 266.912 488.629 265.044 488.629ZM273.154 496.918V487.047H274.812V488.705H274.869C275.422 487.581 276.489 486.837 278.051 486.837C280.776 486.837 281.863 488.629 281.863 491.03V496.918H280.205V491.697C280.205 489.944 279.461 488.648 277.575 488.648C275.746 488.648 274.831 489.886 274.831 491.83V496.918H273.154ZM285.772 485.389C285.067 485.389 284.591 484.932 284.591 484.227C284.591 483.522 285.067 483.064 285.772 483.064C286.477 483.064 286.954 483.522 286.954 484.227C286.954 484.932 286.458 485.389 285.772 485.389ZM284.934 496.918V487.047H286.611V496.918H284.934ZM288.896 496.918V495.66L294.403 488.724H289.105V487.047H296.499V488.591L290.973 495.413H296.423V496.918H288.896ZM306.197 496.594C305.321 496.975 304.311 497.128 303.263 497.128C299.89 497.128 297.832 495.146 297.832 491.925C297.832 489.029 299.642 486.837 302.5 486.837C305.53 486.837 306.883 489.353 306.883 491.621C306.883 491.925 306.864 492.288 306.826 492.497H299.642C299.851 494.403 301.224 495.68 303.491 495.68C304.444 495.68 305.302 495.527 306.045 495.203L306.197 496.594ZM302.481 488.495C301.014 488.495 299.813 489.448 299.604 491.335H305.283C305.149 489.772 304.139 488.495 302.481 488.495ZM319.419 490.248C319.419 489.296 318.733 488.629 317.075 488.629C315.855 488.629 314.75 488.972 313.969 489.353L313.816 487.638C314.693 487.161 315.893 486.837 317.246 486.837C320.105 486.837 321.191 488.248 321.191 490.42V496.918H319.495V495.375C318.79 496.347 317.837 497.128 316.179 497.128C314.464 497.128 313.187 496.213 313.187 494.536C313.187 492.592 314.483 491.887 317.037 491.468C317.97 491.316 318.618 491.144 319.076 490.915C319.381 490.782 319.419 490.592 319.419 490.248ZM319.495 491.906C319.038 492.173 318.199 492.421 317.208 492.592C315.684 492.859 314.921 493.259 314.921 494.384C314.921 495.394 315.76 495.889 316.789 495.889C318.142 495.889 319.114 494.994 319.495 494.041V491.906ZM323.847 496.918V487.047H325.505V488.705H325.562C326.114 487.581 327.182 486.837 328.744 486.837C331.469 486.837 332.555 488.629 332.555 491.03V496.918H330.898V491.697C330.898 489.944 330.154 488.648 328.268 488.648C326.438 488.648 325.524 489.886 325.524 491.83V496.918H323.847ZM344.964 482.435V496.918H343.306V495.051H343.249C342.544 496.347 341.286 497.128 339.628 497.128C336.846 497.128 334.883 495.051 334.883 491.964C334.883 488.934 336.922 486.837 339.648 486.837C341.286 486.837 342.582 487.581 343.23 488.876H343.287V482.435H344.964ZM339.895 488.629C338.047 488.629 336.637 490.039 336.637 492.04C336.637 494.174 338.028 495.565 339.895 495.565C341.801 495.565 343.249 494.117 343.249 492.04C343.249 490.02 341.801 488.629 339.895 488.629ZM360.18 496.042V494.86H360.123C359.418 496.156 358.236 496.956 356.616 496.956C353.891 496.956 351.986 494.936 351.986 491.964C351.986 488.934 353.968 486.837 356.636 486.837C358.274 486.837 359.475 487.562 360.123 488.876H360.18V487.047H361.838V495.927C361.838 499.11 360.199 500.787 357.264 500.787C356.254 500.787 355.435 500.691 354.768 500.444L354.92 499.033C355.53 499.243 356.178 499.3 356.979 499.3C358.941 499.3 360.18 498.424 360.18 496.042ZM356.883 488.629C355.092 488.629 353.739 490.039 353.739 492.021C353.739 494.098 355.073 495.527 356.883 495.527C358.751 495.527 360.142 494.098 360.142 492.021C360.142 490.039 358.751 488.629 356.883 488.629ZM372.615 496.594C371.739 496.975 370.729 497.128 369.681 497.128C366.308 497.128 364.25 495.146 364.25 491.925C364.25 489.029 366.06 486.837 368.918 486.837C371.948 486.837 373.301 489.353 373.301 491.621C373.301 491.925 373.282 492.288 373.244 492.497H366.06C366.27 494.403 367.642 495.68 369.909 495.68C370.862 495.68 371.72 495.527 372.463 495.203L372.615 496.594ZM368.899 488.495C367.432 488.495 366.231 489.448 366.022 491.335H371.701C371.567 489.772 370.557 488.495 368.899 488.495ZM376.152 493.926V488.724H374.418V487.047H376.247L376.457 484.417H377.829V487.047H380.707V488.724H377.829V493.831C377.829 495.127 378.515 495.565 379.468 495.565C379.963 495.565 380.344 495.489 380.726 495.375L380.859 496.88C380.459 497.052 379.811 497.128 379.201 497.128C377.067 497.128 376.152 495.965 376.152 493.926ZM394.654 495.032L394.787 496.537C394.082 496.899 393.149 497.128 392.139 497.128C388.994 497.128 386.879 495.108 386.879 491.925C386.879 488.972 388.785 486.837 392.005 486.837C393.149 486.837 394.025 487.085 394.73 487.428L394.578 489.143C393.949 488.819 393.11 488.629 392.158 488.629C390.004 488.629 388.632 490.058 388.632 492.002C388.632 494.174 390.08 495.565 392.234 495.565C393.11 495.565 393.949 495.375 394.654 495.032ZM397.206 496.918V482.435H398.883V496.918H397.206ZM401.301 491.983C401.301 488.934 403.321 486.837 406.275 486.837C409.248 486.837 411.268 488.934 411.268 491.964C411.268 494.917 409.248 497.128 406.275 497.128C403.341 497.128 401.301 494.917 401.301 491.983ZM406.275 495.565C408.257 495.565 409.534 494.136 409.534 492.04C409.534 490.02 408.086 488.629 406.275 488.629C404.37 488.629 403.055 490.02 403.055 492.04C403.055 494.136 404.331 495.565 406.275 495.565ZM413.084 496.537L413.217 495.146C413.999 495.451 415.028 495.68 416.19 495.68C417.6 495.68 418.591 495.279 418.591 494.269C418.591 493.431 418.039 493.031 416.19 492.573C414.227 492.097 413.179 491.411 413.179 489.734C413.179 488.019 414.57 486.837 416.953 486.837C418.172 486.837 419.068 487.104 419.716 487.371L419.582 489.086C418.896 488.838 418.039 488.629 416.953 488.629C415.638 488.629 414.837 488.953 414.837 489.81C414.837 490.592 415.39 490.935 417.029 491.278C419.144 491.735 420.211 492.459 420.211 494.193C420.211 496.004 418.877 497.128 416.267 497.128C414.933 497.128 413.942 496.88 413.084 496.537ZM430.063 496.594C429.187 496.975 428.177 497.128 427.129 497.128C423.756 497.128 421.698 495.146 421.698 491.925C421.698 489.029 423.508 486.837 426.367 486.837C429.396 486.837 430.749 489.353 430.749 491.621C430.749 491.925 430.73 492.288 430.692 492.497H423.508C423.718 494.403 425.09 495.68 427.357 495.68C428.31 495.68 429.168 495.527 429.911 495.203L430.063 496.594ZM426.347 488.495C424.88 488.495 423.68 489.448 423.47 491.335H429.149C429.015 489.772 428.005 488.495 426.347 488.495ZM433.086 496.918V487.047H434.725V488.705H434.782C435.315 487.504 436.478 486.837 438.174 486.837L438.097 488.781C435.677 488.743 434.763 489.963 434.763 492.135V496.918H433.086ZM445.455 493.926V488.724H443.72V487.047H445.55L445.759 484.417H447.132V487.047H450.009V488.724H447.132V493.831C447.132 495.127 447.818 495.565 448.77 495.565C449.266 495.565 449.647 495.489 450.028 495.375L450.161 496.88C449.761 497.052 449.113 497.128 448.504 497.128C446.369 497.128 445.455 495.965 445.455 493.926ZM451.324 491.983C451.324 488.934 453.344 486.837 456.298 486.837C459.271 486.837 461.291 488.934 461.291 491.964C461.291 494.917 459.271 497.128 456.298 497.128C453.363 497.128 451.324 494.917 451.324 491.983ZM456.298 495.565C458.28 495.565 459.557 494.136 459.557 492.04C459.557 490.02 458.108 488.629 456.298 488.629C454.392 488.629 453.078 490.02 453.078 492.04C453.078 494.136 454.354 495.565 456.298 495.565ZM210.488 522.926V517.724H208.754V516.047H210.584L210.793 513.417H212.165V516.047H215.043V517.724H212.165V522.831C212.165 524.127 212.851 524.565 213.804 524.565C214.3 524.565 214.681 524.489 215.062 524.375L215.195 525.88C214.795 526.052 214.147 526.128 213.537 526.128C211.403 526.128 210.488 524.965 210.488 522.926ZM224.413 520.64C224.413 518.886 223.67 517.591 221.783 517.591C219.954 517.591 219.039 518.829 219.039 520.773V525.918H217.362V511.435H219.02V517.648H219.077C219.611 516.562 220.678 515.837 222.24 515.837C224.946 515.837 226.071 517.629 226.071 520.03V525.918H224.413V520.64ZM236.764 525.594C235.888 525.975 234.878 526.128 233.83 526.128C230.457 526.128 228.399 524.146 228.399 520.925C228.399 518.029 230.209 515.837 233.068 515.837C236.097 515.837 237.45 518.353 237.45 520.621C237.45 520.925 237.431 521.288 237.393 521.497H230.209C230.419 523.403 231.791 524.68 234.058 524.68C235.011 524.68 235.869 524.527 236.612 524.203L236.764 525.594ZM233.048 517.495C231.581 517.495 230.381 518.448 230.171 520.335H235.85C235.716 518.772 234.706 517.495 233.048 517.495ZM240.625 514.389C239.92 514.389 239.444 513.932 239.444 513.227C239.444 512.522 239.92 512.064 240.625 512.064C241.33 512.064 241.807 512.522 241.807 513.227C241.807 513.932 241.311 514.389 240.625 514.389ZM239.787 525.918V516.047H241.464V525.918H239.787ZM244.625 525.918V516.047H246.264V517.705H246.321C246.855 516.504 248.017 515.837 249.713 515.837L249.637 517.781C247.217 517.743 246.302 518.963 246.302 521.135V525.918H244.625ZM255.279 517.724V516.047H256.956V514.408C256.956 512.35 258.137 511.226 260.024 511.226C260.691 511.226 261.244 511.283 261.663 511.435L261.51 512.827C261.167 512.731 260.805 512.712 260.329 512.712C259.071 512.712 258.633 513.379 258.633 514.389V516.047H261.415V517.724H258.633V525.918H256.956V517.724H255.279ZM271.79 516.047V525.918H270.132V524.298H270.075C269.541 525.404 268.512 526.128 266.988 526.128C264.339 526.128 263.195 524.337 263.195 521.935V516.047H264.872V521.554C264.872 523.288 265.597 524.565 267.426 524.565C269.217 524.565 270.113 523.212 270.113 521.383V516.047H271.79ZM274.959 525.918V511.435H276.636V525.918H274.959ZM279.798 525.918V511.435H281.474V525.918H279.798ZM289.233 529.539V516.047H290.891V517.895H290.948C291.634 516.619 292.911 515.837 294.568 515.837C297.427 515.837 299.294 517.915 299.294 521.021C299.294 524.032 297.179 526.128 294.53 526.128C292.949 526.128 291.615 525.366 290.967 524.089H290.91V529.539H289.233ZM294.283 524.565C296.131 524.565 297.56 523.155 297.56 521.135C297.56 519.096 296.131 517.629 294.283 517.629C292.377 517.629 290.929 519.077 290.929 521.135C290.929 523.117 292.377 524.565 294.283 524.565ZM300.995 520.983C300.995 517.934 303.015 515.837 305.969 515.837C308.942 515.837 310.962 517.934 310.962 520.964C310.962 523.917 308.942 526.128 305.969 526.128C303.034 526.128 300.995 523.917 300.995 520.983ZM305.969 524.565C307.951 524.565 309.227 523.136 309.227 521.04C309.227 519.02 307.779 517.629 305.969 517.629C304.063 517.629 302.748 519.02 302.748 521.04C302.748 523.136 304.025 524.565 305.969 524.565ZM313.754 522.926V517.724H312.02V516.047H313.849L314.059 513.417H315.431V516.047H318.308V517.724H315.431V522.831C315.431 524.127 316.117 524.565 317.069 524.565C317.565 524.565 317.946 524.489 318.327 524.375L318.461 525.88C318.06 526.052 317.412 526.128 316.803 526.128C314.668 526.128 313.754 524.965 313.754 522.926ZM327.989 525.594C327.113 525.975 326.103 526.128 325.055 526.128C321.682 526.128 319.623 524.146 319.623 520.925C319.623 518.029 321.434 515.837 324.292 515.837C327.322 515.837 328.675 518.353 328.675 520.621C328.675 520.925 328.656 521.288 328.618 521.497H321.434C321.643 523.403 323.016 524.68 325.283 524.68C326.236 524.68 327.094 524.527 327.837 524.203L327.989 525.594ZM324.273 517.495C322.806 517.495 321.605 518.448 321.396 520.335H327.075C326.941 518.772 325.931 517.495 324.273 517.495ZM331.011 525.918V516.047H332.669V517.705H332.726C333.279 516.581 334.346 515.837 335.909 515.837C338.634 515.837 339.72 517.629 339.72 520.03V525.918H338.062V520.697C338.062 518.944 337.319 517.648 335.432 517.648C333.603 517.648 332.688 518.886 332.688 520.83V525.918H331.011ZM343.083 522.926V517.724H341.348V516.047H343.178L343.387 513.417H344.76V516.047H347.637V517.724H344.76V522.831C344.76 524.127 345.446 524.565 346.398 524.565C346.894 524.565 347.275 524.489 347.656 524.375L347.79 525.88C347.389 526.052 346.741 526.128 346.132 526.128C343.997 526.128 343.083 524.965 343.083 522.926ZM350.795 514.389C350.089 514.389 349.613 513.932 349.613 513.227C349.613 512.522 350.089 512.064 350.795 512.064C351.5 512.064 351.976 512.522 351.976 513.227C351.976 513.932 351.481 514.389 350.795 514.389ZM349.956 525.918V516.047H351.633V525.918H349.956ZM360.397 519.248C360.397 518.296 359.711 517.629 358.053 517.629C356.834 517.629 355.728 517.972 354.947 518.353L354.795 516.638C355.671 516.161 356.872 515.837 358.225 515.837C361.083 515.837 362.169 517.248 362.169 519.42V525.918H360.473V524.375C359.768 525.347 358.816 526.128 357.158 526.128C355.443 526.128 354.166 525.213 354.166 523.536C354.166 521.592 355.462 520.887 358.015 520.468C358.949 520.316 359.597 520.144 360.054 519.915C360.359 519.782 360.397 519.592 360.397 519.248ZM360.473 520.906C360.016 521.173 359.178 521.421 358.187 521.592C356.662 521.859 355.9 522.259 355.9 523.384C355.9 524.394 356.738 524.889 357.767 524.889C359.12 524.889 360.092 523.994 360.473 523.041V520.906ZM365.235 525.918V511.435H366.912V525.918H365.235ZM370.55 526.128C369.845 526.128 369.33 525.594 369.33 524.908C369.33 524.203 369.845 523.651 370.55 523.651C371.236 523.651 371.769 524.203 371.769 524.908C371.769 525.594 371.236 526.128 370.55 526.128Z" fill="#1E2A3B"/>
<g clip-path="url(#clip0_4684_45095)">
<path d="M328.016 303.737C340.228 304.173 351.693 297.877 357.871 287.332L359.427 284.672C360.411 282.997 360.745 281.012 360.372 279.106L358.363 268.84C357.744 265.672 355.266 263.186 352.106 262.559C348.406 261.821 344.698 263.774 343.213 267.236L342.348 269.253C341.562 271.079 343.451 272.961 341.641 273.787L335.067 280.361C332.565 281.496 328.587 278.956 326.301 277.439L273.165 236.531C270.418 234.705 269.068 231.378 269.791 228.155L270.894 223.192C271.402 220.921 270.886 218.539 269.489 216.681L264.248 209.694C263.065 208.122 261.414 206.97 259.524 206.406C257.277 205.74 254.847 206.097 252.886 207.383L239.555 216.133C237.022 217.793 235.656 220.746 236.013 223.748C237.133 233.069 241.349 241.74 247.987 248.378L260.262 260.654C260.683 261.074 261.144 261.44 261.636 261.757L328.024 303.729" fill="#00798C"/>
<path d="M163.602 215.379L187.081 168.421L212.235 160.036L285.189 189.383L296.924 217.896L286.864 244.726L268.419 232.99L271.77 217.896L261.71 204.477L211.393 182.673L196.299 214.537L234.872 238.016L260.027 263.179L231.522 268.205L181.205 238.016L163.602 215.379Z" fill="white"/>
<path d="M231.362 269.039L180.672 238.628L180.585 238.509L162.664 215.474L186.516 167.77L212.258 159.187L212.528 159.298L285.792 188.772L297.773 217.88L297.662 218.174L287.253 245.925L267.506 233.364L270.904 218.079L261.185 205.12L211.774 183.706L197.315 214.228L235.356 237.381L261.654 263.687L231.346 269.031L231.362 269.039ZM181.744 237.413L231.672 267.371L258.39 262.655L234.379 238.644L195.274 214.839L211.004 181.634L262.21 203.826L272.619 217.706L269.308 232.609L286.459 243.527L296.066 217.904L284.569 189.995L212.211 160.878L187.644 169.064L164.53 215.284L181.744 237.413Z" fill="black"/>
<path d="M355.215 310.47L353.841 309.668L367.951 285.609L364.172 266.37L352.746 264.083L347.847 275.509L337.945 280.011L337.58 279.773L267.524 233.347L270.915 218.078L261.228 205.168L254.828 203.262L233.207 217.451L235.629 237.651L260.529 262.551L333.411 308.628L332.562 309.97L259.536 263.798L259.473 263.734L234.12 238.389L234.088 238.111L231.516 216.665L254.566 201.531L262.188 203.794L272.63 217.713L269.311 232.625L338.088 278.201L346.632 274.318L351.793 262.273L365.529 265.02L369.619 285.895L355.215 310.47Z" fill="black"/>
<path d="M315.621 247.465L290.935 233.355L296.081 217.92L289.848 202.135L340.601 233.125L319.258 242.018L315.629 247.465H315.621ZM292.849 232.625L315.121 245.353L318.202 240.74L337.107 232.863L293.063 205.97L297.772 217.88L292.857 232.633L292.849 232.625Z" fill="black"/>
<path d="M298.616 210.75L327.78 228.56C330.257 230.076 329.979 233.76 327.295 234.88L318.625 238.493C317.974 238.763 317.426 239.215 317.029 239.803L316.783 240.168C315.742 241.724 313.678 242.209 312.058 241.288L298.679 233.641C297.21 232.8 296.535 231.037 297.067 229.425L299.759 221.342C300.021 220.548 299.997 219.69 299.695 218.912L297.004 212.108C296.615 211.123 297.702 210.202 298.608 210.758L298.616 210.75Z" fill="#00798C"/>
<path d="M327.113 271.563L331.305 257.311C331.305 257.311 363.169 265.695 364.845 265.695C366.52 265.695 395.033 290.85 395.033 290.85V307.619L378.263 317.68L354.784 309.295L337.173 310.136L311.003 295.701L338.007 324.389L376.58 339.483L411.803 324.389L418.512 289.167L395.033 252.269L366.52 238.85L338.428 232.577L317.887 242.201L308.66 259.812L327.105 271.555L327.113 271.563Z" fill="white"/>
<path d="M376.604 340.341L337.562 325.064L306.969 292.565L337.372 309.335L354.911 308.501L378.184 316.814L394.247 307.175V291.215C383.702 281.917 366.679 267.252 364.749 266.49C362.375 266.275 338.443 260.01 331.861 258.279L327.589 272.81L307.636 260.114L317.323 241.621L338.356 231.767L338.618 231.831L366.877 238.159L395.597 251.673L419.369 289.032L412.525 324.977L412.136 325.143L376.62 340.365L376.604 340.341ZM338.475 323.714L376.58 338.626L411.112 323.825L417.686 289.333L394.501 252.896L366.282 239.612L338.539 233.419L318.482 242.812L309.724 259.534L326.668 270.317L330.781 256.334L331.528 256.533C344.184 259.867 363.518 264.838 364.876 264.894C366.504 264.894 382.472 278.686 395.581 290.246L395.851 290.485V308.064L378.374 318.553L354.689 310.097L337.014 310.938L315.076 298.838L338.491 323.714H338.475Z" fill="black"/>
<path d="M207.754 176.123L186.824 169.175L187.324 167.667L206.746 174.122L211.478 159.79L212.987 160.282L207.754 176.123Z" fill="black"/>
<path d="M181.968 238.239L180.443 237.802L186.359 217.158L163.562 216.173L163.634 214.585L188.439 215.665L181.968 238.239Z" fill="black"/>
<path d="M296.565 218.603C287.846 214.22 273.991 207.693 271.553 207.677H269.941L284.551 188.899L285.806 189.875L272.982 206.343C278.739 207.907 295.231 216.157 297.271 217.181L296.557 218.603H296.565Z" fill="black"/>
<path d="M336.607 290.365L336.234 290.127L259.786 239.953L253.871 223.057L271.316 217.245L271.816 218.753L255.904 224.057L261.105 238.921L336.734 288.555L350.979 281.806L351.471 263.155L353.059 263.194L352.543 282.822L336.607 290.365Z" fill="black"/>
<path d="M295.53 222.556L294.738 223.933L322.45 239.868L323.242 238.491L295.53 222.556Z" fill="black"/>
<path d="M260.948 240.057L259.948 238.818L267.094 233.038L254.438 224.208L255.343 222.906L269.738 232.943L260.948 240.057Z" fill="black"/>
<path d="M337.23 279.01L335.895 289.366L337.47 289.569L338.805 279.213L337.23 279.01Z" fill="black"/>
<path d="M347.91 274.5L346.555 275.328L351.077 282.726L352.432 281.897L347.91 274.5Z" fill="black"/>
<path d="M395.034 290.85L370.022 256.906L340.644 248.172L326.352 252.142L327.114 271.563L331.306 257.303L364.845 265.696L395.034 290.85Z" fill="black"/>
<path d="M377.333 339.753L375.84 339.206C376.419 337.625 379.476 329.979 379.603 329.654L379.715 329.376L379.977 329.241C403.178 317.243 403.916 317.243 404.162 317.243C404.496 317.243 405.266 317.243 412.341 323.802L411.261 324.969C408.379 322.301 405.052 319.411 404.131 318.879C402.233 319.617 389.521 326.096 380.969 330.519C380.405 331.932 377.841 338.356 377.333 339.753Z" fill="black"/>
<path d="M380.099 330.709L344.821 318.95L338.564 324.961L337.469 323.817L344.416 317.14L380.6 329.201L380.099 330.709Z" fill="black"/>
<path d="M404.935 318.259L403.402 317.831L411.271 289.508L401.227 264.528L402.695 263.933L412.946 289.413L412.875 289.675L404.935 318.259Z" fill="black"/>
<path d="M344.177 318.704C341.994 317.251 334.276 311.296 332.751 310.121C332.624 310.041 332.521 309.954 332.426 309.859L333.474 308.668C333.474 308.668 333.593 308.763 333.791 308.914C336.062 310.216 347.163 309.486 354.682 308.509L354.888 310.081C352.427 310.407 342.518 311.606 336.594 311.074C339.5 313.305 343.605 316.417 345.051 317.386L344.169 318.704H344.177Z" fill="black"/>
<path d="M418.468 288.402L412.059 288.69L412.13 290.276L418.539 289.989L418.468 288.402Z" fill="black"/>
<path d="M302.53 191.797C302.53 191.797 294.59 143.362 301.736 143.362C308.883 143.362 302.53 191.797 302.53 191.797Z" fill="#F6C63A"/>
<path d="M329.449 202.008C329.449 202.008 368.054 171.692 371.5 177.957C374.946 184.214 329.449 202.008 329.449 202.008Z" fill="#F6C63A"/>
<path d="M319.117 189.351C319.117 189.351 334.346 142.695 340.691 145.982C347.035 149.27 319.125 189.359 319.125 189.359L319.117 189.351Z" fill="#F6C63A"/>
<path d="M185.984 217.523L207.2 173.384L212.092 182.292L210.702 183.063L207.296 176.861L188.811 215.3L196.14 213.767L196.465 215.315L185.984 217.523Z" fill="black"/>
<path d="M207.249 174.328L187.398 215.617L196.299 213.743L210.822 182.324L207.249 174.328Z" fill="black"/>
<path d="M207.25 174.328C208.838 175.916 271.565 206.883 271.565 206.883V217.999L261.703 204.477L210.823 182.324L207.25 174.328Z" fill="black"/>
<path d="M239.803 243.407L185.016 215.617L193.917 213.743L235.039 237.849L237.421 243.407L187.898 215.355C187.898 215.355 198.514 212.441 198.514 214.029" fill="black"/>
<path d="M236.646 243.21L230.746 268.014L232.291 268.381L238.191 243.578L236.646 243.21Z" fill="black"/>
</g>
<defs>
<clipPath id="clip0_4684_45095">
<rect width="256.689" height="196.979" fill="white" transform="translate(162.664 143.362)"/>
</clipPath>
</defs>
</svg>
