<svg width="581" height="648" viewBox="0 0 581 648" fill="none" xmlns="http://www.w3.org/2000/svg">
<g clip-path="url(#clip0_4684_45093)">
<rect width="581" height="648" rx="16" fill="#ECF8FE"/>
<g clip-path="url(#clip1_4684_45093)">
<rect x="116.434" y="376.66" width="102.325" height="49.4339" rx="3.45692" fill="white"/>
<rect width="102.325" height="14.5191" transform="translate(116.434 376.66)" fill="#464646"/>
<circle cx="123.693" cy="383.92" r="1.72846" fill="#F74A4A"/>
<circle cx="130.607" cy="383.92" r="1.72846" fill="#FFAE1B"/>
<circle cx="137.521" cy="383.92" r="1.72846" fill="#259F46"/>
<path d="M148.904 410.609V403.78H151.598C152.116 403.78 152.558 403.879 152.922 404.077C153.287 404.272 153.565 404.544 153.756 404.893C153.949 405.24 154.046 405.64 154.046 406.094C154.046 406.547 153.948 406.947 153.752 407.294C153.557 407.641 153.273 407.911 152.902 408.104C152.533 408.298 152.086 408.395 151.562 408.395H149.845V407.238H151.328C151.606 407.238 151.835 407.19 152.015 407.094C152.198 406.996 152.333 406.862 152.422 406.691C152.513 406.517 152.559 406.318 152.559 406.094C152.559 405.867 152.513 405.669 152.422 405.5C152.333 405.329 152.198 405.197 152.015 405.104C151.833 405.008 151.602 404.96 151.322 404.96H150.348V410.609H148.904ZM158.241 408.428V405.487H159.662V410.609H158.298V409.678H158.245C158.129 409.978 157.937 410.22 157.668 410.402C157.401 410.584 157.075 410.675 156.691 410.675C156.349 410.675 156.047 410.597 155.787 410.442C155.527 410.286 155.324 410.065 155.177 409.778C155.033 409.492 154.959 409.148 154.957 408.748V405.487H156.377V408.495C156.38 408.797 156.461 409.036 156.621 409.211C156.781 409.387 156.995 409.475 157.264 409.475C157.436 409.475 157.596 409.436 157.745 409.358C157.894 409.278 158.014 409.16 158.105 409.005C158.198 408.849 158.244 408.657 158.241 408.428ZM160.798 410.609V405.487H162.175V406.381H162.229C162.322 406.063 162.479 405.823 162.699 405.66C162.919 405.496 163.172 405.414 163.459 405.414C163.53 405.414 163.607 405.418 163.689 405.427C163.771 405.436 163.843 405.448 163.906 405.464V406.724C163.839 406.704 163.747 406.686 163.629 406.671C163.511 406.655 163.403 406.647 163.306 406.647C163.097 406.647 162.91 406.693 162.745 406.784C162.583 406.873 162.454 406.997 162.359 407.158C162.265 407.318 162.219 407.502 162.219 407.711V410.609H160.798ZM164.64 412.529V405.487H166.041V406.347H166.104C166.166 406.209 166.256 406.069 166.374 405.927C166.494 405.783 166.65 405.663 166.841 405.567C167.034 405.469 167.274 405.42 167.561 405.42C167.935 405.42 168.279 405.518 168.595 405.714C168.91 405.907 169.163 406.199 169.352 406.591C169.541 406.98 169.635 407.468 169.635 408.054C169.635 408.626 169.543 409.108 169.358 409.502C169.176 409.893 168.927 410.19 168.611 410.392C168.298 410.592 167.947 410.692 167.558 410.692C167.282 410.692 167.048 410.646 166.854 410.555C166.663 410.464 166.506 410.35 166.384 410.212C166.262 410.072 166.168 409.931 166.104 409.788H166.061V412.529H164.64ZM166.031 408.048C166.031 408.352 166.073 408.618 166.157 408.845C166.242 409.071 166.364 409.248 166.524 409.375C166.684 409.499 166.879 409.562 167.108 409.562C167.339 409.562 167.534 409.498 167.694 409.372C167.854 409.243 167.976 409.065 168.058 408.838C168.142 408.609 168.185 408.346 168.185 408.048C168.185 407.752 168.143 407.492 168.061 407.268C167.979 407.043 167.858 406.867 167.698 406.741C167.538 406.614 167.341 406.551 167.108 406.551C166.876 406.551 166.681 406.612 166.521 406.734C166.363 406.856 166.242 407.03 166.157 407.254C166.073 407.479 166.031 407.743 166.031 408.048ZM172.896 410.709C172.378 410.709 171.93 410.599 171.552 410.379C171.177 410.156 170.887 409.847 170.682 409.452C170.478 409.054 170.375 408.592 170.375 408.068C170.375 407.539 170.478 407.076 170.682 406.681C170.887 406.283 171.177 405.974 171.552 405.754C171.93 405.531 172.378 405.42 172.896 405.42C173.414 405.42 173.861 405.531 174.237 405.754C174.614 405.974 174.906 406.283 175.11 406.681C175.315 407.076 175.417 407.539 175.417 408.068C175.417 408.592 175.315 409.054 175.11 409.452C174.906 409.847 174.614 410.156 174.237 410.379C173.861 410.599 173.414 410.709 172.896 410.709ZM172.903 409.608C173.138 409.608 173.335 409.542 173.493 409.408C173.651 409.273 173.77 409.088 173.85 408.855C173.932 408.621 173.973 408.356 173.973 408.058C173.973 407.76 173.932 407.494 173.85 407.261C173.77 407.027 173.651 406.843 173.493 406.707C173.335 406.572 173.138 406.504 172.903 406.504C172.665 406.504 172.465 406.572 172.303 406.707C172.143 406.843 172.021 407.027 171.939 407.261C171.859 407.494 171.819 407.76 171.819 408.058C171.819 408.356 171.859 408.621 171.939 408.855C172.021 409.088 172.143 409.273 172.303 409.408C172.465 409.542 172.665 409.608 172.903 409.608ZM180.602 406.947L179.301 407.027C179.279 406.916 179.231 406.816 179.158 406.727C179.085 406.636 178.988 406.564 178.868 406.511C178.75 406.455 178.609 406.427 178.445 406.427C178.224 406.427 178.039 406.474 177.888 406.567C177.737 406.658 177.661 406.781 177.661 406.934C177.661 407.056 177.71 407.16 177.808 407.244C177.905 407.329 178.073 407.396 178.311 407.448L179.238 407.634C179.736 407.737 180.107 407.901 180.352 408.128C180.596 408.355 180.719 408.652 180.719 409.021C180.719 409.357 180.62 409.652 180.422 409.905C180.226 410.158 179.957 410.356 179.615 410.499C179.275 410.639 178.882 410.709 178.438 410.709C177.76 410.709 177.22 410.567 176.817 410.285C176.417 410.001 176.183 409.614 176.114 409.125L177.511 409.051C177.553 409.258 177.655 409.416 177.818 409.525C177.98 409.632 178.188 409.685 178.441 409.685C178.69 409.685 178.89 409.637 179.041 409.542C179.195 409.444 179.273 409.318 179.275 409.165C179.273 409.036 179.218 408.93 179.111 408.848C179.005 408.764 178.84 408.699 178.618 408.655L177.731 408.478C177.231 408.378 176.858 408.205 176.614 407.958C176.372 407.711 176.251 407.396 176.251 407.014C176.251 406.685 176.339 406.402 176.517 406.164C176.697 405.926 176.95 405.743 177.274 405.614C177.601 405.485 177.983 405.42 178.421 405.42C179.068 405.42 179.577 405.557 179.948 405.83C180.322 406.104 180.54 406.476 180.602 406.947ZM183.947 410.709C183.42 410.709 182.967 410.602 182.587 410.389C182.209 410.173 181.918 409.868 181.713 409.475C181.509 409.079 181.406 408.611 181.406 408.071C181.406 407.544 181.509 407.082 181.713 406.684C181.918 406.286 182.205 405.976 182.577 405.754C182.95 405.531 183.388 405.42 183.89 405.42C184.228 405.42 184.543 405.475 184.834 405.584C185.128 405.69 185.383 405.852 185.601 406.067C185.821 406.283 185.992 406.554 186.115 406.881C186.237 407.205 186.298 407.585 186.298 408.021V408.411H181.973V407.531H184.961C184.961 407.326 184.916 407.145 184.827 406.987C184.739 406.83 184.615 406.706 184.457 406.617C184.302 406.526 184.121 406.481 183.914 406.481C183.698 406.481 183.507 406.531 183.34 406.631C183.176 406.728 183.047 406.861 182.953 407.027C182.86 407.192 182.812 407.375 182.81 407.578V408.415C182.81 408.668 182.857 408.887 182.95 409.071C183.046 409.256 183.18 409.398 183.354 409.498C183.527 409.598 183.733 409.648 183.97 409.648C184.128 409.648 184.273 409.626 184.404 409.582C184.535 409.537 184.647 409.47 184.741 409.382C184.834 409.293 184.905 409.184 184.954 409.055L186.268 409.141C186.201 409.457 186.064 409.733 185.858 409.968C185.653 410.202 185.389 410.384 185.064 410.515C184.742 410.644 184.37 410.709 183.947 410.709Z" fill="#302D2D"/>
</g>
<rect x="116.779" y="377.006" width="101.633" height="48.7425" rx="3.11123" stroke="#464646" stroke-width="0.691383"/>
<g clip-path="url(#clip2_4684_45093)">
<rect x="116.434" y="460.664" width="102.325" height="49.4339" rx="3.45692" fill="white"/>
<rect width="102.325" height="14.5191" transform="translate(116.434 460.664)" fill="#464646"/>
<circle cx="123.693" cy="467.923" r="1.72846" fill="#F74A4A"/>
<circle cx="130.607" cy="467.923" r="1.72846" fill="#FFAE1B"/>
<circle cx="137.521" cy="467.923" r="1.72846" fill="#259F46"/>
<path d="M153.691 487.7L155.342 492.888H155.405L157.059 487.7H158.66L156.306 494.529H154.445L152.088 487.7H153.691ZM160.347 494.626C160.02 494.626 159.729 494.569 159.473 494.456C159.218 494.34 159.015 494.17 158.866 493.945C158.72 493.719 158.646 493.436 158.646 493.098C158.646 492.814 158.699 492.575 158.803 492.382C158.907 492.188 159.05 492.033 159.23 491.915C159.41 491.797 159.614 491.708 159.843 491.648C160.075 491.588 160.317 491.546 160.57 491.521C160.868 491.49 161.108 491.461 161.29 491.435C161.473 491.406 161.605 491.363 161.687 491.308C161.77 491.252 161.811 491.17 161.811 491.061V491.041C161.811 490.83 161.744 490.667 161.611 490.551C161.479 490.435 161.293 490.378 161.05 490.378C160.795 490.378 160.591 490.434 160.44 490.548C160.289 490.659 160.189 490.799 160.14 490.968L158.826 490.861C158.893 490.55 159.024 490.281 159.22 490.054C159.415 489.825 159.668 489.65 159.977 489.527C160.288 489.403 160.648 489.341 161.057 489.341C161.342 489.341 161.614 489.374 161.874 489.441C162.136 489.507 162.369 489.611 162.571 489.751C162.775 489.891 162.937 490.071 163.054 490.291C163.172 490.509 163.231 490.77 163.231 491.074V494.529H161.884V493.819H161.844C161.762 493.979 161.652 494.12 161.514 494.242C161.376 494.362 161.21 494.457 161.017 494.526C160.824 494.592 160.6 494.626 160.347 494.626ZM160.754 493.645C160.963 493.645 161.147 493.604 161.307 493.522C161.467 493.437 161.593 493.324 161.684 493.182C161.775 493.04 161.821 492.878 161.821 492.698V492.155C161.776 492.184 161.715 492.21 161.637 492.235C161.562 492.257 161.476 492.278 161.381 492.298C161.285 492.316 161.189 492.333 161.094 492.348C160.998 492.362 160.911 492.374 160.834 492.385C160.667 492.409 160.521 492.448 160.397 492.502C160.272 492.555 160.176 492.627 160.107 492.718C160.038 492.807 160.003 492.918 160.003 493.052C160.003 493.245 160.073 493.393 160.213 493.495C160.356 493.595 160.536 493.645 160.754 493.645ZM165.754 487.7V494.529H164.333V487.7H165.754ZM170.176 492.348V489.407H171.596V494.529H170.233V493.599H170.179C170.064 493.899 169.871 494.14 169.602 494.322C169.336 494.504 169.01 494.596 168.625 494.596C168.283 494.596 167.982 494.518 167.722 494.362C167.462 494.207 167.258 493.985 167.112 493.699C166.967 493.412 166.894 493.068 166.891 492.668V489.407H168.312V492.415C168.314 492.717 168.395 492.956 168.555 493.132C168.715 493.307 168.93 493.395 169.199 493.395C169.37 493.395 169.53 493.356 169.679 493.279C169.828 493.199 169.948 493.081 170.039 492.925C170.132 492.769 170.178 492.577 170.176 492.348ZM175.067 494.629C174.54 494.629 174.086 494.522 173.706 494.309C173.328 494.093 173.037 493.789 172.833 493.395C172.628 493 172.526 492.532 172.526 491.991C172.526 491.465 172.628 491.002 172.833 490.604C173.037 490.206 173.325 489.896 173.696 489.674C174.07 489.452 174.507 489.341 175.01 489.341C175.348 489.341 175.662 489.395 175.954 489.504C176.247 489.611 176.503 489.772 176.72 489.987C176.94 490.203 177.112 490.474 177.234 490.801C177.356 491.126 177.417 491.506 177.417 491.941V492.332H173.093V491.451H176.08C176.08 491.247 176.036 491.066 175.947 490.908C175.858 490.75 175.735 490.627 175.577 490.538C175.421 490.447 175.24 490.401 175.033 490.401C174.818 490.401 174.626 490.451 174.46 490.551C174.295 490.649 174.166 490.781 174.073 490.948C173.98 491.112 173.932 491.296 173.93 491.498V492.335C173.93 492.588 173.976 492.807 174.07 492.992C174.165 493.176 174.3 493.319 174.473 493.419C174.646 493.519 174.852 493.569 175.09 493.569C175.248 493.569 175.392 493.546 175.523 493.502C175.655 493.457 175.767 493.391 175.86 493.302C175.954 493.213 176.025 493.104 176.074 492.975L177.387 493.062C177.321 493.377 177.184 493.653 176.977 493.889C176.773 494.122 176.508 494.304 176.184 494.436C175.861 494.564 175.489 494.629 175.067 494.629ZM182.606 490.868L181.305 490.948C181.283 490.837 181.235 490.737 181.162 490.648C181.088 490.557 180.992 490.484 180.872 490.431C180.754 490.375 180.613 490.348 180.448 490.348C180.228 490.348 180.043 490.394 179.891 490.488C179.74 490.579 179.665 490.701 179.665 490.854C179.665 490.977 179.714 491.08 179.811 491.165C179.909 491.249 180.077 491.317 180.315 491.368L181.242 491.555C181.74 491.657 182.111 491.821 182.356 492.048C182.6 492.275 182.722 492.573 182.722 492.942C182.722 493.277 182.623 493.572 182.426 493.825C182.23 494.079 181.961 494.277 181.619 494.419C181.279 494.559 180.886 494.629 180.442 494.629C179.764 494.629 179.223 494.488 178.821 494.205C178.421 493.921 178.186 493.534 178.118 493.045L179.515 492.972C179.557 493.178 179.659 493.336 179.821 493.445C179.984 493.552 180.192 493.605 180.445 493.605C180.694 493.605 180.894 493.558 181.045 493.462C181.199 493.364 181.276 493.239 181.279 493.085C181.276 492.956 181.222 492.851 181.115 492.768C181.008 492.684 180.844 492.619 180.622 492.575L179.735 492.398C179.235 492.298 178.862 492.125 178.618 491.878C178.375 491.631 178.254 491.317 178.254 490.934C178.254 490.605 178.343 490.322 178.521 490.084C178.701 489.846 178.953 489.663 179.278 489.534C179.605 489.405 179.987 489.341 180.425 489.341C181.072 489.341 181.581 489.477 181.952 489.751C182.326 490.024 182.543 490.396 182.606 490.868Z" fill="#302D2D"/>
</g>
<rect x="116.779" y="461.009" width="101.633" height="48.7425" rx="3.11123" stroke="#464646" stroke-width="0.691383"/>
<g clip-path="url(#clip3_4684_45093)">
<rect x="116.434" y="544.667" width="102.325" height="49.4339" rx="3.45692" fill="white"/>
<rect width="102.325" height="14.5191" transform="translate(116.434 544.667)" fill="#464646"/>
<circle cx="123.693" cy="551.926" r="1.72846" fill="#F74A4A"/>
<circle cx="130.607" cy="551.926" r="1.72846" fill="#FFAE1B"/>
<circle cx="137.521" cy="551.926" r="1.72846" fill="#259F46"/>
<path d="M156.031 572.811V571.621H161.639V572.811H159.549V578.449H158.121V572.811H156.031ZM164.128 578.549C163.601 578.549 163.147 578.443 162.767 578.229C162.389 578.014 162.098 577.709 161.893 577.316C161.689 576.92 161.587 576.452 161.587 575.912C161.587 575.385 161.689 574.923 161.893 574.525C162.098 574.127 162.386 573.817 162.757 573.595C163.131 573.372 163.568 573.261 164.071 573.261C164.409 573.261 164.723 573.316 165.014 573.425C165.308 573.531 165.564 573.692 165.781 573.908C166.001 574.124 166.173 574.395 166.295 574.722C166.417 575.046 166.478 575.426 166.478 575.862V576.252H162.154V575.372H165.141C165.141 575.167 165.097 574.986 165.008 574.828C164.919 574.67 164.796 574.547 164.638 574.458C164.482 574.367 164.301 574.321 164.094 574.321C163.879 574.321 163.687 574.371 163.521 574.472C163.356 574.569 163.227 574.702 163.134 574.868C163.041 575.033 162.993 575.216 162.99 575.418V576.255C162.99 576.509 163.037 576.728 163.131 576.912C163.226 577.097 163.361 577.239 163.534 577.339C163.707 577.439 163.913 577.489 164.151 577.489C164.309 577.489 164.453 577.467 164.584 577.422C164.715 577.378 164.828 577.311 164.921 577.222C165.014 577.133 165.086 577.025 165.135 576.896L166.448 576.982C166.382 577.298 166.245 577.574 166.038 577.809C165.834 578.043 165.569 578.225 165.245 578.356C164.922 578.485 164.55 578.549 164.128 578.549ZM168.866 578.546C168.539 578.546 168.248 578.489 167.992 578.376C167.736 578.261 167.534 578.09 167.385 577.866C167.239 577.639 167.165 577.357 167.165 577.019C167.165 576.734 167.217 576.496 167.322 576.302C167.426 576.109 167.569 575.953 167.749 575.835C167.929 575.717 168.133 575.629 168.362 575.569C168.593 575.509 168.836 575.466 169.089 575.442C169.387 575.411 169.627 575.382 169.809 575.355C169.992 575.326 170.124 575.284 170.206 575.228C170.288 575.173 170.33 575.091 170.33 574.982V574.962C170.33 574.75 170.263 574.587 170.129 574.472C169.998 574.356 169.812 574.298 169.569 574.298C169.314 574.298 169.11 574.355 168.959 574.468C168.808 574.579 168.708 574.719 168.659 574.888L167.345 574.782C167.412 574.47 167.543 574.201 167.739 573.975C167.934 573.746 168.187 573.57 168.496 573.448C168.807 573.323 169.167 573.261 169.576 573.261C169.86 573.261 170.133 573.294 170.393 573.361C170.655 573.428 170.887 573.531 171.09 573.671C171.294 573.811 171.455 573.991 171.573 574.211C171.691 574.429 171.75 574.69 171.75 574.995V578.449H170.403V577.739H170.363C170.281 577.899 170.171 578.04 170.033 578.163C169.895 578.283 169.729 578.377 169.536 578.446C169.343 578.513 169.119 578.546 168.866 578.546ZM169.273 577.566C169.481 577.566 169.666 577.525 169.826 577.442C169.986 577.358 170.112 577.245 170.203 577.102C170.294 576.96 170.34 576.799 170.34 576.619V576.075C170.295 576.104 170.234 576.131 170.156 576.155C170.081 576.178 169.995 576.199 169.899 576.219C169.804 576.237 169.708 576.253 169.613 576.269C169.517 576.282 169.43 576.294 169.353 576.305C169.186 576.33 169.04 576.369 168.916 576.422C168.791 576.475 168.695 576.548 168.626 576.639C168.557 576.728 168.522 576.839 168.522 576.972C168.522 577.166 168.592 577.314 168.732 577.416C168.875 577.516 169.055 577.566 169.273 577.566ZM172.852 578.449V573.328H174.206V574.231H174.266C174.372 573.931 174.55 573.695 174.799 573.521C175.048 573.348 175.346 573.261 175.693 573.261C176.044 573.261 176.343 573.349 176.59 573.525C176.837 573.698 177.001 573.934 177.083 574.231H177.137C177.241 573.938 177.43 573.703 177.704 573.528C177.979 573.35 178.305 573.261 178.681 573.261C179.158 573.261 179.546 573.413 179.844 573.718C180.144 574.02 180.294 574.449 180.294 575.005V578.449H178.877V575.285C178.877 575.001 178.802 574.787 178.651 574.645C178.499 574.503 178.31 574.432 178.084 574.432C177.826 574.432 177.625 574.514 177.48 574.678C177.336 574.841 177.263 575.055 177.263 575.322V578.449H175.886V575.255C175.886 575.004 175.814 574.804 175.67 574.655C175.527 574.506 175.339 574.432 175.106 574.432C174.948 574.432 174.806 574.472 174.679 574.552C174.555 574.629 174.456 574.739 174.382 574.882C174.309 575.022 174.272 575.186 174.272 575.375V578.449H172.852Z" fill="#302D2D"/>
</g>
<rect x="116.779" y="545.012" width="101.633" height="48.7425" rx="3.11123" stroke="#464646" stroke-width="0.691383"/>
<g clip-path="url(#clip4_4684_45093)">
<rect x="365.711" y="52.9902" width="142.425" height="74.6694" rx="4.80911" fill="white"/>
<rect width="142.425" height="20.1983" transform="translate(365.711 52.9902)" fill="#464646"/>
<circle cx="375.811" cy="63.0894" r="2.40456" fill="#F74A4A"/>
<circle cx="385.428" cy="63.0894" r="2.40456" fill="#FFAE1B"/>
<circle cx="395.049" cy="63.0894" r="2.40456" fill="#259F46"/>
<path d="M387.044 102.73V88.7403H390.002V94.5126H396.006V88.7403H398.957V102.73H396.006V96.9513H390.002V102.73H387.044ZM406.082 102.935C405.021 102.935 404.103 102.71 403.329 102.259C402.559 101.804 401.965 101.171 401.546 100.36C401.127 99.5449 400.918 98.5999 400.918 97.5251C400.918 96.4413 401.127 95.494 401.546 94.6834C401.965 93.8682 402.559 93.2352 403.329 92.7843C404.103 92.3289 405.021 92.1012 406.082 92.1012C407.143 92.1012 408.058 92.3289 408.828 92.7843C409.602 93.2352 410.199 93.8682 410.618 94.6834C411.037 95.494 411.246 96.4413 411.246 97.5251C411.246 98.5999 411.037 99.5449 410.618 100.36C410.199 101.171 409.602 101.804 408.828 102.259C408.058 102.71 407.143 102.935 406.082 102.935ZM406.096 100.681C406.578 100.681 406.981 100.544 407.305 100.271C407.628 99.9934 407.872 99.6155 408.036 99.1373C408.204 98.6591 408.288 98.1149 408.288 97.5046C408.288 96.8944 408.204 96.3502 408.036 95.872C407.872 95.3938 407.628 95.0158 407.305 94.738C406.981 94.4602 406.578 94.3213 406.096 94.3213C405.608 94.3213 405.199 94.4602 404.866 94.738C404.538 95.0158 404.29 95.3938 404.121 95.872C403.958 96.3502 403.876 96.8944 403.876 97.5046C403.876 98.1149 403.958 98.6591 404.121 99.1373C404.29 99.6155 404.538 99.9934 404.866 100.271C405.199 100.544 405.608 100.681 406.096 100.681ZM413.139 102.73V92.2378H415.912V94.0891H416.035C416.254 93.4743 416.618 92.9893 417.128 92.634C417.638 92.2788 418.248 92.1012 418.959 92.1012C419.678 92.1012 420.291 92.2811 420.796 92.6409C421.302 92.9961 421.639 93.4788 421.807 94.0891H421.917C422.131 93.4879 422.518 93.0075 423.078 92.6477C423.643 92.2834 424.31 92.1012 425.079 92.1012C426.058 92.1012 426.853 92.4132 427.463 93.0371C428.078 93.6564 428.386 94.5354 428.386 95.6739V102.73H425.482V96.2477C425.482 95.6648 425.328 95.2276 425.018 94.9361C424.708 94.6447 424.321 94.4989 423.857 94.4989C423.328 94.4989 422.916 94.6674 422.62 95.0045C422.324 95.3369 422.176 95.7764 422.176 96.3229V102.73H419.355V96.1862C419.355 95.6716 419.207 95.2618 418.911 94.9566C418.619 94.6515 418.235 94.4989 417.756 94.4989C417.433 94.4989 417.142 94.5809 416.882 94.7449C416.627 94.9043 416.424 95.1297 416.274 95.4211C416.124 95.7081 416.049 96.0451 416.049 96.4322V102.73H413.139ZM435.466 102.935C434.387 102.935 433.458 102.717 432.679 102.28C431.905 101.838 431.308 101.214 430.889 100.408C430.47 99.5972 430.261 98.6386 430.261 97.532C430.261 96.4526 430.47 95.5054 430.889 94.6902C431.308 93.875 431.898 93.2397 432.658 92.7843C433.424 92.3289 434.321 92.1012 435.35 92.1012C436.042 92.1012 436.687 92.2128 437.283 92.4359C437.884 92.6545 438.408 92.9847 438.854 93.4265C439.305 93.8682 439.656 94.4238 439.906 95.0933C440.157 95.7582 440.282 96.5369 440.282 97.4295V98.2287H431.422V96.4253H437.543C437.543 96.0063 437.452 95.6352 437.27 95.3119C437.087 94.9885 436.835 94.7358 436.511 94.5536C436.192 94.3669 435.821 94.2735 435.398 94.2735C434.956 94.2735 434.564 94.376 434.223 94.5809C433.886 94.7813 433.622 95.0523 433.43 95.3938C433.239 95.7308 433.141 96.1065 433.137 96.521V98.2356C433.137 98.7547 433.232 99.2033 433.424 99.5813C433.619 99.9593 433.895 100.251 434.25 100.456C434.605 100.661 435.027 100.763 435.514 100.763C435.837 100.763 436.133 100.718 436.402 100.626C436.671 100.535 436.901 100.399 437.092 100.217C437.283 100.034 437.429 99.8113 437.529 99.5471L440.221 99.7248C440.084 100.371 439.804 100.936 439.38 101.419C438.961 101.897 438.419 102.27 437.755 102.539C437.094 102.803 436.331 102.935 435.466 102.935ZM442.181 106.665V92.2378H445.05V94.0003H445.18C445.307 93.7179 445.492 93.431 445.733 93.1396C445.979 92.8435 446.298 92.5976 446.69 92.4018C447.086 92.2014 447.578 92.1012 448.165 92.1012C448.93 92.1012 449.636 92.3016 450.283 92.7024C450.929 93.0986 451.446 93.6974 451.833 94.4989C452.221 95.2959 452.414 96.2955 452.414 97.4978C452.414 98.6682 452.225 99.6564 451.847 100.463C451.474 101.264 450.964 101.872 450.317 102.286C449.675 102.696 448.955 102.901 448.158 102.901C447.594 102.901 447.113 102.808 446.717 102.621C446.325 102.434 446.004 102.2 445.754 101.918C445.503 101.631 445.312 101.341 445.18 101.05H445.091V106.665H442.181ZM445.03 97.4841C445.03 98.1081 445.116 98.6523 445.289 99.1168C445.462 99.5813 445.713 99.9434 446.041 100.203C446.369 100.458 446.767 100.585 447.236 100.585C447.71 100.585 448.11 100.456 448.438 100.196C448.766 99.932 449.014 99.5676 449.183 99.1031C449.356 98.6341 449.443 98.0944 449.443 97.4841C449.443 96.8785 449.358 96.3456 449.19 95.8857C449.021 95.4257 448.773 95.0659 448.445 94.8063C448.117 94.5468 447.714 94.417 447.236 94.417C446.762 94.417 446.362 94.5422 446.034 94.7927C445.71 95.0432 445.462 95.3984 445.289 95.8583C445.116 96.3183 445.03 96.8602 445.03 97.4841ZM457.346 102.929C456.677 102.929 456.08 102.812 455.556 102.58C455.033 102.343 454.618 101.995 454.313 101.535C454.013 101.07 453.862 100.492 453.862 99.7999C453.862 99.217 453.969 98.7274 454.183 98.3312C454.397 97.935 454.689 97.6162 455.058 97.3749C455.427 97.1335 455.846 96.9513 456.315 96.8284C456.788 96.7054 457.285 96.6189 457.804 96.5688C458.414 96.505 458.906 96.4458 459.279 96.3912C459.653 96.332 459.924 96.2454 460.092 96.1316C460.261 96.0177 460.345 95.8492 460.345 95.6261V95.5851C460.345 95.1525 460.208 94.8177 459.935 94.5809C459.666 94.3441 459.284 94.2257 458.788 94.2257C458.264 94.2257 457.847 94.3418 457.537 94.5741C457.228 94.8018 457.023 95.0887 456.923 95.4348L454.231 95.2162C454.368 94.5786 454.637 94.0276 455.037 93.5631C455.438 93.094 455.955 92.7342 456.588 92.4838C457.225 92.2287 457.963 92.1012 458.801 92.1012C459.384 92.1012 459.942 92.1695 460.475 92.3062C461.012 92.4428 461.488 92.6545 461.903 92.9414C462.322 93.2284 462.652 93.5972 462.893 94.0481C463.134 94.4944 463.255 95.0295 463.255 95.6534V102.73H460.495V101.275H460.413C460.245 101.603 460.019 101.893 459.737 102.143C459.455 102.389 459.115 102.582 458.719 102.724C458.323 102.86 457.865 102.929 457.346 102.929ZM458.18 100.92C458.608 100.92 458.986 100.836 459.314 100.667C459.641 100.494 459.899 100.262 460.085 99.9707C460.272 99.6792 460.366 99.349 460.366 98.9802V97.8667C460.274 97.9259 460.149 97.9805 459.99 98.0306C459.835 98.0762 459.66 98.1194 459.464 98.1604C459.268 98.1969 459.072 98.231 458.876 98.2629C458.681 98.2902 458.503 98.3153 458.344 98.338C458.002 98.3881 457.704 98.4678 457.449 98.5771C457.194 98.6864 456.996 98.8344 456.854 99.0212C456.713 99.2033 456.643 99.431 456.643 99.7043C456.643 100.1 456.786 100.403 457.073 100.613C457.364 100.818 457.733 100.92 458.18 100.92ZM470.24 106.884C469.297 106.884 468.489 106.754 467.815 106.494C467.145 106.239 466.613 105.891 466.216 105.449C465.82 105.007 465.563 104.511 465.444 103.96L468.136 103.598C468.218 103.807 468.348 104.003 468.525 104.185C468.703 104.368 468.937 104.513 469.229 104.623C469.525 104.737 469.885 104.793 470.308 104.793C470.941 104.793 471.463 104.639 471.873 104.329C472.287 104.024 472.494 103.511 472.494 102.792V100.872H472.371C472.244 101.164 472.052 101.439 471.797 101.699C471.542 101.959 471.215 102.17 470.814 102.334C470.413 102.498 469.935 102.58 469.379 102.58C468.591 102.58 467.874 102.398 467.227 102.034C466.585 101.665 466.073 101.102 465.69 100.346C465.312 99.5859 465.123 98.6249 465.123 97.4637C465.123 96.275 465.317 95.2822 465.704 94.4853C466.091 93.6883 466.606 93.0917 467.248 92.6955C467.895 92.2993 468.603 92.1012 469.372 92.1012C469.96 92.1012 470.452 92.2014 470.848 92.4018C471.244 92.5976 471.563 92.8435 471.804 93.1396C472.05 93.431 472.239 93.7179 472.371 94.0003H472.481V92.2378H475.37V102.833C475.37 103.726 475.152 104.472 474.714 105.074C474.277 105.675 473.671 106.126 472.897 106.426C472.128 106.731 471.242 106.884 470.24 106.884ZM470.301 100.394C470.77 100.394 471.167 100.278 471.49 100.046C471.818 99.809 472.068 99.472 472.241 99.0348C472.419 98.5931 472.508 98.0648 472.508 97.45C472.508 96.8352 472.421 96.3024 472.248 95.8515C472.075 95.3961 471.825 95.0432 471.497 94.7927C471.169 94.5422 470.77 94.417 470.301 94.417C469.823 94.417 469.42 94.5468 469.092 94.8063C468.764 95.0614 468.516 95.4166 468.348 95.872C468.179 96.3274 468.095 96.8534 468.095 97.45C468.095 98.0557 468.179 98.5794 468.348 99.0212C468.521 99.4583 468.769 99.7976 469.092 100.039C469.42 100.276 469.823 100.394 470.301 100.394ZM482.468 102.935C481.388 102.935 480.459 102.717 479.681 102.28C478.906 101.838 478.31 101.214 477.891 100.408C477.472 99.5972 477.262 98.6386 477.262 97.532C477.262 96.4526 477.472 95.5054 477.891 94.6902C478.31 93.875 478.9 93.2397 479.66 92.7843C480.425 92.3289 481.322 92.1012 482.352 92.1012C483.044 92.1012 483.688 92.2128 484.285 92.4359C484.886 92.6545 485.41 92.9847 485.856 93.4265C486.307 93.8682 486.657 94.4238 486.908 95.0933C487.158 95.7582 487.284 96.5369 487.284 97.4295V98.2287H478.424V96.4253H484.544C484.544 96.0063 484.453 95.6352 484.271 95.3119C484.089 94.9885 483.836 94.7358 483.513 94.5536C483.194 94.3669 482.823 94.2735 482.399 94.2735C481.958 94.2735 481.566 94.376 481.224 94.5809C480.887 94.7813 480.623 95.0523 480.432 95.3938C480.241 95.7308 480.143 96.1065 480.138 96.521V98.2356C480.138 98.7547 480.234 99.2033 480.425 99.5813C480.621 99.9593 480.896 100.251 481.252 100.456C481.607 100.661 482.028 100.763 482.515 100.763C482.839 100.763 483.135 100.718 483.404 100.626C483.672 100.535 483.902 100.399 484.093 100.217C484.285 100.034 484.43 99.8113 484.531 99.5471L487.222 99.7248C487.085 100.371 486.805 100.936 486.382 101.419C485.963 101.897 485.421 102.27 484.756 102.539C484.096 102.803 483.333 102.935 482.468 102.935Z" fill="#302D2D"/>
</g>
<rect x="366.192" y="53.4711" width="141.463" height="73.7076" rx="4.3282" stroke="#464646" stroke-width="0.961823"/>
<rect width="123.169" height="59.5038" transform="translate(77.3711 258.389)" fill="white"/>
<g clip-path="url(#clip5_4684_45093)">
<rect x="77.3711" y="258.389" width="123.169" height="59.5038" rx="4.1611" fill="white"/>
<rect width="123.169" height="17.4766" transform="translate(77.3711 258.389)" fill="#464646"/>
<circle cx="86.1079" cy="267.128" r="2.08055" fill="#F74A4A"/>
<circle cx="94.4321" cy="267.128" r="2.08055" fill="#FFAE1B"/>
<circle cx="102.752" cy="267.128" r="2.08055" fill="#259F46"/>
<path d="M121.678 298.853H119.514L122.812 289.299H125.415L128.708 298.853H126.544L124.151 291.482H124.076L121.678 298.853ZM121.543 295.097H126.656V296.674H121.543V295.097ZM129.858 298.853V289.299H131.845V292.891H131.906C131.993 292.698 132.119 292.502 132.284 292.303C132.452 292.101 132.67 291.933 132.937 291.799C133.208 291.663 133.543 291.594 133.945 291.594C134.467 291.594 134.949 291.731 135.391 292.005C135.832 292.275 136.185 292.684 136.45 293.232C136.714 293.776 136.846 294.458 136.846 295.279C136.846 296.079 136.717 296.753 136.459 297.304C136.204 297.851 135.856 298.266 135.414 298.549C134.976 298.829 134.484 298.969 133.94 298.969C133.554 298.969 133.226 298.906 132.956 298.778C132.688 298.651 132.469 298.49 132.298 298.298C132.127 298.102 131.996 297.904 131.906 297.705H131.817V298.853H129.858ZM131.803 295.27C131.803 295.696 131.863 296.068 131.981 296.385C132.099 296.702 132.27 296.949 132.494 297.127C132.718 297.301 132.99 297.388 133.31 297.388C133.634 297.388 133.907 297.299 134.131 297.122C134.355 296.942 134.525 296.693 134.64 296.376C134.758 296.055 134.817 295.687 134.817 295.27C134.817 294.856 134.759 294.493 134.644 294.178C134.529 293.864 134.36 293.619 134.136 293.441C133.912 293.264 133.637 293.176 133.31 293.176C132.987 293.176 132.713 293.261 132.489 293.432C132.268 293.603 132.099 293.846 131.981 294.16C131.863 294.474 131.803 294.844 131.803 295.27ZM141.41 298.993C140.685 298.993 140.058 298.839 139.53 298.531C139.004 298.22 138.598 297.788 138.312 297.234C138.026 296.677 137.883 296.032 137.883 295.298C137.883 294.558 138.026 293.911 138.312 293.357C138.598 292.801 139.004 292.369 139.53 292.061C140.058 291.75 140.685 291.594 141.41 291.594C142.134 291.594 142.759 291.75 143.285 292.061C143.814 292.369 144.221 292.801 144.507 293.357C144.793 293.911 144.936 294.558 144.936 295.298C144.936 296.032 144.793 296.677 144.507 297.234C144.221 297.788 143.814 298.22 143.285 298.531C142.759 298.839 142.134 298.993 141.41 298.993ZM141.419 297.453C141.749 297.453 142.024 297.36 142.245 297.173C142.465 296.984 142.632 296.725 142.744 296.399C142.859 296.072 142.916 295.701 142.916 295.284C142.916 294.867 142.859 294.496 142.744 294.169C142.632 293.843 142.465 293.584 142.245 293.395C142.024 293.205 141.749 293.11 141.419 293.11C141.086 293.11 140.806 293.205 140.579 293.395C140.355 293.584 140.186 293.843 140.071 294.169C139.959 294.496 139.903 294.867 139.903 295.284C139.903 295.701 139.959 296.072 140.071 296.399C140.186 296.725 140.355 296.984 140.579 297.173C140.806 297.36 141.086 297.453 141.419 297.453ZM150.823 295.802V291.687H152.811V298.853H150.903V297.551H150.828C150.666 297.971 150.397 298.308 150.021 298.563C149.648 298.818 149.192 298.946 148.654 298.946C148.175 298.946 147.754 298.837 147.39 298.619C147.026 298.402 146.742 298.092 146.536 297.691C146.334 297.29 146.232 296.809 146.228 296.25V291.687H148.216V295.895C148.219 296.318 148.332 296.652 148.556 296.898C148.78 297.144 149.08 297.267 149.456 297.267C149.696 297.267 149.92 297.212 150.128 297.103C150.337 296.991 150.505 296.827 150.632 296.609C150.763 296.391 150.826 296.122 150.823 295.802ZM158.211 291.687V293.18H153.896V291.687H158.211ZM154.876 289.971H156.863V296.651C156.863 296.834 156.891 296.977 156.947 297.08C157.003 297.18 157.081 297.25 157.18 297.29C157.283 297.33 157.401 297.351 157.535 297.351C157.628 297.351 157.721 297.343 157.815 297.327C157.908 297.309 157.98 297.295 158.029 297.285L158.342 298.764C158.242 298.795 158.102 298.831 157.922 298.871C157.742 298.915 157.522 298.941 157.264 298.951C156.785 298.969 156.366 298.906 156.005 298.759C155.647 298.613 155.369 298.386 155.17 298.078C154.971 297.77 154.873 297.382 154.876 296.912V289.971Z" fill="#302D2D"/>
</g>
<rect x="77.7872" y="258.805" width="122.336" height="58.6716" rx="3.74499" stroke="#464646" stroke-width="0.832221"/>
<g clip-path="url(#clip6_4684_45093)">
<rect x="283.551" y="258.405" width="123.239" height="59.2723" rx="4.1611" fill="white"/>
<rect width="123.239" height="17.4766" transform="translate(283.551 258.405)" fill="#464646"/>
<circle cx="292.288" cy="267.143" r="2.08055" fill="#F74A4A"/>
<circle cx="300.612" cy="267.143" r="2.08055" fill="#FFAE1B"/>
<circle cx="308.932" cy="267.143" r="2.08055" fill="#259F46"/>
<path d="M322.86 292.659H320.817C320.78 292.395 320.704 292.16 320.589 291.955C320.473 291.747 320.326 291.569 320.145 291.423C319.965 291.277 319.757 291.165 319.52 291.087C319.287 291.01 319.034 290.971 318.76 290.971C318.265 290.971 317.835 291.094 317.468 291.339C317.101 291.582 316.816 291.936 316.614 292.403C316.412 292.866 316.311 293.429 316.311 294.092C316.311 294.773 316.412 295.345 316.614 295.808C316.819 296.272 317.105 296.622 317.472 296.858C317.839 297.094 318.264 297.212 318.746 297.212C319.016 297.212 319.267 297.177 319.497 297.105C319.73 297.034 319.937 296.929 320.117 296.793C320.298 296.653 320.447 296.483 320.565 296.284C320.687 296.085 320.77 295.858 320.817 295.603L322.86 295.612C322.807 296.051 322.675 296.474 322.464 296.881C322.255 297.285 321.974 297.648 321.619 297.968C321.268 298.285 320.848 298.537 320.36 298.724C319.875 298.907 319.326 298.999 318.713 298.999C317.861 298.999 317.099 298.806 316.427 298.421C315.759 298.035 315.23 297.477 314.841 296.746C314.456 296.015 314.263 295.13 314.263 294.092C314.263 293.05 314.459 292.163 314.851 291.433C315.243 290.702 315.774 290.145 316.446 289.763C317.118 289.377 317.874 289.184 318.713 289.184C319.267 289.184 319.78 289.262 320.253 289.417C320.728 289.573 321.15 289.8 321.517 290.098C321.884 290.394 322.182 290.756 322.413 291.185C322.646 291.615 322.795 292.106 322.86 292.659ZM326.315 299.004C325.858 299.004 325.45 298.924 325.092 298.766C324.735 298.604 324.452 298.366 324.243 298.052C324.038 297.735 323.936 297.34 323.936 296.867C323.936 296.469 324.009 296.135 324.155 295.864C324.301 295.594 324.5 295.376 324.752 295.211C325.004 295.046 325.29 294.922 325.61 294.838C325.934 294.754 326.273 294.695 326.627 294.661C327.044 294.617 327.38 294.577 327.635 294.539C327.89 294.499 328.075 294.44 328.19 294.362C328.305 294.284 328.363 294.169 328.363 294.017V293.989C328.363 293.694 328.269 293.465 328.083 293.303C327.899 293.142 327.638 293.061 327.299 293.061C326.941 293.061 326.657 293.14 326.445 293.299C326.234 293.454 326.094 293.65 326.025 293.886L324.188 293.737C324.281 293.302 324.464 292.925 324.738 292.608C325.012 292.288 325.365 292.042 325.797 291.871C326.232 291.697 326.736 291.61 327.308 291.61C327.706 291.61 328.087 291.657 328.451 291.75C328.818 291.843 329.143 291.988 329.426 292.184C329.712 292.38 329.938 292.632 330.103 292.939C330.267 293.244 330.35 293.61 330.35 294.036V298.868H328.465V297.875H328.409C328.294 298.099 328.14 298.296 327.947 298.467C327.755 298.635 327.523 298.767 327.252 298.864C326.982 298.957 326.669 299.004 326.315 299.004ZM326.884 297.632C327.176 297.632 327.434 297.575 327.658 297.46C327.882 297.341 328.058 297.183 328.185 296.984C328.313 296.785 328.377 296.559 328.377 296.307V295.547C328.314 295.587 328.229 295.625 328.12 295.659C328.014 295.69 327.895 295.72 327.761 295.748C327.627 295.773 327.493 295.796 327.36 295.818C327.226 295.836 327.105 295.853 326.996 295.869C326.763 295.903 326.559 295.958 326.385 296.032C326.211 296.107 326.075 296.208 325.979 296.335C325.882 296.46 325.834 296.615 325.834 296.802C325.834 297.072 325.932 297.279 326.128 297.422C326.327 297.562 326.579 297.632 326.884 297.632ZM333.879 294.726V298.868H331.892V291.703H333.785V292.967H333.869C334.028 292.551 334.294 292.221 334.667 291.978C335.04 291.733 335.493 291.61 336.025 291.61C336.522 291.61 336.956 291.719 337.326 291.936C337.696 292.154 337.984 292.465 338.189 292.869C338.394 293.271 338.497 293.75 338.497 294.306V298.868H336.51V294.661C336.513 294.222 336.401 293.88 336.174 293.634C335.947 293.386 335.634 293.261 335.236 293.261C334.969 293.261 334.732 293.319 334.527 293.434C334.325 293.549 334.166 293.717 334.051 293.938C333.939 294.155 333.882 294.418 333.879 294.726ZM346.487 291.703L343.982 298.868H341.743L339.238 291.703H341.337L342.825 296.83H342.899L344.383 291.703H346.487ZM349.355 299.004C348.897 299.004 348.49 298.924 348.132 298.766C347.775 298.604 347.492 298.366 347.283 298.052C347.078 297.735 346.975 297.34 346.975 296.867C346.975 296.469 347.048 296.135 347.195 295.864C347.341 295.594 347.54 295.376 347.792 295.211C348.044 295.046 348.33 294.922 348.65 294.838C348.974 294.754 349.313 294.695 349.667 294.661C350.084 294.617 350.42 294.577 350.675 294.539C350.93 294.499 351.115 294.44 351.23 294.362C351.345 294.284 351.402 294.169 351.402 294.017V293.989C351.402 293.694 351.309 293.465 351.122 293.303C350.939 293.142 350.678 293.061 350.339 293.061C349.981 293.061 349.697 293.14 349.485 293.299C349.274 293.454 349.134 293.65 349.065 293.886L347.227 293.737C347.321 293.302 347.504 292.925 347.778 292.608C348.051 292.288 348.404 292.042 348.837 291.871C349.272 291.697 349.776 291.61 350.348 291.61C350.746 291.61 351.127 291.657 351.491 291.75C351.858 291.843 352.183 291.988 352.466 292.184C352.752 292.38 352.978 292.632 353.142 292.939C353.307 293.244 353.39 293.61 353.39 294.036V298.868H351.505V297.875H351.449C351.334 298.099 351.18 298.296 350.987 298.467C350.794 298.635 350.563 298.767 350.292 298.864C350.022 298.957 349.709 299.004 349.355 299.004ZM349.924 297.632C350.216 297.632 350.474 297.575 350.698 297.46C350.922 297.341 351.098 297.183 351.225 296.984C351.353 296.785 351.416 296.559 351.416 296.307V295.547C351.354 295.587 351.269 295.625 351.16 295.659C351.054 295.69 350.934 295.72 350.801 295.748C350.667 295.773 350.533 295.796 350.399 295.818C350.266 295.836 350.144 295.853 350.036 295.869C349.802 295.903 349.599 295.958 349.424 296.032C349.25 296.107 349.115 296.208 349.019 296.335C348.922 296.46 348.874 296.615 348.874 296.802C348.874 297.072 348.972 297.279 349.168 297.422C349.367 297.562 349.619 297.632 349.924 297.632ZM360.893 293.746L359.074 293.858C359.043 293.703 358.976 293.563 358.873 293.439C358.771 293.311 358.635 293.21 358.467 293.135C358.303 293.058 358.105 293.019 357.875 293.019C357.567 293.019 357.307 293.084 357.096 293.215C356.884 293.342 356.779 293.513 356.779 293.728C356.779 293.899 356.847 294.043 356.984 294.162C357.121 294.28 357.356 294.375 357.688 294.446L358.985 294.707C359.682 294.85 360.201 295.081 360.543 295.398C360.885 295.715 361.056 296.132 361.056 296.648C361.056 297.118 360.918 297.53 360.641 297.884C360.367 298.239 359.991 298.515 359.512 298.714C359.036 298.91 358.488 299.008 357.866 299.008C356.917 299.008 356.161 298.811 355.598 298.416C355.039 298.018 354.711 297.477 354.614 296.793L356.569 296.69C356.628 296.979 356.771 297.2 356.998 297.352C357.225 297.502 357.516 297.576 357.87 297.576C358.219 297.576 358.498 297.509 358.71 297.376C358.924 297.239 359.033 297.063 359.036 296.849C359.033 296.668 358.957 296.52 358.808 296.405C358.659 296.287 358.428 296.197 358.117 296.135L356.877 295.888C356.177 295.748 355.656 295.505 355.314 295.16C354.975 294.815 354.805 294.375 354.805 293.84C354.805 293.379 354.93 292.983 355.179 292.65C355.43 292.317 355.783 292.061 356.238 291.88C356.695 291.7 357.23 291.61 357.842 291.61C358.747 291.61 359.459 291.801 359.979 292.184C360.501 292.566 360.806 293.087 360.893 293.746ZM365.573 299.008C364.836 299.008 364.202 298.859 363.67 298.561C363.141 298.259 362.734 297.833 362.448 297.282C362.162 296.729 362.018 296.074 362.018 295.318C362.018 294.581 362.162 293.935 362.448 293.378C362.734 292.821 363.136 292.387 363.656 292.076C364.178 291.765 364.791 291.61 365.494 291.61C365.967 291.61 366.407 291.686 366.814 291.838C367.224 291.988 367.582 292.213 367.887 292.515C368.195 292.817 368.434 293.196 368.605 293.653C368.776 294.107 368.862 294.639 368.862 295.248V295.794H362.811V294.563H366.991C366.991 294.277 366.929 294.023 366.805 293.802C366.68 293.582 366.508 293.409 366.287 293.285C366.069 293.157 365.816 293.093 365.526 293.093C365.225 293.093 364.957 293.163 364.724 293.303C364.494 293.44 364.314 293.625 364.183 293.858C364.052 294.088 363.985 294.345 363.982 294.628V295.799C363.982 296.153 364.048 296.46 364.178 296.718C364.312 296.976 364.5 297.175 364.743 297.315C364.985 297.455 365.273 297.525 365.606 297.525C365.827 297.525 366.029 297.494 366.212 297.432C366.396 297.369 366.553 297.276 366.683 297.152C366.814 297.027 366.913 296.875 366.982 296.695L368.82 296.816C368.727 297.258 368.535 297.643 368.246 297.973C367.96 298.299 367.59 298.554 367.136 298.738C366.685 298.918 366.164 299.008 365.573 299.008ZM376.12 293.746L374.301 293.858C374.27 293.703 374.203 293.563 374.1 293.439C373.998 293.311 373.863 293.21 373.695 293.135C373.53 293.058 373.332 293.019 373.102 293.019C372.794 293.019 372.535 293.084 372.323 293.215C372.112 293.342 372.006 293.513 372.006 293.728C372.006 293.899 372.074 294.043 372.211 294.162C372.348 294.28 372.583 294.375 372.916 294.446L374.212 294.707C374.909 294.85 375.428 295.081 375.771 295.398C376.113 295.715 376.284 296.132 376.284 296.648C376.284 297.118 376.145 297.53 375.868 297.884C375.595 298.239 375.219 298.515 374.74 298.714C374.264 298.91 373.715 299.008 373.093 299.008C372.144 299.008 371.389 298.811 370.826 298.416C370.266 298.018 369.938 297.477 369.841 296.793L371.796 296.69C371.855 296.979 371.998 297.2 372.225 297.352C372.452 297.502 372.743 297.576 373.098 297.576C373.446 297.576 373.726 297.509 373.937 297.376C374.152 297.239 374.261 297.063 374.264 296.849C374.261 296.668 374.184 296.52 374.035 296.405C373.886 296.287 373.656 296.197 373.345 296.135L372.104 295.888C371.404 295.748 370.883 295.505 370.541 295.16C370.202 294.815 370.033 294.375 370.033 293.84C370.033 293.379 370.157 292.983 370.406 292.65C370.658 292.317 371.011 292.061 371.465 291.88C371.922 291.7 372.457 291.61 373.07 291.61C373.975 291.61 374.687 291.801 375.206 292.184C375.729 292.566 376.033 293.087 376.12 293.746Z" fill="#302D2D"/>
</g>
<rect x="283.967" y="258.821" width="122.407" height="58.4401" rx="3.74499" stroke="#464646" stroke-width="0.832221"/>
<g clip-path="url(#clip7_4684_45093)">
<rect x="501.273" y="258.389" width="123.169" height="59.5038" rx="4.1611" fill="white"/>
<rect width="123.169" height="17.4766" transform="translate(501.273 258.389)" fill="#464646"/>
<circle cx="510.01" cy="267.128" r="2.08055" fill="#F74A4A"/>
<circle cx="518.334" cy="267.128" r="2.08055" fill="#FFAE1B"/>
<circle cx="526.655" cy="267.128" r="2.08055" fill="#259F46"/>
<path d="M535.916 298.853V289.299H539.685C540.41 289.299 541.027 289.437 541.537 289.714C542.047 289.988 542.436 290.369 542.704 290.857C542.974 291.342 543.109 291.902 543.109 292.536C543.109 293.171 542.973 293.731 542.699 294.216C542.425 294.701 542.029 295.079 541.509 295.349C540.993 295.62 540.368 295.755 539.634 295.755H537.232V294.136H539.308C539.696 294.136 540.017 294.07 540.269 293.936C540.524 293.799 540.713 293.611 540.838 293.371C540.965 293.129 541.029 292.851 541.029 292.536C541.029 292.219 540.965 291.942 540.838 291.706C540.713 291.467 540.524 291.282 540.269 291.151C540.014 291.017 539.69 290.95 539.298 290.95H537.936V298.853H535.916ZM546.235 298.988C545.778 298.988 545.37 298.909 545.013 298.75C544.655 298.588 544.372 298.35 544.164 298.036C543.958 297.719 543.856 297.324 543.856 296.851C543.856 296.453 543.929 296.119 544.075 295.848C544.221 295.578 544.42 295.36 544.672 295.195C544.924 295.031 545.21 294.906 545.531 294.822C545.854 294.738 546.193 294.679 546.547 294.645C546.964 294.601 547.3 294.561 547.555 294.524C547.81 294.483 547.995 294.424 548.11 294.346C548.225 294.269 548.283 294.154 548.283 294.001V293.973C548.283 293.678 548.19 293.449 548.003 293.287C547.819 293.126 547.558 293.045 547.219 293.045C546.862 293.045 546.577 293.124 546.366 293.283C546.154 293.438 546.014 293.634 545.946 293.871L544.108 293.721C544.201 293.286 544.385 292.91 544.658 292.592C544.932 292.272 545.285 292.026 545.717 291.855C546.153 291.681 546.656 291.594 547.229 291.594C547.627 291.594 548.008 291.641 548.371 291.734C548.738 291.827 549.063 291.972 549.346 292.168C549.633 292.364 549.858 292.616 550.023 292.924C550.188 293.228 550.27 293.594 550.27 294.02V298.853H548.385V297.859H548.329C548.214 298.083 548.06 298.28 547.868 298.451C547.675 298.619 547.443 298.752 547.173 298.848C546.902 298.941 546.589 298.988 546.235 298.988ZM546.804 297.616C547.096 297.616 547.354 297.559 547.578 297.444C547.802 297.326 547.978 297.167 548.106 296.968C548.233 296.769 548.297 296.544 548.297 296.292V295.531C548.235 295.572 548.149 295.609 548.04 295.643C547.934 295.674 547.815 295.704 547.681 295.732C547.547 295.757 547.414 295.78 547.28 295.802C547.146 295.821 547.025 295.838 546.916 295.853C546.683 295.887 546.479 295.942 546.305 296.016C546.131 296.091 545.995 296.192 545.899 296.32C545.803 296.444 545.754 296.6 545.754 296.786C545.754 297.057 545.852 297.264 546.048 297.407C546.247 297.547 546.499 297.616 546.804 297.616ZM551.812 298.853V291.687H553.738V292.938H553.813C553.944 292.493 554.163 292.157 554.471 291.93C554.779 291.7 555.133 291.585 555.534 291.585C555.634 291.585 555.741 291.591 555.856 291.603C555.971 291.616 556.072 291.633 556.159 291.655V293.418C556.066 293.39 555.937 293.365 555.772 293.343C555.607 293.322 555.457 293.311 555.32 293.311C555.027 293.311 554.766 293.375 554.536 293.502C554.309 293.626 554.129 293.801 553.995 294.025C553.864 294.248 553.799 294.507 553.799 294.799V298.853H551.812ZM561.357 291.687V293.18H557.042V291.687H561.357ZM558.022 289.971H560.009V296.651C560.009 296.834 560.037 296.977 560.093 297.08C560.149 297.18 560.227 297.25 560.326 297.29C560.429 297.33 560.547 297.351 560.681 297.351C560.774 297.351 560.867 297.343 560.961 297.327C561.054 297.309 561.126 297.295 561.175 297.285L561.488 298.764C561.388 298.795 561.248 298.831 561.068 298.871C560.888 298.915 560.668 298.941 560.41 298.951C559.931 298.969 559.512 298.906 559.151 298.759C558.793 298.613 558.515 298.386 558.316 298.078C558.117 297.77 558.019 297.382 558.022 296.912V289.971ZM564.639 294.71V298.853H562.652V291.687H564.546V292.952H564.63C564.788 292.535 565.054 292.205 565.427 291.963C565.801 291.717 566.253 291.594 566.785 291.594C567.282 291.594 567.716 291.703 568.086 291.921C568.456 292.138 568.744 292.449 568.949 292.854C569.155 293.255 569.257 293.734 569.257 294.29V298.853H567.27V294.645C567.273 294.206 567.161 293.864 566.934 293.619C566.707 293.37 566.395 293.245 565.997 293.245C565.729 293.245 565.493 293.303 565.287 293.418C565.085 293.533 564.927 293.701 564.812 293.922C564.7 294.14 564.642 294.402 564.639 294.71ZM574.089 298.993C573.352 298.993 572.717 298.843 572.186 298.545C571.657 298.243 571.25 297.817 570.963 297.267C570.677 296.713 570.534 296.058 570.534 295.303C570.534 294.566 570.677 293.919 570.963 293.362C571.25 292.805 571.652 292.372 572.172 292.061C572.694 291.75 573.307 291.594 574.01 291.594C574.482 291.594 574.922 291.67 575.33 291.823C575.74 291.972 576.098 292.197 576.403 292.499C576.711 292.801 576.95 293.18 577.121 293.637C577.292 294.091 577.378 294.623 577.378 295.233V295.779H571.327V294.547H575.507C575.507 294.261 575.445 294.007 575.32 293.787C575.196 293.566 575.023 293.393 574.803 293.269C574.585 293.141 574.331 293.078 574.042 293.078C573.741 293.078 573.473 293.148 573.24 293.287C573.01 293.424 572.829 293.609 572.699 293.843C572.568 294.073 572.501 294.329 572.498 294.612V295.783C572.498 296.138 572.563 296.444 572.694 296.702C572.828 296.96 573.016 297.159 573.259 297.299C573.501 297.439 573.789 297.509 574.122 297.509C574.342 297.509 574.544 297.478 574.728 297.416C574.911 297.354 575.069 297.26 575.199 297.136C575.33 297.012 575.429 296.859 575.498 296.679L577.336 296.8C577.242 297.242 577.051 297.627 576.762 297.957C576.476 298.284 576.106 298.539 575.652 298.722C575.201 298.902 574.68 298.993 574.089 298.993ZM578.674 298.853V291.687H580.601V292.938H580.676C580.806 292.493 581.026 292.157 581.333 291.93C581.641 291.7 581.996 291.585 582.397 291.585C582.497 291.585 582.604 291.591 582.719 291.603C582.834 291.616 582.935 291.633 583.022 291.655V293.418C582.929 293.39 582.8 293.365 582.635 293.343C582.47 293.322 582.319 293.311 582.182 293.311C581.89 293.311 581.629 293.375 581.399 293.502C581.172 293.626 580.991 293.801 580.858 294.025C580.727 294.248 580.662 294.507 580.662 294.799V298.853H578.674ZM590.011 293.731L588.192 293.843C588.161 293.687 588.094 293.547 587.991 293.423C587.889 293.295 587.753 293.194 587.586 293.12C587.421 293.042 587.223 293.003 586.993 293.003C586.685 293.003 586.426 293.068 586.214 293.199C586.003 293.326 585.897 293.497 585.897 293.712C585.897 293.883 585.965 294.028 586.102 294.146C586.239 294.264 586.474 294.359 586.807 294.43L588.103 294.692C588.8 294.835 589.319 295.065 589.661 295.382C590.004 295.699 590.175 296.116 590.175 296.632C590.175 297.102 590.036 297.514 589.759 297.868C589.486 298.223 589.109 298.5 588.63 298.699C588.155 298.895 587.606 298.993 586.984 298.993C586.035 298.993 585.28 298.795 584.717 298.4C584.157 298.002 583.829 297.461 583.732 296.777L585.687 296.674C585.746 296.963 585.889 297.184 586.116 297.337C586.343 297.486 586.634 297.561 586.988 297.561C587.337 297.561 587.617 297.494 587.828 297.36C588.043 297.223 588.152 297.047 588.155 296.833C588.152 296.652 588.075 296.505 587.926 296.39C587.777 296.271 587.547 296.181 587.236 296.119L585.995 295.872C585.295 295.732 584.774 295.489 584.432 295.144C584.093 294.799 583.924 294.359 583.924 293.824C583.924 293.364 584.048 292.967 584.297 292.634C584.549 292.302 584.902 292.045 585.356 291.865C585.813 291.684 586.348 291.594 586.96 291.594C587.865 291.594 588.578 291.785 589.097 292.168C589.619 292.55 589.924 293.071 590.011 293.731Z" fill="#302D2D"/>
</g>
<rect x="501.69" y="258.805" width="122.336" height="58.6716" rx="3.74499" stroke="#464646" stroke-width="0.832221"/>
<g clip-path="url(#clip8_4684_45093)">
<rect x="501.273" y="258.389" width="123.169" height="59.5038" rx="4.1611" fill="white"/>
<rect width="123.169" height="17.4766" transform="translate(501.273 258.389)" fill="#464646"/>
<circle cx="510.01" cy="267.128" r="2.08055" fill="#F74A4A"/>
<circle cx="518.334" cy="267.128" r="2.08055" fill="#FFAE1B"/>
<circle cx="526.655" cy="267.128" r="2.08055" fill="#259F46"/>
<path d="M535.916 298.853V289.299H539.685C540.41 289.299 541.027 289.437 541.537 289.714C542.047 289.988 542.436 290.369 542.704 290.857C542.974 291.342 543.109 291.902 543.109 292.536C543.109 293.171 542.973 293.731 542.699 294.216C542.425 294.701 542.029 295.079 541.509 295.349C540.993 295.62 540.368 295.755 539.634 295.755H537.232V294.136H539.308C539.696 294.136 540.017 294.07 540.269 293.936C540.524 293.799 540.713 293.611 540.838 293.371C540.965 293.129 541.029 292.851 541.029 292.536C541.029 292.219 540.965 291.942 540.838 291.706C540.713 291.467 540.524 291.282 540.269 291.151C540.014 291.017 539.69 290.95 539.298 290.95H537.936V298.853H535.916ZM546.235 298.988C545.778 298.988 545.37 298.909 545.013 298.75C544.655 298.588 544.372 298.35 544.164 298.036C543.958 297.719 543.856 297.324 543.856 296.851C543.856 296.453 543.929 296.119 544.075 295.848C544.221 295.578 544.42 295.36 544.672 295.195C544.924 295.031 545.21 294.906 545.531 294.822C545.854 294.738 546.193 294.679 546.547 294.645C546.964 294.601 547.3 294.561 547.555 294.524C547.81 294.483 547.995 294.424 548.11 294.346C548.225 294.269 548.283 294.154 548.283 294.001V293.973C548.283 293.678 548.19 293.449 548.003 293.287C547.819 293.126 547.558 293.045 547.219 293.045C546.862 293.045 546.577 293.124 546.366 293.283C546.154 293.438 546.014 293.634 545.946 293.871L544.108 293.721C544.201 293.286 544.385 292.91 544.658 292.592C544.932 292.272 545.285 292.026 545.717 291.855C546.153 291.681 546.656 291.594 547.229 291.594C547.627 291.594 548.008 291.641 548.371 291.734C548.738 291.827 549.063 291.972 549.346 292.168C549.633 292.364 549.858 292.616 550.023 292.924C550.188 293.228 550.27 293.594 550.27 294.02V298.853H548.385V297.859H548.329C548.214 298.083 548.06 298.28 547.868 298.451C547.675 298.619 547.443 298.752 547.173 298.848C546.902 298.941 546.589 298.988 546.235 298.988ZM546.804 297.616C547.096 297.616 547.354 297.559 547.578 297.444C547.802 297.326 547.978 297.167 548.106 296.968C548.233 296.769 548.297 296.544 548.297 296.292V295.531C548.235 295.572 548.149 295.609 548.04 295.643C547.934 295.674 547.815 295.704 547.681 295.732C547.547 295.757 547.414 295.78 547.28 295.802C547.146 295.821 547.025 295.838 546.916 295.853C546.683 295.887 546.479 295.942 546.305 296.016C546.131 296.091 545.995 296.192 545.899 296.32C545.803 296.444 545.754 296.6 545.754 296.786C545.754 297.057 545.852 297.264 546.048 297.407C546.247 297.547 546.499 297.616 546.804 297.616ZM551.812 298.853V291.687H553.738V292.938H553.813C553.944 292.493 554.163 292.157 554.471 291.93C554.779 291.7 555.133 291.585 555.534 291.585C555.634 291.585 555.741 291.591 555.856 291.603C555.971 291.616 556.072 291.633 556.159 291.655V293.418C556.066 293.39 555.937 293.365 555.772 293.343C555.607 293.322 555.457 293.311 555.32 293.311C555.027 293.311 554.766 293.375 554.536 293.502C554.309 293.626 554.129 293.801 553.995 294.025C553.864 294.248 553.799 294.507 553.799 294.799V298.853H551.812ZM561.357 291.687V293.18H557.042V291.687H561.357ZM558.022 289.971H560.009V296.651C560.009 296.834 560.037 296.977 560.093 297.08C560.149 297.18 560.227 297.25 560.326 297.29C560.429 297.33 560.547 297.351 560.681 297.351C560.774 297.351 560.867 297.343 560.961 297.327C561.054 297.309 561.126 297.295 561.175 297.285L561.488 298.764C561.388 298.795 561.248 298.831 561.068 298.871C560.888 298.915 560.668 298.941 560.41 298.951C559.931 298.969 559.512 298.906 559.151 298.759C558.793 298.613 558.515 298.386 558.316 298.078C558.117 297.77 558.019 297.382 558.022 296.912V289.971ZM564.639 294.71V298.853H562.652V291.687H564.546V292.952H564.63C564.788 292.535 565.054 292.205 565.427 291.963C565.801 291.717 566.253 291.594 566.785 291.594C567.282 291.594 567.716 291.703 568.086 291.921C568.456 292.138 568.744 292.449 568.949 292.854C569.155 293.255 569.257 293.734 569.257 294.29V298.853H567.27V294.645C567.273 294.206 567.161 293.864 566.934 293.619C566.707 293.37 566.395 293.245 565.997 293.245C565.729 293.245 565.493 293.303 565.287 293.418C565.085 293.533 564.927 293.701 564.812 293.922C564.7 294.14 564.642 294.402 564.639 294.71ZM574.089 298.993C573.352 298.993 572.717 298.843 572.186 298.545C571.657 298.243 571.25 297.817 570.963 297.267C570.677 296.713 570.534 296.058 570.534 295.303C570.534 294.566 570.677 293.919 570.963 293.362C571.25 292.805 571.652 292.372 572.172 292.061C572.694 291.75 573.307 291.594 574.01 291.594C574.482 291.594 574.922 291.67 575.33 291.823C575.74 291.972 576.098 292.197 576.403 292.499C576.711 292.801 576.95 293.18 577.121 293.637C577.292 294.091 577.378 294.623 577.378 295.233V295.779H571.327V294.547H575.507C575.507 294.261 575.445 294.007 575.32 293.787C575.196 293.566 575.023 293.393 574.803 293.269C574.585 293.141 574.331 293.078 574.042 293.078C573.741 293.078 573.473 293.148 573.24 293.287C573.01 293.424 572.829 293.609 572.699 293.843C572.568 294.073 572.501 294.329 572.498 294.612V295.783C572.498 296.138 572.563 296.444 572.694 296.702C572.828 296.96 573.016 297.159 573.259 297.299C573.501 297.439 573.789 297.509 574.122 297.509C574.342 297.509 574.544 297.478 574.728 297.416C574.911 297.354 575.069 297.26 575.199 297.136C575.33 297.012 575.429 296.859 575.498 296.679L577.336 296.8C577.242 297.242 577.051 297.627 576.762 297.957C576.476 298.284 576.106 298.539 575.652 298.722C575.201 298.902 574.68 298.993 574.089 298.993ZM578.674 298.853V291.687H580.601V292.938H580.676C580.806 292.493 581.026 292.157 581.333 291.93C581.641 291.7 581.996 291.585 582.397 291.585C582.497 291.585 582.604 291.591 582.719 291.603C582.834 291.616 582.935 291.633 583.022 291.655V293.418C582.929 293.39 582.8 293.365 582.635 293.343C582.47 293.322 582.319 293.311 582.182 293.311C581.89 293.311 581.629 293.375 581.399 293.502C581.172 293.626 580.991 293.801 580.858 294.025C580.727 294.248 580.662 294.507 580.662 294.799V298.853H578.674ZM590.011 293.731L588.192 293.843C588.161 293.687 588.094 293.547 587.991 293.423C587.889 293.295 587.753 293.194 587.586 293.12C587.421 293.042 587.223 293.003 586.993 293.003C586.685 293.003 586.426 293.068 586.214 293.199C586.003 293.326 585.897 293.497 585.897 293.712C585.897 293.883 585.965 294.028 586.102 294.146C586.239 294.264 586.474 294.359 586.807 294.43L588.103 294.692C588.8 294.835 589.319 295.065 589.661 295.382C590.004 295.699 590.175 296.116 590.175 296.632C590.175 297.102 590.036 297.514 589.759 297.868C589.486 298.223 589.109 298.5 588.63 298.699C588.155 298.895 587.606 298.993 586.984 298.993C586.035 298.993 585.28 298.795 584.717 298.4C584.157 298.002 583.829 297.461 583.732 296.777L585.687 296.674C585.746 296.963 585.889 297.184 586.116 297.337C586.343 297.486 586.634 297.561 586.988 297.561C587.337 297.561 587.617 297.494 587.828 297.36C588.043 297.223 588.152 297.047 588.155 296.833C588.152 296.652 588.075 296.505 587.926 296.39C587.777 296.271 587.547 296.181 587.236 296.119L585.995 295.872C585.295 295.732 584.774 295.489 584.432 295.144C584.093 294.799 583.924 294.359 583.924 293.824C583.924 293.364 584.048 292.967 584.297 292.634C584.549 292.302 584.902 292.045 585.356 291.865C585.813 291.684 586.348 291.594 586.96 291.594C587.865 291.594 588.578 291.785 589.097 292.168C589.619 292.55 589.924 293.071 590.011 293.731Z" fill="#302D2D"/>
</g>
<rect x="501.69" y="258.805" width="122.336" height="58.6716" rx="3.74499" stroke="#464646" stroke-width="0.832221"/>
<path d="M77.3708 286.586C76.5065 286.586 75.8151 287.277 75.8151 288.141C75.8151 289.005 76.5065 289.697 77.3708 289.697C78.235 289.697 78.9264 289.005 78.9264 288.141C78.9264 287.277 78.235 286.586 77.3708 286.586Z" fill="white"/>
<path d="M116.434 401.377L111.249 398.384V404.371L116.434 401.377ZM76.3337 288.141C76.3337 287.563 76.7929 287.104 77.3708 287.104V286.067C76.2201 286.067 75.2966 286.991 75.2966 288.141H76.3337ZM77.3708 287.104C77.9486 287.104 78.4078 287.563 78.4078 288.141H79.4449C79.4449 286.991 78.5214 286.067 77.3708 286.067V287.104ZM78.4078 288.141C78.4078 288.719 77.9486 289.178 77.3708 289.178V290.215C78.5214 290.215 79.4449 289.292 79.4449 288.141H78.4078ZM77.3708 289.178C76.7929 289.178 76.3337 288.719 76.3337 288.141H75.2966C75.2966 289.292 76.2201 290.215 77.3708 290.215V289.178ZM75.8151 287.623H73.9138V288.66H75.8151V287.623ZM66.4815 295.055V394.464H67.5185V295.055H66.4815ZM73.9138 401.896H111.767V400.859H73.9138V401.896ZM66.4815 394.464C66.4815 398.568 69.809 401.896 73.9138 401.896V400.859C70.3818 400.859 67.5185 397.996 67.5185 394.464H66.4815ZM73.9138 287.623C69.809 287.623 66.4815 290.95 66.4815 295.055H67.5185C67.5185 291.523 70.3818 288.66 73.9138 288.66V287.623Z" fill="black"/>
<path d="M77.3708 286.586C76.5065 286.586 75.8151 287.277 75.8151 288.141C75.8151 289.005 76.5065 289.697 77.3708 289.697C78.235 289.697 78.9264 289.005 78.9264 288.141C78.9264 287.277 78.235 286.586 77.3708 286.586Z" fill="white"/>
<path d="M116.434 485.381L111.249 482.387V488.374L116.434 485.381ZM76.3337 288.141C76.3337 287.563 76.7929 287.104 77.3708 287.104V286.067C76.2201 286.067 75.2966 286.991 75.2966 288.141H76.3337ZM77.3708 287.104C77.9486 287.104 78.4078 287.563 78.4078 288.141H79.4449C79.4449 286.991 78.5214 286.067 77.3708 286.067V287.104ZM78.4078 288.141C78.4078 288.719 77.9486 289.178 77.3708 289.178V290.215C78.5214 290.215 79.4449 289.292 79.4449 288.141H78.4078ZM77.3708 289.178C76.7929 289.178 76.3337 288.719 76.3337 288.141H75.2966C75.2966 289.292 76.2201 290.215 77.3708 290.215V289.178ZM75.8151 287.623H73.9138V288.66H75.8151V287.623ZM66.4815 295.055V478.467H67.5185V295.055H66.4815ZM73.9138 485.899H111.767V484.862H73.9138V485.899ZM66.4815 478.467C66.4815 482.571 69.809 485.899 73.9138 485.899V484.862C70.3818 484.862 67.5185 481.999 67.5185 478.467H66.4815ZM73.9138 287.623C69.809 287.623 66.4815 290.95 66.4815 295.055H67.5185C67.5185 291.523 70.3818 288.66 73.9138 288.66V287.623Z" fill="black"/>
<path d="M77.3708 286.586C76.5065 286.586 75.8151 287.277 75.8151 288.141C75.8151 289.005 76.5065 289.697 77.3708 289.697C78.235 289.697 78.9264 289.005 78.9264 288.141C78.9264 287.277 78.235 286.586 77.3708 286.586Z" fill="white"/>
<path d="M116.434 569.384L111.249 566.39V572.377L116.434 569.384ZM76.3337 288.141C76.3337 287.563 76.7929 287.104 77.3708 287.104V286.067C76.2201 286.067 75.2966 286.991 75.2966 288.141H76.3337ZM77.3708 287.104C77.9486 287.104 78.4078 287.563 78.4078 288.141H79.4449C79.4449 286.991 78.5214 286.067 77.3708 286.067V287.104ZM78.4078 288.141C78.4078 288.719 77.9486 289.178 77.3708 289.178V290.215C78.5214 290.215 79.4449 289.292 79.4449 288.141H78.4078ZM77.3708 289.178C76.7929 289.178 76.3337 288.719 76.3337 288.141H75.2966C75.2966 289.292 76.2201 290.215 77.3708 290.215V289.178ZM75.8151 287.623H73.9138V288.66H75.8151V287.623ZM66.4815 295.055V562.47H67.5185V295.055H66.4815ZM73.9138 569.902H111.767V568.865H73.9138V569.902ZM66.4815 562.47C66.4815 566.575 69.809 569.902 73.9138 569.902V568.865C70.3818 568.865 67.5185 566.002 67.5185 562.47H66.4815ZM73.9138 287.623C69.809 287.623 66.4815 290.95 66.4815 295.055H67.5185C67.5185 291.523 70.3818 288.66 73.9138 288.66V287.623Z" fill="black"/>
<path d="M436.921 125.899C435.943 125.899 435.16 126.682 435.16 127.66C435.16 128.638 435.943 129.42 436.921 129.42C437.899 129.42 438.681 128.638 438.681 127.66C438.681 126.682 437.899 125.899 436.921 125.899Z" fill="white"/>
<path d="M780.579 258.389L783.967 252.521H777.191L780.579 258.389ZM435.747 127.66C435.747 127.006 436.267 126.486 436.921 126.486V125.312C435.619 125.312 434.573 126.358 434.573 127.66H435.747ZM436.921 126.486C437.575 126.486 438.094 127.006 438.094 127.66H439.268C439.268 126.358 438.223 125.312 436.921 125.312V126.486ZM438.094 127.66C438.094 128.314 437.575 128.833 436.921 128.833V130.007C438.223 130.007 439.268 128.962 439.268 127.66H438.094ZM436.921 128.833C436.267 128.833 435.747 128.314 435.747 127.66H434.573C434.573 128.962 435.619 130.007 436.921 130.007V128.833ZM436.334 129.42V181.288H437.508V129.42H436.334ZM448.658 193.611H768.842V192.438H448.658V193.611ZM779.992 204.762V253.108H781.166V204.762H779.992ZM768.842 193.611C775 193.611 779.992 198.604 779.992 204.762H781.166C781.166 197.955 775.648 192.438 768.842 192.438V193.611ZM436.334 181.288C436.334 188.094 441.851 193.611 448.658 193.611V192.438C442.5 192.438 437.508 187.446 437.508 181.288H436.334Z" fill="black"/>
<path d="M436.92 125.899C435.941 125.899 435.159 126.682 435.159 127.66C435.159 128.638 435.941 129.42 436.92 129.42C437.898 129.42 438.68 128.638 438.68 127.66C438.68 126.682 437.898 125.899 436.92 125.899Z" fill="white"/>
<path d="M138.953 258.389L142.341 252.521H135.565L138.953 258.389ZM435.746 127.66C435.746 127.006 436.266 126.486 436.92 126.486V125.312C435.617 125.312 434.572 126.358 434.572 127.66H435.746ZM436.92 126.486C437.574 126.486 438.093 127.006 438.093 127.66H439.267C439.267 126.358 438.222 125.312 436.92 125.312V126.486ZM438.093 127.66C438.093 128.314 437.574 128.833 436.92 128.833V130.007C438.222 130.007 439.267 128.962 439.267 127.66H438.093ZM436.92 128.833C436.266 128.833 435.746 128.314 435.746 127.66H434.572C434.572 128.962 435.617 130.007 436.92 130.007V128.833ZM436.333 129.42V181.288H437.506V129.42H436.333ZM425.182 192.438H150.69V193.611H425.182V192.438ZM138.366 204.762V253.108H139.54V204.762H138.366ZM150.69 192.438C143.884 192.438 138.366 197.955 138.366 204.762H139.54C139.54 198.604 144.532 193.611 150.69 193.611V192.438ZM436.333 181.288C436.333 187.446 431.341 192.438 425.182 192.438V193.611C431.989 193.611 437.506 188.094 437.506 181.288H436.333Z" fill="black"/>
<path d="M436.92 125.899C435.942 125.899 435.16 126.682 435.16 127.66C435.16 128.638 435.942 129.42 436.92 129.42C437.898 129.42 438.681 128.638 438.681 127.66C438.681 126.682 437.898 125.899 436.92 125.899Z" fill="white"/>
<path d="M345.168 258.405L348.556 252.537H341.78L345.168 258.405ZM435.747 127.66C435.747 127.006 436.266 126.486 436.92 126.486V125.312C435.618 125.312 434.573 126.358 434.573 127.66H435.747ZM436.92 126.486C437.574 126.486 438.094 127.006 438.094 127.66H439.268C439.268 126.358 438.223 125.312 436.92 125.312V126.486ZM438.094 127.66C438.094 128.314 437.574 128.833 436.92 128.833V130.007C438.223 130.007 439.268 128.962 439.268 127.66H438.094ZM436.92 128.833C436.266 128.833 435.747 128.314 435.747 127.66H434.573C434.573 128.962 435.618 130.007 436.92 130.007V128.833ZM436.334 129.42V181.295H437.507V129.42H436.334ZM425.183 192.446H356.905V193.619H425.183V192.446ZM344.581 204.77V253.123H345.755V204.77H344.581ZM356.905 192.446C350.099 192.446 344.581 197.963 344.581 204.77H345.755C345.755 198.611 350.747 193.619 356.905 193.619V192.446ZM436.334 181.295C436.334 187.453 431.341 192.446 425.183 192.446V193.619C431.99 193.619 437.507 188.102 437.507 181.295H436.334Z" fill="black"/>
<path d="M436.921 125.899C435.943 125.899 435.16 126.682 435.16 127.66C435.16 128.638 435.943 129.42 436.921 129.42C437.899 129.42 438.681 128.638 438.681 127.66C438.681 126.682 437.899 125.899 436.921 125.899Z" fill="white"/>
<path d="M562.856 258.389L566.244 252.521H559.468L562.856 258.389ZM435.747 127.66C435.747 127.006 436.267 126.486 436.921 126.486V125.312C435.619 125.312 434.573 126.358 434.573 127.66H435.747ZM436.921 126.486C437.575 126.486 438.094 127.006 438.094 127.66H439.268C439.268 126.358 438.223 125.312 436.921 125.312V126.486ZM438.094 127.66C438.094 128.314 437.575 128.833 436.921 128.833V130.007C438.223 130.007 439.268 128.962 439.268 127.66H438.094ZM436.921 128.833C436.267 128.833 435.747 128.314 435.747 127.66H434.573C434.573 128.962 435.619 130.007 436.921 130.007V128.833ZM436.334 129.42V181.288H437.508V129.42H436.334ZM448.658 193.611H551.119V192.438H448.658V193.611ZM562.269 204.762V253.108H563.443V204.762H562.269ZM551.119 193.611C557.277 193.611 562.269 198.604 562.269 204.762H563.443C563.443 197.955 557.925 192.438 551.119 192.438V193.611ZM436.334 181.288C436.334 188.094 441.851 193.611 448.658 193.611V192.438C442.5 192.438 437.508 187.446 437.508 181.288H436.334Z" fill="black"/>
</g>
<defs>
<clipPath id="clip0_4684_45093">
<rect width="581" height="648" fill="white"/>
</clipPath>
<clipPath id="clip1_4684_45093">
<rect x="116.434" y="376.66" width="102.325" height="49.4339" rx="3.45692" fill="white"/>
</clipPath>
<clipPath id="clip2_4684_45093">
<rect x="116.434" y="460.664" width="102.325" height="49.4339" rx="3.45692" fill="white"/>
</clipPath>
<clipPath id="clip3_4684_45093">
<rect x="116.434" y="544.667" width="102.325" height="49.4339" rx="3.45692" fill="white"/>
</clipPath>
<clipPath id="clip4_4684_45093">
<rect x="365.711" y="52.9902" width="142.425" height="74.6694" rx="4.80911" fill="white"/>
</clipPath>
<clipPath id="clip5_4684_45093">
<rect x="77.3711" y="258.389" width="123.169" height="59.5038" rx="4.1611" fill="white"/>
</clipPath>
<clipPath id="clip6_4684_45093">
<rect x="283.551" y="258.405" width="123.239" height="59.2723" rx="4.1611" fill="white"/>
</clipPath>
<clipPath id="clip7_4684_45093">
<rect x="501.273" y="258.389" width="123.169" height="59.5038" rx="4.1611" fill="white"/>
</clipPath>
<clipPath id="clip8_4684_45093">
<rect x="501.273" y="258.389" width="123.169" height="59.5038" rx="4.1611" fill="white"/>
</clipPath>
</defs>
</svg>
