<svg width="581" height="648" viewBox="0 0 581 648" fill="none" xmlns="http://www.w3.org/2000/svg">
<rect width="581" height="648" rx="16" fill="#F7FAFD"/>
<rect x="54" y="393.132" width="165.091" height="154.773" fill="url(#paint0_linear_4764_65884)"/>
<path d="M74.6363 367.336H219.091V393.131H54L74.6363 367.336Z" fill="url(#paint1_linear_4764_65884)"/>
<rect x="363.547" y="446.786" width="165.091" height="101.118" fill="url(#paint2_linear_4764_65884)"/>
<path d="M363.547 415.831H508.001L528.638 446.785H363.547V415.831Z" fill="url(#paint3_linear_4764_65884)"/>
<g filter="url(#filter0_d_4764_65884)">
<rect x="211.867" y="325.031" width="159.932" height="225.968" fill="url(#paint4_linear_4764_65884)"/>
</g>
<path d="M232.504 304.395H351.162L371.799 325.031H211.867L232.504 304.395Z" fill="url(#paint5_linear_4764_65884)"/>
<circle cx="291.833" cy="370.947" r="23.2159" stroke="#355F7E" stroke-width="3.09545"/>
<path d="M291.208 381.923V363.631L287.411 364.522V361.287L292.991 358.81H295.599V381.923H291.208Z" fill="#355F7E"/>
<circle cx="132.935" cy="439.048" r="23.2159" stroke="#FBBF2E" stroke-width="3.09545"/>
<path d="M125.498 450.023V446.953C126.907 445.786 128.272 444.63 129.592 443.486C130.935 442.341 132.124 441.208 133.158 440.085C134.215 438.962 135.051 437.873 135.668 436.816C136.306 435.738 136.625 434.692 136.625 433.679C136.625 432.733 136.361 431.896 135.833 431.17C135.327 430.444 134.479 430.08 133.29 430.08C132.08 430.08 131.166 430.477 130.55 431.269C129.934 432.062 129.625 433.019 129.625 434.142H125.531C125.575 432.447 125.949 431.038 126.654 429.915C127.358 428.771 128.294 427.923 129.46 427.373C130.627 426.801 131.937 426.515 133.39 426.515C135.745 426.515 137.572 427.164 138.871 428.463C140.191 429.739 140.852 431.401 140.852 433.448C140.852 434.725 140.554 435.969 139.96 437.179C139.388 438.39 138.628 439.557 137.682 440.679C136.735 441.802 135.712 442.859 134.611 443.849C133.511 444.818 132.443 445.72 131.408 446.557H141.413V450.023H125.498Z" fill="#FBBF2E"/>
<circle cx="449.7" cy="492.702" r="23.2159" stroke="#EE2E2A" stroke-width="3.09545"/>
<path d="M449.983 504.073C448.464 504.073 447.089 503.809 445.856 503.281C444.623 502.731 443.633 501.894 442.884 500.772C442.136 499.649 441.74 498.24 441.696 496.545H445.856C445.878 497.668 446.241 498.614 446.946 499.385C447.672 500.133 448.684 500.508 449.983 500.508C451.216 500.508 452.162 500.166 452.823 499.484C453.483 498.802 453.813 497.943 453.813 496.909C453.813 495.698 453.373 494.784 452.493 494.168C451.634 493.53 450.522 493.21 449.158 493.21H447.441V489.744H449.191C450.313 489.744 451.249 489.479 451.997 488.951C452.746 488.423 453.12 487.641 453.12 486.607C453.12 485.748 452.834 485.066 452.261 484.56C451.711 484.031 450.941 483.767 449.95 483.767C448.872 483.767 448.024 484.086 447.408 484.725C446.813 485.363 446.483 486.145 446.417 487.069H442.29C442.378 484.934 443.115 483.25 444.502 482.017C445.911 480.785 447.727 480.168 449.95 480.168C451.535 480.168 452.867 480.454 453.945 481.027C455.046 481.577 455.871 482.315 456.422 483.239C456.994 484.164 457.28 485.187 457.28 486.31C457.28 487.608 456.917 488.709 456.191 489.612C455.486 490.492 454.606 491.086 453.549 491.394C454.848 491.659 455.904 492.297 456.719 493.31C457.533 494.3 457.941 495.555 457.941 497.074C457.941 498.35 457.632 499.517 457.016 500.574C456.4 501.63 455.497 502.478 454.309 503.116C453.142 503.754 451.7 504.073 449.983 504.073Z" fill="#EE2E2A"/>
<path d="M74.6367 201.264C74.6367 196.469 77.405 192.106 81.7427 190.063L133.849 165.521C137.191 163.947 141.06 163.947 144.401 165.521L196.508 190.062C200.846 192.106 203.614 196.469 203.614 201.264V366.304C203.614 373.142 198.07 378.686 191.232 378.686H87.0185C80.1803 378.686 74.6367 373.142 74.6367 366.304V201.264Z" fill="#FEDD8E"/>
<g filter="url(#filter1_d_4764_65884)">
<circle cx="139.803" cy="260.194" r="34.466" fill="white" stroke="#F8F8F8" stroke-width="3.628"/>
<path d="M126.48 264.618L123.953 262.09C122.922 261.059 122.922 259.363 123.953 258.332L126.48 255.805C126.913 255.372 127.262 254.524 127.262 253.926V250.351C127.262 248.887 128.459 247.69 129.922 247.69H133.498C134.096 247.69 134.944 247.341 135.377 246.909L137.904 244.381C138.935 243.35 140.631 243.35 141.662 244.381L144.19 246.909C144.622 247.341 145.47 247.69 146.069 247.69H149.644C151.107 247.69 152.304 248.887 152.304 250.351V253.926C152.304 254.524 152.653 255.372 153.086 255.805L155.613 258.332C156.644 259.363 156.644 261.059 155.613 262.09L153.086 264.618C152.653 265.05 152.304 265.898 152.304 266.497V270.072C152.304 271.535 151.107 272.733 149.644 272.733H146.069C145.47 272.733 144.622 273.082 144.19 273.514L141.662 276.042C140.631 277.073 138.935 277.073 137.904 276.042L135.377 273.514C134.944 273.082 134.096 272.733 133.498 272.733H129.922C128.459 272.733 127.262 271.535 127.262 270.072V266.497C127.262 265.882 126.913 265.034 126.48 264.618Z" stroke="#0E4165" stroke-width="1.3605" stroke-linecap="round" stroke-linejoin="round"/>
<path d="M134.812 265.182L144.79 255.205" stroke="#EE2E2A" stroke-width="1.3605" stroke-linecap="round" stroke-linejoin="round"/>
<path d="M143.951 264.35H143.966" stroke="#0E4165" stroke-width="1.814" stroke-linecap="round" stroke-linejoin="round"/>
<path d="M135.635 256.036H135.65" stroke="#0E4165" stroke-width="1.814" stroke-linecap="round" stroke-linejoin="round"/>
</g>
<path d="M131.505 330.614V321.95H128.545V320.455H136.338V321.95H133.363V330.614H131.505ZM138.643 330.788C138.024 330.788 137.516 330.691 137.119 330.498C136.723 330.295 136.427 330.028 136.234 329.7C136.04 329.371 135.944 329.008 135.944 328.611C135.944 327.944 136.205 327.402 136.727 326.986C137.25 326.57 138.033 326.362 139.078 326.362H140.907V326.188C140.907 325.694 140.767 325.331 140.486 325.099C140.205 324.867 139.857 324.751 139.441 324.751C139.064 324.751 138.735 324.843 138.454 325.027C138.174 325.201 138 325.462 137.932 325.81H136.118C136.166 325.288 136.34 324.833 136.64 324.446C136.95 324.059 137.347 323.764 137.83 323.561C138.314 323.348 138.856 323.242 139.456 323.242C140.481 323.242 141.289 323.498 141.879 324.011C142.469 324.524 142.764 325.249 142.764 326.188V330.614H141.183L141.008 329.453C140.796 329.84 140.496 330.159 140.109 330.411C139.731 330.662 139.243 330.788 138.643 330.788ZM139.064 329.337C139.596 329.337 140.007 329.163 140.297 328.814C140.597 328.466 140.786 328.035 140.863 327.523H139.281C138.788 327.523 138.435 327.615 138.222 327.798C138.009 327.973 137.903 328.19 137.903 328.451C137.903 328.732 138.009 328.95 138.222 329.105C138.435 329.259 138.716 329.337 139.064 329.337ZM143.579 330.614L146.191 327.015L143.579 323.416H145.567L147.396 325.97L149.21 323.416H151.213L148.586 327.015L151.213 330.614H149.21L147.396 328.06L145.567 330.614H143.579Z" fill="#1B2124"/>
<path d="M233.414 139.693C233.438 135.245 235.846 131.151 239.723 128.968L290.534 100.368C294.256 98.2731 298.796 98.2446 302.545 100.293L354.998 128.955C358.992 131.138 361.466 135.335 361.442 139.886L360.598 300.333C360.562 307.146 355.029 312.65 348.216 312.65H244.951C238.087 312.65 232.533 307.066 232.569 300.203L233.414 139.693Z" fill="#CFD9E0"/>
<g filter="url(#filter2_d_4764_65884)">
<circle cx="297.648" cy="179.685" r="34.4404" fill="white" stroke="#F8F8F8" stroke-width="3.6253"/>
<path d="M282.977 172.107L297.648 180.598L312.221 172.157" stroke="#0E4165" stroke-width="1.35949" stroke-linecap="round" stroke-linejoin="round"/>
<path d="M297.648 195.651V180.581" stroke="#0E4165" stroke-width="1.35949" stroke-linecap="round" stroke-linejoin="round"/>
<path d="M313.619 181.064V174.982C313.619 172.689 311.974 169.898 309.964 168.784L301.091 163.866C299.197 162.803 296.106 162.803 294.212 163.866L285.339 168.784C283.329 169.898 281.684 172.689 281.684 174.982V184.387C281.684 186.68 283.329 189.471 285.339 190.584L294.212 195.503C295.159 196.035 296.405 196.3 297.652 196.3C298.898 196.3 300.144 196.035 301.091 195.503" stroke="#0E4165" stroke-width="1.35949" stroke-linecap="round" stroke-linejoin="round"/>
<path d="M309.61 195.304C312.547 195.304 314.927 192.924 314.927 189.987C314.927 187.05 312.547 184.67 309.61 184.67C306.674 184.67 304.293 187.05 304.293 189.987C304.293 192.924 306.674 195.304 309.61 195.304Z" stroke="#EE2E2A" stroke-width="1.35949" stroke-linecap="round" stroke-linejoin="round"/>
<path d="M315.923 196.301L314.262 194.64" stroke="#EE2E2A" stroke-width="1.35949" stroke-linecap="round" stroke-linejoin="round"/>
</g>
<path d="M282.52 250.064V239.914H285.986C287.175 239.914 288.151 240.126 288.915 240.552C289.688 240.967 290.259 241.557 290.626 242.321C291.003 243.075 291.192 243.964 291.192 244.989C291.192 246.014 291.003 246.908 290.626 247.672C290.259 248.426 289.688 249.016 288.915 249.441C288.151 249.857 287.175 250.064 285.986 250.064H282.52ZM284.376 248.469H285.899C286.75 248.469 287.421 248.334 287.914 248.063C288.407 247.783 288.76 247.387 288.973 246.874C289.186 246.352 289.292 245.724 289.292 244.989C289.292 244.264 289.186 243.64 288.973 243.118C288.76 242.596 288.407 242.195 287.914 241.915C287.421 241.634 286.75 241.494 285.899 241.494H284.376V248.469ZM294.99 250.238C294.371 250.238 293.864 250.142 293.468 249.948C293.071 249.745 292.776 249.48 292.583 249.151C292.39 248.822 292.293 248.46 292.293 248.063C292.293 247.396 292.554 246.855 293.076 246.439C293.598 246.023 294.381 245.816 295.425 245.816H297.252V245.642C297.252 245.149 297.112 244.786 296.832 244.554C296.551 244.322 296.203 244.206 295.788 244.206C295.411 244.206 295.082 244.298 294.802 244.481C294.521 244.656 294.347 244.917 294.28 245.265H292.467C292.515 244.743 292.689 244.288 292.989 243.901C293.298 243.515 293.695 243.22 294.178 243.017C294.661 242.804 295.203 242.698 295.802 242.698C296.827 242.698 297.634 242.954 298.224 243.466C298.814 243.979 299.108 244.704 299.108 245.642V250.064H297.528L297.354 248.904C297.141 249.291 296.841 249.61 296.455 249.861C296.078 250.113 295.59 250.238 294.99 250.238ZM295.411 248.788C295.942 248.788 296.353 248.614 296.643 248.266C296.943 247.918 297.131 247.488 297.209 246.976H295.628C295.135 246.976 294.782 247.068 294.57 247.251C294.357 247.425 294.251 247.643 294.251 247.904C294.251 248.184 294.357 248.402 294.57 248.556C294.782 248.711 295.063 248.788 295.411 248.788ZM303.71 250.064C302.956 250.064 302.352 249.881 301.897 249.513C301.443 249.146 301.216 248.493 301.216 247.556V244.423H299.983V242.872H301.216L301.433 240.943H303.072V242.872H305.015V244.423H303.072V247.57C303.072 247.918 303.144 248.16 303.289 248.295C303.444 248.421 303.705 248.484 304.072 248.484H304.972V250.064H303.71ZM308.813 250.238C308.194 250.238 307.687 250.142 307.29 249.948C306.894 249.745 306.599 249.48 306.406 249.151C306.212 248.822 306.116 248.46 306.116 248.063C306.116 247.396 306.377 246.855 306.899 246.439C307.421 246.023 308.204 245.816 309.248 245.816H311.075V245.642C311.075 245.149 310.935 244.786 310.655 244.554C310.374 244.322 310.026 244.206 309.61 244.206C309.233 244.206 308.905 244.298 308.624 244.481C308.344 244.656 308.17 244.917 308.102 245.265H306.29C306.338 244.743 306.512 244.288 306.812 243.901C307.121 243.515 307.517 243.22 308.001 243.017C308.484 242.804 309.026 242.698 309.625 242.698C310.65 242.698 311.457 242.954 312.047 243.466C312.636 243.979 312.931 244.704 312.931 245.642V250.064H311.351L311.177 248.904C310.964 249.291 310.664 249.61 310.277 249.861C309.9 250.113 309.412 250.238 308.813 250.238ZM309.233 248.788C309.765 248.788 310.176 248.614 310.466 248.266C310.766 247.918 310.954 247.488 311.032 246.976H309.451C308.958 246.976 308.605 247.068 308.392 247.251C308.18 247.425 308.073 247.643 308.073 247.904C308.073 248.184 308.18 248.402 308.392 248.556C308.605 248.711 308.885 248.788 309.233 248.788ZM269.687 272.064L273.4 261.914H275.488L279.2 272.064H277.228L276.416 269.715H272.457L271.631 272.064H269.687ZM272.965 268.265H275.908L274.429 264.045L272.965 268.265ZM280.189 272.064V264.872H281.827L281.972 266.09C282.195 265.665 282.514 265.326 282.93 265.075C283.355 264.824 283.853 264.698 284.423 264.698C285.313 264.698 286.004 264.978 286.497 265.539C286.99 266.1 287.236 266.921 287.236 268.004V272.064H285.38V268.178C285.38 267.559 285.255 267.086 285.003 266.757C284.752 266.428 284.36 266.264 283.829 266.264C283.307 266.264 282.876 266.448 282.538 266.815C282.209 267.182 282.045 267.695 282.045 268.352V272.064H280.189ZM291.216 272.238C290.597 272.238 290.089 272.142 289.693 271.948C289.297 271.745 289.002 271.48 288.808 271.151C288.615 270.822 288.518 270.46 288.518 270.063C288.518 269.396 288.779 268.855 289.301 268.439C289.823 268.023 290.606 267.816 291.651 267.816H293.478V267.642C293.478 267.149 293.338 266.786 293.057 266.554C292.777 266.322 292.429 266.206 292.013 266.206C291.636 266.206 291.307 266.298 291.027 266.481C290.747 266.656 290.573 266.917 290.505 267.265H288.692C288.741 266.743 288.915 266.288 289.214 265.901C289.524 265.515 289.92 265.22 290.403 265.017C290.887 264.804 291.428 264.698 292.028 264.698C293.052 264.698 293.86 264.954 294.449 265.466C295.039 265.979 295.334 266.704 295.334 267.642V272.064H293.753L293.579 270.904C293.367 271.291 293.067 271.61 292.68 271.861C292.303 272.113 291.815 272.238 291.216 272.238ZM291.636 270.788C292.168 270.788 292.579 270.614 292.869 270.266C293.168 269.918 293.357 269.488 293.434 268.976H291.854C291.361 268.976 291.008 269.068 290.795 269.251C290.582 269.425 290.476 269.643 290.476 269.904C290.476 270.184 290.582 270.402 290.795 270.556C291.008 270.711 291.288 270.788 291.636 270.788ZM296.83 272.064V261.624H298.686V272.064H296.83ZM301.206 275.255L302.874 271.586H302.439L299.64 264.872H301.655L303.671 269.933L305.774 264.872H307.746L303.178 275.255H301.206ZM311.303 272.238C310.665 272.238 310.104 272.137 309.621 271.934C309.137 271.721 308.75 271.431 308.46 271.064C308.17 270.697 307.996 270.271 307.938 269.788H309.809C309.867 270.068 310.022 270.31 310.273 270.513C310.534 270.706 310.868 270.803 311.274 270.803C311.68 270.803 311.975 270.721 312.158 270.556C312.352 270.392 312.448 270.203 312.448 269.991C312.448 269.681 312.313 269.474 312.042 269.367C311.772 269.251 311.394 269.14 310.911 269.034C310.602 268.966 310.288 268.884 309.969 268.787C309.65 268.691 309.355 268.57 309.084 268.425C308.823 268.27 308.61 268.077 308.446 267.845C308.282 267.603 308.199 267.308 308.199 266.96C308.199 266.322 308.451 265.785 308.953 265.35C309.466 264.915 310.181 264.698 311.1 264.698C311.95 264.698 312.627 264.896 313.13 265.292C313.642 265.689 313.947 266.235 314.043 266.931H312.289C312.182 266.399 311.781 266.133 311.085 266.133C310.737 266.133 310.466 266.201 310.273 266.336C310.089 266.472 309.998 266.641 309.998 266.844C309.998 267.057 310.138 267.226 310.418 267.352C310.698 267.477 311.071 267.593 311.535 267.7C312.037 267.816 312.497 267.946 312.912 268.091C313.338 268.226 313.676 268.434 313.927 268.715C314.179 268.985 314.304 269.377 314.304 269.889C314.314 270.334 314.198 270.735 313.956 271.093C313.715 271.451 313.367 271.731 312.912 271.934C312.458 272.137 311.921 272.238 311.303 272.238ZM316.674 263.755C316.335 263.755 316.055 263.654 315.833 263.451C315.62 263.248 315.514 262.992 315.514 262.682C315.514 262.373 315.62 262.121 315.833 261.928C316.055 261.725 316.335 261.624 316.674 261.624C317.012 261.624 317.288 261.725 317.5 261.928C317.723 262.121 317.834 262.373 317.834 262.682C317.834 262.992 317.723 263.248 317.5 263.451C317.288 263.654 317.012 263.755 316.674 263.755ZM315.746 272.064V264.872H317.602V272.064H315.746ZM322.236 272.238C321.598 272.238 321.038 272.137 320.554 271.934C320.071 271.721 319.684 271.431 319.394 271.064C319.104 270.697 318.93 270.271 318.872 269.788H320.743C320.801 270.068 320.956 270.31 321.207 270.513C321.468 270.706 321.801 270.803 322.207 270.803C322.613 270.803 322.908 270.721 323.092 270.556C323.285 270.392 323.382 270.203 323.382 269.991C323.382 269.681 323.247 269.474 322.976 269.367C322.705 269.251 322.328 269.14 321.845 269.034C321.536 268.966 321.221 268.884 320.902 268.787C320.583 268.691 320.288 268.57 320.018 268.425C319.757 268.27 319.544 268.077 319.38 267.845C319.215 267.603 319.133 267.308 319.133 266.96C319.133 266.322 319.385 265.785 319.887 265.35C320.4 264.915 321.115 264.698 322.033 264.698C322.884 264.698 323.561 264.896 324.064 265.292C324.576 265.689 324.88 266.235 324.977 266.931H323.223C323.116 266.399 322.715 266.133 322.019 266.133C321.671 266.133 321.4 266.201 321.207 266.336C321.023 266.472 320.931 266.641 320.931 266.844C320.931 267.057 321.072 267.226 321.352 267.352C321.632 267.477 322.004 267.593 322.468 267.7C322.971 267.816 323.43 267.946 323.846 268.091C324.271 268.226 324.61 268.434 324.861 268.715C325.113 268.985 325.238 269.377 325.238 269.889C325.248 270.334 325.132 270.735 324.89 271.093C324.648 271.451 324.3 271.731 323.846 271.934C323.392 272.137 322.855 272.238 322.236 272.238Z" fill="#1B2124"/>
<path d="M381.086 254.919C381.086 250.124 383.854 245.76 388.192 243.717L440.299 219.176C443.64 217.602 447.509 217.602 450.85 219.176L502.957 243.717C507.295 245.76 510.063 250.124 510.063 254.919V419.959C510.063 426.797 504.52 432.341 497.681 432.341H393.468C386.629 432.341 381.086 426.797 381.086 419.959V254.919Z" fill="#F69290"/>
<g filter="url(#filter3_d_4764_65884)">
<circle cx="446.589" cy="313.149" r="34.7822" fill="white" stroke="#F8F8F8" stroke-width="3.66129"/>
<path d="M451.725 325.55C450.684 326.255 449.375 326.842 447.781 327.362L445.13 328.235C438.468 330.383 434.96 328.587 432.796 321.925L430.648 315.297C428.5 308.635 430.279 305.111 436.941 302.963L439.592 302.09C440.28 301.872 440.934 301.687 441.555 301.57C441.052 302.593 440.649 303.835 440.314 305.262L438.669 312.293C437.024 319.307 439.189 322.764 446.187 324.425L449.006 325.097C449.979 325.332 450.885 325.483 451.725 325.55Z" stroke="#EE2E2A" stroke-width="1.37298" stroke-linecap="round" stroke-linejoin="round"/>
<path d="M447.664 307.325L455.803 309.389" stroke="#0E4165" stroke-width="1.37298" stroke-linecap="round" stroke-linejoin="round"/>
<path d="M446.02 313.82L450.886 315.062" stroke="#0E4165" stroke-width="1.37298" stroke-linecap="round" stroke-linejoin="round"/>
<path d="M462.802 310.532L461.157 317.546C459.748 323.604 456.962 326.054 451.727 325.55C450.888 325.483 449.981 325.332 449.008 325.097L446.189 324.426C439.191 322.765 437.027 319.308 438.671 312.294L440.316 305.262C440.651 303.836 441.054 302.594 441.557 301.571C443.521 297.51 446.86 296.419 452.465 297.745L455.267 298.399C462.299 300.043 464.446 303.517 462.802 310.532Z" stroke="#0E4165" stroke-width="1.37298" stroke-linecap="round" stroke-linejoin="round"/>
</g>
<path d="M428.153 384.068L431.902 373.817H434.011L437.76 384.068H435.769L434.949 381.696H430.951L430.116 384.068H428.153ZM431.463 380.231H434.436L432.942 375.97L431.463 380.231ZM441.34 384.244C440.432 384.244 439.729 383.961 439.231 383.395C438.743 382.828 438.499 381.999 438.499 380.905V376.804H440.359V380.729C440.359 381.354 440.486 381.833 440.739 382.164C440.993 382.496 441.394 382.662 441.94 382.662C442.458 382.662 442.882 382.477 443.214 382.106C443.556 381.735 443.727 381.217 443.727 380.554V376.804H445.602V384.068H443.947L443.8 382.838C443.576 383.268 443.249 383.609 442.819 383.863C442.399 384.117 441.906 384.244 441.34 384.244ZM450.587 384.244C449.903 384.244 449.293 384.078 448.756 383.746C448.219 383.414 447.794 382.96 447.482 382.384C447.17 381.808 447.013 381.154 447.013 380.422C447.013 379.689 447.17 379.04 447.482 378.474C447.794 377.898 448.219 377.449 448.756 377.127C449.293 376.795 449.903 376.629 450.587 376.629C451.134 376.629 451.612 376.731 452.022 376.936C452.432 377.141 452.764 377.429 453.018 377.8V373.524H454.892V384.068H453.223L453.018 383.029C452.784 383.351 452.471 383.634 452.081 383.878C451.7 384.122 451.202 384.244 450.587 384.244ZM450.982 382.604C451.588 382.604 452.081 382.404 452.461 382.003C452.852 381.593 453.047 381.071 453.047 380.436C453.047 379.802 452.852 379.284 452.461 378.884C452.081 378.474 451.588 378.269 450.982 378.269C450.387 378.269 449.894 378.469 449.503 378.869C449.113 379.27 448.917 379.787 448.917 380.422C448.917 381.056 449.113 381.579 449.503 381.989C449.894 382.399 450.387 382.604 450.982 382.604ZM457.534 375.677C457.192 375.677 456.909 375.574 456.684 375.369C456.469 375.164 456.362 374.905 456.362 374.593C456.362 374.281 456.469 374.027 456.684 373.831C456.909 373.626 457.192 373.524 457.534 373.524C457.875 373.524 458.154 373.626 458.368 373.831C458.593 374.027 458.705 374.281 458.705 374.593C458.705 374.905 458.593 375.164 458.368 375.369C458.154 375.574 457.875 375.677 457.534 375.677ZM456.596 384.068V376.804H458.471V384.068H456.596ZM463.386 384.068C462.624 384.068 462.014 383.883 461.555 383.512C461.096 383.141 460.867 382.482 460.867 381.535V378.371H459.622V376.804H460.867L461.087 374.857H462.741V376.804H464.704V378.371H462.741V381.549C462.741 381.901 462.815 382.145 462.961 382.282C463.117 382.409 463.381 382.472 463.752 382.472H464.66V384.068H463.386Z" fill="#1B2124"/>
<defs>
<filter id="filter0_d_4764_65884" x="203.613" y="316.777" width="176.443" height="242.477" filterUnits="userSpaceOnUse" color-interpolation-filters="sRGB">
<feFlood flood-opacity="0" result="BackgroundImageFix"/>
<feColorMatrix in="SourceAlpha" type="matrix" values="0 0 0 0 0 0 0 0 0 0 0 0 0 0 0 0 0 0 127 0" result="hardAlpha"/>
<feOffset/>
<feGaussianBlur stdDeviation="4.12727"/>
<feComposite in2="hardAlpha" operator="out"/>
<feColorMatrix type="matrix" values="0 0 0 0 0 0 0 0 0 0 0 0 0 0 0 0 0 0 0.04 0"/>
<feBlend mode="normal" in2="BackgroundImageFix" result="effect1_dropShadow_4764_65884"/>
<feBlend mode="normal" in="SourceGraphic" in2="effect1_dropShadow_4764_65884" result="shape"/>
</filter>
<filter id="filter1_d_4764_65884" x="67.2434" y="187.634" width="145.119" height="145.12" filterUnits="userSpaceOnUse" color-interpolation-filters="sRGB">
<feFlood flood-opacity="0" result="BackgroundImageFix"/>
<feColorMatrix in="SourceAlpha" type="matrix" values="0 0 0 0 0 0 0 0 0 0 0 0 0 0 0 0 0 0 127 0" result="hardAlpha"/>
<feOffset/>
<feGaussianBlur stdDeviation="18.14"/>
<feComposite in2="hardAlpha" operator="out"/>
<feColorMatrix type="matrix" values="0 0 0 0 0 0 0 0 0 0 0 0 0 0 0 0 0 0 0.08 0"/>
<feBlend mode="normal" in2="BackgroundImageFix" result="effect1_dropShadow_4764_65884"/>
<feBlend mode="normal" in="SourceGraphic" in2="effect1_dropShadow_4764_65884" result="shape"/>
</filter>
<filter id="filter2_d_4764_65884" x="225.142" y="107.179" width="145.014" height="145.012" filterUnits="userSpaceOnUse" color-interpolation-filters="sRGB">
<feFlood flood-opacity="0" result="BackgroundImageFix"/>
<feColorMatrix in="SourceAlpha" type="matrix" values="0 0 0 0 0 0 0 0 0 0 0 0 0 0 0 0 0 0 127 0" result="hardAlpha"/>
<feOffset/>
<feGaussianBlur stdDeviation="18.1265"/>
<feComposite in2="hardAlpha" operator="out"/>
<feColorMatrix type="matrix" values="0 0 0 0 0 0 0 0 0 0 0 0 0 0 0 0 0 0 0.08 0"/>
<feBlend mode="normal" in2="BackgroundImageFix" result="effect1_dropShadow_4764_65884"/>
<feBlend mode="normal" in="SourceGraphic" in2="effect1_dropShadow_4764_65884" result="shape"/>
</filter>
<filter id="filter3_d_4764_65884" x="373.364" y="239.923" width="146.452" height="146.451" filterUnits="userSpaceOnUse" color-interpolation-filters="sRGB">
<feFlood flood-opacity="0" result="BackgroundImageFix"/>
<feColorMatrix in="SourceAlpha" type="matrix" values="0 0 0 0 0 0 0 0 0 0 0 0 0 0 0 0 0 0 127 0" result="hardAlpha"/>
<feOffset/>
<feGaussianBlur stdDeviation="18.3064"/>
<feComposite in2="hardAlpha" operator="out"/>
<feColorMatrix type="matrix" values="0 0 0 0 0 0 0 0 0 0 0 0 0 0 0 0 0 0 0.08 0"/>
<feBlend mode="normal" in2="BackgroundImageFix" result="effect1_dropShadow_4764_65884"/>
<feBlend mode="normal" in="SourceGraphic" in2="effect1_dropShadow_4764_65884" result="shape"/>
</filter>
<linearGradient id="paint0_linear_4764_65884" x1="136.545" y1="393.132" x2="136.545" y2="547.904" gradientUnits="userSpaceOnUse">
<stop stop-color="#E7E9ED"/>
<stop offset="1" stop-color="#ECF0F3"/>
</linearGradient>
<linearGradient id="paint1_linear_4764_65884" x1="136.545" y1="367.336" x2="136.545" y2="393.131" gradientUnits="userSpaceOnUse">
<stop stop-color="#E8EAEE"/>
<stop offset="1" stop-color="#ECF0F3"/>
</linearGradient>
<linearGradient id="paint2_linear_4764_65884" x1="446.092" y1="446.786" x2="446.092" y2="547.904" gradientUnits="userSpaceOnUse">
<stop stop-color="#E7E9ED"/>
<stop offset="0.952544" stop-color="#ECF0F3"/>
</linearGradient>
<linearGradient id="paint3_linear_4764_65884" x1="446.092" y1="415.831" x2="446.092" y2="446.785" gradientUnits="userSpaceOnUse">
<stop stop-color="#E8EAEE"/>
<stop offset="1" stop-color="#ECF0F3"/>
</linearGradient>
<linearGradient id="paint4_linear_4764_65884" x1="291.833" y1="325.031" x2="291.833" y2="550.999" gradientUnits="userSpaceOnUse">
<stop stop-color="#E7E9ED"/>
<stop offset="1" stop-color="#ECF0F3"/>
</linearGradient>
<linearGradient id="paint5_linear_4764_65884" x1="291.833" y1="304.395" x2="291.833" y2="325.031" gradientUnits="userSpaceOnUse">
<stop stop-color="#E7E9ED"/>
<stop offset="1" stop-color="#ECF0F3"/>
</linearGradient>
</defs>
</svg>
