<svg width="581" height="648" viewBox="0 0 581 648" fill="none" xmlns="http://www.w3.org/2000/svg">
<rect width="581" height="648" rx="16" fill="#FFEEEA"/>
<g filter="url(#filter0_d_4763_31110)">
<path d="M85.8003 46.5984C86.4003 45.799 87.5997 45.799 88.1997 46.5984L96.4567 57.5996C97.1988 58.5884 96.4933 60 95.257 60H78.743C77.5067 60 76.8012 58.5884 77.5433 57.5996L85.8003 46.5984Z" fill="white"/>
<rect x="54" y="58" width="302" height="102" rx="8" fill="white"/>
<path d="M81.9631 105H78.5881L84.733 87.5455H88.6364L94.7898 105H91.4148L86.7528 91.125H86.6165L81.9631 105ZM82.0739 98.1562H91.2784V100.696H82.0739V98.1562ZM100.158 87.5455V105H97.0724V87.5455H100.158ZM106.535 87.5455V105H103.45V87.5455H106.535ZM122.924 87.5455H126.06V99.8182C126.055 100.943 125.816 101.912 125.344 102.724C124.873 103.531 124.214 104.153 123.367 104.591C122.526 105.023 121.546 105.239 120.427 105.239C119.404 105.239 118.484 105.057 117.665 104.693C116.853 104.324 116.208 103.778 115.731 103.057C115.253 102.335 115.015 101.437 115.015 100.364H118.16C118.165 100.835 118.268 101.241 118.467 101.582C118.671 101.923 118.952 102.185 119.31 102.366C119.668 102.548 120.08 102.639 120.546 102.639C121.052 102.639 121.481 102.534 121.833 102.324C122.185 102.108 122.452 101.79 122.634 101.369C122.822 100.949 122.918 100.432 122.924 99.8182V87.5455ZM135.185 105.256C133.906 105.256 132.798 104.974 131.861 104.412C130.923 103.849 130.196 103.062 129.679 102.051C129.167 101.04 128.912 99.858 128.912 98.5057C128.912 97.1534 129.167 95.9687 129.679 94.9517C130.196 93.9347 130.923 93.1449 131.861 92.5824C132.798 92.0199 133.906 91.7386 135.185 91.7386C136.463 91.7386 137.571 92.0199 138.508 92.5824C139.446 93.1449 140.17 93.9347 140.682 94.9517C141.199 95.9687 141.457 97.1534 141.457 98.5057C141.457 99.858 141.199 101.04 140.682 102.051C140.17 103.062 139.446 103.849 138.508 104.412C137.571 104.974 136.463 105.256 135.185 105.256ZM135.202 102.784C135.895 102.784 136.474 102.594 136.94 102.213C137.406 101.827 137.753 101.31 137.98 100.662C138.213 100.014 138.329 99.2926 138.329 98.4972C138.329 97.696 138.213 96.9716 137.98 96.3239C137.753 95.6705 137.406 95.1506 136.94 94.7642C136.474 94.3778 135.895 94.1847 135.202 94.1847C134.491 94.1847 133.9 94.3778 133.429 94.7642C132.963 95.1506 132.613 95.6705 132.381 96.3239C132.153 96.9716 132.04 97.696 132.04 98.4972C132.04 99.2926 132.153 100.014 132.381 100.662C132.613 101.31 132.963 101.827 133.429 102.213C133.9 102.594 134.491 102.784 135.202 102.784ZM144.332 105V87.5455H147.417V94.0739H147.545C147.704 93.7557 147.929 93.4176 148.219 93.0597C148.508 92.696 148.9 92.3864 149.395 92.1307C149.889 91.8693 150.52 91.7386 151.287 91.7386C152.298 91.7386 153.21 91.9972 154.023 92.5142C154.841 93.0256 155.488 93.7841 155.966 94.7898C156.449 95.7898 156.69 97.017 156.69 98.4716C156.69 99.9091 156.454 101.131 155.983 102.136C155.511 103.142 154.869 103.909 154.057 104.438C153.244 104.966 152.324 105.23 151.295 105.23C150.545 105.23 149.923 105.105 149.429 104.855C148.934 104.605 148.537 104.304 148.236 103.952C147.94 103.594 147.71 103.256 147.545 102.938H147.366V105H144.332ZM147.358 98.4545C147.358 99.3011 147.477 100.043 147.716 100.679C147.96 101.315 148.309 101.812 148.764 102.17C149.224 102.523 149.781 102.699 150.434 102.699C151.116 102.699 151.687 102.517 152.148 102.153C152.608 101.784 152.954 101.281 153.187 100.645C153.426 100.003 153.545 99.2727 153.545 98.4545C153.545 97.642 153.429 96.9205 153.196 96.2898C152.963 95.6591 152.616 95.1648 152.156 94.8068C151.696 94.4489 151.122 94.2699 150.434 94.2699C149.775 94.2699 149.216 94.4432 148.756 94.7898C148.295 95.1364 147.946 95.6222 147.707 96.2472C147.474 96.8722 147.358 97.608 147.358 98.4545ZM169.78 95.3693L166.967 95.6761C166.888 95.392 166.748 95.125 166.55 94.875C166.356 94.625 166.095 94.4233 165.765 94.2699C165.436 94.1165 165.032 94.0398 164.555 94.0398C163.913 94.0398 163.373 94.179 162.936 94.4574C162.504 94.7358 162.291 95.0966 162.297 95.5398C162.291 95.9205 162.43 96.2301 162.714 96.4688C163.004 96.7074 163.481 96.9034 164.146 97.0568L166.379 97.5341C167.618 97.8011 168.538 98.2244 169.14 98.804C169.748 99.3835 170.055 100.142 170.061 101.08C170.055 101.903 169.814 102.631 169.336 103.261C168.865 103.886 168.209 104.375 167.368 104.727C166.527 105.08 165.561 105.256 164.47 105.256C162.868 105.256 161.578 104.92 160.601 104.25C159.623 103.574 159.041 102.634 158.853 101.429L161.862 101.139C161.998 101.73 162.288 102.176 162.731 102.477C163.175 102.778 163.751 102.929 164.461 102.929C165.194 102.929 165.782 102.778 166.226 102.477C166.675 102.176 166.899 101.804 166.899 101.361C166.899 100.986 166.754 100.676 166.464 100.432C166.18 100.187 165.737 100 165.135 99.8693L162.902 99.4006C161.646 99.1392 160.717 98.6989 160.115 98.0795C159.513 97.4545 159.214 96.6648 159.22 95.7102C159.214 94.9034 159.433 94.2045 159.876 93.6136C160.325 93.017 160.947 92.5568 161.743 92.233C162.544 91.9034 163.467 91.7386 164.513 91.7386C166.047 91.7386 167.254 92.0653 168.135 92.7188C169.021 93.3722 169.569 94.2557 169.78 95.3693Z" fill="#101010"/>
<path d="M87.9631 127.909C87.9631 128.996 87.7642 129.931 87.3665 130.713C86.9688 131.492 86.4235 132.092 85.7308 132.513C85.0414 132.93 84.2576 133.139 83.3793 133.139C82.4976 133.139 81.7105 132.93 81.0178 132.513C80.3284 132.092 79.7848 131.49 79.3871 130.708C78.9893 129.926 78.7905 128.993 78.7905 127.909C78.7905 126.822 78.9893 125.889 79.3871 125.11C79.7848 124.328 80.3284 123.728 81.0178 123.31C81.7105 122.889 82.4976 122.679 83.3793 122.679C84.2576 122.679 85.0414 122.889 85.7308 123.31C86.4235 123.728 86.9688 124.328 87.3665 125.11C87.7642 125.889 87.9631 126.822 87.9631 127.909ZM86.4418 127.909C86.4418 127.08 86.3075 126.383 86.0391 125.816C85.7739 125.246 85.4093 124.815 84.9453 124.523C84.4846 124.228 83.9626 124.081 83.3793 124.081C82.7926 124.081 82.2689 124.228 81.8082 124.523C81.3475 124.815 80.983 125.246 80.7145 125.816C80.4493 126.383 80.3168 127.08 80.3168 127.909C80.3168 128.738 80.4493 129.437 80.7145 130.007C80.983 130.574 81.3475 131.005 81.8082 131.3C82.2689 131.591 82.7926 131.737 83.3793 131.737C83.9626 131.737 84.4846 131.591 84.9453 131.3C85.4093 131.005 85.7739 130.574 86.0391 130.007C86.3075 129.437 86.4418 128.738 86.4418 127.909ZM91.3156 128.466V133H89.8291V125.364H91.2559V126.607H91.3504C91.526 126.202 91.8011 125.877 92.1756 125.632C92.5535 125.387 93.0291 125.264 93.6025 125.264C94.1229 125.264 94.5786 125.374 94.9697 125.592C95.3608 125.808 95.664 126.129 95.8795 126.557C96.0949 126.984 96.2026 127.513 96.2026 128.143V133H94.7161V128.322C94.7161 127.768 94.572 127.336 94.2836 127.024C93.9952 126.709 93.5992 126.552 93.0954 126.552C92.7507 126.552 92.4441 126.626 92.1756 126.776C91.9105 126.925 91.7 127.143 91.5443 127.432C91.3918 127.717 91.3156 128.062 91.3156 128.466ZM101.557 133.154C100.805 133.154 100.157 132.993 99.6135 132.672C99.0733 132.347 98.6557 131.891 98.3607 131.305C98.069 130.715 97.9232 130.024 97.9232 129.232C97.9232 128.449 98.069 127.76 98.3607 127.163C98.6557 126.567 99.0667 126.101 99.5937 125.766C100.124 125.432 100.744 125.264 101.453 125.264C101.884 125.264 102.302 125.335 102.706 125.478C103.11 125.621 103.473 125.844 103.795 126.149C104.116 126.454 104.37 126.85 104.555 127.337C104.741 127.821 104.834 128.41 104.834 129.102V129.629H98.7634V128.516H103.377C103.377 128.125 103.297 127.778 103.138 127.477C102.979 127.172 102.756 126.931 102.467 126.756C102.182 126.58 101.847 126.492 101.463 126.492C101.045 126.492 100.681 126.595 100.369 126.8C100.061 127.003 99.8224 127.268 99.6533 127.596C99.4876 127.921 99.4047 128.274 99.4047 128.655V129.525C99.4047 130.035 99.4942 130.469 99.6732 130.827C99.8555 131.185 100.109 131.459 100.434 131.648C100.759 131.833 101.138 131.926 101.572 131.926C101.854 131.926 102.111 131.886 102.343 131.807C102.575 131.724 102.775 131.601 102.945 131.439C103.114 131.277 103.243 131.076 103.332 130.837L104.739 131.091C104.627 131.505 104.424 131.868 104.133 132.18C103.844 132.488 103.481 132.728 103.044 132.901C102.61 133.07 102.114 133.154 101.557 133.154ZM111.815 122.818V133H110.328V122.818H111.815ZM113.884 133V125.364H115.371V133H113.884ZM114.635 124.185C114.377 124.185 114.155 124.099 113.969 123.927C113.787 123.751 113.696 123.542 113.696 123.3C113.696 123.055 113.787 122.846 113.969 122.674C114.155 122.498 114.377 122.411 114.635 122.411C114.894 122.411 115.114 122.498 115.296 122.674C115.482 122.846 115.575 123.055 115.575 123.3C115.575 123.542 115.482 123.751 115.296 123.927C115.114 124.099 114.894 124.185 114.635 124.185ZM118.927 128.466V133H117.441V125.364H118.868V126.607H118.962C119.138 126.202 119.413 125.877 119.787 125.632C120.165 125.387 120.641 125.264 121.214 125.264C121.735 125.264 122.19 125.374 122.581 125.592C122.972 125.808 123.276 126.129 123.491 126.557C123.707 126.984 123.814 127.513 123.814 128.143V133H122.328V128.322C122.328 127.768 122.184 127.336 121.895 127.024C121.607 126.709 121.211 126.552 120.707 126.552C120.362 126.552 120.056 126.626 119.787 126.776C119.522 126.925 119.312 127.143 119.156 127.432C119.004 127.717 118.927 128.062 118.927 128.466ZM129.169 133.154C128.417 133.154 127.769 132.993 127.225 132.672C126.685 132.347 126.267 131.891 125.972 131.305C125.681 130.715 125.535 130.024 125.535 129.232C125.535 128.449 125.681 127.76 125.972 127.163C126.267 126.567 126.678 126.101 127.205 125.766C127.736 125.432 128.355 125.264 129.065 125.264C129.496 125.264 129.913 125.335 130.318 125.478C130.722 125.621 131.085 125.844 131.406 126.149C131.728 126.454 131.981 126.85 132.167 127.337C132.353 127.821 132.445 128.41 132.445 129.102V129.629H126.375V128.516H130.989C130.989 128.125 130.909 127.778 130.75 127.477C130.591 127.172 130.367 126.931 130.079 126.756C129.794 126.58 129.459 126.492 129.075 126.492C128.657 126.492 128.292 126.595 127.981 126.8C127.673 127.003 127.434 127.268 127.265 127.596C127.099 127.921 127.016 128.274 127.016 128.655V129.525C127.016 130.035 127.106 130.469 127.285 130.827C127.467 131.185 127.721 131.459 128.046 131.648C128.37 131.833 128.75 131.926 129.184 131.926C129.466 131.926 129.723 131.886 129.955 131.807C130.187 131.724 130.387 131.601 130.556 131.439C130.725 131.277 130.855 131.076 130.944 130.837L132.351 131.091C132.238 131.505 132.036 131.868 131.744 132.18C131.456 132.488 131.093 132.728 130.656 132.901C130.221 133.07 129.726 133.154 129.169 133.154ZM140.799 133.149C140.182 133.149 139.632 132.992 139.148 132.677C138.667 132.359 138.29 131.906 138.014 131.32C137.743 130.73 137.607 130.022 137.607 129.197C137.607 128.371 137.744 127.665 138.019 127.079C138.298 126.492 138.679 126.043 139.163 125.732C139.647 125.42 140.195 125.264 140.808 125.264C141.282 125.264 141.664 125.344 141.952 125.503C142.244 125.659 142.469 125.841 142.628 126.05C142.79 126.259 142.916 126.442 143.006 126.602H143.095V122.818H144.582V133H143.13V131.812H143.006C142.916 131.974 142.787 132.16 142.618 132.369C142.452 132.577 142.224 132.76 141.932 132.915C141.64 133.071 141.263 133.149 140.799 133.149ZM141.127 131.881C141.554 131.881 141.915 131.769 142.21 131.543C142.509 131.315 142.734 130.998 142.887 130.594C143.042 130.189 143.12 129.719 143.12 129.182C143.12 128.652 143.044 128.187 142.892 127.79C142.739 127.392 142.515 127.082 142.22 126.86C141.925 126.638 141.561 126.527 141.127 126.527C140.679 126.527 140.306 126.643 140.008 126.875C139.71 127.107 139.484 127.424 139.332 127.825C139.183 128.226 139.108 128.678 139.108 129.182C139.108 129.692 139.184 130.151 139.337 130.559C139.489 130.967 139.715 131.29 140.013 131.528C140.315 131.764 140.686 131.881 141.127 131.881ZM150.065 133.154C149.312 133.154 148.664 132.993 148.121 132.672C147.581 132.347 147.163 131.891 146.868 131.305C146.576 130.715 146.43 130.024 146.43 129.232C146.43 128.449 146.576 127.76 146.868 127.163C147.163 126.567 147.574 126.101 148.101 125.766C148.631 125.432 149.251 125.264 149.96 125.264C150.391 125.264 150.809 125.335 151.213 125.478C151.617 125.621 151.98 125.844 152.302 126.149C152.623 126.454 152.877 126.85 153.063 127.337C153.248 127.821 153.341 128.41 153.341 129.102V129.629H147.271V128.516H151.884C151.884 128.125 151.805 127.778 151.646 127.477C151.487 127.172 151.263 126.931 150.974 126.756C150.689 126.58 150.355 126.492 149.97 126.492C149.553 126.492 149.188 126.595 148.876 126.8C148.568 127.003 148.33 127.268 148.161 127.596C147.995 127.921 147.912 128.274 147.912 128.655V129.525C147.912 130.035 148.001 130.469 148.18 130.827C148.363 131.185 148.616 131.459 148.941 131.648C149.266 131.833 149.645 131.926 150.08 131.926C150.361 131.926 150.618 131.886 150.85 131.807C151.082 131.724 151.283 131.601 151.452 131.439C151.621 131.277 151.75 131.076 151.84 130.837L153.247 131.091C153.134 131.505 152.932 131.868 152.64 132.18C152.352 132.488 151.989 132.728 151.551 132.901C151.117 133.07 150.622 133.154 150.065 133.154ZM160.783 127.228L159.435 127.467C159.379 127.294 159.289 127.13 159.167 126.974C159.048 126.819 158.885 126.691 158.68 126.592C158.474 126.492 158.217 126.442 157.909 126.442C157.488 126.442 157.137 126.537 156.855 126.726C156.573 126.911 156.432 127.152 156.432 127.447C156.432 127.702 156.527 127.907 156.716 128.063C156.905 128.219 157.21 128.347 157.631 128.446L158.844 128.724C159.546 128.887 160.07 129.137 160.415 129.475C160.759 129.813 160.932 130.252 160.932 130.793C160.932 131.25 160.799 131.658 160.534 132.016C160.272 132.37 159.906 132.649 159.435 132.851C158.968 133.053 158.426 133.154 157.81 133.154C156.954 133.154 156.257 132.972 155.717 132.607C155.176 132.239 154.845 131.717 154.722 131.041L156.159 130.822C156.249 131.197 156.432 131.48 156.711 131.673C156.989 131.862 157.352 131.956 157.8 131.956C158.287 131.956 158.676 131.855 158.968 131.653C159.26 131.447 159.405 131.197 159.405 130.902C159.405 130.663 159.316 130.463 159.137 130.3C158.961 130.138 158.691 130.015 158.327 129.933L157.034 129.649C156.321 129.487 155.794 129.228 155.453 128.874C155.115 128.519 154.946 128.07 154.946 127.526C154.946 127.076 155.072 126.681 155.324 126.343C155.576 126.005 155.924 125.741 156.368 125.553C156.812 125.36 157.321 125.264 157.894 125.264C158.719 125.264 159.369 125.443 159.843 125.801C160.317 126.156 160.63 126.631 160.783 127.228ZM165.853 133.154C165.114 133.154 164.477 132.987 163.944 132.652C163.413 132.314 163.006 131.848 162.721 131.255C162.436 130.662 162.293 129.982 162.293 129.217C162.293 128.441 162.439 127.757 162.731 127.163C163.022 126.567 163.433 126.101 163.964 125.766C164.494 125.432 165.119 125.264 165.838 125.264C166.418 125.264 166.935 125.372 167.389 125.587C167.843 125.799 168.209 126.098 168.488 126.482C168.769 126.867 168.937 127.316 168.99 127.83H167.543C167.464 127.472 167.281 127.163 166.996 126.905C166.715 126.646 166.337 126.517 165.863 126.517C165.448 126.517 165.085 126.626 164.774 126.845C164.466 127.061 164.225 127.369 164.053 127.77C163.881 128.168 163.795 128.638 163.795 129.182C163.795 129.739 163.879 130.219 164.048 130.624C164.217 131.028 164.456 131.341 164.764 131.563C165.076 131.785 165.442 131.896 165.863 131.896C166.144 131.896 166.4 131.845 166.628 131.742C166.86 131.636 167.054 131.485 167.21 131.29C167.369 131.094 167.48 130.859 167.543 130.584H168.99C168.937 131.078 168.776 131.518 168.508 131.906C168.239 132.294 167.88 132.599 167.429 132.821C166.981 133.043 166.456 133.154 165.853 133.154ZM170.65 133V125.364H172.086V126.577H172.166C172.305 126.166 172.55 125.843 172.902 125.607C173.256 125.369 173.657 125.249 174.105 125.249C174.198 125.249 174.307 125.253 174.433 125.259C174.562 125.266 174.663 125.274 174.736 125.284V126.706C174.677 126.689 174.57 126.671 174.418 126.651C174.266 126.628 174.113 126.616 173.961 126.616C173.609 126.616 173.296 126.691 173.021 126.84C172.749 126.986 172.534 127.19 172.375 127.452C172.216 127.71 172.136 128.005 172.136 128.337V133H170.65ZM176.093 133V125.364H177.579V133H176.093ZM176.843 124.185C176.585 124.185 176.363 124.099 176.177 123.927C175.995 123.751 175.904 123.542 175.904 123.3C175.904 123.055 175.995 122.846 176.177 122.674C176.363 122.498 176.585 122.411 176.843 122.411C177.102 122.411 177.322 122.498 177.505 122.674C177.69 122.846 177.783 123.055 177.783 123.3C177.783 123.542 177.69 123.751 177.505 123.927C177.322 124.099 177.102 124.185 176.843 124.185ZM179.649 135.864V125.364H181.101V126.602H181.225C181.311 126.442 181.435 126.259 181.598 126.05C181.76 125.841 181.986 125.659 182.274 125.503C182.562 125.344 182.943 125.264 183.417 125.264C184.034 125.264 184.584 125.42 185.068 125.732C185.552 126.043 185.931 126.492 186.206 127.079C186.485 127.665 186.624 128.371 186.624 129.197C186.624 130.022 186.486 130.73 186.211 131.32C185.936 131.906 185.558 132.359 185.078 132.677C184.597 132.992 184.049 133.149 183.432 133.149C182.968 133.149 182.589 133.071 182.294 132.915C182.002 132.76 181.773 132.577 181.608 132.369C181.442 132.16 181.314 131.974 181.225 131.812H181.135V135.864H179.649ZM181.106 129.182C181.106 129.719 181.183 130.189 181.339 130.594C181.495 130.998 181.72 131.315 182.015 131.543C182.31 131.769 182.672 131.881 183.099 131.881C183.543 131.881 183.915 131.764 184.213 131.528C184.511 131.29 184.736 130.967 184.889 130.559C185.045 130.151 185.123 129.692 185.123 129.182C185.123 128.678 185.046 128.226 184.894 127.825C184.745 127.424 184.519 127.107 184.218 126.875C183.919 126.643 183.547 126.527 183.099 126.527C182.668 126.527 182.304 126.638 182.005 126.86C181.71 127.082 181.487 127.392 181.334 127.79C181.182 128.187 181.106 128.652 181.106 129.182ZM191.924 125.364V126.557H187.753V125.364H191.924ZM188.872 123.534H190.358V130.758C190.358 131.046 190.401 131.263 190.487 131.409C190.574 131.552 190.685 131.649 190.82 131.702C190.96 131.752 191.11 131.777 191.273 131.777C191.392 131.777 191.497 131.769 191.586 131.752C191.676 131.736 191.745 131.722 191.795 131.712L192.063 132.94C191.977 132.973 191.855 133.007 191.695 133.04C191.536 133.076 191.338 133.096 191.099 133.099C190.708 133.106 190.343 133.036 190.005 132.891C189.667 132.745 189.394 132.519 189.185 132.214C188.976 131.91 188.872 131.527 188.872 131.066V123.534ZM193.639 133V125.364H195.125V133H193.639ZM194.389 124.185C194.131 124.185 193.909 124.099 193.723 123.927C193.541 123.751 193.45 123.542 193.45 123.3C193.45 123.055 193.541 122.846 193.723 122.674C193.909 122.498 194.131 122.411 194.389 122.411C194.648 122.411 194.868 122.498 195.05 122.674C195.236 122.846 195.329 123.055 195.329 123.3C195.329 123.542 195.236 123.751 195.05 123.927C194.868 124.099 194.648 124.185 194.389 124.185ZM200.411 133.154C199.696 133.154 199.071 132.99 198.537 132.662C198.004 132.334 197.589 131.875 197.294 131.285C196.999 130.695 196.852 130.005 196.852 129.217C196.852 128.424 196.999 127.732 197.294 127.138C197.589 126.545 198.004 126.085 198.537 125.756C199.071 125.428 199.696 125.264 200.411 125.264C201.127 125.264 201.752 125.428 202.286 125.756C202.819 126.085 203.234 126.545 203.529 127.138C203.824 127.732 203.971 128.424 203.971 129.217C203.971 130.005 203.824 130.695 203.529 131.285C203.234 131.875 202.819 132.334 202.286 132.662C201.752 132.99 201.127 133.154 200.411 133.154ZM200.416 131.906C200.88 131.906 201.265 131.784 201.57 131.538C201.875 131.293 202.1 130.967 202.246 130.559C202.395 130.151 202.47 129.702 202.47 129.212C202.47 128.724 202.395 128.277 202.246 127.869C202.1 127.458 201.875 127.129 201.57 126.88C201.265 126.631 200.88 126.507 200.416 126.507C199.949 126.507 199.561 126.631 199.253 126.88C198.948 127.129 198.721 127.458 198.572 127.869C198.426 128.277 198.353 128.724 198.353 129.212C198.353 129.702 198.426 130.151 198.572 130.559C198.721 130.967 198.948 131.293 199.253 131.538C199.561 131.784 199.949 131.906 200.416 131.906ZM207.187 128.466V133H205.7V125.364H207.127V126.607H207.222C207.397 126.202 207.672 125.877 208.047 125.632C208.425 125.387 208.9 125.264 209.474 125.264C209.994 125.264 210.45 125.374 210.841 125.592C211.232 125.808 211.535 126.129 211.751 126.557C211.966 126.984 212.074 127.513 212.074 128.143V133H210.587V128.322C210.587 127.768 210.443 127.336 210.155 127.024C209.867 126.709 209.471 126.552 208.967 126.552C208.622 126.552 208.315 126.626 208.047 126.776C207.782 126.925 207.571 127.143 207.416 127.432C207.263 127.717 207.187 128.062 207.187 128.466Z" fill="#545454"/>
<path d="M339 75L329 85" stroke="#34393E" stroke-width="1.5" stroke-linecap="round" stroke-linejoin="round"/>
<path d="M329 75L339 85" stroke="#34393E" stroke-width="1.5" stroke-linecap="round" stroke-linejoin="round"/>
</g>
<g filter="url(#filter1_d_4763_31110)">
<path d="M263.8 193.598C264.4 192.799 265.6 192.799 266.2 193.598L274.457 204.6C275.199 205.588 274.493 207 273.257 207H256.743C255.507 207 254.801 205.588 255.543 204.6L263.8 193.598Z" fill="white"/>
<rect x="232" y="205" width="302" height="140" rx="8" fill="white"/>
<path d="M261.604 233.672C261.564 233.3 261.396 233.01 261.101 232.803C260.808 232.595 260.428 232.491 259.959 232.491C259.629 232.491 259.347 232.541 259.111 232.641C258.875 232.74 258.695 232.875 258.57 233.045C258.445 233.216 258.381 233.411 258.378 233.629C258.378 233.811 258.419 233.969 258.501 234.102C258.587 234.236 258.702 234.349 258.847 234.443C258.991 234.534 259.152 234.611 259.328 234.673C259.504 234.736 259.682 234.788 259.861 234.831L260.679 235.036C261.009 235.112 261.325 235.216 261.629 235.347C261.936 235.477 262.21 235.642 262.452 235.841C262.696 236.04 262.889 236.28 263.031 236.561C263.173 236.842 263.244 237.172 263.244 237.55C263.244 238.061 263.114 238.511 262.852 238.901C262.591 239.287 262.213 239.589 261.719 239.808C261.227 240.024 260.632 240.132 259.933 240.132C259.254 240.132 258.665 240.027 258.165 239.817C257.668 239.607 257.278 239.3 256.997 238.896C256.719 238.493 256.568 238.001 256.545 237.422H258.101C258.124 237.726 258.217 237.979 258.382 238.18C258.547 238.382 258.761 238.533 259.026 238.632C259.293 238.732 259.591 238.781 259.92 238.781C260.264 238.781 260.565 238.73 260.824 238.628C261.085 238.523 261.29 238.378 261.438 238.193C261.585 238.006 261.661 237.787 261.663 237.537C261.661 237.31 261.594 237.122 261.463 236.974C261.332 236.824 261.149 236.699 260.913 236.599C260.68 236.497 260.408 236.406 260.095 236.327L259.102 236.071C258.384 235.886 257.815 235.607 257.398 235.232C256.983 234.854 256.776 234.352 256.776 233.727C256.776 233.213 256.915 232.763 257.193 232.376C257.474 231.99 257.857 231.69 258.339 231.477C258.822 231.261 259.369 231.153 259.98 231.153C260.599 231.153 261.142 231.261 261.608 231.477C262.077 231.69 262.445 231.987 262.712 232.368C262.979 232.746 263.116 233.18 263.125 233.672H261.604ZM267.914 233.455V234.648H264.151V233.455H267.914ZM265.08 231.886H266.623V238.031C266.623 238.239 266.654 238.398 266.717 238.509C266.782 238.616 266.867 238.69 266.972 238.73C267.077 238.77 267.194 238.79 267.322 238.79C267.418 238.79 267.506 238.783 267.586 238.768C267.668 238.754 267.731 238.741 267.773 238.73L268.033 239.936C267.951 239.964 267.833 239.996 267.68 240.03C267.529 240.064 267.344 240.084 267.126 240.089C266.739 240.101 266.391 240.043 266.082 239.915C265.772 239.784 265.526 239.582 265.344 239.31C265.165 239.037 265.077 238.696 265.08 238.287V231.886ZM272.092 240.128C271.435 240.128 270.869 239.991 270.391 239.719C269.917 239.443 269.552 239.054 269.296 238.551C269.04 238.045 268.913 237.45 268.913 236.766C268.913 236.092 269.04 235.501 269.296 234.993C269.555 234.482 269.915 234.084 270.379 233.8C270.842 233.513 271.386 233.369 272.011 233.369C272.414 233.369 272.795 233.435 273.153 233.565C273.513 233.693 273.832 233.892 274.107 234.162C274.386 234.432 274.604 234.776 274.763 235.193C274.923 235.608 275.002 236.102 275.002 236.676V237.149H269.637V236.109H273.523C273.521 235.814 273.457 235.551 273.332 235.321C273.207 235.088 273.032 234.905 272.807 234.771C272.586 234.638 272.327 234.571 272.032 234.571C271.717 234.571 271.44 234.648 271.201 234.801C270.962 234.952 270.776 235.151 270.643 235.398C270.512 235.642 270.445 235.911 270.442 236.203V237.111C270.442 237.491 270.512 237.818 270.651 238.091C270.79 238.361 270.985 238.568 271.235 238.713C271.485 238.855 271.778 238.926 272.113 238.926C272.337 238.926 272.54 238.895 272.722 238.832C272.904 238.767 273.062 238.672 273.195 238.547C273.329 238.422 273.43 238.267 273.498 238.082L274.938 238.244C274.847 238.625 274.674 238.957 274.418 239.241C274.165 239.523 273.842 239.741 273.447 239.898C273.052 240.051 272.6 240.128 272.092 240.128ZM276.367 242.455V233.455H277.884V234.537H277.974C278.053 234.378 278.165 234.209 278.31 234.03C278.455 233.848 278.651 233.693 278.898 233.565C279.146 233.435 279.461 233.369 279.844 233.369C280.35 233.369 280.806 233.499 281.212 233.757C281.621 234.013 281.945 234.392 282.184 234.895C282.425 235.395 282.546 236.009 282.546 236.736C282.546 237.455 282.428 238.065 282.192 238.568C281.957 239.071 281.636 239.455 281.229 239.719C280.823 239.983 280.363 240.115 279.849 240.115C279.474 240.115 279.163 240.053 278.915 239.928C278.668 239.803 278.469 239.652 278.319 239.476C278.171 239.297 278.056 239.128 277.974 238.969H277.91V242.455H276.367ZM277.88 236.727C277.88 237.151 277.94 237.521 278.059 237.839C278.181 238.158 278.356 238.406 278.583 238.585C278.813 238.761 279.092 238.849 279.418 238.849C279.759 238.849 280.045 238.759 280.275 238.577C280.505 238.392 280.678 238.141 280.795 237.822C280.914 237.501 280.974 237.136 280.974 236.727C280.974 236.321 280.915 235.96 280.799 235.645C280.682 235.33 280.509 235.082 280.279 234.903C280.049 234.724 279.762 234.635 279.418 234.635C279.089 234.635 278.809 234.722 278.579 234.895C278.349 235.068 278.174 235.311 278.055 235.624C277.938 235.936 277.88 236.304 277.88 236.727ZM290.496 231.273V240H288.915V232.811H288.864L286.823 234.115V232.666L288.992 231.273H290.496ZM298.681 240.128C298.042 240.128 297.488 239.987 297.019 239.706C296.55 239.425 296.187 239.031 295.928 238.526C295.672 238.02 295.545 237.429 295.545 236.753C295.545 236.077 295.672 235.484 295.928 234.976C296.187 234.467 296.55 234.072 297.019 233.791C297.488 233.51 298.042 233.369 298.681 233.369C299.32 233.369 299.874 233.51 300.343 233.791C300.812 234.072 301.174 234.467 301.43 234.976C301.688 235.484 301.817 236.077 301.817 236.753C301.817 237.429 301.688 238.02 301.43 238.526C301.174 239.031 300.812 239.425 300.343 239.706C299.874 239.987 299.32 240.128 298.681 240.128ZM298.69 238.892C299.036 238.892 299.326 238.797 299.559 238.607C299.792 238.413 299.965 238.155 300.079 237.831C300.195 237.507 300.253 237.146 300.253 236.749C300.253 236.348 300.195 235.986 300.079 235.662C299.965 235.335 299.792 235.075 299.559 234.882C299.326 234.689 299.036 234.592 298.69 234.592C298.334 234.592 298.039 234.689 297.803 234.882C297.57 235.075 297.395 235.335 297.279 235.662C297.165 235.986 297.109 236.348 297.109 236.749C297.109 237.146 297.165 237.507 297.279 237.831C297.395 238.155 297.57 238.413 297.803 238.607C298.039 238.797 298.334 238.892 298.69 238.892ZM306.502 233.455V234.648H302.633V233.455H306.502ZM303.6 240V232.837C303.6 232.396 303.691 232.03 303.873 231.737C304.057 231.445 304.305 231.226 304.614 231.081C304.924 230.936 305.268 230.864 305.645 230.864C305.913 230.864 306.15 230.885 306.357 230.928C306.565 230.97 306.718 231.009 306.817 231.043L306.511 232.236C306.445 232.216 306.363 232.196 306.263 232.176C306.164 232.153 306.053 232.142 305.931 232.142C305.644 232.142 305.441 232.212 305.322 232.351C305.205 232.487 305.147 232.683 305.147 232.939V240H303.6ZM313.824 240.119C313.256 240.119 312.747 240.013 312.298 239.8C311.849 239.584 311.493 239.288 311.229 238.913C310.967 238.538 310.828 238.109 310.811 237.626H312.345C312.373 237.984 312.528 238.277 312.81 238.504C313.091 238.729 313.429 238.841 313.824 238.841C314.133 238.841 314.409 238.77 314.65 238.628C314.892 238.486 315.082 238.288 315.221 238.036C315.361 237.783 315.429 237.494 315.426 237.17C315.429 236.841 315.359 236.548 315.217 236.293C315.075 236.037 314.881 235.837 314.633 235.692C314.386 235.544 314.102 235.47 313.781 235.47C313.52 235.467 313.263 235.516 313.01 235.615C312.757 235.714 312.557 235.845 312.409 236.007L310.981 235.773L311.437 231.273H316.5V232.594H312.746L312.494 234.908H312.545C312.707 234.717 312.936 234.56 313.231 234.435C313.527 234.307 313.851 234.243 314.203 234.243C314.731 234.243 315.203 234.368 315.618 234.618C316.033 234.865 316.359 235.206 316.598 235.641C316.837 236.075 316.956 236.572 316.956 237.132C316.956 237.709 316.822 238.223 316.555 238.675C316.291 239.124 315.923 239.477 315.452 239.736C314.983 239.991 314.44 240.119 313.824 240.119Z" fill="#0085FE"/>
<path d="M259.963 290H256.588L262.733 272.545H266.636L272.79 290H269.415L264.753 276.125H264.616L259.963 290ZM260.074 283.156H269.278V285.696H260.074V283.156ZM278.158 272.545V290H275.072V272.545H278.158ZM284.535 272.545V290H281.45V272.545H284.535ZM300.924 272.545H304.06V284.818C304.055 285.943 303.816 286.912 303.344 287.724C302.873 288.531 302.214 289.153 301.367 289.591C300.526 290.023 299.546 290.239 298.427 290.239C297.404 290.239 296.484 290.057 295.665 289.693C294.853 289.324 294.208 288.778 293.731 288.057C293.253 287.335 293.015 286.437 293.015 285.364H296.16C296.165 285.835 296.268 286.241 296.467 286.582C296.671 286.923 296.952 287.185 297.31 287.366C297.668 287.548 298.08 287.639 298.546 287.639C299.052 287.639 299.481 287.534 299.833 287.324C300.185 287.108 300.452 286.79 300.634 286.369C300.822 285.949 300.918 285.432 300.924 284.818V272.545ZM313.185 290.256C311.906 290.256 310.798 289.974 309.861 289.412C308.923 288.849 308.196 288.062 307.679 287.051C307.167 286.04 306.912 284.858 306.912 283.506C306.912 282.153 307.167 280.969 307.679 279.952C308.196 278.935 308.923 278.145 309.861 277.582C310.798 277.02 311.906 276.739 313.185 276.739C314.463 276.739 315.571 277.02 316.508 277.582C317.446 278.145 318.17 278.935 318.682 279.952C319.199 280.969 319.457 282.153 319.457 283.506C319.457 284.858 319.199 286.04 318.682 287.051C318.17 288.062 317.446 288.849 316.508 289.412C315.571 289.974 314.463 290.256 313.185 290.256ZM313.202 287.784C313.895 287.784 314.474 287.594 314.94 287.213C315.406 286.827 315.753 286.31 315.98 285.662C316.213 285.014 316.329 284.293 316.329 283.497C316.329 282.696 316.213 281.972 315.98 281.324C315.753 280.67 315.406 280.151 314.94 279.764C314.474 279.378 313.895 279.185 313.202 279.185C312.491 279.185 311.9 279.378 311.429 279.764C310.963 280.151 310.613 280.67 310.381 281.324C310.153 281.972 310.04 282.696 310.04 283.497C310.04 284.293 310.153 285.014 310.381 285.662C310.613 286.31 310.963 286.827 311.429 287.213C311.9 287.594 312.491 287.784 313.202 287.784ZM322.332 290V272.545H325.417V279.074H325.545C325.704 278.756 325.929 278.418 326.219 278.06C326.508 277.696 326.9 277.386 327.395 277.131C327.889 276.869 328.52 276.739 329.287 276.739C330.298 276.739 331.21 276.997 332.023 277.514C332.841 278.026 333.488 278.784 333.966 279.79C334.449 280.79 334.69 282.017 334.69 283.472C334.69 284.909 334.454 286.131 333.983 287.136C333.511 288.142 332.869 288.909 332.057 289.438C331.244 289.966 330.324 290.23 329.295 290.23C328.545 290.23 327.923 290.105 327.429 289.855C326.934 289.605 326.537 289.304 326.236 288.952C325.94 288.594 325.71 288.256 325.545 287.938H325.366V290H322.332ZM325.358 283.455C325.358 284.301 325.477 285.043 325.716 285.679C325.96 286.315 326.309 286.812 326.764 287.17C327.224 287.523 327.781 287.699 328.434 287.699C329.116 287.699 329.687 287.517 330.148 287.153C330.608 286.784 330.954 286.281 331.187 285.645C331.426 285.003 331.545 284.273 331.545 283.455C331.545 282.642 331.429 281.92 331.196 281.29C330.963 280.659 330.616 280.165 330.156 279.807C329.696 279.449 329.122 279.27 328.434 279.27C327.775 279.27 327.216 279.443 326.756 279.79C326.295 280.136 325.946 280.622 325.707 281.247C325.474 281.872 325.358 282.608 325.358 283.455ZM347.78 280.369L344.967 280.676C344.888 280.392 344.748 280.125 344.55 279.875C344.356 279.625 344.095 279.423 343.765 279.27C343.436 279.116 343.032 279.04 342.555 279.04C341.913 279.04 341.373 279.179 340.936 279.457C340.504 279.736 340.291 280.097 340.297 280.54C340.291 280.92 340.43 281.23 340.714 281.469C341.004 281.707 341.481 281.903 342.146 282.057L344.379 282.534C345.618 282.801 346.538 283.224 347.14 283.804C347.748 284.384 348.055 285.142 348.061 286.08C348.055 286.903 347.814 287.631 347.336 288.261C346.865 288.886 346.209 289.375 345.368 289.727C344.527 290.08 343.561 290.256 342.47 290.256C340.868 290.256 339.578 289.92 338.601 289.25C337.623 288.574 337.041 287.634 336.853 286.429L339.862 286.139C339.998 286.73 340.288 287.176 340.731 287.477C341.175 287.778 341.751 287.929 342.461 287.929C343.194 287.929 343.782 287.778 344.226 287.477C344.675 287.176 344.899 286.804 344.899 286.361C344.899 285.986 344.754 285.676 344.464 285.432C344.18 285.187 343.737 285 343.135 284.869L340.902 284.401C339.646 284.139 338.717 283.699 338.115 283.08C337.513 282.455 337.214 281.665 337.22 280.71C337.214 279.903 337.433 279.205 337.876 278.614C338.325 278.017 338.947 277.557 339.743 277.233C340.544 276.903 341.467 276.739 342.513 276.739C344.047 276.739 345.254 277.065 346.135 277.719C347.021 278.372 347.569 279.256 347.78 280.369Z" fill="#101010"/>
<path d="M265.963 312.909C265.963 313.996 265.764 314.931 265.366 315.713C264.969 316.492 264.424 317.092 263.731 317.513C263.041 317.93 262.258 318.139 261.379 318.139C260.498 318.139 259.71 317.93 259.018 317.513C258.328 317.092 257.785 316.49 257.387 315.708C256.989 314.926 256.79 313.993 256.79 312.909C256.79 311.822 256.989 310.889 257.387 310.11C257.785 309.328 258.328 308.728 259.018 308.31C259.71 307.889 260.498 307.679 261.379 307.679C262.258 307.679 263.041 307.889 263.731 308.31C264.424 308.728 264.969 309.328 265.366 310.11C265.764 310.889 265.963 311.822 265.963 312.909ZM264.442 312.909C264.442 312.08 264.308 311.383 264.039 310.816C263.774 310.246 263.409 309.815 262.945 309.523C262.485 309.228 261.963 309.081 261.379 309.081C260.793 309.081 260.269 309.228 259.808 309.523C259.348 309.815 258.983 310.246 258.714 310.816C258.449 311.383 258.317 312.08 258.317 312.909C258.317 313.738 258.449 314.437 258.714 315.007C258.983 315.574 259.348 316.005 259.808 316.3C260.269 316.591 260.793 316.737 261.379 316.737C261.963 316.737 262.485 316.591 262.945 316.3C263.409 316.005 263.774 315.574 264.039 315.007C264.308 314.437 264.442 313.738 264.442 312.909ZM269.316 313.466V318H267.829V310.364H269.256V311.607H269.35C269.526 311.202 269.801 310.877 270.176 310.632C270.553 310.387 271.029 310.264 271.602 310.264C272.123 310.264 272.579 310.374 272.97 310.592C273.361 310.808 273.664 311.129 273.879 311.557C274.095 311.984 274.203 312.513 274.203 313.143V318H272.716V313.322C272.716 312.768 272.572 312.336 272.284 312.024C271.995 311.709 271.599 311.552 271.095 311.552C270.751 311.552 270.444 311.626 270.176 311.776C269.91 311.925 269.7 312.143 269.544 312.432C269.392 312.717 269.316 313.062 269.316 313.466ZM279.557 318.154C278.805 318.154 278.157 317.993 277.614 317.672C277.073 317.347 276.656 316.891 276.361 316.305C276.069 315.715 275.923 315.024 275.923 314.232C275.923 313.449 276.069 312.76 276.361 312.163C276.656 311.567 277.067 311.101 277.594 310.766C278.124 310.432 278.744 310.264 279.453 310.264C279.884 310.264 280.302 310.335 280.706 310.478C281.11 310.621 281.473 310.844 281.795 311.149C282.116 311.454 282.37 311.85 282.555 312.337C282.741 312.821 282.834 313.41 282.834 314.102V314.629H276.763V313.516H281.377C281.377 313.125 281.297 312.778 281.138 312.477C280.979 312.172 280.756 311.931 280.467 311.756C280.182 311.58 279.847 311.492 279.463 311.492C279.045 311.492 278.681 311.595 278.369 311.8C278.061 312.003 277.822 312.268 277.653 312.596C277.488 312.921 277.405 313.274 277.405 313.655V314.525C277.405 315.035 277.494 315.469 277.673 315.827C277.855 316.185 278.109 316.459 278.434 316.648C278.759 316.833 279.138 316.926 279.572 316.926C279.854 316.926 280.111 316.886 280.343 316.807C280.575 316.724 280.775 316.601 280.945 316.439C281.114 316.277 281.243 316.076 281.332 315.837L282.739 316.091C282.627 316.505 282.424 316.868 282.133 317.18C281.844 317.488 281.481 317.728 281.044 317.901C280.61 318.07 280.114 318.154 279.557 318.154ZM289.815 307.818V318H288.328V307.818H289.815ZM291.884 318V310.364H293.371V318H291.884ZM292.635 309.185C292.377 309.185 292.155 309.099 291.969 308.927C291.787 308.751 291.696 308.542 291.696 308.3C291.696 308.055 291.787 307.846 291.969 307.674C292.155 307.498 292.377 307.411 292.635 307.411C292.894 307.411 293.114 307.498 293.296 307.674C293.482 307.846 293.575 308.055 293.575 308.3C293.575 308.542 293.482 308.751 293.296 308.927C293.114 309.099 292.894 309.185 292.635 309.185ZM296.927 313.466V318H295.441V310.364H296.868V311.607H296.962C297.138 311.202 297.413 310.877 297.787 310.632C298.165 310.387 298.641 310.264 299.214 310.264C299.735 310.264 300.19 310.374 300.581 310.592C300.972 310.808 301.276 311.129 301.491 311.557C301.707 311.984 301.814 312.513 301.814 313.143V318H300.328V313.322C300.328 312.768 300.184 312.336 299.895 312.024C299.607 311.709 299.211 311.552 298.707 311.552C298.362 311.552 298.056 311.626 297.787 311.776C297.522 311.925 297.312 312.143 297.156 312.432C297.004 312.717 296.927 313.062 296.927 313.466ZM307.169 318.154C306.417 318.154 305.769 317.993 305.225 317.672C304.685 317.347 304.267 316.891 303.972 316.305C303.681 315.715 303.535 315.024 303.535 314.232C303.535 313.449 303.681 312.76 303.972 312.163C304.267 311.567 304.678 311.101 305.205 310.766C305.736 310.432 306.355 310.264 307.065 310.264C307.496 310.264 307.913 310.335 308.318 310.478C308.722 310.621 309.085 310.844 309.406 311.149C309.728 311.454 309.981 311.85 310.167 312.337C310.353 312.821 310.445 313.41 310.445 314.102V314.629H304.375V313.516H308.989C308.989 313.125 308.909 312.778 308.75 312.477C308.591 312.172 308.367 311.931 308.079 311.756C307.794 311.58 307.459 311.492 307.075 311.492C306.657 311.492 306.292 311.595 305.981 311.8C305.673 312.003 305.434 312.268 305.265 312.596C305.099 312.921 305.016 313.274 305.016 313.655V314.525C305.016 315.035 305.106 315.469 305.285 315.827C305.467 316.185 305.721 316.459 306.046 316.648C306.37 316.833 306.75 316.926 307.184 316.926C307.466 316.926 307.723 316.886 307.955 316.807C308.187 316.724 308.387 316.601 308.556 316.439C308.725 316.277 308.855 316.076 308.944 315.837L310.351 316.091C310.238 316.505 310.036 316.868 309.744 317.18C309.456 317.488 309.093 317.728 308.656 317.901C308.221 318.07 307.726 318.154 307.169 318.154ZM318.799 318.149C318.182 318.149 317.632 317.992 317.148 317.677C316.667 317.359 316.29 316.906 316.014 316.32C315.743 315.73 315.607 315.022 315.607 314.197C315.607 313.371 315.744 312.665 316.019 312.079C316.298 311.492 316.679 311.043 317.163 310.732C317.647 310.42 318.195 310.264 318.808 310.264C319.282 310.264 319.664 310.344 319.952 310.503C320.244 310.659 320.469 310.841 320.628 311.05C320.79 311.259 320.916 311.442 321.006 311.602H321.095V307.818H322.582V318H321.13V316.812H321.006C320.916 316.974 320.787 317.16 320.618 317.369C320.452 317.577 320.224 317.76 319.932 317.915C319.64 318.071 319.263 318.149 318.799 318.149ZM319.127 316.881C319.554 316.881 319.915 316.769 320.21 316.543C320.509 316.315 320.734 315.998 320.887 315.594C321.042 315.189 321.12 314.719 321.12 314.182C321.12 313.652 321.044 313.187 320.892 312.79C320.739 312.392 320.515 312.082 320.22 311.86C319.925 311.638 319.561 311.527 319.127 311.527C318.679 311.527 318.306 311.643 318.008 311.875C317.71 312.107 317.484 312.424 317.332 312.825C317.183 313.226 317.108 313.678 317.108 314.182C317.108 314.692 317.184 315.151 317.337 315.559C317.489 315.967 317.715 316.29 318.013 316.528C318.315 316.764 318.686 316.881 319.127 316.881ZM328.065 318.154C327.312 318.154 326.664 317.993 326.121 317.672C325.581 317.347 325.163 316.891 324.868 316.305C324.576 315.715 324.43 315.024 324.43 314.232C324.43 313.449 324.576 312.76 324.868 312.163C325.163 311.567 325.574 311.101 326.101 310.766C326.631 310.432 327.251 310.264 327.96 310.264C328.391 310.264 328.809 310.335 329.213 310.478C329.617 310.621 329.98 310.844 330.302 311.149C330.623 311.454 330.877 311.85 331.063 312.337C331.248 312.821 331.341 313.41 331.341 314.102V314.629H325.271V313.516H329.884C329.884 313.125 329.805 312.778 329.646 312.477C329.487 312.172 329.263 311.931 328.974 311.756C328.689 311.58 328.355 311.492 327.97 311.492C327.553 311.492 327.188 311.595 326.876 311.8C326.568 312.003 326.33 312.268 326.161 312.596C325.995 312.921 325.912 313.274 325.912 313.655V314.525C325.912 315.035 326.001 315.469 326.18 315.827C326.363 316.185 326.616 316.459 326.941 316.648C327.266 316.833 327.645 316.926 328.08 316.926C328.361 316.926 328.618 316.886 328.85 316.807C329.082 316.724 329.283 316.601 329.452 316.439C329.621 316.277 329.75 316.076 329.84 315.837L331.247 316.091C331.134 316.505 330.932 316.868 330.64 317.18C330.352 317.488 329.989 317.728 329.551 317.901C329.117 318.07 328.622 318.154 328.065 318.154ZM338.783 312.228L337.435 312.467C337.379 312.294 337.289 312.13 337.167 311.974C337.048 311.819 336.885 311.691 336.68 311.592C336.474 311.492 336.217 311.442 335.909 311.442C335.488 311.442 335.137 311.537 334.855 311.726C334.573 311.911 334.432 312.152 334.432 312.447C334.432 312.702 334.527 312.907 334.716 313.063C334.905 313.219 335.21 313.347 335.631 313.446L336.844 313.724C337.546 313.887 338.07 314.137 338.415 314.475C338.759 314.813 338.932 315.252 338.932 315.793C338.932 316.25 338.799 316.658 338.534 317.016C338.272 317.37 337.906 317.649 337.435 317.851C336.968 318.053 336.426 318.154 335.81 318.154C334.954 318.154 334.257 317.972 333.717 317.607C333.176 317.239 332.845 316.717 332.722 316.041L334.159 315.822C334.249 316.197 334.432 316.48 334.711 316.673C334.989 316.862 335.352 316.956 335.8 316.956C336.287 316.956 336.676 316.855 336.968 316.653C337.26 316.447 337.405 316.197 337.405 315.902C337.405 315.663 337.316 315.463 337.137 315.3C336.961 315.138 336.691 315.015 336.327 314.933L335.034 314.649C334.321 314.487 333.794 314.228 333.453 313.874C333.115 313.519 332.946 313.07 332.946 312.526C332.946 312.076 333.072 311.681 333.324 311.343C333.576 311.005 333.924 310.741 334.368 310.553C334.812 310.36 335.321 310.264 335.894 310.264C336.719 310.264 337.369 310.443 337.843 310.801C338.317 311.156 338.63 311.631 338.783 312.228ZM343.853 318.154C343.114 318.154 342.477 317.987 341.944 317.652C341.413 317.314 341.006 316.848 340.721 316.255C340.436 315.662 340.293 314.982 340.293 314.217C340.293 313.441 340.439 312.757 340.731 312.163C341.022 311.567 341.433 311.101 341.964 310.766C342.494 310.432 343.119 310.264 343.838 310.264C344.418 310.264 344.935 310.372 345.389 310.587C345.843 310.799 346.209 311.098 346.488 311.482C346.769 311.867 346.937 312.316 346.99 312.83H345.543C345.464 312.472 345.281 312.163 344.996 311.905C344.715 311.646 344.337 311.517 343.863 311.517C343.448 311.517 343.085 311.626 342.774 311.845C342.466 312.061 342.225 312.369 342.053 312.77C341.881 313.168 341.795 313.638 341.795 314.182C341.795 314.739 341.879 315.219 342.048 315.624C342.217 316.028 342.456 316.341 342.764 316.563C343.076 316.785 343.442 316.896 343.863 316.896C344.144 316.896 344.4 316.845 344.628 316.742C344.86 316.636 345.054 316.485 345.21 316.29C345.369 316.094 345.48 315.859 345.543 315.584H346.99C346.937 316.078 346.776 316.518 346.508 316.906C346.239 317.294 345.88 317.599 345.429 317.821C344.981 318.043 344.456 318.154 343.853 318.154ZM348.65 318V310.364H350.086V311.577H350.166C350.305 311.166 350.55 310.843 350.902 310.607C351.256 310.369 351.657 310.249 352.105 310.249C352.198 310.249 352.307 310.253 352.433 310.259C352.562 310.266 352.663 310.274 352.736 310.284V311.706C352.677 311.689 352.57 311.671 352.418 311.651C352.266 311.628 352.113 311.616 351.961 311.616C351.609 311.616 351.296 311.691 351.021 311.84C350.749 311.986 350.534 312.19 350.375 312.452C350.216 312.71 350.136 313.005 350.136 313.337V318H348.65ZM354.093 318V310.364H355.579V318H354.093ZM354.843 309.185C354.585 309.185 354.363 309.099 354.177 308.927C353.995 308.751 353.904 308.542 353.904 308.3C353.904 308.055 353.995 307.846 354.177 307.674C354.363 307.498 354.585 307.411 354.843 307.411C355.102 307.411 355.322 307.498 355.505 307.674C355.69 307.846 355.783 308.055 355.783 308.3C355.783 308.542 355.69 308.751 355.505 308.927C355.322 309.099 355.102 309.185 354.843 309.185ZM357.649 320.864V310.364H359.101V311.602H359.225C359.311 311.442 359.435 311.259 359.598 311.05C359.76 310.841 359.986 310.659 360.274 310.503C360.562 310.344 360.943 310.264 361.417 310.264C362.034 310.264 362.584 310.42 363.068 310.732C363.552 311.043 363.931 311.492 364.206 312.079C364.485 312.665 364.624 313.371 364.624 314.197C364.624 315.022 364.486 315.73 364.211 316.32C363.936 316.906 363.558 317.359 363.078 317.677C362.597 317.992 362.049 318.149 361.432 318.149C360.968 318.149 360.589 318.071 360.294 317.915C360.002 317.76 359.773 317.577 359.608 317.369C359.442 317.16 359.314 316.974 359.225 316.812H359.135V320.864H357.649ZM359.106 314.182C359.106 314.719 359.183 315.189 359.339 315.594C359.495 315.998 359.72 316.315 360.015 316.543C360.31 316.769 360.672 316.881 361.099 316.881C361.543 316.881 361.915 316.764 362.213 316.528C362.511 316.29 362.736 315.967 362.889 315.559C363.045 315.151 363.123 314.692 363.123 314.182C363.123 313.678 363.046 313.226 362.894 312.825C362.745 312.424 362.519 312.107 362.218 311.875C361.919 311.643 361.547 311.527 361.099 311.527C360.668 311.527 360.304 311.638 360.005 311.86C359.71 312.082 359.487 312.392 359.334 312.79C359.182 313.187 359.106 313.652 359.106 314.182ZM369.924 310.364V311.557H365.753V310.364H369.924ZM366.872 308.534H368.358V315.758C368.358 316.046 368.401 316.263 368.487 316.409C368.574 316.552 368.685 316.649 368.82 316.702C368.96 316.752 369.11 316.777 369.273 316.777C369.392 316.777 369.497 316.769 369.586 316.752C369.676 316.736 369.745 316.722 369.795 316.712L370.063 317.94C369.977 317.973 369.855 318.007 369.695 318.04C369.536 318.076 369.338 318.096 369.099 318.099C368.708 318.106 368.343 318.036 368.005 317.891C367.667 317.745 367.394 317.519 367.185 317.214C366.976 316.91 366.872 316.527 366.872 316.066V308.534ZM371.639 318V310.364H373.125V318H371.639ZM372.389 309.185C372.131 309.185 371.909 309.099 371.723 308.927C371.541 308.751 371.45 308.542 371.45 308.3C371.45 308.055 371.541 307.846 371.723 307.674C371.909 307.498 372.131 307.411 372.389 307.411C372.648 307.411 372.868 307.498 373.05 307.674C373.236 307.846 373.329 308.055 373.329 308.3C373.329 308.542 373.236 308.751 373.05 308.927C372.868 309.099 372.648 309.185 372.389 309.185ZM378.411 318.154C377.696 318.154 377.071 317.99 376.537 317.662C376.004 317.334 375.589 316.875 375.294 316.285C374.999 315.695 374.852 315.005 374.852 314.217C374.852 313.424 374.999 312.732 375.294 312.138C375.589 311.545 376.004 311.085 376.537 310.756C377.071 310.428 377.696 310.264 378.411 310.264C379.127 310.264 379.752 310.428 380.286 310.756C380.819 311.085 381.234 311.545 381.529 312.138C381.824 312.732 381.971 313.424 381.971 314.217C381.971 315.005 381.824 315.695 381.529 316.285C381.234 316.875 380.819 317.334 380.286 317.662C379.752 317.99 379.127 318.154 378.411 318.154ZM378.416 316.906C378.88 316.906 379.265 316.784 379.57 316.538C379.875 316.293 380.1 315.967 380.246 315.559C380.395 315.151 380.47 314.702 380.47 314.212C380.47 313.724 380.395 313.277 380.246 312.869C380.1 312.458 379.875 312.129 379.57 311.88C379.265 311.631 378.88 311.507 378.416 311.507C377.949 311.507 377.561 311.631 377.253 311.88C376.948 312.129 376.721 312.458 376.572 312.869C376.426 313.277 376.353 313.724 376.353 314.212C376.353 314.702 376.426 315.151 376.572 315.559C376.721 315.967 376.948 316.293 377.253 316.538C377.561 316.784 377.949 316.906 378.416 316.906ZM385.187 313.466V318H383.7V310.364H385.127V311.607H385.222C385.397 311.202 385.672 310.877 386.047 310.632C386.425 310.387 386.9 310.264 387.474 310.264C387.994 310.264 388.45 310.374 388.841 310.592C389.232 310.808 389.535 311.129 389.751 311.557C389.966 311.984 390.074 312.513 390.074 313.143V318H388.587V313.322C388.587 312.768 388.443 312.336 388.155 312.024C387.867 311.709 387.471 311.552 386.967 311.552C386.622 311.552 386.315 311.626 386.047 311.776C385.782 311.925 385.571 312.143 385.416 312.432C385.263 312.717 385.187 313.062 385.187 313.466Z" fill="#545454"/>
<path d="M517 222L507 232" stroke="#34393E" stroke-width="1.5" stroke-linecap="round" stroke-linejoin="round"/>
<path d="M507 222L517 232" stroke="#34393E" stroke-width="1.5" stroke-linecap="round" stroke-linejoin="round"/>
</g>
<g filter="url(#filter2_d_4763_31110)">
<path d="M85.8003 369.598C86.4003 368.799 87.5997 368.799 88.1997 369.598L96.4567 380.6C97.1988 381.588 96.4933 383 95.257 383H78.743C77.5067 383 76.8012 381.588 77.5433 380.6L85.8003 369.598Z" fill="white"/>
<rect x="54" y="381.5" width="302" height="222" rx="8" fill="white"/>
<path d="M83.6037 410.172C83.5639 409.8 83.3963 409.51 83.1009 409.303C82.8082 409.095 82.4276 408.991 81.9588 408.991C81.6293 408.991 81.3466 409.041 81.1108 409.141C80.875 409.24 80.6946 409.375 80.5696 409.545C80.4446 409.716 80.3807 409.911 80.3778 410.129C80.3778 410.311 80.419 410.469 80.5014 410.602C80.5866 410.736 80.7017 410.849 80.8466 410.943C80.9915 411.034 81.152 411.111 81.3281 411.173C81.5043 411.236 81.6818 411.288 81.8608 411.331L82.679 411.536C83.0085 411.612 83.3253 411.716 83.6293 411.847C83.9361 411.977 84.2102 412.142 84.4517 412.341C84.696 412.54 84.8892 412.78 85.0312 413.061C85.1733 413.342 85.2443 413.672 85.2443 414.05C85.2443 414.561 85.1136 415.011 84.8523 415.401C84.5909 415.787 84.2131 416.089 83.7188 416.308C83.2273 416.524 82.6321 416.632 81.9332 416.632C81.2543 416.632 80.6648 416.527 80.1648 416.317C79.6676 416.107 79.2784 415.8 78.9972 415.396C78.7188 414.993 78.5682 414.501 78.5455 413.922H80.1009C80.1236 414.226 80.2173 414.479 80.3821 414.68C80.5469 414.882 80.7614 415.033 81.0256 415.132C81.2926 415.232 81.5909 415.281 81.9205 415.281C82.2642 415.281 82.5653 415.23 82.8239 415.128C83.0852 415.023 83.2898 414.878 83.4375 414.693C83.5852 414.506 83.6605 414.287 83.6634 414.037C83.6605 413.81 83.5938 413.622 83.4631 413.474C83.3324 413.324 83.1491 413.199 82.9134 413.099C82.6804 412.997 82.4077 412.906 82.0952 412.827L81.1023 412.571C80.3835 412.386 79.8153 412.107 79.3977 411.732C78.983 411.354 78.7756 410.852 78.7756 410.227C78.7756 409.713 78.9148 409.263 79.1932 408.876C79.4744 408.49 79.8565 408.19 80.3395 407.977C80.8224 407.761 81.3693 407.653 81.9801 407.653C82.5994 407.653 83.142 407.761 83.608 407.977C84.0767 408.19 84.4446 408.487 84.7116 408.868C84.9787 409.246 85.1165 409.68 85.125 410.172H83.6037ZM89.914 409.955V411.148H86.1513V409.955H89.914ZM87.0802 408.386H88.6229V414.531C88.6229 414.739 88.6541 414.898 88.7166 415.009C88.7819 415.116 88.8672 415.19 88.9723 415.23C89.0774 415.27 89.1939 415.29 89.3217 415.29C89.4183 415.29 89.5064 415.283 89.5859 415.268C89.6683 415.254 89.7308 415.241 89.7734 415.23L90.0334 416.436C89.951 416.464 89.8331 416.496 89.6797 416.53C89.5291 416.564 89.3444 416.584 89.1257 416.589C88.7393 416.601 88.3913 416.543 88.0817 416.415C87.772 416.284 87.5263 416.082 87.3444 415.81C87.1655 415.537 87.0774 415.196 87.0802 414.787V408.386ZM94.0916 416.628C93.4353 416.628 92.8686 416.491 92.3913 416.219C91.9169 415.943 91.5518 415.554 91.2961 415.051C91.0405 414.545 90.9126 413.95 90.9126 413.266C90.9126 412.592 91.0405 412.001 91.2961 411.493C91.5547 410.982 91.9155 410.584 92.3785 410.3C92.8416 410.013 93.3856 409.869 94.0106 409.869C94.414 409.869 94.7947 409.935 95.1527 410.065C95.5135 410.193 95.8316 410.392 96.1072 410.662C96.3856 410.932 96.6044 411.276 96.7635 411.693C96.9226 412.108 97.0021 412.602 97.0021 413.176V413.649H91.637V412.609H95.5234C95.5206 412.314 95.4566 412.051 95.3316 411.821C95.2066 411.588 95.0319 411.405 94.8075 411.271C94.5859 411.138 94.3274 411.071 94.0319 411.071C93.7166 411.071 93.4396 411.148 93.201 411.301C92.9623 411.452 92.7763 411.651 92.6427 411.898C92.512 412.142 92.4453 412.411 92.4424 412.703V413.611C92.4424 413.991 92.512 414.318 92.6512 414.591C92.7905 414.861 92.9851 415.068 93.2351 415.213C93.4851 415.355 93.7777 415.426 94.1129 415.426C94.3373 415.426 94.5405 415.395 94.7223 415.332C94.9041 415.267 95.0618 415.172 95.1953 415.047C95.3288 414.922 95.4297 414.767 95.4978 414.582L96.9382 414.744C96.8473 415.125 96.674 415.457 96.4183 415.741C96.1655 416.023 95.8416 416.241 95.4467 416.398C95.0518 416.551 94.6001 416.628 94.0916 416.628ZM98.3671 418.955V409.955H99.8842V411.037H99.9737C100.053 410.878 100.165 410.709 100.31 410.53C100.455 410.348 100.651 410.193 100.898 410.065C101.146 409.935 101.461 409.869 101.844 409.869C102.35 409.869 102.806 409.999 103.212 410.257C103.621 410.513 103.945 410.892 104.184 411.395C104.425 411.895 104.546 412.509 104.546 413.236C104.546 413.955 104.428 414.565 104.192 415.068C103.957 415.571 103.636 415.955 103.229 416.219C102.823 416.483 102.363 416.615 101.849 416.615C101.474 416.615 101.163 416.553 100.915 416.428C100.668 416.303 100.469 416.152 100.319 415.976C100.171 415.797 100.056 415.628 99.9737 415.469H99.9098V418.955H98.3671ZM99.8799 413.227C99.8799 413.651 99.9396 414.021 100.059 414.339C100.181 414.658 100.356 414.906 100.583 415.085C100.813 415.261 101.092 415.349 101.418 415.349C101.759 415.349 102.045 415.259 102.275 415.077C102.505 414.892 102.678 414.641 102.795 414.322C102.914 414.001 102.974 413.636 102.974 413.227C102.974 412.821 102.915 412.46 102.799 412.145C102.682 411.83 102.509 411.582 102.279 411.403C102.049 411.224 101.762 411.135 101.418 411.135C101.089 411.135 100.809 411.222 100.579 411.395C100.349 411.568 100.174 411.811 100.055 412.124C99.9382 412.436 99.8799 412.804 99.8799 413.227ZM112.496 407.773V416.5H110.915V409.311H110.864L108.823 410.615V409.166L110.992 407.773H112.496ZM120.681 416.628C120.042 416.628 119.488 416.487 119.019 416.206C118.55 415.925 118.187 415.531 117.928 415.026C117.672 414.52 117.545 413.929 117.545 413.253C117.545 412.577 117.672 411.984 117.928 411.476C118.187 410.967 118.55 410.572 119.019 410.291C119.488 410.01 120.042 409.869 120.681 409.869C121.32 409.869 121.874 410.01 122.343 410.291C122.812 410.572 123.174 410.967 123.43 411.476C123.688 411.984 123.817 412.577 123.817 413.253C123.817 413.929 123.688 414.52 123.43 415.026C123.174 415.531 122.812 415.925 122.343 416.206C121.874 416.487 121.32 416.628 120.681 416.628ZM120.69 415.392C121.036 415.392 121.326 415.297 121.559 415.107C121.792 414.913 121.965 414.655 122.079 414.331C122.195 414.007 122.253 413.646 122.253 413.249C122.253 412.848 122.195 412.486 122.079 412.162C121.965 411.835 121.792 411.575 121.559 411.382C121.326 411.189 121.036 411.092 120.69 411.092C120.334 411.092 120.039 411.189 119.803 411.382C119.57 411.575 119.395 411.835 119.279 412.162C119.165 412.486 119.109 412.848 119.109 413.249C119.109 413.646 119.165 414.007 119.279 414.331C119.395 414.655 119.57 414.913 119.803 415.107C120.039 415.297 120.334 415.392 120.69 415.392ZM128.502 409.955V411.148H124.633V409.955H128.502ZM125.6 416.5V409.337C125.6 408.896 125.691 408.53 125.873 408.237C126.057 407.945 126.305 407.726 126.614 407.581C126.924 407.436 127.268 407.364 127.645 407.364C127.913 407.364 128.15 407.385 128.357 407.428C128.565 407.47 128.718 407.509 128.817 407.543L128.511 408.736C128.445 408.716 128.363 408.696 128.263 408.676C128.164 408.653 128.053 408.642 127.931 408.642C127.644 408.642 127.441 408.712 127.322 408.851C127.205 408.987 127.147 409.183 127.147 409.439V416.5H125.6ZM135.824 416.619C135.256 416.619 134.747 416.513 134.298 416.3C133.849 416.084 133.493 415.788 133.229 415.413C132.967 415.038 132.828 414.609 132.811 414.126H134.345C134.373 414.484 134.528 414.777 134.81 415.004C135.091 415.229 135.429 415.341 135.824 415.341C136.133 415.341 136.409 415.27 136.65 415.128C136.892 414.986 137.082 414.788 137.221 414.536C137.361 414.283 137.429 413.994 137.426 413.67C137.429 413.341 137.359 413.048 137.217 412.793C137.075 412.537 136.881 412.337 136.633 412.192C136.386 412.044 136.102 411.97 135.781 411.97C135.52 411.967 135.263 412.016 135.01 412.115C134.757 412.214 134.557 412.345 134.409 412.507L132.981 412.273L133.437 407.773H138.5V409.094H134.746L134.494 411.408H134.545C134.707 411.217 134.936 411.06 135.231 410.935C135.527 410.807 135.851 410.743 136.203 410.743C136.731 410.743 137.203 410.868 137.618 411.118C138.033 411.365 138.359 411.706 138.598 412.141C138.837 412.575 138.956 413.072 138.956 413.632C138.956 414.209 138.822 414.723 138.555 415.175C138.291 415.624 137.923 415.977 137.452 416.236C136.983 416.491 136.44 416.619 135.824 416.619Z" fill="#0085FE"/>
<path d="M81.9631 466.5H78.5881L84.733 449.045H88.6364L94.7898 466.5H91.4148L86.7528 452.625H86.6165L81.9631 466.5ZM82.0739 459.656H91.2784V462.196H82.0739V459.656ZM100.158 449.045V466.5H97.0724V449.045H100.158ZM106.535 449.045V466.5H103.45V449.045H106.535ZM122.924 449.045H126.06V461.318C126.055 462.443 125.816 463.412 125.344 464.224C124.873 465.031 124.214 465.653 123.367 466.091C122.526 466.523 121.546 466.739 120.427 466.739C119.404 466.739 118.484 466.557 117.665 466.193C116.853 465.824 116.208 465.278 115.731 464.557C115.253 463.835 115.015 462.937 115.015 461.864H118.16C118.165 462.335 118.268 462.741 118.467 463.082C118.671 463.423 118.952 463.685 119.31 463.866C119.668 464.048 120.08 464.139 120.546 464.139C121.052 464.139 121.481 464.034 121.833 463.824C122.185 463.608 122.452 463.29 122.634 462.869C122.822 462.449 122.918 461.932 122.924 461.318V449.045ZM135.185 466.756C133.906 466.756 132.798 466.474 131.861 465.912C130.923 465.349 130.196 464.562 129.679 463.551C129.167 462.54 128.912 461.358 128.912 460.006C128.912 458.653 129.167 457.469 129.679 456.452C130.196 455.435 130.923 454.645 131.861 454.082C132.798 453.52 133.906 453.239 135.185 453.239C136.463 453.239 137.571 453.52 138.508 454.082C139.446 454.645 140.17 455.435 140.682 456.452C141.199 457.469 141.457 458.653 141.457 460.006C141.457 461.358 141.199 462.54 140.682 463.551C140.17 464.562 139.446 465.349 138.508 465.912C137.571 466.474 136.463 466.756 135.185 466.756ZM135.202 464.284C135.895 464.284 136.474 464.094 136.94 463.713C137.406 463.327 137.753 462.81 137.98 462.162C138.213 461.514 138.329 460.793 138.329 459.997C138.329 459.196 138.213 458.472 137.98 457.824C137.753 457.17 137.406 456.651 136.94 456.264C136.474 455.878 135.895 455.685 135.202 455.685C134.491 455.685 133.9 455.878 133.429 456.264C132.963 456.651 132.613 457.17 132.381 457.824C132.153 458.472 132.04 459.196 132.04 459.997C132.04 460.793 132.153 461.514 132.381 462.162C132.613 462.81 132.963 463.327 133.429 463.713C133.9 464.094 134.491 464.284 135.202 464.284ZM144.332 466.5V449.045H147.417V455.574H147.545C147.704 455.256 147.929 454.918 148.219 454.56C148.508 454.196 148.9 453.886 149.395 453.631C149.889 453.369 150.52 453.239 151.287 453.239C152.298 453.239 153.21 453.497 154.023 454.014C154.841 454.526 155.488 455.284 155.966 456.29C156.449 457.29 156.69 458.517 156.69 459.972C156.69 461.409 156.454 462.631 155.983 463.636C155.511 464.642 154.869 465.409 154.057 465.938C153.244 466.466 152.324 466.73 151.295 466.73C150.545 466.73 149.923 466.605 149.429 466.355C148.934 466.105 148.537 465.804 148.236 465.452C147.94 465.094 147.71 464.756 147.545 464.438H147.366V466.5H144.332ZM147.358 459.955C147.358 460.801 147.477 461.543 147.716 462.179C147.96 462.815 148.309 463.312 148.764 463.67C149.224 464.023 149.781 464.199 150.434 464.199C151.116 464.199 151.687 464.017 152.148 463.653C152.608 463.284 152.954 462.781 153.187 462.145C153.426 461.503 153.545 460.773 153.545 459.955C153.545 459.142 153.429 458.42 153.196 457.79C152.963 457.159 152.616 456.665 152.156 456.307C151.696 455.949 151.122 455.77 150.434 455.77C149.775 455.77 149.216 455.943 148.756 456.29C148.295 456.636 147.946 457.122 147.707 457.747C147.474 458.372 147.358 459.108 147.358 459.955ZM169.78 456.869L166.967 457.176C166.888 456.892 166.748 456.625 166.55 456.375C166.356 456.125 166.095 455.923 165.765 455.77C165.436 455.616 165.032 455.54 164.555 455.54C163.913 455.54 163.373 455.679 162.936 455.957C162.504 456.236 162.291 456.597 162.297 457.04C162.291 457.42 162.43 457.73 162.714 457.969C163.004 458.207 163.481 458.403 164.146 458.557L166.379 459.034C167.618 459.301 168.538 459.724 169.14 460.304C169.748 460.884 170.055 461.642 170.061 462.58C170.055 463.403 169.814 464.131 169.336 464.761C168.865 465.386 168.209 465.875 167.368 466.227C166.527 466.58 165.561 466.756 164.47 466.756C162.868 466.756 161.578 466.42 160.601 465.75C159.623 465.074 159.041 464.134 158.853 462.929L161.862 462.639C161.998 463.23 162.288 463.676 162.731 463.977C163.175 464.278 163.751 464.429 164.461 464.429C165.194 464.429 165.782 464.278 166.226 463.977C166.675 463.676 166.899 463.304 166.899 462.861C166.899 462.486 166.754 462.176 166.464 461.932C166.18 461.687 165.737 461.5 165.135 461.369L162.902 460.901C161.646 460.639 160.717 460.199 160.115 459.58C159.513 458.955 159.214 458.165 159.22 457.21C159.214 456.403 159.433 455.705 159.876 455.114C160.325 454.517 160.947 454.057 161.743 453.733C162.544 453.403 163.467 453.239 164.513 453.239C166.047 453.239 167.254 453.565 168.135 454.219C169.021 454.872 169.569 455.756 169.78 456.869Z" fill="#101010"/>
<path d="M87.9631 489.409C87.9631 490.496 87.7642 491.431 87.3665 492.213C86.9688 492.992 86.4235 493.592 85.7308 494.013C85.0414 494.43 84.2576 494.639 83.3793 494.639C82.4976 494.639 81.7105 494.43 81.0178 494.013C80.3284 493.592 79.7848 492.99 79.3871 492.208C78.9893 491.426 78.7905 490.493 78.7905 489.409C78.7905 488.322 78.9893 487.389 79.3871 486.61C79.7848 485.828 80.3284 485.228 81.0178 484.81C81.7105 484.389 82.4976 484.179 83.3793 484.179C84.2576 484.179 85.0414 484.389 85.7308 484.81C86.4235 485.228 86.9688 485.828 87.3665 486.61C87.7642 487.389 87.9631 488.322 87.9631 489.409ZM86.4418 489.409C86.4418 488.58 86.3075 487.883 86.0391 487.316C85.7739 486.746 85.4093 486.315 84.9453 486.023C84.4846 485.728 83.9626 485.581 83.3793 485.581C82.7926 485.581 82.2689 485.728 81.8082 486.023C81.3475 486.315 80.983 486.746 80.7145 487.316C80.4493 487.883 80.3168 488.58 80.3168 489.409C80.3168 490.238 80.4493 490.937 80.7145 491.507C80.983 492.074 81.3475 492.505 81.8082 492.8C82.2689 493.091 82.7926 493.237 83.3793 493.237C83.9626 493.237 84.4846 493.091 84.9453 492.8C85.4093 492.505 85.7739 492.074 86.0391 491.507C86.3075 490.937 86.4418 490.238 86.4418 489.409ZM91.3156 489.966V494.5H89.8291V486.864H91.2559V488.107H91.3504C91.526 487.702 91.8011 487.377 92.1756 487.132C92.5535 486.887 93.0291 486.764 93.6025 486.764C94.1229 486.764 94.5786 486.874 94.9697 487.092C95.3608 487.308 95.664 487.629 95.8795 488.057C96.0949 488.484 96.2026 489.013 96.2026 489.643V494.5H94.7161V489.822C94.7161 489.268 94.572 488.836 94.2836 488.524C93.9952 488.209 93.5992 488.052 93.0954 488.052C92.7507 488.052 92.4441 488.126 92.1756 488.276C91.9105 488.425 91.7 488.643 91.5443 488.932C91.3918 489.217 91.3156 489.562 91.3156 489.966ZM101.557 494.654C100.805 494.654 100.157 494.493 99.6135 494.172C99.0733 493.847 98.6557 493.391 98.3607 492.805C98.069 492.215 97.9232 491.524 97.9232 490.732C97.9232 489.949 98.069 489.26 98.3607 488.663C98.6557 488.067 99.0667 487.601 99.5937 487.266C100.124 486.932 100.744 486.764 101.453 486.764C101.884 486.764 102.302 486.835 102.706 486.978C103.11 487.121 103.473 487.344 103.795 487.649C104.116 487.954 104.37 488.35 104.555 488.837C104.741 489.321 104.834 489.91 104.834 490.602V491.129H98.7634V490.016H103.377C103.377 489.625 103.297 489.278 103.138 488.977C102.979 488.672 102.756 488.431 102.467 488.256C102.182 488.08 101.847 487.992 101.463 487.992C101.045 487.992 100.681 488.095 100.369 488.3C100.061 488.503 99.8224 488.768 99.6533 489.096C99.4876 489.421 99.4047 489.774 99.4047 490.155V491.025C99.4047 491.535 99.4942 491.969 99.6732 492.327C99.8555 492.685 100.109 492.959 100.434 493.148C100.759 493.333 101.138 493.426 101.572 493.426C101.854 493.426 102.111 493.386 102.343 493.307C102.575 493.224 102.775 493.101 102.945 492.939C103.114 492.777 103.243 492.576 103.332 492.337L104.739 492.591C104.627 493.005 104.424 493.368 104.133 493.68C103.844 493.988 103.481 494.228 103.044 494.401C102.61 494.57 102.114 494.654 101.557 494.654ZM111.815 484.318V494.5H110.328V484.318H111.815ZM113.884 494.5V486.864H115.371V494.5H113.884ZM114.635 485.685C114.377 485.685 114.155 485.599 113.969 485.427C113.787 485.251 113.696 485.042 113.696 484.8C113.696 484.555 113.787 484.346 113.969 484.174C114.155 483.998 114.377 483.911 114.635 483.911C114.894 483.911 115.114 483.998 115.296 484.174C115.482 484.346 115.575 484.555 115.575 484.8C115.575 485.042 115.482 485.251 115.296 485.427C115.114 485.599 114.894 485.685 114.635 485.685ZM118.927 489.966V494.5H117.441V486.864H118.868V488.107H118.962C119.138 487.702 119.413 487.377 119.787 487.132C120.165 486.887 120.641 486.764 121.214 486.764C121.735 486.764 122.19 486.874 122.581 487.092C122.972 487.308 123.276 487.629 123.491 488.057C123.707 488.484 123.814 489.013 123.814 489.643V494.5H122.328V489.822C122.328 489.268 122.184 488.836 121.895 488.524C121.607 488.209 121.211 488.052 120.707 488.052C120.362 488.052 120.056 488.126 119.787 488.276C119.522 488.425 119.312 488.643 119.156 488.932C119.004 489.217 118.927 489.562 118.927 489.966ZM129.169 494.654C128.417 494.654 127.769 494.493 127.225 494.172C126.685 493.847 126.267 493.391 125.972 492.805C125.681 492.215 125.535 491.524 125.535 490.732C125.535 489.949 125.681 489.26 125.972 488.663C126.267 488.067 126.678 487.601 127.205 487.266C127.736 486.932 128.355 486.764 129.065 486.764C129.496 486.764 129.913 486.835 130.318 486.978C130.722 487.121 131.085 487.344 131.406 487.649C131.728 487.954 131.981 488.35 132.167 488.837C132.353 489.321 132.445 489.91 132.445 490.602V491.129H126.375V490.016H130.989C130.989 489.625 130.909 489.278 130.75 488.977C130.591 488.672 130.367 488.431 130.079 488.256C129.794 488.08 129.459 487.992 129.075 487.992C128.657 487.992 128.292 488.095 127.981 488.3C127.673 488.503 127.434 488.768 127.265 489.096C127.099 489.421 127.016 489.774 127.016 490.155V491.025C127.016 491.535 127.106 491.969 127.285 492.327C127.467 492.685 127.721 492.959 128.046 493.148C128.37 493.333 128.75 493.426 129.184 493.426C129.466 493.426 129.723 493.386 129.955 493.307C130.187 493.224 130.387 493.101 130.556 492.939C130.725 492.777 130.855 492.576 130.944 492.337L132.351 492.591C132.238 493.005 132.036 493.368 131.744 493.68C131.456 493.988 131.093 494.228 130.656 494.401C130.221 494.57 129.726 494.654 129.169 494.654ZM140.799 494.649C140.182 494.649 139.632 494.492 139.148 494.177C138.667 493.859 138.29 493.406 138.014 492.82C137.743 492.23 137.607 491.522 137.607 490.697C137.607 489.871 137.744 489.165 138.019 488.579C138.298 487.992 138.679 487.543 139.163 487.232C139.647 486.92 140.195 486.764 140.808 486.764C141.282 486.764 141.664 486.844 141.952 487.003C142.244 487.159 142.469 487.341 142.628 487.55C142.79 487.759 142.916 487.942 143.006 488.102H143.095V484.318H144.582V494.5H143.13V493.312H143.006C142.916 493.474 142.787 493.66 142.618 493.869C142.452 494.077 142.224 494.26 141.932 494.415C141.64 494.571 141.263 494.649 140.799 494.649ZM141.127 493.381C141.554 493.381 141.915 493.269 142.21 493.043C142.509 492.815 142.734 492.498 142.887 492.094C143.042 491.689 143.12 491.219 143.12 490.682C143.12 490.152 143.044 489.687 142.892 489.29C142.739 488.892 142.515 488.582 142.22 488.36C141.925 488.138 141.561 488.027 141.127 488.027C140.679 488.027 140.306 488.143 140.008 488.375C139.71 488.607 139.484 488.924 139.332 489.325C139.183 489.726 139.108 490.178 139.108 490.682C139.108 491.192 139.184 491.651 139.337 492.059C139.489 492.467 139.715 492.79 140.013 493.028C140.315 493.264 140.686 493.381 141.127 493.381ZM150.065 494.654C149.312 494.654 148.664 494.493 148.121 494.172C147.581 493.847 147.163 493.391 146.868 492.805C146.576 492.215 146.43 491.524 146.43 490.732C146.43 489.949 146.576 489.26 146.868 488.663C147.163 488.067 147.574 487.601 148.101 487.266C148.631 486.932 149.251 486.764 149.96 486.764C150.391 486.764 150.809 486.835 151.213 486.978C151.617 487.121 151.98 487.344 152.302 487.649C152.623 487.954 152.877 488.35 153.063 488.837C153.248 489.321 153.341 489.91 153.341 490.602V491.129H147.271V490.016H151.884C151.884 489.625 151.805 489.278 151.646 488.977C151.487 488.672 151.263 488.431 150.974 488.256C150.689 488.08 150.355 487.992 149.97 487.992C149.553 487.992 149.188 488.095 148.876 488.3C148.568 488.503 148.33 488.768 148.161 489.096C147.995 489.421 147.912 489.774 147.912 490.155V491.025C147.912 491.535 148.001 491.969 148.18 492.327C148.363 492.685 148.616 492.959 148.941 493.148C149.266 493.333 149.645 493.426 150.08 493.426C150.361 493.426 150.618 493.386 150.85 493.307C151.082 493.224 151.283 493.101 151.452 492.939C151.621 492.777 151.75 492.576 151.84 492.337L153.247 492.591C153.134 493.005 152.932 493.368 152.64 493.68C152.352 493.988 151.989 494.228 151.551 494.401C151.117 494.57 150.622 494.654 150.065 494.654ZM160.783 488.728L159.435 488.967C159.379 488.794 159.289 488.63 159.167 488.474C159.048 488.319 158.885 488.191 158.68 488.092C158.474 487.992 158.217 487.942 157.909 487.942C157.488 487.942 157.137 488.037 156.855 488.226C156.573 488.411 156.432 488.652 156.432 488.947C156.432 489.202 156.527 489.407 156.716 489.563C156.905 489.719 157.21 489.847 157.631 489.946L158.844 490.224C159.546 490.387 160.07 490.637 160.415 490.975C160.759 491.313 160.932 491.752 160.932 492.293C160.932 492.75 160.799 493.158 160.534 493.516C160.272 493.87 159.906 494.149 159.435 494.351C158.968 494.553 158.426 494.654 157.81 494.654C156.954 494.654 156.257 494.472 155.717 494.107C155.176 493.739 154.845 493.217 154.722 492.541L156.159 492.322C156.249 492.697 156.432 492.98 156.711 493.173C156.989 493.362 157.352 493.456 157.8 493.456C158.287 493.456 158.676 493.355 158.968 493.153C159.26 492.947 159.405 492.697 159.405 492.402C159.405 492.163 159.316 491.963 159.137 491.8C158.961 491.638 158.691 491.515 158.327 491.433L157.034 491.149C156.321 490.987 155.794 490.728 155.453 490.374C155.115 490.019 154.946 489.57 154.946 489.026C154.946 488.576 155.072 488.181 155.324 487.843C155.576 487.505 155.924 487.241 156.368 487.053C156.812 486.86 157.321 486.764 157.894 486.764C158.719 486.764 159.369 486.943 159.843 487.301C160.317 487.656 160.63 488.131 160.783 488.728ZM165.853 494.654C165.114 494.654 164.477 494.487 163.944 494.152C163.413 493.814 163.006 493.348 162.721 492.755C162.436 492.162 162.293 491.482 162.293 490.717C162.293 489.941 162.439 489.257 162.731 488.663C163.022 488.067 163.433 487.601 163.964 487.266C164.494 486.932 165.119 486.764 165.838 486.764C166.418 486.764 166.935 486.872 167.389 487.087C167.843 487.299 168.209 487.598 168.488 487.982C168.769 488.367 168.937 488.816 168.99 489.33H167.543C167.464 488.972 167.281 488.663 166.996 488.405C166.715 488.146 166.337 488.017 165.863 488.017C165.448 488.017 165.085 488.126 164.774 488.345C164.466 488.561 164.225 488.869 164.053 489.27C163.881 489.668 163.795 490.138 163.795 490.682C163.795 491.239 163.879 491.719 164.048 492.124C164.217 492.528 164.456 492.841 164.764 493.063C165.076 493.285 165.442 493.396 165.863 493.396C166.144 493.396 166.4 493.345 166.628 493.242C166.86 493.136 167.054 492.985 167.21 492.79C167.369 492.594 167.48 492.359 167.543 492.084H168.99C168.937 492.578 168.776 493.018 168.508 493.406C168.239 493.794 167.88 494.099 167.429 494.321C166.981 494.543 166.456 494.654 165.853 494.654ZM170.65 494.5V486.864H172.086V488.077H172.166C172.305 487.666 172.55 487.343 172.902 487.107C173.256 486.869 173.657 486.749 174.105 486.749C174.198 486.749 174.307 486.753 174.433 486.759C174.562 486.766 174.663 486.774 174.736 486.784V488.206C174.677 488.189 174.57 488.171 174.418 488.151C174.266 488.128 174.113 488.116 173.961 488.116C173.609 488.116 173.296 488.191 173.021 488.34C172.749 488.486 172.534 488.69 172.375 488.952C172.216 489.21 172.136 489.505 172.136 489.837V494.5H170.65ZM176.093 494.5V486.864H177.579V494.5H176.093ZM176.843 485.685C176.585 485.685 176.363 485.599 176.177 485.427C175.995 485.251 175.904 485.042 175.904 484.8C175.904 484.555 175.995 484.346 176.177 484.174C176.363 483.998 176.585 483.911 176.843 483.911C177.102 483.911 177.322 483.998 177.505 484.174C177.69 484.346 177.783 484.555 177.783 484.8C177.783 485.042 177.69 485.251 177.505 485.427C177.322 485.599 177.102 485.685 176.843 485.685ZM179.649 497.364V486.864H181.101V488.102H181.225C181.311 487.942 181.435 487.759 181.598 487.55C181.76 487.341 181.986 487.159 182.274 487.003C182.562 486.844 182.943 486.764 183.417 486.764C184.034 486.764 184.584 486.92 185.068 487.232C185.552 487.543 185.931 487.992 186.206 488.579C186.485 489.165 186.624 489.871 186.624 490.697C186.624 491.522 186.486 492.23 186.211 492.82C185.936 493.406 185.558 493.859 185.078 494.177C184.597 494.492 184.049 494.649 183.432 494.649C182.968 494.649 182.589 494.571 182.294 494.415C182.002 494.26 181.773 494.077 181.608 493.869C181.442 493.66 181.314 493.474 181.225 493.312H181.135V497.364H179.649ZM181.106 490.682C181.106 491.219 181.183 491.689 181.339 492.094C181.495 492.498 181.72 492.815 182.015 493.043C182.31 493.269 182.672 493.381 183.099 493.381C183.543 493.381 183.915 493.264 184.213 493.028C184.511 492.79 184.736 492.467 184.889 492.059C185.045 491.651 185.123 491.192 185.123 490.682C185.123 490.178 185.046 489.726 184.894 489.325C184.745 488.924 184.519 488.607 184.218 488.375C183.919 488.143 183.547 488.027 183.099 488.027C182.668 488.027 182.304 488.138 182.005 488.36C181.71 488.582 181.487 488.892 181.334 489.29C181.182 489.687 181.106 490.152 181.106 490.682ZM191.924 486.864V488.057H187.753V486.864H191.924ZM188.872 485.034H190.358V492.258C190.358 492.546 190.401 492.763 190.487 492.909C190.574 493.052 190.685 493.149 190.82 493.202C190.96 493.252 191.11 493.277 191.273 493.277C191.392 493.277 191.497 493.269 191.586 493.252C191.676 493.236 191.745 493.222 191.795 493.212L192.063 494.44C191.977 494.473 191.855 494.507 191.695 494.54C191.536 494.576 191.338 494.596 191.099 494.599C190.708 494.606 190.343 494.536 190.005 494.391C189.667 494.245 189.394 494.019 189.185 493.714C188.976 493.41 188.872 493.027 188.872 492.566V485.034ZM193.639 494.5V486.864H195.125V494.5H193.639ZM194.389 485.685C194.131 485.685 193.909 485.599 193.723 485.427C193.541 485.251 193.45 485.042 193.45 484.8C193.45 484.555 193.541 484.346 193.723 484.174C193.909 483.998 194.131 483.911 194.389 483.911C194.648 483.911 194.868 483.998 195.05 484.174C195.236 484.346 195.329 484.555 195.329 484.8C195.329 485.042 195.236 485.251 195.05 485.427C194.868 485.599 194.648 485.685 194.389 485.685ZM200.411 494.654C199.696 494.654 199.071 494.49 198.537 494.162C198.004 493.834 197.589 493.375 197.294 492.785C196.999 492.195 196.852 491.505 196.852 490.717C196.852 489.924 196.999 489.232 197.294 488.638C197.589 488.045 198.004 487.585 198.537 487.256C199.071 486.928 199.696 486.764 200.411 486.764C201.127 486.764 201.752 486.928 202.286 487.256C202.819 487.585 203.234 488.045 203.529 488.638C203.824 489.232 203.971 489.924 203.971 490.717C203.971 491.505 203.824 492.195 203.529 492.785C203.234 493.375 202.819 493.834 202.286 494.162C201.752 494.49 201.127 494.654 200.411 494.654ZM200.416 493.406C200.88 493.406 201.265 493.284 201.57 493.038C201.875 492.793 202.1 492.467 202.246 492.059C202.395 491.651 202.47 491.202 202.47 490.712C202.47 490.224 202.395 489.777 202.246 489.369C202.1 488.958 201.875 488.629 201.57 488.38C201.265 488.131 200.88 488.007 200.416 488.007C199.949 488.007 199.561 488.131 199.253 488.38C198.948 488.629 198.721 488.958 198.572 489.369C198.426 489.777 198.353 490.224 198.353 490.712C198.353 491.202 198.426 491.651 198.572 492.059C198.721 492.467 198.948 492.793 199.253 493.038C199.561 493.284 199.949 493.406 200.416 493.406ZM207.187 489.966V494.5H205.7V486.864H207.127V488.107H207.222C207.397 487.702 207.672 487.377 208.047 487.132C208.425 486.887 208.9 486.764 209.474 486.764C209.994 486.764 210.45 486.874 210.841 487.092C211.232 487.308 211.535 487.629 211.751 488.057C211.966 488.484 212.074 489.013 212.074 489.643V494.5H210.587V489.822C210.587 489.268 210.443 488.836 210.155 488.524C209.867 488.209 209.471 488.052 208.967 488.052C208.622 488.052 208.315 488.126 208.047 488.276C207.782 488.425 207.571 488.643 207.416 488.932C207.263 489.217 207.187 489.562 207.187 489.966Z" fill="#545454"/>
<rect x="221" y="546.5" width="111" height="33" rx="4" fill="#0085FE"/>
<path d="M238.025 568.5V558.318H241.923C242.659 558.318 243.27 558.434 243.758 558.666C244.248 558.895 244.614 559.208 244.856 559.606C245.102 560.004 245.224 560.454 245.224 560.958C245.224 561.372 245.145 561.727 244.986 562.022C244.826 562.314 244.613 562.551 244.344 562.733C244.076 562.915 243.776 563.046 243.444 563.126V563.225C243.806 563.245 244.152 563.356 244.483 563.558C244.818 563.757 245.092 564.039 245.304 564.403C245.516 564.768 245.622 565.209 245.622 565.726C245.622 566.253 245.494 566.727 245.239 567.148C244.984 567.565 244.599 567.895 244.086 568.137C243.572 568.379 242.926 568.5 242.147 568.5H238.025ZM239.87 566.959H241.853C242.523 566.959 243.005 566.831 243.3 566.576C243.599 566.317 243.748 565.986 243.748 565.582C243.748 565.28 243.673 565.008 243.524 564.766C243.375 564.521 243.163 564.329 242.888 564.19C242.612 564.047 242.284 563.976 241.903 563.976H239.87V566.959ZM239.87 562.648H241.694C242.013 562.648 242.299 562.59 242.554 562.474C242.81 562.355 243.01 562.188 243.156 561.972C243.305 561.754 243.38 561.495 243.38 561.197C243.38 560.802 243.241 560.478 242.962 560.222C242.687 559.967 242.278 559.839 241.734 559.839H239.87V562.648ZM252.084 565.288V560.864H253.884V568.5H252.139V567.143H252.059C251.887 567.57 251.604 567.92 251.209 568.192C250.818 568.464 250.336 568.599 249.762 568.599C249.262 568.599 248.819 568.488 248.435 568.266C248.054 568.041 247.756 567.714 247.54 567.287C247.325 566.856 247.217 566.336 247.217 565.726V560.864H249.017V565.447C249.017 565.931 249.149 566.316 249.414 566.601C249.68 566.886 250.028 567.028 250.458 567.028C250.724 567.028 250.98 566.964 251.229 566.835C251.478 566.705 251.681 566.513 251.841 566.258C252.003 565.999 252.084 565.676 252.084 565.288ZM259.618 560.864V562.256H255.228V560.864H259.618ZM256.312 559.034H258.111V566.203C258.111 566.445 258.148 566.631 258.221 566.76C258.297 566.886 258.396 566.972 258.519 567.018C258.642 567.065 258.778 567.088 258.927 567.088C259.039 567.088 259.142 567.08 259.235 567.063C259.331 567.047 259.404 567.032 259.454 567.018L259.757 568.425C259.661 568.459 259.523 568.495 259.344 568.535C259.169 568.575 258.953 568.598 258.698 568.604C258.247 568.618 257.841 568.55 257.48 568.401C257.119 568.248 256.832 568.013 256.62 567.695C256.411 567.376 256.308 566.979 256.312 566.501V559.034ZM265.006 560.864V562.256H260.616V560.864H265.006ZM261.7 559.034H263.5V566.203C263.5 566.445 263.536 566.631 263.609 566.76C263.685 566.886 263.785 566.972 263.907 567.018C264.03 567.065 264.166 567.088 264.315 567.088C264.428 567.088 264.531 567.08 264.623 567.063C264.719 567.047 264.792 567.032 264.842 567.018L265.145 568.425C265.049 568.459 264.912 568.495 264.733 568.535C264.557 568.575 264.342 568.598 264.086 568.604C263.636 568.618 263.23 568.55 262.868 568.401C262.507 568.248 262.22 568.013 262.008 567.695C261.799 567.376 261.697 566.979 261.7 566.501V559.034ZM269.83 568.649C269.084 568.649 268.438 568.485 267.891 568.157C267.344 567.829 266.92 567.37 266.619 566.78C266.32 566.19 266.171 565.5 266.171 564.712C266.171 563.923 266.32 563.232 266.619 562.638C266.92 562.045 267.344 561.585 267.891 561.256C268.438 560.928 269.084 560.764 269.83 560.764C270.576 560.764 271.222 560.928 271.769 561.256C272.316 561.585 272.739 562.045 273.037 562.638C273.339 563.232 273.489 563.923 273.489 564.712C273.489 565.5 273.339 566.19 273.037 566.78C272.739 567.37 272.316 567.829 271.769 568.157C271.222 568.485 270.576 568.649 269.83 568.649ZM269.84 567.207C270.245 567.207 270.583 567.096 270.854 566.874C271.126 566.649 271.328 566.347 271.461 565.969C271.597 565.592 271.665 565.171 271.665 564.707C271.665 564.239 271.597 563.817 271.461 563.439C271.328 563.058 271.126 562.754 270.854 562.529C270.583 562.304 270.245 562.191 269.84 562.191C269.426 562.191 269.081 562.304 268.806 562.529C268.534 562.754 268.33 563.058 268.195 563.439C268.062 563.817 267.996 564.239 267.996 564.707C267.996 565.171 268.062 565.592 268.195 565.969C268.33 566.347 268.534 566.649 268.806 566.874C269.081 567.096 269.426 567.207 269.84 567.207ZM276.887 564.026V568.5H275.087V560.864H276.807V562.161H276.896C277.072 561.734 277.352 561.394 277.737 561.142C278.124 560.89 278.603 560.764 279.173 560.764C279.7 560.764 280.16 560.877 280.551 561.102C280.945 561.328 281.25 561.654 281.465 562.082C281.684 562.509 281.792 563.028 281.789 563.638V568.5H279.989V563.916C279.989 563.406 279.856 563.006 279.591 562.718C279.329 562.43 278.966 562.286 278.502 562.286C278.187 562.286 277.907 562.355 277.662 562.494C277.42 562.63 277.23 562.827 277.09 563.086C276.954 563.344 276.887 563.658 276.887 564.026ZM286.863 559.864V558.318H294.986V559.864H291.839V568.5H290.01V559.864H286.863ZM298.816 568.649C298.051 568.649 297.389 568.49 296.833 568.172C296.279 567.85 295.853 567.396 295.555 566.81C295.257 566.22 295.107 565.525 295.107 564.727C295.107 563.941 295.257 563.252 295.555 562.658C295.856 562.062 296.277 561.598 296.818 561.266C297.358 560.932 297.993 560.764 298.722 560.764C299.192 560.764 299.636 560.84 300.054 560.993C300.475 561.142 300.846 561.374 301.168 561.689C301.493 562.004 301.748 562.405 301.933 562.892C302.119 563.376 302.212 563.953 302.212 564.622V565.174H295.953V563.961H300.487C300.483 563.616 300.409 563.31 300.263 563.041C300.117 562.769 299.913 562.556 299.651 562.4C299.393 562.244 299.091 562.166 298.747 562.166C298.379 562.166 298.056 562.256 297.777 562.435C297.499 562.61 297.282 562.842 297.126 563.131C296.973 563.416 296.895 563.729 296.892 564.07V565.129C296.892 565.573 296.973 565.955 297.136 566.273C297.298 566.588 297.525 566.83 297.817 566.999C298.109 567.164 298.45 567.247 298.841 567.247C299.103 567.247 299.34 567.211 299.552 567.138C299.764 567.062 299.948 566.951 300.104 566.805C300.26 566.659 300.377 566.478 300.457 566.263L302.137 566.452C302.031 566.896 301.829 567.284 301.531 567.615C301.236 567.943 300.858 568.198 300.397 568.381C299.936 568.56 299.409 568.649 298.816 568.649ZM305.112 560.864L306.653 563.683L308.219 560.864H310.123L307.821 564.682L310.163 568.5H308.269L306.653 565.751L305.052 568.5H303.143L305.47 564.682L303.203 560.864H305.112ZM315.398 560.864V562.256H311.009V560.864H315.398ZM312.092 559.034H313.892V566.203C313.892 566.445 313.929 566.631 314.001 566.76C314.078 566.886 314.177 566.972 314.3 567.018C314.422 567.065 314.558 567.088 314.707 567.088C314.82 567.088 314.923 567.08 315.016 567.063C315.112 567.047 315.185 567.032 315.234 567.018L315.538 568.425C315.442 568.459 315.304 568.495 315.125 568.535C314.949 568.575 314.734 568.598 314.479 568.604C314.028 568.618 313.622 568.55 313.261 568.401C312.899 568.248 312.613 568.013 312.401 567.695C312.192 567.376 312.089 566.979 312.092 566.501V559.034Z" fill="white"/>
<path d="M339 398.5L329 408.5" stroke="#34393E" stroke-width="1.5" stroke-linecap="round" stroke-linejoin="round"/>
<path d="M329 398.5L339 408.5" stroke="#34393E" stroke-width="1.5" stroke-linecap="round" stroke-linejoin="round"/>
</g>
<defs>
<filter id="filter0_d_4763_31110" x="49" y="42" width="312" height="125" filterUnits="userSpaceOnUse" color-interpolation-filters="sRGB">
<feFlood flood-opacity="0" result="BackgroundImageFix"/>
<feColorMatrix in="SourceAlpha" type="matrix" values="0 0 0 0 0 0 0 0 0 0 0 0 0 0 0 0 0 0 127 0" result="hardAlpha"/>
<feOffset dy="2"/>
<feGaussianBlur stdDeviation="2.5"/>
<feComposite in2="hardAlpha" operator="out"/>
<feColorMatrix type="matrix" values="0 0 0 0 0 0 0 0 0 0 0 0 0 0 0 0 0 0 0.05 0"/>
<feBlend mode="normal" in2="BackgroundImageFix" result="effect1_dropShadow_4763_31110"/>
<feBlend mode="normal" in="SourceGraphic" in2="effect1_dropShadow_4763_31110" result="shape"/>
</filter>
<filter id="filter1_d_4763_31110" x="227" y="189" width="312" height="163" filterUnits="userSpaceOnUse" color-interpolation-filters="sRGB">
<feFlood flood-opacity="0" result="BackgroundImageFix"/>
<feColorMatrix in="SourceAlpha" type="matrix" values="0 0 0 0 0 0 0 0 0 0 0 0 0 0 0 0 0 0 127 0" result="hardAlpha"/>
<feOffset dy="2"/>
<feGaussianBlur stdDeviation="2.5"/>
<feComposite in2="hardAlpha" operator="out"/>
<feColorMatrix type="matrix" values="0 0 0 0 0 0 0 0 0 0 0 0 0 0 0 0 0 0 0.05 0"/>
<feBlend mode="normal" in2="BackgroundImageFix" result="effect1_dropShadow_4763_31110"/>
<feBlend mode="normal" in="SourceGraphic" in2="effect1_dropShadow_4763_31110" result="shape"/>
</filter>
<filter id="filter2_d_4763_31110" x="49" y="365.999" width="312" height="244.501" filterUnits="userSpaceOnUse" color-interpolation-filters="sRGB">
<feFlood flood-opacity="0" result="BackgroundImageFix"/>
<feColorMatrix in="SourceAlpha" type="matrix" values="0 0 0 0 0 0 0 0 0 0 0 0 0 0 0 0 0 0 127 0" result="hardAlpha"/>
<feOffset dy="2"/>
<feGaussianBlur stdDeviation="2.5"/>
<feComposite in2="hardAlpha" operator="out"/>
<feColorMatrix type="matrix" values="0 0 0 0 0 0 0 0 0 0 0 0 0 0 0 0 0 0 0.05 0"/>
<feBlend mode="normal" in2="BackgroundImageFix" result="effect1_dropShadow_4763_31110"/>
<feBlend mode="normal" in="SourceGraphic" in2="effect1_dropShadow_4763_31110" result="shape"/>
</filter>
</defs>
</svg>
