<svg width="1202" height="648" viewBox="0 0 1202 648" fill="none" xmlns="http://www.w3.org/2000/svg">
<rect width="1202" height="648" rx="16" fill="#E5F3FF"/>
<g clip-path="url(#clip0_4757_23154)">
<mask id="mask0_4757_23154" style="mask-type:luminance" maskUnits="userSpaceOnUse" x="377" y="274" width="449" height="100">
<path d="M825.571 274H377V374H825.571V274Z" fill="white"/>
</mask>
<g mask="url(#mask0_4757_23154)">
<mask id="mask1_4757_23154" style="mask-type:luminance" maskUnits="userSpaceOnUse" x="377" y="274" width="448" height="100">
<path d="M824.223 274H377V374H824.223V274Z" fill="white"/>
</mask>
<g mask="url(#mask1_4757_23154)">
<path d="M467.397 274.312H386.451C381.464 274.312 377.422 278.355 377.422 283.342V364.288C377.422 369.275 381.464 373.317 386.451 373.317H467.397C472.384 373.317 476.427 369.275 476.427 364.288V283.342C476.427 278.355 472.384 274.312 467.397 274.312Z" fill="black"/>
<path d="M425.539 311.439H413.694V343.519H404.187V311.439H392.555V304.056H425.539V311.439Z" fill="#1A8FE6"/>
<path d="M461.235 343.519H456.029V325.301H436.111V343.519H430.906V304.056H436.111V321.052H456.029V304.056H461.235V343.519Z" fill="#8A8A8A"/>
<path d="M533.202 306.924H516.63V351.965H505.476V306.924H489.117V297.895H533.202V306.924Z" fill="black"/>
<path d="M560.498 347.874C557.842 351.097 554.178 352.708 549.504 352.708C545.184 352.708 541.891 351.469 539.624 348.99C537.358 346.511 536.207 342.881 536.172 338.101V311.757H546.901V337.783C546.901 341.961 548.813 344.05 552.637 344.05C556.284 344.05 558.781 342.793 560.126 340.279V311.757H570.909V351.964H560.817L560.498 347.874Z" fill="black"/>
<path d="M601.611 321.844C600.124 321.632 598.832 321.526 597.734 321.526C593.662 321.526 591.006 322.907 589.767 325.669V351.96H578.984V311.753H589.129L589.448 316.586C591.608 312.868 594.582 311.009 598.371 311.009C599.575 311.009 600.691 311.168 601.717 311.487L601.611 321.844Z" fill="black"/>
<path fill-rule="evenodd" clip-rule="evenodd" d="M642.997 332.266C642.997 338.71 641.616 343.721 638.855 347.297C636.128 350.909 632.286 352.714 627.329 352.714C622.973 352.714 619.503 351.05 616.918 347.722L616.44 351.971H606.773V294.926H617.503V315.375C619.981 312.472 623.239 311.02 627.275 311.02C632.162 311.02 636.004 312.826 638.801 316.438C641.599 320.049 642.997 325.131 642.997 331.681V332.266ZM632.268 331.469C632.268 327.397 631.613 324.422 630.303 322.546C629.028 320.704 627.116 319.784 624.567 319.784C621.132 319.784 618.777 321.182 617.503 323.98V339.808C618.813 342.641 621.185 344.057 624.62 344.057C628.09 344.057 630.374 342.34 631.472 338.905C632.003 337.276 632.268 334.797 632.268 331.469Z" fill="black"/>
<path fill-rule="evenodd" clip-rule="evenodd" d="M647.938 331.511C647.938 327.51 648.699 323.951 650.221 320.835C651.779 317.719 653.993 315.311 656.862 313.612C659.765 311.877 663.109 311.009 666.897 311.009C672.351 311.009 676.78 312.673 680.18 316.002C683.611 319.33 685.543 323.845 685.969 329.546L686.02 332.255C686.02 338.451 684.303 343.409 680.869 347.127C677.397 350.845 672.777 352.704 667.006 352.704C661.198 352.704 656.559 350.845 653.089 347.127C649.655 343.409 647.938 338.363 647.938 331.989V331.511ZM658.667 332.255C658.667 336.079 659.393 339 660.845 341.019C662.259 343.037 664.314 344.046 667.006 344.046C669.589 344.046 671.609 343.055 673.06 341.072C674.549 339.089 675.291 335.902 675.291 331.511C675.291 327.758 674.549 324.854 673.06 322.8C671.609 320.711 669.554 319.667 666.897 319.667C664.28 319.667 662.259 320.693 660.845 322.747C659.393 324.801 658.667 327.97 658.667 332.255Z" fill="black"/>
<path d="M736.354 351.965H729.186V326.949H701.886V351.965H694.766V297.895H701.886V321.159H729.186V297.895H736.354V351.965Z" fill="black"/>
<path d="M748 301.131C748 299.998 748.334 299.042 749.009 298.263C749.68 297.519 750.689 297.147 752.034 297.147C753.38 297.147 754.391 297.519 755.063 298.263C755.771 299.042 756.123 299.998 756.123 301.131C756.123 302.229 755.771 303.149 755.063 303.893C754.391 304.636 753.38 305.008 752.034 305.008C750.689 305.008 749.68 304.636 749.009 303.893C748.334 303.149 748 302.229 748 301.131ZM755.434 351.961H748.529V311.754H755.434V351.961Z" fill="black"/>
<path d="M785.823 317.914C784.797 317.772 783.68 317.701 782.478 317.701C777.98 317.701 774.918 319.613 773.289 323.438V351.96H766.438V311.753H773.132L773.238 316.427C775.466 312.815 778.655 311.009 782.798 311.009C784.143 311.009 785.152 311.186 785.823 311.54V317.914Z" fill="black"/>
<path fill-rule="evenodd" clip-rule="evenodd" d="M808.127 352.704C802.675 352.704 798.25 350.916 794.85 347.339C791.415 343.763 789.695 338.983 789.695 332.998V331.724C789.695 327.722 790.458 324.164 791.981 321.047C793.504 317.896 795.647 315.435 798.407 313.665C801.135 311.894 804.09 311.009 807.278 311.009C812.518 311.009 816.59 312.744 819.492 316.214C822.364 319.649 823.795 324.571 823.795 330.98V333.848H796.601C796.675 337.814 797.824 341.019 800.055 343.462C802.284 345.905 805.098 347.127 808.498 347.127C810.944 347.127 812.995 346.631 814.661 345.639C816.361 344.648 817.85 343.32 819.121 341.656L823.318 344.949C819.918 350.119 814.855 352.704 808.127 352.704ZM807.278 316.692C804.515 316.692 802.195 317.701 800.321 319.72C798.407 321.738 797.241 324.571 796.815 328.218H816.944V327.687C816.732 324.181 815.792 321.473 814.13 319.56C812.43 317.648 810.147 316.692 807.278 316.692Z" fill="black"/>
</g>
</g>
</g>
<defs>
<clipPath id="clip0_4757_23154">
<rect width="448.571" height="100" fill="white" transform="translate(377 274)"/>
</clipPath>
</defs>
</svg>
