<svg width="581" height="648" viewBox="0 0 581 648" fill="none" xmlns="http://www.w3.org/2000/svg">
<rect width="581" height="648" rx="16" fill="#E5F3FF"/>
<rect x="0.5" y="0.5" width="580" height="647" rx="15.5" stroke="#B7DDFF" stroke-opacity="0.2"/>
<path d="M57.1985 101V90.0909H58.8445V99.5831H63.7876V101H57.1985ZM67.9935 101.181C67.475 101.181 67.0063 101.085 66.5873 100.893C66.1682 100.698 65.8362 100.416 65.5912 100.047C65.3497 99.6772 65.2289 99.2244 65.2289 98.6882C65.2289 98.2266 65.3177 97.8466 65.4953 97.5483C65.6728 97.25 65.9125 97.0138 66.2144 96.8398C66.5162 96.6658 66.8536 96.5344 67.2265 96.4457C67.5993 96.3569 67.9793 96.2894 68.3664 96.2433C68.8564 96.1864 69.2542 96.1403 69.5596 96.1048C69.865 96.0657 70.0869 96.0036 70.2254 95.9183C70.3639 95.8331 70.4331 95.6946 70.4331 95.5028V95.4656C70.4331 95.0004 70.3017 94.6399 70.039 94.3842C69.7797 94.1286 69.3926 94.0007 68.8777 94.0007C68.3415 94.0007 67.9189 94.1197 67.61 94.3576C67.3046 94.592 67.0933 94.853 66.9761 95.1406L65.4793 94.7997C65.6569 94.3026 65.9161 93.9013 66.257 93.5959C66.6015 93.2869 66.9974 93.0632 67.4449 92.9247C67.8923 92.7827 68.3628 92.7116 68.8564 92.7116C69.1831 92.7116 69.5294 92.7507 69.8951 92.8288C70.2645 92.9034 70.6089 93.0419 70.9285 93.2443C71.2517 93.4467 71.5162 93.7362 71.7222 94.1126C71.9282 94.4854 72.0311 94.9702 72.0311 95.5668V101H70.4757V99.8814H70.4118C70.3088 100.087 70.1544 100.29 69.9484 100.489C69.7424 100.687 69.4779 100.853 69.1547 100.984C68.8316 101.115 68.4445 101.181 67.9935 101.181ZM68.3397 99.9027C68.7801 99.9027 69.1565 99.8157 69.469 99.6417C69.785 99.4677 70.0248 99.2404 70.1881 98.9599C70.355 98.6758 70.4385 98.3722 70.4385 98.049V96.9943C70.3816 97.0511 70.2716 97.1044 70.1082 97.1541C69.9484 97.2003 69.7655 97.2411 69.5596 97.2766C69.3536 97.3086 69.1529 97.3388 68.9576 97.3672C68.7623 97.392 68.599 97.4134 68.4676 97.4311C68.1586 97.4702 67.8763 97.5359 67.6206 97.6282C67.3685 97.7205 67.1661 97.8537 67.0134 98.0277C66.8642 98.1982 66.7897 98.4254 66.7897 98.7095C66.7897 99.1037 66.9353 99.402 67.2265 99.6044C67.5176 99.8033 67.8887 99.9027 68.3397 99.9027ZM74.3553 101V90.0909H75.948V94.1445H76.0439C76.1362 93.9741 76.2694 93.777 76.4434 93.5533C76.6174 93.3295 76.8589 93.1342 77.1678 92.9673C77.4768 92.7969 77.8852 92.7116 78.393 92.7116C79.0535 92.7116 79.643 92.8786 80.1615 93.2124C80.6799 93.5462 81.0865 94.0273 81.3813 94.6559C81.6796 95.2844 81.8287 96.0408 81.8287 96.9251C81.8287 97.8093 81.6813 98.5675 81.3866 99.1996C81.0918 99.8281 80.687 100.313 80.1721 100.654C79.6572 100.991 79.0695 101.16 78.409 101.16C77.9118 101.16 77.5052 101.076 77.1892 100.909C76.8767 100.743 76.6316 100.547 76.4541 100.324C76.2765 100.1 76.1398 99.9009 76.0439 99.7269H75.9107V101H74.3553ZM75.9161 96.9091C75.9161 97.4844 75.9995 97.9886 76.1664 98.4219C76.3333 98.8551 76.5748 99.1942 76.8909 99.4393C77.2069 99.6808 77.594 99.8015 78.0521 99.8015C78.5279 99.8015 78.9257 99.6754 79.2453 99.4233C79.5649 99.1676 79.8063 98.8214 79.9697 98.3846C80.1366 97.9478 80.22 97.456 80.22 96.9091C80.22 96.3693 80.1384 95.8846 79.975 95.4549C79.8152 95.0252 79.5737 94.6861 79.2506 94.4375C78.931 94.1889 78.5315 94.0646 78.0521 94.0646C77.5904 94.0646 77.1998 94.1836 76.8802 94.4215C76.5642 94.6594 76.3244 94.9915 76.1611 95.4176C75.9977 95.8437 75.9161 96.3409 75.9161 96.9091ZM87.2184 101.165C86.4123 101.165 85.7181 100.993 85.1357 100.648C84.5569 100.3 84.1094 99.8121 83.7934 99.1836C83.4809 98.5515 83.3246 97.8111 83.3246 96.9624C83.3246 96.1243 83.4809 95.3857 83.7934 94.7464C84.1094 94.1072 84.5498 93.6083 85.1144 93.2496C85.6826 92.891 86.3466 92.7116 87.1066 92.7116C87.5682 92.7116 88.0157 92.788 88.4489 92.9407C88.8821 93.0934 89.271 93.3331 89.6154 93.6598C89.9599 93.9865 90.2316 94.4109 90.4304 94.9329C90.6293 95.4513 90.7287 96.0817 90.7287 96.8239V97.3885H84.2248V96.1953H89.168C89.168 95.7763 89.0828 95.4052 88.9123 95.082C88.7419 94.7553 88.5022 94.4979 88.1932 94.3097C87.8878 94.1214 87.5292 94.0273 87.1172 94.0273C86.6698 94.0273 86.2792 94.1374 85.9453 94.3576C85.6151 94.5742 85.3594 94.8583 85.1783 95.2099C85.0007 95.5579 84.912 95.9361 84.912 96.3445V97.2766C84.912 97.8235 85.0078 98.2887 85.1996 98.6722C85.3949 99.0558 85.6666 99.3487 86.0146 99.5511C86.3626 99.75 86.7692 99.8494 87.2344 99.8494C87.5363 99.8494 87.8115 99.8068 88.0601 99.7216C88.3086 99.6328 88.5235 99.5014 88.7046 99.3274C88.8857 99.1534 89.0242 98.9386 89.1201 98.6829L90.6275 98.9545C90.5068 99.3984 90.2902 99.7873 89.9777 100.121C89.6687 100.451 89.2799 100.709 88.8111 100.893C88.3459 101.075 87.815 101.165 87.2184 101.165ZM94.1635 90.0909V101H92.5709V90.0909H94.1635Z" fill="#34393E"/>
<rect x="56.625" y="118.125" width="468.75" height="49.5" rx="4.375" fill="#F8F9FD"/>
<rect x="56.625" y="118.125" width="468.75" height="49.5" rx="4.375" stroke="#D3D8DD" stroke-width="1.25"/>
<path d="M72.3983 149.5V136.773H76.9348C77.925 136.773 78.7453 136.953 79.3958 137.313C80.0462 137.674 80.533 138.167 80.8562 138.792C81.1793 139.414 81.3409 140.114 81.3409 140.893C81.3409 141.676 81.1773 142.38 80.85 143.006C80.5268 143.627 80.0379 144.12 79.3833 144.485C78.7329 144.845 77.9147 145.026 76.9286 145.026H73.8089V143.397H76.7546C77.3802 143.397 77.8877 143.29 78.2772 143.074C78.6666 142.855 78.9525 142.556 79.1348 142.179C79.3171 141.802 79.4082 141.374 79.4082 140.893C79.4082 140.412 79.3171 139.986 79.1348 139.613C78.9525 139.24 78.6645 138.948 78.271 138.737C77.8815 138.525 77.3678 138.42 76.7298 138.42H74.3185V149.5H72.3983ZM85.3886 136.773V149.5H83.5305V136.773H85.3886ZM90.7537 149.711C90.1489 149.711 89.602 149.599 89.1131 149.376C88.6242 149.148 88.2369 148.818 87.951 148.388C87.6693 147.957 87.5284 147.429 87.5284 146.803C87.5284 146.264 87.632 145.821 87.8392 145.473C88.0463 145.125 88.326 144.849 88.6781 144.646C89.0303 144.443 89.4238 144.29 89.8589 144.187C90.2939 144.083 90.7372 144.004 91.1888 143.95C91.7605 143.884 92.2245 143.83 92.5808 143.789C92.9371 143.743 93.196 143.671 93.3576 143.571C93.5192 143.472 93.6 143.31 93.6 143.087V143.043C93.6 142.5 93.4467 142.08 93.1401 141.782C92.8377 141.483 92.3861 141.334 91.7854 141.334C91.1598 141.334 90.6667 141.473 90.3063 141.751C89.95 142.024 89.7035 142.328 89.5668 142.664L87.8205 142.266C88.0277 141.686 88.3301 141.218 88.7278 140.862C89.1297 140.501 89.5916 140.24 90.1137 140.079C90.6357 139.913 91.1846 139.83 91.7605 139.83C92.1416 139.83 92.5456 139.876 92.9723 139.967C93.4032 140.054 93.8051 140.216 94.1779 140.452C94.5549 140.688 94.8636 141.026 95.1039 141.465C95.3442 141.9 95.4643 142.465 95.4643 143.161V149.5H93.6497V148.195H93.5751C93.455 148.435 93.2748 148.671 93.0345 148.903C92.7942 149.135 92.4855 149.328 92.1085 149.481C91.7315 149.635 91.2799 149.711 90.7537 149.711ZM91.1577 148.22C91.6714 148.22 92.1106 148.118 92.4752 147.915C92.8439 147.712 93.1235 147.447 93.3141 147.12C93.5088 146.788 93.6062 146.434 93.6062 146.057V144.827C93.5399 144.893 93.4115 144.955 93.2209 145.013C93.0345 145.067 92.8211 145.115 92.5808 145.156C92.3405 145.193 92.1064 145.229 91.8786 145.262C91.6507 145.291 91.4601 145.316 91.3068 145.336C90.9464 145.382 90.617 145.459 90.3187 145.566C90.0246 145.674 89.7884 145.829 89.6103 146.032C89.4363 146.231 89.3493 146.496 89.3493 146.828C89.3493 147.288 89.5191 147.636 89.8589 147.872C90.1986 148.104 90.6315 148.22 91.1577 148.22ZM102.048 149.693C101.124 149.693 100.328 149.483 99.6612 149.065C98.9983 148.642 98.4887 148.06 98.1324 147.319C97.7761 146.577 97.5979 145.728 97.5979 144.771C97.5979 143.801 97.7802 142.946 98.1448 142.204C98.5094 141.458 99.0231 140.876 99.686 140.458C100.349 140.039 101.13 139.83 102.029 139.83C102.754 139.83 103.4 139.965 103.968 140.234C104.535 140.499 104.993 140.872 105.341 141.353C105.693 141.833 105.903 142.395 105.969 143.037H104.16C104.061 142.589 103.833 142.204 103.477 141.881C103.125 141.558 102.652 141.396 102.06 141.396C101.542 141.396 101.088 141.533 100.699 141.806C100.314 142.076 100.013 142.461 99.7979 142.962C99.5824 143.46 99.4747 144.048 99.4747 144.727C99.4747 145.423 99.5804 146.024 99.7917 146.529C100.003 147.035 100.301 147.426 100.687 147.704C101.076 147.982 101.534 148.12 102.06 148.12C102.412 148.12 102.731 148.056 103.017 147.928C103.307 147.795 103.549 147.607 103.744 147.362C103.943 147.118 104.082 146.824 104.16 146.48H105.969C105.903 147.097 105.702 147.648 105.366 148.133C105.03 148.618 104.581 148.999 104.018 149.276C103.458 149.554 102.802 149.693 102.048 149.693ZM112.157 149.693C111.217 149.693 110.407 149.492 109.728 149.09C109.052 148.684 108.53 148.114 108.162 147.381C107.797 146.643 107.615 145.78 107.615 144.789C107.615 143.812 107.797 142.95 108.162 142.204C108.53 141.458 109.044 140.876 109.703 140.458C110.366 140.039 111.14 139.83 112.027 139.83C112.566 139.83 113.088 139.919 113.593 140.097C114.098 140.276 114.552 140.555 114.954 140.936C115.356 141.318 115.673 141.813 115.905 142.422C116.137 143.027 116.253 143.762 116.253 144.628V145.287H108.665V143.895H114.432C114.432 143.406 114.333 142.973 114.134 142.596C113.935 142.215 113.655 141.914 113.295 141.695C112.938 141.475 112.52 141.365 112.039 141.365C111.517 141.365 111.062 141.494 110.672 141.751C110.287 142.003 109.989 142.335 109.777 142.745C109.57 143.151 109.467 143.592 109.467 144.069V145.156C109.467 145.794 109.578 146.337 109.802 146.784C110.03 147.232 110.347 147.574 110.753 147.81C111.159 148.042 111.633 148.158 112.176 148.158C112.528 148.158 112.849 148.108 113.139 148.009C113.429 147.905 113.68 147.752 113.891 147.549C114.103 147.346 114.264 147.095 114.376 146.797L116.135 147.114C115.994 147.632 115.741 148.085 115.377 148.475C115.016 148.86 114.562 149.16 114.016 149.376C113.473 149.587 112.853 149.693 112.157 149.693ZM120.26 143.832V149.5H118.402V136.773H120.235V141.508H120.353C120.577 140.994 120.919 140.586 121.379 140.284C121.839 139.981 122.439 139.83 123.181 139.83C123.835 139.83 124.407 139.965 124.896 140.234C125.389 140.503 125.77 140.905 126.04 141.44C126.313 141.97 126.45 142.633 126.45 143.428V149.5H124.592V143.652C124.592 142.952 124.411 142.409 124.051 142.024C123.69 141.635 123.189 141.44 122.547 141.44C122.108 141.44 121.714 141.533 121.366 141.719C121.022 141.906 120.751 142.179 120.552 142.54C120.357 142.896 120.26 143.327 120.26 143.832ZM133.038 149.693C132.143 149.693 131.362 149.488 130.695 149.077C130.028 148.667 129.51 148.093 129.141 147.356C128.772 146.619 128.588 145.757 128.588 144.771C128.588 143.781 128.772 142.915 129.141 142.173C129.51 141.432 130.028 140.856 130.695 140.445C131.362 140.035 132.143 139.83 133.038 139.83C133.932 139.83 134.713 140.035 135.38 140.445C136.047 140.856 136.565 141.432 136.934 142.173C137.303 142.915 137.487 143.781 137.487 144.771C137.487 145.757 137.303 146.619 136.934 147.356C136.565 148.093 136.047 148.667 135.38 149.077C134.713 149.488 133.932 149.693 133.038 149.693ZM133.044 148.133C133.624 148.133 134.104 147.98 134.486 147.673C134.867 147.366 135.148 146.958 135.331 146.449C135.517 145.939 135.61 145.378 135.61 144.765C135.61 144.156 135.517 143.596 135.331 143.087C135.148 142.573 134.867 142.161 134.486 141.85C134.104 141.539 133.624 141.384 133.044 141.384C132.46 141.384 131.975 141.539 131.59 141.85C131.208 142.161 130.925 142.573 130.738 143.087C130.556 143.596 130.465 144.156 130.465 144.765C130.465 145.378 130.556 145.939 130.738 146.449C130.925 146.958 131.208 147.366 131.59 147.673C131.975 147.98 132.46 148.133 133.044 148.133ZM141.507 136.773V149.5H139.649V136.773H141.507ZM147.667 149.686C146.897 149.686 146.209 149.49 145.604 149.096C145.004 148.698 144.531 148.133 144.187 147.4C143.848 146.662 143.678 145.778 143.678 144.746C143.678 143.714 143.85 142.832 144.194 142.099C144.542 141.365 145.018 140.804 145.623 140.414C146.228 140.025 146.913 139.83 147.68 139.83C148.272 139.83 148.749 139.93 149.109 140.129C149.474 140.323 149.756 140.551 149.954 140.812C150.157 141.073 150.315 141.303 150.427 141.502H150.539V136.773H152.397V149.5H150.582V148.015H150.427C150.315 148.218 150.153 148.45 149.942 148.711C149.735 148.972 149.449 149.2 149.084 149.394C148.72 149.589 148.247 149.686 147.667 149.686ZM148.078 148.102C148.612 148.102 149.064 147.961 149.432 147.679C149.805 147.393 150.087 146.998 150.278 146.492C150.472 145.987 150.57 145.398 150.57 144.727C150.57 144.064 150.474 143.484 150.284 142.987C150.093 142.49 149.814 142.103 149.445 141.825C149.076 141.548 148.62 141.409 148.078 141.409C147.518 141.409 147.052 141.554 146.679 141.844C146.306 142.134 146.025 142.529 145.834 143.031C145.648 143.532 145.555 144.098 145.555 144.727C145.555 145.365 145.65 145.939 145.84 146.449C146.031 146.958 146.313 147.362 146.686 147.661C147.063 147.955 147.527 148.102 148.078 148.102ZM159.25 149.693C158.31 149.693 157.5 149.492 156.82 149.09C156.145 148.684 155.623 148.114 155.254 147.381C154.89 146.643 154.707 145.78 154.707 144.789C154.707 143.812 154.89 142.95 155.254 142.204C155.623 141.458 156.137 140.876 156.795 140.458C157.458 140.039 158.233 139.83 159.12 139.83C159.658 139.83 160.18 139.919 160.686 140.097C161.191 140.276 161.645 140.555 162.047 140.936C162.449 141.318 162.766 141.813 162.998 142.422C163.23 143.027 163.346 143.762 163.346 144.628V145.287H155.758V143.895H161.525C161.525 143.406 161.425 142.973 161.226 142.596C161.028 142.215 160.748 141.914 160.387 141.695C160.031 141.475 159.613 141.365 159.132 141.365C158.61 141.365 158.154 141.494 157.765 141.751C157.38 142.003 157.081 142.335 156.87 142.745C156.663 143.151 156.559 143.592 156.559 144.069V145.156C156.559 145.794 156.671 146.337 156.895 146.784C157.123 147.232 157.44 147.574 157.846 147.81C158.252 148.042 158.726 148.158 159.269 148.158C159.621 148.158 159.942 148.108 160.232 148.009C160.522 147.905 160.773 147.752 160.984 147.549C161.195 147.346 161.357 147.095 161.469 146.797L163.227 147.114C163.087 147.632 162.834 148.085 162.469 148.475C162.109 148.86 161.655 149.16 161.108 149.376C160.566 149.587 159.946 149.693 159.25 149.693ZM165.495 149.5V139.955H167.291V141.471H167.39C167.564 140.957 167.871 140.553 168.31 140.259C168.753 139.961 169.254 139.812 169.814 139.812C169.93 139.812 170.067 139.816 170.224 139.824C170.386 139.832 170.512 139.843 170.603 139.855V141.632C170.528 141.612 170.396 141.589 170.205 141.564C170.015 141.535 169.824 141.521 169.634 141.521C169.194 141.521 168.803 141.614 168.459 141.8C168.119 141.983 167.85 142.237 167.651 142.565C167.452 142.888 167.353 143.257 167.353 143.671V149.5H165.495ZM181.473 139.955V141.446H176.259V139.955H181.473ZM177.657 137.668H179.516V146.697C179.516 147.058 179.569 147.329 179.677 147.511C179.785 147.69 179.924 147.812 180.094 147.878C180.268 147.94 180.456 147.971 180.659 147.971C180.808 147.971 180.939 147.961 181.051 147.94C181.162 147.919 181.249 147.903 181.312 147.89L181.647 149.425C181.539 149.467 181.386 149.508 181.187 149.55C180.988 149.595 180.74 149.62 180.442 149.624C179.953 149.633 179.497 149.546 179.074 149.363C178.652 149.181 178.31 148.899 178.049 148.518C177.788 148.137 177.657 147.658 177.657 147.083V137.668ZM187.628 149.693C186.687 149.693 185.877 149.492 185.198 149.09C184.522 148.684 184 148.114 183.632 147.381C183.267 146.643 183.085 145.78 183.085 144.789C183.085 143.812 183.267 142.95 183.632 142.204C184 141.458 184.514 140.876 185.173 140.458C185.836 140.039 186.61 139.83 187.497 139.83C188.036 139.83 188.558 139.919 189.063 140.097C189.569 140.276 190.022 140.555 190.424 140.936C190.826 141.318 191.143 141.813 191.375 142.422C191.607 143.027 191.723 143.762 191.723 144.628V145.287H184.135V143.895H189.902C189.902 143.406 189.803 142.973 189.604 142.596C189.405 142.215 189.125 141.914 188.765 141.695C188.409 141.475 187.99 141.365 187.509 141.365C186.987 141.365 186.532 141.494 186.142 141.751C185.757 142.003 185.459 142.335 185.247 142.745C185.04 143.151 184.937 143.592 184.937 144.069V145.156C184.937 145.794 185.049 146.337 185.272 146.784C185.5 147.232 185.817 147.574 186.223 147.81C186.629 148.042 187.103 148.158 187.646 148.158C187.998 148.158 188.319 148.108 188.609 148.009C188.899 147.905 189.15 147.752 189.361 147.549C189.573 147.346 189.734 147.095 189.846 146.797L191.605 147.114C191.464 147.632 191.211 148.085 190.847 148.475C190.486 148.86 190.033 149.16 189.486 149.376C188.943 149.587 188.324 149.693 187.628 149.693ZM195.117 139.955L197.223 143.671L199.349 139.955H201.381L198.404 144.727L201.406 149.5H199.373L197.223 145.933L195.079 149.5H193.041L196.011 144.727L193.078 139.955H195.117ZM207.832 139.955V141.446H202.618V139.955H207.832ZM204.016 137.668H205.874V146.697C205.874 147.058 205.928 147.329 206.036 147.511C206.144 147.69 206.282 147.812 206.452 147.878C206.626 147.94 206.815 147.971 207.018 147.971C207.167 147.971 207.297 147.961 207.409 147.94C207.521 147.919 207.608 147.903 207.67 147.89L208.006 149.425C207.898 149.467 207.745 149.508 207.546 149.55C207.347 149.595 207.099 149.62 206.8 149.624C206.311 149.633 205.856 149.546 205.433 149.363C205.01 149.181 204.669 148.899 204.408 148.518C204.147 148.137 204.016 147.658 204.016 147.083V137.668Z" fill="#9B9C9E"/>
<path d="M504.861 143C504.861 144.444 503.695 145.61 502.251 145.61C500.807 145.61 499.641 144.444 499.641 143C499.641 141.556 500.807 140.39 502.251 140.39C503.695 140.39 504.861 141.556 504.861 143Z" stroke="#9B9C9E" stroke-width="1.875" stroke-linecap="round" stroke-linejoin="round"/>
<path d="M502.252 149.03C504.826 149.03 507.225 147.513 508.895 144.888C509.551 143.86 509.551 142.132 508.895 141.104C507.225 138.479 504.826 136.962 502.252 136.962C499.678 136.962 497.279 138.479 495.609 141.104C494.953 142.132 494.953 143.86 495.609 144.888C497.279 147.513 499.678 149.03 502.252 149.03Z" stroke="#9B9C9E" stroke-width="1.875" stroke-linecap="round" stroke-linejoin="round"/>
<path d="M57.1985 232.25V221.341H58.8445V230.833H63.7876V232.25H57.1985ZM67.9935 232.431C67.475 232.431 67.0063 232.335 66.5873 232.143C66.1682 231.948 65.8362 231.666 65.5912 231.297C65.3497 230.927 65.2289 230.474 65.2289 229.938C65.2289 229.477 65.3177 229.097 65.4953 228.798C65.6728 228.5 65.9125 228.264 66.2144 228.09C66.5162 227.916 66.8536 227.784 67.2265 227.696C67.5993 227.607 67.9793 227.539 68.3664 227.493C68.8564 227.436 69.2542 227.39 69.5596 227.355C69.865 227.316 70.0869 227.254 70.2254 227.168C70.3639 227.083 70.4331 226.945 70.4331 226.753V226.716C70.4331 226.25 70.3017 225.89 70.039 225.634C69.7797 225.379 69.3926 225.251 68.8777 225.251C68.3415 225.251 67.9189 225.37 67.61 225.608C67.3046 225.842 67.0933 226.103 66.9761 226.391L65.4793 226.05C65.6569 225.553 65.9161 225.151 66.257 224.846C66.6015 224.537 66.9974 224.313 67.4449 224.175C67.8923 224.033 68.3628 223.962 68.8564 223.962C69.1831 223.962 69.5294 224.001 69.8951 224.079C70.2645 224.153 70.6089 224.292 70.9285 224.494C71.2517 224.697 71.5162 224.986 71.7222 225.363C71.9282 225.735 72.0311 226.22 72.0311 226.817V232.25H70.4757V231.131H70.4118C70.3088 231.337 70.1544 231.54 69.9484 231.739C69.7424 231.937 69.4779 232.103 69.1547 232.234C68.8316 232.365 68.4445 232.431 67.9935 232.431ZM68.3397 231.153C68.7801 231.153 69.1565 231.066 69.469 230.892C69.785 230.718 70.0248 230.49 70.1881 230.21C70.355 229.926 70.4385 229.622 70.4385 229.299V228.244C70.3816 228.301 70.2716 228.354 70.1082 228.404C69.9484 228.45 69.7655 228.491 69.5596 228.527C69.3536 228.559 69.1529 228.589 68.9576 228.617C68.7623 228.642 68.599 228.663 68.4676 228.681C68.1586 228.72 67.8763 228.786 67.6206 228.878C67.3685 228.971 67.1661 229.104 67.0134 229.278C66.8642 229.448 66.7897 229.675 66.7897 229.96C66.7897 230.354 66.9353 230.652 67.2265 230.854C67.5176 231.053 67.8887 231.153 68.3397 231.153ZM74.3553 232.25V221.341H75.948V225.395H76.0439C76.1362 225.224 76.2694 225.027 76.4434 224.803C76.6174 224.58 76.8589 224.384 77.1678 224.217C77.4768 224.047 77.8852 223.962 78.393 223.962C79.0535 223.962 79.643 224.129 80.1615 224.462C80.6799 224.796 81.0865 225.277 81.3813 225.906C81.6796 226.534 81.8287 227.291 81.8287 228.175C81.8287 229.059 81.6813 229.817 81.3866 230.45C81.0918 231.078 80.687 231.563 80.1721 231.904C79.6572 232.241 79.0695 232.41 78.409 232.41C77.9118 232.41 77.5052 232.326 77.1892 232.159C76.8767 231.993 76.6316 231.797 76.4541 231.574C76.2765 231.35 76.1398 231.151 76.0439 230.977H75.9107V232.25H74.3553ZM75.9161 228.159C75.9161 228.734 75.9995 229.239 76.1664 229.672C76.3333 230.105 76.5748 230.444 76.8909 230.689C77.2069 230.931 77.594 231.051 78.0521 231.051C78.5279 231.051 78.9257 230.925 79.2453 230.673C79.5649 230.418 79.8063 230.071 79.9697 229.635C80.1366 229.198 80.22 228.706 80.22 228.159C80.22 227.619 80.1384 227.135 79.975 226.705C79.8152 226.275 79.5737 225.936 79.2506 225.688C78.931 225.439 78.5315 225.315 78.0521 225.315C77.5904 225.315 77.1998 225.434 76.8802 225.672C76.5642 225.909 76.3244 226.241 76.1611 226.668C75.9977 227.094 75.9161 227.591 75.9161 228.159ZM87.2184 232.415C86.4123 232.415 85.7181 232.243 85.1357 231.898C84.5569 231.55 84.1094 231.062 83.7934 230.434C83.4809 229.801 83.3246 229.061 83.3246 228.212C83.3246 227.374 83.4809 226.636 83.7934 225.996C84.1094 225.357 84.5498 224.858 85.1144 224.5C85.6826 224.141 86.3466 223.962 87.1066 223.962C87.5682 223.962 88.0157 224.038 88.4489 224.191C88.8821 224.343 89.271 224.583 89.6154 224.91C89.9599 225.237 90.2316 225.661 90.4304 226.183C90.6293 226.701 90.7287 227.332 90.7287 228.074V228.638H84.2248V227.445H89.168C89.168 227.026 89.0828 226.655 88.9123 226.332C88.7419 226.005 88.5022 225.748 88.1932 225.56C87.8878 225.371 87.5292 225.277 87.1172 225.277C86.6698 225.277 86.2792 225.387 85.9453 225.608C85.6151 225.824 85.3594 226.108 85.1783 226.46C85.0007 226.808 84.912 227.186 84.912 227.594V228.527C84.912 229.074 85.0078 229.539 85.1996 229.922C85.3949 230.306 85.6666 230.599 86.0146 230.801C86.3626 231 86.7692 231.099 87.2344 231.099C87.5363 231.099 87.8115 231.057 88.0601 230.972C88.3086 230.883 88.5235 230.751 88.7046 230.577C88.8857 230.403 89.0242 230.189 89.1201 229.933L90.6275 230.205C90.5068 230.648 90.2902 231.037 89.9777 231.371C89.6687 231.701 89.2799 231.959 88.8111 232.143C88.3459 232.325 87.815 232.415 87.2184 232.415ZM94.1635 221.341V232.25H92.5709V221.341H94.1635Z" fill="#34393E"/>
<g filter="url(#filter0_d_4763_31114)">
<rect x="56" y="248.75" width="470" height="50.75" rx="5" fill="#F8F9FD" shape-rendering="crispEdges"/>
<rect x="56.625" y="249.375" width="468.75" height="49.5" rx="4.375" stroke="#D3D8DD" stroke-width="1.25" shape-rendering="crispEdges"/>
<path d="M72.3983 280.75V268.023H76.9348C77.925 268.023 78.7453 268.203 79.3958 268.563C80.0462 268.924 80.533 269.417 80.8562 270.042C81.1793 270.664 81.3409 271.364 81.3409 272.143C81.3409 272.926 81.1773 273.63 80.85 274.256C80.5268 274.877 80.0379 275.37 79.3833 275.735C78.7329 276.095 77.9147 276.276 76.9286 276.276H73.8089V274.647H76.7546C77.3802 274.647 77.8877 274.54 78.2772 274.324C78.6666 274.105 78.9525 273.806 79.1348 273.429C79.3171 273.052 79.4082 272.624 79.4082 272.143C79.4082 271.662 79.3171 271.236 79.1348 270.863C78.9525 270.49 78.6645 270.198 78.271 269.987C77.8815 269.775 77.3678 269.67 76.7298 269.67H74.3185V280.75H72.3983ZM85.3886 268.023V280.75H83.5305V268.023H85.3886ZM90.7537 280.961C90.1489 280.961 89.602 280.849 89.1131 280.626C88.6242 280.398 88.2369 280.068 87.951 279.638C87.6693 279.207 87.5284 278.679 87.5284 278.053C87.5284 277.514 87.632 277.071 87.8392 276.723C88.0463 276.375 88.326 276.099 88.6781 275.896C89.0303 275.693 89.4238 275.54 89.8589 275.437C90.2939 275.333 90.7372 275.254 91.1888 275.2C91.7605 275.134 92.2245 275.08 92.5808 275.039C92.9371 274.993 93.196 274.921 93.3576 274.821C93.5192 274.722 93.6 274.56 93.6 274.337V274.293C93.6 273.75 93.4467 273.33 93.1401 273.032C92.8377 272.733 92.3861 272.584 91.7854 272.584C91.1598 272.584 90.6667 272.723 90.3063 273.001C89.95 273.274 89.7035 273.578 89.5668 273.914L87.8205 273.516C88.0277 272.936 88.3301 272.468 88.7278 272.112C89.1297 271.751 89.5916 271.49 90.1137 271.329C90.6357 271.163 91.1846 271.08 91.7605 271.08C92.1416 271.08 92.5456 271.126 92.9723 271.217C93.4032 271.304 93.8051 271.466 94.1779 271.702C94.5549 271.938 94.8636 272.276 95.1039 272.715C95.3442 273.15 95.4643 273.715 95.4643 274.411V280.75H93.6497V279.445H93.5751C93.455 279.685 93.2748 279.921 93.0345 280.153C92.7942 280.385 92.4855 280.578 92.1085 280.731C91.7315 280.885 91.2799 280.961 90.7537 280.961ZM91.1577 279.47C91.6714 279.47 92.1106 279.368 92.4752 279.165C92.8439 278.962 93.1235 278.697 93.3141 278.37C93.5088 278.038 93.6062 277.684 93.6062 277.307V276.077C93.5399 276.143 93.4115 276.205 93.2209 276.263C93.0345 276.317 92.8211 276.365 92.5808 276.406C92.3405 276.443 92.1064 276.479 91.8786 276.512C91.6507 276.541 91.4601 276.566 91.3068 276.586C90.9464 276.632 90.617 276.709 90.3187 276.816C90.0246 276.924 89.7884 277.079 89.6103 277.282C89.4363 277.481 89.3493 277.746 89.3493 278.078C89.3493 278.538 89.5191 278.886 89.8589 279.122C90.1986 279.354 90.6315 279.47 91.1577 279.47ZM102.048 280.943C101.124 280.943 100.328 280.733 99.6612 280.315C98.9983 279.892 98.4887 279.31 98.1324 278.569C97.7761 277.827 97.5979 276.978 97.5979 276.021C97.5979 275.051 97.7802 274.196 98.1448 273.454C98.5094 272.708 99.0231 272.126 99.686 271.708C100.349 271.289 101.13 271.08 102.029 271.08C102.754 271.08 103.4 271.215 103.968 271.484C104.535 271.749 104.993 272.122 105.341 272.603C105.693 273.083 105.903 273.645 105.969 274.287H104.16C104.061 273.839 103.833 273.454 103.477 273.131C103.125 272.808 102.652 272.646 102.06 272.646C101.542 272.646 101.088 272.783 100.699 273.056C100.314 273.326 100.013 273.711 99.7979 274.212C99.5824 274.71 99.4747 275.298 99.4747 275.977C99.4747 276.673 99.5804 277.274 99.7917 277.779C100.003 278.285 100.301 278.676 100.687 278.954C101.076 279.232 101.534 279.37 102.06 279.37C102.412 279.37 102.731 279.306 103.017 279.178C103.307 279.045 103.549 278.857 103.744 278.612C103.943 278.368 104.082 278.074 104.16 277.73H105.969C105.903 278.347 105.702 278.898 105.366 279.383C105.03 279.868 104.581 280.249 104.018 280.526C103.458 280.804 102.802 280.943 102.048 280.943ZM112.157 280.943C111.217 280.943 110.407 280.742 109.728 280.34C109.052 279.934 108.53 279.364 108.162 278.631C107.797 277.893 107.615 277.03 107.615 276.039C107.615 275.062 107.797 274.2 108.162 273.454C108.53 272.708 109.044 272.126 109.703 271.708C110.366 271.289 111.14 271.08 112.027 271.08C112.566 271.08 113.088 271.169 113.593 271.347C114.098 271.526 114.552 271.805 114.954 272.186C115.356 272.568 115.673 273.063 115.905 273.672C116.137 274.277 116.253 275.012 116.253 275.878V276.537H108.665V275.145H114.432C114.432 274.656 114.333 274.223 114.134 273.846C113.935 273.465 113.655 273.164 113.295 272.945C112.938 272.725 112.52 272.615 112.039 272.615C111.517 272.615 111.062 272.744 110.672 273.001C110.287 273.253 109.989 273.585 109.777 273.995C109.57 274.401 109.467 274.842 109.467 275.319V276.406C109.467 277.044 109.578 277.587 109.802 278.034C110.03 278.482 110.347 278.824 110.753 279.06C111.159 279.292 111.633 279.408 112.176 279.408C112.528 279.408 112.849 279.358 113.139 279.259C113.429 279.155 113.68 279.002 113.891 278.799C114.103 278.596 114.264 278.345 114.376 278.047L116.135 278.364C115.994 278.882 115.741 279.335 115.377 279.725C115.016 280.11 114.562 280.41 114.016 280.626C113.473 280.837 112.853 280.943 112.157 280.943ZM120.26 275.082V280.75H118.402V268.023H120.235V272.758H120.353C120.577 272.244 120.919 271.836 121.379 271.534C121.839 271.231 122.439 271.08 123.181 271.08C123.835 271.08 124.407 271.215 124.896 271.484C125.389 271.753 125.77 272.155 126.04 272.69C126.313 273.22 126.45 273.883 126.45 274.678V280.75H124.592V274.902C124.592 274.202 124.411 273.659 124.051 273.274C123.69 272.885 123.189 272.69 122.547 272.69C122.108 272.69 121.714 272.783 121.366 272.969C121.022 273.156 120.751 273.429 120.552 273.79C120.357 274.146 120.26 274.577 120.26 275.082ZM133.038 280.943C132.143 280.943 131.362 280.738 130.695 280.327C130.028 279.917 129.51 279.343 129.141 278.606C128.772 277.869 128.588 277.007 128.588 276.021C128.588 275.031 128.772 274.165 129.141 273.423C129.51 272.682 130.028 272.106 130.695 271.695C131.362 271.285 132.143 271.08 133.038 271.08C133.932 271.08 134.713 271.285 135.38 271.695C136.047 272.106 136.565 272.682 136.934 273.423C137.303 274.165 137.487 275.031 137.487 276.021C137.487 277.007 137.303 277.869 136.934 278.606C136.565 279.343 136.047 279.917 135.38 280.327C134.713 280.738 133.932 280.943 133.038 280.943ZM133.044 279.383C133.624 279.383 134.104 279.23 134.486 278.923C134.867 278.616 135.148 278.208 135.331 277.699C135.517 277.189 135.61 276.628 135.61 276.015C135.61 275.406 135.517 274.846 135.331 274.337C135.148 273.823 134.867 273.411 134.486 273.1C134.104 272.789 133.624 272.634 133.044 272.634C132.46 272.634 131.975 272.789 131.59 273.1C131.208 273.411 130.925 273.823 130.738 274.337C130.556 274.846 130.465 275.406 130.465 276.015C130.465 276.628 130.556 277.189 130.738 277.699C130.925 278.208 131.208 278.616 131.59 278.923C131.975 279.23 132.46 279.383 133.044 279.383ZM141.507 268.023V280.75H139.649V268.023H141.507ZM147.667 280.936C146.897 280.936 146.209 280.74 145.604 280.346C145.004 279.948 144.531 279.383 144.187 278.65C143.848 277.912 143.678 277.028 143.678 275.996C143.678 274.964 143.85 274.082 144.194 273.349C144.542 272.615 145.018 272.054 145.623 271.664C146.228 271.275 146.913 271.08 147.68 271.08C148.272 271.08 148.749 271.18 149.109 271.379C149.474 271.573 149.756 271.801 149.954 272.062C150.157 272.323 150.315 272.553 150.427 272.752H150.539V268.023H152.397V280.75H150.582V279.265H150.427C150.315 279.468 150.153 279.7 149.942 279.961C149.735 280.222 149.449 280.45 149.084 280.644C148.72 280.839 148.247 280.936 147.667 280.936ZM148.078 279.352C148.612 279.352 149.064 279.211 149.432 278.929C149.805 278.643 150.087 278.248 150.278 277.742C150.472 277.237 150.57 276.648 150.57 275.977C150.57 275.314 150.474 274.734 150.284 274.237C150.093 273.74 149.814 273.353 149.445 273.075C149.076 272.798 148.62 272.659 148.078 272.659C147.518 272.659 147.052 272.804 146.679 273.094C146.306 273.384 146.025 273.779 145.834 274.281C145.648 274.782 145.555 275.348 145.555 275.977C145.555 276.615 145.65 277.189 145.84 277.699C146.031 278.208 146.313 278.612 146.686 278.911C147.063 279.205 147.527 279.352 148.078 279.352ZM159.25 280.943C158.31 280.943 157.5 280.742 156.82 280.34C156.145 279.934 155.623 279.364 155.254 278.631C154.89 277.893 154.707 277.03 154.707 276.039C154.707 275.062 154.89 274.2 155.254 273.454C155.623 272.708 156.137 272.126 156.795 271.708C157.458 271.289 158.233 271.08 159.12 271.08C159.658 271.08 160.18 271.169 160.686 271.347C161.191 271.526 161.645 271.805 162.047 272.186C162.449 272.568 162.766 273.063 162.998 273.672C163.23 274.277 163.346 275.012 163.346 275.878V276.537H155.758V275.145H161.525C161.525 274.656 161.425 274.223 161.226 273.846C161.028 273.465 160.748 273.164 160.387 272.945C160.031 272.725 159.613 272.615 159.132 272.615C158.61 272.615 158.154 272.744 157.765 273.001C157.38 273.253 157.081 273.585 156.87 273.995C156.663 274.401 156.559 274.842 156.559 275.319V276.406C156.559 277.044 156.671 277.587 156.895 278.034C157.123 278.482 157.44 278.824 157.846 279.06C158.252 279.292 158.726 279.408 159.269 279.408C159.621 279.408 159.942 279.358 160.232 279.259C160.522 279.155 160.773 279.002 160.984 278.799C161.195 278.596 161.357 278.345 161.469 278.047L163.227 278.364C163.087 278.882 162.834 279.335 162.469 279.725C162.109 280.11 161.655 280.41 161.108 280.626C160.566 280.837 159.946 280.943 159.25 280.943ZM165.495 280.75V271.205H167.291V272.721H167.39C167.564 272.207 167.871 271.803 168.31 271.509C168.753 271.211 169.254 271.062 169.814 271.062C169.93 271.062 170.067 271.066 170.224 271.074C170.386 271.082 170.512 271.093 170.603 271.105V272.882C170.528 272.862 170.396 272.839 170.205 272.814C170.015 272.785 169.824 272.771 169.634 272.771C169.194 272.771 168.803 272.864 168.459 273.05C168.119 273.233 167.85 273.487 167.651 273.815C167.452 274.138 167.353 274.507 167.353 274.921V280.75H165.495ZM181.473 271.205V272.696H176.259V271.205H181.473ZM177.657 268.918H179.516V277.947C179.516 278.308 179.569 278.579 179.677 278.761C179.785 278.94 179.924 279.062 180.094 279.128C180.268 279.19 180.456 279.221 180.659 279.221C180.808 279.221 180.939 279.211 181.051 279.19C181.162 279.169 181.249 279.153 181.312 279.14L181.647 280.675C181.539 280.717 181.386 280.758 181.187 280.8C180.988 280.845 180.74 280.87 180.442 280.874C179.953 280.883 179.497 280.796 179.074 280.613C178.652 280.431 178.31 280.149 178.049 279.768C177.788 279.387 177.657 278.908 177.657 278.333V268.918ZM187.628 280.943C186.687 280.943 185.877 280.742 185.198 280.34C184.522 279.934 184 279.364 183.632 278.631C183.267 277.893 183.085 277.03 183.085 276.039C183.085 275.062 183.267 274.2 183.632 273.454C184 272.708 184.514 272.126 185.173 271.708C185.836 271.289 186.61 271.08 187.497 271.08C188.036 271.08 188.558 271.169 189.063 271.347C189.569 271.526 190.022 271.805 190.424 272.186C190.826 272.568 191.143 273.063 191.375 273.672C191.607 274.277 191.723 275.012 191.723 275.878V276.537H184.135V275.145H189.902C189.902 274.656 189.803 274.223 189.604 273.846C189.405 273.465 189.125 273.164 188.765 272.945C188.409 272.725 187.99 272.615 187.509 272.615C186.987 272.615 186.532 272.744 186.142 273.001C185.757 273.253 185.459 273.585 185.247 273.995C185.04 274.401 184.937 274.842 184.937 275.319V276.406C184.937 277.044 185.049 277.587 185.272 278.034C185.5 278.482 185.817 278.824 186.223 279.06C186.629 279.292 187.103 279.408 187.646 279.408C187.998 279.408 188.319 279.358 188.609 279.259C188.899 279.155 189.15 279.002 189.361 278.799C189.573 278.596 189.734 278.345 189.846 278.047L191.605 278.364C191.464 278.882 191.211 279.335 190.847 279.725C190.486 280.11 190.033 280.41 189.486 280.626C188.943 280.837 188.324 280.943 187.628 280.943ZM195.117 271.205L197.223 274.921L199.349 271.205H201.381L198.404 275.977L201.406 280.75H199.373L197.223 277.183L195.079 280.75H193.041L196.011 275.977L193.078 271.205H195.117ZM207.832 271.205V272.696H202.618V271.205H207.832ZM204.016 268.918H205.874V277.947C205.874 278.308 205.928 278.579 206.036 278.761C206.144 278.94 206.282 279.062 206.452 279.128C206.626 279.19 206.815 279.221 207.018 279.221C207.167 279.221 207.297 279.211 207.409 279.19C207.521 279.169 207.608 279.153 207.67 279.14L208.006 280.675C207.898 280.717 207.745 280.758 207.546 280.8C207.347 280.845 207.099 280.87 206.8 280.874C206.311 280.883 205.856 280.796 205.433 280.613C205.01 280.431 204.669 280.149 204.408 279.768C204.147 279.387 204.016 278.908 204.016 278.333V268.918Z" fill="#9B9C9E"/>
<path d="M504.861 274.25C504.861 275.694 503.695 276.86 502.251 276.86C500.807 276.86 499.641 275.694 499.641 274.25C499.641 272.806 500.807 271.64 502.251 271.64C503.695 271.64 504.861 272.806 504.861 274.25Z" stroke="#9B9C9E" stroke-width="1.875" stroke-linecap="round" stroke-linejoin="round"/>
<path d="M502.252 280.28C504.826 280.28 507.225 278.763 508.895 276.138C509.551 275.11 509.551 273.382 508.895 272.354C507.225 269.729 504.826 268.212 502.252 268.212C499.678 268.212 497.279 269.729 495.609 272.354C494.953 273.382 494.953 275.11 495.609 276.138C497.279 278.763 499.678 280.28 502.252 280.28Z" stroke="#9B9C9E" stroke-width="1.875" stroke-linecap="round" stroke-linejoin="round"/>
</g>
<path d="M57.1985 363.5V352.591H58.8445V362.083H63.7876V363.5H57.1985ZM67.9935 363.681C67.475 363.681 67.0063 363.585 66.5873 363.393C66.1682 363.198 65.8362 362.916 65.5912 362.547C65.3497 362.177 65.2289 361.724 65.2289 361.188C65.2289 360.727 65.3177 360.347 65.4953 360.048C65.6728 359.75 65.9125 359.514 66.2144 359.34C66.5162 359.166 66.8536 359.034 67.2265 358.946C67.5993 358.857 67.9793 358.789 68.3664 358.743C68.8564 358.686 69.2542 358.64 69.5596 358.605C69.865 358.566 70.0869 358.504 70.2254 358.418C70.3639 358.333 70.4331 358.195 70.4331 358.003V357.966C70.4331 357.5 70.3017 357.14 70.039 356.884C69.7797 356.629 69.3926 356.501 68.8777 356.501C68.3415 356.501 67.9189 356.62 67.61 356.858C67.3046 357.092 67.0933 357.353 66.9761 357.641L65.4793 357.3C65.6569 356.803 65.9161 356.401 66.257 356.096C66.6015 355.787 66.9974 355.563 67.4449 355.425C67.8923 355.283 68.3628 355.212 68.8564 355.212C69.1831 355.212 69.5294 355.251 69.8951 355.329C70.2645 355.403 70.6089 355.542 70.9285 355.744C71.2517 355.947 71.5162 356.236 71.7222 356.613C71.9282 356.985 72.0311 357.47 72.0311 358.067V363.5H70.4757V362.381H70.4118C70.3088 362.587 70.1544 362.79 69.9484 362.989C69.7424 363.187 69.4779 363.353 69.1547 363.484C68.8316 363.615 68.4445 363.681 67.9935 363.681ZM68.3397 362.403C68.7801 362.403 69.1565 362.316 69.469 362.142C69.785 361.968 70.0248 361.74 70.1881 361.46C70.355 361.176 70.4385 360.872 70.4385 360.549V359.494C70.3816 359.551 70.2716 359.604 70.1082 359.654C69.9484 359.7 69.7655 359.741 69.5596 359.777C69.3536 359.809 69.1529 359.839 68.9576 359.867C68.7623 359.892 68.599 359.913 68.4676 359.931C68.1586 359.97 67.8763 360.036 67.6206 360.128C67.3685 360.221 67.1661 360.354 67.0134 360.528C66.8642 360.698 66.7897 360.925 66.7897 361.21C66.7897 361.604 66.9353 361.902 67.2265 362.104C67.5176 362.303 67.8887 362.403 68.3397 362.403ZM74.3553 363.5V352.591H75.948V356.645H76.0439C76.1362 356.474 76.2694 356.277 76.4434 356.053C76.6174 355.83 76.8589 355.634 77.1678 355.467C77.4768 355.297 77.8852 355.212 78.393 355.212C79.0535 355.212 79.643 355.379 80.1615 355.712C80.6799 356.046 81.0865 356.527 81.3813 357.156C81.6796 357.784 81.8287 358.541 81.8287 359.425C81.8287 360.309 81.6813 361.067 81.3866 361.7C81.0918 362.328 80.687 362.813 80.1721 363.154C79.6572 363.491 79.0695 363.66 78.409 363.66C77.9118 363.66 77.5052 363.576 77.1892 363.409C76.8767 363.243 76.6316 363.047 76.4541 362.824C76.2765 362.6 76.1398 362.401 76.0439 362.227H75.9107V363.5H74.3553ZM75.9161 359.409C75.9161 359.984 75.9995 360.489 76.1664 360.922C76.3333 361.355 76.5748 361.694 76.8909 361.939C77.2069 362.181 77.594 362.301 78.0521 362.301C78.5279 362.301 78.9257 362.175 79.2453 361.923C79.5649 361.668 79.8063 361.321 79.9697 360.885C80.1366 360.448 80.22 359.956 80.22 359.409C80.22 358.869 80.1384 358.385 79.975 357.955C79.8152 357.525 79.5737 357.186 79.2506 356.938C78.931 356.689 78.5315 356.565 78.0521 356.565C77.5904 356.565 77.1998 356.684 76.8802 356.922C76.5642 357.159 76.3244 357.491 76.1611 357.918C75.9977 358.344 75.9161 358.841 75.9161 359.409ZM87.2184 363.665C86.4123 363.665 85.7181 363.493 85.1357 363.148C84.5569 362.8 84.1094 362.312 83.7934 361.684C83.4809 361.051 83.3246 360.311 83.3246 359.462C83.3246 358.624 83.4809 357.886 83.7934 357.246C84.1094 356.607 84.5498 356.108 85.1144 355.75C85.6826 355.391 86.3466 355.212 87.1066 355.212C87.5682 355.212 88.0157 355.288 88.4489 355.441C88.8821 355.593 89.271 355.833 89.6154 356.16C89.9599 356.487 90.2316 356.911 90.4304 357.433C90.6293 357.951 90.7287 358.582 90.7287 359.324V359.888H84.2248V358.695H89.168C89.168 358.276 89.0828 357.905 88.9123 357.582C88.7419 357.255 88.5022 356.998 88.1932 356.81C87.8878 356.621 87.5292 356.527 87.1172 356.527C86.6698 356.527 86.2792 356.637 85.9453 356.858C85.6151 357.074 85.3594 357.358 85.1783 357.71C85.0007 358.058 84.912 358.436 84.912 358.844V359.777C84.912 360.324 85.0078 360.789 85.1996 361.172C85.3949 361.556 85.6666 361.849 86.0146 362.051C86.3626 362.25 86.7692 362.349 87.2344 362.349C87.5363 362.349 87.8115 362.307 88.0601 362.222C88.3086 362.133 88.5235 362.001 88.7046 361.827C88.8857 361.653 89.0242 361.439 89.1201 361.183L90.6275 361.455C90.5068 361.898 90.2902 362.287 89.9777 362.621C89.6687 362.951 89.2799 363.209 88.8111 363.393C88.3459 363.575 87.815 363.665 87.2184 363.665ZM94.1635 352.591V363.5H92.5709V352.591H94.1635Z" fill="#34393E"/>
<g filter="url(#filter1_d_4763_31114)">
<rect x="56" y="380" width="470" height="50.75" rx="5" fill="#F8F9FD" shape-rendering="crispEdges"/>
<rect x="56.625" y="380.625" width="468.75" height="49.5" rx="4.375" stroke="#0085FE" stroke-width="1.25" shape-rendering="crispEdges"/>
<path d="M72.3983 412V399.273H76.9348C77.925 399.273 78.7453 399.453 79.3958 399.813C80.0462 400.174 80.533 400.667 80.8562 401.292C81.1793 401.914 81.3409 402.614 81.3409 403.393C81.3409 404.176 81.1773 404.88 80.85 405.506C80.5268 406.127 80.0379 406.62 79.3833 406.985C78.7329 407.345 77.9147 407.526 76.9286 407.526H73.8089V405.897H76.7546C77.3802 405.897 77.8877 405.79 78.2772 405.574C78.6666 405.355 78.9525 405.056 79.1348 404.679C79.3171 404.302 79.4082 403.874 79.4082 403.393C79.4082 402.912 79.3171 402.486 79.1348 402.113C78.9525 401.74 78.6645 401.448 78.271 401.237C77.8815 401.025 77.3678 400.92 76.7298 400.92H74.3185V412H72.3983ZM85.3886 399.273V412H83.5305V399.273H85.3886ZM90.7537 412.211C90.1489 412.211 89.602 412.099 89.1131 411.876C88.6242 411.648 88.2369 411.318 87.951 410.888C87.6693 410.457 87.5284 409.929 87.5284 409.303C87.5284 408.764 87.632 408.321 87.8392 407.973C88.0463 407.625 88.326 407.349 88.6781 407.146C89.0303 406.943 89.4238 406.79 89.8589 406.687C90.2939 406.583 90.7372 406.504 91.1888 406.45C91.7605 406.384 92.2245 406.33 92.5808 406.289C92.9371 406.243 93.196 406.171 93.3576 406.071C93.5192 405.972 93.6 405.81 93.6 405.587V405.543C93.6 405 93.4467 404.58 93.1401 404.282C92.8377 403.983 92.3861 403.834 91.7854 403.834C91.1598 403.834 90.6667 403.973 90.3063 404.251C89.95 404.524 89.7035 404.828 89.5668 405.164L87.8205 404.766C88.0277 404.186 88.3301 403.718 88.7278 403.362C89.1297 403.001 89.5916 402.74 90.1137 402.579C90.6357 402.413 91.1846 402.33 91.7605 402.33C92.1416 402.33 92.5456 402.376 92.9723 402.467C93.4032 402.554 93.8051 402.716 94.1779 402.952C94.5549 403.188 94.8636 403.526 95.1039 403.965C95.3442 404.4 95.4643 404.965 95.4643 405.661V412H93.6497V410.695H93.5751C93.455 410.935 93.2748 411.171 93.0345 411.403C92.7942 411.635 92.4855 411.828 92.1085 411.981C91.7315 412.135 91.2799 412.211 90.7537 412.211ZM91.1577 410.72C91.6714 410.72 92.1106 410.618 92.4752 410.415C92.8439 410.212 93.1235 409.947 93.3141 409.62C93.5088 409.288 93.6062 408.934 93.6062 408.557V407.327C93.5399 407.393 93.4115 407.455 93.2209 407.513C93.0345 407.567 92.8211 407.615 92.5808 407.656C92.3405 407.693 92.1064 407.729 91.8786 407.762C91.6507 407.791 91.4601 407.816 91.3068 407.836C90.9464 407.882 90.617 407.959 90.3187 408.066C90.0246 408.174 89.7884 408.329 89.6103 408.532C89.4363 408.731 89.3493 408.996 89.3493 409.328C89.3493 409.788 89.5191 410.136 89.8589 410.372C90.1986 410.604 90.6315 410.72 91.1577 410.72ZM102.048 412.193C101.124 412.193 100.328 411.983 99.6612 411.565C98.9983 411.142 98.4887 410.56 98.1324 409.819C97.7761 409.077 97.5979 408.228 97.5979 407.271C97.5979 406.301 97.7802 405.446 98.1448 404.704C98.5094 403.958 99.0231 403.376 99.686 402.958C100.349 402.539 101.13 402.33 102.029 402.33C102.754 402.33 103.4 402.465 103.968 402.734C104.535 402.999 104.993 403.372 105.341 403.853C105.693 404.333 105.903 404.895 105.969 405.537H104.16C104.061 405.089 103.833 404.704 103.477 404.381C103.125 404.058 102.652 403.896 102.06 403.896C101.542 403.896 101.088 404.033 100.699 404.306C100.314 404.576 100.013 404.961 99.7979 405.462C99.5824 405.96 99.4747 406.548 99.4747 407.227C99.4747 407.923 99.5804 408.524 99.7917 409.029C100.003 409.535 100.301 409.926 100.687 410.204C101.076 410.482 101.534 410.62 102.06 410.62C102.412 410.62 102.731 410.556 103.017 410.428C103.307 410.295 103.549 410.107 103.744 409.862C103.943 409.618 104.082 409.324 104.16 408.98H105.969C105.903 409.597 105.702 410.148 105.366 410.633C105.03 411.118 104.581 411.499 104.018 411.776C103.458 412.054 102.802 412.193 102.048 412.193ZM112.157 412.193C111.217 412.193 110.407 411.992 109.728 411.59C109.052 411.184 108.53 410.614 108.162 409.881C107.797 409.143 107.615 408.28 107.615 407.289C107.615 406.312 107.797 405.45 108.162 404.704C108.53 403.958 109.044 403.376 109.703 402.958C110.366 402.539 111.14 402.33 112.027 402.33C112.566 402.33 113.088 402.419 113.593 402.597C114.098 402.776 114.552 403.055 114.954 403.436C115.356 403.818 115.673 404.313 115.905 404.922C116.137 405.527 116.253 406.262 116.253 407.128V407.787H108.665V406.395H114.432C114.432 405.906 114.333 405.473 114.134 405.096C113.935 404.715 113.655 404.414 113.295 404.195C112.938 403.975 112.52 403.865 112.039 403.865C111.517 403.865 111.062 403.994 110.672 404.251C110.287 404.503 109.989 404.835 109.777 405.245C109.57 405.651 109.467 406.092 109.467 406.569V407.656C109.467 408.294 109.578 408.837 109.802 409.284C110.03 409.732 110.347 410.074 110.753 410.31C111.159 410.542 111.633 410.658 112.176 410.658C112.528 410.658 112.849 410.608 113.139 410.509C113.429 410.405 113.68 410.252 113.891 410.049C114.103 409.846 114.264 409.595 114.376 409.297L116.135 409.614C115.994 410.132 115.741 410.585 115.377 410.975C115.016 411.36 114.562 411.66 114.016 411.876C113.473 412.087 112.853 412.193 112.157 412.193ZM120.26 406.332V412H118.402V399.273H120.235V404.008H120.353C120.577 403.494 120.919 403.086 121.379 402.784C121.839 402.481 122.439 402.33 123.181 402.33C123.835 402.33 124.407 402.465 124.896 402.734C125.389 403.003 125.77 403.405 126.04 403.94C126.313 404.47 126.45 405.133 126.45 405.928V412H124.592V406.152C124.592 405.452 124.411 404.909 124.051 404.524C123.69 404.135 123.189 403.94 122.547 403.94C122.108 403.94 121.714 404.033 121.366 404.219C121.022 404.406 120.751 404.679 120.552 405.04C120.357 405.396 120.26 405.827 120.26 406.332ZM133.038 412.193C132.143 412.193 131.362 411.988 130.695 411.577C130.028 411.167 129.51 410.593 129.141 409.856C128.772 409.119 128.588 408.257 128.588 407.271C128.588 406.281 128.772 405.415 129.141 404.673C129.51 403.932 130.028 403.356 130.695 402.945C131.362 402.535 132.143 402.33 133.038 402.33C133.932 402.33 134.713 402.535 135.38 402.945C136.047 403.356 136.565 403.932 136.934 404.673C137.303 405.415 137.487 406.281 137.487 407.271C137.487 408.257 137.303 409.119 136.934 409.856C136.565 410.593 136.047 411.167 135.38 411.577C134.713 411.988 133.932 412.193 133.038 412.193ZM133.044 410.633C133.624 410.633 134.104 410.48 134.486 410.173C134.867 409.866 135.148 409.458 135.331 408.949C135.517 408.439 135.61 407.878 135.61 407.265C135.61 406.656 135.517 406.096 135.331 405.587C135.148 405.073 134.867 404.661 134.486 404.35C134.104 404.039 133.624 403.884 133.044 403.884C132.46 403.884 131.975 404.039 131.59 404.35C131.208 404.661 130.925 405.073 130.738 405.587C130.556 406.096 130.465 406.656 130.465 407.265C130.465 407.878 130.556 408.439 130.738 408.949C130.925 409.458 131.208 409.866 131.59 410.173C131.975 410.48 132.46 410.633 133.044 410.633ZM141.507 399.273V412H139.649V399.273H141.507ZM147.667 412.186C146.897 412.186 146.209 411.99 145.604 411.596C145.004 411.198 144.531 410.633 144.187 409.9C143.848 409.162 143.678 408.278 143.678 407.246C143.678 406.214 143.85 405.332 144.194 404.599C144.542 403.865 145.018 403.304 145.623 402.914C146.228 402.525 146.913 402.33 147.68 402.33C148.272 402.33 148.749 402.43 149.109 402.629C149.474 402.823 149.756 403.051 149.954 403.312C150.157 403.573 150.315 403.803 150.427 404.002H150.539V399.273H152.397V412H150.582V410.515H150.427C150.315 410.718 150.153 410.95 149.942 411.211C149.735 411.472 149.449 411.7 149.084 411.894C148.72 412.089 148.247 412.186 147.667 412.186ZM148.078 410.602C148.612 410.602 149.064 410.461 149.432 410.179C149.805 409.893 150.087 409.498 150.278 408.992C150.472 408.487 150.57 407.898 150.57 407.227C150.57 406.564 150.474 405.984 150.284 405.487C150.093 404.99 149.814 404.603 149.445 404.325C149.076 404.048 148.62 403.909 148.078 403.909C147.518 403.909 147.052 404.054 146.679 404.344C146.306 404.634 146.025 405.029 145.834 405.531C145.648 406.032 145.555 406.598 145.555 407.227C145.555 407.865 145.65 408.439 145.84 408.949C146.031 409.458 146.313 409.862 146.686 410.161C147.063 410.455 147.527 410.602 148.078 410.602ZM159.25 412.193C158.31 412.193 157.5 411.992 156.82 411.59C156.145 411.184 155.623 410.614 155.254 409.881C154.89 409.143 154.707 408.28 154.707 407.289C154.707 406.312 154.89 405.45 155.254 404.704C155.623 403.958 156.137 403.376 156.795 402.958C157.458 402.539 158.233 402.33 159.12 402.33C159.658 402.33 160.18 402.419 160.686 402.597C161.191 402.776 161.645 403.055 162.047 403.436C162.449 403.818 162.766 404.313 162.998 404.922C163.23 405.527 163.346 406.262 163.346 407.128V407.787H155.758V406.395H161.525C161.525 405.906 161.425 405.473 161.226 405.096C161.028 404.715 160.748 404.414 160.387 404.195C160.031 403.975 159.613 403.865 159.132 403.865C158.61 403.865 158.154 403.994 157.765 404.251C157.38 404.503 157.081 404.835 156.87 405.245C156.663 405.651 156.559 406.092 156.559 406.569V407.656C156.559 408.294 156.671 408.837 156.895 409.284C157.123 409.732 157.44 410.074 157.846 410.31C158.252 410.542 158.726 410.658 159.269 410.658C159.621 410.658 159.942 410.608 160.232 410.509C160.522 410.405 160.773 410.252 160.984 410.049C161.195 409.846 161.357 409.595 161.469 409.297L163.227 409.614C163.087 410.132 162.834 410.585 162.469 410.975C162.109 411.36 161.655 411.66 161.108 411.876C160.566 412.087 159.946 412.193 159.25 412.193ZM165.495 412V402.455H167.291V403.971H167.39C167.564 403.457 167.871 403.053 168.31 402.759C168.753 402.461 169.254 402.312 169.814 402.312C169.93 402.312 170.067 402.316 170.224 402.324C170.386 402.332 170.512 402.343 170.603 402.355V404.132C170.528 404.112 170.396 404.089 170.205 404.064C170.015 404.035 169.824 404.021 169.634 404.021C169.194 404.021 168.803 404.114 168.459 404.3C168.119 404.483 167.85 404.737 167.651 405.065C167.452 405.388 167.353 405.757 167.353 406.171V412H165.495ZM181.473 402.455V403.946H176.259V402.455H181.473ZM177.657 400.168H179.516V409.197C179.516 409.558 179.569 409.829 179.677 410.011C179.785 410.19 179.924 410.312 180.094 410.378C180.268 410.44 180.456 410.471 180.659 410.471C180.808 410.471 180.939 410.461 181.051 410.44C181.162 410.419 181.249 410.403 181.312 410.39L181.647 411.925C181.539 411.967 181.386 412.008 181.187 412.05C180.988 412.095 180.74 412.12 180.442 412.124C179.953 412.133 179.497 412.046 179.074 411.863C178.652 411.681 178.31 411.399 178.049 411.018C177.788 410.637 177.657 410.158 177.657 409.583V400.168ZM187.628 412.193C186.687 412.193 185.877 411.992 185.198 411.59C184.522 411.184 184 410.614 183.632 409.881C183.267 409.143 183.085 408.28 183.085 407.289C183.085 406.312 183.267 405.45 183.632 404.704C184 403.958 184.514 403.376 185.173 402.958C185.836 402.539 186.61 402.33 187.497 402.33C188.036 402.33 188.558 402.419 189.063 402.597C189.569 402.776 190.022 403.055 190.424 403.436C190.826 403.818 191.143 404.313 191.375 404.922C191.607 405.527 191.723 406.262 191.723 407.128V407.787H184.135V406.395H189.902C189.902 405.906 189.803 405.473 189.604 405.096C189.405 404.715 189.125 404.414 188.765 404.195C188.409 403.975 187.99 403.865 187.509 403.865C186.987 403.865 186.532 403.994 186.142 404.251C185.757 404.503 185.459 404.835 185.247 405.245C185.04 405.651 184.937 406.092 184.937 406.569V407.656C184.937 408.294 185.049 408.837 185.272 409.284C185.5 409.732 185.817 410.074 186.223 410.31C186.629 410.542 187.103 410.658 187.646 410.658C187.998 410.658 188.319 410.608 188.609 410.509C188.899 410.405 189.15 410.252 189.361 410.049C189.573 409.846 189.734 409.595 189.846 409.297L191.605 409.614C191.464 410.132 191.211 410.585 190.847 410.975C190.486 411.36 190.033 411.66 189.486 411.876C188.943 412.087 188.324 412.193 187.628 412.193ZM195.117 402.455L197.223 406.171L199.349 402.455H201.381L198.404 407.227L201.406 412H199.373L197.223 408.433L195.079 412H193.041L196.011 407.227L193.078 402.455H195.117ZM207.832 402.455V403.946H202.618V402.455H207.832ZM204.016 400.168H205.874V409.197C205.874 409.558 205.928 409.829 206.036 410.011C206.144 410.19 206.282 410.312 206.452 410.378C206.626 410.44 206.815 410.471 207.018 410.471C207.167 410.471 207.297 410.461 207.409 410.44C207.521 410.419 207.608 410.403 207.67 410.39L208.006 411.925C207.898 411.967 207.745 412.008 207.546 412.05C207.347 412.095 207.099 412.12 206.8 412.124C206.311 412.133 205.856 412.046 205.433 411.863C205.01 411.681 204.669 411.399 204.408 411.018C204.147 410.637 204.016 410.158 204.016 409.583V400.168Z" fill="#101010"/>
<path d="M504.861 405.5C504.861 406.944 503.695 408.11 502.251 408.11C500.807 408.11 499.641 406.944 499.641 405.5C499.641 404.056 500.807 402.89 502.251 402.89C503.695 402.89 504.861 404.056 504.861 405.5Z" stroke="#101010" stroke-width="1.875" stroke-linecap="round" stroke-linejoin="round"/>
<path d="M502.252 411.53C504.826 411.53 507.225 410.013 508.895 407.388C509.551 406.36 509.551 404.632 508.895 403.604C507.225 400.979 504.826 399.462 502.252 399.462C499.678 399.462 497.279 400.979 495.609 403.604C494.953 404.632 494.953 406.36 495.609 407.388C497.279 410.013 499.678 411.53 502.252 411.53Z" stroke="#101010" stroke-width="1.875" stroke-linecap="round" stroke-linejoin="round"/>
</g>
<path d="M57.1985 494.75V483.841H58.8445V493.333H63.7876V494.75H57.1985ZM67.9935 494.931C67.475 494.931 67.0063 494.835 66.5873 494.643C66.1682 494.448 65.8362 494.166 65.5912 493.797C65.3497 493.427 65.2289 492.974 65.2289 492.438C65.2289 491.977 65.3177 491.597 65.4953 491.298C65.6728 491 65.9125 490.764 66.2144 490.59C66.5162 490.416 66.8536 490.284 67.2265 490.196C67.5993 490.107 67.9793 490.039 68.3664 489.993C68.8564 489.936 69.2542 489.89 69.5596 489.855C69.865 489.816 70.0869 489.754 70.2254 489.668C70.3639 489.583 70.4331 489.445 70.4331 489.253V489.216C70.4331 488.75 70.3017 488.39 70.039 488.134C69.7797 487.879 69.3926 487.751 68.8777 487.751C68.3415 487.751 67.9189 487.87 67.61 488.108C67.3046 488.342 67.0933 488.603 66.9761 488.891L65.4793 488.55C65.6569 488.053 65.9161 487.651 66.257 487.346C66.6015 487.037 66.9974 486.813 67.4449 486.675C67.8923 486.533 68.3628 486.462 68.8564 486.462C69.1831 486.462 69.5294 486.501 69.8951 486.579C70.2645 486.653 70.6089 486.792 70.9285 486.994C71.2517 487.197 71.5162 487.486 71.7222 487.863C71.9282 488.235 72.0311 488.72 72.0311 489.317V494.75H70.4757V493.631H70.4118C70.3088 493.837 70.1544 494.04 69.9484 494.239C69.7424 494.437 69.4779 494.603 69.1547 494.734C68.8316 494.865 68.4445 494.931 67.9935 494.931ZM68.3397 493.653C68.7801 493.653 69.1565 493.566 69.469 493.392C69.785 493.218 70.0248 492.99 70.1881 492.71C70.355 492.426 70.4385 492.122 70.4385 491.799V490.744C70.3816 490.801 70.2716 490.854 70.1082 490.904C69.9484 490.95 69.7655 490.991 69.5596 491.027C69.3536 491.059 69.1529 491.089 68.9576 491.117C68.7623 491.142 68.599 491.163 68.4676 491.181C68.1586 491.22 67.8763 491.286 67.6206 491.378C67.3685 491.471 67.1661 491.604 67.0134 491.778C66.8642 491.948 66.7897 492.175 66.7897 492.46C66.7897 492.854 66.9353 493.152 67.2265 493.354C67.5176 493.553 67.8887 493.653 68.3397 493.653ZM74.3553 494.75V483.841H75.948V487.895H76.0439C76.1362 487.724 76.2694 487.527 76.4434 487.303C76.6174 487.08 76.8589 486.884 77.1678 486.717C77.4768 486.547 77.8852 486.462 78.393 486.462C79.0535 486.462 79.643 486.629 80.1615 486.962C80.6799 487.296 81.0865 487.777 81.3813 488.406C81.6796 489.034 81.8287 489.791 81.8287 490.675C81.8287 491.559 81.6813 492.317 81.3866 492.95C81.0918 493.578 80.687 494.063 80.1721 494.404C79.6572 494.741 79.0695 494.91 78.409 494.91C77.9118 494.91 77.5052 494.826 77.1892 494.659C76.8767 494.493 76.6316 494.297 76.4541 494.074C76.2765 493.85 76.1398 493.651 76.0439 493.477H75.9107V494.75H74.3553ZM75.9161 490.659C75.9161 491.234 75.9995 491.739 76.1664 492.172C76.3333 492.605 76.5748 492.944 76.8909 493.189C77.2069 493.431 77.594 493.551 78.0521 493.551C78.5279 493.551 78.9257 493.425 79.2453 493.173C79.5649 492.918 79.8063 492.571 79.9697 492.135C80.1366 491.698 80.22 491.206 80.22 490.659C80.22 490.119 80.1384 489.635 79.975 489.205C79.8152 488.775 79.5737 488.436 79.2506 488.188C78.931 487.939 78.5315 487.815 78.0521 487.815C77.5904 487.815 77.1998 487.934 76.8802 488.172C76.5642 488.409 76.3244 488.741 76.1611 489.168C75.9977 489.594 75.9161 490.091 75.9161 490.659ZM87.2184 494.915C86.4123 494.915 85.7181 494.743 85.1357 494.398C84.5569 494.05 84.1094 493.562 83.7934 492.934C83.4809 492.301 83.3246 491.561 83.3246 490.712C83.3246 489.874 83.4809 489.136 83.7934 488.496C84.1094 487.857 84.5498 487.358 85.1144 487C85.6826 486.641 86.3466 486.462 87.1066 486.462C87.5682 486.462 88.0157 486.538 88.4489 486.691C88.8821 486.843 89.271 487.083 89.6154 487.41C89.9599 487.737 90.2316 488.161 90.4304 488.683C90.6293 489.201 90.7287 489.832 90.7287 490.574V491.138H84.2248V489.945H89.168C89.168 489.526 89.0828 489.155 88.9123 488.832C88.7419 488.505 88.5022 488.248 88.1932 488.06C87.8878 487.871 87.5292 487.777 87.1172 487.777C86.6698 487.777 86.2792 487.887 85.9453 488.108C85.6151 488.324 85.3594 488.608 85.1783 488.96C85.0007 489.308 84.912 489.686 84.912 490.094V491.027C84.912 491.574 85.0078 492.039 85.1996 492.422C85.3949 492.806 85.6666 493.099 86.0146 493.301C86.3626 493.5 86.7692 493.599 87.2344 493.599C87.5363 493.599 87.8115 493.557 88.0601 493.472C88.3086 493.383 88.5235 493.251 88.7046 493.077C88.8857 492.903 89.0242 492.689 89.1201 492.433L90.6275 492.705C90.5068 493.148 90.2902 493.537 89.9777 493.871C89.6687 494.201 89.2799 494.459 88.8111 494.643C88.3459 494.825 87.815 494.915 87.2184 494.915ZM94.1635 483.841V494.75H92.5709V483.841H94.1635Z" fill="#34393E"/>
<rect x="56.625" y="511.875" width="468.75" height="49.5" rx="4.375" fill="#F8F9FD"/>
<rect x="56.625" y="511.875" width="468.75" height="49.5" rx="4.375" stroke="#D3D8DD" stroke-width="1.25"/>
<path d="M72.3983 543.25V530.523H76.9348C77.925 530.523 78.7453 530.703 79.3958 531.063C80.0462 531.424 80.533 531.917 80.8562 532.542C81.1793 533.164 81.3409 533.864 81.3409 534.643C81.3409 535.426 81.1773 536.13 80.85 536.756C80.5268 537.377 80.0379 537.87 79.3833 538.235C78.7329 538.595 77.9147 538.776 76.9286 538.776H73.8089V537.147H76.7546C77.3802 537.147 77.8877 537.04 78.2772 536.824C78.6666 536.605 78.9525 536.306 79.1348 535.929C79.3171 535.552 79.4082 535.124 79.4082 534.643C79.4082 534.162 79.3171 533.736 79.1348 533.363C78.9525 532.99 78.6645 532.698 78.271 532.487C77.8815 532.275 77.3678 532.17 76.7298 532.17H74.3185V543.25H72.3983ZM85.3886 530.523V543.25H83.5305V530.523H85.3886ZM90.7537 543.461C90.1489 543.461 89.602 543.349 89.1131 543.126C88.6242 542.898 88.2369 542.568 87.951 542.138C87.6693 541.707 87.5284 541.179 87.5284 540.553C87.5284 540.014 87.632 539.571 87.8392 539.223C88.0463 538.875 88.326 538.599 88.6781 538.396C89.0303 538.193 89.4238 538.04 89.8589 537.937C90.2939 537.833 90.7372 537.754 91.1888 537.7C91.7605 537.634 92.2245 537.58 92.5808 537.539C92.9371 537.493 93.196 537.421 93.3576 537.321C93.5192 537.222 93.6 537.06 93.6 536.837V536.793C93.6 536.25 93.4467 535.83 93.1401 535.532C92.8377 535.233 92.3861 535.084 91.7854 535.084C91.1598 535.084 90.6667 535.223 90.3063 535.501C89.95 535.774 89.7035 536.078 89.5668 536.414L87.8205 536.016C88.0277 535.436 88.3301 534.968 88.7278 534.612C89.1297 534.251 89.5916 533.99 90.1137 533.829C90.6357 533.663 91.1846 533.58 91.7605 533.58C92.1416 533.58 92.5456 533.626 92.9723 533.717C93.4032 533.804 93.8051 533.966 94.1779 534.202C94.5549 534.438 94.8636 534.776 95.1039 535.215C95.3442 535.65 95.4643 536.215 95.4643 536.911V543.25H93.6497V541.945H93.5751C93.455 542.185 93.2748 542.421 93.0345 542.653C92.7942 542.885 92.4855 543.078 92.1085 543.231C91.7315 543.385 91.2799 543.461 90.7537 543.461ZM91.1577 541.97C91.6714 541.97 92.1106 541.868 92.4752 541.665C92.8439 541.462 93.1235 541.197 93.3141 540.87C93.5088 540.538 93.6062 540.184 93.6062 539.807V538.577C93.5399 538.643 93.4115 538.705 93.2209 538.763C93.0345 538.817 92.8211 538.865 92.5808 538.906C92.3405 538.943 92.1064 538.979 91.8786 539.012C91.6507 539.041 91.4601 539.066 91.3068 539.086C90.9464 539.132 90.617 539.209 90.3187 539.316C90.0246 539.424 89.7884 539.579 89.6103 539.782C89.4363 539.981 89.3493 540.246 89.3493 540.578C89.3493 541.038 89.5191 541.386 89.8589 541.622C90.1986 541.854 90.6315 541.97 91.1577 541.97ZM102.048 543.443C101.124 543.443 100.328 543.233 99.6612 542.815C98.9983 542.392 98.4887 541.81 98.1324 541.069C97.7761 540.327 97.5979 539.478 97.5979 538.521C97.5979 537.551 97.7802 536.696 98.1448 535.954C98.5094 535.208 99.0231 534.626 99.686 534.208C100.349 533.789 101.13 533.58 102.029 533.58C102.754 533.58 103.4 533.715 103.968 533.984C104.535 534.249 104.993 534.622 105.341 535.103C105.693 535.583 105.903 536.145 105.969 536.787H104.16C104.061 536.339 103.833 535.954 103.477 535.631C103.125 535.308 102.652 535.146 102.06 535.146C101.542 535.146 101.088 535.283 100.699 535.556C100.314 535.826 100.013 536.211 99.7979 536.712C99.5824 537.21 99.4747 537.798 99.4747 538.477C99.4747 539.173 99.5804 539.774 99.7917 540.279C100.003 540.785 100.301 541.176 100.687 541.454C101.076 541.732 101.534 541.87 102.06 541.87C102.412 541.87 102.731 541.806 103.017 541.678C103.307 541.545 103.549 541.357 103.744 541.112C103.943 540.868 104.082 540.574 104.16 540.23H105.969C105.903 540.847 105.702 541.398 105.366 541.883C105.03 542.368 104.581 542.749 104.018 543.026C103.458 543.304 102.802 543.443 102.048 543.443ZM112.157 543.443C111.217 543.443 110.407 543.242 109.728 542.84C109.052 542.434 108.53 541.864 108.162 541.131C107.797 540.393 107.615 539.53 107.615 538.539C107.615 537.562 107.797 536.7 108.162 535.954C108.53 535.208 109.044 534.626 109.703 534.208C110.366 533.789 111.14 533.58 112.027 533.58C112.566 533.58 113.088 533.669 113.593 533.847C114.098 534.026 114.552 534.305 114.954 534.686C115.356 535.068 115.673 535.563 115.905 536.172C116.137 536.777 116.253 537.512 116.253 538.378V539.037H108.665V537.645H114.432C114.432 537.156 114.333 536.723 114.134 536.346C113.935 535.965 113.655 535.664 113.295 535.445C112.938 535.225 112.52 535.115 112.039 535.115C111.517 535.115 111.062 535.244 110.672 535.501C110.287 535.753 109.989 536.085 109.777 536.495C109.57 536.901 109.467 537.342 109.467 537.819V538.906C109.467 539.544 109.578 540.087 109.802 540.534C110.03 540.982 110.347 541.324 110.753 541.56C111.159 541.792 111.633 541.908 112.176 541.908C112.528 541.908 112.849 541.858 113.139 541.759C113.429 541.655 113.68 541.502 113.891 541.299C114.103 541.096 114.264 540.845 114.376 540.547L116.135 540.864C115.994 541.382 115.741 541.835 115.377 542.225C115.016 542.61 114.562 542.91 114.016 543.126C113.473 543.337 112.853 543.443 112.157 543.443ZM120.26 537.582V543.25H118.402V530.523H120.235V535.258H120.353C120.577 534.744 120.919 534.336 121.379 534.034C121.839 533.731 122.439 533.58 123.181 533.58C123.835 533.58 124.407 533.715 124.896 533.984C125.389 534.253 125.77 534.655 126.04 535.19C126.313 535.72 126.45 536.383 126.45 537.178V543.25H124.592V537.402C124.592 536.702 124.411 536.159 124.051 535.774C123.69 535.385 123.189 535.19 122.547 535.19C122.108 535.19 121.714 535.283 121.366 535.469C121.022 535.656 120.751 535.929 120.552 536.29C120.357 536.646 120.26 537.077 120.26 537.582ZM133.038 543.443C132.143 543.443 131.362 543.238 130.695 542.827C130.028 542.417 129.51 541.843 129.141 541.106C128.772 540.369 128.588 539.507 128.588 538.521C128.588 537.531 128.772 536.665 129.141 535.923C129.51 535.182 130.028 534.606 130.695 534.195C131.362 533.785 132.143 533.58 133.038 533.58C133.932 533.58 134.713 533.785 135.38 534.195C136.047 534.606 136.565 535.182 136.934 535.923C137.303 536.665 137.487 537.531 137.487 538.521C137.487 539.507 137.303 540.369 136.934 541.106C136.565 541.843 136.047 542.417 135.38 542.827C134.713 543.238 133.932 543.443 133.038 543.443ZM133.044 541.883C133.624 541.883 134.104 541.73 134.486 541.423C134.867 541.116 135.148 540.708 135.331 540.199C135.517 539.689 135.61 539.128 135.61 538.515C135.61 537.906 135.517 537.346 135.331 536.837C135.148 536.323 134.867 535.911 134.486 535.6C134.104 535.289 133.624 535.134 133.044 535.134C132.46 535.134 131.975 535.289 131.59 535.6C131.208 535.911 130.925 536.323 130.738 536.837C130.556 537.346 130.465 537.906 130.465 538.515C130.465 539.128 130.556 539.689 130.738 540.199C130.925 540.708 131.208 541.116 131.59 541.423C131.975 541.73 132.46 541.883 133.044 541.883ZM141.507 530.523V543.25H139.649V530.523H141.507ZM147.667 543.436C146.897 543.436 146.209 543.24 145.604 542.846C145.004 542.448 144.531 541.883 144.187 541.15C143.848 540.412 143.678 539.528 143.678 538.496C143.678 537.464 143.85 536.582 144.194 535.849C144.542 535.115 145.018 534.554 145.623 534.164C146.228 533.775 146.913 533.58 147.68 533.58C148.272 533.58 148.749 533.68 149.109 533.879C149.474 534.073 149.756 534.301 149.954 534.562C150.157 534.823 150.315 535.053 150.427 535.252H150.539V530.523H152.397V543.25H150.582V541.765H150.427C150.315 541.968 150.153 542.2 149.942 542.461C149.735 542.722 149.449 542.95 149.084 543.144C148.72 543.339 148.247 543.436 147.667 543.436ZM148.078 541.852C148.612 541.852 149.064 541.711 149.432 541.429C149.805 541.143 150.087 540.748 150.278 540.242C150.472 539.737 150.57 539.148 150.57 538.477C150.57 537.814 150.474 537.234 150.284 536.737C150.093 536.24 149.814 535.853 149.445 535.575C149.076 535.298 148.62 535.159 148.078 535.159C147.518 535.159 147.052 535.304 146.679 535.594C146.306 535.884 146.025 536.279 145.834 536.781C145.648 537.282 145.555 537.848 145.555 538.477C145.555 539.115 145.65 539.689 145.84 540.199C146.031 540.708 146.313 541.112 146.686 541.411C147.063 541.705 147.527 541.852 148.078 541.852ZM159.25 543.443C158.31 543.443 157.5 543.242 156.82 542.84C156.145 542.434 155.623 541.864 155.254 541.131C154.89 540.393 154.707 539.53 154.707 538.539C154.707 537.562 154.89 536.7 155.254 535.954C155.623 535.208 156.137 534.626 156.795 534.208C157.458 533.789 158.233 533.58 159.12 533.58C159.658 533.58 160.18 533.669 160.686 533.847C161.191 534.026 161.645 534.305 162.047 534.686C162.449 535.068 162.766 535.563 162.998 536.172C163.23 536.777 163.346 537.512 163.346 538.378V539.037H155.758V537.645H161.525C161.525 537.156 161.425 536.723 161.226 536.346C161.028 535.965 160.748 535.664 160.387 535.445C160.031 535.225 159.613 535.115 159.132 535.115C158.61 535.115 158.154 535.244 157.765 535.501C157.38 535.753 157.081 536.085 156.87 536.495C156.663 536.901 156.559 537.342 156.559 537.819V538.906C156.559 539.544 156.671 540.087 156.895 540.534C157.123 540.982 157.44 541.324 157.846 541.56C158.252 541.792 158.726 541.908 159.269 541.908C159.621 541.908 159.942 541.858 160.232 541.759C160.522 541.655 160.773 541.502 160.984 541.299C161.195 541.096 161.357 540.845 161.469 540.547L163.227 540.864C163.087 541.382 162.834 541.835 162.469 542.225C162.109 542.61 161.655 542.91 161.108 543.126C160.566 543.337 159.946 543.443 159.25 543.443ZM165.495 543.25V533.705H167.291V535.221H167.39C167.564 534.707 167.871 534.303 168.31 534.009C168.753 533.711 169.254 533.562 169.814 533.562C169.93 533.562 170.067 533.566 170.224 533.574C170.386 533.582 170.512 533.593 170.603 533.605V535.382C170.528 535.362 170.396 535.339 170.205 535.314C170.015 535.285 169.824 535.271 169.634 535.271C169.194 535.271 168.803 535.364 168.459 535.55C168.119 535.733 167.85 535.987 167.651 536.315C167.452 536.638 167.353 537.007 167.353 537.421V543.25H165.495ZM181.473 533.705V535.196H176.259V533.705H181.473ZM177.657 531.418H179.516V540.447C179.516 540.808 179.569 541.079 179.677 541.261C179.785 541.44 179.924 541.562 180.094 541.628C180.268 541.69 180.456 541.721 180.659 541.721C180.808 541.721 180.939 541.711 181.051 541.69C181.162 541.669 181.249 541.653 181.312 541.64L181.647 543.175C181.539 543.217 181.386 543.258 181.187 543.3C180.988 543.345 180.74 543.37 180.442 543.374C179.953 543.383 179.497 543.296 179.074 543.113C178.652 542.931 178.31 542.649 178.049 542.268C177.788 541.887 177.657 541.408 177.657 540.833V531.418ZM187.628 543.443C186.687 543.443 185.877 543.242 185.198 542.84C184.522 542.434 184 541.864 183.632 541.131C183.267 540.393 183.085 539.53 183.085 538.539C183.085 537.562 183.267 536.7 183.632 535.954C184 535.208 184.514 534.626 185.173 534.208C185.836 533.789 186.61 533.58 187.497 533.58C188.036 533.58 188.558 533.669 189.063 533.847C189.569 534.026 190.022 534.305 190.424 534.686C190.826 535.068 191.143 535.563 191.375 536.172C191.607 536.777 191.723 537.512 191.723 538.378V539.037H184.135V537.645H189.902C189.902 537.156 189.803 536.723 189.604 536.346C189.405 535.965 189.125 535.664 188.765 535.445C188.409 535.225 187.99 535.115 187.509 535.115C186.987 535.115 186.532 535.244 186.142 535.501C185.757 535.753 185.459 536.085 185.247 536.495C185.04 536.901 184.937 537.342 184.937 537.819V538.906C184.937 539.544 185.049 540.087 185.272 540.534C185.5 540.982 185.817 541.324 186.223 541.56C186.629 541.792 187.103 541.908 187.646 541.908C187.998 541.908 188.319 541.858 188.609 541.759C188.899 541.655 189.15 541.502 189.361 541.299C189.573 541.096 189.734 540.845 189.846 540.547L191.605 540.864C191.464 541.382 191.211 541.835 190.847 542.225C190.486 542.61 190.033 542.91 189.486 543.126C188.943 543.337 188.324 543.443 187.628 543.443ZM195.117 533.705L197.223 537.421L199.349 533.705H201.381L198.404 538.477L201.406 543.25H199.373L197.223 539.683L195.079 543.25H193.041L196.011 538.477L193.078 533.705H195.117ZM207.832 533.705V535.196H202.618V533.705H207.832ZM204.016 531.418H205.874V540.447C205.874 540.808 205.928 541.079 206.036 541.261C206.144 541.44 206.282 541.562 206.452 541.628C206.626 541.69 206.815 541.721 207.018 541.721C207.167 541.721 207.297 541.711 207.409 541.69C207.521 541.669 207.608 541.653 207.67 541.64L208.006 543.175C207.898 543.217 207.745 543.258 207.546 543.3C207.347 543.345 207.099 543.37 206.8 543.374C206.311 543.383 205.856 543.296 205.433 543.113C205.01 542.931 204.669 542.649 204.408 542.268C204.147 541.887 204.016 541.408 204.016 540.833V531.418Z" fill="#101010"/>
<path d="M504.861 536.75C504.861 538.194 503.695 539.36 502.251 539.36C500.807 539.36 499.641 538.194 499.641 536.75C499.641 535.306 500.807 534.14 502.251 534.14C503.695 534.14 504.861 535.306 504.861 536.75Z" stroke="#101010" stroke-width="1.875" stroke-linecap="round" stroke-linejoin="round"/>
<path d="M502.252 542.78C504.826 542.78 507.225 541.263 508.895 538.638C509.551 537.61 509.551 535.882 508.895 534.854C507.225 532.229 504.826 530.712 502.252 530.712C499.678 530.712 497.279 532.229 495.609 534.854C494.953 535.882 494.953 537.61 495.609 538.638C497.279 541.263 499.678 542.78 502.252 542.78Z" stroke="#101010" stroke-width="1.875" stroke-linecap="round" stroke-linejoin="round"/>
<defs>
<filter id="filter0_d_4763_31114" x="46" y="243.75" width="490" height="70.75" filterUnits="userSpaceOnUse" color-interpolation-filters="sRGB">
<feFlood flood-opacity="0" result="BackgroundImageFix"/>
<feColorMatrix in="SourceAlpha" type="matrix" values="0 0 0 0 0 0 0 0 0 0 0 0 0 0 0 0 0 0 127 0" result="hardAlpha"/>
<feOffset dy="5"/>
<feGaussianBlur stdDeviation="5"/>
<feComposite in2="hardAlpha" operator="out"/>
<feColorMatrix type="matrix" values="0 0 0 0 0 0 0 0 0 0.521569 0 0 0 0 0.996078 0 0 0 0.1 0"/>
<feBlend mode="normal" in2="BackgroundImageFix" result="effect1_dropShadow_4763_31114"/>
<feBlend mode="normal" in="SourceGraphic" in2="effect1_dropShadow_4763_31114" result="shape"/>
</filter>
<filter id="filter1_d_4763_31114" x="46" y="375" width="490" height="70.75" filterUnits="userSpaceOnUse" color-interpolation-filters="sRGB">
<feFlood flood-opacity="0" result="BackgroundImageFix"/>
<feColorMatrix in="SourceAlpha" type="matrix" values="0 0 0 0 0 0 0 0 0 0 0 0 0 0 0 0 0 0 127 0" result="hardAlpha"/>
<feOffset dy="5"/>
<feGaussianBlur stdDeviation="5"/>
<feComposite in2="hardAlpha" operator="out"/>
<feColorMatrix type="matrix" values="0 0 0 0 0 0 0 0 0 0.521569 0 0 0 0 0.996078 0 0 0 0.1 0"/>
<feBlend mode="normal" in2="BackgroundImageFix" result="effect1_dropShadow_4763_31114"/>
<feBlend mode="normal" in="SourceGraphic" in2="effect1_dropShadow_4763_31114" result="shape"/>
</filter>
</defs>
</svg>
